<?xml version="1.0" encoding="utf-8"?>
<!-- Generator: Adobe Illustrator 21.1.0, SVG Export Plug-In . SVG Version: 6.00 Build 0)  -->
<svg version="1.1" id="Layer_1" xmlns="http://www.w3.org/2000/svg" xmlns:xlink="http://www.w3.org/1999/xlink" x="0px" y="0px"
	 viewBox="0 0 200 200" style="enable-background:new 0 0 200 200;" xml:space="preserve">
<style type="text/css">
	.st0{fill:none;}
	.st1{fill:#2062AF;}
	.st2{fill:#3C9CD7;}
	.st3{fill:#FFFFFF;}
	.st4{fill:url(#SVGID_1_);}
	.st5{fill:url(#SVGID_2_);}
	.st6{fill:url(#SVGID_3_);}
	.st7{opacity:5.000000e-02;enable-background:new    ;}
	.st8{fill:url(#SVGID_4_);}
</style>
<g>
	<path class="st0" d="M-31.9-51.9h263.8v263.8H-31.9V-51.9z"/>
	<path class="st1" d="M166.7,177.1L100,195l-66.7-18L17.9,10.3h164.3L166.7,177.1z"/>
	<path class="st2" d="M100,23.8v156.9l0.2,0l54-14.5l12.5-142.4L100,23.8L100,23.8z"/>
	<path class="st3" d="M99.9,65.5L52.2,85.4l1.6,19.7l46.2-19.7l49.1-21l2-20.1L99.9,65.5L99.9,65.5z"/>
	
		<linearGradient id="SVGID_1_" gradientUnits="userSpaceOnUse" x1="-962.8561" y1="-1539.4369" x2="-962.8561" y2="-1547.9642" gradientTransform="matrix(4.6418 0 0 4.6418 4545.4468 7250.8257)">
		<stop  offset="0.387" style="stop-color:#D1D3D4;stop-opacity:0"/>
		<stop  offset="1" style="stop-color:#D1D3D4"/>
	</linearGradient>
	<path class="st4" d="M52.2,85.4l1.6,19.7l46.2-19.7V65.5L52.2,85.4z"/>
	
		<linearGradient id="SVGID_2_" gradientUnits="userSpaceOnUse" x1="-952.2015" y1="-1543.6901" x2="-952.2015" y2="-1552.554" gradientTransform="matrix(4.6418 0 0 4.6418 4545.4468 7250.8257)">
		<stop  offset="0.387" style="stop-color:#D1D3D4;stop-opacity:0"/>
		<stop  offset="1" style="stop-color:#D1D3D4"/>
	</linearGradient>
	<path class="st5" d="M151.1,44.2L99.9,65.5v19.8l49.1-21L151.1,44.2z"/>
	
		<linearGradient id="SVGID_3_" gradientUnits="userSpaceOnUse" x1="-967.9846" y1="-1535.6335" x2="-947.5037" y2="-1535.6335" gradientTransform="matrix(4.6418 0 0 4.6418 4545.4468 7250.8257)">
		<stop  offset="0" style="stop-color:#E8E7E5"/>
		<stop  offset="1" style="stop-color:#FFFFFF"/>
	</linearGradient>
	<path class="st6" d="M52.3,85.4l1.6,19.7l70.8,0.2l-1.6,26.3l-23.3,6.6l-22.4-5.7L76,116.2H55.2l2.7,31.5l42.1,12.4l41.9-12.2
		l5.4-62.5H52.3z"/>
	<path class="st7" d="M99.9,85.4H52.2l1.6,19.7l46.2,0.1L99.9,85.4L99.9,85.4z M99.9,138l-0.2,0.1l-22.4-5.7l-1.4-16.3H55.1
		l2.7,31.5l42.1,12.4V138z"/>
	
		<linearGradient id="SVGID_4_" gradientUnits="userSpaceOnUse" x1="-968.9269" y1="-1550.384" x2="-946.6913" y2="-1550.384" gradientTransform="matrix(4.6418 0 0 4.6418 4545.4468 7250.8257)">
		<stop  offset="0" style="stop-color:#E8E7E5"/>
		<stop  offset="1" style="stop-color:#FFFFFF"/>
	</linearGradient>
	<path class="st8" d="M47.9,44.2h103.2l-2,20.1H50.4L47.9,44.2L47.9,44.2z"/>
	<path class="st7" d="M99.9,44.2H47.9l2.5,20.1h49.6L99.9,44.2L99.9,44.2z"/>
</g>
</svg>
