<?xml version="1.0" encoding="utf-8"?>
<!-- Generator: Adobe Illustrator 21.1.0, SVG Export Plug-In . SVG Version: 6.00 Build 0)  -->
<svg version="1.1" id="Layer_1" xmlns="http://www.w3.org/2000/svg" xmlns:xlink="http://www.w3.org/1999/xlink" x="0px" y="0px"
	 viewBox="0 0 200 200" style="enable-background:new 0 0 200 200;" xml:space="preserve">
<style type="text/css">
	.st0{fill:#DE4C36;}
</style>
<g>
	<path class="st0" d="M190.4,91.6L108.4,9.6c-4.7-4.7-12.4-4.7-17.1,0l-17,17l21.6,21.6c5-1.7,10.8-0.6,14.8,3.4
		c4,4,5.2,9.8,3.4,14.9l20.8,20.8c5-1.7,10.9-0.6,14.9,3.4c5.6,5.6,5.6,14.7,0,20.4c-5.6,5.6-14.7,5.6-20.4,0
		c-4.2-4.2-5.3-10.5-3.1-15.7l-19.4-19.4l0,51.1c1.4,0.7,2.7,1.6,3.8,2.7c5.6,5.6,5.6,14.7,0,20.4c-5.6,5.6-14.7,5.6-20.4,0
		c-5.6-5.6-5.6-14.7,0-20.4c1.3-1.3,3-2.4,4.7-3.1V75.2c-1.8-0.7-3.4-1.8-4.7-3.1C86,67.8,85,61.5,87.1,56.3L65.8,35L9.6,91.2
		c-4.7,4.7-4.7,12.4,0,17.1l82.1,82.1c4.7,4.7,12.4,4.7,17.1,0l81.7-81.7C195.2,104,195.2,96.4,190.4,91.6"/>
</g>
</svg>
