<?xml version="1.0" encoding="utf-8"?>
<!-- Generator: Adobe Illustrator 21.1.0, SVG Export Plug-In . SVG Version: 6.00 Build 0)  -->
<svg version="1.1" id="Layer_1" xmlns="http://www.w3.org/2000/svg" xmlns:xlink="http://www.w3.org/1999/xlink" x="0px" y="0px"
	 viewBox="0 0 200 200" style="enable-background:new 0 0 200 200;" xml:space="preserve">
<style type="text/css">
	.st0{fill:#E44D26;}
	.st1{fill:#F16529;}
	.st2{fill:#EBEBEB;}
	.st3{fill:#FFFFFF;}
</style>
<g>
	<path class="st0" d="M31.3,176.2L16,4.7h168l-15.3,171.4l-68.8,19.1L31.3,176.2z"/>
	<path class="st1" d="M100,180.7l55.6-15.4l13.1-146.5H100V180.7z"/>
	<path class="st2" d="M100,82.4H72.2l-1.9-21.5H100v-21H47.3l0.5,5.6l5.2,58H100V82.4z M100,137L100,137l-23.5-6.3L75,113.9H53.9
		l2.9,33l43.1,12l0.1,0V137z"/>
	<path class="st3" d="M99.9,82.4v21h25.9l-2.4,27.3L99.9,137v21.9l43.1-11.9l0.3-3.6l4.9-55.4l0.5-5.6h-5.7L99.9,82.4z M99.9,39.8
		v21h50.8l0.4-4.7l1-10.7l0.5-5.6L99.9,39.8z"/>
</g>
</svg>
