<?xml version="1.0" encoding="utf-8"?>
<!-- Generator: Adobe Illustrator 21.1.0, SVG Export Plug-In . SVG Version: 6.00 Build 0)  -->
<svg version="1.1" id="Layer_1" xmlns="http://www.w3.org/2000/svg" xmlns:xlink="http://www.w3.org/1999/xlink" x="0px" y="0px"
	 viewBox="0 0 200 200" style="enable-background:new 0 0 200 200;" xml:space="preserve">
<style type="text/css">
	.st0{fill:#F7DF1E;}
</style>
<g>
	<path class="st0" d="M2,2h196v196H2V2z"/>
	<path d="M53.5,165.8l15-9.1c2.9,5.1,5.5,9.5,11.8,9.5c6.1,0,9.9-2.4,9.9-11.6V92h18.4v62.9c0,19.1-11.2,27.8-27.5,27.8
		C66.4,182.6,57.9,175,53.5,165.8 M118.7,163.8l15-8.7c3.9,6.4,9.1,11.2,18.2,11.2c7.6,0,12.5-3.8,12.5-9.1c0-6.3-5-8.6-13.4-12.2
		l-4.6-2c-13.3-5.7-22.1-12.8-22.1-27.8c0-13.8,10.5-24.3,27-24.3c11.7,0,20.1,4.1,26.2,14.7l-14.3,9.2c-3.2-5.7-6.6-7.9-11.8-7.9
		c-5.4,0-8.8,3.4-8.8,7.9c0,5.5,3.4,7.8,11.3,11.2l4.6,2c15.7,6.7,24.5,13.6,24.5,28.9c0,16.6-13,25.7-30.5,25.7
		C135.1,182.6,124.1,174.5,118.7,163.8"/>
</g>
</svg>
