<svg xmlns="http://www.w3.org/2000/svg" xmlns:xlink="http://www.w3.org/1999/xlink" viewBox="0 0 89 86" fill="#fff" fill-rule="evenodd" stroke="#000" stroke-linecap="round" stroke-linejoin="round"><use xlink:href="#A" x=".5" y=".5"/><symbol id="A" overflow="visible"><g stroke="none" fill-rule="nonzero"><path d="M19.14 12.995c-4.993 7.308-4.37 16.816-.567 24.572l.28.553.19.35c.035.068.076.135.112.2.066.123.132.24.19.362l.364.636.208.35.422.673.19.283c.19.302.403.603.612.9.005.008.01.016.017.024.033.047.07.095.094.142.18.255.378.507.567.756l.2.272.515.645.197.24a30.04 30.04 0 0 0 .718.836l.015.015c.01.012.02.02.028.03.237.267.48.53.73.784l.234.24.583.582.238.23c.262.25.528.498.8.74l.15.132.725.624.3.244.605.473.323.25.924.676c.024.016.044.033.068.05a35.27 35.27 0 0 0 .659.444l.285.194 1.032.643.285.163.775.442c.142.078.286.15.428.225l.554.284.128.062.227.11.88.414.186.094a31.2 31.2 0 0 0 1.024.434l.25.1.967.365.12.044c.357.126.716.246 1.077.36l.26.08c.378.113.732.25 1.112.32C63.575 59.135 70.6 39.872 70.6 39.872c-5.89 7.816-16.346 9.876-26.253 7.582-.375-.094-.74-.205-1.106-.316l-.276-.095a33.55 33.55 0 0 1-1.064-.353l-.146-.054-.938-.354-.265-.106a29.72 29.72 0 0 1-1.013-.429l-.202-.09-.854-.406-.246-.12-.662-.343-.44-.236a25.59 25.59 0 0 1-.792-.453l-.267-.15c-.348-.208-.692-.425-1.032-.643-.094-.06-.185-.127-.28-.19l-.734-.497-.236-.17-.695-.5-.308-.236-.627-.5-.28-.227-.78-.662c-.026-.024-.057-.047-.094-.073-.278-.25-.55-.504-.82-.76l-.23-.227-.6-.588-.23-.236a29.72 29.72 0 0 1-.723-.779c-.01-.013-.024-.026-.036-.038a29.8 29.8 0 0 1-.733-.851l-.192-.232-.53-.664-.194-.246-.6-.827c-5.5-7.64-7.466-18.18-3.08-26.834m11.61-1.123c-3.6 5.293-3.415 12.375-.598 17.972.47.94 1.005 1.847 1.597 2.715.54.79 1.14 1.73 1.86 2.363.26.284.532.567.8.856.07.073.142.142.214.215a23.83 23.83 0 0 0 .828.784c.01.01.022.02.034.03.318.282.643.556.974.822l.22.174c.33.26.668.51 1.01.752a.61.61 0 0 0 .028.022c.15.107.307.208.46.3.074.05.144.1.217.147a20.39 20.39 0 0 0 .749.468l.106.062.662.378c.078.044.157.083.236.125l.472.244c.024.012.047.022.07.033.318.16.64.312.967.458.07.03.142.06.214.1.262.113.526.223.794.328l.34.127.728.258.33.107c.347.11.7.248 1.052.3C67.655 40.132 71.96 25.513 71.96 25.513c-3.88 5.7-11.392 8.406-19.4 6.287a19.83 19.83 0 0 1-1.056-.312c-.107-.033-.212-.068-.318-.095-.248-.082-.494-.168-.738-.26l-.334-.127c-.267-.095-.532-.213-.794-.326-.072-.03-.144-.06-.215-.093-.33-.144-.654-.297-.973-.46l-.488-.253-.282-.147c-.208-.114-.414-.232-.617-.354l-.148-.095a23.83 23.83 0 0 1-.747-.465c-.076-.05-.15-.095-.225-.153l-.484-.326a26.02 26.02 0 0 1-1.008-.75l-.227-.18c-3.51-2.822-6.29-6.678-7.614-11.05C34.9 11.816 35.2 6.726 37.608 2.595m10.063-.36c-2.128 3.19-2.337 7.153-.85 10.676 1.558 3.74 4.75 6.674 8.474 8.065a8.98 8.98 0 0 0 .473.163l.204.066c.22.07.438.15.663.195 10.294 2.025 13.086-5.38 13.83-6.47-2.446 3.587-6.556 4.448-11.6 3.2-.397-.1-.836-.246-1.23-.384-.493-.18-.977-.383-1.45-.613-.898-.44-1.75-.97-2.54-1.58C49.124 12.07 46.32 5.417 49.265 0" fill="#0868ac"/><g fill="#131b28"><path d="M24.94 69.965l-.697 2.472.697-2.47zm3.588 5.366l-.768-.005.768.005zm-.19 3.69l-4.604.017 4.604-.017zm.964-3.686l-.77-.005.77.005zm-.55 3.372l.803-3.06-.803 3.06zM45.697 64.62l-1.493 7.025 1.493-7.025zm-3.842 0L40.72 69.87l1.134-5.248z"/><path d="M45.432 64.304h-3.194a.42.42 0 0 0-.391.316l-2.268 10.497a.42.42 0 0 1-.39.315h-2.262c-2.238 0-1.98-1.547-1.512-3.667l.014-.064.27-1.446.117-.595 1.032-5.04c.036-.174-.08-.317-.258-.317h-3.28c-.186.006-.345.135-.39.316l-1.477 7.007c-.813 3.71-.597 7.245 3.818 7.356l.128.003h6.93a.42.42 0 0 0 .39-.316l2.988-14.05a.25.25 0 0 0-.255-.316zm12.747 11.164c.178 0 .283.142.258.316l-.3 1.517m-.3 1.518l.3-1.518-.3 1.518zm-.39.32l-5.888.028 5.888-.028z"/><path d="M49.632 73.516c-.003-.166.186-.452.364-.452l-.4-.007c-.19 1.81.035.458.035.458zm2.198 5.65h-.062.062zm6.348-3.697c.178 0 .283.142.258.316l-.36 1.763m-4.733 1.623h-.013.013zm-.784-.006h-.045.045zm-.24.001h-.076.076zm-.233 0h-.066.066zm.437-.001h-.194.194z"/><path d="M53.33 79.17l-.77.003.77-.003zm4.1-.024l-4.087.025 4.087-.025zm.378-.328l.26-1.27-.26 1.27zm-5.572.347h-.15.168zm-.468 0h-.227.227zm.243 0h-.19.19zM5.266 73.554l.496-2.2-.567 2.514-.066.316.138-.63zm5.94-9.286h-3.51c-.186.007-.346.135-.394.315l-.665 2.93c-.023.077-.006.16.044.223s.128.097.208.092h3.536a.42.42 0 0 0 .391-.315l.643-2.936c.038-.173-.076-.315-.255-.315zm-.764 4.884l-1.04 4.76 1.04-4.76zM.25 84.93l2.894.023a298.29 298.29 0 0 1-2.895-.024z"/><path d="M6.248 69.153l-.497 2.2.497-2.2zm3.94-.315H6.652c-.186.007-.346.135-.394.315l-.992 4.4-.138.63-.945 4.492-.17.62c-.066.204-.66 1.966-1.77 1.944l-1.1-.02c-.185.005-.346.13-.397.308L.01 84.613c-.023.076-.008.16.04.223s.126.1.206.095l2.895.024c2.775 0 4.237-1.538 5.175-5.96l2.127-9.83c.038-.173-.078-.315-.255-.315zm50.243 10.148c-.178 0-.284-.142-.255-.316l2.66-12.462m1.292 12.46l1.077-5.32-1.077 5.32z"/><path d="M60.216 78.828c-.022-.087-.01-.3.028-.473l1.263-5.916-1.33 6.23a.25.25 0 0 0 .255.316h.323c-.178 0-.518-.07-.54-.158zm3.705.087c-.096.038-.32.07-.5.07h.323c.185-.007.343-.136.387-.317l.064-.316c-.035.174-.19.523-.283.56zM64.677 76l.475-2.348L64.677 76zm10.498-8.967l.146.605c.04.173-.072.314-.248.315"/><path d="M64.194 78.354L64.667 76l-.472 2.344zM75.02 66.41l.145.62-.145-.62zm-9.878 7.25l.13-.628.507-2.377-.575 2.692-.063.312zm-2.262-7.66l-.11.52-1.263 5.916 1.33-6.23.043-.204z"/><path d="M75.313 67.648l-.146-.605-.217-.945c-.287-1.115-1.13-1.76-2.962-1.76l-8.43-.006c-.186.006-.345.135-.39.316l-.13.617-.19.933-2.593 12.147c-.038.174-.05.378-.028.473s.362.158.54.158h2.665c.178 0 .402-.032.5-.07s.24-.378.284-.56l1.01-5.003 1.082-5.07a.42.42 0 0 1 .389-.315l8.386-.004c.177 0 .29-.142.25-.315zm10.796-5.475l-.645.003H82.78a.69.69 0 0 0-.505.267l-5.935 8.695c-.1.146-.215.125-.255-.047l-.437-1.916c-.048-.18-.208-.307-.394-.315h-3.815c-.178 0-.283.14-.234.3l1.7 6a1.43 1.43 0 0 1 .009.624l-.756 2.9c-.026.076-.012.16.037.222s.127.097.206.09h3.78a.44.44 0 0 0 .403-.312l.756-2.9a1.93 1.93 0 0 1 .274-.571l9.646-12.8c.107-.142.05-.257-.13-.255l-1.01.007zm-30.315 7.5a.39.39 0 0 1-.378.331h-4.84c-.167 0-.252-.113-.227-.255l.004-.026.022-.082c.473-1.23 1.403-2.035 3.172-2.035 1.99 0 2.38.974 2.245 2.067zm-1.42-5.584c-6.21 0-7.68 3.77-8.506 7.573-.826 3.878-.754 7.504 5.67 7.504h1.02l.784-.003 4.09-.025c.184-.01.34-.137.385-.317l.62-3.036c.036-.174-.08-.316-.258-.316h-5.776c-2.297 0-2.98-.61-2.73-2.405h9.234a.37.37 0 0 0 .342-.238.39.39 0 0 0 .023-.08c1.37-5.17.977-8.654-4.896-8.654zm-29.35 5.563l-.087.31c0 .001-.698 2.472-.698 2.472l-.697 2.47c-.06.178-.222.302-.4.3h-3.692c-2.8 0-3.48-2.2-2.8-5.42.68-3.303 2.018-5.357 4.773-5.565 3.765-.284 4.518 2.365 3.6 5.42zm2.53 5.373s1.74-4.225 2.136-6.666c.54-3.267-1.096-8.005-7.414-8.005-6.282 0-9 4.523-10.05 9.45-1.04 4.952.323 9.296 6.568 9.262l9.532-.035c.187-.01.35-.135.404-.314l.803-3.06c.026-.075.013-.16-.036-.222s-.126-.098-.206-.092l-1.538-.01c-.15-.001-.236-.098-.22-.227.004-.024.01-.047.02-.072zM58.654 72.2c0 .117-.094.212-.212.212s-.212-.094-.212-.212.095-.212.212-.212.212.095.212.212z"/></g></g></symbol></svg>