<svg version="1.1" id="Слой_1" xmlns="http://www.w3.org/2000/svg" xmlns:xlink="http://www.w3.org/1999/xlink" x="0px"
     y="0px"
     viewBox="0 0 49 48" style="enable-background:new 0 0 49 48;" xml:space="preserve">
<style type="text/css">
	.st0{fill:#ADB0B5;}
</style>
    <path class="st0" d="M20.3,34.9c4,4,8,8,12,12c-14,4.2-28.5-4.8-31-18.2C-1.3,15.1,9.2,2,22.5,0.6c10.9-1.1,21.9,5.8,25.2,16.8
	c2.9,9.6-0.8,20.2-9.1,26.3c-2.9-2.9-5.8-5.8-8.8-8.8c5.6-0.1,10.3-4.6,10.6-10.2c0.3-5.6-3.9-10.6-9.5-11.3c-3.5,0-7.1,0-10.6,0
	c0-1.5,0-2.9,0-4.4c-3.5,3.7-7.1,7.3-10.6,11c6.6,0,13.1,0,19.7,0c2.2,0.1,3.9,1.9,4,4c0.1,2.2-1.7,4.2-4,4.4c-2.1,0-4.1,0-6.2,0
	C22.2,30.5,21.2,32.7,20.3,34.9z"/>
</svg>
