<?xml version="1.0" encoding="UTF-8"?> <!-- Generator: Adobe Illustrator 23.0.3, SVG Export Plug-In . SVG Version: 6.00 Build 0) --> <svg xmlns="http://www.w3.org/2000/svg" xmlns:xlink="http://www.w3.org/1999/xlink" id="Layer_1" x="0px" y="0px" viewBox="0 0 46 46" style="enable-background:new 0 0 46 46;" xml:space="preserve"> <style type="text/css"> .st0{fill:#602D8A;} .st1{fill:#FFFFFF;} </style> <circle class="st0" cx="23" cy="23" r="23"></circle> <g> <path class="st1" d="M11.7,21.6l-3.3,7.1H5.4L4.7,17.4h3.2l0.1,7.5l3.6-7.5h2.2l0.3,7.5l3.4-7.5h3.3L15,28.6h-3.1L11.7,21.6z"></path> <path class="st1" d="M26.1,17.2c3,0,4.6,1.7,5.2,3.5l-2.8,0.9c-0.3-1.1-1.3-1.8-2.5-1.8c-2,0-3.5,1.7-3.5,3.8 c0,1.5,1.1,2.7,2.9,2.7c0.9,0,1.9-0.5,2.4-1.3l2.3,1.5c-1.4,1.8-3.4,2.4-4.9,2.4c-3.2,0-5.7-2-5.7-5.1 C19.4,19.8,22.5,17.2,26.1,17.2z"></path> <path class="st1" d="M33.1,17.4h8.3l-0.5,2.4h-5.4L35,21.7h5.2l-0.5,2.5h-5.2l-1,4.5h-2.9L33.1,17.4z"></path> </g> </svg> 