<?xml version="1.0" standalone="no"?>
<!DOCTYPE svg PUBLIC "-//W3C//DTD SVG 1.1//EN" "http://www.w3.org/Graphics/SVG/1.1/DTD/svg11.dtd" >
<svg>
<metadata>
Created by FontForge 20090622 at Fri May  5 09:19:15 2017
 By deploy user
Copyright 2004 Process Type Foundry. All rights reserved.
</metadata>
<defs>
<font id="Klavika-MediumItalic" horiz-adv-x="525" >
  <font-face 
    font-family="Klavika Md"
    font-weight="500"
    font-style="italic"
    font-stretch="normal"
    units-per-em="1000"
    panose-1="2 0 0 0 0 0 0 0 0 0"
    ascent="750"
    descent="-250"
    x-height="487"
    cap-height="666"
    bbox="-75 -295 1181 1003"
    underline-thickness="20"
    underline-position="-113"
    unicode-range="U+0020-U+FB02"
  />
<missing-glyph horiz-adv-x="632" 
d="M110 0v666h462v-666h-462zM527 623h-346l346 -544v544zM155 586v-543h344z" />
    <glyph glyph-name="fi" unicode="fi" horiz-adv-x="608" 
d="M373 0l68 389h-192l-73 -412q-10 -59 -34 -100.5t-72 -83.5l-77 72q53 52 65 123l71 401h-75l17 98h75l12 70q14 79 53.5 114t119.5 35q79 0 169 -34l-24 -88q-74 24 -136 24q-30 0 -43 -10.5t-18 -35.5l-13 -75h256l58 8l-87 -495h-120z" />
    <glyph glyph-name="fl" unicode="fl" horiz-adv-x="608" 
d="M387 487l-26 -98h-112l-73 -412q-10 -59 -34 -100.5t-72 -83.5l-77 72q53 52 65 123l71 401h-75l17 98h75l12 70q14 80 54 114.5t129 34.5q66 0 153 -20l123 17l-124 -703h-120l105 595q-82 15 -135 15q-31 0 -45 -11t-19 -37l-13 -75h121z" />
    <glyph glyph-name="f_f" unicode="ff" horiz-adv-x="709" 
d="M424 -207l-77 72q53 52 65 123l71 401h-234l-73 -412q-10 -59 -34 -100.5t-72 -83.5l-77 72q53 52 65 123l71 401h-75l17 98h75l13 75q14 79 51 111.5t117 32.5q64 0 114 -19l-24 -93q-42 12 -80 12q-28 0 -40.5 -9.5t-17.5 -34.5l-13 -75h234l13 75q14 79 51 111.5
t117 32.5q62 0 117 -21l-24 -93q-49 14 -83 14q-28 0 -40.5 -9.5t-17.5 -34.5l-13 -75h132l-26 -98h-123l-73 -412q-10 -59 -34 -100.5t-72 -83.5z" />
    <glyph glyph-name="f_f_i" unicode="ffi" horiz-adv-x="962" 
d="M500 487l12 70q14 79 53.5 114t119.5 35q79 0 169 -34l-24 -88q-74 24 -136 24q-30 0 -43 -10.5t-18 -35.5l-13 -75h256l58 8l-87 -495h-120l68 389h-192l-73 -412q-10 -59 -34 -100.5t-72 -83.5l-77 72q53 52 65 123l71 401h-234l-73 -412q-10 -59 -34 -100.5t-72 -83.5
l-77 72q53 52 65 123l71 401h-75l17 98h75l13 75q14 79 51 111.5t117 32.5q64 0 114 -19l-24 -93q-42 12 -80 12q-28 0 -40.5 -9.5t-17.5 -34.5l-13 -75h234z" />
    <glyph glyph-name="f_j" unicode="fj" horiz-adv-x="610" 
d="M587 495l-91 -518q-9 -52 -35.5 -86t-121.5 -98l-59 83l26.5 21t21.5 17l15.5 13t12.5 12t8 10t7 11.5t3.5 12.5l3.5 17l70 399h-199l-73 -412q-10 -59 -34 -100.5t-72 -83.5l-77 72q53 52 65 123l71 401h-75l17 98h75l12 70q14 79 53.5 114t119.5 35q79 0 169 -34
l-24 -88q-74 24 -136 24q-30 0 -43 -10.5t-18 -35.5l-13 -75h263z" />
    <glyph glyph-name="f_f_j" unicode="ffj" horiz-adv-x="964" 
d="M500 487l12 70q14 79 53.5 114t119.5 35q79 0 169 -34l-24 -88q-74 24 -136 24q-30 0 -43 -10.5t-18 -35.5l-13 -75h263l58 8l-91 -518q-9 -52 -35.5 -86t-121.5 -98l-59 83l26.5 21t21.5 17l15.5 13t12.5 12t8 10t7 11.5t3.5 12.5l3.5 17l70 399h-199l-73 -412
q-10 -59 -34 -100.5t-72 -83.5l-77 72q53 52 65 123l71 401h-234l-73 -412q-10 -59 -34 -100.5t-72 -83.5l-77 72q53 52 65 123l71 401h-75l17 98h75l13 75q14 79 51 111.5t117 32.5q64 0 114 -19l-24 -93q-42 12 -80 12q-28 0 -40.5 -9.5t-17.5 -34.5l-13 -75h234z" />
    <glyph glyph-name="f_f_l" unicode="ffl" horiz-adv-x="962" 
d="M741 487l-26 -98h-112l-73 -412q-10 -59 -34 -100.5t-72 -83.5l-77 72q53 52 65 123l71 401h-234l-73 -412q-10 -59 -34 -100.5t-72 -83.5l-77 72q53 52 65 123l71 401h-75l17 98h75l13 75q14 79 51 111.5t117 32.5q64 0 114 -19l-24 -93q-42 12 -80 12q-28 0 -40.5 -9.5
t-17.5 -34.5l-13 -75h234l12 70q14 80 54 114.5t129 34.5q66 0 153 -20l123 17l-124 -703h-120l105 595q-82 15 -135 15q-31 0 -45 -11t-19 -37l-13 -75h121z" />
    <glyph glyph-name=".notdef" horiz-adv-x="632" 
d="M110 0v666h462v-666h-462zM527 623h-346l346 -544v544zM155 586v-543h344z" />
    <glyph glyph-name=".null" horiz-adv-x="0" 
 />
    <glyph glyph-name="nonmarkingreturn" horiz-adv-x="333" 
 />
    <glyph glyph-name="space" unicode=" " horiz-adv-x="210" 
 />
    <glyph glyph-name="exclam" unicode="!" horiz-adv-x="280" 
d="M168 217h-69l5 172l52 297h120l-52 -297zM34 0l26 146h121l-26 -146h-121z" />
    <glyph glyph-name="quotedbl" unicode="&#x22;" horiz-adv-x="390" 
d="M100 439l44 247h86l-44 -247h-86zM275 439l44 247h86l-44 -247h-86z" />
    <glyph glyph-name="numbersign" unicode="#" horiz-adv-x="697" 
d="M668 408h-119l-34 -163h122l-17 -81h-122l-33 -164h-87l33 164h-158l-34 -164h-87l34 164h-124l17 81h124l33 163h-125l17 81h125l33 157h87l-33 -157h159l33 157h87l-33 -157h119zM303 408l-33 -163h158l34 163h-159z" />
    <glyph glyph-name="dollar" unicode="$" horiz-adv-x="507" 
d="M134 -118l20 110q-74 4 -139 30l28 97q86 -26 161 -26q58 0 79 17t29 67q5 30 5 44q0 23 -17.5 34t-71.5 26q-80 22 -108.5 46.5t-28.5 68.5q0 32 9 80q18 102 56.5 137t138.5 42l20 111h97l-20 -112q45 -4 102 -18l-23 -102q-77 17 -153 17q-56 0 -73.5 -14t-25.5 -62
q-5 -28 -5 -39q0 -22 17 -33t74 -28q80 -24 108.5 -49t28.5 -69q0 -27 -10 -80q-15 -91 -51.5 -133t-129.5 -51l-20 -111h-97z" />
    <glyph glyph-name="percent" unicode="%" horiz-adv-x="864" 
d="M663 637l-378 -647l-66 42l379 644zM389 454q-12 -71 -50.5 -106.5t-128.5 -35.5q-131 0 -131 111q0 20 4 42l15 85q12 66 50.5 96t125.5 30q65 0 98.5 -29t33.5 -80q0 -15 -3 -33zM293 442l17 98q10 56 -51 56q-34 0 -48.5 -11.5t-19.5 -39.5l-17 -97q-2 -12 -2 -18
q0 -38 52 -38q34 0 49 11.5t20 38.5zM792 132q-12 -71 -50.5 -106.5t-128.5 -35.5q-131 0 -131 111q0 20 4 42l15 85q12 66 50.5 96t125.5 30q65 0 98.5 -29t33.5 -80q0 -15 -3 -33zM696 120l17 98q10 56 -51 56q-34 0 -48.5 -11.5t-19.5 -39.5l-17 -97q-2 -12 -2 -18
q0 -38 52 -38q34 0 49 11.5t20 38.5z" />
    <glyph glyph-name="ampersand" unicode="&#x26;" horiz-adv-x="719" 
d="M445 379q0 -56 -36 -92h112q61 0 97 12t78 42l43 -70q-81 -73 -200 -73q-110 -208 -339 -208q-166 0 -166 127q0 17 3 36l31 176q16 89 65.5 128.5t146.5 39.5q77 0 121 -32.5t44 -85.5zM203 87q74 0 125.5 25.5t93.5 85.5h-134l-22 89q35 10 54.5 29.5t19.5 44.5
q0 19 -17 30t-47 11q-76 0 -88 -67l-33 -187q-3 -17 -3 -26q0 -35 51 -35z" />
    <glyph glyph-name="quotesingle" unicode="'" horiz-adv-x="215" 
d="M100 439l44 247h86l-44 -247h-86z" />
    <glyph glyph-name="parenleft" unicode="(" horiz-adv-x="310" 
d="M148 -153q-91 161 -91 335q0 372 256 579l71 -70q-113 -113 -160 -233t-47 -273q0 -141 68 -289z" />
    <glyph glyph-name="parenright" unicode=")" horiz-adv-x="309" 
d="M174 761q91 -161 91 -335q0 -372 -256 -579l-71 70q113 113 160 233t47 273q0 141 -68 289z" />
    <glyph glyph-name="asterisk" unicode="*" horiz-adv-x="464" 
d="M137 376l92 114h-134l10 56h138l-55 121l54 28l56 -122l99 124l44 -34l-95 -117h138l-10 -56h-138l56 -118l-54 -28l-57 121l-100 -123z" />
    <glyph glyph-name="plus" unicode="+" horiz-adv-x="513" 
d="M305 196v-156h-97v156h-153v94h153v157h97v-157h153v-94h-153z" />
    <glyph glyph-name="comma" unicode="," horiz-adv-x="271" 
d="M54 -139l-44 34l71 105h-46l26 146h120l-27 -155z" />
    <glyph glyph-name="hyphen" unicode="-" horiz-adv-x="368" 
d="M66 231l18 100h248l-18 -100h-248z" />
    <glyph glyph-name="period" unicode="." horiz-adv-x="277" 
d="M40 0l26 146h121l-26 -146h-121z" />
    <glyph glyph-name="slash" unicode="/" horiz-adv-x="463" 
d="M101 -117h-113l387 793h113z" />
    <glyph glyph-name="zero" unicode="0" horiz-adv-x="557" 
d="M232 -10q-186 0 -186 138q0 19 4 41l55 313q16 92 72 133t173 41q86 0 135 -40.5t49 -107.5q0 -16 -3 -32l-55 -311q-16 -91 -67.5 -133t-176.5 -42zM361 182l50 283q3 18 3 27q0 30 -19.5 44.5t-64.5 14.5q-55 0 -78 -19.5t-32 -67.5l-51 -287q-3 -18 -3 -32
q0 -28 17 -39t67 -11q57 0 79.5 19.5t31.5 67.5z" />
    <glyph glyph-name="one" unicode="1" horiz-adv-x="380" 
d="M135 0l90 511l-131 -64l-41 92l206 107h110l-114 -646h-120z" />
    <glyph glyph-name="two" unicode="2" horiz-adv-x="503" 
d="M12 0l18 104l233 221q59 59 74 81t22 65l4 23q1 6 1 13q0 23 -20.5 33t-65.5 10q-77 0 -167 -22l-12 97q98 31 204 31q88 0 134.5 -34.5t46.5 -95.5q0 -16 -3 -32l-4 -23q-12 -69 -32 -104t-101 -116l-150 -146h222l-18 -105h-386z" />
    <glyph glyph-name="three" unicode="3" horiz-adv-x="491" 
d="M189 -10q-99 0 -174 33l25 91q86 -24 147 -24q64 0 85 14t28 55l8 45q2 14 2 19q0 26 -16 38t-54 12h-137l18 102h135q39 0 57 16.5t24 51.5l10 56q2 12 2 17q0 24 -19.5 33t-66.5 9q-55 0 -137 -16l-10 92q82 22 174 22q182 0 182 -115q0 -13 -3 -30l-11 -63
q-4 -22 -7 -34.5t-9.5 -28.5t-16 -25.5t-25 -19t-36.5 -16.5q65 -21 65 -98q0 -16 -2 -28l-9 -51q-7 -42 -19 -68.5t-36.5 -48t-67 -31t-106.5 -9.5z" />
    <glyph glyph-name="four" unicode="4" horiz-adv-x="560" 
d="M433 147l-26 -147h-118l26 147h-301l18 108l322 391h167l-71 -401h85l-14 -98h-88zM383 531l-230 -286h179z" />
    <glyph glyph-name="five" unicode="5" horiz-adv-x="497" 
d="M191 -10q-90 0 -174 30l27 96q80 -22 153 -22q63 0 83 16t27 60l6 34q2 12 2 20q0 29 -21.5 40.5t-72.5 13.5q-45 2 -138 7l63 361h352l-18 -104h-233l-29 -165q38 -1 79 -5q140 -13 140 -127q0 -12 -4 -40l-6 -35q-12 -70 -32.5 -106t-68 -55t-135.5 -19z" />
    <glyph glyph-name="six" unicode="6" horiz-adv-x="524" 
d="M222 -10q-176 0 -176 134q0 22 5 52l46 261q23 127 78.5 173t189.5 46q77 0 147 -23l-22 -93q-62 15 -118 15q-86 0 -115 -20.5t-40 -86.5l-14 -80q58 16 124 16q142 0 142 -118q0 -22 -4 -45l-8 -46q-9 -49 -20.5 -79t-36.5 -56.5t-68.5 -38t-109.5 -11.5zM337 164
l10 58q2 16 2 20q0 39 -59 39q-54 0 -106 -21l-16 -90q-3 -17 -3 -27q0 -27 16.5 -38.5t58.5 -11.5q49 0 69.5 15.5t27.5 55.5z" />
    <glyph glyph-name="seven" unicode="7" horiz-adv-x="455" 
d="M153 0h-128l328 541h-280l18 105h405l-18 -101z" />
    <glyph glyph-name="eight" unicode="8" horiz-adv-x="542" 
d="M226 -10q-186 0 -186 128q0 16 3 36l9 50q8 47 37.5 76t91.5 49q-70 49 -70 109q0 11 2 21l7 40q15 86 61.5 121.5t159.5 35.5q80 0 126 -34t46 -94q0 -12 -3 -29l-8 -45q-8 -48 -29.5 -73.5t-75.5 -51.5q79 -44 79 -105q0 -15 -2 -25l-8 -46q-16 -91 -64 -127t-176 -36z
M388 459l7 40q2 12 2 16q0 43 -71 43q-46 0 -65.5 -14.5t-25.5 -49.5l-6 -35q-2 -12 -2 -19q0 -21 14.5 -35.5t52.5 -31.5q49 19 69 37.5t25 48.5zM352 159l5 28q2 12 2 21q0 22 -16.5 35t-67.5 36q-66 -24 -85.5 -40.5t-25.5 -50.5l-5 -29q-2 -12 -2 -22q0 -26 19.5 -37
t66.5 -11q56 0 79 15.5t30 54.5z" />
    <glyph glyph-name="nine" unicode="9" horiz-adv-x="523" 
d="M325 656q87 0 131.5 -36.5t44.5 -97.5q0 -22 -5 -52l-46 -261q-23 -127 -78.5 -173t-189.5 -46q-78 0 -150 24l22 93q64 -16 121 -16q86 0 115 20.5t40 86.5l14 80q-58 -16 -124 -16q-142 0 -142 118q0 22 4 45l8 46q7 41 15.5 67.5t24.5 51t40.5 37.5t62.5 21t92 8z
M210 482l-10 -58q-2 -16 -2 -20q0 -39 59 -39q54 0 106 21l16 90q3 17 3 27q0 27 -16.5 38.5t-58.5 11.5q-49 0 -69.5 -15.5t-27.5 -55.5z" />
    <glyph glyph-name="colon" unicode=":" horiz-adv-x="280" 
d="M35 0l26 146h121l-26 -146h-121zM88 298l26 146h121l-26 -146h-121z" />
    <glyph glyph-name="semicolon" unicode=";" horiz-adv-x="280" 
d="M88 298l26 146h121l-26 -146h-121zM54 -139l-44 34l71 105h-46l26 146h120l-27 -155z" />
    <glyph glyph-name="less" unicode="&#x3c;" horiz-adv-x="581" 
d="M518 426l-359 -182l359 -182l-37 -71l-431 221v64l431 221z" />
    <glyph glyph-name="equal" unicode="=" horiz-adv-x="490" 
d="M55 305v81h395v-81h-395zM55 114v81h395v-81h-395z" />
    <glyph glyph-name="greater" unicode="&#x3e;" horiz-adv-x="581" 
d="M422 244l-359 182l37 71l431 -221v-64l-431 -221l-37 71z" />
    <glyph glyph-name="question" unicode="?" horiz-adv-x="492" 
d="M241 231l-60 91l121 85q38 29 47.5 44t16.5 54q4 28 4 35q0 27 -19.5 38.5t-72.5 11.5q-62 0 -143 -17l-12 103q87 20 181 20q99 0 143 -33.5t44 -100.5q0 -20 -5 -52q-13 -75 -31.5 -110t-74.5 -74zM119 0l26 146h121l-26 -146h-121z" />
    <glyph glyph-name="at" unicode="@" horiz-adv-x="738" 
d="M521 203q-50 0 -73 29q-44 -29 -101 -29q-44 0 -66.5 26.5t-15.5 65.5l17 97q9 52 36.5 75t87.5 23q67 0 127 -31l-33 -189q12 -4 25 -4q60 0 89 48t29 123q0 79 -53 123t-150 44q-140 0 -219.5 -90t-79.5 -240q0 -102 57 -156.5t174 -54.5q108 0 211 44l10 -68
q-95 -49 -223 -49q-155 0 -232.5 75t-77.5 202q0 189 101.5 299t285.5 110q129 0 202.5 -66t73.5 -171q0 -109 -49.5 -172.5t-152.5 -63.5zM398 427q-39 0 -45 -36l-16 -90q-6 -35 32 -35q34 0 62 17l24 136q-30 8 -57 8z" />
    <glyph glyph-name="A" unicode="A" horiz-adv-x="647" 
d="M451 0l-18 142h-247l-67 -142h-134l327 666h168l100 -666h-129zM384 567l-150 -321h186z" />
    <glyph glyph-name="B" unicode="B" horiz-adv-x="579" 
d="M308 0h-278l117 666h259q157 0 157 -107q0 -15 -3 -31l-13 -74q-8 -43 -30 -68.5t-70 -41.5q83 -26 83 -102q0 -14 -2 -26l-12 -68q-13 -74 -59 -111t-149 -37zM423 448l11 63q2 12 2 16q0 40 -57 39h-125l-32 -181h114q76 0 87 63zM395 165l10 56q1 6 1 15q0 52 -65 52
h-136l-34 -188h129q47 0 67.5 13.5t27.5 51.5z" />
    <glyph glyph-name="C" unicode="C" horiz-adv-x="519" 
d="M251 -10q-103 0 -154.5 44t-51.5 117q0 20 4 42l51 289q19 105 81 149.5t185 44.5q82 0 180 -26l-26 -106q-96 20 -166 20q-65 0 -94 -21t-40 -84l-44 -249q-4 -24 -4 -36q0 -38 23 -55t77 -17q80 0 168 17l4 -106q-83 -23 -193 -23z" />
    <glyph glyph-name="D" unicode="D" horiz-adv-x="604" 
d="M290 0h-260l118 666h244q99 0 146 -44.5t47 -114.5q0 -21 -4 -42l-51 -289q-15 -86 -66.5 -131t-173.5 -45zM412 210l44 250q3 16 3 30q0 34 -21.5 50.5t-73.5 16.5h-112l-79 -448h118q62 0 86.5 23t34.5 78z" />
    <glyph glyph-name="E" unicode="E" horiz-adv-x="534" 
d="M30 0l117 666h409l-20 -109h-284l-28 -159h263l-19 -109h-263l-32 -180h284l-18 -109h-409z" />
    <glyph glyph-name="F" unicode="F" horiz-adv-x="519" 
d="M252 557l-31 -177h265l-19 -109h-265l-48 -271h-124l118 666h410l-19 -109h-287z" />
    <glyph glyph-name="G" unicode="G" horiz-adv-x="590" 
d="M257 -10q-212 0 -212 157q0 23 4 46l51 289q18 101 77.5 147.5t188.5 46.5q104 0 203 -32l-26 -106q-101 26 -190 26q-67 0 -94.5 -22.5t-38.5 -82.5l-44 -249q-4 -21 -4 -43q0 -33 21.5 -50t76.5 -17q59 0 111 11l36 197h117l-50 -280q-93 -38 -227 -38z" />
    <glyph glyph-name="H" unicode="H" horiz-adv-x="639" 
d="M395 0l49 282h-241l-49 -282h-124l117 666h124l-48 -275h241l48 275h124l-117 -666h-124z" />
    <glyph glyph-name="I" unicode="I" horiz-adv-x="284" 
d="M35 0l117 666h124l-117 -666h-124z" />
    <glyph glyph-name="J" unicode="J" horiz-adv-x="284" 
d="M276 666l-120 -683q-6 -35 -17.5 -56t-44 -50.5t-106.5 -82.5l-62 88q81 64 93 78q12 15 16 39l117 667h124z" />
    <glyph glyph-name="K" unicode="K" horiz-adv-x="595" 
d="M386 0l-156 340l251 326h151l-265 -329l156 -337h-137zM30 0l117 666h124l-117 -666h-124z" />
    <glyph glyph-name="L" unicode="L" horiz-adv-x="504" 
d="M30 0l117 666h124l-98 -557h275l-19 -109h-399z" />
    <glyph glyph-name="M" unicode="M" horiz-adv-x="799" 
d="M568 0l58 428l-192 -341h-135l-64 342l-96 -429h-122l152 666h132l87 -451l252 451h136l-84 -666h-124z" />
    <glyph glyph-name="N" unicode="N" horiz-adv-x="679" 
d="M403 0l-165 494l-87 -494h-121l117 666h155l165 -507l89 507h120l-117 -666h-156z" />
    <glyph glyph-name="O" unicode="O" horiz-adv-x="622" 
d="M264 -10q-110 0 -164 44.5t-54 120.5q0 24 4 44l49 277q18 102 82.5 151t197.5 49q109 0 166 -49t57 -127q0 -17 -3 -35l-48 -272q-19 -106 -83 -154.5t-204 -48.5zM429 203l46 262q2 16 2 23q0 79 -111 79q-127 0 -145 -102l-46 -261q-3 -18 -3 -33q0 -37 25 -54.5
t87 -17.5q126 0 145 104z" />
    <glyph glyph-name="P" unicode="P" horiz-adv-x="575" 
d="M337 217h-145l-38 -217h-124l117 666h247q196 0 196 -143q0 -25 -4 -46l-15 -85q-10 -60 -31 -95.5t-70.5 -57.5t-132.5 -22zM449 403l12 68q3 16 3 28q0 29 -17.5 43.5t-58.5 14.5h-136l-41 -233h134q54 0 75 17.5t29 61.5z" />
    <glyph glyph-name="Q" unicode="Q" horiz-adv-x="622" 
d="M457 -99l-19 -98q-138 29 -292 38l18 96q155 -2 293 -36zM264 -10q-110 0 -164 44.5t-54 120.5q0 24 4 44l49 277q18 102 82.5 151t197.5 49q109 0 166 -49t57 -127q0 -17 -3 -35l-48 -272q-19 -106 -83 -154.5t-204 -48.5zM429 203l46 262q2 16 2 23q0 79 -111 79
q-127 0 -145 -102l-46 -261q-3 -18 -3 -33q0 -37 25 -54.5t87 -17.5q126 0 145 104z" />
    <glyph glyph-name="R" unicode="R" horiz-adv-x="648" 
d="M437 0l-120 221h-125l-38 -221h-124l117 666h251q199 0 199 -143q0 -18 -4 -41l-16 -90q-12 -66 -39.5 -101t-89.5 -54l127 -237h-138zM456 409l11 62q3 16 3 28q0 32 -19.5 45t-62.5 13h-137l-39 -229h139q54 0 75.5 18t29.5 63z" />
    <glyph glyph-name="S" unicode="S" horiz-adv-x="531" 
d="M217 -10q-46 0 -103 11t-96 30l27 96q108 -32 181 -32q68 0 90.5 17t31.5 69q5 28 5 42q0 25 -20 36.5t-90 29.5q-84 21 -117 55.5t-33 90.5q0 24 7 66q19 106 67 140.5t178 34.5q100 0 186 -26l-21 -103q-97 23 -175 23q-65 0 -86 -14t-29 -63q-5 -28 -5 -42
q0 -24 20.5 -36.5t85.5 -29.5q89 -23 123 -53.5t34 -85.5q0 -21 -7 -65q-13 -73 -34.5 -111t-73.5 -59t-146 -21z" />
    <glyph glyph-name="T" unicode="T" horiz-adv-x="544" 
d="M387 557l-98 -557h-124l98 557h-187l19 109h498l-20 -109h-186z" />
    <glyph glyph-name="U" unicode="U" horiz-adv-x="631" 
d="M274 -10q-108 0 -163 46.5t-55 120.5q0 18 3 36l83 473h124l-81 -462q-3 -18 -3 -33q0 -37 23.5 -54.5t82.5 -17.5q69 0 100 27t40 79l81 461h124l-83 -474q-17 -97 -77 -149.5t-199 -52.5z" />
    <glyph glyph-name="V" unicode="V" horiz-adv-x="589" 
d="M346 0h-180l-80 666h123l64 -559l250 559h132z" />
    <glyph glyph-name="W" unicode="W" horiz-adv-x="940" 
d="M719 0h-157l-38 533l-221 -533h-157l-56 666h117l41 -526l221 526h152l36 -531l215 531h125z" />
    <glyph glyph-name="X" unicode="X" horiz-adv-x="616" 
d="M-13 0l269 346l-138 320h129l98 -234l173 234h141l-262 -335l150 -331h-131l-105 238l-182 -238h-142z" />
    <glyph glyph-name="Y" unicode="Y" horiz-adv-x="553" 
d="M329 193l-34 -193h-124l35 199l-130 467h123l89 -337l200 337h140z" />
    <glyph glyph-name="Z" unicode="Z" horiz-adv-x="571" 
d="M47 0l-2 102l374 458h-309l19 106h435l-1 -103l-376 -459h304l-19 -104h-425z" />
    <glyph glyph-name="bracketleft" unicode="[" horiz-adv-x="325" 
d="M18 -126l161 916h211l-17 -96h-91l-127 -724h90l-17 -96h-210z" />
    <glyph glyph-name="backslash" unicode="\" horiz-adv-x="466" 
d="M240 -117l-107 793h106l107 -793h-106z" />
    <glyph glyph-name="bracketright" unicode="]" horiz-adv-x="325" 
d="M334 790l-161 -916h-211l17 96h91l127 724h-90l17 96h210z" />
    <glyph glyph-name="asciicircum" unicode="^" horiz-adv-x="473" 
d="M387 372l-84 221l-154 -222l-69 51l190 264h87l111 -283z" />
    <glyph glyph-name="underscore" unicode="_" horiz-adv-x="439" 
d="M-1 -51v41h441v-41h-441z" />
    <glyph glyph-name="grave" unicode="`" horiz-adv-x="314" 
d="M252 543q-69 44 -127 97l54 64q46 -46 120 -103z" />
    <glyph glyph-name="a" unicode="a" horiz-adv-x="516" 
d="M488 466l-82 -466h-101l-1 54q-71 -64 -159 -64q-113 0 -113 111q0 21 5 51l25 142q10 56 21.5 88.5t37 61.5t70 41t113.5 12q35 0 90.5 -9.5t93.5 -21.5zM315 164l40 225q-38 7 -69 7q-54 0 -74 -21.5t-29 -74.5l-30 -171q-1 -6 -1 -12q0 -26 33 -26q27 0 63.5 21.5
t66.5 51.5z" />
    <glyph glyph-name="b" unicode="b" horiz-adv-x="518" 
d="M29 22l117 664l123 17l-44 -249q77 43 154 43q113 0 113 -111q0 -21 -5 -51l-25 -142q-20 -114 -72 -158.5t-179 -44.5q-34 0 -90.5 9.5t-91.5 22.5zM207 351l-45 -253q38 -7 71 -7q55 0 77 22t31 74l30 171q1 6 1 12q0 26 -34 26q-62 0 -131 -45z" />
    <glyph glyph-name="c" unicode="c" horiz-adv-x="400" 
d="M400 477l-27 -96q-44 14 -91 14q-52 0 -74 -18.5t-31 -69.5l-29 -165q-2 -12 -2 -17q0 -32 37 -32q54 0 143 31l12 -97q-78 -37 -165 -37q-147 0 -147 121q0 18 5 48l29 164q18 99 69 136.5t155 37.5q65 0 116 -20z" />
    <glyph glyph-name="d" unicode="d" horiz-adv-x="528" 
d="M537 703l-124 -703h-102v54q-71 -64 -166 -64q-113 0 -113 111q0 21 5 51l25 142q6 37 12 59t16.5 48.5t26.5 41.5t40 28.5t59.5 19.5t82.5 6q39 0 80 -9l35 198zM322 164l40 226q-26 6 -71 6q-55 0 -77 -22t-31 -73l-30 -172q-1 -6 -1 -12q0 -26 34 -26q35 0 74.5 23
t61.5 50z" />
    <glyph glyph-name="e" unicode="e" horiz-adv-x="458" 
d="M154 165l-4 -23q-5 -26 1.5 -39t36.5 -13q77 0 187 56l26 -92q-46 -28 -108.5 -46t-121.5 -18q-91 0 -121.5 45.5t-15.5 128.5l26 148q17 92 67 138.5t155 46.5q70 0 113 -34t43 -93q0 -65 -44.5 -106t-145.5 -72q-56 -17 -94 -27zM246 295q77 24 77 70q0 17 -13.5 27.5
t-37.5 10.5q-76 0 -90 -80l-9 -50z" />
    <glyph glyph-name="f" unicode="f" horiz-adv-x="355" 
d="M70 -207l-77 72q53 52 65 123l71 401h-75l17 98h75l13 75q14 79 51 111.5t117 32.5q62 0 117 -21l-24 -93q-49 14 -83 14q-28 0 -40.5 -9.5t-17.5 -34.5l-13 -75h132l-26 -98h-123l-73 -412q-10 -59 -34 -100.5t-72 -83.5z" />
    <glyph glyph-name="g" unicode="g" horiz-adv-x="523" 
d="M494 460l-94 -534q-14 -77 -54.5 -105t-126.5 -28q-102 0 -218 38l23 89q112 -33 192 -33q36 0 48.5 12t18.5 45l19 107q-74 -41 -154 -41q-113 0 -113 111q0 21 5 51l22 122q21 119 67.5 161t173.5 42q99 0 191 -37zM320 156l42 233q-39 7 -71 7q-55 0 -77 -22t-31 -74
l-27 -151q-1 -6 -1 -12q0 -26 34 -26q62 0 131 45z" />
    <glyph glyph-name="h" unicode="h" horiz-adv-x="540" 
d="M310 0l61 347q1 5 1 13q0 21 -25 21q-23 0 -65.5 -17t-79.5 -40l-57 -324h-120l121 686l123 17l-46 -261q103 55 185 55q89 0 89 -97q0 -21 -5 -48l-62 -352h-120z" />
    <glyph glyph-name="i" unicode="i" horiz-adv-x="260" 
d="M122 549l24 137l123 17l-24 -136zM25 0l84 478l123 17l-87 -495h-120z" />
    <glyph glyph-name="j" unicode="j" horiz-adv-x="255" 
d="M232 495l-91 -518q-9 -52 -35.5 -86t-121.5 -98l-59 83l26.5 21t21.5 17l15.5 13t12.5 12t8 10t7 11.5t3.5 12.5l3.5 17l86 488zM122 549l24 137l123 17l-24 -136z" />
    <glyph glyph-name="k" unicode="k" horiz-adv-x="497" 
d="M308 0l-102 246l178 251l128 -21l-178 -231l101 -245h-127zM25 0l121 686l123 17l-124 -703h-120z" />
    <glyph glyph-name="l" unicode="l" horiz-adv-x="260" 
d="M25 0l121 686l123 17l-124 -703h-120z" />
    <glyph glyph-name="m" unicode="m" horiz-adv-x="825" 
d="M595 0l61 347q1 5 1 13q0 21 -25 21q-23 0 -65.5 -17.5t-79.5 -39.5l-57 -324h-120l61 347q1 5 1 13q0 21 -25 21q-23 0 -65.5 -17.5t-79.5 -39.5l-57 -324h-120l84 477l104 18l-2 -59q112 61 197 61q70 0 85 -62q107 62 200 62q89 0 89 -97q0 -23 -5 -48l-62 -352h-120z
" />
    <glyph glyph-name="n" unicode="n" horiz-adv-x="540" 
d="M310 0l61 347q1 5 1 13q0 21 -25 21q-23 0 -65.5 -17.5t-79.5 -39.5l-57 -324h-120l84 477l104 18l-2 -59q112 61 197 61q89 0 89 -97q0 -21 -5 -48l-62 -352h-120z" />
    <glyph glyph-name="o" unicode="o" horiz-adv-x="521" 
d="M214 -10q-90 0 -135.5 45t-45.5 114q0 19 3 39l21 117q18 96 73 144t171 48q90 0 137 -44t47 -112q0 -17 -3 -35l-23 -130q-16 -93 -70 -139.5t-175 -46.5zM339 176l24 136q2 12 2 22q0 62 -80 62q-92 0 -108 -89l-23 -131q-2 -12 -2 -22q0 -63 80 -63q92 0 107 85z" />
    <glyph glyph-name="p" unicode="p" horiz-adv-x="528" 
d="M-13 -214l124 701h102v-54q71 64 166 64q113 0 113 -111q0 -21 -5 -51l-25 -142q-6 -37 -12 -59t-16.5 -48.5t-26.5 -41.5t-40 -28.5t-59.5 -19.5t-82.5 -6q-39 0 -80 9l-35 -196zM202 323l-40 -226q26 -6 71 -6q55 0 77 22t31 73l30 172q1 6 1 12q0 26 -34 26
q-35 0 -74.5 -23t-61.5 -50z" />
    <glyph glyph-name="q" unicode="q" horiz-adv-x="528" 
d="M495 465l-117 -662l-123 -17l44 247q-77 -43 -154 -43q-113 0 -113 111q0 21 5 51l25 142q20 114 72 158.5t179 44.5q34 0 90.5 -9.5t91.5 -22.5zM317 136l45 253q-39 7 -71 7q-55 0 -77 -22t-31 -74l-30 -171q-1 -6 -1 -12q0 -26 34 -26q62 0 131 45z" />
    <glyph glyph-name="r" unicode="r" horiz-adv-x="325" 
d="M334 496l9 -109q-55 -30 -145 -87l-53 -300h-120l84 477l105 18l-5 -71q63 46 125 72z" />
    <glyph glyph-name="s" unicode="s" horiz-adv-x="414" 
d="M167 -10q-82 0 -153 31l23 91q73 -25 136 -25q39 0 52 8.5t18 34.5q4 24 -8 37.5t-64 39.5q-74 37 -92.5 70t-8.5 92q13 74 51 101t133 27q73 0 145 -24l-20 -92q-64 19 -126 19q-38 0 -51 -6t-17 -31q-4 -24 5.5 -35t50.5 -34q86 -47 107.5 -74t11.5 -83
q-15 -84 -54 -115.5t-139 -31.5z" />
    <glyph glyph-name="t" unicode="t" horiz-adv-x="350" 
d="M157 -10q-56 0 -81.5 32t-16.5 86l50 283h-78l18 96h77l22 126l123 17l-25 -143h124l-19 -96h-122l-49 -278q-4 -25 20 -25q28 0 84 22l26 -82q-71 -38 -153 -38z" />
    <glyph glyph-name="u" unicode="u" horiz-adv-x="540" 
d="M227 495l-62 -355q-1 -7 -1 -13q0 -21 25 -21q23 0 65.5 17.5t79.5 39.5l55 315l123 17l-87 -495h-102l2 51q-112 -61 -197 -61q-89 0 -89 97q0 21 5 48l60 343z" />
    <glyph glyph-name="v" unicode="v" horiz-adv-x="476" 
d="M288 0h-165l-70 475l119 17l46 -386l115 259q14 33 14 67q0 24 -7 46l117 17q9 -28 9 -61q0 -52 -17 -87z" />
    <glyph glyph-name="w" unicode="w" horiz-adv-x="701" 
d="M310 473l107 17l74 -374l67 238q9 31 9 62q0 28 -8 57l113 22q10 -40 10 -77q0 -45 -26 -120l-102 -298h-146l-50 243l-128 -243h-139q-1 169 -7.5 268t-28.5 205l114 18q32 -152 20 -365l138 267z" />
    <glyph glyph-name="x" unicode="x" horiz-adv-x="474" 
d="M-21 0l196 245l-105 229l112 21l73 -173l120 165h129l-199 -257l107 -230h-121l-67 141l-117 -141h-128z" />
    <glyph glyph-name="y" unicode="y" horiz-adv-x="476" 
d="M449 347l-161 -347q-45 -89 -93.5 -133t-152.5 -80l-33 93q61 21 93 47t62 73h-41l-70 475l119 17l46 -386l115 259q14 33 14 67q0 24 -7 46l117 17q9 -28 9 -61q0 -49 -17 -87z" />
    <glyph glyph-name="z" unicode="z" horiz-adv-x="461" 
d="M41 0l-4 93l254 299h-207l14 95h333l-1 -92l-255 -299h210l-16 -96h-328z" />
    <glyph glyph-name="braceleft" unicode="{" horiz-adv-x="339" 
d="M224 205l-37 -211q-1 -6 -1 -12q0 -26 36 -26h49l-17 -98h-86q-56 0 -81 21t-25 67q0 18 5 50l42 236q8 45 -35 45h-23l18 94h21q44 0 52 49l42 238q13 72 46.5 102t102.5 30h85l-17 -98h-51q-21 0 -32 -8.5t-15 -30.5l-37 -210q-10 -54 -31.5 -83.5t-76.5 -35.5
q51 -6 63.5 -36t2.5 -83z" />
    <glyph glyph-name="bar" unicode="|" horiz-adv-x="261" 
d="M110 -210v1000h81v-1000h-81z" />
    <glyph glyph-name="braceright" unicode="}" horiz-adv-x="340" 
d="M144 443l37 211q1 6 1 12q0 26 -36 26h-49l17 98h86q56 0 81 -21t25 -67q0 -18 -5 -50l-42 -236q-8 -45 35 -45h23l-18 -94h-21q-44 0 -52 -49l-42 -238q-13 -72 -46.5 -102t-102.5 -30h-85l17 98h51q21 0 32 8.5t15 30.5l37 210q10 54 31.5 83.5t76.5 35.5
q-51 6 -63.5 36t-2.5 83z" />
    <glyph glyph-name="asciitilde" unicode="~" horiz-adv-x="481" 
d="M331 193q-37 0 -87 34t-69 34q-26 0 -42 -16t-35 -52l-60 38q30 63 61 92.5t80 29.5q29 0 80 -34.5t74 -34.5q15 0 25 3.5t20 17t13 18.5t16 30l60 -38q-24 -58 -55 -90t-81 -32z" />
    <glyph glyph-name="nbspace" unicode="&#xa0;" horiz-adv-x="210" 
 />
    <glyph glyph-name="exclamdown" unicode="&#xa1;" horiz-adv-x="279" 
d="M108 272h69l-5 -172l-52 -297h-120l52 297zM242 487l-26 -146h-121l26 146h121z" />
    <glyph glyph-name="cent" unicode="&#xa2;" horiz-adv-x="430" 
d="M144 -10l16 92q-111 13 -111 119q0 18 5 48l29 164q15 84 53.5 123t111.5 47l17 93h81l-16 -90q58 -5 93 -19l-27 -96q-44 14 -91 14q-52 0 -74 -18.5t-31 -69.5l-29 -165q-2 -12 -2 -17q0 -32 37 -32q54 0 143 31l12 -97q-55 -27 -120 -34l-16 -93h-81z" />
    <glyph glyph-name="sterling" unicode="&#xa3;" horiz-adv-x="535" 
d="M28 0l17 101q131 73 131 174q0 9 -1 14h-109l12 88h79q-21 45 -21 104q0 88 51 131.5t160 43.5q84 0 168 -23l-18 -94q-71 17 -144 17q-55 0 -77 -17.5t-22 -66.5q0 -43 19 -95h180l-14 -88h-156q2 -14 2 -25q0 -93 -92 -164h271l-18 -100h-418z" />
    <glyph glyph-name="currency" unicode="&#xa4;" horiz-adv-x="550" 
d="M531 528l-62 -68q5 -14 5 -31q0 -9 -3 -27l-24 -135q-7 -42 -22 -64l52 -63l-75 -64l-56 69q-38 -12 -93 -12q-39 0 -66 9l-58 -65l-73 65l55 60q-6 18 -6 38q0 21 2 32l23 131q9 45 26 67l-49 60l75 64l55 -68q38 11 87 11q42 0 73 -11l61 67zM230 390l-19 -112
q-2 -14 -2 -18q0 -21 14 -28t47 -7q37 0 54 10t23 42l20 113q1 7 1 17q0 22 -15 30t-45 8q-36 0 -54 -11.5t-24 -43.5z" />
    <glyph glyph-name="yen" unicode="&#xa5;" horiz-adv-x="554" 
d="M61 295l14 77h80l-76 274h123l84 -317l187 317h140l-173 -274h90l-14 -77h-125l-60 -95h169l-14 -77h-172l-21 -123h-124l21 123h-159l14 77h158l-26 95h-116z" />
    <glyph glyph-name="brokenbar" unicode="&#xa6;" horiz-adv-x="261" 
d="M110 375v415h81v-415h-81zM110 -210v415h81v-415h-81z" />
    <glyph glyph-name="section" unicode="&#xa7;" horiz-adv-x="542" 
d="M406 568q-82 23 -141 23q-28 0 -41.5 -11t-18.5 -37q-11 -59 -11 -151q0 -163 35 -376l-95 -16q-39 209 -39 392q0 104 12 168q10 60 45 88t115 28q86 0 159 -28zM143 -79q82 -23 141 -23q28 0 41.5 11t18.5 37q11 59 11 151q0 163 -35 376l95 16q39 -209 39 -392
q0 -104 -12 -168q-10 -60 -45 -88t-115 -28q-86 0 -159 28z" />
    <glyph glyph-name="dieresis" unicode="&#xa8;" horiz-adv-x="422" 
d="M120 557l19 105l98 4l-18 -105zM310 557l19 105l98 4l-18 -105z" />
    <glyph glyph-name="copyright" unicode="&#xa9;" horiz-adv-x="787" 
d="M414 -10q-153 0 -247.5 99t-94.5 244q0 146 94.5 244.5t247.5 98.5t247 -98.5t94 -244.5q0 -145 -94 -244t-247 -99zM414 598q-117 0 -188.5 -75.5t-71.5 -189.5q0 -113 71.5 -188.5t188.5 -75.5q116 0 188 75.5t72 188.5q0 114 -72 189.5t-188 75.5zM421 161
q-76 0 -107.5 28.5t-31.5 89.5v111q0 61 31.5 89.5t107.5 28.5q50 0 97 -17l-13 -67q-41 11 -78 11q-34 0 -46 -10t-12 -37v-107q0 -27 12 -37t46 -10q37 0 78 11l13 -67q-47 -17 -97 -17z" />
    <glyph glyph-name="ordfeminine" unicode="&#xaa;" horiz-adv-x="382" 
d="M382 676l-51 -293h-64l-1 34q-44 -41 -100 -41q-71 0 -71 70q0 15 3 33l16 89q8 47 19.5 71.5t43.5 40.5t89 16q60 0 116 -20zM273 486l26 142q-28 4 -44 4q-34 0 -46.5 -13.5t-18.5 -46.5l-19 -107q-5 -25 20 -25q36 0 82 46z" />
    <glyph glyph-name="guillemotleft" unicode="&#xab;" horiz-adv-x="500" 
d="M130 52l-94 192l155 192l74 -62l-112 -131l64 -148zM347 52l-94 192l155 192l74 -62l-112 -131l64 -148z" />
    <glyph glyph-name="logicalnot" unicode="&#xac;" horiz-adv-x="538" 
d="M364 88v161h-304v94h403v-255h-99z" />
    <glyph glyph-name="registered" unicode="&#xae;" horiz-adv-x="447" 
d="M278 333q-80 0 -129 52.5t-49 129.5q0 78 49 129.5t129 51.5q81 0 130 -51.5t49 -129.5q0 -77 -49.5 -129.5t-129.5 -52.5zM278 649q-62 0 -95.5 -38t-33.5 -96t33.5 -96t95.5 -38t96 38t34 96t-34 96t-96 38zM320 437l-39 55h-28v-55h-32v164h66q52 0 52 -46v-17
q0 -30 -24 -40l42 -61h-37zM307 554q0 17 -23 17h-31v-50h32q22 0 22 18v15z" />
    <glyph glyph-name="macron" unicode="&#xaf;" horiz-adv-x="370" 
d="M115 548l14 80h246l-14 -80h-246z" />
    <glyph glyph-name="degree" unicode="&#xb0;" horiz-adv-x="354" 
d="M203 403q-50 0 -79 28t-29 72q0 68 38.5 110.5t111.5 42.5q51 0 80 -28.5t29 -72.5q0 -65 -39.5 -108.5t-111.5 -43.5zM237 600q-36 0 -57 -24t-21 -63q0 -54 53 -54q37 0 57 25.5t20 61.5q0 54 -52 54z" />
    <glyph glyph-name="plusminus" unicode="&#xb1;" horiz-adv-x="528" 
d="M65 0v89h403v-89h-403zM315 305v-156h-97v156h-153v94h153v157h97v-157h153v-94h-153z" />
    <glyph glyph-name="twosuperior" unicode="&#xb2;" horiz-adv-x="403" 
d="M78 245l11 67l108 99q54 50 70.5 70.5t20.5 41.5l1 6q2 14 2 19q0 13 -8 20t-28 8q-54 0 -107 -14l-13 74q66 20 125 20q60 0 90.5 -26.5t30.5 -69.5q0 -14 -2 -26l-3 -17q-5 -26 -16 -46t-40 -49l-101 -102h129l-12 -75h-258z" />
    <glyph glyph-name="threesuperior" unicode="&#xb3;" horiz-adv-x="388" 
d="M196 237q-56 0 -116 20l16 65q58 -14 105 -14q28 0 39.5 7.5t14.5 27.5l7 36q1 6 1 10q0 24 -36 24h-98l12 67h92q39 0 46 36l5 31q1 6 1 13q0 14 -10.5 19.5t-37.5 5.5q-51 0 -86 -7l-4 66q51 12 106 12q64 0 92 -19t28 -58q0 -6 -2 -24l-5 -30q-5 -33 -17.5 -48.5
t-43.5 -27.5q42 -16 42 -57q0 -11 -3 -26l-4 -27q-11 -59 -40 -80.5t-104 -21.5z" />
    <glyph glyph-name="acute" unicode="&#xb4;" horiz-adv-x="303" 
d="M152 543l-37 65q73 38 158 97l40 -72q-66 -45 -161 -90z" />
    <glyph glyph-name="mu" unicode="&#xb5;" horiz-adv-x="540" 
d="M-15 -197l119 675l123 17l-62 -355q-1 -7 -1 -13q0 -21 25 -21q23 0 65.5 17.5t79.5 39.5l55 315l123 17l-87 -495h-102l2 51q-104 -56 -187 -61l-33 -187h-120z" />
    <glyph glyph-name="paragraph" unicode="&#xb6;" horiz-adv-x="523" 
d="M84 406q0 118 71.5 189t187.5 71l-77 -436q-83 0 -132.5 49t-49.5 127zM207 -207l-49 67q98 81 118.5 101.5t25.5 49.5l116 655h93l-116 -655q-11 -62 -35.5 -90t-152.5 -128z" />
    <glyph glyph-name="periodcentered" unicode="&#xb7;" horiz-adv-x="272" 
d="M75 260l26 146h121l-26 -146h-121z" />
    <glyph glyph-name="cedilla" unicode="&#xb8;" horiz-adv-x="289" 
d="M62 -200q-34 0 -72 15l15 48q32 -10 58 -10q57 0 57 34q0 20 -29 20q-27 0 -49 -2l-14 16l36 94h54l-24 -70q18 3 32 3q28 0 43 -16.5t15 -39.5q0 -92 -122 -92z" />
    <glyph glyph-name="onesuperior" unicode="&#xb9;" horiz-adv-x="348" 
d="M158 243l54 302l-84 -35l-26 65l146 71h69l-71 -403h-88z" />
    <glyph glyph-name="ordmasculine" unicode="&#xba;" horiz-adv-x="385" 
d="M209 376q-58 0 -86 28t-28 73q0 11 3 27l12 71q10 61 45 91t109 30q57 0 86.5 -27.5t29.5 -70.5q0 -8 -2 -22l-14 -82q-11 -59 -45 -88.5t-110 -29.5zM288 494l15 85q1 6 1 14q0 39 -50 39q-58 0 -68 -56l-15 -82q-10 -54 50 -54q58 0 67 54z" />
    <glyph glyph-name="guillemotright" unicode="&#xbb;" horiz-adv-x="500" 
d="M376 436l94 -192l-155 -192l-74 62l112 131l-64 148zM159 436l94 -192l-155 -192l-74 62l112 131l-64 148z" />
    <glyph glyph-name="onequarter" unicode="&#xbc;" horiz-adv-x="859" 
d="M708 81l-14 -81h-83l14 81h-181l7 65l191 257h123l-45 -253h58l-11 -69h-59zM670 336l-131 -186h98zM235 -46l-57 36l421 699l57 -34zM163 243l54 302l-84 -35l-26 65l146 71h69l-71 -403h-88z" />
    <glyph glyph-name="onehalf" unicode="&#xbd;" horiz-adv-x="883" 
d="M503 0l11 67l108 99q54 50 70.5 70.5t20.5 41.5l1 6q2 14 2 19q0 13 -8 20t-28 8q-54 0 -107 -14l-13 74q66 20 125 20q60 0 90.5 -26.5t30.5 -69.5q0 -14 -2 -26l-3 -17q-5 -26 -16 -46t-40 -49l-101 -102h129l-12 -75h-258zM232 -46l-57 36l421 699l57 -34zM163 243
l54 302l-84 -35l-26 65l146 71h69l-71 -403h-88z" />
    <glyph glyph-name="threequarters" unicode="&#xbe;" horiz-adv-x="892" 
d="M191 237q-56 0 -116 20l16 65q58 -14 105 -14q29 0 40 6.5t14 26.5l7 39q1 5 1 10q0 23 -36 23h-98l12 67h92q39 0 46 36l6 34q1 5 1 11q0 14 -11 19t-38 5q-45 0 -86 -7l-4 66q45 12 106 12q64 0 92 -18t28 -57q0 -13 -2 -25l-6 -34q-6 -35 -17.5 -49.5t-42.5 -23.5
q43 -16 43 -56q0 -6 -3 -24l-6 -34q-11 -58 -39 -78t-104 -20zM741 81l-14 -81h-83l14 81h-181l7 65l191 257h123l-45 -253h58l-11 -69h-59zM703 336l-131 -186h98zM268 -46l-57 36l421 699l57 -34z" />
    <glyph glyph-name="questiondown" unicode="&#xbf;" horiz-adv-x="492" 
d="M270 258l60 -91l-121 -85q-38 -29 -47.5 -44t-16.5 -54q-4 -28 -4 -35q0 -27 19.5 -38.5t72.5 -11.5q62 0 143 17l12 -103q-87 -20 -181 -20q-99 0 -143 33.5t-44 100.5q0 20 5 52q13 75 31.5 110t74.5 74zM392 487l-26 -146h-121l26 146h121z" />
    <glyph glyph-name="Agrave" unicode="&#xc0;" horiz-adv-x="647" 
d="M451 0l-18 142h-247l-67 -142h-134l327 666h168l100 -666h-129zM384 567l-150 -321h186zM404 711q-55 32 -116 85l53 64q39 -38 109 -90z" />
    <glyph glyph-name="Aacute" unicode="&#xc1;" horiz-adv-x="647" 
d="M451 0l-18 142h-247l-67 -142h-134l327 666h168l100 -666h-129zM384 567l-150 -321h186zM397 710l-37 65q79 46 133 85l41 -72q-66 -46 -137 -78z" />
    <glyph glyph-name="Acircumflex" unicode="&#xc2;" horiz-adv-x="647" 
d="M451 0l-18 142h-247l-67 -142h-134l327 666h168l100 -666h-129zM384 567l-150 -321h186zM494 711q-41 20 -85 52q-44 -31 -88 -52l-34 59q75 43 137 86q39 -40 109 -91z" />
    <glyph glyph-name="Atilde" unicode="&#xc3;" horiz-adv-x="647" 
d="M451 0l-18 142h-247l-67 -142h-134l327 666h168l100 -666h-129zM384 567l-150 -321h186zM463 719q-28 0 -60 21t-48 21q-23 0 -58 -42l-44 41q41 77 108 77q25 0 60.5 -21.5t50.5 -21.5q28 0 47 37l51 -28q-19 -41 -43 -62.5t-64 -21.5z" />
    <glyph glyph-name="Adieresis" unicode="&#xc4;" horiz-adv-x="648" 
d="M451 0l-18 142h-247l-67 -142h-134l327 666h168l100 -666h-129zM384 567l-150 -321h186zM463 729l17 97h101l-17 -97h-101zM254 729l17 97h101l-17 -97h-101z" />
    <glyph glyph-name="Aring" unicode="&#xc5;" horiz-adv-x="647" 
d="M451 0l-18 142h-247l-67 -142h-134l327 666h168l100 -666h-129zM384 567l-150 -321h186zM402 709q-31 0 -50.5 18t-19.5 46q0 44 25 68.5t71 24.5q33 0 52.5 -17.5t19.5 -43.5q0 -42 -24 -69t-74 -27zM422 823q-18 0 -29 -12t-11 -33q0 -26 27 -26q40 0 40 45
q0 26 -27 26z" />
    <glyph glyph-name="AE" unicode="&#xc6;" horiz-adv-x="860" 
d="M451 0l-18 142h-247l-67 -142h-134l327 666h570l-20 -109h-366l24 -159h293l-19 -109h-258l27 -180h220l-18 -109h-314zM384 567l-150 -321h186z" />
    <glyph glyph-name="Ccedilla" unicode="&#xc7;" horiz-adv-x="522" 
d="M225 -200q-33 0 -72 15l15 48q34 -10 59 -10q56 0 56 34q0 20 -26 20q-29 0 -52 -2l-13 16l26 71q-87 7 -130 48.5t-43 107.5q0 20 4 43l52 291q18 102 81 148t184 46q84 0 183 -26l-28 -107q-101 21 -167 21q-63 0 -93 -24t-40 -84l-44 -247q-3 -18 -3 -34
q0 -39 23 -55.5t75 -16.5q80 0 168 17l5 -106q-79 -21 -172 -23l-16 -46q20 3 33 3q28 0 42.5 -16t14.5 -40q0 -92 -122 -92z" />
    <glyph glyph-name="Egrave" unicode="&#xc8;" horiz-adv-x="534" 
d="M30 0l117 666h409l-20 -109h-284l-28 -159h263l-19 -109h-263l-32 -180h284l-18 -109h-409zM374 711q-55 32 -116 85l53 64q39 -38 109 -90z" />
    <glyph glyph-name="Eacute" unicode="&#xc9;" horiz-adv-x="534" 
d="M30 0l117 666h409l-20 -109h-284l-28 -159h263l-19 -109h-263l-32 -180h284l-18 -109h-409zM328 710l-37 65q79 46 133 85l41 -72q-66 -46 -137 -78z" />
    <glyph glyph-name="Ecircumflex" unicode="&#xca;" horiz-adv-x="534" 
d="M30 0l117 666h409l-20 -109h-284l-28 -159h263l-19 -109h-263l-32 -180h284l-18 -109h-409zM451 711q-41 20 -85 52q-44 -31 -88 -52l-34 59q75 43 137 86q39 -40 109 -91z" />
    <glyph glyph-name="Edieresis" unicode="&#xcb;" horiz-adv-x="534" 
d="M30 0l117 666h409l-20 -109h-284l-28 -159h263l-19 -109h-263l-32 -180h284l-18 -109h-409zM418 729l17 97h101l-17 -97h-101zM209 729l17 97h101l-17 -97h-101z" />
    <glyph glyph-name="Igrave" unicode="&#xcc;" horiz-adv-x="284" 
d="M35 0l117 666h124l-117 -666h-124zM229 711q-55 32 -116 85l53 64q39 -38 109 -90z" />
    <glyph glyph-name="Iacute" unicode="&#xcd;" horiz-adv-x="284" 
d="M35 0l117 666h124l-117 -666h-124zM218 710l-37 65q79 46 133 85l41 -72q-66 -46 -137 -78z" />
    <glyph glyph-name="Icircumflex" unicode="&#xce;" horiz-adv-x="284" 
d="M35 0l117 666h124l-117 -666h-124zM311 711q-41 20 -85 52q-44 -31 -88 -52l-34 59q75 43 137 86q39 -40 109 -91z" />
    <glyph glyph-name="Idieresis" unicode="&#xcf;" horiz-adv-x="284" 
d="M35 0l117 666h124l-117 -666h-124zM284 729l17 97h101l-17 -97h-101zM75 729l17 97h101l-17 -97h-101z" />
    <glyph glyph-name="Eth" unicode="&#xd0;" horiz-adv-x="639" 
d="M50 287l17 99h66l50 280h244q99 0 146 -44.5t47 -114.5q0 -21 -4 -42l-51 -289q-15 -86 -66.5 -131t-173.5 -45h-260l51 287h-66zM447 210l44 250q3 16 3 30q0 34 -21.5 50.5t-73.5 16.5h-112l-30 -171h109l-17 -99h-110l-31 -178h118q62 0 86.5 23t34.5 78z" />
    <glyph glyph-name="Ntilde" unicode="&#xd1;" horiz-adv-x="679" 
d="M403 0l-165 494l-87 -494h-121l117 666h155l165 -507l89 507h120l-117 -666h-156zM484 719q-28 0 -60 21t-48 21q-23 0 -58 -42l-44 41q41 77 108 77q25 0 60.5 -21.5t50.5 -21.5q28 0 47 37l51 -28q-19 -41 -43 -62.5t-64 -21.5z" />
    <glyph glyph-name="Ograve" unicode="&#xd2;" horiz-adv-x="622" 
d="M264 -10q-110 0 -164 44.5t-54 120.5q0 24 4 44l49 277q18 102 82.5 151t197.5 49q109 0 166 -49t57 -127q0 -17 -3 -35l-48 -272q-19 -106 -83 -154.5t-204 -48.5zM429 203l46 262q2 16 2 23q0 79 -111 79q-127 0 -145 -102l-46 -261q-3 -18 -3 -33q0 -37 25 -54.5
t87 -17.5q126 0 145 104zM386 711q-55 32 -116 85l53 64q39 -38 109 -90z" />
    <glyph glyph-name="Oacute" unicode="&#xd3;" horiz-adv-x="622" 
d="M264 -10q-110 0 -164 44.5t-54 120.5q0 24 4 44l49 277q18 102 82.5 151t197.5 49q109 0 166 -49t57 -127q0 -17 -3 -35l-48 -272q-19 -106 -83 -154.5t-204 -48.5zM429 203l46 262q2 16 2 23q0 79 -111 79q-127 0 -145 -102l-46 -261q-3 -18 -3 -33q0 -37 25 -54.5
t87 -17.5q126 0 145 104zM368 710l-37 65q79 46 133 85l41 -72q-66 -46 -137 -78z" />
    <glyph glyph-name="Ocircumflex" unicode="&#xd4;" horiz-adv-x="622" 
d="M264 -10q-110 0 -164 44.5t-54 120.5q0 24 4 44l49 277q18 102 82.5 151t197.5 49q109 0 166 -49t57 -127q0 -17 -3 -35l-48 -272q-19 -106 -83 -154.5t-204 -48.5zM429 203l46 262q2 16 2 23q0 79 -111 79q-127 0 -145 -102l-46 -261q-3 -18 -3 -33q0 -37 25 -54.5
t87 -17.5q126 0 145 104zM479 711q-41 20 -85 52q-44 -31 -88 -52l-34 59q75 43 137 86q39 -40 109 -91z" />
    <glyph glyph-name="Otilde" unicode="&#xd5;" horiz-adv-x="622" 
d="M264 -10q-110 0 -164 44.5t-54 120.5q0 24 4 44l49 277q18 102 82.5 151t197.5 49q109 0 166 -49t57 -127q0 -17 -3 -35l-48 -272q-19 -106 -83 -154.5t-204 -48.5zM429 203l46 262q2 16 2 23q0 79 -111 79q-127 0 -145 -102l-46 -261q-3 -18 -3 -33q0 -37 25 -54.5
t87 -17.5q126 0 145 104zM440 719q-28 0 -60 21t-48 21q-23 0 -58 -42l-44 41q41 77 108 77q25 0 60.5 -21.5t50.5 -21.5q28 0 47 37l51 -28q-19 -41 -43 -62.5t-64 -21.5z" />
    <glyph glyph-name="Odieresis" unicode="&#xd6;" horiz-adv-x="622" 
d="M264 -10q-110 0 -164 44.5t-54 120.5q0 24 4 44l49 277q18 102 82.5 151t197.5 49q109 0 166 -49t57 -127q0 -17 -3 -35l-48 -272q-19 -106 -83 -154.5t-204 -48.5zM429 203l46 262q2 16 2 23q0 79 -111 79q-127 0 -145 -102l-46 -261q-3 -18 -3 -33q0 -37 25 -54.5
t87 -17.5q126 0 145 104zM451 729l17 97h101l-17 -97h-101zM242 729l17 97h101l-17 -97h-101z" />
    <glyph glyph-name="multiply" unicode="&#xd7;" horiz-adv-x="492" 
d="M365 53l-116 118l-117 -118l-68 69l116 118l-116 117l68 69l117 -117l116 117l68 -69l-116 -117l116 -118z" />
    <glyph glyph-name="Oslash" unicode="&#xd8;" horiz-adv-x="622" 
d="M14 -27l64 83q-32 39 -32 99q0 24 4 44l49 277q18 102 82.5 151t197.5 49q90 0 148 -37l67 87l43 -33l-69 -90q34 -43 34 -103q0 -17 -3 -35l-48 -272q-19 -106 -83 -154.5t-204 -48.5q-91 0 -144 31l-62 -81zM175 204q-3 -15 -3 -26l282 366q-26 23 -88 23
q-127 0 -145 -102zM429 203l46 262q2 14 2 20l-282 -367q25 -19 89 -19q126 0 145 104z" />
    <glyph glyph-name="Ugrave" unicode="&#xd9;" horiz-adv-x="631" 
d="M274 -10q-108 0 -163 46.5t-55 120.5q0 18 3 36l83 473h124l-81 -462q-3 -18 -3 -33q0 -37 23.5 -54.5t82.5 -17.5q69 0 100 27t40 79l81 461h124l-83 -474q-17 -97 -77 -149.5t-199 -52.5zM413 711q-55 32 -116 85l53 64q39 -38 109 -90z" />
    <glyph glyph-name="Uacute" unicode="&#xda;" horiz-adv-x="631" 
d="M274 -10q-108 0 -163 46.5t-55 120.5q0 18 3 36l83 473h124l-81 -462q-3 -18 -3 -33q0 -37 23.5 -54.5t82.5 -17.5q69 0 100 27t40 79l81 461h124l-83 -474q-17 -97 -77 -149.5t-199 -52.5zM367 710l-37 65q79 46 133 85l41 -72q-66 -46 -137 -78z" />
    <glyph glyph-name="Ucircumflex" unicode="&#xdb;" horiz-adv-x="631" 
d="M274 -10q-108 0 -163 46.5t-55 120.5q0 18 3 36l83 473h124l-81 -462q-3 -18 -3 -33q0 -37 23.5 -54.5t82.5 -17.5q69 0 100 27t40 79l81 461h124l-83 -474q-17 -97 -77 -149.5t-199 -52.5zM490 711q-41 20 -85 52q-44 -31 -88 -52l-34 59q75 43 137 86q39 -40 109 -91z
" />
    <glyph glyph-name="Udieresis" unicode="&#xdc;" horiz-adv-x="631" 
d="M274 -10q-108 0 -163 46.5t-55 120.5q0 18 3 36l83 473h124l-81 -462q-3 -18 -3 -33q0 -37 23.5 -54.5t82.5 -17.5q69 0 100 27t40 79l81 461h124l-83 -474q-17 -97 -77 -149.5t-199 -52.5zM455 729l17 97h101l-17 -97h-101zM246 729l17 97h101l-17 -97h-101z" />
    <glyph glyph-name="Yacute" unicode="&#xdd;" horiz-adv-x="553" 
d="M329 193l-34 -193h-124l35 199l-130 467h123l89 -337l200 337h140zM335 710l-37 65q79 46 133 85l41 -72q-66 -46 -137 -78z" />
    <glyph glyph-name="Thorn" unicode="&#xde;" horiz-adv-x="578" 
d="M153 0h-123l117 666h124l-20 -111h123q196 0 196 -143q0 -25 -4 -46l-15 -85q-10 -60 -31 -95.5t-70.5 -57.5t-132.5 -22h-145zM429 292l12 68q3 16 3 28q0 29 -17.5 43.5t-58.5 14.5h-136l-41 -233h134q54 0 75 17.5t29 61.5z" />
    <glyph glyph-name="germandbls" unicode="&#xdf;" horiz-adv-x="591" 
d="M24 -8l93 531q17 97 68 140t161 43q87 0 136.5 -36.5t49.5 -96.5q0 -71 -61 -153q-49 -65 -52 -78q-2 -6 -2 -12q0 -21 49 -66q38 -35 52 -56.5t14 -43.5q0 -86 -39 -130t-137 -44q-61 0 -115 17l19 90q44 -11 92 -11q33 0 47.5 10.5t14.5 41.5q0 10 -8.5 19.5
t-50.5 48.5q-60 56 -60 98q0 33 11 59t44 69q37 47 49 72t12 51q0 51 -74 51q-49 0 -71 -19t-30 -68l-95 -540q-10 -57 -32.5 -97t-74.5 -89l-76 72q33 33 45.5 58t20.5 69z" />
    <glyph glyph-name="agrave" unicode="&#xe0;" horiz-adv-x="516" 
d="M488 466l-82 -466h-101l-1 54q-71 -64 -159 -64q-113 0 -113 111q0 21 5 51l25 142q10 56 21.5 88.5t37 61.5t70 41t113.5 12q35 0 90.5 -9.5t93.5 -21.5zM315 164l40 225q-38 7 -69 7q-54 0 -74 -21.5t-29 -74.5l-30 -171q-1 -6 -1 -12q0 -26 33 -26q27 0 63.5 21.5
t66.5 51.5zM346 543q-69 44 -127 97l54 64q46 -46 120 -103z" />
    <glyph glyph-name="aacute" unicode="&#xe1;" horiz-adv-x="516" 
d="M488 466l-82 -466h-101l-1 54q-71 -64 -159 -64q-113 0 -113 111q0 21 5 51l25 142q10 56 21.5 88.5t37 61.5t70 41t113.5 12q35 0 90.5 -9.5t93.5 -21.5zM315 164l40 225q-38 7 -69 7q-54 0 -74 -21.5t-29 -74.5l-30 -171q-1 -6 -1 -12q0 -26 33 -26q27 0 63.5 21.5
t66.5 51.5zM274 543l-37 65q73 38 158 97l40 -72q-66 -45 -161 -90z" />
    <glyph glyph-name="acircumflex" unicode="&#xe2;" horiz-adv-x="516" 
d="M488 466l-82 -466h-101l-1 54q-71 -64 -159 -64q-113 0 -113 111q0 21 5 51l25 142q10 56 21.5 88.5t37 61.5t70 41t113.5 12q35 0 90.5 -9.5t93.5 -21.5zM315 164l40 225q-38 7 -69 7q-54 0 -74 -21.5t-29 -74.5l-30 -171q-1 -6 -1 -12q0 -26 33 -26q27 0 63.5 21.5
t66.5 51.5zM422 536q-48 26 -92 65q-50 -37 -104 -65l-35 58q85 50 154 103q53 -59 116 -108z" />
    <glyph glyph-name="atilde" unicode="&#xe3;" horiz-adv-x="516" 
d="M488 466l-82 -466h-101l-1 54q-71 -64 -159 -64q-113 0 -113 111q0 21 5 51l25 142q10 56 21.5 88.5t37 61.5t70 41t113.5 12q35 0 90.5 -9.5t93.5 -21.5zM315 164l40 225q-38 7 -69 7q-54 0 -74 -21.5t-29 -74.5l-30 -171q-1 -6 -1 -12q0 -26 33 -26q27 0 63.5 21.5
t66.5 51.5zM381 549q-29 0 -61 21t-48 21q-28 0 -58 -42l-44 41q43 77 108 77q25 0 60.5 -21.5t50.5 -21.5q28 0 47 37l51 -28q-19 -41 -42.5 -62.5t-63.5 -21.5z" />
    <glyph glyph-name="adieresis" unicode="&#xe4;" horiz-adv-x="516" 
d="M488 466l-82 -466h-101l-1 54q-71 -64 -159 -64q-113 0 -113 111q0 21 5 51l25 142q10 56 21.5 88.5t37 61.5t70 41t113.5 12q35 0 90.5 -9.5t93.5 -21.5zM315 164l40 225q-38 7 -69 7q-54 0 -74 -21.5t-29 -74.5l-30 -171q-1 -6 -1 -12q0 -26 33 -26q27 0 63.5 21.5
t66.5 51.5zM176 557l19 105l98 4l-18 -105zM366 557l19 105l98 4l-18 -105z" />
    <glyph glyph-name="aring" unicode="&#xe5;" horiz-adv-x="516" 
d="M488 466l-82 -466h-101l-1 54q-71 -64 -159 -64q-113 0 -113 111q0 21 5 51l25 142q10 56 21.5 88.5t37 61.5t70 41t113.5 12q35 0 90.5 -9.5t93.5 -21.5zM315 164l40 225q-38 7 -69 7q-54 0 -74 -21.5t-29 -74.5l-30 -171q-1 -6 -1 -12q0 -26 33 -26q27 0 63.5 21.5
t66.5 51.5zM319 542q-32 0 -53 20t-21 50q0 46 28 73.5t76 27.5q34 0 54 -19.5t20 -47.5q0 -45 -26.5 -74.5t-77.5 -29.5zM342 669q-20 0 -33 -14.5t-13 -36.5q0 -31 30 -31q21 0 33.5 14.5t12.5 36.5q0 31 -30 31z" />
    <glyph glyph-name="ae" unicode="&#xe6;" horiz-adv-x="703" 
d="M407 181l-6 -34q-2 -12 -2 -18q0 -21 12.5 -30.5t42.5 -9.5q74 0 170 49l24 -87q-96 -61 -208 -61q-93 0 -133 52q-67 -52 -160 -52q-62 0 -96 33.5t-34 86.5q0 159 171 159h115l10 54q3 17 3 28q0 26 -18.5 36.5t-66.5 10.5q-63 0 -140 -15l-12 89q89 25 173 25
q103 0 135 -60q52 60 149 60q74 0 114.5 -34t40.5 -93q0 -166 -284 -189zM431 316l-8 -44q76 8 114 28.5t38 60.5q0 42 -48 42q-79 0 -96 -87zM288 181h-81q-40 2 -58 -11.5t-18 -50.5q0 -38 46 -38q52 0 105 30q-1 31 6 70z" />
    <glyph glyph-name="ccedilla" unicode="&#xe7;" horiz-adv-x="400" 
d="M400 477l-27 -96q-44 14 -91 14q-52 0 -74 -18.5t-31 -69.5l-29 -165q-2 -12 -2 -17q0 -32 37 -32q54 0 143 31l12 -97q-58 -29 -133 -35l-16 -47q18 3 32 3q28 0 43 -16.5t15 -39.5q0 -92 -122 -92q-35 0 -72 15l15 48q32 -10 58 -10q57 0 57 34q0 20 -29 20
q-27 0 -49 -2l-14 16l26 70q-123 8 -123 120q0 18 5 48l29 164q18 99 69 136.5t155 37.5q65 0 116 -20z" />
    <glyph glyph-name="egrave" unicode="&#xe8;" horiz-adv-x="458" 
d="M154 165l-4 -23q-5 -26 1.5 -39t36.5 -13q77 0 187 56l26 -92q-46 -28 -108.5 -46t-121.5 -18q-91 0 -121.5 45.5t-15.5 128.5l26 148q17 92 67 138.5t155 46.5q70 0 113 -34t43 -93q0 -65 -44.5 -106t-145.5 -72q-56 -17 -94 -27zM246 295q77 24 77 70q0 17 -13.5 27.5
t-37.5 10.5q-76 0 -90 -80l-9 -50zM299 543q-69 44 -127 97l54 64q46 -46 120 -103z" />
    <glyph glyph-name="eacute" unicode="&#xe9;" horiz-adv-x="458" 
d="M154 165l-4 -23q-5 -26 1.5 -39t36.5 -13q77 0 187 56l26 -92q-46 -28 -108.5 -46t-121.5 -18q-91 0 -121.5 45.5t-15.5 128.5l26 148q17 92 67 138.5t155 46.5q70 0 113 -34t43 -93q0 -65 -44.5 -106t-145.5 -72q-56 -17 -94 -27zM246 295q77 24 77 70q0 17 -13.5 27.5
t-37.5 10.5q-76 0 -90 -80l-9 -50zM233 543l-37 65q73 38 158 97l40 -72q-66 -45 -161 -90z" />
    <glyph glyph-name="ecircumflex" unicode="&#xea;" horiz-adv-x="458" 
d="M154 165l-4 -23q-5 -26 1.5 -39t36.5 -13q77 0 187 56l26 -92q-46 -28 -108.5 -46t-121.5 -18q-91 0 -121.5 45.5t-15.5 128.5l26 148q17 92 67 138.5t155 46.5q70 0 113 -34t43 -93q0 -65 -44.5 -106t-145.5 -72q-56 -17 -94 -27zM246 295q77 24 77 70q0 17 -13.5 27.5
t-37.5 10.5q-76 0 -90 -80l-9 -50zM394 536q-48 26 -92 65q-50 -37 -104 -65l-35 58q85 50 154 103q53 -59 116 -108z" />
    <glyph glyph-name="edieresis" unicode="&#xeb;" horiz-adv-x="458" 
d="M154 165l-4 -23q-5 -26 1.5 -39t36.5 -13q77 0 187 56l26 -92q-46 -28 -108.5 -46t-121.5 -18q-91 0 -121.5 45.5t-15.5 128.5l26 148q17 92 67 138.5t155 46.5q70 0 113 -34t43 -93q0 -65 -44.5 -106t-145.5 -72q-56 -17 -94 -27zM246 295q77 24 77 70q0 17 -13.5 27.5
t-37.5 10.5q-76 0 -90 -80l-9 -50zM150 557l19 105l98 4l-18 -105zM340 557l19 105l98 4l-18 -105z" />
    <glyph glyph-name="igrave" unicode="&#xec;" horiz-adv-x="260" 
d="M25 0l84 478l123 17l-87 -495h-120zM180 543q-69 44 -127 97l54 64q46 -46 120 -103z" />
    <glyph glyph-name="iacute" unicode="&#xed;" horiz-adv-x="260" 
d="M25 0l84 478l123 17l-87 -495h-120zM169 543l-37 65q73 38 158 97l40 -72q-66 -45 -161 -90z" />
    <glyph glyph-name="icircumflex" unicode="&#xee;" horiz-adv-x="260" 
d="M25 0l84 478l123 17l-87 -495h-120zM286 536q-48 26 -92 65q-50 -37 -104 -65l-35 58q85 50 154 103q53 -59 116 -108z" />
    <glyph glyph-name="idieresis" unicode="&#xef;" horiz-adv-x="260" 
d="M25 0l84 478l123 17l-87 -495h-120zM46 557l19 105l98 4l-18 -105zM236 557l19 105l98 4l-18 -105z" />
    <glyph glyph-name="eth" unicode="&#xf0;" horiz-adv-x="505" 
d="M189 500l76 53q-39 20 -105 36l38 96q101 -17 164 -58l66 45l30 -43l-52 -36q65 -63 65 -156q0 -33 -9 -85l-33 -187q-15 -90 -63.5 -132.5t-160.5 -42.5q-170 0 -170 131q0 20 4 43l12 70q16 93 60 134.5t135 41.5q55 0 103 -20q4 30 4 40q0 62 -41 90l-93 -64zM221 91
q45 0 62.5 15.5t25.5 58.5l22 126q-46 15 -86 15q-32 0 -49.5 -14.5t-23.5 -48.5l-14 -79q-3 -18 -3 -29q0 -24 14.5 -34t51.5 -10z" />
    <glyph glyph-name="ntilde" unicode="&#xf1;" horiz-adv-x="540" 
d="M310 0l61 347q1 5 1 13q0 21 -25 21q-23 0 -65.5 -17.5t-79.5 -39.5l-57 -324h-120l84 477l104 18l-2 -59q112 61 197 61q89 0 89 -97q0 -21 -5 -48l-62 -352h-120zM384 549q-29 0 -61 21t-48 21q-28 0 -58 -42l-44 41q43 77 108 77q25 0 60.5 -21.5t50.5 -21.5
q28 0 47 37l51 -28q-19 -41 -42.5 -62.5t-63.5 -21.5z" />
    <glyph glyph-name="ograve" unicode="&#xf2;" horiz-adv-x="521" 
d="M214 -10q-90 0 -135.5 45t-45.5 114q0 19 3 39l21 117q18 96 73 144t171 48q90 0 137 -44t47 -112q0 -17 -3 -35l-23 -130q-16 -93 -70 -139.5t-175 -46.5zM339 176l24 136q2 12 2 22q0 62 -80 62q-92 0 -108 -89l-23 -131q-2 -12 -2 -22q0 -63 80 -63q92 0 107 85z
M312 543q-69 44 -127 97l54 64q46 -46 120 -103z" />
    <glyph glyph-name="oacute" unicode="&#xf3;" horiz-adv-x="521" 
d="M214 -10q-90 0 -135.5 45t-45.5 114q0 19 3 39l21 117q18 96 73 144t171 48q90 0 137 -44t47 -112q0 -17 -3 -35l-23 -130q-16 -93 -70 -139.5t-175 -46.5zM339 176l24 136q2 12 2 22q0 62 -80 62q-92 0 -108 -89l-23 -131q-2 -12 -2 -22q0 -63 80 -63q92 0 107 85z
M270 543l-37 65q73 38 158 97l40 -72q-66 -45 -161 -90z" />
    <glyph glyph-name="ocircumflex" unicode="&#xf4;" horiz-adv-x="521" 
d="M214 -10q-90 0 -135.5 45t-45.5 114q0 19 3 39l21 117q18 96 73 144t171 48q90 0 137 -44t47 -112q0 -17 -3 -35l-23 -130q-16 -93 -70 -139.5t-175 -46.5zM339 176l24 136q2 12 2 22q0 62 -80 62q-92 0 -108 -89l-23 -131q-2 -12 -2 -22q0 -63 80 -63q92 0 107 85z
M412 536q-48 26 -92 65q-50 -37 -104 -65l-35 58q85 50 154 103q53 -59 116 -108z" />
    <glyph glyph-name="otilde" unicode="&#xf5;" horiz-adv-x="521" 
d="M214 -10q-90 0 -135.5 45t-45.5 114q0 19 3 39l21 117q18 96 73 144t171 48q90 0 137 -44t47 -112q0 -17 -3 -35l-23 -130q-16 -93 -70 -139.5t-175 -46.5zM339 176l24 136q2 12 2 22q0 62 -80 62q-92 0 -108 -89l-23 -131q-2 -12 -2 -22q0 -63 80 -63q92 0 107 85z
M368 549q-29 0 -61 21t-48 21q-28 0 -58 -42l-44 41q43 77 108 77q25 0 60.5 -21.5t50.5 -21.5q28 0 47 37l51 -28q-19 -41 -42.5 -62.5t-63.5 -21.5z" />
    <glyph glyph-name="odieresis" unicode="&#xf6;" horiz-adv-x="521" 
d="M214 -10q-90 0 -135.5 45t-45.5 114q0 19 3 39l21 117q18 96 73 144t171 48q90 0 137 -44t47 -112q0 -17 -3 -35l-23 -130q-16 -93 -70 -139.5t-175 -46.5zM339 176l24 136q2 12 2 22q0 62 -80 62q-92 0 -108 -89l-23 -131q-2 -12 -2 -22q0 -63 80 -63q92 0 107 85z
M173 557l19 105l98 4l-18 -105zM363 557l19 105l98 4l-18 -105z" />
    <glyph glyph-name="divide" unicode="&#xf7;" horiz-adv-x="539" 
d="M213 358v118h113v-118h-113zM65 205v78h409v-78h-409zM213 10v118h113v-118h-113z" />
    <glyph glyph-name="oslash" unicode="&#xf8;" horiz-adv-x="521" 
d="M6 -21l59 70q-32 39 -32 100q0 19 3 39l21 117q18 96 73 144t171 48q73 0 119 -30l60 70l34 -29l-61 -71q32 -39 32 -96q0 -17 -3 -35l-23 -130q-16 -93 -70 -139.5t-175 -46.5q-71 0 -117 30l-58 -69zM152 154v-3l194 228q-20 17 -61 17q-92 0 -108 -89l-23 -131
q-2 -12 -2 -22zM339 176l24 136q2 12 2 21l-194 -226q21 -16 61 -16q92 0 107 85z" />
    <glyph glyph-name="ugrave" unicode="&#xf9;" horiz-adv-x="540" 
d="M227 495l-62 -355q-1 -7 -1 -13q0 -21 25 -21q23 0 65.5 17.5t79.5 39.5l55 315l123 17l-87 -495h-102l2 51q-112 -61 -197 -61q-89 0 -89 97q0 21 5 48l60 343zM326 543q-69 44 -127 97l54 64q46 -46 120 -103z" />
    <glyph glyph-name="uacute" unicode="&#xfa;" horiz-adv-x="540" 
d="M227 495l-62 -355q-1 -7 -1 -13q0 -21 25 -21q23 0 65.5 17.5t79.5 39.5l55 315l123 17l-87 -495h-102l2 51q-112 -61 -197 -61q-89 0 -89 97q0 21 5 48l60 343zM291 543l-37 65q73 38 158 97l40 -72q-66 -45 -161 -90z" />
    <glyph glyph-name="ucircumflex" unicode="&#xfb;" horiz-adv-x="540" 
d="M227 495l-62 -355q-1 -7 -1 -13q0 -21 25 -21q23 0 65.5 17.5t79.5 39.5l55 315l123 17l-87 -495h-102l2 51q-112 -61 -197 -61q-89 0 -89 97q0 21 5 48l60 343zM429 536q-48 26 -92 65q-50 -37 -104 -65l-35 58q85 50 154 103q53 -59 116 -108z" />
    <glyph glyph-name="udieresis" unicode="&#xfc;" horiz-adv-x="540" 
d="M227 495l-62 -355q-1 -7 -1 -13q0 -21 25 -21q23 0 65.5 17.5t79.5 39.5l55 315l123 17l-87 -495h-102l2 51q-112 -61 -197 -61q-89 0 -89 97q0 21 5 48l60 343zM184 557l19 105l98 4l-18 -105zM374 557l19 105l98 4l-18 -105z" />
    <glyph glyph-name="yacute" unicode="&#xfd;" horiz-adv-x="476" 
d="M449 347l-161 -347q-45 -89 -93.5 -133t-152.5 -80l-33 93q61 21 93 47t62 73h-41l-70 475l119 17l46 -386l115 259q14 33 14 67q0 24 -7 46l117 17q9 -28 9 -61q0 -49 -17 -87zM233 543l-37 65q73 38 158 97l40 -72q-66 -45 -161 -90z" />
    <glyph glyph-name="thorn" unicode="&#xfe;" horiz-adv-x="528" 
d="M-13 -214l159 900l123 17l-46 -261q67 55 156 55q113 0 113 -111q0 -21 -5 -51l-25 -142q-6 -37 -12 -59t-16.5 -48.5t-26.5 -41.5t-40 -28.5t-59.5 -19.5t-82.5 -6q-39 0 -80 9l-35 -196zM202 323l-40 -226q26 -6 71 -6q55 0 77 22t31 73l30 172q1 6 1 12q0 26 -34 26
q-35 0 -74.5 -23t-61.5 -50z" />
    <glyph glyph-name="ydieresis" unicode="&#xff;" horiz-adv-x="476" 
d="M449 347l-161 -347q-45 -89 -93.5 -133t-152.5 -80l-33 93q61 21 93 47t62 73h-41l-70 475l119 17l46 -386l115 259q14 33 14 67q0 24 -7 46l117 17q9 -28 9 -61q0 -49 -17 -87zM129 557l19 105l98 4l-18 -105zM319 557l19 105l98 4l-18 -105z" />
    <glyph glyph-name="Amacron" unicode="&#x100;" horiz-adv-x="647" 
d="M451 0l-18 142h-247l-67 -142h-134l327 666h168l100 -666h-129zM384 567l-150 -321h186zM285 725l14 80h246l-14 -80h-246z" />
    <glyph glyph-name="amacron" unicode="&#x101;" horiz-adv-x="516" 
d="M488 466l-82 -466h-101l-1 54q-71 -64 -159 -64q-113 0 -113 111q0 21 5 51l25 142q10 56 21.5 88.5t37 61.5t70 41t113.5 12q35 0 90.5 -9.5t93.5 -21.5zM315 164l40 225q-38 7 -69 7q-54 0 -74 -21.5t-29 -74.5l-30 -171q-1 -6 -1 -12q0 -26 33 -26q27 0 63.5 21.5
t66.5 51.5zM197 548l14 80h246l-14 -80h-246z" />
    <glyph glyph-name="Abreve" unicode="&#x102;" horiz-adv-x="647" 
d="M451 0l-18 142h-247l-67 -142h-134l327 666h168l100 -666h-129zM384 567l-150 -321h186zM410 709q-52 0 -86.5 29.5t-37.5 71.5l62 25q13 -57 71 -57q29 0 46.5 14.5t31.5 45.5l58 -30q-31 -99 -145 -99z" />
    <glyph glyph-name="abreve" unicode="&#x103;" horiz-adv-x="516" 
d="M488 466l-82 -466h-101l-1 54q-71 -64 -159 -64q-113 0 -113 111q0 21 5 51l25 142q10 56 21.5 88.5t37 61.5t70 41t113.5 12q35 0 90.5 -9.5t93.5 -21.5zM315 164l40 225q-38 7 -69 7q-54 0 -74 -21.5t-29 -74.5l-30 -171q-1 -6 -1 -12q0 -26 33 -26q27 0 63.5 21.5
t66.5 51.5zM319 534q-56 0 -90.5 32.5t-38.5 77.5l63 25q14 -65 75 -65t93 70l58 -31q-16 -47 -55 -78t-105 -31z" />
    <glyph glyph-name="Aogonek" unicode="&#x104;" horiz-adv-x="647" 
d="M451 0l-18 142h-247l-67 -142h-134l327 666h168l100 -666q-61 -41 -84.5 -66t-23.5 -50q0 -23 30 -23q19 0 34 4l3 -59q-32 -13 -71 -13q-86 0 -86 63q0 80 151 144h-82zM384 567l-150 -321h186z" />
    <glyph glyph-name="aogonek" unicode="&#x105;" horiz-adv-x="516" 
d="M488 466l-82 -466q-61 -41 -84.5 -66t-23.5 -50q0 -23 30 -23q19 0 34 4l3 -59q-32 -13 -71 -13q-86 0 -86 63q0 80 151 144h-54l-1 54q-71 -64 -159 -64q-113 0 -113 111q0 21 5 51l25 142q10 56 21.5 88.5t37 61.5t70 41t113.5 12q35 0 90.5 -9.5t93.5 -21.5zM315 164
l40 225q-38 7 -69 7q-54 0 -74 -21.5t-29 -74.5l-30 -171q-1 -6 -1 -12q0 -26 33 -26q27 0 63.5 21.5t66.5 51.5z" />
    <glyph glyph-name="Cacute" unicode="&#x106;" horiz-adv-x="519" 
d="M251 -10q-103 0 -154.5 44t-51.5 117q0 20 4 42l51 289q19 105 81 149.5t185 44.5q82 0 180 -26l-26 -106q-96 20 -166 20q-65 0 -94 -21t-40 -84l-44 -249q-4 -24 -4 -36q0 -38 23 -55t77 -17q80 0 168 17l4 -106q-83 -23 -193 -23zM326 710l-37 65q79 46 133 85l41 -72
q-66 -46 -137 -78z" />
    <glyph glyph-name="cacute" unicode="&#x107;" horiz-adv-x="400" 
d="M400 477l-27 -96q-44 14 -91 14q-52 0 -74 -18.5t-31 -69.5l-29 -165q-2 -12 -2 -17q0 -32 37 -32q54 0 143 31l12 -97q-78 -37 -165 -37q-147 0 -147 121q0 18 5 48l29 164q18 99 69 136.5t155 37.5q65 0 116 -20zM216 543l-37 65q73 38 158 97l40 -72q-66 -45 -161 -90
z" />
    <glyph glyph-name="Ccircumflex" unicode="&#x108;" horiz-adv-x="519" 
d="M251 -10q-103 0 -154.5 44t-51.5 117q0 20 4 42l51 289q19 105 81 149.5t185 44.5q82 0 180 -26l-26 -106q-96 20 -166 20q-65 0 -94 -21t-40 -84l-44 -249q-4 -24 -4 -36q0 -38 23 -55t77 -17q80 0 168 17l4 -106q-83 -23 -193 -23zM465 711q-41 20 -85 52
q-44 -31 -88 -52l-34 59q75 43 137 86q39 -40 109 -91z" />
    <glyph glyph-name="ccircumflex" unicode="&#x109;" horiz-adv-x="400" 
d="M400 477l-27 -96q-44 14 -91 14q-52 0 -74 -18.5t-31 -69.5l-29 -165q-2 -12 -2 -17q0 -32 37 -32q54 0 143 31l12 -97q-78 -37 -165 -37q-147 0 -147 121q0 18 5 48l29 164q18 99 69 136.5t155 37.5q65 0 116 -20zM380 536q-48 26 -92 65q-50 -37 -104 -65l-35 58
q85 50 154 103q53 -59 116 -108z" />
    <glyph glyph-name="Cdotaccent" unicode="&#x10a;" horiz-adv-x="519" 
d="M251 -10q-103 0 -154.5 44t-51.5 117q0 20 4 42l51 289q19 105 81 149.5t185 44.5q82 0 180 -26l-26 -106q-96 20 -166 20q-65 0 -94 -21t-40 -84l-44 -249q-4 -24 -4 -36q0 -38 23 -55t77 -17q80 0 168 17l4 -106q-83 -23 -193 -23zM314 720l24 137l123 17l-24 -136z
" />
    <glyph glyph-name="cdotaccent" unicode="&#x10b;" horiz-adv-x="400" 
d="M400 477l-27 -96q-44 14 -91 14q-52 0 -74 -18.5t-31 -69.5l-29 -165q-2 -12 -2 -17q0 -32 37 -32q54 0 143 31l12 -97q-78 -37 -165 -37q-147 0 -147 121q0 18 5 48l29 164q18 99 69 136.5t155 37.5q65 0 116 -20zM209 549l24 137l123 17l-24 -136z" />
    <glyph glyph-name="Ccaron" unicode="&#x10c;" horiz-adv-x="519" 
d="M251 -10q-103 0 -154.5 44t-51.5 117q0 20 4 42l51 289q19 105 81 149.5t185 44.5q82 0 180 -26l-26 -106q-96 20 -166 20q-65 0 -94 -21t-40 -84l-44 -249q-4 -24 -4 -36q0 -38 23 -55t77 -17q80 0 168 17l4 -106q-83 -23 -193 -23zM307 851q41 -20 85 -52q38 29 88 52
l34 -59q-75 -43 -137 -86q-39 40 -109 91z" />
    <glyph glyph-name="ccaron" unicode="&#x10d;" horiz-adv-x="400" 
d="M400 477l-27 -96q-44 14 -91 14q-52 0 -74 -18.5t-31 -69.5l-29 -165q-2 -12 -2 -17q0 -32 37 -32q54 0 143 31l12 -97q-78 -37 -165 -37q-147 0 -147 121q0 18 5 48l29 164q18 99 69 136.5t155 37.5q65 0 116 -20zM190 693q48 -26 93 -65q47 34 104 65l35 -58
q-81 -49 -155 -103q-47 54 -115 108z" />
    <glyph glyph-name="Dcaron" unicode="&#x10e;" horiz-adv-x="604" 
d="M290 0h-260l118 666h244q99 0 146 -44.5t47 -114.5q0 -21 -4 -42l-51 -289q-15 -86 -66.5 -131t-173.5 -45zM412 210l44 250q3 16 3 30q0 34 -21.5 50.5t-73.5 16.5h-112l-79 -448h118q62 0 86.5 23t34.5 78zM288 851q41 -20 85 -52q38 29 88 52l34 -59q-75 -43 -137 -86
q-39 40 -109 91z" />
    <glyph glyph-name="dcaron" unicode="&#x10f;" horiz-adv-x="639" 
d="M593 575l19 111h97l-20 -118l-79 -102l-37 29l56 80h-36zM537 703l-124 -703h-102v54q-71 -64 -166 -64q-113 0 -113 111q0 21 5 51l25 142q6 37 12 59t16.5 48.5t26.5 41.5t40 28.5t59.5 19.5t82.5 6q39 0 80 -9l35 198zM322 164l40 226q-26 6 -71 6q-55 0 -77 -22
t-31 -73l-30 -172q-1 -6 -1 -12q0 -26 34 -26q35 0 74.5 23t61.5 50z" />
    <glyph glyph-name="Dcroat" unicode="&#x110;" horiz-adv-x="639" 
d="M50 287l17 99h66l50 280h244q99 0 146 -44.5t47 -114.5q0 -21 -4 -42l-51 -289q-15 -86 -66.5 -131t-173.5 -45h-260l51 287h-66zM447 210l44 250q3 16 3 30q0 34 -21.5 50.5t-73.5 16.5h-112l-30 -171h109l-17 -99h-110l-31 -178h118q62 0 86.5 23t34.5 78z" />
    <glyph glyph-name="dcroat" unicode="&#x111;" horiz-adv-x="528" 
d="M300 547l10 64h91l13 75l123 17l-16 -92h67l-11 -64h-68l-96 -547h-102v54q-71 -64 -166 -64q-113 0 -113 111q0 21 5 51l25 142q6 37 12 59t16.5 48.5t26.5 41.5t40 28.5t59.5 19.5t82.5 6q39 0 80 -9l10 59h-89zM322 164l40 226q-26 6 -71 6q-55 0 -77 -22t-31 -73
l-30 -172q-1 -6 -1 -12q0 -26 34 -26q35 0 74.5 23t61.5 50z" />
    <glyph glyph-name="Emacron" unicode="&#x112;" horiz-adv-x="534" 
d="M30 0l117 666h409l-20 -109h-284l-28 -159h263l-19 -109h-263l-32 -180h284l-18 -109h-409zM243 725l14 80h246l-14 -80h-246z" />
    <glyph glyph-name="emacron" unicode="&#x113;" horiz-adv-x="458" 
d="M154 165l-4 -23q-5 -26 1.5 -39t36.5 -13q77 0 187 56l26 -92q-46 -28 -108.5 -46t-121.5 -18q-91 0 -121.5 45.5t-15.5 128.5l26 148q17 92 67 138.5t155 46.5q70 0 113 -34t43 -93q0 -65 -44.5 -106t-145.5 -72q-56 -17 -94 -27zM246 295q77 24 77 70q0 17 -13.5 27.5
t-37.5 10.5q-76 0 -90 -80l-9 -50zM171 548l14 80h246l-14 -80h-246z" />
    <glyph glyph-name="Ebreve" unicode="&#x114;" horiz-adv-x="534" 
d="M30 0l117 666h409l-20 -109h-284l-28 -159h263l-19 -109h-263l-32 -180h284l-18 -109h-409zM367 709q-52 0 -86.5 29.5t-37.5 71.5l62 25q13 -57 71 -57q29 0 46.5 14.5t31.5 45.5l58 -30q-31 -99 -145 -99z" />
    <glyph glyph-name="ebreve" unicode="&#x115;" horiz-adv-x="458" 
d="M154 165l-4 -23q-5 -26 1.5 -39t36.5 -13q77 0 187 56l26 -92q-46 -28 -108.5 -46t-121.5 -18q-91 0 -121.5 45.5t-15.5 128.5l26 148q17 92 67 138.5t155 46.5q70 0 113 -34t43 -93q0 -65 -44.5 -106t-145.5 -72q-56 -17 -94 -27zM246 295q77 24 77 70q0 17 -13.5 27.5
t-37.5 10.5q-76 0 -90 -80l-9 -50zM293 534q-56 0 -90.5 32.5t-38.5 77.5l63 25q14 -65 75 -65t93 70l58 -31q-16 -47 -55 -78t-105 -31z" />
    <glyph glyph-name="Edotaccent" unicode="&#x116;" horiz-adv-x="534" 
d="M30 0l117 666h409l-20 -109h-284l-28 -159h263l-19 -109h-263l-32 -180h284l-18 -109h-409zM307 720l24 137l123 17l-24 -136z" />
    <glyph glyph-name="edotaccent" unicode="&#x117;" horiz-adv-x="458" 
d="M154 165l-4 -23q-5 -26 1.5 -39t36.5 -13q77 0 187 56l26 -92q-46 -28 -108.5 -46t-121.5 -18q-91 0 -121.5 45.5t-15.5 128.5l26 148q17 92 67 138.5t155 46.5q70 0 113 -34t43 -93q0 -65 -44.5 -106t-145.5 -72q-56 -17 -94 -27zM246 295q77 24 77 70q0 17 -13.5 27.5
t-37.5 10.5q-76 0 -90 -80l-9 -50zM232 549l24 137l123 17l-24 -136z" />
    <glyph glyph-name="Eogonek" unicode="&#x118;" horiz-adv-x="534" 
d="M30 0l117 666h409l-20 -109h-284l-28 -159h263l-19 -109h-263l-32 -180h284l-18 -109h-36q-61 -41 -84.5 -66t-23.5 -50q0 -23 30 -23q19 0 34 4l3 -59q-32 -13 -71 -13q-86 0 -86 63q0 80 146 144h-321z" />
    <glyph glyph-name="eogonek" unicode="&#x119;" horiz-adv-x="458" 
d="M291 -135l3 -59q-32 -13 -71 -13q-86 0 -86 63q0 76 160 153q-71 -19 -126 -19q-91 0 -121.5 45.5t-15.5 128.5l26 148q17 92 67 138.5t155 46.5q70 0 113 -34t43 -93q0 -65 -44.5 -106t-145.5 -72q-56 -17 -94 -27l-4 -23q-5 -26 1.5 -39t36.5 -13q77 0 187 56l26 -92
q-174 -109 -174 -170q0 -23 30 -23q19 0 34 4zM246 295q77 24 77 70q0 17 -13.5 27.5t-37.5 10.5q-76 0 -90 -80l-9 -50z" />
    <glyph glyph-name="Ecaron" unicode="&#x11a;" horiz-adv-x="534" 
d="M30 0l117 666h409l-20 -109h-284l-28 -159h263l-19 -109h-263l-32 -180h284l-18 -109h-409zM286 851q41 -20 85 -52q38 29 88 52l34 -59q-75 -43 -137 -86q-39 40 -109 91z" />
    <glyph glyph-name="ecaron" unicode="&#x11b;" horiz-adv-x="458" 
d="M154 165l-4 -23q-5 -26 1.5 -39t36.5 -13q77 0 187 56l26 -92q-46 -28 -108.5 -46t-121.5 -18q-91 0 -121.5 45.5t-15.5 128.5l26 148q17 92 67 138.5t155 46.5q70 0 113 -34t43 -93q0 -65 -44.5 -106t-145.5 -72q-56 -17 -94 -27zM246 295q77 24 77 70q0 17 -13.5 27.5
t-37.5 10.5q-76 0 -90 -80l-9 -50zM210 693q48 -26 93 -65q47 34 104 65l35 -58q-81 -49 -155 -103q-47 54 -115 108z" />
    <glyph glyph-name="Gcircumflex" unicode="&#x11c;" horiz-adv-x="590" 
d="M257 -10q-212 0 -212 157q0 23 4 46l51 289q18 101 77.5 147.5t188.5 46.5q104 0 203 -32l-26 -106q-101 26 -190 26q-67 0 -94.5 -22.5t-38.5 -82.5l-44 -249q-4 -21 -4 -43q0 -33 21.5 -50t76.5 -17q59 0 111 11l36 197h117l-50 -280q-93 -38 -227 -38zM461 711
q-41 20 -85 52q-44 -31 -88 -52l-34 59q75 43 137 86q39 -40 109 -91z" />
    <glyph glyph-name="gcircumflex" unicode="&#x11d;" horiz-adv-x="523" 
d="M494 460l-94 -534q-14 -77 -54.5 -105t-126.5 -28q-102 0 -218 38l23 89q112 -33 192 -33q36 0 48.5 12t18.5 45l19 107q-74 -41 -154 -41q-113 0 -113 111q0 21 5 51l22 122q21 119 67.5 161t173.5 42q99 0 191 -37zM320 156l42 233q-39 7 -71 7q-55 0 -77 -22t-31 -74
l-27 -151q-1 -6 -1 -12q0 -26 34 -26q62 0 131 45zM429 536q-48 26 -92 65q-50 -37 -104 -65l-35 58q85 50 154 103q53 -59 116 -108z" />
    <glyph glyph-name="Gbreve" unicode="&#x11e;" horiz-adv-x="590" 
d="M257 -10q-212 0 -212 157q0 23 4 46l51 289q18 101 77.5 147.5t188.5 46.5q104 0 203 -32l-26 -106q-101 26 -190 26q-67 0 -94.5 -22.5t-38.5 -82.5l-44 -249q-4 -21 -4 -43q0 -33 21.5 -50t76.5 -17q59 0 111 11l36 197h117l-50 -280q-93 -38 -227 -38zM384 709
q-52 0 -86.5 29.5t-37.5 71.5l62 25q13 -57 71 -57q29 0 46.5 14.5t31.5 45.5l58 -30q-31 -99 -145 -99z" />
    <glyph glyph-name="gbreve" unicode="&#x11f;" horiz-adv-x="523" 
d="M494 460l-94 -534q-14 -77 -54.5 -105t-126.5 -28q-102 0 -218 38l23 89q112 -33 192 -33q36 0 48.5 12t18.5 45l19 107q-74 -41 -154 -41q-113 0 -113 111q0 21 5 51l22 122q21 119 67.5 161t173.5 42q99 0 191 -37zM320 156l42 233q-39 7 -71 7q-55 0 -77 -22t-31 -74
l-27 -151q-1 -6 -1 -12q0 -26 34 -26q62 0 131 45zM321 534q-56 0 -90.5 32.5t-38.5 77.5l63 25q14 -65 75 -65t93 70l58 -31q-16 -47 -55 -78t-105 -31z" />
    <glyph glyph-name="Gdotaccent" unicode="&#x120;" horiz-adv-x="590" 
d="M257 -10q-212 0 -212 157q0 23 4 46l51 289q18 101 77.5 147.5t188.5 46.5q104 0 203 -32l-26 -106q-101 26 -190 26q-67 0 -94.5 -22.5t-38.5 -82.5l-44 -249q-4 -21 -4 -43q0 -33 21.5 -50t76.5 -17q59 0 111 11l36 197h117l-50 -280q-93 -38 -227 -38zM324 720l24 137
l123 17l-24 -136z" />
    <glyph glyph-name="gdotaccent" unicode="&#x121;" horiz-adv-x="523" 
d="M494 460l-94 -534q-14 -77 -54.5 -105t-126.5 -28q-102 0 -218 38l23 89q112 -33 192 -33q36 0 48.5 12t18.5 45l19 107q-74 -41 -154 -41q-113 0 -113 111q0 21 5 51l22 122q21 119 67.5 161t173.5 42q99 0 191 -37zM320 156l42 233q-39 7 -71 7q-55 0 -77 -22t-31 -74
l-27 -151q-1 -6 -1 -12q0 -26 34 -26q62 0 131 45zM262 549l24 137l123 17l-24 -136z" />
    <glyph glyph-name="Gcommaaccent" unicode="&#x122;" horiz-adv-x="590" 
d="M257 -10q-212 0 -212 157q0 23 4 46l51 289q18 101 77.5 147.5t188.5 46.5q104 0 203 -32l-26 -106q-101 26 -190 26q-67 0 -94.5 -22.5t-38.5 -82.5l-44 -249q-4 -21 -4 -43q0 -33 21.5 -50t76.5 -17q59 0 111 11l36 197h117l-50 -280q-93 -38 -227 -38zM187 -183
l24 132h117l-25 -140l-83 -104l-45 32l55 80h-43z" />
    <glyph glyph-name="gcommaaccent" unicode="&#x123;" horiz-adv-x="523" 
d="M381 654l-19 -111h-97l20 118l79 102l37 -29l-56 -80h36zM494 460l-94 -534q-14 -77 -54.5 -105t-126.5 -28q-102 0 -218 38l23 89q112 -33 192 -33q36 0 48.5 12t18.5 45l19 107q-74 -41 -154 -41q-113 0 -113 111q0 21 5 51l22 122q21 119 67.5 161t173.5 42
q99 0 191 -37zM320 156l42 233q-39 7 -71 7q-55 0 -77 -22t-31 -74l-27 -151q-1 -6 -1 -12q0 -26 34 -26q62 0 131 45z" />
    <glyph glyph-name="Hcircumflex" unicode="&#x124;" horiz-adv-x="639" 
d="M395 0l49 282h-241l-49 -282h-124l117 666h124l-48 -275h241l48 275h124l-117 -666h-124zM493 711q-41 20 -85 52q-44 -31 -88 -52l-34 59q75 43 137 86q39 -40 109 -91z" />
    <glyph glyph-name="hcircumflex" unicode="&#x125;" horiz-adv-x="540" 
d="M310 0l61 347q1 5 1 13q0 21 -25 21q-23 0 -65.5 -17t-79.5 -40l-57 -324h-120l121 686l123 17l-46 -261q103 55 185 55q89 0 89 -97q0 -21 -5 -48l-62 -352h-120zM306 741q-41 20 -85 52q-44 -31 -88 -52l-34 59q75 43 137 86q39 -40 109 -91z" />
    <glyph glyph-name="Hbar" unicode="&#x126;" horiz-adv-x="649" 
d="M60 503l10 64h64l18 99h124l-18 -99h241l18 99h124l-18 -99h65l-10 -64h-66l-88 -503h-124l49 282h-241l-49 -282h-124l88 503h-63zM228 391h241l19 112h-241z" />
    <glyph glyph-name="hbar" unicode="&#x127;" horiz-adv-x="540" 
d="M64 548l10 63h58l14 75l123 17l-17 -92h97l-10 -63h-98l-18 -106q103 55 185 55q89 0 89 -97q0 -21 -5 -48l-62 -352h-120l61 347q1 5 1 13q0 21 -25 21q-23 0 -65.5 -17t-79.5 -40l-57 -324h-120l96 548h-57z" />
    <glyph glyph-name="Itilde" unicode="&#x128;" horiz-adv-x="284" 
d="M35 0l117 666h124l-117 -666h-124zM283 719q-28 0 -60 21t-48 21q-23 0 -58 -42l-44 41q41 77 108 77q25 0 60.5 -21.5t50.5 -21.5q28 0 47 37l51 -28q-19 -41 -43 -62.5t-64 -21.5z" />
    <glyph glyph-name="itilde" unicode="&#x129;" horiz-adv-x="260" 
d="M25 0l84 478l123 17l-87 -495h-120zM237 549q-29 0 -61 21t-48 21q-28 0 -58 -42l-44 41q43 77 108 77q25 0 60.5 -21.5t50.5 -21.5q28 0 47 37l51 -28q-19 -41 -42.5 -62.5t-63.5 -21.5z" />
    <glyph glyph-name="Imacron" unicode="&#x12a;" horiz-adv-x="284" 
d="M35 0l117 666h124l-117 -666h-124zM101 725l14 80h246l-14 -80h-246z" />
    <glyph glyph-name="imacron" unicode="&#x12b;" horiz-adv-x="260" 
d="M25 0l84 478l123 17l-87 -495h-120zM57 548l14 80h246l-14 -80h-246z" />
    <glyph glyph-name="Ibreve" unicode="&#x12c;" horiz-adv-x="284" 
d="M35 0l117 666h124l-117 -666h-124zM228 709q-52 0 -86.5 29.5t-37.5 71.5l62 25q13 -57 71 -57q29 0 46.5 14.5t31.5 45.5l58 -30q-31 -99 -145 -99z" />
    <glyph glyph-name="ibreve" unicode="&#x12d;" horiz-adv-x="260" 
d="M25 0l84 478l123 17l-87 -495h-120zM183 534q-56 0 -90.5 32.5t-38.5 77.5l63 25q14 -65 75 -65t93 70l58 -31q-16 -47 -55 -78t-105 -31z" />
    <glyph glyph-name="Iogonek" unicode="&#x12e;" horiz-adv-x="284" 
d="M35 0l117 666h124l-117 -666q-58 -39 -80 -64.5t-22 -51.5q0 -23 31 -23q19 0 34 4l3 -59q-32 -13 -71 -13q-86 0 -86 63q0 45 42 82.5t107 61.5h-82z" />
    <glyph glyph-name="iogonek" unicode="&#x12f;" horiz-adv-x="260" 
d="M25 0l84 478l123 17l-87 -495q-58 -39 -80 -64.5t-22 -51.5q0 -23 31 -23q19 0 34 4l3 -59q-32 -13 -71 -13q-86 0 -86 63q0 45 42 82.5t107 61.5h-78zM122 549l24 137l123 17l-24 -136z" />
    <glyph glyph-name="Idotaccent" unicode="&#x130;" horiz-adv-x="284" 
d="M35 0l117 666h124l-117 -666h-124zM167 720l24 137l123 17l-24 -136z" />
    <glyph glyph-name="dotlessi" unicode="&#x131;" horiz-adv-x="260" 
d="M25 0l84 478l123 17l-87 -495h-120z" />
    <glyph glyph-name="IJ" unicode="&#x132;" horiz-adv-x="569" 
d="M35 0l117 666h124l-117 -666h-124zM561 666l-120 -683q-6 -35 -17.5 -56t-44 -50.5t-106.5 -82.5l-62 88q81 64 93 78q12 15 16 39l117 667h124z" />
    <glyph glyph-name="ij" unicode="&#x133;" horiz-adv-x="515" 
d="M122 549l24 137l123 17l-24 -136zM25 0l84 478l123 17l-87 -495h-120zM492 495l-91 -518q-9 -52 -35.5 -86t-121.5 -98l-59 83l26.5 21t21.5 17l15.5 13t12.5 12t8 10t7 11.5t3.5 12.5l3.5 17l86 488zM382 549l24 137l123 17l-24 -136z" />
    <glyph glyph-name="Jcircumflex" unicode="&#x134;" horiz-adv-x="284" 
d="M276 666l-120 -683q-6 -35 -17.5 -56t-44 -50.5t-106.5 -82.5l-62 88q81 64 93 78q12 15 16 39l117 667h124zM312 711q-41 20 -85 52q-44 -31 -88 -52l-34 59q75 43 137 86q39 -40 109 -91z" />
    <glyph glyph-name="jcircumflex" unicode="&#x135;" horiz-adv-x="255" 
d="M232 495l-91 -518q-9 -52 -35.5 -86t-121.5 -98l-59 83l26.5 21t21.5 17l15.5 13t12.5 12t8 10t7 11.5t3.5 12.5l3.5 17l86 488zM282 536q-48 26 -92 65q-50 -37 -104 -65l-35 58q85 50 154 103q53 -59 116 -108z" />
    <glyph glyph-name="Kcommaaccent" unicode="&#x136;" horiz-adv-x="595" 
d="M386 0l-156 340l251 326h151l-265 -329l156 -337h-137zM30 0l117 666h124l-117 -666h-124zM170 -183l24 132h117l-25 -140l-83 -104l-45 32l55 80h-43z" />
    <glyph glyph-name="kcommaaccent" unicode="&#x137;" horiz-adv-x="497" 
d="M308 0l-102 246l178 251l128 -21l-178 -231l101 -245h-127zM25 0l121 686l123 17l-124 -703h-120zM131 -183l24 132h117l-25 -140l-83 -104l-45 32l55 80h-43z" />
    <glyph glyph-name="kgreenlandic" unicode="&#x138;" horiz-adv-x="497" 
d="M308 0l-102 246l171 241h144l-187 -242l101 -245h-127zM25 0l86 487h120l-86 -487h-120z" />
    <glyph glyph-name="Lacute" unicode="&#x139;" horiz-adv-x="504" 
d="M30 0l117 666h124l-98 -557h275l-19 -109h-399zM217 710l-37 65q79 46 133 85l41 -72q-66 -46 -137 -78z" />
    <glyph glyph-name="lacute" unicode="&#x13a;" horiz-adv-x="260" 
d="M25 0l121 686l123 17l-124 -703h-120zM200 750l-37 65q79 46 133 85l41 -72q-66 -46 -137 -78z" />
    <glyph glyph-name="Lcommaaccent" unicode="&#x13b;" horiz-adv-x="504" 
d="M30 0l117 666h124l-98 -557h275l-19 -109h-399zM168 -183l24 132h117l-25 -140l-83 -104l-45 32l55 80h-43z" />
    <glyph glyph-name="lcommaaccent" unicode="&#x13c;" horiz-adv-x="260" 
d="M25 0l121 686l123 17l-124 -703h-120zM-6 -183l24 132h117l-25 -140l-83 -104l-45 32l55 80h-43z" />
    <glyph glyph-name="Lcaron" unicode="&#x13d;" horiz-adv-x="504" 
d="M30 0l117 666h124l-98 -557h275l-19 -109h-399zM373 575l19 111h97l-20 -118l-79 -102l-37 29l56 80h-36z" />
    <glyph glyph-name="lcaron" unicode="&#x13e;" horiz-adv-x="368" 
d="M25 0l121 686l123 17l-124 -703h-120zM332 575l19 111h97l-20 -118l-79 -102l-37 29l56 80h-36z" />
    <glyph glyph-name="Ldot" unicode="&#x13f;" horiz-adv-x="504" 
d="M301 297l25 140h124l-25 -140h-124zM30 0l117 666h124l-98 -557h275l-19 -109h-399z" />
    <glyph glyph-name="ldot" unicode="&#x140;" horiz-adv-x="404" 
d="M25 0l121 686l123 17l-124 -703h-120zM255 184l25 140h124l-25 -140h-124z" />
    <glyph glyph-name="Lslash" unicode="&#x141;" horiz-adv-x="531" 
d="M35 233l-16 74l99 41l56 318h124l-47 -268l146 63l21 -74l-182 -75l-36 -203h275l-19 -109h-399l45 259z" />
    <glyph glyph-name="lslash" unicode="&#x142;" horiz-adv-x="328" 
d="M53 242l-17 74l84 34l59 336l123 17l-53 -303l78 33l16 -76l-110 -45l-55 -312h-120l46 262z" />
    <glyph glyph-name="Nacute" unicode="&#x143;" horiz-adv-x="679" 
d="M403 0l-165 494l-87 -494h-121l117 666h155l165 -507l89 507h120l-117 -666h-156zM393 710l-37 65q79 46 133 85l41 -72q-66 -46 -137 -78z" />
    <glyph glyph-name="nacute" unicode="&#x144;" horiz-adv-x="540" 
d="M310 0l61 347q1 5 1 13q0 21 -25 21q-23 0 -65.5 -17.5t-79.5 -39.5l-57 -324h-120l84 477l104 18l-2 -59q112 61 197 61q89 0 89 -97q0 -21 -5 -48l-62 -352h-120zM277 543l-37 65q73 38 158 97l40 -72q-66 -45 -161 -90z" />
    <glyph glyph-name="Ncommaaccent" unicode="&#x145;" horiz-adv-x="679" 
d="M403 0l-165 494l-87 -494h-121l117 666h155l165 -507l89 507h120l-117 -666h-156zM192 -183l24 132h117l-25 -140l-83 -104l-45 32l55 80h-43z" />
    <glyph glyph-name="ncommaaccent" unicode="&#x146;" horiz-adv-x="540" 
d="M310 0l61 347q1 5 1 13q0 21 -25 21q-23 0 -65.5 -17.5t-79.5 -39.5l-57 -324h-120l84 477l104 18l-2 -59q112 61 197 61q89 0 89 -97q0 -21 -5 -48l-62 -352h-120zM141 -183l24 132h117l-25 -140l-83 -104l-45 32l55 80h-43z" />
    <glyph glyph-name="Ncaron" unicode="&#x147;" horiz-adv-x="679" 
d="M403 0l-165 494l-87 -494h-121l117 666h155l165 -507l89 507h120l-117 -666h-156zM346 851q41 -20 85 -52q38 29 88 52l34 -59q-75 -43 -137 -86q-39 40 -109 91z" />
    <glyph glyph-name="ncaron" unicode="&#x148;" horiz-adv-x="540" 
d="M310 0l61 347q1 5 1 13q0 21 -25 21q-23 0 -65.5 -17.5t-79.5 -39.5l-57 -324h-120l84 477l104 18l-2 -59q112 61 197 61q89 0 89 -97q0 -21 -5 -48l-62 -352h-120zM244 693q48 -26 93 -65q47 34 104 65l35 -58q-81 -49 -155 -103q-47 54 -115 108z" />
    <glyph glyph-name="Eng" unicode="&#x14a;" horiz-adv-x="679" 
d="M403 0l-165 494l-87 -494h-121l117 666h155l165 -507l89 507h120l-117 -666l-4 -23q-9 -52 -35.5 -86t-121.5 -98l-59 83l26.5 21t21.5 17l15.5 13t12.5 12t8 10t7 11.5t3.5 12.5l3.5 17l1 10h-35z" />
    <glyph glyph-name="eng" unicode="&#x14b;" horiz-adv-x="540" 
d="M308 -10l63 357q1 5 1 13q0 21 -25 21q-23 0 -65.5 -17.5t-79.5 -39.5l-57 -324h-120l84 477l104 18l-2 -59q112 61 197 61q89 0 89 -97q0 -21 -5 -48l-66 -375q-9 -52 -35.5 -86t-121.5 -98l-59 83l22 17.5t18.5 14.5t14 11.5l12 10.5t9 8.5t7.5 9l5 8.5t4.5 10l3 10.5
t2.5 13.5z" />
    <glyph glyph-name="Omacron" unicode="&#x14c;" horiz-adv-x="622" 
d="M264 -10q-110 0 -164 44.5t-54 120.5q0 24 4 44l49 277q18 102 82.5 151t197.5 49q109 0 166 -49t57 -127q0 -17 -3 -35l-48 -272q-19 -106 -83 -154.5t-204 -48.5zM429 203l46 262q2 16 2 23q0 79 -111 79q-127 0 -145 -102l-46 -261q-3 -18 -3 -33q0 -37 25 -54.5
t87 -17.5q126 0 145 104zM268 725l14 80h246l-14 -80h-246z" />
    <glyph glyph-name="omacron" unicode="&#x14d;" horiz-adv-x="521" 
d="M214 -10q-90 0 -135.5 45t-45.5 114q0 19 3 39l21 117q18 96 73 144t171 48q90 0 137 -44t47 -112q0 -17 -3 -35l-23 -130q-16 -93 -70 -139.5t-175 -46.5zM339 176l24 136q2 12 2 22q0 62 -80 62q-92 0 -108 -89l-23 -131q-2 -12 -2 -22q0 -63 80 -63q92 0 107 85z
M186 548l14 80h246l-14 -80h-246z" />
    <glyph glyph-name="Obreve" unicode="&#x14e;" horiz-adv-x="622" 
d="M264 -10q-110 0 -164 44.5t-54 120.5q0 24 4 44l49 277q18 102 82.5 151t197.5 49q109 0 166 -49t57 -127q0 -17 -3 -35l-48 -272q-19 -106 -83 -154.5t-204 -48.5zM429 203l46 262q2 16 2 23q0 79 -111 79q-127 0 -145 -102l-46 -261q-3 -18 -3 -33q0 -37 25 -54.5
t87 -17.5q126 0 145 104zM390 709q-52 0 -86.5 29.5t-37.5 71.5l62 25q13 -57 71 -57q29 0 46.5 14.5t31.5 45.5l58 -30q-31 -99 -145 -99z" />
    <glyph glyph-name="obreve" unicode="&#x14f;" horiz-adv-x="521" 
d="M214 -10q-90 0 -135.5 45t-45.5 114q0 19 3 39l21 117q18 96 73 144t171 48q90 0 137 -44t47 -112q0 -17 -3 -35l-23 -130q-16 -93 -70 -139.5t-175 -46.5zM339 176l24 136q2 12 2 22q0 62 -80 62q-92 0 -108 -89l-23 -131q-2 -12 -2 -22q0 -63 80 -63q92 0 107 85z
M308 534q-56 0 -90.5 32.5t-38.5 77.5l63 25q14 -65 75 -65t93 70l58 -31q-16 -47 -55 -78t-105 -31z" />
    <glyph glyph-name="Ohungarumlaut" unicode="&#x150;" horiz-adv-x="622" 
d="M264 -10q-110 0 -164 44.5t-54 120.5q0 24 4 44l49 277q18 102 82.5 151t197.5 49q109 0 166 -49t57 -127q0 -17 -3 -35l-48 -272q-19 -106 -83 -154.5t-204 -48.5zM429 203l46 262q2 16 2 23q0 79 -111 79q-127 0 -145 -102l-46 -261q-3 -18 -3 -33q0 -37 25 -54.5
t87 -17.5q126 0 145 104zM307 710l-47 58q52 41 104 92l52 -64q-42 -39 -109 -86zM485 710l-47 58q52 41 104 92l52 -64q-42 -39 -109 -86z" />
    <glyph glyph-name="ohungarumlaut" unicode="&#x151;" horiz-adv-x="521" 
d="M214 -10q-90 0 -135.5 45t-45.5 114q0 19 3 39l21 117q18 96 73 144t171 48q90 0 137 -44t47 -112q0 -17 -3 -35l-23 -130q-16 -93 -70 -139.5t-175 -46.5zM339 176l24 136q2 12 2 22q0 62 -80 62q-92 0 -108 -89l-23 -131q-2 -12 -2 -22q0 -63 80 -63q92 0 107 85z
M223 532l-48 56q72 61 121 114l53 -64q-63 -61 -126 -106zM399 532l-48 56q72 61 121 114l53 -64q-63 -61 -126 -106z" />
    <glyph glyph-name="OE" unicode="&#x152;" horiz-adv-x="883" 
d="M266 0q-110 0 -164 44.5t-54 120.5q0 24 4 44l45 257q18 102 82.5 151t197.5 49h528l-20 -109h-284l-28 -159h263l-19 -109h-263l-32 -180h284l-18 -109h-522zM286 109h112l79 448h-113q-127 0 -145 -102l-42 -241q-3 -18 -3 -33q0 -37 25 -54.5t87 -17.5z" />
    <glyph glyph-name="oe" unicode="&#x153;" horiz-adv-x="759" 
d="M457 165l-4 -23q-5 -26 1.5 -39t36.5 -13q77 0 187 56l26 -92q-105 -64 -212 -64q-82 0 -127 52q-64 -52 -151 -52q-90 0 -135.5 45t-45.5 114q0 19 3 39l21 117q17 95 70.5 143.5t159.5 48.5q92 0 143 -57q64 57 155 57q70 0 112 -34t42 -93q0 -65 -44 -106t-144 -72
q-56 -17 -94 -27zM339 176l24 136q2 12 2 22q0 62 -80 62q-92 0 -108 -89l-23 -131q-2 -12 -2 -22q0 -63 80 -63q92 0 107 85zM549 295q40 13 57.5 29.5t17.5 40.5q0 38 -49 38q-76 0 -90 -80l-9 -50z" />
    <glyph glyph-name="Racute" unicode="&#x154;" horiz-adv-x="648" 
d="M437 0l-120 221h-125l-38 -221h-124l117 666h251q199 0 199 -143q0 -18 -4 -41l-16 -90q-12 -66 -39.5 -101t-89.5 -54l127 -237h-138zM456 409l11 62q3 16 3 28q0 32 -19.5 45t-62.5 13h-137l-39 -229h139q54 0 75.5 18t29.5 63zM341 710l-37 65q79 46 133 85l41 -72
q-66 -46 -137 -78z" />
    <glyph glyph-name="racute" unicode="&#x155;" horiz-adv-x="325" 
d="M334 496l9 -109q-55 -30 -145 -87l-53 -300h-120l84 477l105 18l-5 -71q63 46 125 72zM173 543l-37 65q73 38 158 97l40 -72q-66 -45 -161 -90z" />
    <glyph glyph-name="Rcommaaccent" unicode="&#x156;" horiz-adv-x="648" 
d="M437 0l-120 221h-125l-38 -221h-124l117 666h251q199 0 199 -143q0 -18 -4 -41l-16 -90q-12 -66 -39.5 -101t-89.5 -54l127 -237h-138zM456 409l11 62q3 16 3 28q0 32 -19.5 45t-62.5 13h-137l-39 -229h139q54 0 75.5 18t29.5 63zM202 -183l24 132h117l-25 -140l-83 -104
l-45 32l55 80h-43z" />
    <glyph glyph-name="rcommaaccent" unicode="&#x157;" horiz-adv-x="325" 
d="M334 496l9 -109q-55 -30 -145 -87l-53 -300h-120l84 477l105 18l-5 -71q63 46 125 72zM-6 -183l24 132h117l-25 -140l-83 -104l-45 32l55 80h-43z" />
    <glyph glyph-name="Rcaron" unicode="&#x158;" horiz-adv-x="648" 
d="M437 0l-120 221h-125l-38 -221h-124l117 666h251q199 0 199 -143q0 -18 -4 -41l-16 -90q-12 -66 -39.5 -101t-89.5 -54l127 -237h-138zM456 409l11 62q3 16 3 28q0 32 -19.5 45t-62.5 13h-137l-39 -229h139q54 0 75.5 18t29.5 63zM302 851q41 -20 85 -52q38 29 88 52
l34 -59q-75 -43 -137 -86q-39 40 -109 91z" />
    <glyph glyph-name="rcaron" unicode="&#x159;" horiz-adv-x="325" 
d="M334 496l9 -109q-55 -30 -145 -87l-53 -300h-120l84 477l105 18l-5 -71q63 46 125 72zM148 693q48 -26 93 -65q47 34 104 65l35 -58q-81 -49 -155 -103q-47 54 -115 108z" />
    <glyph glyph-name="Sacute" unicode="&#x15a;" horiz-adv-x="531" 
d="M217 -10q-46 0 -103 11t-96 30l27 96q108 -32 181 -32q68 0 90.5 17t31.5 69q5 28 5 42q0 25 -20 36.5t-90 29.5q-84 21 -117 55.5t-33 90.5q0 24 7 66q19 106 67 140.5t178 34.5q100 0 186 -26l-21 -103q-97 23 -175 23q-65 0 -86 -14t-29 -63q-5 -28 -5 -42
q0 -24 20.5 -36.5t85.5 -29.5q89 -23 123 -53.5t34 -85.5q0 -21 -7 -65q-13 -73 -34.5 -111t-73.5 -59t-146 -21zM305 710l-37 65q79 46 133 85l41 -72q-66 -46 -137 -78z" />
    <glyph glyph-name="sacute" unicode="&#x15b;" horiz-adv-x="414" 
d="M167 -10q-82 0 -153 31l23 91q73 -25 136 -25q39 0 52 8.5t18 34.5q4 24 -8 37.5t-64 39.5q-74 37 -92.5 70t-8.5 92q13 74 51 101t133 27q73 0 145 -24l-20 -92q-64 19 -126 19q-38 0 -51 -6t-17 -31q-4 -24 5.5 -35t50.5 -34q86 -47 107.5 -74t11.5 -83
q-15 -84 -54 -115.5t-139 -31.5zM217 543l-37 65q73 38 158 97l40 -72q-66 -45 -161 -90z" />
    <glyph glyph-name="Scircumflex" unicode="&#x15c;" horiz-adv-x="531" 
d="M217 -10q-46 0 -103 11t-96 30l27 96q108 -32 181 -32q68 0 90.5 17t31.5 69q5 28 5 42q0 25 -20 36.5t-90 29.5q-84 21 -117 55.5t-33 90.5q0 24 7 66q19 106 67 140.5t178 34.5q100 0 186 -26l-21 -103q-97 23 -175 23q-65 0 -86 -14t-29 -63q-5 -28 -5 -42
q0 -24 20.5 -36.5t85.5 -29.5q89 -23 123 -53.5t34 -85.5q0 -21 -7 -65q-13 -73 -34.5 -111t-73.5 -59t-146 -21zM440 711q-41 20 -85 52q-44 -31 -88 -52l-34 59q75 43 137 86q39 -40 109 -91z" />
    <glyph glyph-name="scircumflex" unicode="&#x15d;" horiz-adv-x="414" 
d="M167 -10q-82 0 -153 31l23 91q73 -25 136 -25q39 0 52 8.5t18 34.5q4 24 -8 37.5t-64 39.5q-74 37 -92.5 70t-8.5 92q13 74 51 101t133 27q73 0 145 -24l-20 -92q-64 19 -126 19q-38 0 -51 -6t-17 -31q-4 -24 5.5 -35t50.5 -34q86 -47 107.5 -74t11.5 -83
q-15 -84 -54 -115.5t-139 -31.5zM373 536q-48 26 -92 65q-50 -37 -104 -65l-35 58q85 50 154 103q53 -59 116 -108z" />
    <glyph glyph-name="Scedilla" unicode="&#x15e;" horiz-adv-x="531" 
d="M190 -200q-34 0 -72 15l15 48q32 -10 58 -10q57 0 57 34q0 20 -29 20q-27 0 -49 -2l-14 16l27 71q-100 7 -165 39l27 96q108 -32 181 -32q68 0 90.5 17t31.5 69q5 28 5 42q0 25 -20 36.5t-90 29.5q-84 21 -117 55.5t-33 90.5q0 24 7 66q19 106 67 140.5t178 34.5
q100 0 186 -26l-21 -103q-97 23 -175 23q-65 0 -86 -14t-29 -63q-5 -28 -5 -42q0 -24 20.5 -36.5t85.5 -29.5q89 -23 123 -53.5t34 -85.5q0 -21 -7 -65q-9 -53 -22 -85t-38.5 -57t-67 -36.5t-106.5 -12.5l-15 -45q18 3 32 3q28 0 43 -16.5t15 -39.5q0 -92 -122 -92z" />
    <glyph glyph-name="scedilla" unicode="&#x15f;" horiz-adv-x="414" 
d="M136 -200q-35 0 -72 15l15 48q32 -10 58 -10q57 0 57 34q0 20 -29 20q-27 0 -49 -2l-14 16l27 72q-68 7 -115 28l23 91q73 -25 136 -25q39 0 52 8.5t18 34.5q4 24 -8 37.5t-64 39.5q-74 37 -92.5 70t-8.5 92q13 74 51 101t133 27q73 0 145 -24l-20 -92q-64 19 -126 19
q-38 0 -51 -6t-17 -31q-4 -24 5.5 -35t50.5 -34q86 -47 107.5 -74t11.5 -83q-14 -81 -50 -113t-127 -34l-15 -45q18 3 32 3q28 0 43 -16.5t15 -39.5q0 -92 -122 -92z" />
    <glyph glyph-name="Scaron" unicode="&#x160;" horiz-adv-x="531" 
d="M217 -10q-46 0 -103 11t-96 30l27 96q108 -32 181 -32q68 0 90.5 17t31.5 69q5 28 5 42q0 25 -20 36.5t-90 29.5q-84 21 -117 55.5t-33 90.5q0 24 7 66q19 106 67 140.5t178 34.5q100 0 186 -26l-21 -103q-97 23 -175 23q-65 0 -86 -14t-29 -63q-5 -28 -5 -42
q0 -24 20.5 -36.5t85.5 -29.5q89 -23 123 -53.5t34 -85.5q0 -21 -7 -65q-13 -73 -34.5 -111t-73.5 -59t-146 -21zM277 851q41 -20 85 -52q38 29 88 52l34 -59q-75 -43 -137 -86q-39 40 -109 91z" />
    <glyph glyph-name="scaron" unicode="&#x161;" horiz-adv-x="414" 
d="M167 -10q-82 0 -153 31l23 91q73 -25 136 -25q39 0 52 8.5t18 34.5q4 24 -8 37.5t-64 39.5q-74 37 -92.5 70t-8.5 92q13 74 51 101t133 27q73 0 145 -24l-20 -92q-64 19 -126 19q-38 0 -51 -6t-17 -31q-4 -24 5.5 -35t50.5 -34q86 -47 107.5 -74t11.5 -83
q-15 -84 -54 -115.5t-139 -31.5zM189 693q48 -26 93 -65q47 34 104 65l35 -58q-81 -49 -155 -103q-47 54 -115 108z" />
    <glyph glyph-name="Tcommaaccent" unicode="&#x162;" horiz-adv-x="544" 
d="M387 557l-98 -557h-124l98 557h-187l19 109h498l-20 -109h-186zM136 -183l24 132h117l-25 -140l-83 -104l-45 32l55 80h-43z" />
    <glyph glyph-name="Tcommaaccent" unicode="&#x21a;" horiz-adv-x="544" 
d="M387 557l-98 -557h-124l98 557h-187l19 109h498l-20 -109h-186zM136 -183l24 132h117l-25 -140l-83 -104l-45 32l55 80h-43z" />
    <glyph glyph-name="tcommaaccent" unicode="&#x163;" horiz-adv-x="350" 
d="M157 -10q-56 0 -81.5 32t-16.5 86l50 283h-78l18 96h77l22 126l123 17l-25 -143h124l-19 -96h-122l-49 -278q-4 -25 20 -25q28 0 84 22l26 -82q-71 -38 -153 -38zM75 -183l24 132h117l-25 -140l-83 -104l-45 32l55 80h-43z" />
    <glyph glyph-name="tcommaaccent" unicode="&#x21b;" horiz-adv-x="350" 
d="M157 -10q-56 0 -81.5 32t-16.5 86l50 283h-78l18 96h77l22 126l123 17l-25 -143h124l-19 -96h-122l-49 -278q-4 -25 20 -25q28 0 84 22l26 -82q-71 -38 -153 -38zM75 -183l24 132h117l-25 -140l-83 -104l-45 32l55 80h-43z" />
    <glyph glyph-name="Tcaron" unicode="&#x164;" horiz-adv-x="544" 
d="M387 557l-98 -557h-124l98 557h-187l19 109h498l-20 -109h-186zM271 851q41 -20 85 -52q38 29 88 52l34 -59q-75 -43 -137 -86q-39 40 -109 91z" />
    <glyph glyph-name="tcaron" unicode="&#x165;" horiz-adv-x="360" 
d="M157 -10q-56 0 -81.5 32t-16.5 86l50 283h-78l18 96h77l22 126l123 17l-25 -143h124l-19 -96h-122l-49 -278q-4 -25 20 -25q28 0 84 22l26 -82q-71 -38 -153 -38zM357 600l16 96h97l-17 -103l-60 -74l-37 29l37 52h-36z" />
    <glyph glyph-name="Tbar" unicode="&#x166;" horiz-adv-x="544" 
d="M80 290l12 69h136l35 198h-187l19 109h498l-20 -109h-186l-35 -198h138l-13 -69h-137l-51 -290h-124l51 290h-136z" />
    <glyph glyph-name="tbar" unicode="&#x167;" horiz-adv-x="391" 
d="M31 218l11 67h74l19 106h-78l18 96h77l22 126l123 17l-25 -143h124l-19 -96h-122l-19 -106h109l-11 -67h-110l-18 -105q-4 -25 20 -25q28 0 84 22l26 -82q-71 -38 -153 -38q-56 0 -81.5 32t-16.5 86l19 110h-73z" />
    <glyph glyph-name="Utilde" unicode="&#x168;" horiz-adv-x="631" 
d="M274 -10q-108 0 -163 46.5t-55 120.5q0 18 3 36l83 473h124l-81 -462q-3 -18 -3 -33q0 -37 23.5 -54.5t82.5 -17.5q69 0 100 27t40 79l81 461h124l-83 -474q-17 -97 -77 -149.5t-199 -52.5zM458 719q-28 0 -60 21t-48 21q-23 0 -58 -42l-44 41q41 77 108 77
q25 0 60.5 -21.5t50.5 -21.5q28 0 47 37l51 -28q-19 -41 -43 -62.5t-64 -21.5z" />
    <glyph glyph-name="utilde" unicode="&#x169;" horiz-adv-x="540" 
d="M227 495l-62 -355q-1 -7 -1 -13q0 -21 25 -21q23 0 65.5 17.5t79.5 39.5l55 315l123 17l-87 -495h-102l2 51q-112 -61 -197 -61q-89 0 -89 97q0 21 5 48l60 343zM391 549q-29 0 -61 21t-48 21q-28 0 -58 -42l-44 41q43 77 108 77q25 0 60.5 -21.5t50.5 -21.5q28 0 47 37
l51 -28q-19 -41 -42.5 -62.5t-63.5 -21.5z" />
    <glyph glyph-name="Umacron" unicode="&#x16a;" horiz-adv-x="631" 
d="M274 -10q-108 0 -163 46.5t-55 120.5q0 18 3 36l83 473h124l-81 -462q-3 -18 -3 -33q0 -37 23.5 -54.5t82.5 -17.5q69 0 100 27t40 79l81 461h124l-83 -474q-17 -97 -77 -149.5t-199 -52.5zM275 725l14 80h246l-14 -80h-246z" />
    <glyph glyph-name="umacron" unicode="&#x16b;" horiz-adv-x="540" 
d="M227 495l-62 -355q-1 -7 -1 -13q0 -21 25 -21q23 0 65.5 17.5t79.5 39.5l55 315l123 17l-87 -495h-102l2 51q-112 -61 -197 -61q-89 0 -89 97q0 21 5 48l60 343zM203 548l14 80h246l-14 -80h-246z" />
    <glyph glyph-name="Ubreve" unicode="&#x16c;" horiz-adv-x="631" 
d="M274 -10q-108 0 -163 46.5t-55 120.5q0 18 3 36l83 473h124l-81 -462q-3 -18 -3 -33q0 -37 23.5 -54.5t82.5 -17.5q69 0 100 27t40 79l81 461h124l-83 -474q-17 -97 -77 -149.5t-199 -52.5zM400 709q-52 0 -86.5 29.5t-37.5 71.5l62 25q13 -57 71 -57q29 0 46.5 14.5
t31.5 45.5l58 -30q-31 -99 -145 -99z" />
    <glyph glyph-name="ubreve" unicode="&#x16d;" horiz-adv-x="540" 
d="M227 495l-62 -355q-1 -7 -1 -13q0 -21 25 -21q23 0 65.5 17.5t79.5 39.5l55 315l123 17l-87 -495h-102l2 51q-112 -61 -197 -61q-89 0 -89 97q0 21 5 48l60 343zM329 534q-56 0 -90.5 32.5t-38.5 77.5l63 25q14 -65 75 -65t93 70l58 -31q-16 -47 -55 -78t-105 -31z" />
    <glyph glyph-name="Uring" unicode="&#x16e;" horiz-adv-x="631" 
d="M274 -10q-108 0 -163 46.5t-55 120.5q0 18 3 36l83 473h124l-81 -462q-3 -18 -3 -33q0 -37 23.5 -54.5t82.5 -17.5q69 0 100 27t40 79l81 461h124l-83 -474q-17 -97 -77 -149.5t-199 -52.5zM393 709q-31 0 -50.5 18t-19.5 46q0 44 25 68.5t71 24.5q33 0 52.5 -17.5
t19.5 -43.5q0 -42 -24 -69t-74 -27zM413 823q-18 0 -29 -12t-11 -33q0 -26 27 -26q40 0 40 45q0 26 -27 26z" />
    <glyph glyph-name="uring" unicode="&#x16f;" horiz-adv-x="540" 
d="M227 495l-62 -355q-1 -7 -1 -13q0 -21 25 -21q23 0 65.5 17.5t79.5 39.5l55 315l123 17l-87 -495h-102l2 51q-112 -61 -197 -61q-89 0 -89 97q0 21 5 48l60 343zM322 535q-32 0 -53 20t-21 50q0 46 28 73.5t76 27.5q34 0 54 -19.5t20 -47.5q0 -45 -26.5 -74.5
t-77.5 -29.5zM345 662q-20 0 -33 -14.5t-13 -36.5q0 -31 30 -31q21 0 33.5 14.5t12.5 36.5q0 31 -30 31z" />
    <glyph glyph-name="Uhungarumlaut" unicode="&#x170;" horiz-adv-x="631" 
d="M274 -10q-108 0 -163 46.5t-55 120.5q0 18 3 36l83 473h124l-81 -462q-3 -18 -3 -33q0 -37 23.5 -54.5t82.5 -17.5q69 0 100 27t40 79l81 461h124l-83 -474q-17 -97 -77 -149.5t-199 -52.5zM301 710l-47 58q52 41 104 92l52 -64q-42 -39 -109 -86zM479 710l-47 58
q52 41 104 92l52 -64q-42 -39 -109 -86z" />
    <glyph glyph-name="uhungarumlaut" unicode="&#x171;" horiz-adv-x="540" 
d="M227 495l-62 -355q-1 -7 -1 -13q0 -21 25 -21q23 0 65.5 17.5t79.5 39.5l55 315l123 17l-87 -495h-102l2 51q-112 -61 -197 -61q-89 0 -89 97q0 21 5 48l60 343zM224 532l-48 56q72 61 121 114l53 -64q-63 -61 -126 -106zM400 532l-48 56q72 61 121 114l53 -64
q-63 -61 -126 -106z" />
    <glyph glyph-name="Uogonek" unicode="&#x172;" horiz-adv-x="631" 
d="M338 -135l3 -59q-32 -13 -71 -13q-86 0 -86 63q0 43 32.5 74.5t93.5 60.5q-6 0 -18 -0.5t-18 -0.5q-108 0 -163 46.5t-55 120.5q0 18 3 36l83 473h124l-81 -462q-3 -18 -3 -33q0 -37 23.5 -54.5t82.5 -17.5q69 0 100 27t40 79l81 461h124l-83 -474q-13 -72 -47.5 -119.5
t-107.5 -68.5q-121 -57 -121 -120q0 -23 30 -23q19 0 34 4z" />
    <glyph glyph-name="uogonek" unicode="&#x173;" horiz-adv-x="540" 
d="M381 -135l3 -59q-32 -13 -71 -13q-86 0 -86 63q0 83 153 144h-57l2 51q-112 -61 -197 -61q-89 0 -89 97q0 21 5 48l60 343l123 17l-62 -355q-1 -7 -1 -13q0 -21 25 -21q23 0 65.5 17.5t79.5 39.5l55 315l123 17l-87 -495q-61 -41 -84.5 -66t-23.5 -50q0 -23 30 -23
q19 0 34 4z" />
    <glyph glyph-name="Wcircumflex" unicode="&#x174;" horiz-adv-x="940" 
d="M719 0h-157l-38 533l-221 -533h-157l-56 666h117l41 -526l221 526h152l36 -531l215 531h125zM647 711q-41 20 -85 52q-44 -31 -88 -52l-34 59q75 43 137 86q39 -40 109 -91z" />
    <glyph glyph-name="wcircumflex" unicode="&#x175;" horiz-adv-x="701" 
d="M310 473l107 17l74 -374l67 238q9 31 9 62q0 28 -8 57l113 22q10 -40 10 -77q0 -45 -26 -120l-102 -298h-146l-50 243l-128 -243h-139q-1 169 -7.5 268t-28.5 205l114 18q32 -152 20 -365l138 267zM482 536q-48 26 -92 65q-50 -37 -104 -65l-35 58q85 50 154 103
q53 -59 116 -108z" />
    <glyph glyph-name="Ycircumflex" unicode="&#x176;" horiz-adv-x="553" 
d="M329 193l-34 -193h-124l35 199l-130 467h123l89 -337l200 337h140zM437 711q-41 20 -85 52q-44 -31 -88 -52l-34 59q75 43 137 86q39 -40 109 -91z" />
    <glyph glyph-name="ycircumflex" unicode="&#x177;" horiz-adv-x="476" 
d="M449 347l-161 -347q-45 -89 -93.5 -133t-152.5 -80l-33 93q61 21 93 47t62 73h-41l-70 475l119 17l46 -386l115 259q14 33 14 67q0 24 -7 46l117 17q9 -28 9 -61q0 -49 -17 -87zM365 536q-48 26 -92 65q-50 -37 -104 -65l-35 58q85 50 154 103q53 -59 116 -108z" />
    <glyph glyph-name="Ydieresis" unicode="&#x178;" horiz-adv-x="553" 
d="M329 193l-34 -193h-124l35 199l-130 467h123l89 -337l200 337h140zM410 729l17 97h101l-17 -97h-101zM201 729l17 97h101l-17 -97h-101z" />
    <glyph glyph-name="Zacute" unicode="&#x179;" horiz-adv-x="571" 
d="M47 0l-2 102l374 458h-309l19 106h435l-1 -103l-376 -459h304l-19 -104h-425zM319 710l-37 65q79 46 133 85l41 -72q-66 -46 -137 -78z" />
    <glyph glyph-name="zacute" unicode="&#x17a;" horiz-adv-x="461" 
d="M41 0l-4 93l254 299h-207l14 95h333l-1 -92l-255 -299h210l-16 -96h-328zM218 543l-37 65q73 38 158 97l40 -72q-66 -45 -161 -90z" />
    <glyph glyph-name="Zdotaccent" unicode="&#x17b;" horiz-adv-x="571" 
d="M47 0l-2 102l374 458h-309l19 106h435l-1 -103l-376 -459h304l-19 -104h-425zM303 720l24 137l123 17l-24 -136z" />
    <glyph glyph-name="zdotaccent" unicode="&#x17c;" horiz-adv-x="461" 
d="M41 0l-4 93l254 299h-207l14 95h333l-1 -92l-255 -299h210l-16 -96h-328zM211 549l24 137l123 17l-24 -136z" />
    <glyph glyph-name="Zcaron" unicode="&#x17d;" horiz-adv-x="571" 
d="M47 0l-2 102l374 458h-309l19 106h435l-1 -103l-376 -459h304l-19 -104h-425zM276 851q41 -20 85 -52q38 29 88 52l34 -59q-75 -43 -137 -86q-39 40 -109 91z" />
    <glyph glyph-name="zcaron" unicode="&#x17e;" horiz-adv-x="461" 
d="M41 0l-4 93l254 299h-207l14 95h333l-1 -92l-255 -299h210l-16 -96h-328zM190 693q48 -26 93 -65q47 34 104 65l35 -58q-81 -49 -155 -103q-47 54 -115 108z" />
    <glyph glyph-name="florin" unicode="&#x192;" horiz-adv-x="484" 
d="M503 593q-41 13 -79 13q-32 0 -45 -11t-21 -41l-34 -128h124l-26 -98h-124l-103 -390q-20 -74 -53 -104.5t-107 -30.5q-53 0 -91 18l23 92q30 -10 56 -10q28 0 38.5 10t17.5 39l100 376h-82l26 98h82l36 138q20 77 55.5 109.5t114.5 32.5q62 0 115 -22z" />
    <glyph glyph-name="Aringacute" unicode="&#x1fa;" horiz-adv-x="647" 
d="M451 0l-18 142h-247l-67 -142h-134l327 666h168l100 -666h-129zM384 567l-150 -321h186zM404 695q-31 0 -50.5 18t-19.5 46q0 44 25 68.5t71 24.5q33 0 52.5 -17.5t19.5 -43.5q0 -42 -24 -69t-74 -27zM424 809q-18 0 -29 -12t-11 -33q0 -26 27 -26q40 0 40 45
q0 26 -27 26zM440 871l-33 58q68 39 118 74l37 -65q-55 -37 -122 -67z" />
    <glyph glyph-name="aringacute" unicode="&#x1fb;" horiz-adv-x="516" 
d="M488 466l-82 -466h-101l-1 54q-71 -64 -159 -64q-113 0 -113 111q0 21 5 51l25 142q10 56 21.5 88.5t37 61.5t70 41t113.5 12q35 0 90.5 -9.5t93.5 -21.5zM315 164l40 225q-38 7 -69 7q-54 0 -74 -21.5t-29 -74.5l-30 -171q-1 -6 -1 -12q0 -26 33 -26q27 0 63.5 21.5
t66.5 51.5zM316 529q-31 0 -50.5 18t-19.5 46q0 44 25 68.5t71 24.5q33 0 52.5 -17.5t19.5 -43.5q0 -42 -24 -69t-74 -27zM336 643q-18 0 -29 -12t-11 -33q0 -26 27 -26q40 0 40 45q0 26 -27 26zM348 705l-33 58q68 39 118 74l37 -65q-55 -37 -122 -67z" />
    <glyph glyph-name="AEacute" unicode="&#x1fc;" horiz-adv-x="860" 
d="M451 0l-18 142h-247l-67 -142h-134l327 666h570l-20 -109h-366l24 -159h293l-19 -109h-258l27 -180h220l-18 -109h-314zM384 567l-150 -321h186zM429 710l-37 65q79 46 133 85l41 -72q-66 -46 -137 -78z" />
    <glyph glyph-name="aeacute" unicode="&#x1fd;" horiz-adv-x="703" 
d="M407 181l-6 -34q-2 -12 -2 -18q0 -21 12.5 -30.5t42.5 -9.5q74 0 170 49l24 -87q-96 -61 -208 -61q-93 0 -133 52q-67 -52 -160 -52q-62 0 -96 33.5t-34 86.5q0 159 171 159h115l10 54q3 17 3 28q0 26 -18.5 36.5t-66.5 10.5q-63 0 -140 -15l-12 89q89 25 173 25
q103 0 135 -60q52 60 149 60q74 0 114.5 -34t40.5 -93q0 -166 -284 -189zM431 316l-8 -44q76 8 114 28.5t38 60.5q0 42 -48 42q-79 0 -96 -87zM288 181h-81q-40 2 -58 -11.5t-18 -50.5q0 -38 46 -38q52 0 105 30q-1 31 6 70zM392 543l-37 65q73 38 158 97l40 -72
q-66 -45 -161 -90z" />
    <glyph glyph-name="Oslashacute" unicode="&#x1fe;" horiz-adv-x="622" 
d="M14 -27l64 83q-32 39 -32 99q0 24 4 44l49 277q18 102 82.5 151t197.5 49q90 0 148 -37l67 87l43 -33l-69 -90q34 -43 34 -103q0 -17 -3 -35l-48 -272q-19 -106 -83 -154.5t-204 -48.5q-91 0 -144 31l-62 -81zM175 204q-3 -15 -3 -26l282 366q-26 23 -88 23
q-127 0 -145 -102zM429 203l46 262q2 14 2 20l-282 -367q25 -19 89 -19q126 0 145 104zM351 710l-37 65q79 46 133 85l41 -72q-66 -46 -137 -78z" />
    <glyph glyph-name="oslashacute" unicode="&#x1ff;" horiz-adv-x="521" 
d="M6 -21l59 70q-32 39 -32 100q0 19 3 39l21 117q18 96 73 144t171 48q73 0 119 -30l60 70l34 -29l-61 -71q32 -39 32 -96q0 -17 -3 -35l-23 -130q-16 -93 -70 -139.5t-175 -46.5q-71 0 -117 30l-58 -69zM152 154v-3l194 228q-20 17 -61 17q-92 0 -108 -89l-23 -131
q-2 -12 -2 -22zM339 176l24 136q2 12 2 21l-194 -226q21 -16 61 -16q92 0 107 85zM268 543l-37 65q73 38 158 97l40 -72q-66 -45 -161 -90z" />
    <glyph glyph-name="Scommaaccent" unicode="&#x218;" horiz-adv-x="531" 
d="M217 -10q-46 0 -103 11t-96 30l27 96q108 -32 181 -32q68 0 90.5 17t31.5 69q5 28 5 42q0 25 -20 36.5t-90 29.5q-84 21 -117 55.5t-33 90.5q0 24 7 66q19 106 67 140.5t178 34.5q100 0 186 -26l-21 -103q-97 23 -175 23q-65 0 -86 -14t-29 -63q-5 -28 -5 -42
q0 -24 20.5 -36.5t85.5 -29.5q89 -23 123 -53.5t34 -85.5q0 -21 -7 -65q-13 -73 -34.5 -111t-73.5 -59t-146 -21zM133 -183l24 132h117l-25 -140l-83 -104l-45 32l55 80h-43z" />
    <glyph glyph-name="scommaaccent" unicode="&#x219;" horiz-adv-x="414" 
d="M167 -10q-82 0 -153 31l23 91q73 -25 136 -25q39 0 52 8.5t18 34.5q4 24 -8 37.5t-64 39.5q-74 37 -92.5 70t-8.5 92q13 74 51 101t133 27q73 0 145 -24l-20 -92q-64 19 -126 19q-38 0 -51 -6t-17 -31q-4 -24 5.5 -35t50.5 -34q86 -47 107.5 -74t11.5 -83
q-15 -84 -54 -115.5t-139 -31.5zM77 -183l24 132h117l-25 -140l-83 -104l-45 32l55 80h-43z" />
    <glyph glyph-name="circumflex" unicode="&#x2c6;" horiz-adv-x="380" 
d="M346 536q-48 26 -92 65q-50 -37 -104 -65l-35 58q85 50 154 103q53 -59 116 -108z" />
    <glyph glyph-name="caron" unicode="&#x2c7;" horiz-adv-x="375" 
d="M153 693q48 -26 93 -65q47 34 104 65l35 -58q-81 -49 -155 -103q-47 54 -115 108z" />
    <glyph glyph-name="breve" unicode="&#x2d8;" horiz-adv-x="399" 
d="M244 534q-56 0 -90.5 32.5t-38.5 77.5l63 25q14 -65 75 -65t93 70l58 -31q-16 -47 -55 -78t-105 -31z" />
    <glyph glyph-name="dotaccent" unicode="&#x2d9;" horiz-adv-x="257" 
d="M115 549l24 137l123 17l-24 -136z" />
    <glyph glyph-name="ring" unicode="&#x2da;" horiz-adv-x="293" 
d="M189 535q-32 0 -53 20t-21 50q0 46 28 73.5t76 27.5q34 0 54 -19.5t20 -47.5q0 -45 -26.5 -74.5t-77.5 -29.5zM212 662q-20 0 -33 -14.5t-13 -36.5q0 -31 30 -31q21 0 33.5 14.5t12.5 36.5q0 31 -30 31z" />
    <glyph glyph-name="ogonek" unicode="&#x2db;" horiz-adv-x="323" 
d="M154 -135l3 -59q-32 -13 -71 -13q-86 0 -86 63q0 46 38 79.5t108 64.5h52q-61 -41 -84.5 -66t-23.5 -50q0 -23 30 -23q19 0 34 4z" />
    <glyph glyph-name="tilde" unicode="&#x2dc;" horiz-adv-x="427" 
d="M326 549q-29 0 -61 21t-48 21q-28 0 -58 -42l-44 41q43 77 108 77q25 0 60.5 -21.5t50.5 -21.5q28 0 47 37l51 -28q-19 -41 -42.5 -62.5t-63.5 -21.5z" />
    <glyph glyph-name="hungarumlaut" unicode="&#x2dd;" horiz-adv-x="455" 
d="M168 532l-48 56q72 61 121 114l53 -64q-63 -61 -126 -106zM344 532l-48 56q72 61 121 114l53 -64q-63 -61 -126 -106z" />
    <glyph glyph-name="Omega" unicode="&#x3a9;" horiz-adv-x="693" 
d="M464 203l46 260q2 14 2 25q0 78 -111 78q-126 0 -145 -103l-46 -260q-3 -18 -3 -25q0 -60 44 -95l-14 -83h-214l14 82h80q-36 37 -36 82q0 11 4 33l48 275q18 102 83.5 153t197.5 51q114 0 169 -49.5t55 -127.5q0 -15 -3 -33l-48 -274q-13 -72 -65 -110h88l-14 -82h-230
l14 83q69 34 84 120z" />
    <glyph glyph-name="pi" unicode="&#x3c0;" horiz-adv-x="669" 
d="M481 -10q-111 0 -111 91q0 15 3 30l49 277h-142q-36 -232 -102 -388h-117q68 166 104 388h-110l17 99h585l-17 -99h-102l-47 -263q-2 -14 -2 -19q0 -23 30 -23q27 0 55 13l3 -85q-36 -21 -96 -21z" />
    <glyph glyph-name="Wgrave" unicode="&#x1e80;" horiz-adv-x="940" 
d="M719 0h-157l-38 533l-221 -533h-157l-56 666h117l41 -526l221 526h152l36 -531l215 531h125zM558 711q-55 32 -116 85l53 64q39 -38 109 -90z" />
    <glyph glyph-name="wgrave" unicode="&#x1e81;" horiz-adv-x="701" 
d="M310 473l107 17l74 -374l67 238q9 31 9 62q0 28 -8 57l113 22q10 -40 10 -77q0 -45 -26 -120l-102 -298h-146l-50 243l-128 -243h-139q-1 169 -7.5 268t-28.5 205l114 18q32 -152 20 -365l138 267zM380 543q-69 44 -127 97l54 64q46 -46 120 -103z" />
    <glyph glyph-name="Wacute" unicode="&#x1e82;" horiz-adv-x="940" 
d="M719 0h-157l-38 533l-221 -533h-157l-56 666h117l41 -526l221 526h152l36 -531l215 531h125zM545 710l-37 65q79 46 133 85l41 -72q-66 -46 -137 -78z" />
    <glyph glyph-name="wacute" unicode="&#x1e83;" horiz-adv-x="701" 
d="M310 473l107 17l74 -374l67 238q9 31 9 62q0 28 -8 57l113 22q10 -40 10 -77q0 -45 -26 -120l-102 -298h-146l-50 243l-128 -243h-139q-1 169 -7.5 268t-28.5 205l114 18q32 -152 20 -365l138 267zM353 543l-37 65q73 38 158 97l40 -72q-66 -45 -161 -90z" />
    <glyph glyph-name="Wdieresis" unicode="&#x1e84;" horiz-adv-x="940" 
d="M719 0h-157l-38 533l-221 -533h-157l-56 666h117l41 -526l221 526h152l36 -531l215 531h125zM614 729l17 97h101l-17 -97h-101zM405 729l17 97h101l-17 -97h-101z" />
    <glyph glyph-name="wdieresis" unicode="&#x1e85;" horiz-adv-x="701" 
d="M310 473l107 17l74 -374l67 238q9 31 9 62q0 28 -8 57l113 22q10 -40 10 -77q0 -45 -26 -120l-102 -298h-146l-50 243l-128 -243h-139q-1 169 -7.5 268t-28.5 205l114 18q32 -152 20 -365l138 267zM247 557l19 105l98 4l-18 -105zM437 557l19 105l98 4l-18 -105z" />
    <glyph glyph-name="Ygrave" unicode="&#x1ef2;" horiz-adv-x="553" 
d="M329 193l-34 -193h-124l35 199l-130 467h123l89 -337l200 337h140zM369 711q-55 32 -116 85l53 64q39 -38 109 -90z" />
    <glyph glyph-name="ygrave" unicode="&#x1ef3;" horiz-adv-x="476" 
d="M449 347l-161 -347q-45 -89 -93.5 -133t-152.5 -80l-33 93q61 21 93 47t62 73h-41l-70 475l119 17l46 -386l115 259q14 33 14 67q0 24 -7 46l117 17q9 -28 9 -61q0 -49 -17 -87zM279 543q-69 44 -127 97l54 64q46 -46 120 -103z" />
    <glyph glyph-name="endash" unicode="&#x2013;" horiz-adv-x="486" 
d="M66 231l18 100h366l-18 -100h-366z" />
    <glyph glyph-name="emdash" unicode="&#x2014;" horiz-adv-x="631" 
d="M66 231l18 100h511l-18 -100h-511z" />
    <glyph glyph-name="quoteleft" unicode="&#x2018;" horiz-adv-x="271" 
d="M232 703l44 -34l-71 -105h46l-26 -146h-120l27 155z" />
    <glyph glyph-name="quoteright" unicode="&#x2019;" horiz-adv-x="261" 
d="M149 401l-44 34l71 105h-46l26 146h120l-27 -155z" />
    <glyph glyph-name="quotesinglbase" unicode="&#x201a;" horiz-adv-x="271" 
d="M54 -139l-44 34l71 105h-46l26 146h120l-27 -155z" />
    <glyph glyph-name="quotedblleft" unicode="&#x201c;" horiz-adv-x="473" 
d="M434 703l44 -34l-71 -105h46l-26 -146h-120l27 155zM232 703l44 -34l-71 -105h46l-26 -146h-120l27 155z" />
    <glyph glyph-name="quotedblright" unicode="&#x201d;" horiz-adv-x="473" 
d="M149 401l-44 34l71 105h-46l26 146h120l-27 -155zM351 401l-44 34l71 105h-46l26 146h120l-27 -155z" />
    <glyph glyph-name="quotedblbase" unicode="&#x201e;" horiz-adv-x="473" 
d="M54 -139l-44 34l71 105h-46l26 146h120l-27 -155zM256 -139l-44 34l71 105h-46l26 146h120l-27 -155z" />
    <glyph glyph-name="dagger" unicode="&#x2020;" horiz-adv-x="481" 
d="M314 415l-86 -485h-90l85 485h-144l15 81h144l30 170h90l-29 -170h146l-15 -81h-146z" />
    <glyph glyph-name="daggerdbl" unicode="&#x2021;" horiz-adv-x="481" 
d="M258 100l-30 -170h-91l30 170h-144l15 82h144l41 233h-145l15 81h145l29 170h91l-30 -170h146l-15 -81h-146l-40 -233h146l-15 -82h-146z" />
    <glyph glyph-name="bullet" unicode="&#x2022;" horiz-adv-x="357" 
d="M189 194q-53 0 -90.5 38t-37.5 91q0 54 37.5 92t90.5 38t90.5 -38t37.5 -92q0 -53 -37.5 -91t-90.5 -38z" />
    <glyph glyph-name="ellipsis" unicode="&#x2026;" horiz-adv-x="831" 
d="M40 0l26 146h121l-26 -146h-121zM317 0l26 146h121l-26 -146h-121zM594 0l26 146h121l-26 -146h-121z" />
    <glyph glyph-name="perthousand" unicode="&#x2030;" horiz-adv-x="1236" 
d="M663 637l-378 -647l-66 42l379 644zM389 454q-12 -71 -50.5 -106.5t-128.5 -35.5q-131 0 -131 111q0 20 4 42l15 85q12 66 50.5 96t125.5 30q65 0 98.5 -29t33.5 -80q0 -15 -3 -33zM293 442l17 98q10 56 -51 56q-34 0 -48.5 -11.5t-19.5 -39.5l-17 -97q-2 -12 -2 -18
q0 -38 52 -38q34 0 49 11.5t20 38.5zM792 132q-12 -71 -50.5 -106.5t-128.5 -35.5q-131 0 -131 111q0 20 4 42l15 85q12 66 50.5 96t125.5 30q65 0 98.5 -29t33.5 -80q0 -15 -3 -33zM696 120l17 98q10 56 -51 56q-34 0 -48.5 -11.5t-19.5 -39.5l-17 -97q-2 -12 -2 -18
q0 -38 52 -38q34 0 49 11.5t20 38.5zM1164 132q-12 -71 -50.5 -106.5t-128.5 -35.5q-131 0 -131 111q0 20 4 42l15 85q12 66 50.5 96t125.5 30q65 0 98.5 -29t33.5 -80q0 -15 -3 -33zM1068 120l17 98q10 56 -51 56q-34 0 -48.5 -11.5t-19.5 -39.5l-17 -97q-2 -12 -2 -18
q0 -38 52 -38q34 0 49 11.5t20 38.5z" />
    <glyph glyph-name="guilsinglleft" unicode="&#x2039;" horiz-adv-x="283" 
d="M130 52l-94 192l155 192l74 -62l-112 -131l64 -148z" />
    <glyph glyph-name="guilsinglright" unicode="&#x203a;" horiz-adv-x="283" 
d="M159 436l94 -192l-155 -192l-74 62l112 131l-64 148z" />
    <glyph glyph-name="fraction" unicode="&#x2044;" horiz-adv-x="368" 
d="M7 -46l-57 36l421 699l57 -34z" />
    <glyph glyph-name="Euro" unicode="&#x20ac;" horiz-adv-x="536" 
d="M53 364l12 68h82l6 30q19 105 81 149.5t185 44.5q71 0 146 -23l-26 -101q-77 17 -132 17q-68 0 -97.5 -21t-40.5 -84l-2 -12h189l-12 -68h-189l-14 -80h190l-12 -68h-190l-1 -6q-4 -24 -4 -41q0 -39 22.5 -55.5t81.5 -16.5q61 0 134 14l4 -101q-65 -20 -159 -20
q-103 0 -154.5 44t-51.5 117q0 20 4 42l4 23h-81l12 68h81l14 80h-82z" />
    <glyph glyph-name="uni2113" unicode="&#x2113;" horiz-adv-x="516" 
d="M242 -10q-75 0 -111.5 33t-36.5 90q0 13 4 49l-69 -34l-35 86q25 11 120 59l44 247q17 97 62.5 141.5t146.5 44.5q69 0 108.5 -36.5t39.5 -98.5q0 -181 -291 -345q-13 -69 -13 -90q0 -25 12 -36.5t42 -11.5q56 0 153 57l39 -80q-114 -75 -215 -75zM280 544l-35 -197
q157 109 157 217q0 21 -13 33t-36 12q-32 0 -49.5 -15t-23.5 -50z" />
    <glyph glyph-name="uni2116" unicode="&#x2116;" horiz-adv-x="998" 
d="M358 0l-128 479l-84 -479h-116l117 666h145l126 -494l87 494h115l-117 -666h-145zM636 171l13 74h296l-13 -74h-296zM990 439q-12 -69 -51.5 -105.5t-132.5 -36.5q-81 0 -112.5 39t-20.5 103l17 95q13 70 55 106t128 36q81 0 113 -39t21 -103zM913 536q11 61 -54 61
t-76 -61l-17 -99q-11 -61 54 -61t76 61z" />
    <glyph glyph-name="trademark" unicode="&#x2122;" horiz-adv-x="494" 
d="M459 462l-2 127l-38 -101h-42l-38 99l-2 -125h-40l8 204h43l50 -135l50 135h43l8 -204h-40zM166 462v166h-56v38h154v-38h-57v-166h-41z" />
    <glyph glyph-name="estimated" unicode="&#x212e;" horiz-adv-x="794" 
d="M770 301h-572v-201q87 -76 215 -76q88 0 155.5 31t135.5 99l24 -24q-65 -67 -139.5 -103.5t-175.5 -36.5q-150 0 -253.5 98t-103.5 235t105.5 235t251.5 98t251.5 -98t105.5 -235v-22zM413 622q-124 0 -215 -80v-209h430v209q-91 80 -215 80z" />
    <glyph glyph-name="partialdiff" unicode="&#x2202;" horiz-adv-x="578" 
d="M463 169q-17 -46 -28 -70t-30.5 -49t-45.5 -35.5t-65.5 -17.5t-97.5 -7q-82 0 -123.5 31.5t-41.5 83.5q0 32 13 64l33 93q22 62 46 94.5t68 50.5t117 18q62 0 117 -26l11 34q20 60 20 86q0 40 -25 56.5t-85 16.5q-62 0 -138 -24l-15 92q83 36 189 36q193 0 193 -151
q0 -59 -28 -136zM300 325q-52 0 -72 -14.5t-36 -58.5l-31 -86q-10 -28 -10 -42q0 -18 17 -25.5t60 -7.5q53 0 75.5 14.5t38.5 60.5l48 136q-39 23 -90 23z" />
    <glyph glyph-name="Delta" unicode="&#x2206;" horiz-adv-x="736" 
d="M11 0l364 666h130l132 -666h-626zM422 538l-225 -438h300z" />
    <glyph glyph-name="product" unicode="&#x220f;" horiz-adv-x="785" 
d="M673 556l-115 -656h-119l115 656h-217l-115 -656h-119l115 656h-124l19 110h704l-19 -110h-125z" />
    <glyph glyph-name="summation" unicode="&#x2211;" horiz-adv-x="542" 
d="M16 -100l19 111l260 276l-168 268l20 111h400l-19 -110h-254l168 -267l-249 -279h252l-20 -110h-409z" />
    <glyph glyph-name="minus" unicode="&#x2212;" horiz-adv-x="378" 
d="M55 189v102h288v-102h-288z" />
    <glyph glyph-name="radical" unicode="&#x221a;" horiz-adv-x="674" 
d="M581 634l-296 -634h-129l-73 458l108 10l48 -322l270 584h234l-11 -96h-151z" />
    <glyph glyph-name="infinity" unicode="&#x221e;" horiz-adv-x="883" 
d="M662 100q-60 0 -106.5 29t-104.5 86q-56 -56 -103.5 -85.5t-107.5 -29.5q-87 0 -139 46.5t-52 132.5q0 87 51.5 134t139.5 47q60 0 108 -29.5t103 -85.5q57 57 104 86t107 29q88 0 140 -47t52 -134q0 -86 -53 -132.5t-139 -46.5zM661 364q-36 0 -68.5 -21.5t-71.5 -62.5
q39 -41 71.5 -62t68.5 -21q41 0 65 21t24 61q0 41 -24 63t-65 22zM241 364q-41 0 -64.5 -22t-23.5 -63q0 -40 23.5 -61t64.5 -21q37 0 68.5 20.5t72.5 62.5q-41 42 -72.5 63t-68.5 21z" />
    <glyph glyph-name="integral" unicode="&#x222b;" horiz-adv-x="380" 
d="M377 562q-29 11 -53 11q-33 0 -39 -35l-109 -617q-12 -69 -43.5 -98.5t-97.5 -29.5q-48 0 -96 22l24 86q27 -11 54 -11q20 0 28 7.5t12 28.5l109 618q13 71 43.5 101.5t98.5 30.5q54 0 98 -22z" />
    <glyph glyph-name="approxequal" unicode="&#x2248;" horiz-adv-x="554" 
d="M366 260q-37 0 -85.5 29t-80.5 29q-41 0 -90 -37l-40 73q60 60 131 60q41 0 94.5 -30t74.5 -30q42 0 80 35l44 -69q-58 -60 -128 -60zM366 75q-37 0 -85.5 29t-80.5 29q-41 0 -90 -37l-40 73q60 60 131 60q41 0 94.5 -30t74.5 -30q42 0 80 35l44 -69q-58 -60 -128 -60z
" />
    <glyph glyph-name="notequal" unicode="&#x2260;" horiz-adv-x="490" 
d="M55 306v81h225l68 131l67 -35l-50 -96h85v-81h-127l-56 -110h183v-81h-225l-66 -129l-67 36l48 93h-85v81h127l56 110h-183z" />
    <glyph glyph-name="lessequal" unicode="&#x2264;" horiz-adv-x="527" 
d="M402 137l-331 173v66l331 170l36 -70l-263 -132l263 -137zM55 0v82h407v-82h-407z" />
    <glyph glyph-name="greaterequal" unicode="&#x2265;" horiz-adv-x="527" 
d="M456 310l-331 -173l-36 70l263 137l-263 132l36 70l331 -170v-66zM472 82v-82h-407v82h407z" />
    <glyph glyph-name="lozenge" unicode="&#x25ca;" horiz-adv-x="581" 
d="M339 0h-73l-218 334l218 332h73l219 -332zM303 558l-148 -224l148 -225l147 225z" />
    <glyph glyph-name="apple" unicode="&#xf8ff;" horiz-adv-x="851" 
d="M481 335v-335h-331v666h666v-331h-335z" />
    <glyph glyph-name="Acute" horiz-adv-x="289" 
d="M187 710l-37 65q79 46 133 85l41 -72q-66 -46 -137 -78z" />
    <glyph glyph-name="Breve" horiz-adv-x="384" 
d="M274 709q-52 0 -86.5 29.5t-37.5 71.5l62 25q13 -57 71 -57q29 0 46.5 14.5t31.5 45.5l58 -30q-31 -99 -145 -99z" />
    <glyph glyph-name="Caron" horiz-adv-x="351" 
d="M174 851q41 -20 85 -52q38 29 88 52l34 -59q-75 -43 -137 -86q-39 40 -109 91z" />
    <glyph glyph-name="Cedilla" horiz-adv-x="289" 
d="M62 -200q-34 0 -72 15l15 48q32 -10 58 -10q57 0 57 34q0 20 -29 20q-27 0 -49 -2l-14 16l36 94h54l-24 -70q18 3 32 3q28 0 43 -16.5t15 -39.5q0 -92 -122 -92z" />
    <glyph glyph-name="Circumflex" horiz-adv-x="356" 
d="M347 711q-41 20 -85 52q-44 -31 -88 -52l-34 59q75 43 137 86q39 -40 109 -91z" />
    <glyph glyph-name="commaaccent" horiz-adv-x="327" 
d="M77 -183l24 132h117l-25 -140l-83 -104l-45 32l55 80h-43z" />
    <glyph glyph-name="Dieresis" horiz-adv-x="422" 
d="M339 729l17 97h101l-17 -97h-101zM130 729l17 97h101l-17 -97h-101z" />
    <glyph glyph-name="Dotaccent" horiz-adv-x="252" 
d="M140 720l24 137l123 17l-24 -136z" />
    <glyph glyph-name="Grave" horiz-adv-x="292" 
d="M251 711q-55 32 -116 85l53 64q39 -38 109 -90z" />
    <glyph glyph-name="Hungarumlaut" horiz-adv-x="434" 
d="M197 710l-47 58q52 41 104 92l52 -64q-42 -39 -109 -86zM375 710l-47 58q52 41 104 92l52 -64q-42 -39 -109 -86z" />
    <glyph glyph-name="Macron" horiz-adv-x="365" 
d="M140 725l14 80h246l-14 -80h-246z" />
    <glyph glyph-name="Ogonek" horiz-adv-x="323" 
d="M154 -135l3 -59q-32 -13 -71 -13q-86 0 -86 63q0 46 38 79.5t108 64.5h52q-61 -41 -84.5 -66t-23.5 -50q0 -23 30 -23q19 0 34 4z" />
    <glyph glyph-name="Ring" horiz-adv-x="283" 
d="M220 709q-31 0 -50.5 18t-19.5 46q0 44 25 68.5t71 24.5q33 0 52.5 -17.5t19.5 -43.5q0 -42 -24 -69t-74 -27zM240 823q-18 0 -29 -12t-11 -33q0 -26 27 -26q40 0 40 45q0 26 -27 26z" />
    <glyph glyph-name="Tilde" horiz-adv-x="432" 
d="M350 719q-28 0 -60 21t-48 21q-23 0 -58 -42l-44 41q41 77 108 77q25 0 60.5 -21.5t50.5 -21.5q28 0 47 37l51 -28q-19 -41 -43 -62.5t-64 -21.5z" />
    <glyph glyph-name="ampersand.salt" horiz-adv-x="630" 
d="M515 282l-46 -258q-105 -34 -235 -34q-184 0 -184 129q0 16 3 34l11 63q16 94 106 126q-54 30 -54 86q0 13 4 37l9 52q16 89 63.5 124t169.5 35q103 0 191 -26l-22 -96q-94 21 -188 21q-49 0 -68.5 -13t-26.5 -51l-10 -57q-2 -12 -2 -22q0 -49 60 -49h334l-17 -101h-98z
M403 282h-114q-94 0 -106 -72l-9 -51q-2 -12 -2 -19q0 -27 19.5 -39t62.5 -12q65 0 117 12z" />
    <glyph glyph-name="minus.onum" horiz-adv-x="378" 
d="M55 189v102h288v-102h-288z" />
    <glyph glyph-name="multiply.onum" horiz-adv-x="492" 
d="M365 53l-116 118l-117 -118l-68 69l116 118l-116 117l68 69l117 -117l116 117l68 -69l-116 -117l116 -118z" />
    <glyph glyph-name="numbersign.onum" horiz-adv-x="611" 
d="M534 115h-101l-23 -115h-82l23 115h-141l-24 -115h-82l24 115h-97l14 77h97l27 131h-97l16 77h96l23 110h82l-23 -110h142l23 110h82l-23 -110h102l-16 -77h-101l-27 -131h100zM251 323l-27 -131h142l27 131h-142z" />
    <glyph glyph-name="dollar.onum" horiz-adv-x="468" 
d="M121 -103l16 95q-72 8 -126 37l22 91q85 -31 160 -31q47 0 64.5 12t23.5 41q5 31 -9 43.5t-77 28.5q-64 16 -93 39.5t-32 57.5t6 81q12 67 48.5 95t114.5 31l17 95h100l-17 -96q51 -3 105 -20l-23 -97q-77 20 -147 20q-45 0 -61.5 -8t-21.5 -37q-5 -32 7.5 -43.5
t76.5 -28.5q89 -24 113.5 -54t11.5 -102q-14 -78 -45.5 -112.5t-116.5 -41.5l-16 -96h-101z" />
    <glyph glyph-name="percent.onum" horiz-adv-x="777" 
d="M264 -10l-64 45l307 485l65 -42zM330 346q-10 -58 -42.5 -86.5t-115.5 -28.5q-69 0 -97 33t-18 87l11 63q10 54 44 80t110 26q69 0 98 -31.5t20 -85.5zM153 404l-11 -63q-3 -18 6.5 -27.5t36.5 -9.5q29 0 41.5 10t16.5 32l11 63q3 18 -7.5 28t-36.5 10q-28 0 -40.5 -10.5
t-16.5 -32.5zM706 105q-10 -58 -42.5 -86.5t-115.5 -28.5q-69 0 -97 33t-18 87l11 63q10 54 44 80t110 26q69 0 98 -31.5t20 -85.5zM529 163l-11 -63q-3 -18 6.5 -27.5t36.5 -9.5q29 0 41.5 10t16.5 32l11 63q3 18 -7.5 28t-36.5 10q-28 0 -40.5 -10.5t-16.5 -32.5z" />
    <glyph glyph-name="plus.onum" horiz-adv-x="513" 
d="M305 196v-156h-97v156h-153v94h153v157h97v-157h153v-94h-153z" />
    <glyph glyph-name="zero.onum" horiz-adv-x="559" 
d="M233 -10q-187 0 -187 140q0 16 4 40l31 176q16 90 70.5 132t172.5 42q91 0 139 -42t48 -108q0 -18 -3 -35l-30 -170q-14 -84 -67.5 -129.5t-177.5 -45.5zM363 182l27 153q2 14 2 23q0 30 -19 44.5t-65 14.5q-54 0 -78.5 -18.5t-32.5 -64.5l-27 -152q-3 -16 -3 -31
q0 -29 19 -43.5t65 -14.5q51 0 77.5 21t34.5 68z" />
    <glyph glyph-name="one.onum" horiz-adv-x="380" 
d="M135 0l66 375l-129 -58l-42 90l205 103h110l-90 -510h-120z" />
    <glyph glyph-name="two.onum" horiz-adv-x="507" 
d="M15 0l14 85l167 124q86 65 104 86t24 57l3 17q4 25 -10.5 35t-50.5 10q-74 0 -165 -22l-17 100q98 28 194 28q99 0 140.5 -39t28.5 -113l-2 -11q-11 -65 -29.5 -96t-82.5 -82l-104 -79h190l-17 -100h-387z" />
    <glyph glyph-name="three.onum" horiz-adv-x="477" 
d="M144 -146q-79 0 -163 32l25 91q71 -23 136 -23q64 0 85 14t28 55l7 40q6 35 -16 54.5t-70 19.5h-107l18 102h112q81 0 93 68l10 56q2 12 2 17q0 24 -19.5 33t-66.5 9q-61 0 -126 -13l-10 92q73 19 163 19q182 0 182 -115q0 -13 -3 -30l-11 -63q-9 -51 -30.5 -80
t-72.5 -44q33 -10 53.5 -37.5t20.5 -60.5q0 -16 -2 -28l-9 -51q-15 -86 -61.5 -121.5t-167.5 -35.5z" />
    <glyph glyph-name="four.onum" horiz-adv-x="574" 
d="M419 29l-30 -165h-116l29 165h-301l18 107l318 374h166l-67 -384h94l-18 -97h-93zM367 397l-227 -271h179z" />
    <glyph glyph-name="five.onum" horiz-adv-x="479" 
d="M157 -146q-84 0 -165 32l26 92q76 -22 145 -22q63 0 82.5 16t27.5 62l6 34q2 12 2 20q0 29 -21 40t-73 14l-130 7l63 361h344l-18 -104h-225l-29 -165q30 -1 71 -5q140 -13 140 -127q0 -12 -4 -40l-6 -35q-9 -53 -21 -83.5t-37.5 -54.5t-67.5 -33t-110 -9z" />
    <glyph glyph-name="six.onum" horiz-adv-x="534" 
d="M227 -10q-176 0 -176 134q0 22 5 52l46 261q23 127 78.5 173t189.5 46q77 0 147 -23l-22 -93q-62 15 -118 15q-86 0 -115 -20.5t-40 -86.5l-14 -80q58 16 124 16q142 0 142 -118q0 -22 -4 -45l-8 -46q-9 -49 -20.5 -79t-36.5 -56.5t-68.5 -38t-109.5 -11.5zM342 164
l10 58q2 16 2 20q0 39 -59 39q-54 0 -106 -21l-16 -90q-3 -17 -3 -27q0 -27 16.5 -38.5t58.5 -11.5q49 0 69.5 15.5t27.5 55.5z" />
    <glyph glyph-name="seven.onum" horiz-adv-x="483" 
d="M122 -135l-88 58l314 482h-286l18 105h407l-18 -106z" />
    <glyph glyph-name="eight.onum" horiz-adv-x="552" 
d="M231 -10q-186 0 -186 128q0 16 3 36l9 50q8 47 37.5 76t91.5 49q-70 49 -70 109q0 11 2 21l7 40q15 86 61.5 121.5t159.5 35.5q80 0 126 -34t46 -94q0 -12 -3 -29l-8 -45q-8 -48 -29.5 -73.5t-75.5 -51.5q79 -44 79 -105q0 -15 -2 -25l-8 -46q-16 -91 -64 -127t-176 -36z
M393 459l7 40q2 12 2 16q0 43 -71 43q-46 0 -65.5 -14.5t-25.5 -49.5l-6 -35q-2 -12 -2 -19q0 -21 14.5 -35.5t52.5 -31.5q49 19 69 37.5t25 48.5zM357 159l5 28q2 12 2 21q0 22 -16.5 35t-67.5 36q-66 -24 -85.5 -40.5t-25.5 -50.5l-5 -29q-2 -12 -2 -22q0 -26 19.5 -37
t66.5 -11q56 0 79 15.5t30 54.5z" />
    <glyph glyph-name="nine.onum" horiz-adv-x="527" 
d="M300 520q87 0 131.5 -36.5t44.5 -97.5q0 -22 -5 -52l-46 -261q-23 -127 -78.5 -173t-189.5 -46q-78 0 -150 24l22 93q64 -16 121 -16q86 0 115 20.5t40 86.5l14 80q-58 -16 -124 -16q-142 0 -142 118q0 22 4 45l8 46q7 41 15.5 67.5t24.5 51t40.5 37.5t62.5 21t92 8z
M185 346l-10 -58q-2 -16 -2 -20q0 -39 59 -39q54 0 106 21l16 90q3 16 3 27q0 27 -16.5 38.5t-58.5 11.5q-49 0 -69.5 -15.5t-27.5 -55.5z" />
    <glyph glyph-name="less.onum" horiz-adv-x="581" 
d="M518 426l-359 -182l359 -182l-37 -71l-431 221v64l431 221z" />
    <glyph glyph-name="equal.onum" horiz-adv-x="490" 
d="M55 305v81h395v-81h-395zM55 114v81h395v-81h-395z" />
    <glyph glyph-name="greater.onum" horiz-adv-x="581" 
d="M422 244l-359 182l37 71l431 -221v-64l-431 -221l-37 71z" />
    <glyph glyph-name="cent.onum" horiz-adv-x="440" 
d="M141 -84l16 92q-111 13 -111 119q0 18 5 48l25 140q15 84 53.5 123t111.5 47l17 93h81l-16 -90q58 -5 93 -19l-27 -96q-44 14 -91 14q-52 0 -74 -18.5t-31 -69.5l-25 -141q-2 -12 -2 -17q0 -32 37 -32q54 0 143 31l12 -97q-55 -27 -120 -34l-16 -93h-81z" />
    <glyph glyph-name="sterling.onum" horiz-adv-x="526" 
d="M52 210l15 84h75q-12 36 -12 66q0 84 46.5 122t153.5 38q88 0 162 -33l-23 -88q-74 23 -144 23q-39 0 -57 -14t-18 -47q0 -34 15 -67h175l-19 -84h-151q-4 -75 -70 -119h245l-17 -91h-397l15 86q98 45 108 124h-102z" />
    <glyph glyph-name="section.onum" horiz-adv-x="504" 
d="M225 19l-89 -29q-61 148 -61 292q0 65 10 122q10 60 45 88t115 28q87 0 159 -27l-19 -80q-88 22 -141 22q-29 0 -42.5 -11t-18.5 -37q-9 -53 -9 -110q0 -61 11.5 -115.5t39.5 -142.5zM286 308l89 29q61 -148 61 -292q0 -65 -10 -122q-10 -60 -45 -88t-115 -28
q-88 0 -160 27l20 80q88 -22 141 -22q29 0 42.5 11t18.5 37q9 53 9 110q0 61 -11.5 115.5t-39.5 142.5z" />
    <glyph glyph-name="yen.onum" horiz-adv-x="541" 
d="M51 228l11 68h78l-69 214h120l77 -256l151 256h130l-139 -214h78l-11 -68h-111l-47 -72h144l-11 -67h-154l-15 -89h-122l15 89h-150l11 67h148l-23 72h-111z" />
    <glyph glyph-name="florin.onum" horiz-adv-x="444" 
d="M437 414q-44 14 -79 14q-32 0 -45 -11t-21 -42l-28 -109h123l-23 -98h-127l-60 -230q-20 -76 -50 -105.5t-103 -29.5q-56 0 -98 20l23 92q29 -12 59 -12q26 0 35.5 8.5t16.5 33.5l58 223h-82l27 98h82l30 119q20 78 55 110.5t112 32.5q65 0 118 -23z" />
    <glyph glyph-name="endash.onum" horiz-adv-x="486" 
d="M66 231l18 100h366l-18 -100h-366z" />
    <glyph glyph-name="divide.onum" horiz-adv-x="539" 
d="M213 358v118h113v-118h-113zM65 205v78h409v-78h-409zM213 10v118h113v-118h-113z" />
    <glyph glyph-name="Euro.onum" horiz-adv-x="487" 
d="M46 288l10 52h63l4 21q16 87 61.5 123t155.5 36q78 0 147 -22l-22 -96q-62 16 -126 16q-53 0 -71 -11t-24 -49l-3 -18h141l-10 -52h-139l-12 -65h141l-8 -51h-142l-3 -18q-7 -39 8 -50.5t68 -11.5t123 12l4 -94q-60 -20 -145 -20q-112 0 -153.5 40.5t-26.5 124.5l3 17
h-63l9 51h63l12 65h-65z" />
    <glyph glyph-name="perthousand.onum" horiz-adv-x="1101" 
d="M264 -10l-64 45l307 485l65 -42zM330 346q-10 -58 -42.5 -86.5t-115.5 -28.5q-69 0 -97 33t-18 87l11 63q10 54 44 80t110 26q69 0 98 -31.5t20 -85.5zM153 404l-11 -63q-3 -18 6.5 -27.5t36.5 -9.5q29 0 41.5 10t16.5 32l11 63q3 18 -7.5 28t-36.5 10q-28 0 -40.5 -10.5
t-16.5 -32.5zM706 105q-10 -58 -42.5 -86.5t-115.5 -28.5q-69 0 -97 33t-18 87l11 63q10 54 44 80t110 26q69 0 98 -31.5t20 -85.5zM529 163l-11 -63q-3 -18 6.5 -27.5t36.5 -9.5q29 0 41.5 10t16.5 32l11 63q3 18 -7.5 28t-36.5 10q-28 0 -40.5 -10.5t-16.5 -32.5z
M1030 105q-10 -58 -42.5 -86.5t-115.5 -28.5q-69 0 -97 33t-18 87l11 63q10 54 44 80t110 26q69 0 98 -31.5t20 -85.5zM853 163l-11 -63q-3 -18 6.5 -27.5t36.5 -9.5q29 0 41.5 10t16.5 32l11 63q3 18 -7.5 28t-36.5 10q-28 0 -40.5 -10.5t-16.5 -32.5z" />
    <glyph glyph-name="minus.tnum" 
d="M118 189v102h288v-102h-288z" />
    <glyph glyph-name="multiply.tnum" 
d="M379 53l-116 118l-117 -118l-68 69l116 118l-116 117l68 69l117 -117l116 117l68 -69l-116 -117l116 -118z" />
    <glyph glyph-name="numbersign.tnum" 
d="M527 413h-78l-37 -174h80l-15 -75h-80l-34 -164h-79l34 164h-137l-34 -164h-79l34 164h-80l15 75h80l37 174h-80l15 75h80l33 158h79l-33 -158h137l32 158h79l-32 -158h79zM233 413l-37 -174h137l37 174h-137z" />
    <glyph glyph-name="dollar.tnum" 
d="M146 -118l20 110q-74 4 -139 30l28 97q86 -26 161 -26q58 0 79 17t29 67q5 30 5 44q0 23 -17.5 34t-71.5 26q-80 22 -108.5 46.5t-28.5 68.5q0 32 9 80q18 102 56.5 137t138.5 42l20 111h97l-20 -112q45 -4 102 -18l-23 -102q-77 17 -153 17q-56 0 -73.5 -14t-25.5 -62
q-5 -28 -5 -39q0 -22 17 -33t74 -28q80 -24 108.5 -49t28.5 -69q0 -27 -10 -80q-15 -91 -51.5 -133t-129.5 -51l-20 -111h-97z" />
    <glyph glyph-name="percent.tnum" horiz-adv-x="864" 
d="M663 637l-378 -647l-66 42l379 644zM389 454q-12 -71 -50.5 -106.5t-128.5 -35.5q-131 0 -131 111q0 20 4 42l15 85q12 66 50.5 96t125.5 30q65 0 98.5 -29t33.5 -80q0 -15 -3 -33zM293 442l17 98q10 56 -51 56q-34 0 -48.5 -11.5t-19.5 -39.5l-17 -97q-2 -12 -2 -18
q0 -38 52 -38q34 0 49 11.5t20 38.5zM792 132q-12 -71 -50.5 -106.5t-128.5 -35.5q-131 0 -131 111q0 20 4 42l15 85q12 66 50.5 96t125.5 30q65 0 98.5 -29t33.5 -80q0 -15 -3 -33zM696 120l17 98q10 56 -51 56q-34 0 -48.5 -11.5t-19.5 -39.5l-17 -97q-2 -12 -2 -18
q0 -38 52 -38q34 0 49 11.5t20 38.5z" />
    <glyph glyph-name="plus.tnum" 
d="M311 196v-156h-97v156h-153v94h153v157h97v-157h153v-94h-153z" />
    <glyph glyph-name="zero.tnum" 
d="M216 -10q-186 0 -186 138q0 19 4 41l55 313q16 92 72 133t173 41q86 0 135 -40.5t49 -107.5q0 -16 -3 -32l-55 -311q-16 -91 -67.5 -133t-176.5 -42zM345 182l50 283q3 18 3 27q0 30 -19.5 44.5t-64.5 14.5q-55 0 -78 -19.5t-32 -67.5l-51 -287q-3 -18 -3 -32
q0 -28 17 -39t67 -11q57 0 79.5 19.5t31.5 67.5z" />
    <glyph glyph-name="one.tnum" 
d="M48 0l17 102h138l72 410l-128 -59l-42 88l204 105h110l-96 -544h138l-18 -102h-395z" />
    <glyph glyph-name="two.tnum" 
d="M26 0l18 104l233 221q59 59 74 81t22 65l4 23q1 6 1 13q0 23 -20.5 33t-65.5 10q-77 0 -167 -22l-12 97q98 31 204 31q88 0 134.5 -34.5t46.5 -95.5q0 -16 -3 -32l-4 -23q-12 -69 -32 -104t-101 -116l-150 -146h222l-18 -105h-386z" />
    <glyph glyph-name="three.tnum" 
d="M204 -10q-99 0 -174 33l25 91q86 -24 147 -24q64 0 85 14t28 55l8 45q2 14 2 19q0 26 -16 38t-54 12h-137l18 102h135q39 0 57 16.5t24 51.5l10 56q2 12 2 17q0 24 -19.5 33t-66.5 9q-55 0 -137 -16l-10 92q82 22 174 22q182 0 182 -115q0 -13 -3 -30l-11 -63
q-4 -22 -7 -34.5t-9.5 -28.5t-16 -25.5t-25 -19t-36.5 -16.5q65 -21 65 -98q0 -16 -2 -28l-9 -51q-7 -42 -19 -68.5t-36.5 -48t-67 -31t-106.5 -9.5z" />
    <glyph glyph-name="four.tnum" 
d="M407 147l-25 -147h-118l26 147h-275l18 108l292 391h170l-71 -401h77l-17 -98h-77zM362 553l-220 -308h165z" />
    <glyph glyph-name="five.tnum" 
d="M208 -10q-90 0 -174 30l27 96q80 -22 153 -22q63 0 83 16t27 60l6 34q2 12 2 20q0 29 -21.5 40.5t-72.5 13.5q-45 2 -138 7l63 361h352l-18 -104h-233l-29 -165q38 -1 79 -5q140 -13 140 -127q0 -12 -4 -40l-6 -35q-12 -70 -32.5 -106t-68 -55t-135.5 -19z" />
    <glyph glyph-name="six.tnum" 
d="M221 -10q-176 0 -176 134q0 22 5 52l46 261q23 127 78.5 173t189.5 46q77 0 147 -23l-22 -93q-62 15 -118 15q-86 0 -115 -20.5t-40 -86.5l-14 -80q58 16 124 16q142 0 142 -118q0 -22 -4 -45l-8 -46q-9 -49 -20.5 -79t-36.5 -56.5t-68.5 -38t-109.5 -11.5zM336 164
l10 58q2 16 2 20q0 39 -59 39q-54 0 -106 -21l-16 -90q-3 -17 -3 -27q0 -27 16.5 -38.5t58.5 -11.5q49 0 69.5 15.5t27.5 55.5z" />
    <glyph glyph-name="seven.tnum" 
d="M177 0h-128l348 541h-300l18 105h425l-17 -101z" />
    <glyph glyph-name="eight.tnum" 
d="M216 -10q-186 0 -186 128q0 16 3 36l9 50q8 47 37.5 76t91.5 49q-70 49 -70 109q0 11 2 21l7 40q15 86 61.5 121.5t159.5 35.5q80 0 126 -34t46 -94q0 -12 -3 -29l-8 -45q-8 -48 -29.5 -73.5t-75.5 -51.5q79 -44 79 -105q0 -15 -2 -25l-8 -46q-16 -91 -64 -127t-176 -36z
M378 459l7 40q2 12 2 16q0 43 -71 43q-46 0 -65.5 -14.5t-25.5 -49.5l-6 -35q-2 -12 -2 -19q0 -21 14.5 -35.5t52.5 -31.5q49 19 69 37.5t25 48.5zM342 159l5 28q2 12 2 21q0 22 -16.5 35t-67.5 36q-66 -24 -85.5 -40.5t-25.5 -50.5l-5 -29q-2 -12 -2 -22q0 -26 19.5 -37
t66.5 -11q56 0 79 15.5t30 54.5z" />
    <glyph glyph-name="nine.tnum" 
d="M325 656q87 0 131.5 -36.5t44.5 -97.5q0 -22 -5 -52l-46 -261q-23 -127 -78.5 -173t-189.5 -46q-78 0 -150 24l22 93q64 -16 121 -16q86 0 115 20.5t40 86.5l14 80q-58 -16 -124 -16q-142 0 -142 118q0 22 4 45l8 46q7 41 15.5 67.5t24.5 51t40.5 37.5t62.5 21t92 8z
M210 482l-10 -58q-2 -16 -2 -20q0 -39 59 -39q54 0 106 21l16 90q3 17 3 27q0 27 -16.5 38.5t-58.5 11.5q-49 0 -69.5 -15.5t-27.5 -55.5z" />
    <glyph glyph-name="less.tnum" 
d="M431 -10l-380 221v66l379 220l40 -72l-320 -181l323 -181z" />
    <glyph glyph-name="equal.tnum" 
d="M86 303v83h353v-83h-353zM86 114v83h353v-83h-353z" />
    <glyph glyph-name="greater.tnum" 
d="M93 -10l-42 73l322 181l-319 181l40 72l379 -220v-66z" />
    <glyph glyph-name="cent.tnum" 
d="M190 -10l16 92q-111 13 -111 119q0 18 5 48l29 164q15 84 53.5 123t111.5 47l17 93h81l-16 -90q58 -5 93 -19l-27 -96q-44 14 -91 14q-52 0 -74 -18.5t-31 -69.5l-29 -165q-2 -12 -2 -17q0 -32 37 -32q54 0 143 31l12 -97q-55 -27 -120 -34l-16 -93h-81z" />
    <glyph glyph-name="sterling.tnum" 
d="M35 0l17 101q131 73 131 174q0 9 -1 14h-109l12 88h79q-21 45 -21 104q0 88 51 131.5t160 43.5q84 0 168 -23l-18 -94q-71 17 -144 17q-55 0 -77 -17.5t-22 -66.5q0 -43 19 -95h180l-14 -88h-156q2 -14 2 -25q0 -93 -92 -164h271l-18 -100h-418z" />
    <glyph glyph-name="section.tnum" 
d="M426 568q-82 23 -141 23q-28 0 -41.5 -11t-18.5 -37q-11 -59 -11 -151q0 -163 35 -376l-95 -16q-39 209 -39 392q0 104 12 168q10 60 45 88t115 28q86 0 159 -28zM163 -79q82 -23 141 -23q28 0 41.5 11t18.5 37q11 59 11 151q0 163 -35 376l95 16q39 -209 39 -392
q0 -104 -12 -168q-10 -60 -45 -88t-115 -28q-86 0 -159 28z" />
    <glyph glyph-name="yen.tnum" 
d="M64 298l14 78h79l-52 270h123l45 -317l151 317h140l-149 -270h79l-14 -78h-108l-52 -93h144l-14 -76h-148l-22 -129h-124l22 129h-144l14 76h142l-18 93h-108z" />
    <glyph glyph-name="florin.tnum" 
d="M519 593q-41 13 -79 13q-32 0 -45 -11t-21 -41l-34 -128h124l-26 -98h-124l-103 -390q-20 -74 -53 -104.5t-107 -30.5q-53 0 -91 18l23 92q30 -10 56 -10q28 0 38.5 10t17.5 39l100 376h-82l26 98h82l36 138q20 77 55.5 109.5t114.5 32.5q62 0 115 -22z" />
    <glyph glyph-name="endash.tnum" 
d="M70 231l18 100h366l-18 -100h-366z" />
    <glyph glyph-name="divide.tnum" 
d="M206 358v118h113v-118h-113zM58 205v78h409v-78h-409zM206 10v118h113v-118h-113z" />
    <glyph glyph-name="Euro.tnum" 
d="M49 364l12 68h82l8 44q18 103 77.5 141.5t182.5 38.5q70 0 130 -20l-25 -99q-59 13 -113 13q-73 0 -99.5 -18t-37.5 -81l-3 -19h209l-12 -68h-209l-14 -80h210l-12 -68h-210l-1 -6q-4 -24 -4 -41q0 -40 21 -56.5t83 -16.5q59 0 114 11l4 -100q-61 -17 -139 -17
q-106 0 -156 43.5t-50 117.5q0 20 4 42l4 23h-81l12 68h81l14 80h-82z" />
    <glyph glyph-name="perthousand.tnum" horiz-adv-x="1236" 
d="M663 637l-378 -647l-66 42l379 644zM389 454q-12 -71 -50.5 -106.5t-128.5 -35.5q-131 0 -131 111q0 20 4 42l15 85q12 66 50.5 96t125.5 30q65 0 98.5 -29t33.5 -80q0 -15 -3 -33zM293 442l17 98q10 56 -51 56q-34 0 -48.5 -11.5t-19.5 -39.5l-17 -97q-2 -12 -2 -18
q0 -38 52 -38q34 0 49 11.5t20 38.5zM792 132q-12 -71 -50.5 -106.5t-128.5 -35.5q-131 0 -131 111q0 20 4 42l15 85q12 66 50.5 96t125.5 30q65 0 98.5 -29t33.5 -80q0 -15 -3 -33zM696 120l17 98q10 56 -51 56q-34 0 -48.5 -11.5t-19.5 -39.5l-17 -97q-2 -12 -2 -18
q0 -38 52 -38q34 0 49 11.5t20 38.5zM1164 132q-12 -71 -50.5 -106.5t-128.5 -35.5q-131 0 -131 111q0 20 4 42l15 85q12 66 50.5 96t125.5 30q65 0 98.5 -29t33.5 -80q0 -15 -3 -33zM1068 120l17 98q10 56 -51 56q-34 0 -48.5 -11.5t-19.5 -39.5l-17 -97q-2 -12 -2 -18
q0 -38 52 -38q34 0 49 11.5t20 38.5z" />
    <glyph glyph-name="minusonum.tnum" 
d="M118 189v102h288v-102h-288z" />
    <glyph glyph-name="multiplyonum.tnum" 
d="M379 53l-116 118l-117 -118l-68 69l116 118l-116 117l68 69l117 -117l116 117l68 -69l-116 -117l116 -118z" />
    <glyph glyph-name="numbersignonum.tnum" 
d="M507 329h-80l-34 -144h79l-16 -69h-80l-27 -116h-80l27 116h-133l-27 -116h-80l27 116h-83l17 69h82l35 144h-82l17 70h81l28 111h80l-27 -111h133l27 111h80l-27 -111h80zM214 329l-35 -144h133l35 144h-133z" />
    <glyph glyph-name="dollaronum.tnum" 
d="M156 -103l16 95q-72 8 -126 37l22 91q85 -31 160 -31q47 0 64.5 12t23.5 41q5 31 -9 43.5t-77 28.5q-64 16 -93 39.5t-32 57.5t6 81q12 67 48.5 95t114.5 31l17 95h100l-17 -96q51 -3 105 -20l-23 -97q-77 20 -147 20q-45 0 -61.5 -8t-21.5 -37q-5 -32 7.5 -43.5
t76.5 -28.5q89 -24 113.5 -54t11.5 -102q-14 -78 -45.5 -112.5t-116.5 -41.5l-16 -96h-101z" />
    <glyph glyph-name="percentonum.tnum" horiz-adv-x="777" 
d="M264 -10l-64 45l307 485l65 -42zM330 346q-10 -58 -42.5 -86.5t-115.5 -28.5q-69 0 -97 33t-18 87l11 63q10 54 44 80t110 26q69 0 98 -31.5t20 -85.5zM153 404l-11 -63q-3 -18 6.5 -27.5t36.5 -9.5q29 0 41.5 10t16.5 32l11 63q3 18 -7.5 28t-36.5 10q-28 0 -40.5 -10.5
t-16.5 -32.5zM706 105q-10 -58 -42.5 -86.5t-115.5 -28.5q-69 0 -97 33t-18 87l11 63q10 54 44 80t110 26q69 0 98 -31.5t20 -85.5zM529 163l-11 -63q-3 -18 6.5 -27.5t36.5 -9.5q29 0 41.5 10t16.5 32l11 63q3 18 -7.5 28t-36.5 10q-28 0 -40.5 -10.5t-16.5 -32.5z" />
    <glyph glyph-name="plusonum.tnum" 
d="M311 196v-156h-97v156h-153v94h153v157h97v-157h153v-94h-153z" />
    <glyph glyph-name="zeroonum.tnum" 
d="M216 -10q-187 0 -187 140q0 16 4 40l31 176q16 90 70.5 132t172.5 42q91 0 139 -42t48 -108q0 -18 -3 -35l-30 -170q-14 -84 -67.5 -129.5t-177.5 -45.5zM346 182l27 153q2 14 2 23q0 30 -19 44.5t-65 14.5q-54 0 -78.5 -18.5t-32.5 -64.5l-27 -152q-3 -16 -3 -31
q0 -29 19 -43.5t65 -14.5q51 0 77.5 21t34.5 68z" />
    <glyph glyph-name="oneonum.tnum" 
d="M34 0l17 99h144l48 276l-129 -58l-42 90l205 103h110l-72 -411h143l-17 -99h-407z" />
    <glyph glyph-name="twoonum.tnum" 
d="M32 0l14 85l167 124q86 65 104 86t24 57l3 17q4 25 -10.5 35t-50.5 10q-74 0 -165 -22l-17 100q98 28 194 28q99 0 140.5 -39t28.5 -113l-2 -11q-11 -65 -29.5 -96t-82.5 -82l-104 -79h190l-17 -100h-387z" />
    <glyph glyph-name="threeonum.tnum" 
d="M179 -146q-89 0 -173 32l25 91q71 -23 146 -23q64 0 85 14t28 55l7 40q6 35 -16 54.5t-70 19.5h-117l18 102h122q81 0 93 68l10 56q2 12 2 17q0 24 -19.5 33t-66.5 9q-71 0 -136 -13l-10 92q75 19 173 19q182 0 182 -115q0 -13 -3 -30l-11 -63q-9 -51 -30.5 -80
t-72.5 -44q33 -10 53.5 -37.5t20.5 -60.5q0 -16 -2 -28l-9 -51q-15 -86 -61.5 -121.5t-167.5 -35.5z" />
    <glyph glyph-name="fouronum.tnum" 
d="M405 29l-30 -165h-116l29 165h-281l18 107l298 374h166l-67 -384h80l-18 -97h-79zM353 397l-207 -271h159z" />
    <glyph glyph-name="fiveonum.tnum" 
d="M188 -146q-94 0 -175 32l26 92q76 -22 155 -22q63 0 82.5 16t27.5 62l6 34q2 12 2 20q0 29 -21 40t-73 14l-77.5 4t-62.5 3l63 361h354l-18 -104h-235l-29 -165q50 -2 81 -5q140 -13 140 -127q0 -12 -4 -40l-6 -35q-9 -53 -21 -83.5t-37.5 -54.5t-67.5 -33t-110 -9z" />
    <glyph glyph-name="sixonum.tnum" 
d="M225 -10q-176 0 -176 134q0 22 5 52l46 261q23 127 78.5 173t189.5 46q77 0 147 -23l-22 -93q-62 15 -118 15q-86 0 -115 -20.5t-40 -86.5l-14 -80q58 16 124 16q142 0 142 -118q0 -22 -4 -45l-8 -46q-9 -49 -20.5 -79t-36.5 -56.5t-68.5 -38t-109.5 -11.5zM340 164
l10 58q2 16 2 20q0 39 -59 39q-54 0 -106 -21l-16 -90q-3 -17 -3 -27q0 -27 16.5 -38.5t58.5 -11.5q49 0 69.5 15.5t27.5 55.5z" />
    <glyph glyph-name="sevenonum.tnum" 
d="M148 -135l-88 58l314 482h-296l18 105h417l-18 -106z" />
    <glyph glyph-name="eightonum.tnum" 
d="M218 -10q-186 0 -186 128q0 16 3 36l9 50q8 47 37.5 76t91.5 49q-70 49 -70 109q0 11 2 21l7 40q15 86 61.5 121.5t159.5 35.5q80 0 126 -34t46 -94q0 -12 -3 -29l-8 -45q-8 -48 -29.5 -73.5t-75.5 -51.5q79 -44 79 -105q0 -15 -2 -25l-8 -46q-16 -91 -64 -127t-176 -36z
M380 459l7 40q2 12 2 16q0 43 -71 43q-46 0 -65.5 -14.5t-25.5 -49.5l-6 -35q-2 -12 -2 -19q0 -21 14.5 -35.5t52.5 -31.5q49 19 69 37.5t25 48.5zM344 159l5 28q2 12 2 21q0 22 -16.5 35t-67.5 36q-66 -24 -85.5 -40.5t-25.5 -50.5l-5 -29q-2 -12 -2 -22q0 -26 19.5 -37
t66.5 -11q56 0 79 15.5t30 54.5z" />
    <glyph glyph-name="nineonum.tnum" 
d="M305 520q87 0 131.5 -36.5t44.5 -97.5q0 -22 -5 -52l-46 -261q-23 -127 -78.5 -173t-189.5 -46q-78 0 -150 24l22 93q64 -16 121 -16q86 0 115 20.5t40 86.5l14 80q-58 -16 -124 -16q-142 0 -142 118q0 22 4 45l8 46q7 41 15.5 67.5t24.5 51t40.5 37.5t62.5 21t92 8z
M190 346l-10 -58q-2 -16 -2 -20q0 -39 59 -39q54 0 106 21l16 90q3 16 3 27q0 27 -16.5 38.5t-58.5 11.5q-49 0 -69.5 -15.5t-27.5 -55.5z" />
    <glyph glyph-name="lessonum.tnum" 
d="M431 -10l-380 221v66l379 220l40 -72l-320 -181l323 -181z" />
    <glyph glyph-name="equalonum.tnum" 
d="M86 303v83h353v-83h-353zM86 114v83h353v-83h-353z" />
    <glyph glyph-name="greateronum.tnum" 
d="M93 -10l-42 73l322 181l-319 181l40 72l379 -220v-66z" />
    <glyph glyph-name="centonum.tnum" 
d="M180 -84l16 92q-111 13 -111 119q0 18 5 48l25 140q15 84 53.5 123t111.5 47l17 93h81l-16 -90q58 -5 93 -19l-27 -96q-44 14 -91 14q-52 0 -74 -18.5t-31 -69.5l-25 -141q-2 -12 -2 -17q0 -32 37 -32q54 0 143 31l12 -97q-55 -27 -120 -34l-16 -93h-81z" />
    <glyph glyph-name="sterlingonum.tnum" 
d="M61 210l15 84h75q-12 36 -12 66q0 84 46.5 122t153.5 38q88 0 162 -33l-23 -88q-74 23 -144 23q-39 0 -57 -14t-18 -47q0 -34 15 -67h175l-19 -84h-151q-4 -75 -70 -119h245l-17 -91h-397l15 86q98 45 108 124h-102z" />
    <glyph glyph-name="sectiononum.tnum" 
d="M240 19l-89 -29q-61 148 -61 292q0 65 10 122q10 60 45 88t115 28q87 0 159 -27l-19 -80q-88 22 -141 22q-29 0 -42.5 -11t-18.5 -37q-9 -52 -9 -110q0 -61 11.5 -115.5t39.5 -142.5zM301 308l89 29q61 -148 61 -292q0 -65 -10 -122q-10 -60 -45 -88t-115 -28
q-88 0 -160 27l20 80q88 -22 141 -22q29 0 42.5 11t18.5 37q9 53 9 110q0 61 -11.5 115.5t-39.5 142.5z" />
    <glyph glyph-name="yenonum.tnum" 
d="M38 228l11 68h78l-69 214h120l77 -256l151 256h130l-139 -214h78l-11 -68h-111l-47 -72h144l-11 -67h-154l-15 -89h-122l15 89h-150l11 67h148l-23 72h-111z" />
    <glyph glyph-name="florinonum.tnum" 
d="M487 414q-44 14 -79 14q-32 0 -45 -11t-21 -42l-28 -109h123l-23 -98h-127l-60 -230q-20 -76 -50 -105.5t-103 -29.5q-56 0 -98 20l23 92q29 -12 59 -12q26 0 35.5 8.5t16.5 33.5l58 223h-82l27 98h82l30 119q20 78 55 110.5t112 32.5q65 0 118 -23z" />
    <glyph glyph-name="endashonum.tnum" 
d="M70 231l18 100h366l-18 -100h-366z" />
    <glyph glyph-name="divideonum.tnum" 
d="M206 358v118h113v-118h-113zM58 205v78h409v-78h-409zM206 10v118h113v-118h-113z" />
    <glyph glyph-name="Euroonum.tnum" 
d="M59 288l10 52h63l4 21q16 87 61.5 123t155.5 36q78 0 147 -22l-22 -96q-62 16 -126 16q-53 0 -71 -11t-24 -49l-3 -18h141l-10 -52h-139l-12 -65h141l-8 -51h-142l-3 -18q-7 -39 8 -50.5t68 -11.5q52 0 123 12l4 -94q-60 -20 -145 -20q-112 0 -153.5 40.5t-26.5 124.5
l3 17h-63l9 51h63l12 65h-65z" />
    <glyph glyph-name="perthousandonum.tnum" horiz-adv-x="1101" 
d="M264 -10l-64 45l307 485l65 -42zM330 346q-10 -58 -42.5 -86.5t-115.5 -28.5q-69 0 -97 33t-18 87l11 63q10 54 44 80t110 26q69 0 98 -31.5t20 -85.5zM153 404l-11 -63q-3 -18 6.5 -27.5t36.5 -9.5q29 0 41.5 10t16.5 32l11 63q3 18 -7.5 28t-36.5 10q-28 0 -40.5 -10.5
t-16.5 -32.5zM706 105q-10 -58 -42.5 -86.5t-115.5 -28.5q-69 0 -97 33t-18 87l11 63q10 54 44 80t110 26q69 0 98 -31.5t20 -85.5zM529 163l-11 -63q-3 -18 6.5 -27.5t36.5 -9.5q29 0 41.5 10t16.5 32l11 63q3 18 -7.5 28t-36.5 10q-28 0 -40.5 -10.5t-16.5 -32.5z
M1030 105q-10 -58 -42.5 -86.5t-115.5 -28.5q-69 0 -97 33t-18 87l11 63q10 54 44 80t110 26q69 0 98 -31.5t20 -85.5zM853 163l-11 -63q-3 -18 6.5 -27.5t36.5 -9.5q29 0 41.5 10t16.5 32l11 63q3 18 -7.5 28t-36.5 10q-28 0 -40.5 -10.5t-16.5 -32.5z" />
    <glyph glyph-name="minussmcp.tnum" 
d="M118 189v102h288v-102h-288z" />
    <glyph glyph-name="multiplysmcp.tnum" 
d="M379 53l-116 118l-117 -118l-68 69l116 118l-116 117l68 69l117 -117l116 117l68 -69l-116 -117l116 -118z" />
    <glyph glyph-name="numbersignsmcp.tnum" 
d="M515 334h-80l-34 -144h79l-16 -69h-80l-28 -121h-78l28 121h-137l-28 -121h-78l28 121h-83l17 69h82l35 144h-82l17 70h81l29 116h78l-28 -116h137l28 116h78l-28 -116h80zM220 334l-35 -144h137l35 144h-137z" />
    <glyph glyph-name="dollarsmcp.tnum" 
d="M142 -102l18 102q-68 8 -125 34l28 91q79 -29 155 -29q48 0 66 10.5t23 41.5q5 33 -9 44.5t-80 25.5q-81 17 -106.5 56t-12.5 111q13 76 47.5 103.5t118.5 32.5l18 100h96l-19 -101q62 -5 106 -19l-20 -95q-86 19 -146 19q-48 0 -63.5 -9t-20.5 -40q-5 -32 8.5 -43.5
t78.5 -26.5q89 -20 112.5 -51.5t11.5 -100.5q-15 -83 -48.5 -116t-123.5 -39l-18 -101h-95z" />
    <glyph glyph-name="percentsmcp.tnum" horiz-adv-x="757" 
d="M252 -10l-66 42l316 498l66 -42zM324 353q-10 -58 -42.5 -86.5t-115.5 -28.5q-69 0 -97 33t-18 87l12 66q10 54 44 80t110 26q69 0 98 -31.5t20 -85.5zM148 414l-12 -66q-3 -18 6.5 -27.5t36.5 -9.5q29 0 41.5 10t16.5 32l12 66q3 18 -7.5 28t-36.5 10q-28 0 -40.5 -10.5
t-16.5 -32.5zM696 105q-10 -58 -42.5 -86.5t-115.5 -28.5q-69 0 -97 33t-18 87l12 66q10 54 44 80t110 26q69 0 98 -31.5t20 -85.5zM520 166l-12 -66q-3 -18 6.5 -27.5t36.5 -9.5q29 0 41.5 10t16.5 32l12 66q3 18 -7.5 28t-36.5 10q-28 0 -40.5 -10.5t-16.5 -32.5z" />
    <glyph glyph-name="plussmcp.tnum" 
d="M311 196v-156h-97v156h-153v94h153v157h97v-157h153v-94h-153z" />
    <glyph glyph-name="zerosmcp.tnum" 
d="M216 -10q-95 0 -139.5 39t-44.5 100q0 19 3 35l36 205q15 86 69.5 123.5t170.5 37.5q90 0 137.5 -38.5t47.5 -102.5q0 -13 -3 -31l-36 -205q-14 -80 -66.5 -121.5t-174.5 -41.5zM340 170l32 182q2 12 2 21q0 52 -81 52q-50 0 -74 -18t-32 -61l-30 -171q-2 -12 -2 -24
q0 -29 16.5 -42.5t62.5 -13.5q49 0 74 18t32 57z" />
    <glyph glyph-name="onesmcp.tnum" 
d="M38 0l17 99h144l51 292l-128 -67l-43 93l202 103h112l-75 -421h144l-17 -99h-407z" />
    <glyph glyph-name="twosmcp.tnum" 
d="M36 0l16 98l141 104q101 75 123.5 95.5t27.5 48.5l4 23q2 12 2 17q0 21 -19 29.5t-70 8.5q-61 0 -146 -20l-12 99q94 27 189 27q181 0 181 -120q0 -14 -3 -30l-4 -22q-11 -63 -27.5 -93t-74.5 -73l-126 -92h194l-17 -100h-379z" />
    <glyph glyph-name="threesmcp.tnum" 
d="M202 -10q-85 0 -156 26l25 92q71 -19 136 -19q57 0 78 8.5t26 38.5l5 28q5 27 -9.5 38t-57.5 11h-132l16 97h121q40 0 57.5 13t22.5 40l4 23q5 29 -10 37t-68 8q-66 0 -130 -13l-7 93q72 19 161 19q179 0 179 -102q0 -11 -2 -25l-9 -52q-6 -35 -22 -54.5t-59 -31.5
q65 -16 65 -82q0 -7 -2 -23l-7 -41q-12 -72 -62 -100.5t-163 -28.5z" />
    <glyph glyph-name="foursmcp.tnum" 
d="M406 120l-20 -120h-115l21 120h-268l16 94l276 306h161l-55 -315h71l-15 -85h-72zM345 418l-186 -213h148z" />
    <glyph glyph-name="fivesmcp.tnum" 
d="M207 -10q-83 0 -163 25l22 91q90 -18 152 -18q53 0 74 9.5t27 39.5l4 22q6 32 -12 42.5t-69 13.5q-40 2 -146 6l52 299h341l-17 -99h-225l-18 -109q27 -1 78 -4q83 -5 114.5 -40t19.5 -103l-4 -23q-15 -90 -59.5 -121t-170.5 -31z" />
    <glyph glyph-name="sixsmcp.tnum" 
d="M230 -10q-172 0 -172 118q0 16 3 34l38 215q18 99 71 136t166 37q80 0 162 -22l-22 -94q-75 18 -136 18q-62 0 -88 -15.5t-35 -63.5l-9 -52q51 14 109 14q144 0 144 -99q0 -11 -3 -29l-6 -32q-6 -35 -12 -55t-20.5 -44t-37 -36.5t-60.5 -21t-92 -8.5zM332 142l6 33
q4 26 -7 35t-44 9q-49 0 -96 -15l-11 -63q-1 -5 -1 -14q0 -40 68 -40q45 0 62 11t23 44z" />
    <glyph glyph-name="sevensmcp.tnum" 
d="M203 0h-132l303 421h-281l19 99h398l-7 -94z" />
    <glyph glyph-name="eightsmcp.tnum" 
d="M222 -10q-180 0 -182 112q0 16 2 28l4 24q9 49 34.5 76t80.5 38q-60 41 -60 97q0 8 2 22l4 22q12 68 58.5 94.5t151.5 26.5q78 0 123 -30.5t45 -83.5q0 -8 -2 -24l-1 -6q-8 -47 -28.5 -74.5t-71.5 -46.5q76 -30 76 -93q0 -5 -2 -19l-5 -28q-13 -75 -60 -105t-169 -30z
M364 369l4 22q1 5 1 10q0 38 -69 38q-40 0 -59 -11t-23 -37l-2 -11q-1 -7 -1 -13q0 -20 15 -33t49 -28q78 24 85 63zM337 136l3 17q1 6 1 11q0 14 -11 24.5t-22.5 15.5t-43.5 16q-52 -11 -74 -23.5t-28 -42.5l-3 -18q-1 -7 -1 -14q0 -20 18 -30t62 -10q51 0 72.5 12t26.5 42
z" />
    <glyph glyph-name="ninesmcp.tnum" 
d="M309 530q86 0 129 -33.5t43 -89.5q0 -9 -3 -27l-38 -216q-18 -101 -69.5 -137.5t-167.5 -36.5q-81 0 -167 23l22 94q71 -19 141 -19q65 0 89 14t33 62l10 57q-46 -16 -109 -16q-144 0 -144 100q0 12 3 30l6 34q11 60 28.5 91.5t64 50.5t129.5 19zM207 378l-6 -33
q-4 -26 7 -35t44 -9q51 0 96 17l11 61q5 29 -10 41.5t-57 12.5q-45 0 -62 -11t-23 -44z" />
    <glyph glyph-name="lesssmcp.tnum" 
d="M431 -10l-380 221v66l379 220l40 -72l-320 -181l323 -181z" />
    <glyph glyph-name="equalsmcp.tnum" 
d="M86 303v83h353v-83h-353zM86 114v83h353v-83h-353z" />
    <glyph glyph-name="greatersmcp.tnum" 
d="M93 -10l-42 73l322 181l-319 181l40 72l379 -220v-66z" />
    <glyph glyph-name="centsmcp.tnum" 
d="M173 -80l18 99q-121 20 -121 123q0 19 3 37l29 163q14 81 54 116.5t119 42.5l18 97h100l-18 -97q50 -5 96 -18l-21 -95q-72 15 -128 15q-50 0 -73 -15t-30 -56l-25 -145q-2 -12 -2 -22q0 -27 17.5 -38t62.5 -11q70 0 128 11l5 -95q-58 -15 -115 -17l-17 -95h-100z" />
    <glyph glyph-name="sterlingsmcp.tnum" 
d="M53 215l15 84h75q-12 36 -12 71q0 84 46.5 122t153.5 38q88 0 162 -33l-23 -88q-74 23 -144 23q-39 0 -57 -14t-18 -47q0 -35 15 -72h175l-19 -84h-151q-2 -34 -20 -68.5t-50 -55.5h245l-17 -91h-397l15 86q44 19 73.5 54t34.5 75h-102z" />
    <glyph glyph-name="sectionsmcp.tnum" 
d="M230 19l-89 -29q-63 153 -63 302q0 65 10 122q10 60 45 88t115 28q87 0 159 -27l-19 -80q-88 22 -141 22q-29 0 -42.5 -11t-18.5 -37q-9 -53 -9 -110q0 -118 53 -268zM297 318l89 29q61 -145 61 -296q0 -65 -10 -122q-10 -60 -45 -88t-115 -28q-87 0 -159 27l19 80
q88 -22 141 -22q29 0 42.5 11t18.5 37q9 53 9 110q0 117 -51 262z" />
    <glyph glyph-name="yensmcp.tnum" 
d="M47 228l11 68h78l-72 224h120l80 -266l157 266h130l-145 -224h78l-11 -68h-111l-47 -72h144l-11 -67h-154l-15 -89h-122l15 89h-150l11 67h148l-23 72h-111z" />
    <glyph glyph-name="florinsmcp.tnum" 
d="M471 414q-44 14 -79 14q-32 0 -45 -11t-21 -42l-28 -109h123l-23 -98h-127l-60 -230q-20 -76 -50 -105.5t-103 -29.5q-56 0 -98 20l23 92q29 -12 59 -12q26 0 35.5 8.5t16.5 33.5l58 223h-82l27 98h82l30 119q20 78 55 110.5t112 32.5q65 0 118 -23z" />
    <glyph glyph-name="endashsmcp.tnum" 
d="M70 231l18 100h366l-18 -100h-366z" />
    <glyph glyph-name="dividesmcp.tnum" 
d="M206 358v118h113v-118h-113zM58 205v78h409v-78h-409zM206 10v118h113v-118h-113z" />
    <glyph glyph-name="Eurosmcp.tnum" 
d="M60 293l8 50h63l5 26q17 94 69 127.5t161 33.5q73 0 144 -20l-21 -92q-78 15 -133 15q-49 0 -71.5 -13t-30.5 -57l-4 -20h165l-9 -50h-164l-12 -68h165l-8 -50h-166l-2 -11q-3 -18 -3 -30q0 -25 18 -35.5t62 -10.5q66 0 134 12l5 -92q-76 -18 -155 -18q-184 0 -184 132
q0 18 4 42l2 11h-63l8 50h64l12 68h-63z" />
    <glyph glyph-name="perthousandsmcp.tnum" horiz-adv-x="1078" 
d="M252 -10l-66 42l316 498l66 -42zM324 353q-10 -58 -42.5 -86.5t-115.5 -28.5q-69 0 -97 33t-18 87l12 66q10 54 44 80t110 26q69 0 98 -31.5t20 -85.5zM148 414l-12 -66q-3 -18 6.5 -27.5t36.5 -9.5q29 0 41.5 10t16.5 32l12 66q3 18 -7.5 28t-36.5 10q-28 0 -40.5 -10.5
t-16.5 -32.5zM696 105q-10 -58 -42.5 -86.5t-115.5 -28.5q-69 0 -97 33t-18 87l12 66q10 54 44 80t110 26q69 0 98 -31.5t20 -85.5zM520 166l-12 -66q-3 -18 6.5 -27.5t36.5 -9.5q29 0 41.5 10t16.5 32l12 66q3 18 -7.5 28t-36.5 10q-28 0 -40.5 -10.5t-16.5 -32.5z
M1017 105q-10 -58 -42.5 -86.5t-115.5 -28.5q-69 0 -97 33t-18 87l12 66q10 54 44 80t110 26q69 0 98 -31.5t20 -85.5zM841 166l-12 -66q-3 -18 6.5 -27.5t36.5 -9.5q29 0 41.5 10t16.5 32l12 66q3 18 -7.5 28t-36.5 10q-28 0 -40.5 -10.5t-16.5 -32.5z" />
    <glyph glyph-name="minus.smcp" horiz-adv-x="378" 
d="M55 189v102h288v-102h-288z" />
    <glyph glyph-name="multiply.smcp" horiz-adv-x="492" 
d="M365 53l-116 118l-117 -118l-68 69l116 118l-116 117l68 69l117 -117l116 117l68 -69l-116 -117l116 -118z" />
    <glyph glyph-name="exclam.smcp" horiz-adv-x="288" 
d="M164 182h-64l-9 130l37 208h124l-37 -208zM37 0l22 124h121l-22 -124h-121z" />
    <glyph glyph-name="numbersign.smcp" horiz-adv-x="619" 
d="M585 329h-104l-31 -133h103l-19 -75h-102l-28 -121h-81l28 121h-142l-28 -121h-81l28 121h-102l19 75h101l31 133h-100l18 75h101l28 116h81l-29 -116h143l28 116h81l-28 -116h103zM258 329l-31 -133h143l31 133h-143z" />
    <glyph glyph-name="dollar.smcp" horiz-adv-x="475" 
d="M127 -102l18 102q-68 8 -125 34l28 91q79 -29 155 -29q48 0 66 10.5t23 41.5q5 33 -9 44.5t-80 25.5q-81 17 -106.5 56t-12.5 111q13 76 47.5 103.5t118.5 32.5l18 100h96l-19 -101q62 -5 106 -19l-20 -95q-86 19 -146 19q-48 0 -63.5 -9t-20.5 -40q-5 -32 8.5 -43.5
t78.5 -26.5q89 -20 112.5 -51.5t11.5 -100.5q-15 -83 -48.5 -116t-123.5 -39l-18 -101h-95z" />
    <glyph glyph-name="percent.smcp" horiz-adv-x="757" 
d="M252 -10l-66 42l316 498l66 -42zM324 353q-10 -58 -42.5 -86.5t-115.5 -28.5q-69 0 -97 33t-18 87l12 66q10 54 44 80t110 26q69 0 98 -31.5t20 -85.5zM148 414l-12 -66q-3 -18 6.5 -27.5t36.5 -9.5q29 0 41.5 10t16.5 32l12 66q3 18 -7.5 28t-36.5 10q-28 0 -40.5 -10.5
t-16.5 -32.5zM696 105q-10 -58 -42.5 -86.5t-115.5 -28.5q-69 0 -97 33t-18 87l12 66q10 54 44 80t110 26q69 0 98 -31.5t20 -85.5zM520 166l-12 -66q-3 -18 6.5 -27.5t36.5 -9.5q29 0 41.5 10t16.5 32l12 66q3 18 -7.5 28t-36.5 10q-28 0 -40.5 -10.5t-16.5 -32.5z" />
    <glyph glyph-name="ampersand.smcp" horiz-adv-x="585" 
d="M476 216l-33 -193q-86 -33 -210 -33q-95 0 -138 27t-43 82q0 13 3 30l8 46q7 41 26.5 64t61.5 30q-45 29 -45 76q0 11 2 23l6 34q13 73 56 100.5t153 27.5q87 0 167 -22l-17 -91q-88 15 -167 15q-42 0 -57 -9.5t-20 -37.5l-5 -28q-1 -7 -1 -13q0 -38 54 -38h297l-16 -90
h-82zM366 216h-120q-31 0 -47 -11.5t-21 -40.5l-5 -28q-2 -12 -2 -17q0 -19 16.5 -28.5t59.5 -9.5q52 0 97 9z" />
    <glyph glyph-name="plus.smcp" horiz-adv-x="513" 
d="M305 196v-156h-97v156h-153v94h153v157h97v-157h153v-94h-153z" />
    <glyph glyph-name="zero.smcp" horiz-adv-x="554" 
d="M230 -10q-95 0 -139.5 39t-44.5 100q0 19 3 35l36 205q15 86 69.5 123.5t170.5 37.5q90 0 137.5 -38.5t47.5 -102.5q0 -13 -3 -31l-36 -205q-14 -80 -66.5 -121.5t-174.5 -41.5zM354 170l32 182q2 12 2 21q0 52 -81 52q-50 0 -74 -18t-32 -61l-30 -171q-2 -12 -2 -24
q0 -29 16.5 -42.5t62.5 -13.5q49 0 74 18t32 57z" />
    <glyph glyph-name="one.smcp" horiz-adv-x="385" 
d="M140 0l68 386l-129 -64l-44 88l204 110h113l-92 -520h-120z" />
    <glyph glyph-name="two.smcp" horiz-adv-x="512" 
d="M21 0l16 98l141 104q101 75 123.5 95.5t27.5 48.5l4 23q2 12 2 17q0 21 -19 29.5t-70 8.5q-61 0 -146 -20l-12 99q94 27 189 27q181 0 181 -120q0 -14 -3 -30l-4 -22q-11 -63 -27.5 -93t-74.5 -73l-126 -92h194l-17 -100h-379z" />
    <glyph glyph-name="three.smcp" horiz-adv-x="483" 
d="M178 -10q-85 0 -156 26l25 92q71 -19 136 -19q57 0 78 8.5t26 38.5l5 28q5 27 -9.5 38t-57.5 11h-132l16 97h121q40 0 57.5 13t22.5 40l4 23q5 29 -10 37t-68 8q-66 0 -130 -13l-7 93q72 19 161 19q179 0 179 -102q0 -11 -2 -25l-9 -52q-6 -35 -22 -54.5t-59 -31.5
q65 -16 65 -82q0 -7 -2 -23l-7 -41q-12 -72 -62 -100.5t-163 -28.5z" />
    <glyph glyph-name="four.smcp" horiz-adv-x="537" 
d="M408 118l-21 -118h-115l21 118h-278l10 96l296 306h158l-56 -315h79l-16 -87h-78zM345 414l-195 -209h158z" />
    <glyph glyph-name="five.smcp" horiz-adv-x="494" 
d="M190 -10q-83 0 -163 25l22 91q90 -18 152 -18q53 0 74 9.5t27 39.5l4 22q6 32 -12 42.5t-69 13.5q-40 2 -146 6l52 299h341l-17 -99h-225l-18 -109q27 -1 78 -4q83 -5 114.5 -40t19.5 -103l-4 -23q-15 -90 -59.5 -121t-170.5 -31z" />
    <glyph glyph-name="six.smcp" horiz-adv-x="508" 
d="M214 -10q-172 0 -172 118q0 16 3 34l38 215q18 99 71 136t166 37q80 0 162 -22l-22 -94q-75 18 -136 18q-62 0 -88 -15.5t-35 -63.5l-9 -52q51 14 109 14q144 0 144 -99q0 -11 -3 -29l-6 -32q-6 -35 -12 -55t-20.5 -44t-37 -36.5t-60.5 -21t-92 -8.5zM316 142l6 33
q4 26 -7 35t-44 9q-49 0 -96 -15l-11 -63q-1 -5 -1 -14q0 -40 68 -40q45 0 62 11t23 44z" />
    <glyph glyph-name="seven.smcp" horiz-adv-x="463" 
d="M168 0h-132l303 421h-269l19 99h387l-8 -94z" />
    <glyph glyph-name="eight.smcp" horiz-adv-x="530" 
d="M227 -10q-180 0 -182 112q0 16 2 28l4 24q9 49 34.5 76t80.5 38q-60 41 -60 97q0 8 2 22l4 22q12 68 58.5 94.5t151.5 26.5q78 0 123 -30.5t45 -83.5q0 -8 -2 -24l-1 -6q-8 -47 -28.5 -74.5t-71.5 -46.5q76 -30 76 -93q0 -5 -2 -19l-5 -28q-13 -75 -60 -105t-169 -30z
M369 369l4 22q1 5 1 10q0 38 -69 38q-40 0 -59 -11t-23 -37l-2 -11q-1 -7 -1 -13q0 -20 15 -33t49 -28q78 24 85 63zM342 136l3 17q1 6 1 11q0 14 -11 24.5t-22.5 15.5t-43.5 16q-52 -11 -74 -23.5t-28 -42.5l-3 -18q-1 -7 -1 -14q0 -20 18 -30t62 -10q51 0 72.5 12t26.5 42
z" />
    <glyph glyph-name="nine.smcp" horiz-adv-x="506" 
d="M299 530q86 0 129 -33.5t43 -89.5q0 -9 -3 -27l-38 -216q-18 -101 -69.5 -137.5t-167.5 -36.5q-81 0 -167 23l22 94q71 -19 141 -19q65 0 89 14t33 62l10 57q-46 -16 -109 -16q-144 0 -144 100q0 12 3 30l6 34q11 60 28.5 91.5t64 50.5t129.5 19zM197 378l-6 -33
q-4 -26 7 -35t44 -9q51 0 96 17l11 61q5 29 -10 41.5t-57 12.5q-45 0 -62 -11t-23 -44z" />
    <glyph glyph-name="less.smcp" horiz-adv-x="581" 
d="M518 426l-359 -182l359 -182l-37 -71l-431 221v64l431 221z" />
    <glyph glyph-name="equal.smcp" horiz-adv-x="490" 
d="M55 305v81h395v-81h-395zM55 114v81h395v-81h-395z" />
    <glyph glyph-name="greater.smcp" horiz-adv-x="581" 
d="M422 244l-359 182l37 71l431 -221v-64l-431 -221l-37 71z" />
    <glyph glyph-name="question.smcp" horiz-adv-x="440" 
d="M209 164l-51 90l92 51q32 18 39.5 29t13.5 46q2 14 2 19q0 19 -15 26.5t-56 7.5q-55 0 -133 -14l-11 94q76 17 172 17q88 0 126.5 -25t38.5 -80q0 -11 -4 -39q-6 -34 -9 -47.5t-12 -34.5t-23.5 -34.5t-38.5 -27.5zM104 0l22 124h121l-22 -124h-121z" />
    <glyph glyph-name="at.smcp" horiz-adv-x="631" 
d="M444 363l-29 -164q9 -3 18 -3q97 0 97 132q0 60 -41.5 96.5t-122.5 36.5q-116 0 -178.5 -64.5t-62.5 -177.5q0 -162 189 -162q75 0 142 22l13 -61q-72 -28 -164 -28q-125 0 -191 61.5t-66 159.5q0 150 82.5 234.5t241.5 84.5q106 0 169.5 -55t63.5 -146q0 -83 -39 -134
t-129 -51q-55 0 -75 31q-39 -22 -82 -22q-38 0 -53.5 21.5t-9.5 57.5l13 75q8 46 31.5 63.5t76.5 17.5q49 0 106 -25zM335 336q-21 0 -29 -6.5t-11 -23.5l-14 -79q-2 -11 3 -16t19 -5q29 0 51 15l19 108q-19 7 -38 7z" />
    <glyph glyph-name="a.smcp" horiz-adv-x="568" 
d="M377 0l-14 93h-204l-45 -93h-122l261 520h156l86 -520h-118zM318 428l-113 -240h147z" />
    <glyph glyph-name="b.smcp" horiz-adv-x="540" 
d="M302 0h-267l92 520h250q130 0 130 -83q0 -11 -3 -29l-12 -67q-5 -31 -24 -48t-59 -27q34 -7 54 -29t20 -52q0 -8 -2 -20l-9 -52q-11 -61 -47.5 -87t-122.5 -26zM375 346l9 51q3 17 -6 25t-30 8h-115l-22 -123h111q26 0 37.5 8.5t15.5 30.5zM357 131l7 39q4 26 -8 36.5
t-43 10.5h-118l-22 -127h127q50 0 57 41z" />
    <glyph glyph-name="c.smcp" horiz-adv-x="480" 
d="M228 -10q-93 0 -138.5 36t-45.5 99q0 17 4 39l36 205q17 94 69 127.5t161 33.5q83 0 154 -20l-21 -97q-78 15 -143 15q-49 0 -71.5 -14.5t-29.5 -56.5l-34 -193q-3 -18 -3 -24q0 -25 18 -36t61 -11q75 0 143 12l5 -97q-76 -18 -165 -18z" />
    <glyph glyph-name="d.smcp" horiz-adv-x="558" 
d="M269 0h-234l92 520h220q173 0 173 -132q0 -20 -5 -47l-31 -176q-8 -43 -19 -70t-33.5 -50.5t-62.5 -34t-100 -10.5zM365 176l30 170q2 12 2 23q0 49 -67 49h-100l-55 -316h97q46 0 66 18.5t27 55.5z" />
    <glyph glyph-name="e.smcp" horiz-adv-x="498" 
d="M35 0l92 520h361l-18 -99h-239l-18 -106h221l-18 -99h-221l-20 -117h239l-17 -99h-362z" />
    <glyph glyph-name="f.smcp" horiz-adv-x="481" 
d="M231 421l-22 -127h224l-17 -99h-225l-34 -195h-122l92 520h364l-17 -99h-243z" />
    <glyph glyph-name="g.smcp" horiz-adv-x="542" 
d="M227 -10q-185 0 -185 125q0 16 4 38l39 221q16 90 64 123t161 33q99 0 185 -28l-20 -92q-93 18 -170 18q-50 0 -71 -13.5t-28 -52.5l-36 -203q-3 -17 -3 -24q0 -24 16.5 -35t60.5 -11q51 0 91 9l27 147h113l-41 -227q-84 -28 -207 -28z" />
    <glyph glyph-name="h.smcp" horiz-adv-x="602" 
d="M355 0l37 211h-198l-37 -211h-122l92 520h122l-36 -204h198l36 204h122l-92 -520h-122z" />
    <glyph glyph-name="i.smcp" horiz-adv-x="292" 
d="M40 0l92 520h122l-92 -520h-122z" />
    <glyph glyph-name="j.smcp" horiz-adv-x="278" 
d="M4 -170l-65 82q83 68 91 80q5 7 7 19l90 509h123l-91 -515q-8 -42 -32 -70t-123 -105z" />
    <glyph glyph-name="k.smcp" horiz-adv-x="565" 
d="M359 0l-137 266l206 254h149l-221 -258l140 -262h-137zM35 0l92 520h122l-92 -520h-122z" />
    <glyph glyph-name="l.smcp" horiz-adv-x="467" 
d="M35 0l92 520h122l-73 -414h228l-18 -106h-351z" />
    <glyph glyph-name="m.smcp" horiz-adv-x="727" 
d="M491 0l43 303l-144 -238h-118l-59 248l-64 -313h-120l113 520h129l79 -338l198 338h129l-66 -520h-120z" />
    <glyph glyph-name="n.smcp" horiz-adv-x="624" 
d="M350 0l-134 369l-65 -369h-116l92 520h148l134 -372l66 372h116l-92 -520h-149z" />
    <glyph glyph-name="o.smcp" horiz-adv-x="571" 
d="M239 -10q-98 0 -146 39t-48 103q0 14 3 32l35 199q16 89 73.5 128t177.5 39q93 0 143 -41t50 -107q0 -14 -3 -30l-35 -198q-15 -83 -68.5 -123.5t-181.5 -40.5zM369 164l30 170q4 24 4 36q0 30 -19.5 44t-68.5 14q-60 0 -83 -20.5t-31 -67.5l-31 -176q-2 -12 -2 -17
q0 -55 88 -55q100 0 113 72z" />
    <glyph glyph-name="p.smcp" horiz-adv-x="528" 
d="M295 147h-112l-26 -147h-122l92 520h232q160 0 160 -113q0 -14 -4 -38l-14 -80q-14 -81 -55.5 -111.5t-150.5 -30.5zM383 300l12 69q2 10 2 18q0 19 -13 26.5t-44 7.5h-109l-31 -175h108q37 0 53.5 13.5t21.5 40.5z" />
    <glyph glyph-name="q.smcp" horiz-adv-x="571" 
d="M396 -81l-16 -85q-137 22 -266 28l14 81q128 3 268 -24zM239 -10q-98 0 -146 39t-48 103q0 14 3 32l35 199q16 89 73.5 128t177.5 39q93 0 143 -41t50 -107q0 -14 -3 -30l-35 -198q-15 -83 -68.5 -123.5t-181.5 -40.5zM369 164l30 170q4 24 4 36q0 30 -19.5 44t-68.5 14
q-60 0 -83 -20.5t-31 -67.5l-31 -176q-2 -12 -2 -17q0 -55 88 -55q100 0 113 72z" />
    <glyph glyph-name="r.smcp" horiz-adv-x="582" 
d="M377 0l-76 152h-117l-27 -152h-122l92 520h242q160 0 160 -113q0 -16 -4 -38l-13 -74q-16 -89 -90 -122l86 -173h-131zM393 300l12 69q2 12 2 18q0 19 -13 26.5t-44 7.5h-119l-30 -172h118q37 0 53 12t21 39z" />
    <glyph glyph-name="s.smcp" horiz-adv-x="494" 
d="M203 -10q-90 0 -181 36l27 93q91 -29 166 -29q50 0 67 10.5t22 42.5q6 35 -10 48t-84 26q-61 12 -91 35t-34 56.5t3 78.5q16 86 59.5 114.5t155.5 28.5q86 0 167 -25l-19 -97q-82 22 -156 22q-49 0 -64.5 -9.5t-21.5 -41.5q-7 -36 7.5 -47.5t80.5 -23.5
q94 -17 118.5 -53.5t11.5 -104.5q-17 -94 -59.5 -127t-164.5 -33z" />
    <glyph glyph-name="t.smcp" horiz-adv-x="492" 
d="M335 414l-73 -414h-122l73 414h-159l19 106h438l-18 -106h-158z" />
    <glyph glyph-name="u.smcp" horiz-adv-x="587" 
d="M248 -10q-97 0 -144.5 37t-47.5 104q0 17 4 39l62 350h122l-63 -356q-1 -8 -1 -17q0 -52 86 -52q49 0 75.5 15.5t33.5 53.5l63 356h121l-65 -367q-7 -41 -20 -68.5t-40 -50t-72.5 -33.5t-113.5 -11z" />
    <glyph glyph-name="v.smcp" horiz-adv-x="532" 
d="M310 0h-173l-75 520h120l56 -426l192 426h128z" />
    <glyph glyph-name="w.smcp" horiz-adv-x="819" 
d="M620 0h-152l-29 397l-172 -397h-144l-47 520h114l25 -395l177 395h132l41 -392l164 392h124z" />
    <glyph glyph-name="x.smcp" horiz-adv-x="569" 
d="M-8 0l230 263l-128 257h129l84 -176l139 176h145l-227 -265l131 -255h-131l-86 171l-143 -171h-143z" />
    <glyph glyph-name="y.smcp" horiz-adv-x="495" 
d="M294 137l-24 -137h-122l26 151l-119 369h120l80 -266l157 266h130z" />
    <glyph glyph-name="z.smcp" horiz-adv-x="528" 
d="M44 0l3 88l309 338h-261l16 94h392l-3 -88l-309 -338h262l-16 -94h-393z" />
    <glyph glyph-name="cent.smcp" horiz-adv-x="459" 
d="M141 -80l18 99q-121 20 -121 123q0 19 3 37l29 163q14 81 54 116.5t119 42.5l18 97h100l-18 -97q50 -5 96 -18l-21 -95q-72 15 -128 15q-50 0 -73 -15t-30 -56l-25 -145q-2 -12 -2 -22q0 -27 17.5 -38t62.5 -11q70 0 128 11l5 -95q-58 -15 -115 -17l-17 -95h-100z" />
    <glyph glyph-name="sterling.smcp" horiz-adv-x="531" 
d="M58 215l15 84h75q-12 36 -12 71q0 84 46.5 122t153.5 38q88 0 162 -33l-23 -88q-74 23 -144 23q-39 0 -57 -14t-18 -47q0 -35 15 -72h175l-19 -84h-151q-2 -34 -20 -68.5t-50 -55.5h245l-17 -91h-397l15 86q44 19 73.5 54t34.5 75h-102z" />
    <glyph glyph-name="section.smcp" horiz-adv-x="524" 
d="M231 19l-89 -29q-63 153 -63 302q0 65 10 122q10 60 45 88t115 28q87 0 159 -27l-19 -80q-88 22 -141 22q-29 0 -42.5 -11t-18.5 -37q-9 -53 -9 -110q0 -118 53 -268zM298 318l89 29q61 -145 61 -296q0 -65 -10 -122q-10 -60 -45 -88t-115 -28q-87 0 -159 27l19 80
q88 -22 141 -22q29 0 42.5 11t18.5 37q9 53 9 110q0 117 -51 262z" />
    <glyph glyph-name="paragraph.smcp" horiz-adv-x="522" 
d="M55 260q0 120 70.5 190t187.5 70l-77 -436q-80 0 -130.5 49.5t-50.5 126.5zM212 -206l-50 68q101 78 120.5 99t25.5 56l88 503h93l-92 -526q-9 -50 -36 -79.5t-149 -120.5z" />
    <glyph glyph-name="germandbls.smcp" horiz-adv-x="988" 
d="M203 -10q-90 0 -181 36l27 93q91 -29 166 -29q50 0 67 10.5t22 42.5q6 35 -10 48t-84 26q-61 12 -91 35t-34 56.5t3 78.5q16 86 59.5 114.5t155.5 28.5q86 0 167 -25l-19 -97q-82 22 -156 22q-49 0 -64.5 -9.5t-21.5 -41.5q-7 -36 7.5 -47.5t80.5 -23.5
q94 -17 118.5 -53.5t11.5 -104.5q-17 -94 -59.5 -127t-164.5 -33zM697 -10q-90 0 -181 36l27 93q91 -29 166 -29q50 0 67 10.5t22 42.5q6 35 -10 48t-84 26q-61 12 -91 35t-34 56.5t3 78.5q16 86 59.5 114.5t155.5 28.5q86 0 167 -25l-19 -97q-82 22 -156 22
q-49 0 -64.5 -9.5t-21.5 -41.5q-7 -36 7.5 -47.5t80.5 -23.5q94 -17 118.5 -53.5t11.5 -104.5q-17 -94 -59.5 -127t-164.5 -33z" />
    <glyph glyph-name="yen.smcp" horiz-adv-x="534" 
d="M56 228l11 68h78l-72 224h120l80 -266l157 266h130l-145 -224h78l-11 -68h-111l-47 -72h144l-11 -67h-154l-15 -89h-122l15 89h-150l11 67h148l-23 72h-111z" />
    <glyph glyph-name="ae.smcp" horiz-adv-x="759" 
d="M377 0l-14 93h-204l-45 -93h-122l261 520h496l-18 -99h-306l18 -106h252l-18 -99h-218l19 -117h197l-17 -99h-281zM318 428l-113 -240h147z" />
    <glyph glyph-name="oslash.smcp" horiz-adv-x="571" 
d="M25 -34l57 72q-37 36 -37 94q0 14 3 32l35 199q16 89 73.5 128t177.5 39q73 0 121 -27l62 77l32 -26l-61 -76q39 -38 39 -96q0 -14 -3 -30l-35 -198q-15 -83 -68.5 -123.5t-181.5 -40.5q-75 0 -123 24l-59 -74zM168 147v-3l215 269q-20 15 -68 15q-60 0 -83 -20.5
t-31 -67.5l-31 -176q-2 -12 -2 -17zM369 164l30 170q4 24 4 36v2l-214 -267q19 -13 67 -13q100 0 113 72z" />
    <glyph glyph-name="questiondown.smcp" horiz-adv-x="435" 
d="M244 356l51 -90l-92 -51q-32 -18 -39.5 -29t-13.5 -46q-2 -14 -2 -19q0 -19 15 -26.5t56 -7.5q55 0 133 14l11 -94q-77 -17 -172 -17q-88 0 -126.5 25t-38.5 80q0 11 4 39q6 34 9 47.5t12 34.5t23.5 34.5t38.5 27.5zM349 520l-22 -124h-121l22 124h121z" />
    <glyph glyph-name="exclamdown.smcp" horiz-adv-x="290" 
d="M128 338h64l9 -130l-37 -208h-124l37 208zM255 520l-22 -124h-121l22 124h121z" />
    <glyph glyph-name="florin.smcp" horiz-adv-x="484" 
d="M462 414q-44 14 -79 14q-32 0 -45 -11t-21 -42l-28 -109h123l-23 -98h-127l-60 -230q-20 -76 -50 -105.5t-103 -29.5q-56 0 -98 20l23 92q29 -12 59 -12q26 0 35.5 8.5t16.5 33.5l58 223h-82l27 98h82l30 119q20 78 55 110.5t112 32.5q65 0 118 -23z" />
    <glyph glyph-name="oe.smcp" horiz-adv-x="802" 
d="M701 0h-460q-98 0 -146 39t-48 103q0 14 3 32l31 179q16 89 73.5 128t177.5 39h460l-18 -99h-239l-18 -106h221l-18 -99h-221l-20 -117h239zM170 157q0 -55 88 -55h99l56 316h-100q-60 0 -83 -20.5t-31 -67.5l-27 -156q-2 -12 -2 -17z" />
    <glyph glyph-name="endash.smcp" horiz-adv-x="486" 
d="M66 231l18 100h366l-18 -100h-366z" />
    <glyph glyph-name="divide.smcp" horiz-adv-x="539" 
d="M213 358v118h113v-118h-113zM65 205v78h409v-78h-409zM213 10v118h113v-118h-113z" />
    <glyph glyph-name="Euro.smcp" horiz-adv-x="494" 
d="M44 293l8 50h63l5 26q17 94 69 127.5t161 33.5q73 0 144 -20l-21 -92q-78 15 -133 15q-49 0 -71.5 -13t-30.5 -57l-4 -20h165l-9 -50h-164l-12 -68h165l-8 -50h-166l-2 -11q-3 -18 -3 -30q0 -25 18 -35.5t62 -10.5q66 0 134 12l5 -92q-76 -18 -155 -18q-184 0 -184 132
q0 18 4 42l2 11h-63l8 50h64l12 68h-63z" />
    <glyph glyph-name="fi.smcp" horiz-adv-x="773" 
d="M231 421l-22 -127h224l-17 -99h-225l-34 -195h-122l92 520h364l-17 -99h-243zM521 0l92 520h122l-92 -520h-122z" />
    <glyph glyph-name="fl.smcp" horiz-adv-x="948" 
d="M231 421l-22 -127h224l-17 -99h-225l-34 -195h-122l92 520h364l-17 -99h-243zM516 0l92 520h122l-73 -414h228l-18 -106h-351z" />
    <glyph glyph-name="perthousand.smcp" horiz-adv-x="1078" 
d="M252 -10l-66 42l316 498l66 -42zM324 353q-10 -58 -42.5 -86.5t-115.5 -28.5q-69 0 -97 33t-18 87l12 66q10 54 44 80t110 26q69 0 98 -31.5t20 -85.5zM148 414l-12 -66q-3 -18 6.5 -27.5t36.5 -9.5q29 0 41.5 10t16.5 32l12 66q3 18 -7.5 28t-36.5 10q-28 0 -40.5 -10.5
t-16.5 -32.5zM696 105q-10 -58 -42.5 -86.5t-115.5 -28.5q-69 0 -97 33t-18 87l12 66q10 54 44 80t110 26q69 0 98 -31.5t20 -85.5zM520 166l-12 -66q-3 -18 6.5 -27.5t36.5 -9.5q29 0 41.5 10t16.5 32l12 66q3 18 -7.5 28t-36.5 10q-28 0 -40.5 -10.5t-16.5 -32.5z
M1017 105q-10 -58 -42.5 -86.5t-115.5 -28.5q-69 0 -97 33t-18 87l12 66q10 54 44 80t110 26q69 0 98 -31.5t20 -85.5zM841 166l-12 -66q-3 -18 6.5 -27.5t36.5 -9.5q29 0 41.5 10t16.5 32l12 66q3 18 -7.5 28t-36.5 10q-28 0 -40.5 -10.5t-16.5 -32.5z" />
    <glyph glyph-name="dotlessi.smcp" horiz-adv-x="292" 
d="M40 0l92 520h122l-92 -520h-122z" />
    <glyph glyph-name="acute.smcp" horiz-adv-x="296" 
d="M171 568l-36 65q79 43 136 83l40 -72q-62 -42 -140 -76z" />
    <glyph glyph-name="breve.smcp" horiz-adv-x="374" 
d="M234 569q-52 0 -86.5 29.5t-37.5 71.5l62 25q13 -57 71 -57q29 0 46.5 14.5t31.5 45.5l58 -30q-31 -99 -145 -99z" />
    <glyph glyph-name="caron.smcp" horiz-adv-x="344" 
d="M110 650l38 54q44 -22 84 -52q40 31 88 52l34 -58q-79 -44 -136 -86q-43 43 -108 90z" />
    <glyph glyph-name="cedilla.smcp" horiz-adv-x="289" 
d="M62 -200q-34 0 -72 15l15 48q32 -10 58 -10q57 0 57 34q0 20 -29 20q-27 0 -49 -2l-14 16l36 94h54l-24 -70q18 3 32 3q28 0 43 -16.5t15 -39.5q0 -92 -122 -92z" />
    <glyph glyph-name="circumflex.smcp" horiz-adv-x="343" 
d="M353 616l-38 -54q-47 24 -84 52q-40 -31 -87 -52l-34 58q79 45 136 86q40 -42 107 -90z" />
    <glyph glyph-name="commaaccent.smcp" horiz-adv-x="317" 
d="M68 -177l23 126h117l-24 -134l-78 -101l-45 32l53 77h-46z" />
    <glyph glyph-name="dieresis.smcp" horiz-adv-x="412" 
d="M309 579l17 100h101l-17 -100h-101zM110 579l17 100h101l-17 -100h-101z" />
    <glyph glyph-name="dotaccent.smcp" horiz-adv-x="217" 
d="M110 576l24 137l123 17l-24 -136z" />
    <glyph glyph-name="grave.smcp" horiz-adv-x="302" 
d="M277 626l-45 -59q-74 43 -122 89l52 63q55 -51 115 -93z" />
    <glyph glyph-name="hungarumlaut.smcp" horiz-adv-x="429" 
d="M157 558l-47 58q52 41 104 92l52 -64q-42 -39 -109 -86zM335 558l-47 58q52 41 104 92l52 -64q-42 -39 -109 -86z" />
    <glyph glyph-name="macron.smcp" horiz-adv-x="350" 
d="M105 582l14 80h246l-14 -80h-246z" />
    <glyph glyph-name="ogonek.smcp" horiz-adv-x="323" 
d="M154 -135l3 -59q-32 -13 -71 -13q-86 0 -86 63q0 46 38 79.5t108 64.5h52q-61 -41 -84.5 -66t-23.5 -50q0 -23 30 -23q19 0 34 4z" />
    <glyph glyph-name="ring.smcp" horiz-adv-x="273" 
d="M187 557q-32 0 -52 18.5t-20 47.5q0 47 25.5 72t73.5 25q34 0 54 -18.5t20 -44.5q0 -44 -24.5 -72t-76.5 -28zM208 675q-19 0 -30 -12t-11 -33q0 -27 27 -27q41 0 41 45q0 27 -27 27z" />
    <glyph glyph-name="tilde.smcp" horiz-adv-x="412" 
d="M325 573q-28 0 -60 21t-48 21q-23 0 -58 -42l-44 41q41 77 108 77q25 0 60.5 -21.5t50.5 -21.5q28 0 47 37l51 -28q-19 -41 -43 -62.5t-64 -21.5z" />
    <glyph glyph-name="aacute.smcp" horiz-adv-x="568" 
d="M377 0l-14 93h-204l-45 -93h-122l261 520h156l86 -520h-118zM318 428l-113 -240h147zM336 568l-36 65q79 43 136 83l40 -72q-62 -42 -140 -76z" />
    <glyph glyph-name="aeacute.smcp" horiz-adv-x="759" 
d="M377 0l-14 93h-204l-45 -93h-122l261 520h496l-18 -99h-306l18 -106h252l-18 -99h-218l19 -117h197l-17 -99h-281zM318 428l-113 -240h147zM356 568l-36 65q79 43 136 83l40 -72q-62 -42 -140 -76z" />
    <glyph glyph-name="abreve.smcp" horiz-adv-x="568" 
d="M377 0l-14 93h-204l-45 -93h-122l261 520h156l86 -520h-118zM318 428l-113 -240h147zM342 569q-52 0 -86.5 29.5t-37.5 71.5l62 25q13 -57 71 -57q29 0 46.5 14.5t31.5 45.5l58 -30q-31 -99 -145 -99z" />
    <glyph glyph-name="acircumflex.smcp" horiz-adv-x="568" 
d="M377 0l-14 93h-204l-45 -93h-122l261 520h156l86 -520h-118zM318 428l-113 -240h147zM467 616l-38 -54q-47 24 -84 52q-40 -31 -87 -52l-34 58q79 45 136 86q40 -42 107 -90z" />
    <glyph glyph-name="adieresis.smcp" horiz-adv-x="568" 
d="M377 0l-14 93h-204l-45 -93h-122l261 520h156l86 -520h-118zM318 428l-113 -240h147zM395 579l17 100h101l-17 -100h-101zM196 579l17 100h101l-17 -100h-101z" />
    <glyph glyph-name="agrave.smcp" horiz-adv-x="568" 
d="M377 0l-14 93h-204l-45 -93h-122l261 520h156l86 -520h-118zM318 428l-113 -240h147zM394 626l-45 -59q-74 43 -122 89l52 63q55 -51 115 -93z" />
    <glyph glyph-name="amacron.smcp" horiz-adv-x="568" 
d="M377 0l-14 93h-204l-45 -93h-122l261 520h156l86 -520h-118zM318 428l-113 -240h147zM214 582l14 80h246l-14 -80h-246z" />
    <glyph glyph-name="aogonek.smcp" horiz-adv-x="568" 
d="M377 0l-14 93h-204l-45 -93h-122l261 520h156l86 -520q-61 -41 -84.5 -66t-23.5 -50q0 -23 30 -23q19 0 34 4l3 -59q-32 -13 -71 -13q-86 0 -86 63q0 80 152 144h-72zM318 428l-113 -240h147z" />
    <glyph glyph-name="atilde.smcp" horiz-adv-x="568" 
d="M377 0l-14 93h-204l-45 -93h-122l261 520h156l86 -520h-118zM318 428l-113 -240h147zM395 573q-28 0 -60 21t-48 21q-23 0 -58 -42l-44 41q41 77 108 77q25 0 60.5 -21.5t50.5 -21.5q28 0 47 37l51 -28q-19 -41 -43 -62.5t-64 -21.5z" />
    <glyph glyph-name="aring.smcp" horiz-adv-x="568" 
d="M377 0l-14 93h-204l-45 -93h-122l261 520h156l86 -520h-118zM318 428l-113 -240h147zM338 557q-32 0 -52 18.5t-20 47.5q0 47 25.5 72t73.5 25q34 0 54 -18.5t20 -44.5q0 -44 -24.5 -72t-76.5 -28zM359 675q-19 0 -30 -12t-11 -33q0 -27 27 -27q41 0 41 45q0 27 -27 27z
" />
    <glyph glyph-name="aringacute.smcp" horiz-adv-x="568" 
d="M341 550q-31 0 -50.5 18t-19.5 46q0 44 25 68.5t71 24.5q33 0 52.5 -17.5t19.5 -43.5q0 -42 -24 -69t-74 -27zM361 664q-18 0 -29 -12t-11 -33q0 -26 27 -26q40 0 40 45q0 26 -27 26zM373 726l-33 58q68 39 118 74l37 -65q-55 -37 -122 -67zM377 0l-14 93h-204l-45 -93
h-122l261 520h156l86 -520h-118zM318 428l-113 -240h147z" />
    <glyph glyph-name="cacute.smcp" horiz-adv-x="480" 
d="M228 -10q-93 0 -138.5 36t-45.5 99q0 17 4 39l36 205q17 94 69 127.5t161 33.5q83 0 154 -20l-21 -97q-78 15 -143 15q-49 0 -71.5 -14.5t-29.5 -56.5l-34 -193q-3 -18 -3 -24q0 -25 18 -36t61 -11q75 0 143 12l5 -97q-76 -18 -165 -18zM271 568l-36 65q79 43 136 83
l40 -72q-62 -42 -140 -76z" />
    <glyph glyph-name="ccaron.smcp" horiz-adv-x="480" 
d="M228 -10q-93 0 -138.5 36t-45.5 99q0 17 4 39l36 205q17 94 69 127.5t161 33.5q83 0 154 -20l-21 -97q-78 15 -143 15q-49 0 -71.5 -14.5t-29.5 -56.5l-34 -193q-3 -18 -3 -24q0 -25 18 -36t61 -11q75 0 143 12l5 -97q-76 -18 -165 -18zM204 650l38 54q44 -22 84 -52
q40 31 88 52l34 -58q-79 -44 -136 -86q-43 43 -108 90z" />
    <glyph glyph-name="ccedilla.smcp" horiz-adv-x="480" 
d="M208 -200q-34 0 -72 15l15 48q32 -10 58 -10q57 0 57 34q0 20 -29 20q-27 0 -49 -2l-14 16l27 70q-157 10 -157 134q0 17 4 39l36 205q17 94 69 127.5t161 33.5q83 0 154 -20l-21 -97q-78 15 -143 15q-49 0 -71.5 -14.5t-29.5 -56.5l-34 -193q-3 -18 -3 -24q0 -25 18 -36
t61 -11q75 0 143 12l5 -97q-64 -15 -138 -17l-15 -46q18 3 32 3q28 0 43 -16.5t15 -39.5q0 -92 -122 -92z" />
    <glyph glyph-name="ccircumflex.smcp" horiz-adv-x="480" 
d="M228 -10q-93 0 -138.5 36t-45.5 99q0 17 4 39l36 205q17 94 69 127.5t161 33.5q83 0 154 -20l-21 -97q-78 15 -143 15q-49 0 -71.5 -14.5t-29.5 -56.5l-34 -193q-3 -18 -3 -24q0 -25 18 -36t61 -11q75 0 143 12l5 -97q-76 -18 -165 -18zM441 616l-38 -54q-47 24 -84 52
q-40 -31 -87 -52l-34 58q79 45 136 86q40 -42 107 -90z" />
    <glyph glyph-name="cdotaccent.smcp" horiz-adv-x="480" 
d="M228 -10q-93 0 -138.5 36t-45.5 99q0 17 4 39l36 205q17 94 69 127.5t161 33.5q83 0 154 -20l-21 -97q-78 15 -143 15q-49 0 -71.5 -14.5t-29.5 -56.5l-34 -193q-3 -18 -3 -24q0 -25 18 -36t61 -11q75 0 143 12l5 -97q-76 -18 -165 -18zM254 576l24 137l123 17l-24 -136z
" />
    <glyph glyph-name="dcaron.smcp" horiz-adv-x="558" 
d="M269 0h-234l92 520h220q173 0 173 -132q0 -20 -5 -47l-31 -176q-8 -43 -19 -70t-33.5 -50.5t-62.5 -34t-100 -10.5zM365 176l30 170q2 12 2 23q0 49 -67 49h-100l-55 -316h97q46 0 66 18.5t27 55.5zM220 650l38 54q44 -22 84 -52q40 31 88 52l34 -58q-79 -44 -136 -86
q-43 43 -108 90z" />
    <glyph glyph-name="dcroat.smcp" horiz-adv-x="579" 
d="M44 220l14 82h51l39 218h220q173 0 173 -132q0 -20 -5 -47l-31 -176q-8 -43 -19 -70t-33.5 -50.5t-62.5 -34t-100 -10.5h-234l39 220h-51zM386 176l30 170q2 12 2 23q0 49 -67 49h-100l-20 -116h83l-14 -82h-84l-20 -118h97q46 0 66 18.5t27 55.5z" />
    <glyph glyph-name="eacute.smcp" horiz-adv-x="498" 
d="M35 0l92 520h361l-18 -99h-239l-18 -106h221l-18 -99h-221l-20 -117h239l-17 -99h-362zM277 568l-36 65q79 43 136 83l40 -72q-62 -42 -140 -76z" />
    <glyph glyph-name="ebreve.smcp" horiz-adv-x="498" 
d="M35 0l92 520h361l-18 -99h-239l-18 -106h221l-18 -99h-221l-20 -117h239l-17 -99h-362zM321 569q-52 0 -86.5 29.5t-37.5 71.5l62 25q13 -57 71 -57q29 0 46.5 14.5t31.5 45.5l58 -30q-31 -99 -145 -99z" />
    <glyph glyph-name="ecaron.smcp" horiz-adv-x="498" 
d="M35 0l92 520h361l-18 -99h-239l-18 -106h221l-18 -99h-221l-20 -117h239l-17 -99h-362zM209 650l38 54q44 -22 84 -52q40 31 88 52l34 -58q-79 -44 -136 -86q-43 43 -108 90z" />
    <glyph glyph-name="ecircumflex.smcp" horiz-adv-x="498" 
d="M35 0l92 520h361l-18 -99h-239l-18 -106h221l-18 -99h-221l-20 -117h239l-17 -99h-362zM444 616l-38 -54q-47 24 -84 52q-40 -31 -87 -52l-34 58q79 45 136 86q40 -42 107 -90z" />
    <glyph glyph-name="edieresis.smcp" horiz-adv-x="498" 
d="M35 0l92 520h361l-18 -99h-239l-18 -106h221l-18 -99h-221l-20 -117h239l-17 -99h-362zM366 579l17 100h101l-17 -100h-101zM167 579l17 100h101l-17 -100h-101z" />
    <glyph glyph-name="edotaccent.smcp" horiz-adv-x="498" 
d="M35 0l92 520h361l-18 -99h-239l-18 -106h221l-18 -99h-221l-20 -117h239l-17 -99h-362zM263 576l24 137l123 17l-24 -136z" />
    <glyph glyph-name="egrave.smcp" horiz-adv-x="498" 
d="M35 0l92 520h361l-18 -99h-239l-18 -106h221l-18 -99h-221l-20 -117h239l-17 -99h-362zM378 626l-45 -59q-74 43 -122 89l52 63q55 -51 115 -93z" />
    <glyph glyph-name="emacron.smcp" horiz-adv-x="498" 
d="M35 0l92 520h361l-18 -99h-239l-18 -106h221l-18 -99h-221l-20 -117h239l-17 -99h-362zM192 582l14 80h246l-14 -80h-246z" />
    <glyph glyph-name="eng.smcp" horiz-adv-x="626" 
d="M350 0l-134 369l-65 -369h-116l92 520h148l134 -372l66 372h116l-93 -526q-8 -42 -32 -70t-123 -105l-56 72q67 54 82.5 71t18.5 38h-38z" />
    <glyph glyph-name="eogonek.smcp" horiz-adv-x="498" 
d="M35 0l92 520h361l-18 -99h-239l-18 -106h221l-18 -99h-221l-20 -117h239l-17 -99h-52q-61 -41 -84.5 -66t-23.5 -50q0 -23 30 -23q19 0 34 4l3 -59q-32 -13 -71 -13q-86 0 -86 63q0 46 38 79.5t108 64.5h-258z" />
    <glyph glyph-name="eth.smcp" horiz-adv-x="579" 
d="M44 220l14 82h51l39 218h220q173 0 173 -132q0 -20 -5 -47l-31 -176q-8 -43 -19 -70t-33.5 -50.5t-62.5 -34t-100 -10.5h-234l39 220h-51zM386 176l30 170q2 12 2 23q0 49 -67 49h-100l-20 -116h83l-14 -82h-84l-20 -118h97q46 0 66 18.5t27 55.5z" />
    <glyph glyph-name="gbreve.smcp" horiz-adv-x="542" 
d="M227 -10q-185 0 -185 125q0 16 4 38l39 221q16 90 64 123t161 33q99 0 185 -28l-20 -92q-93 18 -170 18q-50 0 -71 -13.5t-28 -52.5l-36 -203q-3 -17 -3 -24q0 -24 16.5 -35t60.5 -11q51 0 91 9l27 147h113l-41 -227q-84 -28 -207 -28zM338 569q-52 0 -86.5 29.5
t-37.5 71.5l62 25q13 -57 71 -57q29 0 46.5 14.5t31.5 45.5l58 -30q-31 -99 -145 -99z" />
    <glyph glyph-name="gcircumflex.smcp" horiz-adv-x="542" 
d="M227 -10q-185 0 -185 125q0 16 4 38l39 221q16 90 64 123t161 33q99 0 185 -28l-20 -92q-93 18 -170 18q-50 0 -71 -13.5t-28 -52.5l-36 -203q-3 -17 -3 -24q0 -24 16.5 -35t60.5 -11q51 0 91 9l27 147h113l-41 -227q-84 -28 -207 -28zM449 616l-38 -54q-47 24 -84 52
q-40 -31 -87 -52l-34 58q79 45 136 86q40 -42 107 -90z" />
    <glyph glyph-name="gcommaaccent.smcp" horiz-adv-x="542" 
d="M227 -10q-185 0 -185 125q0 16 4 38l39 221q16 90 64 123t161 33q99 0 185 -28l-20 -92q-93 18 -170 18q-50 0 -71 -13.5t-28 -52.5l-36 -203q-3 -17 -3 -24q0 -24 16.5 -35t60.5 -11q51 0 91 9l27 147h113l-41 -227q-84 -28 -207 -28zM160 -177l23 126h117l-24 -134
l-78 -101l-45 32l53 77h-46z" />
    <glyph glyph-name="gdotaccent.smcp" horiz-adv-x="542" 
d="M227 -10q-185 0 -185 125q0 16 4 38l39 221q16 90 64 123t161 33q99 0 185 -28l-20 -92q-93 18 -170 18q-50 0 -71 -13.5t-28 -52.5l-36 -203q-3 -17 -3 -24q0 -24 16.5 -35t60.5 -11q51 0 91 9l27 147h113l-41 -227q-84 -28 -207 -28zM275 576l24 137l123 17l-24 -136z
" />
    <glyph glyph-name="hbar.smcp" horiz-adv-x="612" 
d="M46 387l10 55h62l14 78h122l-14 -78h198l14 78h122l-14 -78h63l-9 -55h-64l-68 -387h-122l37 211h-198l-37 -211h-122l68 387h-62zM218 316h198l12 71h-198z" />
    <glyph glyph-name="hcircumflex.smcp" horiz-adv-x="602" 
d="M355 0l37 211h-198l-37 -211h-122l92 520h122l-36 -204h198l36 204h122l-92 -520h-122zM483 616l-38 -54q-47 24 -84 52q-40 -31 -87 -52l-34 58q79 45 136 86q40 -42 107 -90z" />
    <glyph glyph-name="iacute.smcp" horiz-adv-x="292" 
d="M40 0l92 520h122l-92 -520h-122zM190 568l-36 65q79 43 136 83l40 -72q-62 -42 -140 -76z" />
    <glyph glyph-name="ibreve.smcp" horiz-adv-x="292" 
d="M207 569q-52 0 -86.5 29.5t-37.5 71.5l62 25q13 -57 71 -57q29 0 46.5 14.5t31.5 45.5l58 -30q-31 -99 -145 -99zM40 0l92 520h122l-92 -520h-122z" />
    <glyph glyph-name="icircumflex.smcp" horiz-adv-x="292" 
d="M40 0l92 520h122l-92 -520h-122zM333 616l-38 -54q-47 24 -84 52q-40 -31 -87 -52l-34 58q79 45 136 86q40 -42 107 -90z" />
    <glyph glyph-name="idieresis.smcp" horiz-adv-x="292" 
d="M40 0l92 520h122l-92 -520h-122zM254 579l17 100h101l-17 -100h-101zM55 579l17 100h101l-17 -100h-101z" />
    <glyph glyph-name="igrave.smcp" horiz-adv-x="292" 
d="M40 0l92 520h122l-92 -520h-122zM257 626l-45 -59q-74 43 -122 89l52 63q55 -51 115 -93z" />
    <glyph glyph-name="imacron.smcp" horiz-adv-x="292" 
d="M82 582l14 80h246l-14 -80h-246zM40 0l92 520h122l-92 -520h-122z" />
    <glyph glyph-name="iogonek.smcp" horiz-adv-x="292" 
d="M40 0l92 520h122l-92 -520q-61 -41 -84.5 -66t-23.5 -50q0 -23 30 -23q19 0 34 4l3 -59q-32 -13 -71 -13q-86 0 -86 63q0 46 38 79.5t108 64.5h-70z" />
    <glyph glyph-name="itilde.smcp" horiz-adv-x="292" 
d="M261 573q-28 0 -60 21t-48 21q-23 0 -58 -42l-44 41q41 77 108 77q25 0 60.5 -21.5t50.5 -21.5q28 0 47 37l51 -28q-19 -41 -43 -62.5t-64 -21.5zM40 0l92 520h122l-92 -520h-122z" />
    <glyph glyph-name="ij.smcp" horiz-adv-x="572" 
d="M40 0l92 520h122l-92 -520h-122zM298 -170l-65 82q83 68 91 80q5 7 7 19l90 509h123l-91 -515q-8 -42 -32 -70t-123 -105z" />
    <glyph glyph-name="jcircumflex.smcp" horiz-adv-x="278" 
d="M4 -170l-65 82q83 68 91 80q5 7 7 19l90 509h123l-91 -515q-8 -42 -32 -70t-123 -105zM329 616l-38 -54q-47 24 -84 52q-40 -31 -87 -52l-34 58q79 45 136 86q40 -42 107 -90z" />
    <glyph glyph-name="kcommaaccent.smcp" horiz-adv-x="565" 
d="M359 0l-137 266l206 254h149l-221 -258l140 -262h-137zM35 0l92 520h122l-92 -520h-122zM165 -177l23 126h117l-24 -134l-78 -101l-45 32l53 77h-46z" />
    <glyph glyph-name="lacute.smcp" horiz-adv-x="467" 
d="M35 0l92 520h122l-73 -414h228l-18 -106h-351zM195 568l-36 65q79 43 136 83l40 -72q-62 -42 -140 -76z" />
    <glyph glyph-name="lcaron.smcp" horiz-adv-x="467" 
d="M35 0l92 520h122l-73 -414h228l-18 -106h-351zM331 409l19 111h97l-20 -118l-79 -102l-37 29l56 80h-36z" />
    <glyph glyph-name="lcommaaccent.smcp" horiz-adv-x="467" 
d="M35 0l92 520h122l-73 -414h228l-18 -106h-351zM144 -177l23 126h117l-24 -134l-78 -101l-45 32l53 77h-46z" />
    <glyph glyph-name="ldot.smcp" horiz-adv-x="467" 
d="M35 0l92 520h122l-73 -414h228l-18 -106h-351zM267 221l22 122h119l-22 -122h-119z" />
    <glyph glyph-name="lslash.smcp" horiz-adv-x="481" 
d="M4 260l98 40l39 220h122l-29 -166l128 53l24 -72l-168 -67l-28 -162h228l-18 -106h-351l38 215l-63 -25z" />
    <glyph glyph-name="nacute.smcp" horiz-adv-x="624" 
d="M350 0l-134 369l-65 -369h-116l92 520h148l134 -372l66 372h116l-92 -520h-149zM338 568l-36 65q79 43 136 83l40 -72q-62 -42 -140 -76z" />
    <glyph glyph-name="ncaron.smcp" horiz-adv-x="624" 
d="M350 0l-134 369l-65 -369h-116l92 520h148l134 -372l66 372h116l-92 -520h-149zM258 650l38 54q44 -22 84 -52q40 31 88 52l34 -58q-79 -44 -136 -86q-43 43 -108 90z" />
    <glyph glyph-name="ncommaaccent.smcp" horiz-adv-x="624" 
d="M350 0l-134 369l-65 -369h-116l92 520h148l134 -372l66 372h116l-92 -520h-149zM173 -177l23 126h117l-24 -134l-78 -101l-45 32l53 77h-46z" />
    <glyph glyph-name="ntilde.smcp" horiz-adv-x="624" 
d="M350 0l-134 369l-65 -369h-116l92 520h148l134 -372l66 372h116l-92 -520h-149zM434 573q-28 0 -60 21t-48 21q-23 0 -58 -42l-44 41q41 77 108 77q25 0 60.5 -21.5t50.5 -21.5q28 0 47 37l51 -28q-19 -41 -43 -62.5t-64 -21.5z" />
    <glyph glyph-name="oacute.smcp" horiz-adv-x="571" 
d="M239 -10q-98 0 -146 39t-48 103q0 14 3 32l35 199q16 89 73.5 128t177.5 39q93 0 143 -41t50 -107q0 -14 -3 -30l-35 -198q-15 -83 -68.5 -123.5t-181.5 -40.5zM369 164l30 170q4 24 4 36q0 30 -19.5 44t-68.5 14q-60 0 -83 -20.5t-31 -67.5l-31 -176q-2 -12 -2 -17
q0 -55 88 -55q100 0 113 72zM299 568l-36 65q79 43 136 83l40 -72q-62 -42 -140 -76z" />
    <glyph glyph-name="obreve.smcp" horiz-adv-x="571" 
d="M239 -10q-98 0 -146 39t-48 103q0 14 3 32l35 199q16 89 73.5 128t177.5 39q93 0 143 -41t50 -107q0 -14 -3 -30l-35 -198q-15 -83 -68.5 -123.5t-181.5 -40.5zM369 164l30 170q4 24 4 36q0 30 -19.5 44t-68.5 14q-60 0 -83 -20.5t-31 -67.5l-31 -176q-2 -12 -2 -17
q0 -55 88 -55q100 0 113 72zM345 569q-52 0 -86.5 29.5t-37.5 71.5l62 25q13 -57 71 -57q29 0 46.5 14.5t31.5 45.5l58 -30q-31 -99 -145 -99z" />
    <glyph glyph-name="ocircumflex.smcp" horiz-adv-x="571" 
d="M239 -10q-98 0 -146 39t-48 103q0 14 3 32l35 199q16 89 73.5 128t177.5 39q93 0 143 -41t50 -107q0 -14 -3 -30l-35 -198q-15 -83 -68.5 -123.5t-181.5 -40.5zM369 164l30 170q4 24 4 36q0 30 -19.5 44t-68.5 14q-60 0 -83 -20.5t-31 -67.5l-31 -176q-2 -12 -2 -17
q0 -55 88 -55q100 0 113 72zM464 616l-38 -54q-47 24 -84 52q-40 -31 -87 -52l-34 58q79 45 136 86q40 -42 107 -90z" />
    <glyph glyph-name="odieresis.smcp" horiz-adv-x="571" 
d="M239 -10q-98 0 -146 39t-48 103q0 14 3 32l35 199q16 89 73.5 128t177.5 39q93 0 143 -41t50 -107q0 -14 -3 -30l-35 -198q-15 -83 -68.5 -123.5t-181.5 -40.5zM369 164l30 170q4 24 4 36q0 30 -19.5 44t-68.5 14q-60 0 -83 -20.5t-31 -67.5l-31 -176q-2 -12 -2 -17
q0 -55 88 -55q100 0 113 72zM394 579l17 100h101l-17 -100h-101zM195 579l17 100h101l-17 -100h-101z" />
    <glyph glyph-name="ograve.smcp" horiz-adv-x="571" 
d="M239 -10q-98 0 -146 39t-48 103q0 14 3 32l35 199q16 89 73.5 128t177.5 39q93 0 143 -41t50 -107q0 -14 -3 -30l-35 -198q-15 -83 -68.5 -123.5t-181.5 -40.5zM369 164l30 170q4 24 4 36q0 30 -19.5 44t-68.5 14q-60 0 -83 -20.5t-31 -67.5l-31 -176q-2 -12 -2 -17
q0 -55 88 -55q100 0 113 72zM378 626l-45 -59q-74 43 -122 89l52 63q55 -51 115 -93z" />
    <glyph glyph-name="ohungarumlaut.smcp" horiz-adv-x="571" 
d="M239 -10q-98 0 -146 39t-48 103q0 14 3 32l35 199q16 89 73.5 128t177.5 39q93 0 143 -41t50 -107q0 -14 -3 -30l-35 -198q-15 -83 -68.5 -123.5t-181.5 -40.5zM369 164l30 170q4 24 4 36q0 30 -19.5 44t-68.5 14q-60 0 -83 -20.5t-31 -67.5l-31 -176q-2 -12 -2 -17
q0 -55 88 -55q100 0 113 72zM248 558l-47 58q52 41 104 92l52 -64q-42 -39 -109 -86zM426 558l-47 58q52 41 104 92l52 -64q-42 -39 -109 -86z" />
    <glyph glyph-name="omacron.smcp" horiz-adv-x="571" 
d="M239 -10q-98 0 -146 39t-48 103q0 14 3 32l35 199q16 89 73.5 128t177.5 39q93 0 143 -41t50 -107q0 -14 -3 -30l-35 -198q-15 -83 -68.5 -123.5t-181.5 -40.5zM369 164l30 170q4 24 4 36q0 30 -19.5 44t-68.5 14q-60 0 -83 -20.5t-31 -67.5l-31 -176q-2 -12 -2 -17
q0 -55 88 -55q100 0 113 72zM222 582l14 80h246l-14 -80h-246z" />
    <glyph glyph-name="oslashacute.smcp" horiz-adv-x="571" 
d="M25 -34l57 72q-37 36 -37 94q0 14 3 32l35 199q16 89 73.5 128t177.5 39q73 0 121 -27l62 77l32 -26l-61 -76q39 -38 39 -96q0 -14 -3 -30l-35 -198q-15 -83 -68.5 -123.5t-181.5 -40.5q-75 0 -123 24l-59 -74zM168 147v-3l215 269q-20 15 -68 15q-60 0 -83 -20.5
t-31 -67.5l-31 -176q-2 -12 -2 -17zM369 164l30 170q4 24 4 36v2l-214 -267q19 -13 67 -13q100 0 113 72zM310 568l-36 65q79 43 136 83l40 -72q-62 -42 -140 -76z" />
    <glyph glyph-name="otilde.smcp" horiz-adv-x="571" 
d="M239 -10q-98 0 -146 39t-48 103q0 14 3 32l35 199q16 89 73.5 128t177.5 39q93 0 143 -41t50 -107q0 -14 -3 -30l-35 -198q-15 -83 -68.5 -123.5t-181.5 -40.5zM369 164l30 170q4 24 4 36q0 30 -19.5 44t-68.5 14q-60 0 -83 -20.5t-31 -67.5l-31 -176q-2 -12 -2 -17
q0 -55 88 -55q100 0 113 72zM401 573q-28 0 -60 21t-48 21q-23 0 -58 -42l-44 41q41 77 108 77q25 0 60.5 -21.5t50.5 -21.5q28 0 47 37l51 -28q-19 -41 -43 -62.5t-64 -21.5z" />
    <glyph glyph-name="racute.smcp" horiz-adv-x="582" 
d="M377 0l-76 152h-117l-27 -152h-122l92 520h242q160 0 160 -113q0 -16 -4 -38l-13 -74q-16 -89 -90 -122l86 -173h-131zM393 300l12 69q2 12 2 18q0 19 -13 26.5t-44 7.5h-119l-30 -172h118q37 0 53 12t21 39zM314 568l-36 65q79 43 136 83l40 -72q-62 -42 -140 -76z" />
    <glyph glyph-name="rcaron.smcp" horiz-adv-x="582" 
d="M377 0l-76 152h-117l-27 -152h-122l92 520h242q160 0 160 -113q0 -16 -4 -38l-13 -74q-16 -89 -90 -122l86 -173h-131zM393 300l12 69q2 12 2 18q0 19 -13 26.5t-44 7.5h-119l-30 -172h118q37 0 53 12t21 39zM226 650l38 54q44 -22 84 -52q40 31 88 52l34 -58
q-79 -44 -136 -86q-43 43 -108 90z" />
    <glyph glyph-name="rcommaaccent.smcp" horiz-adv-x="582" 
d="M377 0l-76 152h-117l-27 -152h-122l92 520h242q160 0 160 -113q0 -16 -4 -38l-13 -74q-16 -89 -90 -122l86 -173h-131zM393 300l12 69q2 12 2 18q0 19 -13 26.5t-44 7.5h-119l-30 -172h118q37 0 53 12t21 39zM169 -177l23 126h117l-24 -134l-78 -101l-45 32l53 77h-46z
" />
    <glyph glyph-name="sacute.smcp" horiz-adv-x="494" 
d="M203 -10q-90 0 -181 36l27 93q91 -29 166 -29q50 0 67 10.5t22 42.5q6 35 -10 48t-84 26q-61 12 -91 35t-34 56.5t3 78.5q16 86 59.5 114.5t155.5 28.5q86 0 167 -25l-19 -97q-82 22 -156 22q-49 0 -64.5 -9.5t-21.5 -41.5q-7 -36 7.5 -47.5t80.5 -23.5
q94 -17 118.5 -53.5t11.5 -104.5q-17 -94 -59.5 -127t-164.5 -33zM274 568l-36 65q79 43 136 83l40 -72q-62 -42 -140 -76z" />
    <glyph glyph-name="scaron.smcp" horiz-adv-x="494" 
d="M203 -10q-90 0 -181 36l27 93q91 -29 166 -29q50 0 67 10.5t22 42.5q6 35 -10 48t-84 26q-61 12 -91 35t-34 56.5t3 78.5q16 86 59.5 114.5t155.5 28.5q86 0 167 -25l-19 -97q-82 22 -156 22q-49 0 -64.5 -9.5t-21.5 -41.5q-7 -36 7.5 -47.5t80.5 -23.5
q94 -17 118.5 -53.5t11.5 -104.5q-17 -94 -59.5 -127t-164.5 -33zM198 650l38 54q44 -22 84 -52q40 31 88 52l34 -58q-79 -44 -136 -86q-43 43 -108 90z" />
    <glyph glyph-name="scedilla.smcp" horiz-adv-x="494" 
d="M182 -200q-34 0 -72 15l15 48q32 -10 58 -10q57 0 57 34q0 20 -29 20q-27 0 -49 -2l-14 16l27 70q-81 6 -153 35l27 93q91 -29 166 -29q50 0 67 10.5t22 42.5q6 35 -10 48t-84 26q-61 12 -91 35t-34 56.5t3 78.5q16 86 59.5 114.5t155.5 28.5q86 0 167 -25l-19 -97
q-82 22 -156 22q-49 0 -64.5 -9.5t-21.5 -41.5q-7 -36 7.5 -47.5t80.5 -23.5q94 -17 118.5 -53.5t11.5 -104.5q-11 -61 -28.5 -92t-57 -48t-112.5 -19l-15 -46q18 3 32 3q28 0 43 -16.5t15 -39.5q0 -92 -122 -92z" />
    <glyph glyph-name="scircumflex.smcp" horiz-adv-x="494" 
d="M203 -10q-90 0 -181 36l27 93q91 -29 166 -29q50 0 67 10.5t22 42.5q6 35 -10 48t-84 26q-61 12 -91 35t-34 56.5t3 78.5q16 86 59.5 114.5t155.5 28.5q86 0 167 -25l-19 -97q-82 22 -156 22q-49 0 -64.5 -9.5t-21.5 -41.5q-7 -36 7.5 -47.5t80.5 -23.5
q94 -17 118.5 -53.5t11.5 -104.5q-17 -94 -59.5 -127t-164.5 -33zM446 616l-38 -54q-47 24 -84 52q-40 -31 -87 -52l-34 58q79 45 136 86q40 -42 107 -90z" />
    <glyph glyph-name="scommaaccent.smcp" horiz-adv-x="494" 
d="M203 -10q-90 0 -181 36l27 93q91 -29 166 -29q50 0 67 10.5t22 42.5q6 35 -10 48t-84 26q-61 12 -91 35t-34 56.5t3 78.5q16 86 59.5 114.5t155.5 28.5q86 0 167 -25l-19 -97q-82 22 -156 22q-49 0 -64.5 -9.5t-21.5 -41.5q-7 -36 7.5 -47.5t80.5 -23.5
q94 -17 118.5 -53.5t11.5 -104.5q-17 -94 -59.5 -127t-164.5 -33zM111 -177l23 126h117l-24 -134l-78 -101l-45 32l53 77h-46z" />
    <glyph glyph-name="tbar.smcp" horiz-adv-x="492" 
d="M54 197l10 64h122l27 153h-159l19 106h438l-18 -106h-158l-27 -153h122l-10 -64h-124l-34 -197h-122l34 197h-120z" />
    <glyph glyph-name="tcaron.smcp" horiz-adv-x="492" 
d="M335 414l-73 -414h-122l73 414h-159l19 106h438l-18 -106h-158zM188 650l38 54q44 -22 84 -52q40 31 88 52l34 -58q-79 -44 -136 -86q-43 43 -108 90z" />
    <glyph glyph-name="tcommaaccent.smcp" horiz-adv-x="492" 
d="M335 414l-73 -414h-122l73 414h-159l19 106h438l-18 -106h-158zM111 -177l23 126h117l-24 -134l-78 -101l-45 32l53 77h-46z" />
    <glyph glyph-name="thorn.smcp" horiz-adv-x="529" 
d="M282 76h-112l-13 -76h-122l91 520h122l-13 -71h111q160 0 160 -113q0 -14 -4 -38l-14 -80q-14 -81 -55.5 -111.5t-150.5 -30.5zM218 350l-31 -175h108q37 0 53.5 13.5t21.5 40.5l12 69q2 10 2 18q0 19 -13 26.5t-44 7.5h-109z" />
    <glyph glyph-name="uacute.smcp" horiz-adv-x="587" 
d="M248 -10q-97 0 -144.5 37t-47.5 104q0 17 4 39l62 350h122l-63 -356q-1 -8 -1 -17q0 -52 86 -52q49 0 75.5 15.5t33.5 53.5l63 356h121l-65 -367q-7 -41 -20 -68.5t-40 -50t-72.5 -33.5t-113.5 -11zM329 568l-36 65q79 43 136 83l40 -72q-62 -42 -140 -76z" />
    <glyph glyph-name="ubreve.smcp" horiz-adv-x="587" 
d="M248 -10q-97 0 -144.5 37t-47.5 104q0 17 4 39l62 350h122l-63 -356q-1 -8 -1 -17q0 -52 86 -52q49 0 75.5 15.5t33.5 53.5l63 356h121l-65 -367q-7 -41 -20 -68.5t-40 -50t-72.5 -33.5t-113.5 -11zM352 569q-52 0 -86.5 29.5t-37.5 71.5l62 25q13 -57 71 -57
q29 0 46.5 14.5t31.5 45.5l58 -30q-31 -99 -145 -99z" />
    <glyph glyph-name="ucircumflex.smcp" horiz-adv-x="587" 
d="M248 -10q-97 0 -144.5 37t-47.5 104q0 17 4 39l62 350h122l-63 -356q-1 -8 -1 -17q0 -52 86 -52q49 0 75.5 15.5t33.5 53.5l63 356h121l-65 -367q-7 -41 -20 -68.5t-40 -50t-72.5 -33.5t-113.5 -11zM478 616l-38 -54q-47 24 -84 52q-40 -31 -87 -52l-34 58q79 45 136 86
q40 -42 107 -90z" />
    <glyph glyph-name="udieresis.smcp" horiz-adv-x="587" 
d="M248 -10q-97 0 -144.5 37t-47.5 104q0 17 4 39l62 350h122l-63 -356q-1 -8 -1 -17q0 -52 86 -52q49 0 75.5 15.5t33.5 53.5l63 356h121l-65 -367q-7 -41 -20 -68.5t-40 -50t-72.5 -33.5t-113.5 -11zM402 579l17 100h101l-17 -100h-101zM203 579l17 100h101l-17 -100h-101
z" />
    <glyph glyph-name="ugrave.smcp" horiz-adv-x="587" 
d="M248 -10q-97 0 -144.5 37t-47.5 104q0 17 4 39l62 350h122l-63 -356q-1 -8 -1 -17q0 -52 86 -52q49 0 75.5 15.5t33.5 53.5l63 356h121l-65 -367q-7 -41 -20 -68.5t-40 -50t-72.5 -33.5t-113.5 -11zM403 626l-45 -59q-74 43 -122 89l52 63q55 -51 115 -93z" />
    <glyph glyph-name="uhungarumlaut.smcp" horiz-adv-x="587" 
d="M248 -10q-97 0 -144.5 37t-47.5 104q0 17 4 39l62 350h122l-63 -356q-1 -8 -1 -17q0 -52 86 -52q49 0 75.5 15.5t33.5 53.5l63 356h121l-65 -367q-7 -41 -20 -68.5t-40 -50t-72.5 -33.5t-113.5 -11zM255 558l-47 58q52 41 104 92l52 -64q-42 -39 -109 -86zM433 558
l-47 58q52 41 104 92l52 -64q-42 -39 -109 -86z" />
    <glyph glyph-name="umacron.smcp" horiz-adv-x="587" 
d="M248 -10q-97 0 -144.5 37t-47.5 104q0 17 4 39l62 350h122l-63 -356q-1 -8 -1 -17q0 -52 86 -52q49 0 75.5 15.5t33.5 53.5l63 356h121l-65 -367q-7 -41 -20 -68.5t-40 -50t-72.5 -33.5t-113.5 -11zM229 582l14 80h246l-14 -80h-246z" />
    <glyph glyph-name="uogonek.smcp" horiz-adv-x="587" 
d="M248 -10q-97 0 -144.5 37t-47.5 104q0 17 4 39l62 350h122l-63 -356q-1 -8 -1 -17q0 -52 86 -52q49 0 75.5 15.5t33.5 53.5l63 356h121l-65 -367q-11 -60 -37 -95.5t-84 -52.5q-71 -39 -102 -67.5t-31 -53.5q0 -23 30 -23q19 0 34 4l3 -59q-32 -13 -71 -13q-86 0 -86 63
q0 75 153 137q-25 -3 -55 -3z" />
    <glyph glyph-name="uring.smcp" horiz-adv-x="587" 
d="M248 -10q-97 0 -144.5 37t-47.5 104q0 17 4 39l62 350h122l-63 -356q-1 -8 -1 -17q0 -52 86 -52q49 0 75.5 15.5t33.5 53.5l63 356h121l-65 -367q-7 -41 -20 -68.5t-40 -50t-72.5 -33.5t-113.5 -11zM348 557q-32 0 -52 18.5t-20 47.5q0 47 25.5 72t73.5 25q34 0 54 -18.5
t20 -44.5q0 -44 -24.5 -72t-76.5 -28zM369 675q-19 0 -30 -12t-11 -33q0 -27 27 -27q41 0 41 45q0 27 -27 27z" />
    <glyph glyph-name="utilde.smcp" horiz-adv-x="587" 
d="M418 573q-28 0 -60 21t-48 21q-23 0 -58 -42l-44 41q41 77 108 77q25 0 60.5 -21.5t50.5 -21.5q28 0 47 37l51 -28q-19 -41 -43 -62.5t-64 -21.5zM248 -10q-97 0 -144.5 37t-47.5 104q0 17 4 39l62 350h122l-63 -356q-1 -8 -1 -17q0 -52 86 -52q49 0 75.5 15.5t33.5 53.5
l63 356h121l-65 -367q-7 -41 -20 -68.5t-40 -50t-72.5 -33.5t-113.5 -11z" />
    <glyph glyph-name="wacute.smcp" horiz-adv-x="819" 
d="M620 0h-152l-29 397l-172 -397h-144l-47 520h114l25 -395l177 395h132l41 -392l164 392h124zM457 568l-36 65q79 43 136 83l40 -72q-62 -42 -140 -76z" />
    <glyph glyph-name="wcircumflex.smcp" horiz-adv-x="819" 
d="M620 0h-152l-29 397l-172 -397h-144l-47 520h114l25 -395l177 395h132l41 -392l164 392h124zM591 616l-38 -54q-47 24 -84 52q-40 -31 -87 -52l-34 58q79 45 136 86q40 -42 107 -90z" />
    <glyph glyph-name="wdieresis.smcp" horiz-adv-x="819" 
d="M620 0h-152l-29 397l-172 -397h-144l-47 520h114l25 -395l177 395h132l41 -392l164 392h124zM520 579l17 100h101l-17 -100h-101zM321 579l17 100h101l-17 -100h-101z" />
    <glyph glyph-name="wgrave.smcp" horiz-adv-x="819" 
d="M620 0h-152l-29 397l-172 -397h-144l-47 520h114l25 -395l177 395h132l41 -392l164 392h124zM517 626l-45 -59q-74 43 -122 89l52 63q55 -51 115 -93z" />
    <glyph glyph-name="yacute.smcp" horiz-adv-x="495" 
d="M294 137l-24 -137h-122l26 151l-119 369h120l80 -266l157 266h130zM285 568l-36 65q79 43 136 83l40 -72q-62 -42 -140 -76z" />
    <glyph glyph-name="ycircumflex.smcp" horiz-adv-x="495" 
d="M294 137l-24 -137h-122l26 151l-119 369h120l80 -266l157 266h130zM429 616l-38 -54q-47 24 -84 52q-40 -31 -87 -52l-34 58q79 45 136 86q40 -42 107 -90z" />
    <glyph glyph-name="ydieresis.smcp" horiz-adv-x="495" 
d="M294 137l-24 -137h-122l26 151l-119 369h120l80 -266l157 266h130zM361 579l17 100h101l-17 -100h-101zM162 579l17 100h101l-17 -100h-101z" />
    <glyph glyph-name="ygrave.smcp" horiz-adv-x="495" 
d="M294 137l-24 -137h-122l26 151l-119 369h120l80 -266l157 266h130zM351 626l-45 -59q-74 43 -122 89l52 63q55 -51 115 -93z" />
    <glyph glyph-name="zacute.smcp" horiz-adv-x="528" 
d="M44 0l3 88l309 338h-261l16 94h392l-3 -88l-309 -338h262l-16 -94h-393zM276 568l-36 65q79 43 136 83l40 -72q-62 -42 -140 -76z" />
    <glyph glyph-name="zcaron.smcp" horiz-adv-x="528" 
d="M44 0l3 88l309 338h-261l16 94h392l-3 -88l-309 -338h262l-16 -94h-393zM202 650l38 54q44 -22 84 -52q40 31 88 52l34 -58q-79 -44 -136 -86q-43 43 -108 90z" />
    <glyph glyph-name="zdotaccent.smcp" horiz-adv-x="528" 
d="M44 0l3 88l309 338h-261l16 94h392l-3 -88l-309 -338h262l-16 -94h-393zM258 576l24 137l123 17l-24 -136z" />
    </font>
</defs>
</svg>
