<?xml version="1.0" standalone="no"?>
<!DOCTYPE svg PUBLIC "-//W3C//DTD SVG 1.1//EN" "http://www.w3.org/Graphics/SVG/1.1/DTD/svg11.dtd" >
<svg>
<metadata>
Created by FontForge 20090622 at Fri May  5 09:12:16 2017
 By deploy user
Copyright 2004 Process Type Foundry. All rights reserved.
</metadata>
<defs>
<font id="Klavika-Bold" horiz-adv-x="525" >
  <font-face 
    font-family="Klavika Bd"
    font-weight="700"
    font-stretch="normal"
    units-per-em="1000"
    panose-1="2 0 8 3 5 0 0 2 0 4"
    ascent="750"
    descent="-250"
    x-height="487"
    cap-height="666"
    bbox="-26 -303 1245 1055"
    underline-thickness="20"
    underline-position="-113"
    unicode-range="U+0020-U+FB02"
  />
<missing-glyph horiz-adv-x="616" 
d="M75 0v666h466v-666h-466zM492 616h-340l340 -527v527zM124 576v-527h339z" />
    <glyph glyph-name="fi" unicode="fi" horiz-adv-x="647" 
d="M582 0h-144v372h-200v-372h-144v372h-74v115h74v63q0 77 39.5 116.5t125.5 39.5q55 0 100 -13l-18 -113q-30 6 -54 6q-32 0 -40.5 -12t-8.5 -40v-47h344v-487zM582 548h-144v153h144v-153z" />
    <glyph glyph-name="fl" unicode="fl" horiz-adv-x="643" 
d="M578 0h-144v686l144 20v-706zM363 693l-18 -113q-30 6 -58 6q-32 0 -40.5 -12t-8.5 -40v-57h109l-10 -118h-99v-359h-144v359h-74v118h74v73q0 77 39.5 116.5t125.5 39.5q55 0 104 -13z" />
    <glyph glyph-name="f_f" unicode="ff" horiz-adv-x="738" 
d="M738 692l-18 -113q-35 7 -64 7q-32 0 -40.5 -12t-8.5 -40v-47h115l-10 -115h-105v-372h-144v372h-225v-372h-144v372h-74v115h74v63q0 77 39.5 116.5t125.5 39.5q58 0 105 -13l-18 -113q-30 6 -59 6q-32 0 -40.5 -12t-8.5 -40v-47h225v63q0 77 39.5 116.5t125.5 39.5
q42 0 110 -14z" />
    <glyph glyph-name="f_f_i" unicode="ffi" horiz-adv-x="1016" 
d="M951 0h-144v372h-200v-372h-144v372h-225v-372h-144v372h-74v115h74v63q0 77 39.5 116.5t125.5 39.5q58 0 105 -13l-18 -113q-30 6 -59 6q-32 0 -40.5 -12t-8.5 -40v-47h225v63q0 77 39.5 116.5t125.5 39.5q54 0 100 -13l-18 -113q-30 6 -54 6q-32 0 -40.5 -12t-8.5 -40
v-47h344v-487zM951 548h-144v153h144v-153z" />
    <glyph glyph-name="f_j" unicode="fj" horiz-adv-x="644" 
d="M452 -207l-87 94l19.5 17.5t17.5 16.5l13 13.5t11 14l7 13.5t5.5 16t1.5 18v376h-202v-372h-144v372h-74v115h74v63q0 77 39.5 116.5t125.5 39.5q55 0 100 -13l-18 -113q-30 6 -54 6q-32 0 -40.5 -12t-8.5 -40v-47h346v-510q0 -42 -31 -84t-101 -100zM584 548h-144v153
h144v-153z" />
    <glyph glyph-name="f_f_j" unicode="ffj" horiz-adv-x="1013" 
d="M821 -207l-87 94l19.5 17.5t17.5 16.5l13 13.5t11 14l7 13.5t5.5 16t1.5 18v376h-202v-372h-144v372h-225v-372h-144v372h-74v115h74v63q0 77 39.5 116.5t125.5 39.5q58 0 105 -13l-18 -113q-30 6 -59 6q-32 0 -40.5 -12t-8.5 -40v-47h225v63q0 77 39.5 116.5t125.5 39.5
q54 0 100 -13l-18 -113q-30 6 -54 6q-32 0 -40.5 -12t-8.5 -40v-47h346v-510q0 -42 -31 -84t-101 -100zM953 548h-144v153h144v-153z" />
    <glyph glyph-name="f_f_l" unicode="ffl" horiz-adv-x="1012" 
d="M947 0h-144v686l144 20v-706zM738 692l-18 -113q-35 7 -64 7q-32 0 -40.5 -12t-8.5 -40v-47h115l-10 -115h-105v-372h-144v372h-225v-372h-144v372h-74v115h74v63q0 77 39.5 116.5t125.5 39.5q58 0 105 -13l-18 -113q-30 6 -59 6q-32 0 -40.5 -12t-8.5 -40v-47h225v63
q0 77 39.5 116.5t125.5 39.5q42 0 110 -14z" />
    <glyph glyph-name=".notdef" horiz-adv-x="616" 
d="M75 0v666h466v-666h-466zM492 616h-340l340 -527v527zM124 576v-527h339z" />
    <glyph glyph-name=".null" horiz-adv-x="0" 
 />
    <glyph glyph-name="nonmarkingreturn" horiz-adv-x="333" 
 />
    <glyph glyph-name="space" unicode=" " horiz-adv-x="210" 
 />
    <glyph glyph-name="exclam" unicode="!" horiz-adv-x="284" 
d="M184 231h-84l-30 174v281h144v-281zM214 0h-144v166h144v-166z" />
    <glyph glyph-name="quotedbl" unicode="&#x22;" horiz-adv-x="379" 
d="M50 438v248h99v-248h-99zM230 438v248h99v-248h-99z" />
    <glyph glyph-name="numbersign" unicode="#" horiz-adv-x="678" 
d="M392 0l8 157h-142l-8 -157h-103l8 157h-120l5 96h119l7 144h-122l5 96h122l8 153h103l-8 -153h142l8 153h103l-8 -153h114l-5 -96h-114l-7 -144h117l-5 -96h-116l-8 -157h-103zM269 397l-7 -144h142l7 144h-142z" />
    <glyph glyph-name="dollar" unicode="$" horiz-adv-x="502" 
d="M191 -121v113q-77 6 -146 32l26 117q93 -27 159 -27q51 0 67 14.5t16 57.5t-14.5 56.5t-80.5 26.5q-106 21 -137.5 60.5t-31.5 140.5q0 89 37.5 132.5t130.5 51.5v115h115v-116q66 -5 113 -17l-15 -123q-77 17 -165 17q-46 0 -59 -12t-13 -51q0 -41 13 -52t85 -29
q49 -12 79.5 -25.5t48.5 -27t26 -38t10 -45t2 -63.5q0 -92 -31 -137t-120 -56v-115h-115z" />
    <glyph glyph-name="percent" unicode="%" horiz-adv-x="872" 
d="M356 457q0 -69 -36 -107t-124 -38q-89 0 -125 38t-36 107v74q0 69 36 107t125 38q88 0 124 -38t36 -107v-74zM245 539q0 23 -10.5 32t-38.5 9t-39 -9t-11 -32v-90q0 -23 11 -32t39 -9t38.5 9t10.5 32v90zM253 26l268 650l88 -35l-268 -651zM832 135q0 -69 -36 -107
t-124 -38q-89 0 -125 38t-36 107v74q0 69 36 107t125 38q88 0 124 -38t36 -107v-74zM721 217q0 23 -10.5 32t-38.5 9t-39 -9t-11 -32v-90q0 -23 11 -32t39 -9t38.5 9t10.5 32v90z" />
    <glyph glyph-name="ampersand" unicode="&#x26;" horiz-adv-x="646" 
d="M616 392v-121h-97v-245q-112 -36 -247 -36q-110 0 -161 45t-51 121v54q0 101 77 134q-66 35 -66 123v42q0 167 212 167q115 0 217 -24l-18 -116q-93 19 -199 19q-68 0 -68 -53v-49q0 -61 58 -61h343zM204 210v-37q0 -32 19.5 -48.5t53.5 -16.5q59 0 106 11v152h-100
q-79 0 -79 -61z" />
    <glyph glyph-name="quotesingle" unicode="'" horiz-adv-x="199" 
d="M50 438v248h99v-248h-99z" />
    <glyph glyph-name="parenleft" unicode="(" horiz-adv-x="326" 
d="M316 -94l-106 -60q-155 192 -155 458t155 458l106 -60q-59 -98 -88 -189t-29 -209t29 -209t88 -189z" />
    <glyph glyph-name="parenright" unicode=")" horiz-adv-x="326" 
d="M116 -154l-106 60q59 98 88 189t29 209t-29 209t-88 189l106 60q155 -192 155 -458t-155 -458z" />
    <glyph glyph-name="asterisk" unicode="*" horiz-adv-x="467" 
d="M100 370l70 109h-130v67h132l-72 113l56 37l77 -120l77 120l56 -37l-73 -113h134v-67h-131l70 -109l-57 -36l-76 118l-76 -118z" />
    <glyph glyph-name="plus" unicode="+" horiz-adv-x="517" 
d="M462 188h-146v-148h-115v148h-146v110h146v149h115v-149h146v-110z" />
    <glyph glyph-name="comma" unicode="," horiz-adv-x="273" 
d="M208 -10l-88 -139l-65 37l57 112h-48v166h144v-176z" />
    <glyph glyph-name="hyphen" unicode="-" horiz-adv-x="338" 
d="M298 220h-258v120h258v-120z" />
    <glyph glyph-name="period" unicode="." horiz-adv-x="274" 
d="M209 0h-144v166h144v-166z" />
    <glyph glyph-name="slash" unicode="/" horiz-adv-x="462" 
d="M422 676l-249 -793h-128l249 793h128z" />
    <glyph glyph-name="zero" unicode="0" horiz-adv-x="552" 
d="M497 479v-312q0 -177 -221 -177t-221 177v312q0 177 221 177t221 -177zM199 459v-272q0 -39 15.5 -55t61.5 -16t61.5 16t15.5 55v272q0 39 -15.5 55t-61.5 16t-61.5 -16t-15.5 -55z" />
    <glyph glyph-name="one" unicode="1" horiz-adv-x="389" 
d="M319 0h-144v479l-113 -61l-62 119l189 109h130v-646z" />
    <glyph glyph-name="two" unicode="2" horiz-adv-x="503" 
d="M355 250q-69 -83 -107 -124h205v-126h-404v123q98 101 145 154q80 92 92 110q17 28 17 76v18q0 26 -18 36.5t-61 10.5q-91 0 -165 -19l-19 121q101 26 191 26q115 0 165.5 -37.5t50.5 -119.5v-26q0 -75 -13.5 -109.5t-78.5 -113.5z" />
    <glyph glyph-name="three" unicode="3" horiz-adv-x="487" 
d="M88 385h111q47 0 64.5 14t17.5 48v41q0 31 -16.5 41t-64.5 10q-60 0 -138 -14l-15 113q85 18 166 18q120 0 166 -35.5t46 -114.5v-47q0 -92 -67 -133q42 -19 60.5 -47.5t18.5 -75.5v-51q0 -80 -49.5 -121t-178.5 -41q-97 0 -164 22l15 111q71 -13 144 -13q52 0 70.5 11.5
t18.5 41.5v46q0 53 -73 53h-132v123z" />
    <glyph glyph-name="four" unicode="4" horiz-adv-x="562" 
d="M532 137h-81v-137h-142v137h-294v125l247 384h189v-392h81v-117zM309 254v249l-153 -249h153z" />
    <glyph glyph-name="five" unicode="5" horiz-adv-x="498" 
d="M309 203q0 34 -14.5 46t-61.5 14q-89 4 -159 5v378h365v-125h-221v-136q32 -1 90 -4q81 -5 113 -41t32 -101v-71q-1 -61 -18.5 -97.5t-67.5 -58.5t-139 -22q-97 0 -178 25l21 116q73 -16 156 -16q49 0 65.5 14t16.5 47v27z" />
    <glyph glyph-name="six" unicode="6" horiz-adv-x="518" 
d="M261 -10q-120 0 -165.5 51.5t-45.5 141.5v244q0 128 78.5 178.5t228.5 50.5q47 0 98 -8l-10 -118q-35 5 -68 5q-102 0 -142.5 -23t-40.5 -84v-49q49 15 110 15q86 0 127.5 -40t41.5 -128v-43q0 -87 -46.5 -140t-165.5 -53zM261 114q38 0 53 14.5t15 47.5v44q0 50 -49 50
q-47 0 -86 -18v-76q0 -35 14 -48.5t53 -13.5z" />
    <glyph glyph-name="seven" unicode="7" horiz-adv-x="457" 
d="M437 524l-215 -524h-148l213 519h-267v127h417v-122z" />
    <glyph glyph-name="eight" unicode="8" horiz-adv-x="534" 
d="M50 211q0 38 18.5 65.5t65.5 52.5q-68 44 -68 112v56q0 79 46.5 119t154.5 40t154.5 -40t46.5 -119v-56q0 -37 -15 -62.5t-53 -49.5q47 -25 65.5 -52.5t18.5 -65.5v-51q0 -92 -49 -131t-168 -39t-168 39t-49 131v51zM189 162q0 -31 16.5 -42.5t61.5 -11.5q44 0 61 12.5
t17 41.5v33q0 27 -13 40t-67 34q-53 -20 -64.5 -33t-11.5 -41v-33zM205 443q0 -24 11 -35t53 -27q42 15 51 26t9 36v48q0 26 -13 37t-49 11t-49 -11t-13 -37v-48z" />
    <glyph glyph-name="nine" unicode="9" horiz-adv-x="513" 
d="M252 656q120 0 165.5 -51.5t45.5 -141.5v-244q0 -128 -78.5 -178.5t-228.5 -50.5q-48 0 -98 8l8 118q48 -5 70 -5q100 0 141.5 23t41.5 84v49q-49 -15 -110 -15q-86 0 -127.5 40t-41.5 128v43q0 87 46.5 140t165.5 53zM252 532q-38 0 -53 -14.5t-15 -47.5v-44
q0 -50 49 -50q47 0 86 18v76q0 35 -14 48.5t-53 13.5z" />
    <glyph glyph-name="colon" unicode=":" horiz-adv-x="274" 
d="M209 0h-144v166h144v-166zM209 291h-144v166h144v-166z" />
    <glyph glyph-name="semicolon" unicode=";" horiz-adv-x="273" 
d="M208 291h-144v166h144v-166zM208 -10l-88 -139l-65 37l57 112h-48v166h144v-176z" />
    <glyph glyph-name="less" unicode="&#x3c;" horiz-adv-x="566" 
d="M473 -10l-443 217v74l443 216l43 -85l-352 -168l352 -168z" />
    <glyph glyph-name="equal" unicode="=" 
d="M470 300h-415v96h415v-96zM470 106h-415v96h415v-96z" />
    <glyph glyph-name="greater" unicode="&#x3e;" horiz-adv-x="566" 
d="M536 207l-443 -217l-43 86l352 168l-352 168l43 85l443 -216v-74z" />
    <glyph glyph-name="question" unicode="?" horiz-adv-x="485" 
d="M296 0h-144v166h144v-166zM243 228l-81 110q93 69 113.5 94.5t20.5 65.5q0 36 -20 53t-74 17q-58 0 -147 -16l-20 124q99 20 183 20q127 0 174.5 -47t47.5 -143q0 -66 -11.5 -99t-49 -70t-136.5 -109z" />
    <glyph glyph-name="at" unicode="@" horiz-adv-x="722" 
d="M536 100l26 -77q-70 -33 -165 -33q-160 0 -258.5 96t-98.5 247q0 149 91 246t242 97q142 0 225.5 -79.5t83.5 -194.5q0 -92 -48.5 -156.5t-141.5 -64.5q-35 0 -62.5 15.5t-37.5 40.5q-40 -27 -100 -27q-71 0 -71 75q0 15 3 33l15 73q19 108 130 108q64 0 138 -33
l-42 -198q11 -9 34 -9q45 0 69 41t24 100q0 81 -56 137t-163 56q-108 0 -174 -73t-66 -187q0 -118 74 -187.5t187 -69.5q67 0 142 24zM394 309l25 106q-24 10 -58 10q-30 0 -37 -33l-16 -71q-7 -33 26 -33q26 0 60 21z" />
    <glyph glyph-name="A" unicode="A" horiz-adv-x="627" 
d="M413 666l204 -666h-156l-36 130h-223l-36 -130h-156l203 666h200zM313 534l-77 -279h153z" />
    <glyph glyph-name="B" unicode="B" horiz-adv-x="572" 
d="M542 159q0 -73 -48.5 -116t-144.5 -43h-284v666h263q190 0 190 -146v-68q0 -73 -74 -105q42 -10 70 -44t28 -79v-65zM368 440v58q0 47 -60 47h-93v-152h93q29 0 44.5 13t15.5 34zM392 179v41q0 56 -63 56h-114v-155h93q40 0 62 12.5t22 45.5z" />
    <glyph glyph-name="C" unicode="C" horiz-adv-x="521" 
d="M200 448v-230q0 -47 20 -69.5t73 -22.5q79 0 172 16l21 -131q-99 -21 -193 -21q-122 0 -182.5 54.5t-60.5 149.5v278q0 95 60.5 149.5t182.5 54.5q94 0 193 -21l-21 -131q-93 16 -172 16q-53 0 -73 -22.5t-20 -69.5z" />
    <glyph glyph-name="D" unicode="D" horiz-adv-x="598" 
d="M548 173q0 -74 -55 -123.5t-170 -49.5h-258v666h258q115 0 170 -49t55 -124v-320zM398 214v238q0 42 -20 61.5t-73 19.5h-90v-400h90q53 0 73 19.5t20 61.5z" />
    <glyph glyph-name="E" unicode="E" horiz-adv-x="534" 
d="M484 0h-419v666h419v-133h-269v-122h248v-133h-248v-145h269v-133z" />
    <glyph glyph-name="F" unicode="F" horiz-adv-x="518" 
d="M215 0h-150v666h423v-133h-273v-142h252v-133h-252v-258z" />
    <glyph glyph-name="G" unicode="G" horiz-adv-x="584" 
d="M524 22q-111 -32 -230 -32q-118 0 -181 55.5t-63 148.5v278q0 95 62.5 149.5t181.5 54.5q104 0 213 -21l-18 -131q-103 16 -195 16q-53 0 -73.5 -24t-20.5 -67v-229q0 -95 94 -95q42 0 89 6v204h141v-313z" />
    <glyph glyph-name="H" unicode="H" horiz-adv-x="645" 
d="M580 0h-150v268h-215v-268h-150v666h150v-265h215v265h150v-666z" />
    <glyph glyph-name="I" unicode="I" horiz-adv-x="290" 
d="M220 0h-150v666h150v-666z" />
    <glyph glyph-name="J" unicode="J" horiz-adv-x="275" 
d="M73 -211l-89 106q54 44 67.5 61.5t13.5 43.5v666h150v-689q0 -45 -35 -88.5t-107 -99.5z" />
    <glyph glyph-name="K" unicode="K" horiz-adv-x="617" 
d="M65 0v666h150v-666h-150zM428 0l-194 340l180 326h169l-187 -326l201 -340h-169z" />
    <glyph glyph-name="L" unicode="L" horiz-adv-x="499" 
d="M479 0h-414v666h150v-533h264v-133z" />
    <glyph glyph-name="M" unicode="M" horiz-adv-x="786" 
d="M326 86l-116 284l-10 -370h-145l28 666h150l160 -424l160 424h150l28 -666h-145l-10 370l-116 -284h-134z" />
    <glyph glyph-name="N" unicode="N" horiz-adv-x="676" 
d="M426 0l-218 438v-438h-143v666h184l219 -459v459h143v-666h-185z" />
    <glyph glyph-name="O" unicode="O" horiz-adv-x="616" 
d="M566 472v-278q0 -85 -63.5 -144.5t-194.5 -59.5t-194.5 59.5t-63.5 144.5v278q0 85 63.5 144.5t194.5 59.5t194.5 -59.5t63.5 -144.5zM416 207v252q0 84 -108 84t-108 -84v-252q0 -84 108 -84t108 84z" />
    <glyph glyph-name="P" unicode="P" horiz-adv-x="584" 
d="M559 390q0 -95 -55 -141.5t-175 -46.5h-114v-202h-150v666h272q119 0 170.5 -46.5t51.5 -142.5v-87zM409 405v58q0 37 -17 53.5t-63 16.5h-114v-201h114q47 0 63.5 17t16.5 56z" />
    <glyph glyph-name="Q" unicode="Q" horiz-adv-x="616" 
d="M335 -176l-71 168q-109 10 -161.5 67.5t-52.5 134.5v278q0 85 63.5 144.5t194.5 59.5t194.5 -59.5t63.5 -144.5v-278q0 -63 -36.5 -114.5t-111.5 -74.5l53 -124zM416 207v252q0 84 -108 84t-108 -84v-252q0 -84 108 -84t108 84z" />
    <glyph glyph-name="R" unicode="R" horiz-adv-x="643" 
d="M450 0l-147 207h-88v-207h-150v666h277q119 0 170.5 -46.5t51.5 -142.5v-82q0 -126 -97 -167l161 -228h-178zM414 410v53q0 38 -17.5 54t-62.5 16h-119v-196h119q46 0 63 17t17 56z" />
    <glyph glyph-name="S" unicode="S" horiz-adv-x="544" 
d="M504 187q0 -70 -18.5 -110.5t-73 -63.5t-152.5 -23q-121 0 -215 43l25 116q103 -32 192 -32q57 0 74.5 14t17.5 57q0 26 -1.5 36.5t-14 22t-32.5 17t-64 15.5q-120 26 -152.5 64t-32.5 147q0 103 48 144.5t182 41.5q100 0 202 -22l-15 -126q-111 19 -185 19
q-50 0 -66 -12t-16 -49q0 -48 14.5 -59.5t93.5 -30.5q46 -11 76.5 -21t52.5 -24t33.5 -26t17.5 -35.5t7.5 -44t1.5 -58.5z" />
    <glyph glyph-name="T" unicode="T" horiz-adv-x="532" 
d="M520 533h-179v-533h-150v533h-179v133h508v-133z" />
    <glyph glyph-name="U" unicode="U" horiz-adv-x="622" 
d="M412 666h150v-472q0 -86 -60.5 -145t-190.5 -59t-190.5 59t-60.5 145v472h150v-458q0 -42 23.5 -63.5t77.5 -21.5t77.5 21.5t23.5 63.5v458z" />
    <glyph glyph-name="V" unicode="V" horiz-adv-x="590" 
d="M590 666l-188 -666h-214l-188 666h154l141 -530l141 530h154z" />
    <glyph glyph-name="W" unicode="W" horiz-adv-x="944" 
d="M939 666l-163 -666h-191l-112 506l-113 -506h-191l-164 666h148l113 -476l116 476h183l114 -476l112 476h148z" />
    <glyph glyph-name="X" unicode="X" horiz-adv-x="612" 
d="M585 666l-195 -328l202 -338h-157l-129 220l-129 -220h-157l201 338l-194 328h157l122 -210l122 210h157z" />
    <glyph glyph-name="Y" unicode="Y" horiz-adv-x="564" 
d="M564 666l-207 -474v-192h-150v192l-207 474h157l125 -309l125 309h157z" />
    <glyph glyph-name="Z" unicode="Z" horiz-adv-x="566" 
d="M511 543l-290 -420h295v-123h-466v122l293 421h-280v123h448v-123z" />
    <glyph glyph-name="bracketleft" unicode="[" horiz-adv-x="319" 
d="M299 -126h-224v916h224v-115h-80v-686h80v-115z" />
    <glyph glyph-name="backslash" unicode="\" horiz-adv-x="462" 
d="M289 -117l-249 793h128l249 -793h-128z" />
    <glyph glyph-name="bracketright" unicode="]" horiz-adv-x="319" 
d="M244 -126h-224v115h80v686h-80v115h224v-916z" />
    <glyph glyph-name="asciicircum" unicode="^" horiz-adv-x="466" 
d="M431 419l-86 -52l-113 201l-113 -201l-84 52l151 267h92z" />
    <glyph glyph-name="underscore" unicode="_" horiz-adv-x="444" 
d="M445 -86h-446v76h446v-76z" />
    <glyph glyph-name="grave" unicode="`" horiz-adv-x="310" 
d="M260 613l-50 -76q-70 39 -155 94l54 84q63 -46 151 -102z" />
    <glyph glyph-name="a" unicode="a" horiz-adv-x="499" 
d="M444 0h-118l-10 31q-74 -41 -139 -41q-64 0 -95.5 41t-31.5 107q0 73 34.5 105t110.5 32h105v37q0 40 -15.5 53.5t-70.5 13.5q-60 0 -132 -14l-19 108q79 24 175 24q123 0 164.5 -40.5t41.5 -145.5v-311zM300 119v56h-69q-24 0 -33.5 -7.5t-9.5 -27.5t9 -29t30 -9
q36 0 73 17z" />
    <glyph glyph-name="b" unicode="b" horiz-adv-x="537" 
d="M497 195q0 -48 -8.5 -81.5t-32.5 -63.5t-72 -45t-121 -15q-101 0 -198 16v680l144 20v-236q70 27 138 27q150 0 150 -176v-126zM209 345v-228q21 -2 59 -2q50 0 67.5 20t17.5 59v126q0 52 -52 52q-40 0 -92 -27z" />
    <glyph glyph-name="c" unicode="c" horiz-adv-x="406" 
d="M179 301v-115q0 -38 18 -55.5t61 -17.5q48 0 100 12l18 -120q-67 -15 -118 -15q-118 0 -170.5 47t-52.5 151v111q0 104 52.5 151t170.5 47q51 0 118 -15l-18 -120q-51 12 -100 12q-43 0 -61 -17.5t-18 -55.5z" />
    <glyph glyph-name="d" unicode="d" horiz-adv-x="537" 
d="M40 170v147q0 180 164 180q66 0 124 -14v203l144 20v-706h-113l-15 39q-76 -49 -150 -49q-75 0 -114.5 45.5t-39.5 134.5zM328 153v207q-50 12 -92 12q-52 0 -52 -55v-147q0 -55 52 -55q48 0 92 38z" />
    <glyph glyph-name="e" unicode="e" horiz-adv-x="486" 
d="M446 193h-262v-14q0 -41 19 -56t69 -15q79 0 148 21l21 -108q-85 -31 -183 -31q-218 0 -218 198v114q0 195 209 195q58 0 98.5 -16t61 -46t29 -63.5t8.5 -76.5v-102zM310 301v21q0 29 -12.5 45.5t-47.5 16.5q-66 0 -66 -62v-21h126z" />
    <glyph glyph-name="f" unicode="f" horiz-adv-x="369" 
d="M369 692l-18 -113q-35 7 -64 7q-32 0 -40.5 -12t-8.5 -40v-57h115l-10 -118h-105v-359h-144v359h-74v118h74v73q0 77 39.5 116.5t125.5 39.5q42 0 110 -14z" />
    <glyph glyph-name="g" unicode="g" horiz-adv-x="484" 
d="M35 279v59q3 159 199 159q43 0 83 -10h152v-68l-49 -18q11 -27 13 -63v-59q0 -72 -50.5 -113.5t-148.5 -41.5h-15q-21 -13 -21 -27q0 -18 16 -20l121 -12q63 -5 90.5 -31.5t27.5 -87.5q0 -85 -53.5 -119t-170.5 -34q-100 0 -194 25l21 105q83 -20 160 -20q61 0 83 6
t22 29q0 14 -8 19.5t-30 7.5q-44 4 -124 12q-55 6 -79.5 23.5t-24.5 64.5t42 89q-62 37 -62 125zM234 238q35 0 50 11.5t15 36.5v46q0 51 -65 51t-65 -51v-46q0 -25 15 -36.5t50 -11.5z" />
    <glyph glyph-name="h" unicode="h" horiz-adv-x="553" 
d="M493 0h-144v322q0 35 -35 35t-105 -36v-321h-144v686l142 20v-254q98 45 174 45q112 0 112 -156v-341z" />
    <glyph glyph-name="i" unicode="i" horiz-adv-x="274" 
d="M209 548h-144v153h144v-153zM209 0h-144v487h144v-487z" />
    <glyph glyph-name="j" unicode="j" horiz-adv-x="264" 
d="M204 548h-144v153h144v-153zM72 -207l-87 94q3 3 13 12t12.5 11.5l10.5 10t10 10.5t8 10t8 10.5l5.5 9.5t4.5 11t2 11.5t1 12.5v491h144v-510q0 -42 -31 -84t-101 -100z" />
    <glyph glyph-name="k" unicode="k" horiz-adv-x="527" 
d="M209 0h-144v686l144 20v-706zM228 245l124 242h154l-128 -242l134 -245h-154z" />
    <glyph glyph-name="l" unicode="l" horiz-adv-x="274" 
d="M209 0h-144v686l144 20v-706z" />
    <glyph glyph-name="m" unicode="m" horiz-adv-x="837" 
d="M493 0h-144v322q0 35 -35 35q-41 0 -105 -35v-322h-144v487h107l15 -37q97 47 194 47q62 0 89 -47q96 47 195 47q112 0 112 -156v-341h-144v322q0 35 -35 35q-41 0 -105 -35v-322z" />
    <glyph glyph-name="n" unicode="n" horiz-adv-x="553" 
d="M493 0h-144v322q0 35 -35 35q-41 0 -105 -35v-322h-144v487h107l15 -37q97 47 194 47q112 0 112 -156v-341z" />
    <glyph glyph-name="o" unicode="o" horiz-adv-x="520" 
d="M260 -10q-119 0 -169.5 55.5t-50.5 141.5v113q0 86 50.5 141.5t169.5 55.5t169.5 -55.5t50.5 -141.5v-113q0 -86 -50.5 -141.5t-169.5 -55.5zM260 111q76 0 76 72v121q0 72 -76 72t-76 -72v-121q0 -72 76 -72z" />
    <glyph glyph-name="p" unicode="p" horiz-adv-x="537" 
d="M497 317v-147q0 -180 -164 -180q-66 0 -124 14v-201l-144 -20v704h113l15 -39q76 49 150 49q75 0 114.5 -45.5t39.5 -134.5zM209 334v-207q50 -12 92 -12q52 0 52 55v147q0 55 -52 55q-48 0 -92 -38z" />
    <glyph glyph-name="q" unicode="q" horiz-adv-x="537" 
d="M40 292q0 48 8.5 81.5t32.5 63.5t72 45t121 15q96 0 198 -17v-677l-144 -20v234q-70 -27 -138 -27q-150 0 -150 176v126zM328 142v228q-21 2 -59 2q-50 0 -67.5 -20t-17.5 -59v-126q0 -52 52 -52q40 0 92 27z" />
    <glyph glyph-name="r" unicode="r" horiz-adv-x="345" 
d="M338 361q-88 -35 -129 -64v-297h-144v487h120l10 -47q24 16 63.5 33.5t67.5 23.5z" />
    <glyph glyph-name="s" unicode="s" horiz-adv-x="433" 
d="M398 145q0 -79 -40.5 -117t-140.5 -38q-90 0 -177 29l23 107q73 -22 147 -22q31 0 40.5 9t9.5 32q0 24 -11 32t-68 22q-84 21 -106.5 50t-22.5 102q0 80 39.5 113t146.5 33q85 0 148 -16l-13 -112q-75 14 -134 14q-30 0 -41 -8t-11 -25q0 -23 9.5 -30t52.5 -17
q53 -12 82 -23.5t44.5 -31.5t19 -41t3.5 -62z" />
    <glyph glyph-name="t" unicode="t" horiz-adv-x="360" 
d="M332 8q-52 -18 -104 -18q-147 0 -147 125v256h-66v116h66v117l144 20v-137h111l-8 -116h-103v-236q0 -27 30 -27q33 0 60 9z" />
    <glyph glyph-name="u" unicode="u" horiz-adv-x="553" 
d="M60 487h144v-322q0 -35 35 -35q41 0 105 35v322h144v-487h-107l-15 37q-97 -47 -194 -47q-112 0 -112 156v341z" />
    <glyph glyph-name="v" unicode="v" horiz-adv-x="500" 
d="M495 487l-153 -487h-184l-153 487h146l99 -345l99 345h146z" />
    <glyph glyph-name="w" unicode="w" horiz-adv-x="705" 
d="M447 0l-95 318l-94 -318h-156l-84 487h132l46 -285l85 285h144l84 -285l46 285h132l-84 -487h-156z" />
    <glyph glyph-name="x" unicode="x" horiz-adv-x="492" 
d="M473 487l-151 -242l155 -245h-145l-86 135l-86 -135h-145l155 245l-151 242h142l85 -133l85 133h142z" />
    <glyph glyph-name="y" unicode="y" horiz-adv-x="495" 
d="M280 -197h-136l57 197h-46l-150 487h146l99 -345l99 345h146l-153 -487z" />
    <glyph glyph-name="z" unicode="z" horiz-adv-x="460" 
d="M46 377v110h368v-110l-202 -267h208v-110h-375v110l201 267h-200z" />
    <glyph glyph-name="braceleft" unicode="{" horiz-adv-x="340" 
d="M40 324v54h26q36 0 36 34v229q0 149 141 149h87v-114h-44q-40 0 -40 -42v-205q0 -102 -95 -105q95 -3 95 -105v-205q0 -42 40 -42h44v-114h-87q-141 0 -141 149v229q0 34 -36 34h-26v54z" />
    <glyph glyph-name="bar" unicode="|" horiz-adv-x="260" 
d="M180 -210h-100v1000h100v-1000z" />
    <glyph glyph-name="braceright" unicode="}" horiz-adv-x="340" 
d="M300 378v-54v-54h-26q-36 0 -36 -34v-229q0 -149 -141 -149h-87v114h44q40 0 40 42v205q0 102 95 105q-95 3 -95 105v205q0 42 -40 42h-44v114h87q141 0 141 -149v-229q0 -34 36 -34h26z" />
    <glyph glyph-name="asciitilde" unicode="~" horiz-adv-x="461" 
d="M305 187q-28 0 -56.5 15.5t-49.5 31t-33 15.5q-37 0 -63 -62l-78 45q49 126 141 126q26 0 74.5 -31t64.5 -31q22 0 38.5 19t24.5 43l78 -45q-43 -126 -141 -126z" />
    <glyph glyph-name="nbspace" unicode="&#xa0;" horiz-adv-x="210" 
 />
    <glyph glyph-name="exclamdown" unicode="&#xa1;" horiz-adv-x="284" 
d="M100 256h84l30 -174v-279h-144v279zM70 487h144v-166h-144v166z" />
    <glyph glyph-name="cent" unicode="&#xa2;" horiz-adv-x="426" 
d="M188 -10v95q-80 12 -116.5 58.5t-36.5 134.5v111q0 88 36.5 134t116.5 59v94h93v-90q35 -1 95 -14l-18 -120q-51 12 -100 12q-43 0 -61 -17.5t-18 -55.5v-115q0 -38 18 -55.5t61 -17.5q48 0 100 12l18 -120q-49 -12 -95 -15v-90h-93z" />
    <glyph glyph-name="sterling" unicode="&#xa3;" horiz-adv-x="543" 
d="M55 281v103h72q-17 70 -17 107q0 87 49 126t155 39q87 0 181 -24l-19 -113q-77 17 -161 17q-34 0 -47.5 -14t-13.5 -43q0 -39 16 -95h175l-10 -103h-153q1 -7 1 -20q0 -73 -62 -138h277v-123h-438v123q79 61 79 140q0 12 -1 18h-83z" />
    <glyph glyph-name="currency" unicode="&#xa4;" horiz-adv-x="584" 
d="M529 521l-68 -68q10 -23 10 -51v-134q0 -29 -10 -52l68 -67l-85 -85l-78 77q-34 -8 -74 -8q-41 0 -75 8l-77 -77l-85 85l68 68q-9 23 -9 51v134q0 27 9 51l-68 68l85 85l77 -78q31 9 75 9q42 0 74 -9l78 78zM236 386v-102q0 -26 14 -34t42 -8t42.5 8t14.5 34v102
q0 26 -14.5 34t-42.5 8t-42 -8t-14 -34z" />
    <glyph glyph-name="yen" unicode="&#xa5;" horiz-adv-x="548" 
d="M492 120h-143v-120h-150v120h-142v89h134l-34 78h-100v93h60l-117 266h157l117 -289l117 289h157l-117 -266h61v-93h-102l-34 -78h136v-89z" />
    <glyph glyph-name="brokenbar" unicode="&#xa6;" horiz-adv-x="260" 
d="M180 -210h-100v417h100v-417zM180 790v-417h-100v417h100z" />
    <glyph glyph-name="section" unicode="&#xa7;" horiz-adv-x="535" 
d="M264 25l-112 -25q-107 353 -107 557q0 57 37.5 88t108.5 31q87 0 184 -29l-17 -95q-97 23 -150 23q-43 0 -43 -40q0 -151 99 -510zM276 464l112 25q107 -353 107 -557q0 -57 -37.5 -88t-108.5 -31q-87 0 -184 29l17 95q97 -23 150 -23q43 0 43 40q0 151 -99 510z" />
    <glyph glyph-name="dieresis" unicode="&#xa8;" horiz-adv-x="434" 
d="M169 554h-114v118h114v-118zM379 554h-114v118h114v-118z" />
    <glyph glyph-name="copyright" unicode="&#xa9;" horiz-adv-x="766" 
d="M350 374v-77q0 -24 11.5 -35t37.5 -11q42 0 78 8l13 -88q-39 -11 -91 -11q-154 0 -154 128v94q0 64 37 95.5t117 31.5q53 0 91 -11l-13 -88q-38 9 -78 9q-49 0 -49 -45zM40 333q0 146 95.5 245t247.5 99t247.5 -99t95.5 -245q0 -145 -95.5 -244t-247.5 -99t-247.5 99
t-95.5 244zM137 333q0 -107 68 -178t178 -71t178 71t68 178q0 108 -68 179t-178 71t-178 -71t-68 -179z" />
    <glyph glyph-name="ordfeminine" unicode="&#xaa;" horiz-adv-x="377" 
d="M317 378h-76l-6 20q-47 -26 -89 -26q-41 0 -61 26t-20 68q0 47 22 67.5t71 20.5h67v24q0 25 -10 34t-45 9q-40 0 -84 -9l-13 69q50 15 112 15q79 0 105.5 -26t26.5 -93v-199zM225 454v36h-44q-15 0 -21.5 -5t-6.5 -17q0 -25 25 -25q21 0 47 11z" />
    <glyph glyph-name="guillemotleft" unicode="&#xab;" horiz-adv-x="560" 
d="M172 51l-127 193l127 193l91 -57l-89 -136l89 -136zM394 51l-127 193l127 193l91 -57l-89 -136l89 -136z" />
    <glyph glyph-name="logicalnot" unicode="&#xac;" horiz-adv-x="507" 
d="M322 104v154h-282v110h402v-264h-120z" />
    <glyph glyph-name="registered" unicode="&#xae;" horiz-adv-x="451" 
d="M45 515q0 77 50 129t130 52q81 0 131 -52t50 -129t-50 -129.5t-131 -52.5q-80 0 -130 52.5t-50 129.5zM104 515q0 -55 31 -90.5t90 -35.5t90.5 36t31.5 90t-31.5 89.5t-90.5 35.5t-90 -35.5t-31 -89.5zM262 436l-38 54h-20v-54h-40v166h69q55 0 55 -48v-16q0 -30 -22 -41
l42 -61h-46zM249 542v8q0 15 -19 15h-26v-39h26q19 0 19 16z" />
    <glyph glyph-name="macron" unicode="&#xaf;" horiz-adv-x="344" 
d="M299 560h-254v92h254v-92z" />
    <glyph glyph-name="degree" unicode="&#xb0;" horiz-adv-x="373" 
d="M323 522q0 -57 -37 -95.5t-99 -38.5q-63 0 -100 38.5t-37 95.5t37.5 95.5t99.5 38.5t99 -38.5t37 -95.5zM246 522q0 29 -15 47.5t-44 18.5t-44.5 -18.5t-15.5 -47.5q0 -28 15.5 -47t44.5 -19q28 0 43.5 19t15.5 47z" />
    <glyph glyph-name="plusminus" unicode="&#xb1;" horiz-adv-x="517" 
d="M462 307h-146v-148h-115v148h-146v110h146v149h115v-149h146v-110zM462 0h-407v105h407v-105z" />
    <glyph glyph-name="twosuperior" unicode="&#xb2;" horiz-adv-x="394" 
d="M280 413l-70 -82h124v-88h-274v78l92 95q46 46 55 60.5t9 31.5v19q0 19 -8 26t-30 7q-45 0 -109 -16l-19 91q73 21 140 21q74 0 102.5 -26.5t28.5 -85.5v-33q0 -49 -41 -98z" />
    <glyph glyph-name="threesuperior" unicode="&#xb3;" horiz-adv-x="367" 
d="M74 486h98q33 0 33 30v22q0 19 -9 26.5t-39 7.5q-41 0 -86 -8l-12 79q56 13 103 13q79 0 111.5 -26t32.5 -79v-23q0 -29 -9.5 -46t-36.5 -33q31 -10 41.5 -29.5t10.5 -51.5v-22q0 -55 -32 -83t-116 -28q-60 0 -114 16l13 80q45 -11 100 -11q28 0 38 8t10 25v21
q0 31 -36 31h-101v81z" />
    <glyph glyph-name="acute" unicode="&#xb4;" horiz-adv-x="310" 
d="M100 537l-50 76q88 56 151 102l54 -84q-85 -55 -155 -94z" />
    <glyph glyph-name="mu" unicode="&#xb5;" horiz-adv-x="553" 
d="M60 -197v684h144v-322q0 -35 35 -35q41 0 105 35v322h144v-487h-107l-15 37q-76 -37 -162 -45v-189h-144z" />
    <glyph glyph-name="paragraph" unicode="&#xb6;" horiz-adv-x="538" 
d="M45 441q0 96 64.5 160.5t160.5 64.5v-449q-96 0 -160.5 64t-64.5 160zM299 -207l-68 78q94 86 108 102.5t14 47.5v645h110v-661q0 -12 -1 -20.5l-2 -16.5t-5.5 -16t-7 -14.5t-12 -16.5l-15.5 -16.5t-21.5 -21l-26 -24l-33.5 -30.5z" />
    <glyph glyph-name="periodcentered" unicode="&#xb7;" horiz-adv-x="274" 
d="M209 254h-144v166h144v-166z" />
    <glyph glyph-name="cedilla" unicode="&#xb8;" horiz-adv-x="286" 
d="M241 -115q0 -82 -112 -82q-43 0 -84 16l14 55q34 -10 62 -10q47 0 47 22q0 16 -7 19t-28 3q-10 0 -42 -2l-20 17l21 97h63l-13 -67q54 7 76.5 -9.5t22.5 -58.5z" />
    <glyph glyph-name="onesuperior" unicode="&#xb9;" horiz-adv-x="356" 
d="M261 241h-105v285l-84 -40l-37 82l143 78h83v-405z" />
    <glyph glyph-name="ordmasculine" unicode="&#xba;" horiz-adv-x="401" 
d="M201 372q-141 0 -141 126v72q0 126 141 126q76 0 108 -35.5t32 -90.5v-72q0 -55 -32 -90.5t-108 -35.5zM201 449q48 0 48 46v78q0 46 -48 46q-49 0 -49 -46v-78q0 -46 49 -46z" />
    <glyph glyph-name="guillemotright" unicode="&#xbb;" horiz-adv-x="560" 
d="M515 244l-127 -193l-91 57l89 136l-89 136l91 57zM293 244l-127 -193l-91 57l89 136l-89 136l91 57z" />
    <glyph glyph-name="onequarter" unicode="&#xbc;" horiz-adv-x="868" 
d="M808 77h-59v-77h-100v77h-183v72l138 256h145v-247h59v-81zM649 158v162l-80 -162h80zM261 241h-105v285l-84 -40l-37 82l143 78h83v-405zM211 -10l311 701l78 -35l-310 -700z" />
    <glyph glyph-name="onehalf" unicode="&#xbd;" horiz-adv-x="878" 
d="M261 241h-105v285l-84 -40l-37 82l143 78h83v-405zM764 170l-70 -82h124v-88h-274v78l92 95q46 46 55 60.5t9 31.5v19q0 19 -8 26t-30 7q-45 0 -109 -16l-19 91q73 21 140 21q74 0 102.5 -26.5t28.5 -85.5v-33q0 -49 -41 -98zM210 -10l311 701l78 -35l-310 -700z" />
    <glyph glyph-name="threequarters" unicode="&#xbe;" horiz-adv-x="885" 
d="M69 484h98q33 0 33 30v24q0 19 -9 26.5t-39 7.5q-55 0 -86 -7l-12 79q54 12 103 12q79 0 111.5 -26t32.5 -79v-23q0 -29 -9.5 -46t-36.5 -33q31 -10 41.5 -29.5t10.5 -51.5v-22q0 -55 -32 -83t-116 -28q-60 0 -114 16l13 78q44 -9 116 -9q32 0 32 29v29q0 29 -32 29h-105
v77zM825 77h-59v-77h-100v77h-183v72l138 256h145v-247h59v-81zM666 158v162l-80 -162h80zM226 -10l310 701l78 -35l-309 -700z" />
    <glyph glyph-name="questiondown" unicode="&#xbf;" horiz-adv-x="485" 
d="M189 487h144v-166h-144v166zM242 259l81 -110q-94 -70 -114 -94t-20 -64q0 -36 20 -53t74 -17q58 0 147 16l20 -124q-99 -20 -183 -20q-127 0 -174.5 47t-47.5 143q0 41 3.5 63.5t11.5 45.5t33 47t56 49.5t93 70.5z" />
    <glyph glyph-name="Agrave" unicode="&#xc0;" horiz-adv-x="627" 
d="M413 666l204 -666h-156l-36 130h-223l-36 -130h-156l203 666h200zM313 534l-77 -279h153zM377 783l-50 -76q-83 44 -140 84l54 84q44 -34 136 -92z" />
    <glyph glyph-name="Aacute" unicode="&#xc1;" horiz-adv-x="627" 
d="M413 666l204 -666h-156l-36 130h-223l-36 -130h-156l203 666h200zM313 534l-77 -279h153zM317 707l-50 76q92 58 136 92l54 -84q-57 -40 -140 -84z" />
    <glyph glyph-name="Acircumflex" unicode="&#xc2;" horiz-adv-x="627" 
d="M413 666l204 -666h-156l-36 130h-223l-36 -130h-156l203 666h200zM313 534l-77 -279h153zM441 774l-39 -62q-48 21 -89 45q-41 -24 -89 -45l-39 62q61 41 128 94q67 -53 128 -94z" />
    <glyph glyph-name="Atilde" unicode="&#xc3;" horiz-adv-x="627" 
d="M413 666l204 -666h-156l-36 130h-223l-36 -130h-156l203 666h200zM313 534l-77 -279h153zM374 717q-37 0 -67 21q-30 22 -46 22q-5 0 -9.5 -1.5t-8.5 -5t-7 -5.5t-7.5 -8l-6 -8l-6.5 -9t-5 -8l-58 45q44 87 105 87q34 0 65 -21q35 -23 51 -23q29 0 38 41l68 -31
q-27 -96 -106 -96z" />
    <glyph glyph-name="Adieresis" unicode="&#xc4;" horiz-adv-x="627" 
d="M413 666l204 -666h-156l-36 130h-223l-36 -130h-156l203 666h200zM313 534l-77 -279h153zM269 727h-114v109h114v-109zM471 727h-114v109h114v-109z" />
    <glyph glyph-name="Aring" unicode="&#xc5;" horiz-adv-x="627" 
d="M413 666l204 -666h-156l-36 130h-223l-36 -130h-156l203 666h200zM313 534l-77 -279h153zM401 791q0 -35 -24.5 -59.5t-63.5 -24.5q-40 0 -64 23t-24 61q0 36 24 60.5t64 24.5t64 -24.5t24 -60.5zM347 791q0 17 -9 26.5t-25 9.5t-25 -9.5t-9 -26.5q0 -16 9 -25.5t25 -9.5
t25 9.5t9 25.5z" />
    <glyph glyph-name="AE" unicode="&#xc6;" horiz-adv-x="855" 
d="M805 0h-344l-36 130h-223l-36 -130h-156l203 666h592v-133h-352l38 -122h293v-133h-253l45 -145h229v-133zM313 534l-77 -279h153z" />
    <glyph glyph-name="Ccedilla" unicode="&#xc7;" horiz-adv-x="521" 
d="M413 -115q0 -82 -112 -82q-43 0 -84 16l14 55q34 -10 62 -10q47 0 47 22q0 16 -7 19t-28 3q-10 0 -42 -2l-20 17l15 69q-104 7 -156 61t-52 141v278q0 95 60.5 149.5t182.5 54.5q94 0 193 -21l-21 -131q-93 16 -172 16q-93 0 -93 -92v-230q0 -92 93 -92q79 0 172 16
l21 -131q-89 -19 -165 -20l-7 -38q54 7 76.5 -9.5t22.5 -58.5z" />
    <glyph glyph-name="Egrave" unicode="&#xc8;" horiz-adv-x="534" 
d="M484 0h-419v666h419v-133h-269v-122h248v-133h-248v-145h269v-133zM349 783l-50 -76q-83 44 -140 84l54 84q44 -34 136 -92z" />
    <glyph glyph-name="Eacute" unicode="&#xc9;" horiz-adv-x="534" 
d="M484 0h-419v666h419v-133h-269v-122h248v-133h-248v-145h269v-133zM255 707l-50 76q92 58 136 92l54 -84q-57 -40 -140 -84z" />
    <glyph glyph-name="Ecircumflex" unicode="&#xca;" horiz-adv-x="534" 
d="M484 0h-419v666h419v-133h-269v-122h248v-133h-248v-145h269v-133zM413 774l-39 -62q-48 21 -89 45q-41 -24 -89 -45l-39 62q61 41 128 94q67 -53 128 -94z" />
    <glyph glyph-name="Edieresis" unicode="&#xcb;" horiz-adv-x="534" 
d="M484 0h-419v666h419v-133h-269v-122h248v-133h-248v-145h269v-133zM234 727h-114v109h114v-109zM436 727h-114v109h114v-109z" />
    <glyph glyph-name="Igrave" unicode="&#xcc;" horiz-adv-x="290" 
d="M220 0h-150v666h150v-666zM213 783l-50 -76q-83 44 -140 84l54 84q44 -34 136 -92z" />
    <glyph glyph-name="Iacute" unicode="&#xcd;" horiz-adv-x="290" 
d="M220 0h-150v666h150v-666zM132 707l-50 76q92 58 136 92l54 -84q-57 -40 -140 -84z" />
    <glyph glyph-name="Icircumflex" unicode="&#xce;" horiz-adv-x="290" 
d="M220 0h-150v666h150v-666zM273 774l-39 -62q-48 21 -89 45q-41 -24 -89 -45l-39 62q61 41 128 94q67 -53 128 -94z" />
    <glyph glyph-name="Idieresis" unicode="&#xcf;" horiz-adv-x="290" 
d="M220 0h-150v666h150v-666zM101 727h-114v109h114v-109zM303 727h-114v109h114v-109z" />
    <glyph glyph-name="Eth" unicode="&#xd0;" horiz-adv-x="624" 
d="M25 276v119h66v271h258q115 0 170 -49t55 -124v-320q0 -74 -55 -123.5t-170 -49.5h-258v276h-66zM424 214v238q0 42 -20 61.5t-73 19.5h-90v-138h88v-119h-88v-143h90q53 0 73 19.5t20 61.5z" />
    <glyph glyph-name="Ntilde" unicode="&#xd1;" horiz-adv-x="676" 
d="M426 0l-218 438v-438h-143v666h184l219 -459v459h143v-666h-185zM403 717q-37 0 -67 21q-30 22 -46 22q-5 0 -9.5 -1.5t-8.5 -5t-7 -5.5t-7.5 -8l-6 -8t-6 -9t-5.5 -8l-58 45q44 87 105 87q33 0 65 -21q35 -23 51 -23q29 0 38 41l68 -31q-27 -96 -106 -96z" />
    <glyph glyph-name="Ograve" unicode="&#xd2;" horiz-adv-x="616" 
d="M566 472v-278q0 -85 -63.5 -144.5t-194.5 -59.5t-194.5 59.5t-63.5 144.5v278q0 85 63.5 144.5t194.5 59.5t194.5 -59.5t63.5 -144.5zM416 207v252q0 84 -108 84t-108 -84v-252q0 -84 108 -84t108 84zM364 783l-50 -76q-83 44 -140 84l54 84q44 -34 136 -92z" />
    <glyph glyph-name="Oacute" unicode="&#xd3;" horiz-adv-x="616" 
d="M566 472v-278q0 -85 -63.5 -144.5t-194.5 -59.5t-194.5 59.5t-63.5 144.5v278q0 85 63.5 144.5t194.5 59.5t194.5 -59.5t63.5 -144.5zM416 207v252q0 84 -108 84t-108 -84v-252q0 -84 108 -84t108 84zM300 707l-50 76q92 58 136 92l54 -84q-57 -40 -140 -84z" />
    <glyph glyph-name="Ocircumflex" unicode="&#xd4;" horiz-adv-x="616" 
d="M566 472v-278q0 -85 -63.5 -144.5t-194.5 -59.5t-194.5 59.5t-63.5 144.5v278q0 85 63.5 144.5t194.5 59.5t194.5 -59.5t63.5 -144.5zM416 207v252q0 84 -108 84t-108 -84v-252q0 -84 108 -84t108 84zM436 774l-39 -62q-48 21 -89 45q-41 -24 -89 -45l-39 62
q61 41 128 94q67 -53 128 -94z" />
    <glyph glyph-name="Otilde" unicode="&#xd5;" horiz-adv-x="616" 
d="M566 472v-278q0 -85 -63.5 -144.5t-194.5 -59.5t-194.5 59.5t-63.5 144.5v278q0 85 63.5 144.5t194.5 59.5t194.5 -59.5t63.5 -144.5zM416 207v252q0 84 -108 84t-108 -84v-252q0 -84 108 -84t108 84zM372 717q-37 0 -67 21q-30 22 -46 22q-5 0 -9.5 -1.5t-8.5 -5
t-7 -5.5t-7.5 -8l-6 -8t-6 -9t-5.5 -8l-58 45q44 87 105 87q34 0 65 -21q35 -23 51 -23q29 0 38 41l68 -31q-27 -96 -106 -96z" />
    <glyph glyph-name="Odieresis" unicode="&#xd6;" horiz-adv-x="616" 
d="M566 472v-278q0 -85 -63.5 -144.5t-194.5 -59.5t-194.5 59.5t-63.5 144.5v278q0 85 63.5 144.5t194.5 59.5t194.5 -59.5t63.5 -144.5zM416 207v252q0 84 -108 84t-108 -84v-252q0 -84 108 -84t108 84zM264 727h-114v109h114v-109zM466 727h-114v109h114v-109z" />
    <glyph glyph-name="multiply" unicode="&#xd7;" horiz-adv-x="480" 
d="M343 53l-103 103l-103 -103l-82 82l103 103l-103 103l82 82l103 -103l103 103l82 -82l-103 -103l103 -103z" />
    <glyph glyph-name="Oslash" unicode="&#xd8;" horiz-adv-x="616" 
d="M50 -25l52 85q-52 53 -52 134v278q0 85 63.5 144.5t194.5 59.5q86 0 149 -30l49 80l60 -36l-52 -85q52 -55 52 -133v-278q0 -85 -63.5 -144.5t-194.5 -59.5q-90 0 -150 30l-48 -80zM200 459v-237l184 303q-29 18 -76 18q-108 0 -108 -84zM308 123q108 0 108 84v236
l-184 -302q26 -18 76 -18z" />
    <glyph glyph-name="Ugrave" unicode="&#xd9;" horiz-adv-x="622" 
d="M412 666h150v-472q0 -86 -60.5 -145t-190.5 -59t-190.5 59t-60.5 145v472h150v-458q0 -42 23.5 -63.5t77.5 -21.5t77.5 21.5t23.5 63.5v458zM387 783l-50 -76q-83 44 -140 84l54 84q44 -34 136 -92z" />
    <glyph glyph-name="Uacute" unicode="&#xda;" horiz-adv-x="622" 
d="M412 666h150v-472q0 -86 -60.5 -145t-190.5 -59t-190.5 59t-60.5 145v472h150v-458q0 -42 23.5 -63.5t77.5 -21.5t77.5 21.5t23.5 63.5v458zM290 707l-50 76q92 58 136 92l54 -84q-57 -40 -140 -84z" />
    <glyph glyph-name="Ucircumflex" unicode="&#xdb;" horiz-adv-x="622" 
d="M412 666h150v-472q0 -86 -60.5 -145t-190.5 -59t-190.5 59t-60.5 145v472h150v-458q0 -42 23.5 -63.5t77.5 -21.5t77.5 21.5t23.5 63.5v458zM438 774l-39 -62q-48 21 -89 45q-41 -24 -89 -45l-39 62q61 41 128 94q67 -53 128 -94z" />
    <glyph glyph-name="Udieresis" unicode="&#xdc;" horiz-adv-x="622" 
d="M412 666h150v-472q0 -86 -60.5 -145t-190.5 -59t-190.5 59t-60.5 145v472h150v-458q0 -42 23.5 -63.5t77.5 -21.5t77.5 21.5t23.5 63.5v458zM267 727h-114v109h114v-109zM469 727h-114v109h114v-109z" />
    <glyph glyph-name="Yacute" unicode="&#xdd;" horiz-adv-x="564" 
d="M564 666l-207 -474v-192h-150v192l-207 474h157l125 -309l125 309h157zM272 707l-50 76q92 58 136 92l54 -84q-57 -40 -140 -84z" />
    <glyph glyph-name="Thorn" unicode="&#xde;" horiz-adv-x="584" 
d="M559 291q0 -95 -55 -141.5t-175 -46.5h-114v-103h-150v666h150v-99h122q119 0 170.5 -46.5t51.5 -142.5v-87zM409 306v58q0 37 -17 53.5t-63 16.5h-114v-201h114q47 0 63.5 17t16.5 56z" />
    <glyph glyph-name="germandbls" unicode="&#xdf;" horiz-adv-x="590" 
d="M352 532q0 54 -70 54q-39 0 -56 -16.5t-17 -53.5v-516h-144v518q0 188 214 188q107 0 162 -46.5t55 -124.5q0 -50 -40 -114q-37 -58 -37 -78q0 -22 56 -71q59 -53 72 -75t13 -63q0 -75 -32.5 -109.5t-118.5 -34.5q-73 0 -130 18l17 107q44 -11 86 -11q40 0 40 26v5
t-1 4.5t-2.5 4.5t-4.5 5l-5.5 5.5t-8.5 8t-11.5 10l-15 12.5l-18.5 16q-51 44 -65.5 69t-14.5 65q0 27 7.5 46.5t30.5 54.5q39 61 39 96z" />
    <glyph glyph-name="agrave" unicode="&#xe0;" horiz-adv-x="499" 
d="M444 0h-118l-10 31q-74 -41 -139 -41q-64 0 -95.5 41t-31.5 107q0 73 34.5 105t110.5 32h105v37q0 40 -15.5 53.5t-70.5 13.5q-60 0 -132 -14l-19 108q79 24 175 24q123 0 164.5 -40.5t41.5 -145.5v-311zM300 119v56h-69q-24 0 -33.5 -7.5t-9.5 -27.5t9 -29t30 -9
q36 0 73 17zM323 613l-50 -76q-70 39 -155 94l54 84q63 -46 151 -102z" />
    <glyph glyph-name="aacute" unicode="&#xe1;" horiz-adv-x="499" 
d="M444 0h-118l-10 31q-74 -41 -139 -41q-64 0 -95.5 41t-31.5 107q0 73 34.5 105t110.5 32h105v37q0 40 -15.5 53.5t-70.5 13.5q-60 0 -132 -14l-19 108q79 24 175 24q123 0 164.5 -40.5t41.5 -145.5v-311zM300 119v56h-69q-24 0 -33.5 -7.5t-9.5 -27.5t9 -29t30 -9
q36 0 73 17zM225 537l-50 76q88 56 151 102l54 -84q-85 -55 -155 -94z" />
    <glyph glyph-name="acircumflex" unicode="&#xe2;" horiz-adv-x="499" 
d="M444 0h-118l-10 31q-74 -41 -139 -41q-64 0 -95.5 41t-31.5 107q0 73 34.5 105t110.5 32h105v37q0 40 -15.5 53.5t-70.5 13.5q-60 0 -132 -14l-19 108q79 24 175 24q123 0 164.5 -40.5t41.5 -145.5v-311zM300 119v56h-69q-24 0 -33.5 -7.5t-9.5 -27.5t9 -29t30 -9
q36 0 73 17zM155 531l-44 59q76 59 143 117q67 -58 143 -117l-44 -59q-58 35 -99 65q-41 -30 -99 -65z" />
    <glyph glyph-name="atilde" unicode="&#xe3;" horiz-adv-x="499" 
d="M444 0h-118l-10 31q-74 -41 -139 -41q-64 0 -95.5 41t-31.5 107q0 73 34.5 105t110.5 32h105v37q0 40 -15.5 53.5t-70.5 13.5q-60 0 -132 -14l-19 108q79 24 175 24q123 0 164.5 -40.5t41.5 -145.5v-311zM300 119v56h-69q-24 0 -33.5 -7.5t-9.5 -27.5t9 -29t30 -9
q36 0 73 17zM310 546q-37 0 -67 21q-30 22 -46 22q-5 0 -9.5 -1.5t-8.5 -5t-7 -5.5t-7.5 -8l-6 -8l-6.5 -9t-5 -8l-58 45q44 87 105 87q34 0 65 -21q35 -23 51 -23q29 0 38 41l68 -31q-27 -96 -106 -96z" />
    <glyph glyph-name="adieresis" unicode="&#xe4;" horiz-adv-x="499" 
d="M444 0h-118l-10 31q-74 -41 -139 -41q-64 0 -95.5 41t-31.5 107q0 73 34.5 105t110.5 32h105v37q0 40 -15.5 53.5t-70.5 13.5q-60 0 -132 -14l-19 108q79 24 175 24q123 0 164.5 -40.5t41.5 -145.5v-311zM300 119v56h-69q-24 0 -33.5 -7.5t-9.5 -27.5t9 -29t30 -9
q36 0 73 17zM210 554h-114v118h114v-118zM420 554h-114v118h114v-118z" />
    <glyph glyph-name="aring" unicode="&#xe5;" horiz-adv-x="499" 
d="M444 0h-118l-10 31q-74 -41 -139 -41q-64 0 -95.5 41t-31.5 107q0 73 34.5 105t110.5 32h105v37q0 40 -15.5 53.5t-70.5 13.5q-60 0 -132 -14l-19 108q79 24 175 24q123 0 164.5 -40.5t41.5 -145.5v-311zM300 119v56h-69q-24 0 -33.5 -7.5t-9.5 -27.5t9 -29t30 -9
q36 0 73 17zM361 627q0 -40 -25.5 -66.5t-71.5 -26.5t-71.5 25.5t-25.5 67.5q0 40 26 66.5t71 26.5q46 0 71.5 -26.5t25.5 -66.5zM301 627q0 18 -10 29t-27 11t-27 -11t-10 -29t10 -29t27 -11t27 11t10 29z" />
    <glyph glyph-name="ae" unicode="&#xe6;" horiz-adv-x="746" 
d="M706 193h-262v-22q1 -37 20.5 -50t67.5 -13q79 0 148 21l21 -108q-85 -31 -183 -31q-99 0 -153 40q-77 -40 -168 -40q-71 0 -109 41.5t-38 106.5q0 73 34.5 105t110.5 32h105v37q0 40 -15.5 53.5t-70.5 13.5q-60 0 -132 -14l-19 108q79 24 175 24q89 0 146 -37
q56 37 125 37q58 0 98.5 -16t61 -46t29 -63.5t8.5 -76.5v-102zM570 301v21q0 29 -12.5 45.5t-47.5 16.5q-66 0 -66 -62v-21h126zM300 119v56h-69q-24 0 -33.5 -7.5t-9.5 -27.5t9 -29t30 -9q36 0 73 17z" />
    <glyph glyph-name="ccedilla" unicode="&#xe7;" horiz-adv-x="406" 
d="M179 301v-115q0 -38 18 -55.5t61 -17.5q48 0 100 12l18 -120q-67 -15 -118 -15l-7 -37q54 7 76.5 -9.5t22.5 -58.5q0 -82 -112 -82q-43 0 -84 16l14 55q34 -10 62 -10q47 0 47 22q0 16 -7 19t-28 3q-10 0 -42 -2l-20 17l15 71q-84 11 -122 57.5t-38 136.5v111
q0 104 52.5 151t170.5 47q51 0 118 -15l-18 -120q-51 12 -100 12q-43 0 -61 -17.5t-18 -55.5z" />
    <glyph glyph-name="egrave" unicode="&#xe8;" horiz-adv-x="486" 
d="M446 193h-262v-14q0 -41 19 -56t69 -15q79 0 148 21l21 -108q-85 -31 -183 -31q-218 0 -218 198v114q0 195 209 195q58 0 98.5 -16t61 -46t29 -63.5t8.5 -76.5v-102zM310 301v21q0 29 -12.5 45.5t-47.5 16.5q-66 0 -66 -62v-21h126zM321 613l-50 -76q-70 39 -155 94
l54 84q63 -46 151 -102z" />
    <glyph glyph-name="eacute" unicode="&#xe9;" horiz-adv-x="486" 
d="M446 193h-262v-14q0 -41 19 -56t69 -15q79 0 148 21l21 -108q-85 -31 -183 -31q-218 0 -218 198v114q0 195 209 195q58 0 98.5 -16t61 -46t29 -63.5t8.5 -76.5v-102zM310 301v21q0 29 -12.5 45.5t-47.5 16.5q-66 0 -66 -62v-21h126zM226 537l-50 76q88 56 151 102l54 -84
q-85 -55 -155 -94z" />
    <glyph glyph-name="ecircumflex" unicode="&#xea;" horiz-adv-x="486" 
d="M446 193h-262v-14q0 -41 19 -56t69 -15q79 0 148 21l21 -108q-85 -31 -183 -31q-218 0 -218 198v114q0 195 209 195q58 0 98.5 -16t61 -46t29 -63.5t8.5 -76.5v-102zM310 301v21q0 29 -12.5 45.5t-47.5 16.5q-66 0 -66 -62v-21h126zM150 531l-44 59q76 59 143 117
q67 -58 143 -117l-44 -59q-58 35 -99 65q-41 -30 -99 -65z" />
    <glyph glyph-name="edieresis" unicode="&#xeb;" horiz-adv-x="486" 
d="M446 193h-262v-14q0 -41 19 -56t69 -15q79 0 148 21l21 -108q-85 -31 -183 -31q-218 0 -218 198v114q0 195 209 195q58 0 98.5 -16t61 -46t29 -63.5t8.5 -76.5v-102zM310 301v21q0 29 -12.5 45.5t-47.5 16.5q-66 0 -66 -62v-21h126zM203 554h-114v118h114v-118zM413 554
h-114v118h114v-118z" />
    <glyph glyph-name="igrave" unicode="&#xec;" horiz-adv-x="274" 
d="M209 0h-144v487h144v-487zM206 613l-50 -76q-70 39 -155 94l54 84q63 -46 151 -102z" />
    <glyph glyph-name="iacute" unicode="&#xed;" horiz-adv-x="274" 
d="M209 0h-144v487h144v-487zM126 537l-50 76q88 56 151 102l54 -84q-85 -55 -155 -94z" />
    <glyph glyph-name="icircumflex" unicode="&#xee;" horiz-adv-x="274" 
d="M209 0h-144v487h144v-487zM38 531l-44 59q76 59 143 117q67 -58 143 -117l-44 -59q-58 35 -99 65q-41 -30 -99 -65z" />
    <glyph glyph-name="idieresis" unicode="&#xef;" horiz-adv-x="274" 
d="M209 0h-144v487h144v-487zM89 554h-114v118h114v-118zM299 554h-114v118h114v-118z" />
    <glyph glyph-name="eth" unicode="&#xf0;" horiz-adv-x="490" 
d="M292 621l50 49l45 -45l-41 -40q104 -84 104 -233v-179q0 -183 -199 -183q-62 0 -104 15.5t-62 44.5t-27.5 60t-7.5 73v30q0 90 38 129t122 39q40 0 96 -15v11q0 73 -52 119l-71 -69l-45 45l60 58q-45 18 -116 32l22 114q109 -13 188 -55zM249 111q32 0 44.5 13.5
t12.5 48.5v69q-39 18 -72 18q-21 0 -32 -10.5t-11 -39.5v-41q0 -58 58 -58z" />
    <glyph glyph-name="ntilde" unicode="&#xf1;" horiz-adv-x="553" 
d="M493 0h-144v322q0 35 -35 35q-41 0 -105 -35v-322h-144v487h107l15 -37q97 47 194 47q112 0 112 -156v-341zM343 546q-37 0 -67 21q-30 22 -46 22q-5 0 -9.5 -1.5t-8.5 -5t-7 -5.5t-7.5 -8l-6 -8l-6.5 -9t-5 -8l-58 45q44 87 105 87q33 0 65 -21q35 -23 51 -23
q29 0 38 41l68 -31q-27 -96 -106 -96z" />
    <glyph glyph-name="ograve" unicode="&#xf2;" horiz-adv-x="520" 
d="M260 -10q-119 0 -169.5 55.5t-50.5 141.5v113q0 86 50.5 141.5t169.5 55.5t169.5 -55.5t50.5 -141.5v-113q0 -86 -50.5 -141.5t-169.5 -55.5zM260 111q76 0 76 72v121q0 72 -76 72t-76 -72v-121q0 -72 76 -72zM326 613l-50 -76q-70 39 -155 94l54 84q63 -46 151 -102z
" />
    <glyph glyph-name="oacute" unicode="&#xf3;" horiz-adv-x="520" 
d="M260 -10q-119 0 -169.5 55.5t-50.5 141.5v113q0 86 50.5 141.5t169.5 55.5t169.5 -55.5t50.5 -141.5v-113q0 -86 -50.5 -141.5t-169.5 -55.5zM260 111q76 0 76 72v121q0 72 -76 72t-76 -72v-121q0 -72 76 -72zM242 537l-50 76q88 56 151 102l54 -84q-85 -55 -155 -94z
" />
    <glyph glyph-name="ocircumflex" unicode="&#xf4;" horiz-adv-x="520" 
d="M260 -10q-119 0 -169.5 55.5t-50.5 141.5v113q0 86 50.5 141.5t169.5 55.5t169.5 -55.5t50.5 -141.5v-113q0 -86 -50.5 -141.5t-169.5 -55.5zM260 111q76 0 76 72v121q0 72 -76 72t-76 -72v-121q0 -72 76 -72zM161 531l-44 59q76 59 143 117q67 -58 143 -117l-44 -59
q-58 35 -99 65q-41 -30 -99 -65z" />
    <glyph glyph-name="otilde" unicode="&#xf5;" horiz-adv-x="520" 
d="M260 -10q-119 0 -169.5 55.5t-50.5 141.5v113q0 86 50.5 141.5t169.5 55.5t169.5 -55.5t50.5 -141.5v-113q0 -86 -50.5 -141.5t-169.5 -55.5zM260 111q76 0 76 72v121q0 72 -76 72t-76 -72v-121q0 -72 76 -72zM318 546q-37 0 -67 21q-30 22 -46 22q-5 0 -9.5 -1.5
t-8.5 -5t-7 -5.5t-7.5 -8l-6 -8l-6.5 -9t-5 -8l-58 45q44 87 105 87q34 0 65 -21q35 -23 51 -23q29 0 38 41l68 -31q-27 -96 -106 -96z" />
    <glyph glyph-name="odieresis" unicode="&#xf6;" horiz-adv-x="520" 
d="M260 -10q-119 0 -169.5 55.5t-50.5 141.5v113q0 86 50.5 141.5t169.5 55.5t169.5 -55.5t50.5 -141.5v-113q0 -86 -50.5 -141.5t-169.5 -55.5zM260 111q76 0 76 72v121q0 72 -76 72t-76 -72v-121q0 -72 76 -72zM212 554h-114v118h114v-118zM422 554h-114v118h114v-118z
" />
    <glyph glyph-name="divide" unicode="&#xf7;" horiz-adv-x="524" 
d="M329 0h-134v136h134v-136zM469 198h-414v92h414v-92zM329 351h-134v136h134v-136z" />
    <glyph glyph-name="oslash" unicode="&#xf8;" horiz-adv-x="520" 
d="M260 -10q-77 0 -127 25l-46 -65l-44 30l46 66q-49 50 -49 141v113q0 86 50.5 141.5t169.5 55.5q77 0 127 -25l46 65l44 -31l-46 -66q49 -50 49 -140v-113q0 -86 -50.5 -141.5t-169.5 -55.5zM184 183v-2l127 182q-19 13 -51 13q-76 0 -76 -72v-121zM260 111q76 0 76 72
v121l-127 -180q17 -13 51 -13z" />
    <glyph glyph-name="ugrave" unicode="&#xf9;" horiz-adv-x="553" 
d="M60 487h144v-322q0 -35 35 -35q41 0 105 35v322h144v-487h-107l-15 37q-97 -47 -194 -47q-112 0 -112 156v341zM344 613l-50 -76q-70 39 -155 94l54 84q63 -46 151 -102z" />
    <glyph glyph-name="uacute" unicode="&#xfa;" horiz-adv-x="553" 
d="M60 487h144v-322q0 -35 35 -35q41 0 105 35v322h144v-487h-107l-15 37q-97 -47 -194 -47q-112 0 -112 156v341zM255 537l-50 76q88 56 151 102l54 -84q-85 -55 -155 -94z" />
    <glyph glyph-name="ucircumflex" unicode="&#xfb;" horiz-adv-x="553" 
d="M60 487h144v-322q0 -35 35 -35q41 0 105 35v322h144v-487h-107l-15 37q-97 -47 -194 -47q-112 0 -112 156v341zM187 531l-44 59q76 59 143 117q67 -58 143 -117l-44 -59q-58 35 -99 65q-41 -30 -99 -65z" />
    <glyph glyph-name="udieresis" unicode="&#xfc;" horiz-adv-x="553" 
d="M60 487h144v-322q0 -35 35 -35q41 0 105 35v322h144v-487h-107l-15 37q-97 -47 -194 -47q-112 0 -112 156v341zM238 554h-114v118h114v-118zM448 554h-114v118h114v-118z" />
    <glyph glyph-name="yacute" unicode="&#xfd;" horiz-adv-x="495" 
d="M280 -197h-136l57 197h-46l-150 487h146l99 -345l99 345h146l-153 -487zM243 537l-50 76q88 56 151 102l54 -84q-85 -55 -155 -94z" />
    <glyph glyph-name="thorn" unicode="&#xfe;" horiz-adv-x="537" 
d="M65 -217v903l144 20v-249q70 40 134 40q75 0 114.5 -45.5t39.5 -134.5v-147q0 -180 -164 -180q-66 0 -124 14v-201zM209 334v-207q50 -12 92 -12q52 0 52 55v147q0 55 -52 55q-48 0 -92 -38z" />
    <glyph glyph-name="ydieresis" unicode="&#xff;" horiz-adv-x="495" 
d="M280 -197h-136l57 197h-46l-150 487h146l99 -345l99 345h146l-153 -487zM202 554h-114v118h114v-118zM412 554h-114v118h114v-118z" />
    <glyph glyph-name="Amacron" unicode="&#x100;" horiz-adv-x="627" 
d="M413 666l204 -666h-156l-36 130h-223l-36 -130h-156l203 666h200zM313 534l-77 -279h153zM440 730h-254v92h254v-92z" />
    <glyph glyph-name="amacron" unicode="&#x101;" horiz-adv-x="499" 
d="M444 0h-118l-10 31q-74 -41 -139 -41q-64 0 -95.5 41t-31.5 107q0 73 34.5 105t110.5 32h105v37q0 40 -15.5 53.5t-70.5 13.5q-60 0 -132 -14l-19 108q79 24 175 24q123 0 164.5 -40.5t41.5 -145.5v-311zM300 119v56h-69q-24 0 -33.5 -7.5t-9.5 -27.5t9 -29t30 -9
q36 0 73 17zM382 560h-254v92h254v-92z" />
    <glyph glyph-name="Abreve" unicode="&#x102;" horiz-adv-x="627" 
d="M413 666l204 -666h-156l-36 130h-223l-36 -130h-156l203 666h200zM313 534l-77 -279h153zM389 855l67 -32q-10 -49 -46.5 -79.5t-96.5 -30.5t-96.5 30.5t-46.5 79.5l67 32q18 -66 76 -66t76 66z" />
    <glyph glyph-name="abreve" unicode="&#x103;" horiz-adv-x="499" 
d="M444 0h-118l-10 31q-74 -41 -139 -41q-64 0 -95.5 41t-31.5 107q0 73 34.5 105t110.5 32h105v37q0 40 -15.5 53.5t-70.5 13.5q-60 0 -132 -14l-19 108q79 24 175 24q123 0 164.5 -40.5t41.5 -145.5v-311zM300 119v56h-69q-24 0 -33.5 -7.5t-9.5 -27.5t9 -29t30 -9
q36 0 73 17zM348 689l67 -32q-7 -51 -47.5 -87t-106.5 -36t-106.5 36t-47.5 87l67 32q20 -73 87 -73t87 73z" />
    <glyph glyph-name="Aogonek" unicode="&#x104;" horiz-adv-x="627" 
d="M413 666l204 -666h-35q-78 -59 -78 -95q0 -30 34 -30q19 0 35 4l9 -75q-28 -11 -66 -11q-49 0 -78.5 23.5t-29.5 68.5q0 38 32.5 69.5t80.5 45.5h-60l-36 130h-223l-36 -130h-156l203 666h200zM313 534l-77 -279h153z" />
    <glyph glyph-name="aogonek" unicode="&#x105;" horiz-adv-x="499" 
d="M444 0q-54 -44 -68 -64q-10 -17 -10 -31q0 -30 34 -30q19 0 35 4l9 -75q-28 -11 -66 -11q-49 0 -78.5 23.5t-29.5 68.5q0 65 98 115h-42l-10 31q-74 -41 -139 -41q-64 0 -95.5 41t-31.5 107q0 73 34.5 105t110.5 32h105v37q0 40 -15.5 53.5t-70.5 13.5q-60 0 -132 -14
l-19 108q79 24 175 24q123 0 164.5 -40.5t41.5 -145.5v-311zM300 119v56h-69q-24 0 -33.5 -7.5t-9.5 -27.5t9 -29t30 -9q36 0 73 17z" />
    <glyph glyph-name="Cacute" unicode="&#x106;" horiz-adv-x="521" 
d="M200 448v-230q0 -47 20 -69.5t73 -22.5q79 0 172 16l21 -131q-99 -21 -193 -21q-122 0 -182.5 54.5t-60.5 149.5v278q0 95 60.5 149.5t182.5 54.5q94 0 193 -21l-21 -131q-93 16 -172 16q-53 0 -73 -22.5t-20 -69.5zM272 707l-50 76q92 58 136 92l54 -84
q-57 -40 -140 -84z" />
    <glyph glyph-name="cacute" unicode="&#x107;" horiz-adv-x="406" 
d="M179 301v-115q0 -38 18 -55.5t61 -17.5q48 0 100 12l18 -120q-67 -15 -118 -15q-118 0 -170.5 47t-52.5 151v111q0 104 52.5 151t170.5 47q51 0 118 -15l-18 -120q-51 12 -100 12q-43 0 -61 -17.5t-18 -55.5zM199 537l-50 76q88 56 151 102l54 -84q-85 -55 -155 -94z" />
    <glyph glyph-name="Ccircumflex" unicode="&#x108;" horiz-adv-x="521" 
d="M200 448v-230q0 -47 20 -69.5t73 -22.5q79 0 172 16l21 -131q-99 -21 -193 -21q-122 0 -182.5 54.5t-60.5 149.5v278q0 95 60.5 149.5t182.5 54.5q94 0 193 -21l-21 -131q-93 16 -172 16q-53 0 -73 -22.5t-20 -69.5zM423 774l-39 -62q-48 21 -89 45q-41 -24 -89 -45
l-39 62q61 41 128 94q67 -53 128 -94z" />
    <glyph glyph-name="ccircumflex" unicode="&#x109;" horiz-adv-x="406" 
d="M179 301v-115q0 -38 18 -55.5t61 -17.5q48 0 100 12l18 -120q-67 -15 -118 -15q-118 0 -170.5 47t-52.5 151v111q0 104 52.5 151t170.5 47q51 0 118 -15l-18 -120q-51 12 -100 12q-43 0 -61 -17.5t-18 -55.5zM130 531l-44 59q76 59 143 117q67 -58 143 -117l-44 -59
q-58 35 -99 65q-41 -30 -99 -65z" />
    <glyph glyph-name="Cdotaccent" unicode="&#x10a;" horiz-adv-x="521" 
d="M200 448v-230q0 -47 20 -69.5t73 -22.5q79 0 172 16l21 -131q-99 -21 -193 -21q-122 0 -182.5 54.5t-60.5 149.5v278q0 95 60.5 149.5t182.5 54.5q94 0 193 -21l-21 -131q-93 16 -172 16q-53 0 -73 -22.5t-20 -69.5zM366 728h-144v153h144v-153z" />
    <glyph glyph-name="cdotaccent" unicode="&#x10b;" horiz-adv-x="406" 
d="M179 301v-115q0 -38 18 -55.5t61 -17.5q48 0 100 12l18 -120q-67 -15 -118 -15q-118 0 -170.5 47t-52.5 151v111q0 104 52.5 151t170.5 47q51 0 118 -15l-18 -120q-51 12 -100 12q-43 0 -61 -17.5t-18 -55.5zM300 548h-144v153h144v-153z" />
    <glyph glyph-name="Ccaron" unicode="&#x10c;" horiz-adv-x="521" 
d="M200 448v-230q0 -47 20 -69.5t73 -22.5q79 0 172 16l21 -131q-99 -21 -193 -21q-122 0 -182.5 54.5t-60.5 149.5v278q0 95 60.5 149.5t182.5 54.5q94 0 193 -21l-21 -131q-93 16 -172 16q-53 0 -73 -22.5t-20 -69.5zM385 869l39 -62q-61 -41 -128 -94q-67 53 -128 94
l39 62q48 -21 89 -45q41 24 89 45z" />
    <glyph glyph-name="ccaron" unicode="&#x10d;" horiz-adv-x="406" 
d="M179 301v-115q0 -38 18 -55.5t61 -17.5q48 0 100 12l18 -120q-67 -15 -118 -15q-118 0 -170.5 47t-52.5 151v111q0 104 52.5 151t170.5 47q51 0 118 -15l-18 -120q-51 12 -100 12q-43 0 -61 -17.5t-18 -55.5zM92 644l44 59q58 -35 99 -65q41 30 99 65l44 -59
q-76 -59 -143 -117q-67 58 -143 117z" />
    <glyph glyph-name="Dcaron" unicode="&#x10e;" horiz-adv-x="598" 
d="M548 173q0 -74 -55 -123.5t-170 -49.5h-258v666h258q115 0 170 -49t55 -124v-320zM398 214v238q0 42 -20 61.5t-73 19.5h-90v-400h90q53 0 73 19.5t20 61.5zM383 869l39 -62q-61 -41 -128 -94q-67 53 -128 94l39 62q48 -21 89 -45q41 24 89 45z" />
    <glyph glyph-name="dcaron" unicode="&#x10f;" horiz-adv-x="620" 
d="M40 170v147q0 180 164 180q66 0 124 -14v203l144 20v-706h-113l-15 39q-76 -49 -150 -49q-75 0 -114.5 45.5t-39.5 134.5zM328 153v207q-50 12 -92 12q-52 0 -52 -55v-147q0 -55 52 -55q48 0 92 38zM640 577l-52 -75l-40 28l30 54h-48v102h110v-109z" />
    <glyph glyph-name="Dcroat" unicode="&#x110;" horiz-adv-x="634" 
d="M25 276v119h66v271h258q115 0 170 -49t55 -124v-320q0 -74 -55 -123.5t-170 -49.5h-258v276h-66zM424 214v238q0 42 -20 61.5t-73 19.5h-90v-138h88v-119h-88v-143h90q53 0 73 19.5t20 61.5z" />
    <glyph glyph-name="dcroat" unicode="&#x111;" horiz-adv-x="537" 
d="M253 542v71h75v73l144 20v-93h59v-71h-59v-542h-113l-15 39q-76 -49 -150 -49q-75 0 -114.5 45.5t-39.5 134.5v147q0 180 164 180q66 0 124 -14v59h-75zM328 153v207q-50 12 -92 12q-52 0 -52 -55v-147q0 -55 52 -55q48 0 92 38z" />
    <glyph glyph-name="Emacron" unicode="&#x112;" horiz-adv-x="534" 
d="M484 0h-419v666h419v-133h-269v-122h248v-133h-248v-145h269v-133zM410 730h-254v92h254v-92z" />
    <glyph glyph-name="emacron" unicode="&#x113;" horiz-adv-x="486" 
d="M446 193h-262v-14q0 -41 19 -56t69 -15q79 0 148 21l21 -108q-85 -31 -183 -31q-218 0 -218 198v114q0 195 209 195q58 0 98.5 -16t61 -46t29 -63.5t8.5 -76.5v-102zM310 301v21q0 29 -12.5 45.5t-47.5 16.5q-66 0 -66 -62v-21h126zM372 560h-254v92h254v-92z" />
    <glyph glyph-name="Ebreve" unicode="&#x114;" horiz-adv-x="534" 
d="M484 0h-419v666h419v-133h-269v-122h248v-133h-248v-145h269v-133zM364 855l67 -32q-10 -49 -46.5 -79.5t-96.5 -30.5t-96.5 30.5t-46.5 79.5l67 32q18 -66 76 -66t76 66z" />
    <glyph glyph-name="ebreve" unicode="&#x115;" horiz-adv-x="486" 
d="M446 193h-262v-14q0 -41 19 -56t69 -15q79 0 148 21l21 -108q-85 -31 -183 -31q-218 0 -218 198v114q0 195 209 195q58 0 98.5 -16t61 -46t29 -63.5t8.5 -76.5v-102zM310 301v21q0 29 -12.5 45.5t-47.5 16.5q-66 0 -66 -62v-21h126zM338 689l67 -32q-7 -51 -47.5 -87
t-106.5 -36t-106.5 36t-47.5 87l67 32q20 -73 87 -73t87 73z" />
    <glyph glyph-name="Edotaccent" unicode="&#x116;" horiz-adv-x="534" 
d="M484 0h-419v666h419v-133h-269v-122h248v-133h-248v-145h269v-133zM356 728h-144v153h144v-153z" />
    <glyph glyph-name="edotaccent" unicode="&#x117;" horiz-adv-x="486" 
d="M446 193h-262v-14q0 -41 19 -56t69 -15q79 0 148 21l21 -108q-85 -31 -183 -31q-218 0 -218 198v114q0 195 209 195q58 0 98.5 -16t61 -46t29 -63.5t8.5 -76.5v-102zM310 301v21q0 29 -12.5 45.5t-47.5 16.5q-66 0 -66 -62v-21h126zM319 548h-144v153h144v-153z" />
    <glyph glyph-name="Eogonek" unicode="&#x118;" horiz-adv-x="534" 
d="M434 -121l9 -75q-27 -11 -66 -11q-49 0 -78.5 23.5t-29.5 68.5q0 68 103 115h-307v666h419v-133h-269v-122h248v-133h-248v-145h269v-133h-41q-78 -59 -78 -95q0 -30 34 -30q19 0 35 4z" />
    <glyph glyph-name="eogonek" unicode="&#x119;" horiz-adv-x="486" 
d="M410 -119l9 -76q-30 -12 -74 -12q-50 0 -80 24t-30 68q0 60 80 108q-29 -3 -57 -3q-218 0 -218 198v114q0 195 209 195q58 0 98.5 -16t61 -46t29 -63.5t8.5 -76.5v-102h-262v-14q0 -41 19 -56t69 -15q79 0 148 21l21 -108q-110 -59 -110 -116q0 -30 33 -30q28 0 46 6z
M310 301v21q0 29 -12.5 45.5t-47.5 16.5q-66 0 -66 -62v-21h126z" />
    <glyph glyph-name="Ecaron" unicode="&#x11a;" horiz-adv-x="534" 
d="M484 0h-419v666h419v-133h-269v-122h248v-133h-248v-145h269v-133zM374 869l39 -62q-61 -41 -128 -94q-67 53 -128 94l39 62q48 -21 89 -45q41 24 89 45z" />
    <glyph glyph-name="ecaron" unicode="&#x11b;" horiz-adv-x="486" 
d="M446 193h-262v-14q0 -41 19 -56t69 -15q79 0 148 21l21 -108q-85 -31 -183 -31q-218 0 -218 198v114q0 195 209 195q58 0 98.5 -16t61 -46t29 -63.5t8.5 -76.5v-102zM310 301v21q0 29 -12.5 45.5t-47.5 16.5q-66 0 -66 -62v-21h126zM106 644l44 59q58 -35 99 -65
q41 30 99 65l44 -59q-76 -59 -143 -117q-67 58 -143 117z" />
    <glyph glyph-name="Gcircumflex" unicode="&#x11c;" horiz-adv-x="584" 
d="M524 22q-111 -32 -230 -32q-118 0 -181 55.5t-63 148.5v278q0 95 62.5 149.5t181.5 54.5q104 0 213 -21l-18 -131q-103 16 -195 16q-53 0 -73.5 -24t-20.5 -67v-229q0 -95 94 -95q42 0 89 6v204h141v-313zM433 774l-39 -62q-48 21 -89 45q-41 -24 -89 -45l-39 62
q61 41 128 94q67 -53 128 -94z" />
    <glyph glyph-name="gcircumflex" unicode="&#x11d;" horiz-adv-x="489" 
d="M35 279v59q3 159 199 159q43 0 83 -10h152v-68l-49 -18q11 -27 13 -63v-59q0 -72 -50.5 -113.5t-148.5 -41.5h-15q-21 -13 -21 -27q0 -18 16 -20l121 -12q63 -5 90.5 -31.5t27.5 -87.5q0 -85 -53.5 -119t-170.5 -34q-100 0 -194 25l21 105q83 -20 160 -20q61 0 83 6
t22 29q0 14 -8 19.5t-30 7.5q-44 4 -124 12q-55 6 -79.5 23.5t-24.5 64.5t42 89q-62 37 -62 125zM234 238q35 0 50 11.5t15 36.5v46q0 51 -65 51t-65 -51v-46q0 -25 15 -36.5t50 -11.5zM147 531l-44 59q76 59 143 117q67 -58 143 -117l-44 -59q-58 35 -99 65
q-41 -30 -99 -65z" />
    <glyph glyph-name="Gbreve" unicode="&#x11e;" horiz-adv-x="584" 
d="M524 22q-111 -32 -230 -32q-118 0 -181 55.5t-63 148.5v278q0 95 62.5 149.5t181.5 54.5q104 0 213 -21l-18 -131q-103 16 -195 16q-53 0 -73.5 -24t-20.5 -67v-229q0 -95 94 -95q42 0 89 6v204h141v-313zM383 855l67 -32q-10 -49 -46.5 -79.5t-96.5 -30.5t-96.5 30.5
t-46.5 79.5l67 32q18 -66 76 -66t76 66z" />
    <glyph glyph-name="gbreve" unicode="&#x11f;" horiz-adv-x="489" 
d="M35 279v59q3 159 199 159q43 0 83 -10h152v-68l-49 -18q11 -27 13 -63v-59q0 -72 -50.5 -113.5t-148.5 -41.5h-15q-21 -13 -21 -27q0 -18 16 -20l121 -12q63 -5 90.5 -31.5t27.5 -87.5q0 -85 -53.5 -119t-170.5 -34q-100 0 -194 25l21 105q83 -20 160 -20q61 0 83 6
t22 29q0 14 -8 19.5t-30 7.5q-44 4 -124 12q-55 6 -79.5 23.5t-24.5 64.5t42 89q-62 37 -62 125zM234 238q35 0 50 11.5t15 36.5v46q0 51 -65 51t-65 -51v-46q0 -25 15 -36.5t50 -11.5zM336 689l67 -32q-7 -51 -47.5 -87t-106.5 -36t-106.5 36t-47.5 87l67 32q20 -73 87 -73
t87 73z" />
    <glyph glyph-name="Gdotaccent" unicode="&#x120;" horiz-adv-x="584" 
d="M524 22q-111 -32 -230 -32q-118 0 -181 55.5t-63 148.5v278q0 95 62.5 149.5t181.5 54.5q104 0 213 -21l-18 -131q-103 16 -195 16q-53 0 -73.5 -24t-20.5 -67v-229q0 -95 94 -95q42 0 89 6v204h141v-313zM375 728h-144v153h144v-153z" />
    <glyph glyph-name="gdotaccent" unicode="&#x121;" horiz-adv-x="489" 
d="M35 279v59q3 159 199 159q43 0 83 -10h152v-68l-49 -18q11 -27 13 -63v-59q0 -72 -50.5 -113.5t-148.5 -41.5h-15q-21 -13 -21 -27q0 -18 16 -20l121 -12q63 -5 90.5 -31.5t27.5 -87.5q0 -85 -53.5 -119t-170.5 -34q-100 0 -194 25l21 105q83 -20 160 -20q61 0 83 6
t22 29q0 14 -8 19.5t-30 7.5q-44 4 -124 12q-55 6 -79.5 23.5t-24.5 64.5t42 89q-62 37 -62 125zM234 238q35 0 50 11.5t15 36.5v46q0 51 -65 51t-65 -51v-46q0 -25 15 -36.5t50 -11.5zM313 548h-144v153h144v-153z" />
    <glyph glyph-name="Gcommaaccent" unicode="&#x122;" horiz-adv-x="584" 
d="M524 22q-111 -32 -230 -32q-118 0 -181 55.5t-63 148.5v278q0 95 62.5 149.5t181.5 54.5q104 0 213 -21l-18 -131q-103 16 -195 16q-53 0 -73.5 -24t-20.5 -67v-229q0 -95 94 -95q42 0 89 6v204h141v-313zM371 -197l-67 -106l-54 33l42 81h-42v140h121v-148z" />
    <glyph glyph-name="gcommaaccent" unicode="&#x123;" horiz-adv-x="489" 
d="M184 680l62 99l50 -31l-39 -75h39v-130h-112v137zM35 279v59q3 159 199 159q43 0 83 -10h152v-68l-49 -18q11 -27 13 -63v-59q0 -72 -50.5 -113.5t-148.5 -41.5h-15q-21 -13 -21 -27q0 -18 16 -20l121 -12q63 -5 90.5 -31.5t27.5 -87.5q0 -85 -53.5 -119t-170.5 -34
q-100 0 -194 25l21 105q83 -20 160 -20q61 0 83 6t22 29q0 14 -8 19.5t-30 7.5q-44 4 -124 12q-55 6 -79.5 23.5t-24.5 64.5t42 89q-62 37 -62 125zM234 238q35 0 50 11.5t15 36.5v46q0 51 -65 51t-65 -51v-46q0 -25 15 -36.5t50 -11.5z" />
    <glyph glyph-name="Hcircumflex" unicode="&#x124;" horiz-adv-x="645" 
d="M580 0h-150v268h-215v-268h-150v666h150v-265h215v265h150v-666zM447 774l-39 -62q-48 21 -89 45q-41 -24 -89 -45l-39 62q61 41 128 94q67 -53 128 -94z" />
    <glyph glyph-name="hcircumflex" unicode="&#x125;" horiz-adv-x="553" 
d="M493 0h-144v322q0 35 -35 35t-105 -36v-321h-144v686l142 20v-254q98 45 174 45q112 0 112 -156v-341zM263 804l-39 -62q-48 21 -89 45q-41 -24 -89 -45l-39 62q61 41 128 94q67 -53 128 -94z" />
    <glyph glyph-name="Hbar" unicode="&#x126;" horiz-adv-x="655" 
d="M15 498v71h55v97h150v-97h215v97h150v-97h55v-71h-55v-498h-150v268h-215v-268h-150v498h-55zM220 401h215v97h-215v-97z" />
    <glyph glyph-name="hbar" unicode="&#x127;" horiz-adv-x="553" 
d="M6 542v71h59v73l142 20v-93h87v-71h-87v-90q98 45 174 45q112 0 112 -156v-341h-144v322q0 35 -35 35t-105 -36v-321h-144v542h-59z" />
    <glyph glyph-name="Itilde" unicode="&#x128;" horiz-adv-x="290" 
d="M220 0h-150v666h150v-666zM210 717q-37 0 -67 21q-30 22 -46 22q-5 0 -9.5 -1.5t-8.5 -5t-7 -5.5t-7.5 -8l-6 -8l-6.5 -9t-5 -8l-58 45q44 87 105 87q34 0 65 -21q35 -23 51 -23q29 0 38 41l68 -31q-27 -96 -106 -96z" />
    <glyph glyph-name="itilde" unicode="&#x129;" horiz-adv-x="274" 
d="M209 0h-144v487h144v-487zM195 546q-37 0 -67 21q-30 22 -46 22q-5 0 -9.5 -1.5t-8.5 -5t-7 -5.5t-7.5 -8l-6 -8l-6.5 -9t-5 -8l-58 45q44 87 105 87q33 0 65 -21q35 -23 51 -23q29 0 38 41l68 -31q-27 -96 -106 -96z" />
    <glyph glyph-name="Imacron" unicode="&#x12a;" horiz-adv-x="290" 
d="M220 0h-150v666h150v-666zM273 730h-254v92h254v-92z" />
    <glyph glyph-name="imacron" unicode="&#x12b;" horiz-adv-x="274" 
d="M209 0h-144v487h144v-487zM264 560h-254v92h254v-92z" />
    <glyph glyph-name="Ibreve" unicode="&#x12c;" horiz-adv-x="290" 
d="M220 0h-150v666h150v-666zM221 855l67 -32q-10 -49 -46.5 -79.5t-96.5 -30.5t-96.5 30.5t-46.5 79.5l67 32q18 -66 76 -66t76 66z" />
    <glyph glyph-name="ibreve" unicode="&#x12d;" horiz-adv-x="274" 
d="M209 0h-144v487h144v-487zM224 689l67 -32q-7 -51 -47.5 -87t-106.5 -36t-106.5 36t-47.5 87l67 32q20 -73 87 -73t87 73z" />
    <glyph glyph-name="Iogonek" unicode="&#x12e;" horiz-adv-x="290" 
d="M193 -122l8 -74q-32 -11 -73 -11q-50 0 -80.5 24t-30.5 68q0 58 53 115v666h150v-666h-79q-34 -60 -34 -97q0 -31 33 -31q29 0 53 6z" />
    <glyph glyph-name="iogonek" unicode="&#x12f;" horiz-adv-x="274" 
d="M182 -122l8 -74q-32 -11 -73 -11q-50 0 -80.5 24t-30.5 68q0 59 59 115v487h144v-487h-79q-34 -60 -34 -97q0 -31 33 -31q29 0 53 6zM209 548h-144v153h144v-153z" />
    <glyph glyph-name="Idotaccent" unicode="&#x130;" horiz-adv-x="290" 
d="M220 0h-150v666h150v-666zM220 728h-144v153h144v-153z" />
    <glyph glyph-name="dotlessi" unicode="&#x131;" horiz-adv-x="274" 
d="M209 0h-144v487h144v-487z" />
    <glyph glyph-name="IJ" unicode="&#x132;" horiz-adv-x="565" 
d="M220 0h-150v666h150v-666zM363 -211l-89 106q54 44 67.5 61.5t13.5 43.5v666h150v-689q0 -45 -35 -88.5t-107 -99.5z" />
    <glyph glyph-name="ij" unicode="&#x133;" horiz-adv-x="538" 
d="M209 548h-144v153h144v-153zM209 0h-144v487h144v-487zM478 548h-144v153h144v-153zM346 -207l-87 94q3 3 13 12t12.5 11.5l10.5 10t10 10.5t8 10t8 10.5l5.5 9.5t4.5 11t2 11.5t1 12.5v491h144v-510q0 -42 -31 -84t-101 -100z" />
    <glyph glyph-name="Jcircumflex" unicode="&#x134;" horiz-adv-x="275" 
d="M73 -211l-89 106q54 44 67.5 61.5t13.5 43.5v666h150v-689q0 -45 -35 -88.5t-107 -99.5zM268 774l-39 -62q-48 21 -89 45q-41 -24 -89 -45l-39 62q61 41 128 94q67 -53 128 -94z" />
    <glyph glyph-name="jcircumflex" unicode="&#x135;" horiz-adv-x="264" 
d="M72 -207l-87 94l19.5 17.5t17.5 16.5l13 13.5t11 14l7 13.5t5.5 16t1.5 18v491h144v-510q0 -42 -31 -84t-101 -100zM33 531l-44 59q76 59 143 117q67 -58 143 -117l-44 -59q-58 35 -99 65q-41 -30 -99 -65z" />
    <glyph glyph-name="Kcommaaccent" unicode="&#x136;" horiz-adv-x="617" 
d="M65 0v666h150v-666h-150zM428 0l-194 340l180 326h169l-187 -326l201 -340h-169zM379 -197l-67 -106l-54 33l42 81h-42v140h121v-148z" />
    <glyph glyph-name="kcommaaccent" unicode="&#x137;" horiz-adv-x="527" 
d="M209 0h-144v686l144 20v-706zM228 245l124 242h154l-128 -242l134 -245h-154zM343 -197l-67 -106l-54 33l42 81h-42v140h121v-148z" />
    <glyph glyph-name="kgreenlandic" unicode="&#x138;" horiz-adv-x="527" 
d="M209 0h-144v487h144v-487zM228 245l124 242h154l-128 -242l134 -245h-154z" />
    <glyph glyph-name="Lacute" unicode="&#x139;" horiz-adv-x="499" 
d="M479 0h-414v666h150v-533h264v-133zM135 707l-50 76q92 58 136 92l54 -84q-57 -40 -140 -84z" />
    <glyph glyph-name="lacute" unicode="&#x13a;" horiz-adv-x="274" 
d="M209 0h-144v686l144 20v-706zM126 747l-50 76q92 58 136 92l54 -84q-57 -40 -140 -84z" />
    <glyph glyph-name="Lcommaaccent" unicode="&#x13b;" horiz-adv-x="499" 
d="M479 0h-414v666h150v-533h264v-133zM346 -197l-67 -106l-54 33l42 81h-42v140h121v-148z" />
    <glyph glyph-name="lcommaaccent" unicode="&#x13c;" horiz-adv-x="274" 
d="M209 0h-144v686l144 20v-706zM197 -197l-67 -106l-54 33l42 81h-42v140h121v-148z" />
    <glyph glyph-name="Lcaron" unicode="&#x13d;" horiz-adv-x="499" 
d="M479 0h-414v666h150v-533h264v-133zM440 577l-63 -95l-40 28l41 74h-48v102h110v-109z" />
    <glyph glyph-name="lcaron" unicode="&#x13e;" horiz-adv-x="373" 
d="M209 0h-144v686l144 20v-706zM398 577l-63 -95l-40 28l41 74h-48v102h110v-109z" />
    <glyph glyph-name="Ldot" unicode="&#x13f;" horiz-adv-x="499" 
d="M479 0h-414v666h150v-533h264v-133zM453 288h-144v153h144v-153z" />
    <glyph glyph-name="ldot" unicode="&#x140;" horiz-adv-x="428" 
d="M209 0h-144v686l144 20v-706zM418 198h-144v153h144v-153z" />
    <glyph glyph-name="Lslash" unicode="&#x141;" horiz-adv-x="529" 
d="M0 311l95 39v316h150v-255l135 55l34 -90l-169 -68v-175h264v-133h-414v247l-61 -24z" />
    <glyph glyph-name="lslash" unicode="&#x142;" horiz-adv-x="335" 
d="M10 323l75 30v333l144 20v-294l67 27l34 -90l-101 -40v-309h-144v251l-41 -16z" />
    <glyph glyph-name="Nacute" unicode="&#x143;" horiz-adv-x="676" 
d="M426 0l-218 438v-438h-143v666h184l219 -459v459h143v-666h-185zM334 707l-50 76q92 58 136 92l54 -84q-57 -40 -140 -84z" />
    <glyph glyph-name="nacute" unicode="&#x144;" horiz-adv-x="553" 
d="M493 0h-144v322q0 35 -35 35q-41 0 -105 -35v-322h-144v487h107l15 -37q97 47 194 47q112 0 112 -156v-341zM253 537l-50 76q88 56 151 102l54 -84q-85 -55 -155 -94z" />
    <glyph glyph-name="Ncommaaccent" unicode="&#x145;" horiz-adv-x="676" 
d="M426 0l-218 438v-438h-143v666h184l219 -459v459h143v-666h-185zM389 -197l-67 -106l-54 33l42 81h-42v140h121v-148z" />
    <glyph glyph-name="ncommaaccent" unicode="&#x146;" horiz-adv-x="553" 
d="M493 0h-144v322q0 35 -35 35q-41 0 -105 -35v-322h-144v487h107l15 -37q97 47 194 47q112 0 112 -156v-341zM342 -197l-67 -106l-54 33l42 81h-42v140h121v-148z" />
    <glyph glyph-name="Ncaron" unicode="&#x147;" horiz-adv-x="676" 
d="M426 0l-218 438v-438h-143v666h184l219 -459v459h143v-666h-185zM443 869l39 -62q-61 -41 -128 -94q-67 53 -128 94l39 62q48 -21 89 -45q41 24 89 45z" />
    <glyph glyph-name="ncaron" unicode="&#x148;" horiz-adv-x="553" 
d="M493 0h-144v322q0 35 -35 35q-41 0 -105 -35v-322h-144v487h107l15 -37q97 47 194 47q112 0 112 -156v-341zM144 644l44 59q58 -35 99 -65q41 30 99 65l44 -59q-76 -59 -143 -117q-67 58 -143 117z" />
    <glyph glyph-name="Eng" unicode="&#x14a;" horiz-adv-x="676" 
d="M426 0l-218 438v-438h-143v666h184l219 -459v459h143v-679q0 -59 -34.5 -94.5t-147.5 -99.5l-60 92q66 40 84.5 58.5t18.5 42.5v14h-46z" />
    <glyph glyph-name="eng" unicode="&#x14b;" horiz-adv-x="553" 
d="M311 -207l-60 92q64 45 81 62t17 39v336q0 35 -35 35q-41 0 -105 -35v-322h-144v487h107l15 -37q97 47 194 47q112 0 112 -156v-354q0 -59 -34.5 -94.5t-147.5 -99.5z" />
    <glyph glyph-name="Omacron" unicode="&#x14c;" horiz-adv-x="616" 
d="M566 472v-278q0 -85 -63.5 -144.5t-194.5 -59.5t-194.5 59.5t-63.5 144.5v278q0 85 63.5 144.5t194.5 59.5t194.5 -59.5t63.5 -144.5zM416 207v252q0 84 -108 84t-108 -84v-252q0 -84 108 -84t108 84zM435 730h-254v92h254v-92z" />
    <glyph glyph-name="omacron" unicode="&#x14d;" horiz-adv-x="520" 
d="M260 -10q-119 0 -169.5 55.5t-50.5 141.5v113q0 86 50.5 141.5t169.5 55.5t169.5 -55.5t50.5 -141.5v-113q0 -86 -50.5 -141.5t-169.5 -55.5zM260 111q76 0 76 72v121q0 72 -76 72t-76 -72v-121q0 -72 76 -72zM387 560h-254v92h254v-92z" />
    <glyph glyph-name="Obreve" unicode="&#x14e;" horiz-adv-x="616" 
d="M566 472v-278q0 -85 -63.5 -144.5t-194.5 -59.5t-194.5 59.5t-63.5 144.5v278q0 85 63.5 144.5t194.5 59.5t194.5 -59.5t63.5 -144.5zM416 207v252q0 84 -108 84t-108 -84v-252q0 -84 108 -84t108 84zM384 855l67 -32q-10 -49 -46.5 -79.5t-96.5 -30.5t-96.5 30.5
t-46.5 79.5l67 32q18 -66 76 -66t76 66z" />
    <glyph glyph-name="obreve" unicode="&#x14f;" horiz-adv-x="520" 
d="M260 -10q-119 0 -169.5 55.5t-50.5 141.5v113q0 86 50.5 141.5t169.5 55.5t169.5 -55.5t50.5 -141.5v-113q0 -86 -50.5 -141.5t-169.5 -55.5zM260 111q76 0 76 72v121q0 72 -76 72t-76 -72v-121q0 -72 76 -72zM347 689l67 -32q-7 -51 -47.5 -87t-106.5 -36t-106.5 36
t-47.5 87l67 32q20 -73 87 -73t87 73z" />
    <glyph glyph-name="Ohungarumlaut" unicode="&#x150;" horiz-adv-x="616" 
d="M566 472v-278q0 -85 -63.5 -144.5t-194.5 -59.5t-194.5 59.5t-63.5 144.5v278q0 85 63.5 144.5t194.5 59.5t194.5 -59.5t63.5 -144.5zM416 207v252q0 84 -108 84t-108 -84v-252q0 -84 108 -84t108 84zM227 705l-65 64q56 53 100 104l70 -71q-59 -63 -105 -97zM407 705
l-65 64q56 53 100 104l70 -71q-59 -63 -105 -97z" />
    <glyph glyph-name="ohungarumlaut" unicode="&#x151;" horiz-adv-x="520" 
d="M260 -10q-119 0 -169.5 55.5t-50.5 141.5v113q0 86 50.5 141.5t169.5 55.5t169.5 -55.5t50.5 -141.5v-113q0 -86 -50.5 -141.5t-169.5 -55.5zM260 111q76 0 76 72v121q0 72 -76 72t-76 -72v-121q0 -72 76 -72zM174 530l-64 64q57 52 118 121l70 -71q-68 -70 -124 -114z
M364 530l-64 64q57 52 118 121l70 -71q-68 -70 -124 -114z" />
    <glyph glyph-name="OE" unicode="&#x152;" horiz-adv-x="892" 
d="M50 462q0 85 63.5 144.5t194.5 59.5h534v-133h-269v-122h248v-133h-248v-145h269v-133h-534q-131 0 -194.5 59.5t-63.5 144.5v258zM308 533q-108 0 -108 -84v-232q0 -84 108 -84h115v400h-115z" />
    <glyph glyph-name="oe" unicode="&#x153;" horiz-adv-x="782" 
d="M742 193h-262v-14q0 -41 19 -56t69 -15q81 0 150 20l19 -109q-80 -29 -183 -29q-94 0 -148 40q-60 -40 -146 -40q-119 0 -169.5 55.5t-50.5 141.5v113q0 86 50.5 141.5t169.5 55.5q83 0 145 -40q58 40 140 40q197 0 197 -202v-102zM260 111q73 0 76 68v131q-5 66 -76 66
q-76 0 -76 -72v-121q0 -72 76 -72zM606 301v21q0 29 -12.5 45.5t-47.5 16.5q-66 0 -66 -62v-21h126z" />
    <glyph glyph-name="Racute" unicode="&#x154;" horiz-adv-x="643" 
d="M450 0l-147 207h-88v-207h-150v666h277q119 0 170.5 -46.5t51.5 -142.5v-82q0 -126 -97 -167l161 -228h-178zM414 410v53q0 38 -17.5 54t-62.5 16h-119v-196h119q46 0 63 17t17 56zM277 707l-50 76q92 58 136 92l54 -84q-57 -40 -140 -84z" />
    <glyph glyph-name="racute" unicode="&#x155;" horiz-adv-x="345" 
d="M338 361q-88 -35 -129 -64v-297h-144v487h120l10 -47q24 16 63.5 33.5t67.5 23.5zM153 537l-50 76q88 56 151 102l54 -84q-85 -55 -155 -94z" />
    <glyph glyph-name="Rcommaaccent" unicode="&#x156;" horiz-adv-x="643" 
d="M450 0l-147 207h-88v-207h-150v666h277q119 0 170.5 -46.5t51.5 -142.5v-82q0 -126 -97 -167l161 -228h-178zM414 410v53q0 38 -17.5 54t-62.5 16h-119v-196h119q46 0 63 17t17 56zM384 -197l-67 -106l-54 33l42 81h-42v140h121v-148z" />
    <glyph glyph-name="rcommaaccent" unicode="&#x157;" horiz-adv-x="345" 
d="M338 361q-88 -35 -129 -64v-297h-144v487h120l10 -47q24 16 63.5 33.5t67.5 23.5zM196 -197l-67 -106l-54 33l42 81h-42v140h121v-148z" />
    <glyph glyph-name="Rcaron" unicode="&#x158;" horiz-adv-x="643" 
d="M450 0l-147 207h-88v-207h-150v666h277q119 0 170.5 -46.5t51.5 -142.5v-82q0 -126 -97 -167l161 -228h-178zM414 410v53q0 38 -17.5 54t-62.5 16h-119v-196h119q46 0 63 17t17 56zM387 869l39 -62q-61 -41 -128 -94q-67 53 -128 94l39 62q48 -21 89 -45q41 24 89 45z
" />
    <glyph glyph-name="rcaron" unicode="&#x159;" horiz-adv-x="345" 
d="M338 361q-88 -35 -129 -64v-297h-144v487h120l10 -47q24 16 63.5 33.5t67.5 23.5zM47 644l44 59q58 -35 99 -65q41 30 99 65l44 -59q-76 -59 -143 -117q-67 58 -143 117z" />
    <glyph glyph-name="Sacute" unicode="&#x15a;" horiz-adv-x="544" 
d="M504 187q0 -70 -18.5 -110.5t-73 -63.5t-152.5 -23q-121 0 -215 43l25 116q103 -32 192 -32q57 0 74.5 14t17.5 57q0 26 -1.5 36.5t-14 22t-32.5 17t-64 15.5q-120 26 -152.5 64t-32.5 147q0 103 48 144.5t182 41.5q100 0 202 -22l-15 -126q-111 19 -185 19
q-50 0 -66 -12t-16 -49q0 -48 14.5 -59.5t93.5 -30.5q46 -11 76.5 -21t52.5 -24t33.5 -26t17.5 -35.5t7.5 -44t1.5 -58.5zM258 707l-50 76q92 58 136 92l54 -84q-57 -40 -140 -84z" />
    <glyph glyph-name="sacute" unicode="&#x15b;" horiz-adv-x="433" 
d="M398 145q0 -79 -40.5 -117t-140.5 -38q-90 0 -177 29l23 107q73 -22 147 -22q31 0 40.5 9t9.5 32q0 24 -11 32t-68 22q-84 21 -106.5 50t-22.5 102q0 80 39.5 113t146.5 33q85 0 148 -16l-13 -112q-75 14 -134 14q-30 0 -41 -8t-11 -25q0 -23 9.5 -30t52.5 -17
q53 -12 82 -23.5t44.5 -31.5t19 -41t3.5 -62zM203 537l-50 76q88 56 151 102l54 -84q-85 -55 -155 -94z" />
    <glyph glyph-name="Scircumflex" unicode="&#x15c;" horiz-adv-x="544" 
d="M504 187q0 -70 -18.5 -110.5t-73 -63.5t-152.5 -23q-121 0 -215 43l25 116q103 -32 192 -32q57 0 74.5 14t17.5 57q0 26 -1.5 36.5t-14 22t-32.5 17t-64 15.5q-120 26 -152.5 64t-32.5 147q0 103 48 144.5t182 41.5q100 0 202 -22l-15 -126q-111 19 -185 19
q-50 0 -66 -12t-16 -49q0 -48 14.5 -59.5t93.5 -30.5q46 -11 76.5 -21t52.5 -24t33.5 -26t17.5 -35.5t7.5 -44t1.5 -58.5zM421 774l-39 -62q-48 21 -89 45q-41 -24 -89 -45l-39 62q61 41 128 94q67 -53 128 -94z" />
    <glyph glyph-name="scircumflex" unicode="&#x15d;" horiz-adv-x="433" 
d="M398 145q0 -79 -40.5 -117t-140.5 -38q-90 0 -177 29l23 107q73 -22 147 -22q31 0 40.5 9t9.5 32q0 24 -11 32t-68 22q-84 21 -106.5 50t-22.5 102q0 80 39.5 113t146.5 33q85 0 148 -16l-13 -112q-75 14 -134 14q-30 0 -41 -8t-11 -25q0 -23 9.5 -30t52.5 -17
q53 -12 82 -23.5t44.5 -31.5t19 -41t3.5 -62zM133 531l-44 59q76 59 143 117q67 -58 143 -117l-44 -59q-58 35 -99 65q-41 -30 -99 -65z" />
    <glyph glyph-name="Scedilla" unicode="&#x15e;" horiz-adv-x="544" 
d="M385 -115q0 -82 -112 -82q-43 0 -84 16l14 55q34 -10 62 -10q47 0 47 22q0 16 -7 19t-28 3q-10 0 -42 -2l-20 17l14 68q-108 6 -184 42l25 116q103 -32 192 -32q57 0 74.5 14t17.5 57q0 26 -1.5 36.5t-14 22t-32.5 17t-64 15.5q-120 26 -152.5 64t-32.5 147
q0 103 48 144.5t182 41.5q100 0 202 -22l-15 -126q-111 19 -185 19q-50 0 -66 -12t-16 -49q0 -48 14.5 -59.5t93.5 -30.5q46 -11 76.5 -21t52.5 -24t33.5 -26t17.5 -35.5t7.5 -44t1.5 -58.5q0 -100 -43.5 -145.5t-167.5 -50.5l-7 -38q54 7 76.5 -9.5t22.5 -58.5z" />
    <glyph glyph-name="scedilla" unicode="&#x15f;" horiz-adv-x="433" 
d="M327 -115q0 -82 -112 -82q-43 0 -84 16l14 55q34 -10 62 -10q47 0 47 22q0 16 -7 19t-28 3q-10 0 -42 -2l-20 17l15 70q-75 7 -132 26l23 107q73 -22 147 -22q31 0 40.5 9t9.5 32q0 24 -11 32t-68 22q-84 21 -106.5 50t-22.5 102q0 80 39.5 113t146.5 33q85 0 148 -16
l-13 -112q-75 14 -134 14q-30 0 -41 -8t-11 -25q0 -23 9.5 -30t52.5 -17q53 -12 82 -23.5t44.5 -31.5t19 -41t3.5 -62q0 -75 -36.5 -112.5t-126.5 -41.5l-7 -38q54 7 76.5 -9.5t22.5 -58.5z" />
    <glyph glyph-name="Scaron" unicode="&#x160;" horiz-adv-x="544" 
d="M504 187q0 -70 -18.5 -110.5t-73 -63.5t-152.5 -23q-121 0 -215 43l25 116q103 -32 192 -32q57 0 74.5 14t17.5 57q0 26 -1.5 36.5t-14 22t-32.5 17t-64 15.5q-120 26 -152.5 64t-32.5 147q0 103 48 144.5t182 41.5q100 0 202 -22l-15 -126q-111 19 -185 19
q-50 0 -66 -12t-16 -49q0 -48 14.5 -59.5t93.5 -30.5q46 -11 76.5 -21t52.5 -24t33.5 -26t17.5 -35.5t7.5 -44t1.5 -58.5zM378 869l39 -62q-61 -41 -128 -94q-67 53 -128 94l39 62q48 -21 89 -45q41 24 89 45z" />
    <glyph glyph-name="scaron" unicode="&#x161;" horiz-adv-x="433" 
d="M398 145q0 -79 -40.5 -117t-140.5 -38q-90 0 -177 29l23 107q73 -22 147 -22q31 0 40.5 9t9.5 32q0 24 -11 32t-68 22q-84 21 -106.5 50t-22.5 102q0 80 39.5 113t146.5 33q85 0 148 -16l-13 -112q-75 14 -134 14q-30 0 -41 -8t-11 -25q0 -23 9.5 -30t52.5 -17
q53 -12 82 -23.5t44.5 -31.5t19 -41t3.5 -62zM90 644l44 59q58 -35 99 -65q41 30 99 65l44 -59q-76 -59 -143 -117q-67 58 -143 117z" />
    <glyph glyph-name="Tcommaaccent" unicode="&#x162;" horiz-adv-x="532" 
d="M520 533h-179v-533h-150v533h-179v133h508v-133zM327 -197l-67 -106l-54 33l42 81h-42v140h121v-148z" />
    <glyph glyph-name="Tcommaaccent" unicode="&#x21a;" horiz-adv-x="532" 
d="M520 533h-179v-533h-150v533h-179v133h508v-133zM327 -197l-67 -106l-54 33l42 81h-42v140h121v-148z" />
    <glyph glyph-name="tcommaaccent" unicode="&#x163;" horiz-adv-x="360" 
d="M332 8q-52 -18 -104 -18q-147 0 -147 125v256h-66v116h66v117l144 20v-137h111l-8 -116h-103v-236q0 -27 30 -27q33 0 60 9zM270 -197l-67 -106l-54 33l42 81h-42v140h121v-148z" />
    <glyph glyph-name="tcommaaccent" unicode="&#x21b;" horiz-adv-x="360" 
d="M332 8q-52 -18 -104 -18q-147 0 -147 125v256h-66v116h66v117l144 20v-137h111l-8 -116h-103v-236q0 -27 30 -27q33 0 60 9zM270 -197l-67 -106l-54 33l42 81h-42v140h121v-148z" />
    <glyph glyph-name="Tcaron" unicode="&#x164;" horiz-adv-x="532" 
d="M520 533h-179v-533h-150v533h-179v133h508v-133zM355 869l39 -62q-61 -41 -128 -94q-67 53 -128 94l39 62q48 -21 89 -45q41 24 89 45z" />
    <glyph glyph-name="tcaron" unicode="&#x165;" horiz-adv-x="365" 
d="M332 8q-52 -18 -104 -18q-147 0 -147 125v256h-66v116h66v117l144 20v-137h111l-8 -116h-103v-236q0 -27 30 -27q33 0 60 9zM390 587l-49 -69l-40 28l27 48h-48v102h110v-109z" />
    <glyph glyph-name="Tbar" unicode="&#x166;" horiz-adv-x="532" 
d="M72 288v71h119v174h-179v133h508v-133h-179v-174h119v-71h-119v-288h-150v288h-119z" />
    <glyph glyph-name="tbar" unicode="&#x167;" horiz-adv-x="360" 
d="M15 214v71h66v86h-66v116h66v117l144 20v-137h111l-8 -116h-103v-86h94v-71h-94v-79q0 -27 30 -27q33 0 60 9l17 -109q-52 -18 -104 -18q-147 0 -147 125v99h-66z" />
    <glyph glyph-name="Utilde" unicode="&#x168;" horiz-adv-x="622" 
d="M412 666h150v-472q0 -86 -60.5 -145t-190.5 -59t-190.5 59t-60.5 145v472h150v-458q0 -42 23.5 -63.5t77.5 -21.5t77.5 21.5t23.5 63.5v458zM375 717q-37 0 -67 21q-30 22 -46 22q-5 0 -9.5 -1.5t-8.5 -5t-7 -5.5t-7.5 -8l-6 -8l-6.5 -9t-5 -8l-58 45q44 87 105 87
q33 0 65 -21q35 -23 51 -23q29 0 38 41l68 -31q-27 -96 -106 -96z" />
    <glyph glyph-name="utilde" unicode="&#x169;" horiz-adv-x="553" 
d="M60 487h144v-322q0 -35 35 -35q41 0 105 35v322h144v-487h-107l-15 37q-97 -47 -194 -47q-112 0 -112 156v341zM342 546q-37 0 -67 21q-30 22 -46 22q-5 0 -9.5 -1.5t-8.5 -5t-7 -5.5t-7.5 -8l-6 -8t-6 -9t-5.5 -8l-58 45q44 87 105 87q34 0 65 -21q35 -23 51 -23
q29 0 38 41l68 -31q-27 -96 -106 -96z" />
    <glyph glyph-name="Umacron" unicode="&#x16a;" horiz-adv-x="622" 
d="M412 666h150v-472q0 -86 -60.5 -145t-190.5 -59t-190.5 59t-60.5 145v472h150v-458q0 -42 23.5 -63.5t77.5 -21.5t77.5 21.5t23.5 63.5v458zM439 730h-254v92h254v-92z" />
    <glyph glyph-name="umacron" unicode="&#x16b;" horiz-adv-x="553" 
d="M60 487h144v-322q0 -35 35 -35q41 0 105 35v322h144v-487h-107l-15 37q-97 -47 -194 -47q-112 0 -112 156v341zM407 560h-254v92h254v-92z" />
    <glyph glyph-name="Ubreve" unicode="&#x16c;" horiz-adv-x="622" 
d="M412 666h150v-472q0 -86 -60.5 -145t-190.5 -59t-190.5 59t-60.5 145v472h150v-458q0 -42 23.5 -63.5t77.5 -21.5t77.5 21.5t23.5 63.5v458zM387 855l67 -32q-10 -49 -46.5 -79.5t-96.5 -30.5t-96.5 30.5t-46.5 79.5l67 32q18 -66 76 -66t76 66z" />
    <glyph glyph-name="ubreve" unicode="&#x16d;" horiz-adv-x="553" 
d="M60 487h144v-322q0 -35 35 -35q41 0 105 35v322h144v-487h-107l-15 37q-97 -47 -194 -47q-112 0 -112 156v341zM374 689l67 -32q-7 -51 -47.5 -87t-106.5 -36t-106.5 36t-47.5 87l67 32q20 -73 87 -73t87 73z" />
    <glyph glyph-name="Uring" unicode="&#x16e;" horiz-adv-x="622" 
d="M412 666h150v-472q0 -86 -60.5 -145t-190.5 -59t-190.5 59t-60.5 145v472h150v-458q0 -42 23.5 -63.5t77.5 -21.5t77.5 21.5t23.5 63.5v458zM399 791q0 -35 -24.5 -59.5t-63.5 -24.5q-40 0 -64 23t-24 61q0 36 24 60.5t64 24.5t64 -24.5t24 -60.5zM345 791q0 17 -9 26.5
t-25 9.5t-25 -9.5t-9 -26.5q0 -16 9 -25.5t25 -9.5t25 9.5t9 25.5z" />
    <glyph glyph-name="uring" unicode="&#x16f;" horiz-adv-x="553" 
d="M60 487h144v-322q0 -35 35 -35q41 0 105 35v322h144v-487h-107l-15 37q-97 -47 -194 -47q-112 0 -112 156v341zM376 620q0 -40 -25.5 -66.5t-71.5 -26.5t-71.5 25.5t-25.5 67.5q0 40 26 66.5t71 26.5q46 0 71.5 -26.5t25.5 -66.5zM316 620q0 18 -10 29t-27 11t-27 -11
t-10 -29t10 -29t27 -11t27 11t10 29z" />
    <glyph glyph-name="Uhungarumlaut" unicode="&#x170;" horiz-adv-x="622" 
d="M412 666h150v-472q0 -86 -60.5 -145t-190.5 -59t-190.5 59t-60.5 145v472h150v-458q0 -42 23.5 -63.5t77.5 -21.5t77.5 21.5t23.5 63.5v458zM229 705l-65 64q56 53 100 104l70 -71q-59 -63 -105 -97zM409 705l-65 64q56 53 100 104l70 -71q-59 -63 -105 -97z" />
    <glyph glyph-name="uhungarumlaut" unicode="&#x171;" horiz-adv-x="553" 
d="M60 487h144v-322q0 -35 35 -35q41 0 105 35v322h144v-487h-107l-15 37q-97 -47 -194 -47q-112 0 -112 156v341zM191 530l-64 64q57 52 118 121l70 -71q-68 -70 -124 -114zM381 530l-64 64q57 52 118 121l70 -71q-68 -70 -124 -114z" />
    <glyph glyph-name="Uogonek" unicode="&#x172;" horiz-adv-x="622" 
d="M394 -121l9 -75q-27 -11 -66 -11q-49 0 -78.5 23.5t-29.5 68.5q0 61 82 105q-130 0 -190.5 59t-60.5 145v472h150v-458q0 -42 23.5 -63.5t77.5 -21.5t77.5 21.5t23.5 63.5v458h150v-472q0 -69 -38.5 -121.5t-120.5 -72.5q-78 -59 -78 -95q0 -30 34 -30q19 0 35 4z" />
    <glyph glyph-name="uogonek" unicode="&#x173;" horiz-adv-x="553" 
d="M448 -121l9 -75q-28 -11 -66 -11q-49 0 -78.5 23.5t-29.5 68.5q0 65 98 115l-15 37q-97 -47 -194 -47q-112 0 -112 156v341h144v-322q0 -35 35 -35q41 0 105 35v322h144v-487h-31q-54 -44 -68 -64q-10 -17 -10 -31q0 -30 34 -30q19 0 35 4z" />
    <glyph glyph-name="Wcircumflex" unicode="&#x174;" horiz-adv-x="944" 
d="M939 666l-163 -666h-191l-112 506l-113 -506h-191l-164 666h148l113 -476l116 476h183l114 -476l112 476h148zM601 774l-39 -62q-48 21 -89 45q-41 -24 -89 -45l-39 62q61 41 128 94q67 -53 128 -94z" />
    <glyph glyph-name="wcircumflex" unicode="&#x175;" horiz-adv-x="705" 
d="M447 0l-95 318l-94 -318h-156l-84 487h132l46 -285l85 285h144l84 -285l46 285h132l-84 -487h-156zM253 531l-44 59q76 59 143 117q67 -58 143 -117l-44 -59q-58 35 -99 65q-41 -30 -99 -65z" />
    <glyph glyph-name="Ycircumflex" unicode="&#x176;" horiz-adv-x="564" 
d="M564 666l-207 -474v-192h-150v192l-207 474h157l125 -309l125 309h157zM410 774l-39 -62q-48 21 -89 45q-41 -24 -89 -45l-39 62q61 41 128 94q67 -53 128 -94z" />
    <glyph glyph-name="ycircumflex" unicode="&#x177;" horiz-adv-x="495" 
d="M280 -197h-136l57 197h-46l-150 487h146l99 -345l99 345h146l-153 -487zM153 531l-44 59q76 59 143 117q67 -58 143 -117l-44 -59q-58 35 -99 65q-41 -30 -99 -65z" />
    <glyph glyph-name="Ydieresis" unicode="&#x178;" horiz-adv-x="564" 
d="M564 666l-207 -474v-192h-150v192l-207 474h157l125 -309l125 309h157zM238 727h-114v109h114v-109zM440 727h-114v109h114v-109z" />
    <glyph glyph-name="Zacute" unicode="&#x179;" horiz-adv-x="566" 
d="M511 543l-290 -420h295v-123h-466v122l293 421h-280v123h448v-123zM271 707l-50 76q92 58 136 92l54 -84q-57 -40 -140 -84z" />
    <glyph glyph-name="zacute" unicode="&#x17a;" horiz-adv-x="460" 
d="M46 377v110h368v-110l-202 -267h208v-110h-375v110l201 267h-200zM208 537l-50 76q88 56 151 102l54 -84q-85 -55 -155 -94z" />
    <glyph glyph-name="Zdotaccent" unicode="&#x17b;" horiz-adv-x="566" 
d="M511 543l-290 -420h295v-123h-466v122l293 421h-280v123h448v-123zM364 728h-144v153h144v-153z" />
    <glyph glyph-name="zdotaccent" unicode="&#x17c;" horiz-adv-x="460" 
d="M46 377v110h368v-110l-202 -267h208v-110h-375v110l201 267h-200zM309 548h-144v153h144v-153z" />
    <glyph glyph-name="Zcaron" unicode="&#x17d;" horiz-adv-x="566" 
d="M511 543l-290 -420h295v-123h-466v122l293 421h-280v123h448v-123zM388 869l39 -62q-61 -41 -128 -94q-67 53 -128 94l39 62q48 -21 89 -45q41 24 89 45z" />
    <glyph glyph-name="zcaron" unicode="&#x17e;" horiz-adv-x="460" 
d="M46 377v110h368v-110l-202 -267h208v-110h-375v110l201 267h-200zM95 644l44 59q58 -35 99 -65q41 30 99 65l44 -59q-76 -59 -143 -117q-67 58 -143 117z" />
    <glyph glyph-name="florin" unicode="&#x192;" horiz-adv-x="496" 
d="M5 -188l24 115q20 -4 40 -4q29 0 40 13t13 39l30 334h-79l10 118h79l10 118q7 78 48.5 117t130.5 39q59 0 120 -14l-23 -114q-40 8 -80 8q-32 0 -41 -12t-12 -40l-9 -102h131l-20 -118h-121l-31 -350q-14 -156 -179 -156q-38 0 -81 9z" />
    <glyph glyph-name="Aringacute" unicode="&#x1fa;" horiz-adv-x="627" 
d="M413 666l204 -666h-156l-36 130h-223l-36 -130h-156l203 666h200zM313 534l-77 -279h153zM401 791q0 -35 -24.5 -59.5t-63.5 -24.5q-40 0 -64 23t-24 61q0 36 24 60.5t64 24.5t64 -24.5t24 -60.5zM347 791q0 17 -9 26.5t-25 9.5t-25 -9.5t-9 -26.5q0 -16 9 -25.5t25 -9.5
t25 9.5t9 25.5zM320 904l-41 70q74 47 120 81l49 -76q-72 -48 -128 -75z" />
    <glyph glyph-name="aringacute" unicode="&#x1fb;" horiz-adv-x="499" 
d="M444 0h-118l-10 31q-74 -41 -139 -41q-64 0 -95.5 41t-31.5 107q0 73 34.5 105t110.5 32h105v37q0 40 -15.5 53.5t-70.5 13.5q-60 0 -132 -14l-19 108q79 24 175 24q123 0 164.5 -40.5t41.5 -145.5v-311zM300 119v56h-69q-24 0 -33.5 -7.5t-9.5 -27.5t9 -29t30 -9
q36 0 73 17zM348 621q0 -35 -24 -59.5t-64 -24.5t-64 23t-24 61q0 36 24 60.5t64 24.5t64 -24.5t24 -60.5zM294 621q0 17 -9 26.5t-25 9.5t-25 -9.5t-9 -26.5q0 -16 9 -25.5t25 -9.5t25 9.5t9 25.5zM257 734l-41 70q74 47 120 81l49 -76q-72 -48 -128 -75z" />
    <glyph glyph-name="AEacute" unicode="&#x1fc;" horiz-adv-x="855" 
d="M805 0h-344l-36 130h-223l-36 -130h-156l203 666h592v-133h-352l38 -122h293v-133h-253l45 -145h229v-133zM313 534l-77 -279h153zM370 707l-50 76q92 58 136 92l54 -84q-57 -40 -140 -84z" />
    <glyph glyph-name="aeacute" unicode="&#x1fd;" horiz-adv-x="736" 
d="M706 193h-262v-22q1 -37 20.5 -50t67.5 -13q79 0 148 21l21 -108q-85 -31 -183 -31q-99 0 -153 40q-77 -40 -168 -40q-71 0 -109 41.5t-38 106.5q0 73 34.5 105t110.5 32h105v37q0 40 -15.5 53.5t-70.5 13.5q-60 0 -132 -14l-19 108q79 24 175 24q89 0 146 -37
q56 37 125 37q58 0 98.5 -16t61 -46t29 -63.5t8.5 -76.5v-102zM570 301v21q0 29 -12.5 45.5t-47.5 16.5q-66 0 -66 -62v-21h126zM300 119v56h-69q-24 0 -33.5 -7.5t-9.5 -27.5t9 -29t30 -9q36 0 73 17zM376 537l-50 76q88 56 151 102l54 -84q-85 -55 -155 -94z" />
    <glyph glyph-name="Oslashacute" unicode="&#x1fe;" horiz-adv-x="616" 
d="M50 -25l52 85q-52 53 -52 134v278q0 85 63.5 144.5t194.5 59.5q86 0 149 -30l49 80l60 -36l-52 -85q52 -55 52 -133v-278q0 -85 -63.5 -144.5t-194.5 -59.5q-90 0 -150 30l-48 -80zM200 459v-237l184 303q-29 18 -76 18q-108 0 -108 -84zM308 123q108 0 108 84v236
l-184 -302q26 -18 76 -18zM299 707l-50 76q92 58 136 92l54 -84q-57 -40 -140 -84z" />
    <glyph glyph-name="oslashacute" unicode="&#x1ff;" horiz-adv-x="520" 
d="M260 -10q-77 0 -127 25l-46 -65l-44 30l46 66q-49 50 -49 141v113q0 86 50.5 141.5t169.5 55.5q77 0 127 -25l46 65l44 -31l-46 -66q49 -50 49 -140v-113q0 -86 -50.5 -141.5t-169.5 -55.5zM184 183v-2l127 182q-19 13 -51 13q-76 0 -76 -72v-121zM260 111q76 0 76 72
v121l-127 -180q17 -13 51 -13zM251 537l-50 76q88 56 151 102l54 -84q-85 -55 -155 -94z" />
    <glyph glyph-name="Scommaaccent" unicode="&#x218;" horiz-adv-x="544" 
d="M504 187q0 -70 -18.5 -110.5t-73 -63.5t-152.5 -23q-121 0 -215 43l25 116q103 -32 192 -32q57 0 74.5 14t17.5 57q0 26 -1.5 36.5t-14 22t-32.5 17t-64 15.5q-120 26 -152.5 64t-32.5 147q0 103 48 144.5t182 41.5q100 0 202 -22l-15 -126q-111 19 -185 19
q-50 0 -66 -12t-16 -49q0 -48 14.5 -59.5t93.5 -30.5q46 -11 76.5 -21t52.5 -24t33.5 -26t17.5 -35.5t7.5 -44t1.5 -58.5zM344 -197l-67 -106l-54 33l42 81h-42v140h121v-148z" />
    <glyph glyph-name="scommaaccent" unicode="&#x219;" horiz-adv-x="433" 
d="M398 145q0 -79 -40.5 -117t-140.5 -38q-90 0 -177 29l23 107q73 -22 147 -22q31 0 40.5 9t9.5 32q0 24 -11 32t-68 22q-84 21 -106.5 50t-22.5 102q0 80 39.5 113t146.5 33q85 0 148 -16l-13 -112q-75 14 -134 14q-30 0 -41 -8t-11 -25q0 -23 9.5 -30t52.5 -17
q53 -12 82 -23.5t44.5 -31.5t19 -41t3.5 -62zM276 -197l-67 -106l-54 33l42 81h-42v140h121v-148z" />
    <glyph glyph-name="circumflex" unicode="&#x2c6;" horiz-adv-x="376" 
d="M89 531l-44 59q76 59 143 117q67 -58 143 -117l-44 -59q-58 35 -99 65q-41 -30 -99 -65z" />
    <glyph glyph-name="caron" unicode="&#x2c7;" horiz-adv-x="376" 
d="M45 644l44 59q58 -35 99 -65q41 30 99 65l44 -59q-76 -59 -143 -117q-67 58 -143 117z" />
    <glyph glyph-name="breve" unicode="&#x2d8;" horiz-adv-x="398" 
d="M286 689l67 -32q-7 -51 -47.5 -87t-106.5 -36t-106.5 36t-47.5 87l67 32q20 -73 87 -73t87 73z" />
    <glyph glyph-name="dotaccent" unicode="&#x2d9;" horiz-adv-x="234" 
d="M189 548h-144v153h144v-153z" />
    <glyph glyph-name="ring" unicode="&#x2da;" horiz-adv-x="284" 
d="M239 620q0 -40 -25.5 -66.5t-71.5 -26.5t-71.5 25.5t-25.5 67.5q0 40 26 66.5t71 26.5q46 0 71.5 -26.5t25.5 -66.5zM179 620q0 18 -10 29t-27 11t-27 -11t-10 -29t10 -29t27 -11t27 11t10 29z" />
    <glyph glyph-name="ogonek" unicode="&#x2db;" horiz-adv-x="264" 
d="M210 -121l9 -75q-27 -11 -66 -11q-49 0 -78.5 23.5t-29.5 68.5q0 65 98 115h76q-54 -44 -68 -64q-10 -17 -10 -31q0 -30 34 -30q19 0 35 4z" />
    <glyph glyph-name="tilde" unicode="&#x2dc;" horiz-adv-x="417" 
d="M266 546q-37 0 -67 21q-30 22 -46 22q-5 0 -9.5 -1.5t-8.5 -5t-7 -5.5t-7.5 -8l-6 -8l-6.5 -9t-5 -8l-58 45q44 87 105 87q34 0 65 -21q35 -23 51 -23q29 0 38 41l68 -31q-27 -96 -106 -96z" />
    <glyph glyph-name="hungarumlaut" unicode="&#x2dd;" horiz-adv-x="468" 
d="M109 530l-64 64q57 52 118 121l70 -71q-68 -70 -124 -114zM299 530l-64 64q57 52 118 121l70 -71q-68 -70 -124 -114z" />
    <glyph glyph-name="Omega" unicode="&#x3a9;" horiz-adv-x="682" 
d="M599 472v-271q0 -61 -38 -106h86v-95h-252v95q54 46 54 116v248q0 84 -108 84t-108 -84v-248q0 -70 54 -116v-95h-252v95h86q-38 45 -38 106v271q0 85 63.5 144.5t194.5 59.5t194.5 -59.5t63.5 -144.5z" />
    <glyph glyph-name="pi" unicode="&#x3c0;" horiz-adv-x="677" 
d="M30 368v119h597v-119h-93v-241q0 -26 28 -26q22 0 51 8l19 -102q-49 -17 -98 -17q-70 0 -105 34.5t-35 93.5v250h-128v-368h-140v368h-96z" />
    <glyph glyph-name="Wgrave" unicode="&#x1e80;" horiz-adv-x="944" 
d="M939 666l-163 -666h-191l-112 506l-113 -506h-191l-164 666h148l113 -476l116 476h183l114 -476l112 476h148zM538 783l-50 -76q-83 44 -140 84l54 84q44 -34 136 -92z" />
    <glyph glyph-name="wgrave" unicode="&#x1e81;" horiz-adv-x="705" 
d="M447 0l-95 318l-94 -318h-156l-84 487h132l46 -285l85 285h144l84 -285l46 285h132l-84 -487h-156zM409 613l-50 -76q-70 39 -155 94l54 84q63 -46 151 -102z" />
    <glyph glyph-name="Wacute" unicode="&#x1e82;" horiz-adv-x="944" 
d="M939 666l-163 -666h-191l-112 506l-113 -506h-191l-164 666h148l113 -476l116 476h183l114 -476l112 476h148zM470 707l-50 76q92 58 136 92l54 -84q-57 -40 -140 -84z" />
    <glyph glyph-name="wacute" unicode="&#x1e83;" horiz-adv-x="705" 
d="M447 0l-95 318l-94 -318h-156l-84 487h132l46 -285l85 285h144l84 -285l46 285h132l-84 -487h-156zM353 537l-50 76q88 56 151 102l54 -84q-85 -55 -155 -94z" />
    <glyph glyph-name="Wdieresis" unicode="&#x1e84;" horiz-adv-x="944" 
d="M939 666l-163 -666h-191l-112 506l-113 -506h-191l-164 666h148l113 -476l116 476h183l114 -476l112 476h148zM429 727h-114v109h114v-109zM631 727h-114v109h114v-109z" />
    <glyph glyph-name="wdieresis" unicode="&#x1e85;" horiz-adv-x="705" 
d="M447 0l-95 318l-94 -318h-156l-84 487h132l46 -285l85 285h144l84 -285l46 285h132l-84 -487h-156zM303 554h-114v118h114v-118zM513 554h-114v118h114v-118z" />
    <glyph glyph-name="Ygrave" unicode="&#x1ef2;" horiz-adv-x="564" 
d="M564 666l-207 -474v-192h-150v192l-207 474h157l125 -309l125 309h157zM349 783l-50 -76q-83 44 -140 84l54 84q44 -34 136 -92z" />
    <glyph glyph-name="ygrave" unicode="&#x1ef3;" horiz-adv-x="495" 
d="M280 -197h-136l57 197h-46l-150 487h146l99 -345l99 345h146l-153 -487zM320 613l-50 -76q-70 39 -155 94l54 84q63 -46 151 -102z" />
    <glyph glyph-name="endash" unicode="&#x2013;" horiz-adv-x="478" 
d="M428 220h-378v120h378v-120z" />
    <glyph glyph-name="emdash" unicode="&#x2014;" horiz-adv-x="628" 
d="M578 220h-528v120h528v-120z" />
    <glyph glyph-name="quoteleft" unicode="&#x2018;" horiz-adv-x="268" 
d="M65 567l88 139l65 -37l-57 -112h48v-166h-144v176z" />
    <glyph glyph-name="quoteright" unicode="&#x2019;" horiz-adv-x="258" 
d="M203 510l-88 -139l-65 37l57 112h-48v166h144v-176z" />
    <glyph glyph-name="quotesinglbase" unicode="&#x201a;" horiz-adv-x="273" 
d="M208 -10l-88 -139l-65 37l57 112h-48v166h144v-176z" />
    <glyph glyph-name="quotedblleft" unicode="&#x201c;" horiz-adv-x="483" 
d="M65 567l88 139l65 -37l-57 -112h48v-166h-144v176zM280 567l88 139l65 -37l-57 -112h48v-166h-144v176z" />
    <glyph glyph-name="quotedblright" unicode="&#x201d;" horiz-adv-x="483" 
d="M418 510l-88 -139l-65 37l57 112h-48v166h144v-176zM203 510l-88 -139l-65 37l57 112h-48v166h144v-176z" />
    <glyph glyph-name="quotedblbase" unicode="&#x201e;" horiz-adv-x="488" 
d="M423 -10l-88 -139l-65 37l57 112h-48v166h144v-176zM208 -10l-88 -139l-65 37l57 112h-48v166h144v-176z" />
    <glyph glyph-name="dagger" unicode="&#x2020;" horiz-adv-x="444" 
d="M414 405h-140v-475h-104v475h-140v96h140v165h104v-165h140v-96z" />
    <glyph glyph-name="daggerdbl" unicode="&#x2021;" horiz-adv-x="444" 
d="M30 191h140v214h-140v96h140v165h104v-165h140v-96h-140v-214h140v-96h-140v-165h-104v165h-140v96z" />
    <glyph glyph-name="bullet" unicode="&#x2022;" horiz-adv-x="348" 
d="M40 323q0 55 39 94.5t95 39.5t95 -39.5t39 -94.5t-39 -94.5t-95 -39.5t-95 39.5t-39 94.5z" />
    <glyph glyph-name="ellipsis" unicode="&#x2026;" horiz-adv-x="822" 
d="M209 0h-144v166h144v-166zM483 0h-144v166h144v-166zM757 0h-144v166h144v-166z" />
    <glyph glyph-name="perthousand" unicode="&#x2030;" horiz-adv-x="1285" 
d="M356 452q0 -69 -36 -107t-124 -38q-89 0 -125 38t-36 107v74q0 69 36 107t125 38q88 0 124 -38t36 -107v-74zM245 534q0 23 -10.5 32t-38.5 9t-39 -9t-11 -32v-90q0 -23 11 -32t39 -9t38.5 9t10.5 32v90zM267 26l268 650l88 -35l-268 -651zM852 140q0 -69 -36 -107
t-124 -38q-89 0 -125 38t-36 107v74q0 69 36 107t125 38q88 0 124 -38t36 -107v-74zM741 222q0 23 -10.5 32t-38.5 9t-39 -9t-11 -32v-90q0 -23 11 -32t39 -9t38.5 9t10.5 32v90zM1245 140q0 -69 -36 -107t-124 -38q-89 0 -125 38t-36 107v74q0 69 36 107t125 38
q88 0 124 -38t36 -107v-74zM1134 222q0 23 -10.5 32t-38.5 9t-39 -9t-11 -32v-90q0 -23 11 -32t39 -9t38.5 9t10.5 32v90z" />
    <glyph glyph-name="guilsinglleft" unicode="&#x2039;" horiz-adv-x="343" 
d="M172 51l-127 193l127 193l96 -57l-89 -136l89 -136z" />
    <glyph glyph-name="guilsinglright" unicode="&#x203a;" horiz-adv-x="343" 
d="M298 244l-127 -193l-96 57l89 136l-89 136l96 57z" />
    <glyph glyph-name="fraction" unicode="&#x2044;" horiz-adv-x="388" 
d="M0 -10l310 701l78 -35l-309 -700z" />
    <glyph glyph-name="Euro" unicode="&#x20ac;" horiz-adv-x="529" 
d="M15 356v76h79v20q0 96 60.5 150t182.5 54q92 0 157 -17l-18 -131q-70 12 -139 12q-91 0 -93 -88h175v-76h-175v-66h175v-76h-175q2 -88 93 -88q69 0 139 12l18 -131q-72 -17 -157 -17q-122 0 -182.5 54t-60.5 150v20h-79v76h79v66h-79z" />
    <glyph glyph-name="uni2113" unicode="&#x2113;" horiz-adv-x="539" 
d="M318 -10q-192 0 -209 152q-25 -15 -58 -31l-56 97l112 63v242q0 94 49.5 143.5t147.5 49.5q86 0 135.5 -45t49.5 -116q0 -95 -59 -170.5t-181 -150.5v-46q0 -38 19 -54.5t61 -16.5q64 0 142 33l33 -110q-90 -40 -186 -40zM249 531v-168q52 41 78.5 82.5t26.5 95.5
q0 24 -14 37t-36 13q-55 0 -55 -60z" />
    <glyph glyph-name="uni2116" unicode="&#x2116;" horiz-adv-x="998" 
d="M392 0l-188 433v-433h-139v666h170l189 -454v454h139v-666h-171zM654 162v85h309v-85h-309zM973 531v-89q0 -65 -40 -105t-124 -40t-124 40t-40 105v89q0 65 40 105t124 40t124 -40t40 -105zM865 440v93q0 27 -13 40t-43 13t-43 -13t-13 -40v-93q0 -27 13 -40t43 -13
t43 13t13 40z" />
    <glyph glyph-name="trademark" unicode="&#x2122;" horiz-adv-x="452" 
d="M291 488l-32 82l-2 -108h-46l8 204h48l47 -123l46 123h49l8 -204h-47l-2 109l-32 -83h-45zM186 622h-54v-160h-49v160h-53v44h156v-44z" />
    <glyph glyph-name="estimated" unicode="&#x212e;" horiz-adv-x="784" 
d="M749 301h-572v-201q87 -76 215 -76q88 0 155.5 31t135.5 99l24 -24q-65 -67 -139.5 -103.5t-175.5 -36.5q-150 0 -253.5 98t-103.5 235t105.5 235t251.5 98t251.5 -98t105.5 -235v-22zM392 622q-124 0 -215 -80v-209h430v209q-91 80 -215 80z" />
    <glyph glyph-name="partialdiff" unicode="&#x2202;" horiz-adv-x="575" 
d="M300 696q122 0 176 -50t54 -146q0 -41 -9 -89l-42 -234q-9 -49 -22.5 -80.5t-41 -57t-74 -37.5t-115.5 -12q-99 0 -145 40t-46 106q0 13 4 41l11 63q6 37 13.5 61.5t23 50.5t38 41t59.5 24.5t88 9.5q55 0 104 -18l5 31q5 30 5 48q0 45 -24.5 64t-83.5 19q-64 0 -141 -24
l-28 111q97 38 191 38zM247 111q45 0 63 13t24 49l20 116q-30 17 -78 17q-41 0 -57.5 -13t-23.5 -49l-13 -71q-2 -14 -2 -23q0 -21 14.5 -30t52.5 -9z" />
    <glyph glyph-name="Delta" unicode="&#x2206;" horiz-adv-x="713" 
d="M429 666l244 -666h-633l244 666h145zM356 481l-124 -348h248z" />
    <glyph glyph-name="product" unicode="&#x220f;" horiz-adv-x="787" 
d="M636 -100h-144v633h-197v-633h-144v633h-116v133h717v-133h-116v-633z" />
    <glyph glyph-name="summation" unicode="&#x2211;" horiz-adv-x="538" 
d="M60 -100v133l190 255l-195 245v133h411v-133h-224l194 -242l-195 -258h242v-133h-423z" />
    <glyph glyph-name="minus" unicode="&#x2212;" horiz-adv-x="368" 
d="M328 178h-288v120h288v-120z" />
    <glyph glyph-name="radical" unicode="&#x221a;" horiz-adv-x="684" 
d="M684 730v-120h-151l-183 -610h-158l-147 459l126 38l97 -330l161 563h255z" />
    <glyph glyph-name="infinity" unicode="&#x221e;" horiz-adv-x="894" 
d="M447 360q59 53 107 80t106 27q93 0 148.5 -48t55.5 -138q0 -89 -56.5 -136.5t-147.5 -47.5q-58 0 -105.5 26.5t-107.5 79.5q-60 -53 -107.5 -79.5t-105.5 -26.5q-91 0 -147.5 47.5t-56.5 136.5q0 90 55.5 138t148.5 48q58 0 106 -27t107 -80zM157 281q0 -34 20.5 -51
t56.5 -17q53 0 129 69q-78 69 -129 69q-30 0 -53.5 -19t-23.5 -51zM737 281q0 32 -23.5 51t-53.5 19q-51 0 -129 -69q76 -69 129 -69q36 0 56.5 17t20.5 51z" />
    <glyph glyph-name="integral" unicode="&#x222b;" horiz-adv-x="410" 
d="M118 530q0 146 135 146q58 0 117 -25l-26 -112q-29 12 -53 12q-29 0 -29 -32v-580q0 -146 -135 -146q-58 0 -117 25l26 103q29 -12 53 -12q29 0 29 32v589z" />
    <glyph glyph-name="approxequal" unicode="&#x2248;" horiz-adv-x="545" 
d="M196 118q-44 0 -93 -41l-48 88q26 27 65.5 47t79.5 20q44 0 96 -30t70 -30q41 0 79 38l55 -82q-69 -67 -140 -67q-38 0 -84.5 28.5t-79.5 28.5zM196 318q-44 0 -93 -41l-48 88q26 27 65.5 47t79.5 20q44 0 96 -30t70 -30q41 0 79 38l55 -82q-69 -67 -140 -67
q-38 0 -84.5 28.5t-79.5 28.5z" />
    <glyph glyph-name="notequal" unicode="&#x2260;" 
d="M86 15l47 91h-78v96h128l51 98h-179v96h229l73 139l81 -42l-51 -97h83v-96h-133l-51 -98h184v-96h-234l-69 -133z" />
    <glyph glyph-name="lessequal" unicode="&#x2264;" horiz-adv-x="515" 
d="M394 135l-331 177v74l331 172l43 -81l-250 -128l250 -133zM460 0h-415v96h415v-96z" />
    <glyph glyph-name="greaterequal" unicode="&#x2265;" horiz-adv-x="515" 
d="M452 312l-331 -177l-43 81l250 133l-250 128l43 81l331 -172v-74zM470 0h-415v96h415v-96z" />
    <glyph glyph-name="lozenge" unicode="&#x25ca;" horiz-adv-x="567" 
d="M328 666l214 -332l-214 -334h-90l-213 334l213 332h90zM415 334l-132 200l-131 -200l131 -202z" />
    <glyph glyph-name="apple" unicode="&#xf8ff;" horiz-adv-x="876" 
d="M786 333h-333v-333h-333v666h666v-333z" />
    <glyph glyph-name="Acute" horiz-adv-x="295" 
d="M100 707l-50 76q92 58 136 92l54 -84q-57 -40 -140 -84z" />
    <glyph glyph-name="Breve" horiz-adv-x="376" 
d="M264 855l67 -32q-10 -49 -46.5 -79.5t-96.5 -30.5t-96.5 30.5t-46.5 79.5l67 32q18 -66 76 -66t76 66z" />
    <glyph glyph-name="Caron" horiz-adv-x="346" 
d="M262 869l39 -62q-61 -41 -128 -94q-67 53 -128 94l39 62q48 -21 89 -45q41 24 89 45z" />
    <glyph glyph-name="Cedilla" horiz-adv-x="286" 
d="M241 -115q0 -82 -112 -82q-43 0 -84 16l14 55q34 -10 62 -10q47 0 47 22q0 16 -7 19t-28 3q-10 0 -42 -2l-20 17l21 97h63l-13 -67q54 7 76.5 -9.5t22.5 -58.5z" />
    <glyph glyph-name="Circumflex" horiz-adv-x="346" 
d="M301 774l-39 -62q-48 21 -89 45q-41 -24 -89 -45l-39 62q61 41 128 94q67 -53 128 -94z" />
    <glyph glyph-name="commaaccent" horiz-adv-x="333" 
d="M231 -197l-67 -106l-54 33l42 81h-42v140h121v-148z" />
    <glyph glyph-name="Dieresis" horiz-adv-x="426" 
d="M169 727h-114v109h114v-109zM371 727h-114v109h114v-109z" />
    <glyph glyph-name="Dotaccent" horiz-adv-x="234" 
d="M189 728h-144v153h144v-153z" />
    <glyph glyph-name="Grave" horiz-adv-x="295" 
d="M245 783l-50 -76q-83 44 -140 84l54 84q44 -34 136 -92z" />
    <glyph glyph-name="Hungarumlaut" horiz-adv-x="440" 
d="M110 705l-65 64q56 53 100 104l70 -71q-59 -63 -105 -97zM290 705l-65 64q56 53 100 104l70 -71q-59 -63 -105 -97z" />
    <glyph glyph-name="Macron" horiz-adv-x="344" 
d="M299 730h-254v92h254v-92z" />
    <glyph glyph-name="Ogonek" horiz-adv-x="264" 
d="M210 -121l9 -75q-27 -11 -66 -11q-49 0 -78.5 23.5t-29.5 68.5q0 68 103 115h71q-78 -59 -78 -95q0 -30 34 -30q19 0 35 4z" />
    <glyph glyph-name="Ring" horiz-adv-x="266" 
d="M221 791q0 -35 -24.5 -59.5t-63.5 -24.5q-40 0 -64 23t-24 61q0 36 24 60.5t64 24.5t64 -24.5t24 -60.5zM167 791q0 17 -9 26.5t-25 9.5t-25 -9.5t-9 -26.5q0 -16 9 -25.5t25 -9.5t25 9.5t9 25.5z" />
    <glyph glyph-name="Tilde" horiz-adv-x="417" 
d="M266 717q-37 0 -67 21q-30 22 -46 22q-5 0 -9.5 -1.5t-8.5 -5t-7 -5.5t-7.5 -8l-6 -8l-6.5 -9t-5 -8l-58 45q44 87 105 87q34 0 65 -21q35 -23 51 -23q29 0 38 41l68 -31q-27 -96 -106 -96z" />
    <glyph glyph-name="ampersand.salt" horiz-adv-x="678" 
d="M270 185v110h190q67 0 99.5 9.5t67.5 34.5l51 -91q-50 -48 -140 -59v-10q0 -92 -57.5 -140.5t-190.5 -48.5q-123 0 -181.5 45.5t-58.5 152.5v116q0 103 59 148t184 45q90 0 160 -16l-16 -117q-56 10 -144 10q-53 0 -76 -15.5t-23 -52.5v-123q0 -41 22.5 -57t73.5 -16
q70 0 91 14.5t21 53.5v7h-132z" />
    <glyph glyph-name="minus.onum" horiz-adv-x="368" 
d="M328 178h-288v120h288v-120z" />
    <glyph glyph-name="multiply.onum" horiz-adv-x="480" 
d="M343 53l-103 103l-103 -103l-82 82l103 103l-103 103l82 82l103 -103l103 103l82 -82l-103 -103l103 -103z" />
    <glyph glyph-name="numbersign.onum" horiz-adv-x="615" 
d="M349 0l8 112h-127l-8 -112h-93l8 112h-102l6 89h102l8 113h-102l6 89h102l8 107h93l-8 -107h127l8 107h93l-8 -107h105l-6 -89h-105l-8 -113h104l-6 -89h-104l-8 -112h-93zM244 314l-8 -113h127l8 113h-127z" />
    <glyph glyph-name="dollar.onum" horiz-adv-x="486" 
d="M189 -105v97q-88 9 -144 34l24 106q75 -25 162 -25q39 0 52.5 9.5t13.5 33.5q0 27 -13.5 35t-85.5 21q-51 9 -80.5 21.5t-44 34t-18.5 44.5t-4 64q0 70 34 104.5t110 42.5v98h116v-98q64 -5 116 -19l-17 -113q-87 18 -156 18q-36 0 -47.5 -8t-11.5 -32q0 -25 14 -32.5
t80 -20.5q96 -18 124 -48t28 -108q0 -71 -30 -110t-106 -49v-100h-116z" />
    <glyph glyph-name="percent.onum" horiz-adv-x="777" 
d="M317 -10l-87 40l224 490l87 -40zM176 231q-79 0 -110 33.5t-31 91.5v40q0 58 31 91t110 33q80 0 110.5 -33t30.5 -91v-40q0 -59 -30.5 -92t-110.5 -33zM215 406q0 28 -39 28t-39 -28v-61q0 -28 39 -28t39 28v61zM596 -10q-79 0 -110 33.5t-31 91.5v40q0 58 31 91t110 33
q80 0 110.5 -33t30.5 -91v-40q0 -59 -30.5 -92t-110.5 -33zM635 165q0 28 -39 28t-39 -28v-61q0 -28 39 -28t39 28v61z" />
    <glyph glyph-name="plus.onum" horiz-adv-x="517" 
d="M462 188h-146v-148h-115v148h-146v110h146v149h115v-149h146v-110z" />
    <glyph glyph-name="zero.onum" horiz-adv-x="552" 
d="M497 343v-176q0 -177 -221 -177t-221 177v176q0 177 221 177t221 -177zM197 325v-140q0 -38 17.5 -54.5t61.5 -16.5t61.5 16.5t17.5 54.5v140q0 38 -17.5 54.5t-61.5 16.5t-61.5 -16.5t-17.5 -54.5z" />
    <glyph glyph-name="one.onum" horiz-adv-x="394" 
d="M324 0h-144v343l-113 -61l-62 119l189 109h130v-510z" />
    <glyph glyph-name="two.onum" horiz-adv-x="505" 
d="M352 183q-58 -53 -70 -63h173v-120h-404v98l146 123q66 55 80 77t14 57v2q0 21 -16 29t-51 8q-72 0 -150 -25l-29 115q93 36 186 36q113 0 157 -34.5t44 -109.5v-12q0 -32 -1.5 -48t-8.5 -39.5t-24 -45t-46 -48.5z" />
    <glyph glyph-name="three.onum" horiz-adv-x="476" 
d="M81 249h77q66 0 89 16t23 59v28q0 30 -21 41.5t-70 11.5q-41 0 -119 -14l-15 111q86 18 157 18q115 0 163.5 -36.5t48.5 -113.5v-47q0 -95 -87 -133q44 -10 71.5 -41.5t27.5 -81.5v-51q0 -78 -52.5 -120t-175.5 -42q-86 0 -153 22l15 109q71 -13 123 -13q53 0 76 13
t23 42v35q0 39 -22 51.5t-81 12.5h-98v123z" />
    <glyph glyph-name="four.onum" horiz-adv-x="565" 
d="M550 20h-90v-156h-140v156h-290v125l247 365h183v-373h90v-117zM320 137v224l-146 -224h146z" />
    <glyph glyph-name="five.onum" horiz-adv-x="481" 
d="M297 67q0 34 -14.5 46t-61.5 14q-94 4 -152 5v378h358v-125h-214v-136q12 0 83 -4q81 -4 113 -40.5t32 -101.5v-71q-1 -61 -18.5 -97.5t-67.5 -58.5t-139 -22q-90 0 -171 25l21 116q73 -16 149 -16q49 0 65.5 14t16.5 47v27z" />
    <glyph glyph-name="six.onum" horiz-adv-x="523" 
d="M266 -10q-120 0 -165.5 51.5t-45.5 141.5v244q0 128 78.5 178.5t228.5 50.5q48 0 98 -8l-11 -119q-42 6 -67 6q-100 0 -141.5 -23t-41.5 -84v-49q49 15 110 15q86 0 127.5 -40t41.5 -128v-43q0 -87 -46.5 -140t-165.5 -53zM266 114q38 0 53 14.5t15 47.5v44q0 50 -49 50
q-47 0 -86 -18v-76q0 -35 14 -48.5t53 -13.5z" />
    <glyph glyph-name="seven.onum" horiz-adv-x="492" 
d="M462 388l-265 -524l-122 52l237 467h-277v127h427v-122z" />
    <glyph glyph-name="eight.onum" horiz-adv-x="544" 
d="M55 211q0 38 18.5 65.5t65.5 52.5q-68 44 -68 112v56q0 79 46.5 119t154.5 40t154.5 -40t46.5 -119v-56q0 -37 -15 -62.5t-53 -49.5q47 -25 65.5 -52.5t18.5 -65.5v-51q0 -92 -49 -131t-168 -39t-168 39t-49 131v51zM194 162q0 -31 16.5 -42.5t61.5 -11.5q44 0 61 12.5
t17 41.5v33q0 27 -13 40t-67 34q-53 -20 -64.5 -33t-11.5 -41v-33zM210 443q0 -24 11 -35t53 -27q42 15 51 26t9 36v48q0 26 -13 37t-49 11t-49 -11t-13 -37v-48z" />
    <glyph glyph-name="nine.onum" horiz-adv-x="523" 
d="M257 520q120 0 165.5 -51.5t45.5 -141.5v-244q0 -128 -78.5 -178.5t-228.5 -50.5q-48 0 -98 8l8 119q42 -6 70 -6q100 0 141.5 23t41.5 84v49q-49 -15 -110 -15q-86 0 -127.5 40t-41.5 128v43q0 87 46.5 140t165.5 53zM257 396q-38 0 -53 -14.5t-15 -47.5v-44
q0 -50 49 -50q47 0 86 18v76q0 35 -14 48.5t-53 13.5z" />
    <glyph glyph-name="less.onum" horiz-adv-x="566" 
d="M473 -10l-443 217v74l443 216l43 -85l-352 -168l352 -168z" />
    <glyph glyph-name="equal.onum" 
d="M470 300h-415v96h415v-96zM470 106h-415v96h415v-96z" />
    <glyph glyph-name="greater.onum" horiz-adv-x="566" 
d="M536 207l-443 -217l-43 86l352 168l-352 168l43 85l443 -216v-74z" />
    <glyph glyph-name="cent.onum" horiz-adv-x="469" 
d="M201 -75v110q-146 23 -146 164v122q0 141 146 164v110h116v-107q46 -3 97 -15l-16 -118q-62 13 -130 13q-37 0 -53 -14t-16 -45v-98q0 -31 16 -45t53 -14q68 0 130 13l16 -118q-49 -11 -97 -16v-106h-116z" />
    <glyph glyph-name="sterling.onum" horiz-adv-x="531" 
d="M55 205v96h72q-20 58 -20 89q0 68 42.5 99t145.5 31q97 0 175 -29l-16 -102q-93 18 -160 18q-24 0 -33.5 -7.5t-9.5 -25.5q0 -23 20 -73h168l-6 -96h-143q-5 -59 -45 -93h241v-112h-415v106q24 15 46.5 43t27.5 56h-90z" />
    <glyph glyph-name="section.onum" horiz-adv-x="503" 
d="M243 28l-108 -38q-90 220 -90 402q0 65 37 96.5t119 31.5q79 0 174 -29l-17 -95q-97 23 -150 23q-24 0 -33.5 -9t-9.5 -31q0 -88 19 -166t59 -185zM270 295l108 38q90 -220 90 -402q0 -65 -37 -96.5t-119 -31.5q-79 0 -174 29l17 95q97 -23 150 -23q24 0 33.5 9t9.5 31
q0 88 -19 166t-59 185z" />
    <glyph glyph-name="yen.onum" horiz-adv-x="549" 
d="M426 312h73v-81h-111l-30 -61h141v-80h-151v-90h-148v90h-150v80h139l-30 61h-109v81h70l-95 198h147l102 -227l103 227h147z" />
    <glyph glyph-name="florin.onum" horiz-adv-x="470" 
d="M-5 -181l19 111q35 -7 53 -7q23 0 32.5 9t11.5 34l17 188h-79l10 118h79l8 92q7 80 49.5 118t129.5 38q64 0 115 -19l-22 -112q-38 11 -76 11q-48 0 -52 -45l-8 -83h125l-14 -118h-121l-18 -208q-6 -68 -39.5 -105.5t-113.5 -37.5q-61 0 -106 16z" />
    <glyph glyph-name="endash.onum" horiz-adv-x="478" 
d="M428 220h-378v120h378v-120z" />
    <glyph glyph-name="divide.onum" horiz-adv-x="524" 
d="M329 0h-134v136h134v-136zM469 198h-414v92h414v-92zM329 351h-134v136h134v-136z" />
    <glyph glyph-name="Euro.onum" horiz-adv-x="477" 
d="M30 278v55h58v18q0 84 51 126.5t164 42.5q73 0 144 -18l-16 -117q-62 13 -130 13q-37 0 -53 -13t-16 -46v-6h113v-55h-113v-46h113v-55h-113v-6q0 -31 16 -45t53 -14q68 0 130 13l16 -118q-72 -17 -144 -17q-113 0 -164 42.5t-51 126.5v18h-58v55h58v46h-58z" />
    <glyph glyph-name="perthousand.onum" horiz-adv-x="1107" 
d="M317 -10l-87 40l224 490l87 -40zM176 231q-79 0 -110 33.5t-31 91.5v40q0 58 31 91t110 33q80 0 110.5 -33t30.5 -91v-40q0 -59 -30.5 -92t-110.5 -33zM215 406q0 28 -39 28t-39 -28v-61q0 -28 39 -28t39 28v61zM596 -10q-79 0 -110 33.5t-31 91.5v40q0 58 31 91t110 33
q80 0 110.5 -33t30.5 -91v-40q0 -59 -30.5 -92t-110.5 -33zM635 165q0 28 -39 28t-39 -28v-61q0 -28 39 -28t39 28v61zM926 -10q-79 0 -110 33.5t-31 91.5v40q0 58 31 91t110 33q80 0 110.5 -33t30.5 -91v-40q0 -59 -30.5 -92t-110.5 -33zM965 165q0 28 -39 28t-39 -28v-61
q0 -28 39 -28t39 28v61z" />
    <glyph glyph-name="minus.tnum" 
d="M406 178h-288v120h288v-120z" />
    <glyph glyph-name="multiply.tnum" 
d="M365 53l-103 103l-103 -103l-82 82l103 103l-103 103l82 82l103 -103l103 103l82 -82l-103 -103l103 -103z" />
    <glyph glyph-name="numbersign.tnum" 
d="M305 0l11 159h-110l-12 -159h-89l12 159h-75l6 85h75l12 161h-75l6 85h75l11 156h89l-11 -156h110l10 156h89l-10 -156h73l-6 -85h-73l-12 -161h72l-6 -85h-72l-11 -159h-89zM224 405l-12 -161h110l12 161h-110z" />
    <glyph glyph-name="dollar.tnum" 
d="M205 -121v113q-84 7 -146 30l26 117q86 -25 159 -25q51 0 66 14.5t15 57.5t-14 56.5t-79 26.5q-106 21 -136.5 60.5t-30.5 140.5q0 89 36.5 132.5t129.5 51.5v115h115v-116q63 -5 111 -17l-15 -123q-76 17 -163 17q-43 0 -56.5 -12t-13.5 -51q0 -41 13.5 -52.5
t82.5 -28.5q42 -11 68.5 -19.5t46 -22t28.5 -23.5t14.5 -34t6 -42t0.5 -58q0 -92 -30 -137t-119 -56v-115h-115z" />
    <glyph glyph-name="percent.tnum" horiz-adv-x="872" 
d="M356 457q0 -69 -36 -107t-124 -38q-89 0 -125 38t-36 107v74q0 69 36 107t125 38q88 0 124 -38t36 -107v-74zM245 539q0 23 -10.5 32t-38.5 9t-39 -9t-11 -32v-90q0 -23 11 -32t39 -9t38.5 9t10.5 32v90zM253 26l268 650l88 -35l-268 -651zM832 135q0 -69 -36 -107
t-124 -38q-89 0 -125 38t-36 107v74q0 69 36 107t125 38q88 0 124 -38t36 -107v-74zM721 217q0 23 -10.5 32t-38.5 9t-39 -9t-11 -32v-90q0 -23 11 -32t39 -9t38.5 9t10.5 32v90z" />
    <glyph glyph-name="plus.tnum" 
d="M456 188h-136v-138h-115v138h-136v110h136v139h115v-139h136v-110z" />
    <glyph glyph-name="zero.tnum" 
d="M484 479v-312q0 -177 -221 -177t-221 177v312q0 177 221 177t221 -177zM186 459v-272q0 -39 15.5 -55t61.5 -16t61.5 16t15.5 55v272q0 39 -15.5 55t-61.5 16t-61.5 -16t-15.5 -55z" />
    <glyph glyph-name="one.tnum" 
d="M83 0v122h119v384l-113 -29l-29 122l156 47h130v-524h121v-122h-384z" />
    <glyph glyph-name="two.tnum" 
d="M369 250q-69 -83 -107 -124h205v-126h-404v123q98 101 145 154q80 92 92 110q17 28 17 76v18q0 26 -18 36.5t-61 10.5q-91 0 -165 -19l-19 121q101 26 191 26q115 0 165.5 -37.5t50.5 -119.5v-26q0 -75 -13.5 -109.5t-78.5 -113.5z" />
    <glyph glyph-name="three.tnum" 
d="M107 385h111q47 0 64.5 14t17.5 48v41q0 31 -16.5 41t-64.5 10q-60 0 -138 -14l-15 113q85 18 166 18q120 0 166 -35.5t46 -114.5v-47q0 -92 -67 -133q42 -19 60.5 -47.5t18.5 -75.5v-51q0 -80 -49.5 -121t-178.5 -41q-97 0 -164 22l15 111q71 -13 144 -13
q52 0 70.5 11.5t18.5 41.5v46q0 53 -73 53h-132v123z" />
    <glyph glyph-name="four.tnum" 
d="M505 137h-66v-137h-142v137h-264v125l201 384h205v-392h66v-117zM297 254v270l-135 -270h135z" />
    <glyph glyph-name="five.tnum" 
d="M316 203q0 34 -14.5 46t-61.5 14q-89 4 -159 5v378h365v-125h-221v-136q32 -1 90 -4q81 -5 113 -41t32 -101v-71q-1 -61 -18.5 -97.5t-67.5 -58.5t-139 -22q-97 0 -178 25l21 116q73 -16 156 -16q49 0 65.5 14t16.5 47v27z" />
    <glyph glyph-name="six.tnum" 
d="M267 -10q-120 0 -165.5 51.5t-45.5 141.5v244q0 128 78.5 178.5t228.5 50.5q48 0 98 -8l-11 -118q-38 5 -67 5q-100 0 -141.5 -23t-41.5 -84v-49q49 15 110 15q86 0 127.5 -40t41.5 -128v-43q0 -87 -46.5 -140t-165.5 -53zM267 114q38 0 53 14.5t15 47.5v44q0 50 -49 50
q-47 0 -86 -18v-76q0 -35 14 -48.5t53 -13.5z" />
    <glyph glyph-name="seven.tnum" 
d="M488 524l-245 -524h-148l243 519h-277v127h427v-122z" />
    <glyph glyph-name="eight.tnum" 
d="M45 211q0 38 18.5 65.5t65.5 52.5q-68 44 -68 112v56q0 79 46.5 119t154.5 40t154.5 -40t46.5 -119v-56q0 -37 -15 -62.5t-53 -49.5q47 -25 65.5 -52.5t18.5 -65.5v-51q0 -92 -49 -131t-168 -39t-168 39t-49 131v51zM184 162q0 -31 16.5 -42.5t61.5 -11.5q44 0 61 12.5
t17 41.5v33q0 27 -13 40t-67 34q-53 -20 -64.5 -33t-11.5 -41v-33zM200 443q0 -24 11 -35t53 -27q42 15 51 26t9 36v48q0 26 -13 37t-49 11t-49 -11t-13 -37v-48z" />
    <glyph glyph-name="nine.tnum" 
d="M258 656q120 0 165.5 -51.5t45.5 -141.5v-244q0 -128 -78.5 -178.5t-228.5 -50.5q-48 0 -98 8l8 119q42 -6 70 -6q100 0 141.5 23t41.5 84v49q-49 -15 -110 -15q-86 0 -127.5 40t-41.5 128v43q0 87 46.5 140t165.5 53zM258 532q-38 0 -53 -14.5t-15 -47.5v-44
q0 -50 49 -50q47 0 86 18v76q0 35 -14 48.5t-53 13.5z" />
    <glyph glyph-name="less.tnum" 
d="M421 -10l-373 217v74l373 216l45 -83l-304 -170l307 -171z" />
    <glyph glyph-name="equal.tnum" 
d="M440 300h-355v96h355v-96zM440 106h-355v96h355v-96z" />
    <glyph glyph-name="greater.tnum" 
d="M477 207l-373 -217l-48 83l307 171l-304 170l45 83l373 -216v-74z" />
    <glyph glyph-name="cent.tnum" 
d="M253 -10v92q-94 7 -136.5 54t-42.5 142v111q0 94 42.5 141t136.5 55v91h93v-91q51 -2 101 -13l-14 -120q-76 12 -136 12q-43 0 -61 -17.5t-18 -55.5v-115q0 -38 18 -55.5t61 -17.5q79 0 136 12l15 -120q-37 -10 -102 -14v-91h-93z" />
    <glyph glyph-name="sterling.tnum" 
d="M54 281v103h72q-17 70 -17 107q0 87 49 126t155 39q87 0 181 -24l-19 -113q-77 17 -161 17q-34 0 -47.5 -14t-13.5 -43q0 -39 16 -95h175l-7 -103h-156q1 -7 1 -20q0 -73 -62 -138h261v-123h-422v123q79 61 79 140q0 12 -1 18h-83z" />
    <glyph glyph-name="section.tnum" 
d="M274 25l-112 -25q-107 353 -107 557q0 57 37.5 88t108.5 31q87 0 184 -29l-17 -95q-97 23 -150 23q-43 0 -43 -40q0 -151 99 -510zM276 464l112 25q107 -353 107 -557q0 -57 -37.5 -88t-108.5 -31q-87 0 -184 29l17 95q97 -23 150 -23q43 0 43 40q0 151 -99 510z" />
    <glyph glyph-name="yen.tnum" 
d="M475 122h-138v-122h-150v122h-137v90h130l-29 81h-101v90h70l-93 263h146l89 -299l90 299h146l-94 -263h71v-90h-103l-28 -81h131v-90z" />
    <glyph glyph-name="florin.tnum" 
d="M23 -188l24 115q20 -4 40 -4q29 0 40 13t13 39l30 334h-79l10 118h79l10 118q7 78 48.5 117t130.5 39q59 0 120 -14l-23 -114q-40 8 -80 8q-32 0 -41 -12t-12 -40l-9 -102h131l-20 -118h-121l-31 -350q-14 -156 -179 -156q-38 0 -81 9z" />
    <glyph glyph-name="endash.tnum" 
d="M451 220h-378v120h378v-120z" />
    <glyph glyph-name="divide.tnum" 
d="M329 0h-134v136h134v-136zM454 198h-384v92h384v-92zM329 351h-134v136h134v-136z" />
    <glyph glyph-name="Euro.tnum" 
d="M113 356h-79v76h79v27q0 100 54 148.5t177 48.5q83 0 148 -17l-15 -125q-66 10 -121 10q-56 0 -74.5 -15t-18.5 -54v-23h175v-76h-175v-66h175v-76h-175v-23q0 -39 18.5 -54t74.5 -15q55 0 121 10l15 -125q-65 -17 -148 -17q-123 0 -177 48.5t-54 148.5v27h-79v76h79v66z
" />
    <glyph glyph-name="perthousand.tnum" horiz-adv-x="1285" 
d="M356 452q0 -69 -36 -107t-124 -38q-89 0 -125 38t-36 107v74q0 69 36 107t125 38q88 0 124 -38t36 -107v-74zM245 534q0 23 -10.5 32t-38.5 9t-39 -9t-11 -32v-90q0 -23 11 -32t39 -9t38.5 9t10.5 32v90zM267 26l268 650l88 -35l-268 -651zM852 140q0 -69 -36 -107
t-124 -38q-89 0 -125 38t-36 107v74q0 69 36 107t125 38q88 0 124 -38t36 -107v-74zM741 222q0 23 -10.5 32t-38.5 9t-39 -9t-11 -32v-90q0 -23 11 -32t39 -9t38.5 9t10.5 32v90zM1245 140q0 -69 -36 -107t-124 -38q-89 0 -125 38t-36 107v74q0 69 36 107t125 38
q88 0 124 -38t36 -107v-74zM1134 222q0 23 -10.5 32t-38.5 9t-39 -9t-11 -32v-90q0 -23 11 -32t39 -9t38.5 9t10.5 32v90z" />
    <glyph glyph-name="minusonum.tnum" 
d="M406 178h-288v120h288v-120z" />
    <glyph glyph-name="multiplyonum.tnum" 
d="M365 53l-103 103l-103 -103l-82 82l103 103l-103 103l82 82l103 -103l103 103l82 -82l-103 -103l103 -103z" />
    <glyph glyph-name="numbersignonum.tnum" 
d="M295 0l8 116h-110l-8 -116h-89l8 116h-75l6 85h75l8 113h-75l6 85h75l8 111h89l-8 -111h110l8 111h89l-8 -111h73l-6 -85h-73l-8 -113h72l-6 -85h-72l-8 -116h-89zM207 314l-8 -113h110l8 113h-110z" />
    <glyph glyph-name="dollaronum.tnum" 
d="M208 -105v97q-88 9 -144 34l24 106q75 -25 162 -25q39 0 52.5 9.5t13.5 33.5q0 27 -13.5 35t-85.5 21q-51 9 -80.5 21.5t-44 34t-18.5 44.5t-4 64q0 70 34 104.5t110 42.5v98h116v-98q64 -5 116 -19l-17 -113q-87 18 -156 18q-36 0 -47.5 -8t-11.5 -32q0 -25 14 -32.5
t80 -20.5q96 -18 124 -48t28 -108q0 -71 -30 -110t-106 -49v-100h-116z" />
    <glyph glyph-name="percentonum.tnum" horiz-adv-x="777" 
d="M317 -10l-87 40l224 490l87 -40zM176 231q-79 0 -110 33.5t-31 91.5v40q0 58 31 91t110 33q80 0 110.5 -33t30.5 -91v-40q0 -59 -30.5 -92t-110.5 -33zM215 406q0 28 -39 28t-39 -28v-61q0 -28 39 -28t39 28v61zM596 -10q-79 0 -110 33.5t-31 91.5v40q0 58 31 91t110 33
q80 0 110.5 -33t30.5 -91v-40q0 -59 -30.5 -92t-110.5 -33zM635 165q0 28 -39 28t-39 -28v-61q0 -28 39 -28t39 28v61z" />
    <glyph glyph-name="plusonum.tnum" 
d="M456 188h-136v-138h-115v138h-136v110h136v139h115v-139h136v-110z" />
    <glyph glyph-name="zeroonum.tnum" 
d="M483 343v-176q0 -177 -221 -177t-221 177v176q0 177 221 177t221 -177zM183 325v-140q0 -38 17.5 -54.5t61.5 -16.5t61.5 16.5t17.5 54.5v140q0 38 -17.5 54.5t-61.5 16.5t-61.5 -16.5t-17.5 -54.5z" />
    <glyph glyph-name="oneonum.tnum" horiz-adv-x="524" 
d="M76 0v122h126v248l-113 -29l-29 122l156 47h130v-388h121v-122h-391z" />
    <glyph glyph-name="twoonum.tnum" 
d="M362 183q-58 -53 -70 -63h173v-120h-404v98l146 123q67 56 80.5 77.5t13.5 56.5v2q0 21 -16 29t-51 8q-72 0 -150 -25l-29 115q93 36 186 36q113 0 157 -34.5t44 -109.5v-12q0 -43 -2.5 -63t-20.5 -51.5t-57 -66.5z" />
    <glyph glyph-name="threeonum.tnum" 
d="M98 249h87q66 0 89 16t23 59v28q0 30 -21 41.5t-70 11.5q-51 0 -129 -14l-15 111q86 18 167 18q115 0 163.5 -36.5t48.5 -113.5v-47q0 -95 -87 -133q44 -10 71.5 -41.5t27.5 -81.5v-51q0 -78 -52.5 -120t-175.5 -42q-96 0 -163 22l15 109q71 -13 133 -13q53 0 76 13
t23 42v35q0 39 -22 51.5t-81 12.5h-108v123z" />
    <glyph glyph-name="fouronum.tnum" 
d="M508 27h-84v-163h-140v163h-260v118l217 365h183v-373h84v-110zM284 137v229l-128 -229h128z" />
    <glyph glyph-name="fiveonum.tnum" 
d="M321 67q0 34 -14.5 46t-61.5 14q-94 4 -152 5v378h358v-125h-214v-136q12 0 83 -4q81 -4 113 -40.5t32 -101.5v-71q-1 -61 -18.5 -97.5t-67.5 -58.5t-139 -22q-90 0 -171 25l21 116q73 -16 149 -16q49 0 65.5 14t16.5 47v27z" />
    <glyph glyph-name="sixonum.tnum" 
d="M265 -10q-120 0 -165.5 51.5t-45.5 141.5v244q0 128 78.5 178.5t228.5 50.5q48 0 98 -8l-11 -119q-42 6 -67 6q-100 0 -141.5 -23t-41.5 -84v-49q49 15 110 15q86 0 127.5 -40t41.5 -128v-43q0 -87 -46.5 -140t-165.5 -53zM265 114q38 0 53 14.5t15 47.5v44q0 50 -49 50
q-47 0 -86 -18v-76q0 -35 14 -48.5t53 -13.5z" />
    <glyph glyph-name="sevenonum.tnum" 
d="M472 388l-265 -524l-122 52l237 467h-277v127h427v-122z" />
    <glyph glyph-name="eightonum.tnum" 
d="M46 211q0 38 18.5 65.5t65.5 52.5q-68 44 -68 112v56q0 79 46.5 119t154.5 40t154.5 -40t46.5 -119v-56q0 -37 -15 -62.5t-53 -49.5q47 -25 65.5 -52.5t18.5 -65.5v-51q0 -92 -49 -131t-168 -39t-168 39t-49 131v51zM185 162q0 -31 16.5 -42.5t61.5 -11.5q44 0 61 12.5
t17 41.5v33q0 27 -13 40t-67 34q-53 -20 -64.5 -33t-11.5 -41v-33zM201 443q0 -24 11 -35t53 -27q42 15 51 26t9 36v48q0 26 -13 37t-49 11t-49 -11t-13 -37v-48z" />
    <glyph glyph-name="nineonum.tnum" 
d="M260 520q120 0 165.5 -51.5t45.5 -141.5v-244q0 -128 -78.5 -178.5t-228.5 -50.5q-48 0 -98 8l8 119q42 -6 70 -6q100 0 141.5 23t41.5 84v49q-49 -15 -110 -15q-86 0 -127.5 40t-41.5 128v43q0 87 46.5 140t165.5 53zM260 396q-38 0 -53 -14.5t-15 -47.5v-44
q0 -50 49 -50q47 0 86 18v76q0 35 -14 48.5t-53 13.5z" />
    <glyph glyph-name="lessonum.tnum" 
d="M421 -10l-373 217v74l373 216l45 -83l-304 -170l307 -171z" />
    <glyph glyph-name="equalonum.tnum" 
d="M440 300h-355v96h355v-96zM440 106h-355v96h355v-96z" />
    <glyph glyph-name="greateronum.tnum" 
d="M478 207l-373 -217l-48 83l307 171l-304 170l45 83l373 -216v-74z" />
    <glyph glyph-name="centonum.tnum" 
d="M229 -75v110q-146 23 -146 164v122q0 141 146 164v110h116v-107q46 -3 97 -15l-16 -118q-62 13 -130 13q-37 0 -53 -14t-16 -45v-98q0 -31 16 -45t53 -14q68 0 130 13l16 -118q-49 -11 -97 -16v-106h-116z" />
    <glyph glyph-name="sterlingonum.tnum" 
d="M57 205v96h72q-20 58 -20 89q0 68 42.5 99t145.5 31q97 0 175 -29l-16 -102q-93 18 -160 18q-24 0 -33.5 -7.5t-9.5 -25.5q0 -23 20 -73h168l-6 -96h-143q-5 -59 -45 -93h221v-112h-395v106q24 15 46.5 43t27.5 56h-90z" />
    <glyph glyph-name="sectiononum.tnum" 
d="M263 28l-108 -38q-90 220 -90 402q0 65 37 96.5t119 31.5q79 0 174 -29l-17 -95q-97 23 -150 23q-24 0 -33.5 -9t-9.5 -31q0 -88 19 -166t59 -185zM290 295l108 38q90 -220 90 -402q0 -65 -37 -96.5t-119 -31.5q-79 0 -174 29l17 95q97 -23 150 -23q24 0 33.5 9t9.5 31
q0 88 -19 166t-59 185z" />
    <glyph glyph-name="yenonum.tnum" 
d="M413 312h68v-81h-106l-29 -61h136v-80h-146v-90h-148v90h-145v80h134l-29 61h-105v81h66l-91 198h147l97 -227l98 227h147z" />
    <glyph glyph-name="florinonum.tnum" 
d="M34 -182l19 111q22 -6 43 -6q23 0 32.5 9t11.5 34l17 188h-79l10 118h79l8 92q7 80 49.5 118t129.5 38q54 0 105 -19l-22 -112q-38 11 -66 11q-48 0 -52 -45l-8 -83h125l-14 -118h-121l-18 -208q-6 -68 -39.5 -105.5t-113.5 -37.5q-54 0 -96 15z" />
    <glyph glyph-name="endashonum.tnum" 
d="M451 220h-378v120h378v-120z" />
    <glyph glyph-name="divideonum.tnum" 
d="M329 0h-134v136h134v-136zM454 198h-384v92h384v-92zM329 351h-134v136h134v-136z" />
    <glyph glyph-name="Euroonum.tnum" 
d="M40 278v55h72v18q0 84 51 126.5t164 42.5q67 0 128 -16l-16 -115q-58 9 -114 9q-37 0 -53 -13t-16 -46v-6h141v-55h-141v-46h141v-55h-141v-6q0 -31 16 -45t53 -14q60 0 114 9l16 -116q-56 -15 -128 -15q-113 0 -164 42.5t-51 126.5v18h-72v55h72v46h-72z" />
    <glyph glyph-name="perthousandonum.tnum" horiz-adv-x="1107" 
d="M317 -10l-87 40l224 490l87 -40zM176 231q-79 0 -110 33.5t-31 91.5v40q0 58 31 91t110 33q80 0 110.5 -33t30.5 -91v-40q0 -59 -30.5 -92t-110.5 -33zM215 406q0 28 -39 28t-39 -28v-61q0 -28 39 -28t39 28v61zM596 -10q-79 0 -110 33.5t-31 91.5v40q0 58 31 91t110 33
q80 0 110.5 -33t30.5 -91v-40q0 -59 -30.5 -92t-110.5 -33zM635 165q0 28 -39 28t-39 -28v-61q0 -28 39 -28t39 28v61zM926 -10q-79 0 -110 33.5t-31 91.5v40q0 58 31 91t110 33q80 0 110.5 -33t30.5 -91v-40q0 -59 -30.5 -92t-110.5 -33zM965 165q0 28 -39 28t-39 -28v-61
q0 -28 39 -28t39 28v61z" />
    <glyph glyph-name="minussmcp.tnum" 
d="M406 178h-288v120h288v-120z" />
    <glyph glyph-name="multiplysmcp.tnum" 
d="M365 53l-103 103l-103 -103l-82 82l103 103l-103 103l82 82l103 -103l103 103l82 -82l-103 -103l103 -103z" />
    <glyph glyph-name="numbersignsmcp.tnum" 
d="M301 0l9 121h-110l-9 -121h-89l9 121h-75l6 85h75l8 113h-75l6 85h75l8 116h89l-8 -116h110l8 116h89l-8 -116h73l-6 -85h-73l-8 -113h72l-6 -85h-72l-9 -121h-89zM214 319l-8 -113h110l8 113h-110z" />
    <glyph glyph-name="dollarsmcp.tnum" 
d="M209 -105v97q-88 9 -144 34l24 106q75 -25 162 -25q39 0 52.5 10.5t13.5 34.5q0 28 -14 37t-85 22q-50 9 -80 22t-44.5 35.5t-18.5 45.5t-4 64q0 70 34 105t110 43v98h116v-98q64 -5 116 -19l-17 -114q-92 19 -156 19q-35 0 -47 -8.5t-12 -32.5q0 -25 15 -34t79 -22
q96 -18 124 -49.5t28 -109.5q0 -71 -30 -111t-106 -50v-100h-116z" />
    <glyph glyph-name="percentsmcp.tnum" horiz-adv-x="777" 
d="M315 -10l-87 40l230 500l87 -40zM176 236q-79 0 -110 33.5t-31 91.5v45q0 58 31 91t110 33q80 0 110.5 -33t30.5 -91v-45q0 -59 -30.5 -92t-110.5 -33zM215 416q0 28 -39 28t-39 -28v-66q0 -28 39 -28t39 28v66zM596 -10q-79 0 -110 33.5t-31 91.5v45q0 58 31 91t110 33
q80 0 110.5 -33t30.5 -91v-45q0 -59 -30.5 -92t-110.5 -33zM635 170q0 28 -39 28t-39 -28v-66q0 -28 39 -28t39 28v66z" />
    <glyph glyph-name="plussmcp.tnum" 
d="M456 188h-136v-138h-115v138h-136v110h136v139h115v-139h136v-110z" />
    <glyph glyph-name="zerosmcp.tnum" 
d="M484 169q0 -77 -52 -128t-169 -51t-169 51t-52 128v182q0 77 52 128t169 51t169 -51t52 -128v-182zM340 187v145q0 38 -17.5 55t-59.5 17t-59.5 -17t-17.5 -55v-145q0 -38 17.5 -54.5t59.5 -16.5t59.5 16.5t17.5 54.5z" />
    <glyph glyph-name="onesmcp.tnum" 
d="M77 0v122h142v258l-123 -29l-32 121l169 48h130v-398h124v-122h-410z" />
    <glyph glyph-name="twosmcp.tnum" 
d="M375 191q-64 -51 -92 -71h181v-120h-404v117l112 83q92 70 113 91t21 46v22q0 25 -18.5 34t-70.5 9q-69 0 -141 -19l-22 120q83 27 178 27q120 0 169 -36.5t49 -120.5v-18q0 -59 -15 -93.5t-60 -70.5z" />
    <glyph glyph-name="threesmcp.tnum" 
d="M110 318h109q47 0 62.5 8.5t15.5 32.5v18q0 24 -15.5 32.5t-65.5 8.5q-62 0 -129 -13l-12 108q73 17 151 17q118 0 165 -29t47 -104v-23q0 -78 -56 -108q74 -24 74 -107v-16q0 -78 -50 -115.5t-178 -37.5q-86 0 -161 24l13 104q73 -15 146 -15q48 0 68.5 8.5t20.5 31.5
v23q0 21 -16 30t-57 9h-132v113z" />
    <glyph glyph-name="foursmcp.tnum" 
d="M499 111h-67v-111h-134v111h-264v115l227 294h171v-302h67v-107zM298 218v182l-128 -182h128z" />
    <glyph glyph-name="fivesmcp.tnum" 
d="M320 165q0 24 -13 32t-52 10q-47 2 -94 3t-74 2v308h357v-119h-217v-81q55 -2 93 -5q83 -7 111.5 -38t28.5 -103v-26q-1 -87 -49.5 -122.5t-175.5 -35.5q-92 0 -173 27l20 110q78 -18 156 -18q48 0 65 7.5t17 31.5v17z" />
    <glyph glyph-name="sixsmcp.tnum" 
d="M265 -10q-109 0 -157 43t-48 113v202q0 101 76 141.5t211 40.5q47 0 103 -8l-10 -112q-35 7 -76 7q-80 0 -120 -16.5t-40 -56.5v-32q50 12 99 12q84 0 125.5 -32.5t41.5 -103.5v-42q0 -68 -48.5 -112t-156.5 -44zM265 106q62 0 62 42v32q0 29 -42 29q-39 0 -81 -11v-50
q0 -42 61 -42z" />
    <glyph glyph-name="sevensmcp.tnum" 
d="M482 405l-258 -405h-156l262 398h-275v122h427v-115z" />
    <glyph glyph-name="eightsmcp.tnum" 
d="M49 168q0 62 77 98q-63 36 -63 96v38q0 63 50 96.5t149 33.5q201 0 201 -130v-38q0 -62 -62 -96q76 -38 76 -98v-40q0 -138 -215 -138q-213 0 -213 138v40zM188 142q0 -42 74 -42q76 0 76 42v18q0 19 -13 27.5t-52 22.5q-7 3 -11 4q-31 -11 -42.5 -16t-21.5 -14.5
t-10 -23.5v-18zM202 360q0 -13 8.5 -22t17 -13t34.5 -15q26 10 34.5 14t18 13.5t9.5 22.5v24q0 37 -62 37q-60 0 -60 -37v-24z" />
    <glyph glyph-name="ninesmcp.tnum" 
d="M260 530q109 0 157 -43t48 -113v-202q0 -101 -76 -141.5t-211 -40.5q-47 0 -103 8l10 112q35 -7 76 -7q80 0 120 16.5t40 56.5v32q-50 -12 -99 -12q-84 0 -125.5 32.5t-41.5 103.5v42q0 68 48.5 112t156.5 44zM260 414q-62 0 -62 -42v-32q0 -29 42 -29q39 0 81 11v50
q0 42 -61 42z" />
    <glyph glyph-name="lesssmcp.tnum" 
d="M421 -10l-373 217v74l373 216l45 -83l-304 -170l307 -171z" />
    <glyph glyph-name="equalsmcp.tnum" 
d="M440 300h-355v96h355v-96zM440 106h-355v96h355v-96z" />
    <glyph glyph-name="greatersmcp.tnum" 
d="M477 207l-373 -217l-48 83l307 171l-304 170l45 83l373 -216v-74z" />
    <glyph glyph-name="centsmcp.tnum" 
d="M224 -105v121q-140 24 -140 163v162q0 138 140 163v121h119v-117q45 -3 100 -15l-16 -118q-62 13 -130 13q-37 0 -53 -14t-16 -45v-138q0 -31 16 -45t53 -14q68 0 130 13l16 -118q-42 -11 -100 -16v-116h-119z" />
    <glyph glyph-name="sterlingsmcp.tnum" 
d="M58 210v96h72q-20 58 -20 94q0 67 43.5 98.5t144.5 31.5q97 0 175 -29l-16 -102q-93 18 -160 18q-25 0 -34 -7.5t-9 -25.5q0 -28 20 -78h168l-6 -96h-143q-6 -65 -45 -98h221v-112h-395v106q23 15 46 45.5t28 58.5h-90z" />
    <glyph glyph-name="sectionsmcp.tnum" 
d="M260 38l-108 -38q-90 220 -90 402q0 65 37 96.5t119 31.5q79 0 174 -29l-17 -95q-97 23 -150 23q-24 0 -33.5 -9t-9.5 -31q0 -88 19 -166t59 -185zM287 295l108 38q90 -220 90 -402q0 -65 -37 -96.5t-119 -31.5q-79 0 -174 29l17 95q97 -23 150 -23q24 0 33.5 9t9.5 31
q0 88 -19 166t-59 185z" />
    <glyph glyph-name="yensmcp.tnum" 
d="M409 312h72v-81h-110l-25 -61h136v-80h-146v-90h-148v90h-145v80h134l-23 61h-111v81h72l-91 208h147l91 -237l92 237h147z" />
    <glyph glyph-name="florinsmcp.tnum" 
d="M34 -182l19 111q22 -6 43 -6q23 0 32.5 9t11.5 34l17 188h-79l10 118h79l9 102q7 80 49.5 118t129.5 38q54 0 105 -19l-22 -112q-38 11 -66 11q-48 0 -52 -45l-9 -93h125l-14 -118h-121l-18 -208q-6 -68 -39.5 -105.5t-113.5 -37.5q-54 0 -96 15z" />
    <glyph glyph-name="endashsmcp.tnum" 
d="M451 220h-378v120h378v-120z" />
    <glyph glyph-name="dividesmcp.tnum" 
d="M329 0h-134v136h134v-136zM454 198h-384v92h384v-92zM329 351h-134v136h134v-136z" />
    <glyph glyph-name="Eurosmcp.tnum" 
d="M57 288v55h72v18q0 84 51 126.5t164 42.5q67 0 128 -16l-16 -115q-58 9 -114 9q-37 0 -53 -13t-16 -46v-6h141v-55h-141v-56h141v-55h-141v-6q0 -31 16 -45t53 -14q60 0 114 9l16 -116q-56 -15 -128 -15q-113 0 -164 42.5t-51 126.5v18h-72v55h72v56h-72z" />
    <glyph glyph-name="perthousandsmcp.tnum" horiz-adv-x="1101" 
d="M315 -10l-87 40l230 500l87 -40zM176 236q-79 0 -110 33.5t-31 91.5v45q0 58 31 91t110 33q80 0 110.5 -33t30.5 -91v-45q0 -59 -30.5 -92t-110.5 -33zM215 416q0 28 -39 28t-39 -28v-66q0 -28 39 -28t39 28v66zM596 -10q-79 0 -110 33.5t-31 91.5v45q0 58 31 91t110 33
q80 0 110.5 -33t30.5 -91v-45q0 -59 -30.5 -92t-110.5 -33zM635 170q0 28 -39 28t-39 -28v-66q0 -28 39 -28t39 28v66zM920 -10q-79 0 -110 33.5t-31 91.5v45q0 58 31 91t110 33q80 0 110.5 -33t30.5 -91v-45q0 -59 -30.5 -92t-110.5 -33zM959 170q0 28 -39 28t-39 -28v-66
q0 -28 39 -28t39 28v66z" />
    <glyph glyph-name="minus.smcp" horiz-adv-x="368" 
d="M328 178h-288v120h288v-120z" />
    <glyph glyph-name="multiply.smcp" horiz-adv-x="480" 
d="M343 53l-103 103l-103 -103l-82 82l103 103l-103 103l82 82l103 -103l103 103l82 -82l-103 -103l103 -103z" />
    <glyph glyph-name="exclam.smcp" horiz-adv-x="300" 
d="M192 182h-84l-33 131v207h150v-207zM75 0v137h150v-137h-150z" />
    <glyph glyph-name="numbersign.smcp" horiz-adv-x="620" 
d="M355 0l8 117h-127l-8 -117h-93l8 117h-103l6 89h103l7 113h-102l6 89h102l8 112h93l-8 -112h127l8 112h93l-8 -112h105l-6 -89h-105l-7 -113h104l-6 -89h-104l-8 -117h-93zM249 319l-7 -113h127l7 113h-127z" />
    <glyph glyph-name="dollar.smcp" horiz-adv-x="496" 
d="M188 -105v98q-83 7 -138 33l24 106q87 -25 162 -25q40 0 53 10.5t13 34.5q0 31 -14 40t-85 19q-40 6 -67.5 17t-43 24.5t-24 35.5t-10.5 41.5t-2 50.5q0 70 34 104.5t110 42.5v98h113v-98q65 -5 119 -19l-17 -113q-87 18 -156 18q-36 0 -47.5 -8t-11.5 -32
q0 -29 13.5 -37.5t80.5 -20.5q54 -10 85.5 -22.5t45.5 -34t17.5 -41.5t3.5 -58q0 -75 -30 -114.5t-115 -50.5v-99h-113z" />
    <glyph glyph-name="percent.smcp" horiz-adv-x="777" 
d="M315 -10l-87 40l230 500l87 -40zM176 236q-79 0 -110 33.5t-31 91.5v45q0 58 31 91t110 33q80 0 110.5 -33t30.5 -91v-45q0 -59 -30.5 -92t-110.5 -33zM215 416q0 28 -39 28t-39 -28v-66q0 -28 39 -28t39 28v66zM596 -10q-79 0 -110 33.5t-31 91.5v45q0 58 31 91t110 33
q80 0 110.5 -33t30.5 -91v-45q0 -59 -30.5 -92t-110.5 -33zM635 170q0 28 -39 28t-39 -28v-66q0 -28 39 -28t39 28v66z" />
    <glyph glyph-name="ampersand.smcp" horiz-adv-x="597" 
d="M484 205v-182q-98 -33 -221 -33q-115 0 -159 33.5t-44 100.5v43q0 75 64 103q-55 31 -55 92v35q0 71 45 102t150 31q92 0 197 -21l-14 -113q-86 15 -183 15q-28 0 -38.5 -6t-10.5 -23v-31q0 -19 9 -27.5t31 -8.5h312v-110h-83zM354 205h-104q-25 0 -34.5 -9t-9.5 -31v-29
q0 -20 12.5 -29t43.5 -9q47 0 92 10v97z" />
    <glyph glyph-name="plus.smcp" horiz-adv-x="517" 
d="M462 188h-146v-148h-115v148h-146v110h146v149h115v-149h146v-110z" />
    <glyph glyph-name="zero.smcp" horiz-adv-x="542" 
d="M492 169q0 -77 -52 -128t-169 -51t-169 51t-52 128v182q0 77 52 128t169 51t169 -51t52 -128v-182zM348 187v145q0 38 -17.5 55t-59.5 17t-59.5 -17t-17.5 -55v-145q0 -38 17.5 -54.5t59.5 -16.5t59.5 16.5t17.5 54.5z" />
    <glyph glyph-name="one.smcp" horiz-adv-x="382" 
d="M317 0h-144v359l-111 -67l-62 113l183 115h134v-520z" />
    <glyph glyph-name="two.smcp" horiz-adv-x="510" 
d="M371 191q-64 -51 -92 -71h181v-120h-404v117l112 83q92 70 113 91t21 46v22q0 25 -18.5 34t-70.5 9q-69 0 -141 -19l-22 120q83 27 178 27q120 0 169 -36.5t49 -120.5v-18q0 -59 -15 -93.5t-60 -70.5z" />
    <glyph glyph-name="three.smcp" horiz-adv-x="484" 
d="M88 318h109q47 0 62.5 8.5t15.5 32.5v18q0 24 -15.5 32.5t-65.5 8.5q-62 0 -129 -13l-12 108q73 17 151 17q118 0 165 -29t47 -104v-23q0 -78 -56 -108q74 -24 74 -107v-16q0 -78 -50 -115.5t-178 -37.5q-86 0 -161 24l13 104q73 -15 146 -15q48 0 68.5 8.5t20.5 31.5v23
q0 21 -16 30t-57 9h-132v113z" />
    <glyph glyph-name="four.smcp" horiz-adv-x="541" 
d="M511 111h-83v-111h-134v111h-274v115l237 294h171v-302h83v-107zM294 218v175l-133 -175h133z" />
    <glyph glyph-name="five.smcp" horiz-adv-x="491" 
d="M301 165q0 24 -13 32t-52 10q-47 2 -94 3t-74 2v308h357v-119h-217v-81q55 -2 93 -5q83 -7 111.5 -38t28.5 -103v-26q-1 -87 -49.5 -122.5t-175.5 -35.5q-90 0 -171 27l20 110q78 -18 154 -18q48 0 65 7.5t17 31.5v17z" />
    <glyph glyph-name="six.smcp" horiz-adv-x="498" 
d="M250 -10q-109 0 -157 43t-48 113v193q0 96 58.5 143.5t188.5 47.5q86 0 143 -11l-10 -112q-61 10 -124 10q-68 0 -90 -17.5t-22 -64.5v-23q45 12 99 12q84 0 125.5 -32.5t41.5 -103.5v-42q0 -68 -48.5 -112t-156.5 -44zM250 106q62 0 62 42v32q0 29 -42 29q-39 0 -81 -11
v-50q0 -42 61 -42z" />
    <glyph glyph-name="seven.smcp" horiz-adv-x="455" 
d="M435 403l-214 -403h-154l218 396h-260v124h410v-117z" />
    <glyph glyph-name="eight.smcp" horiz-adv-x="520" 
d="M46 168q0 62 77 98q-63 36 -63 96v38q0 63 50 96.5t149 33.5q201 0 201 -130v-38q0 -62 -62 -96q76 -38 76 -98v-40q0 -138 -215 -138q-213 0 -213 138v40zM185 142q0 -42 74 -42q76 0 76 42v18q0 19 -13 27.5t-52 22.5q-7 3 -11 4q-31 -11 -42.5 -16t-21.5 -14.5
t-10 -23.5v-18zM199 360q0 -13 8.5 -22t17 -13t34.5 -15q26 10 34.5 14t18 13.5t9.5 22.5v24q0 37 -62 37q-60 0 -60 -37v-24z" />
    <glyph glyph-name="nine.smcp" horiz-adv-x="498" 
d="M248 530q109 0 157 -43t48 -113v-197q0 -97 -54 -142t-187 -45q-86 0 -155 16l10 110q80 -13 130 -13q70 0 91 17t21 65v23q-45 -12 -99 -12q-84 0 -125.5 32.5t-41.5 103.5v42q0 68 48.5 112t156.5 44zM248 414q-62 0 -62 -42v-32q0 -29 42 -29q39 0 81 11v50
q0 42 -61 42z" />
    <glyph glyph-name="less.smcp" horiz-adv-x="566" 
d="M473 -10l-443 217v74l443 216l43 -85l-352 -168l352 -168z" />
    <glyph glyph-name="equal.smcp" 
d="M470 300h-415v96h415v-96zM470 106h-415v96h415v-96z" />
    <glyph glyph-name="greater.smcp" horiz-adv-x="566" 
d="M536 207l-443 -217l-43 86l352 168l-352 168l43 85l443 -216v-74z" />
    <glyph glyph-name="question.smcp" horiz-adv-x="440" 
d="M221 166l-67 98q70 46 83.5 61t13.5 50q0 23 -13.5 30.5t-53.5 7.5q-53 0 -135 -14l-14 115q81 16 163 16q110 0 153.5 -33t43.5 -120q0 -28 -0.5 -40t-7.5 -30t-14 -26.5t-31 -29t-47.5 -36.5zM285 0h-150v139h150v-139z" />
    <glyph glyph-name="at.smcp" horiz-adv-x="615" 
d="M430 373l-30 -168q12 -7 26 -7q34 0 51.5 29t17.5 73q0 66 -45.5 109t-124.5 43q-91 0 -143 -52t-52 -141q0 -92 55 -140.5t159 -48.5q52 0 125 20l21 -72q-67 -28 -151 -28q-142 0 -220.5 75t-78.5 194q0 123 76.5 197t208.5 74q121 0 188 -67.5t67 -160.5
q0 -80 -37.5 -124.5t-107.5 -44.5q-26 0 -54 12t-42 31q-37 -22 -78 -22q-35 0 -53 25t-12 56q3 14 7.5 41.5t6.5 36.5q8 44 34 64t78 20q55 0 108 -24zM336 236l16 92q-15 4 -35 4q-31 0 -35 -26l-11 -64q-5 -23 17 -23q24 0 48 17z" />
    <glyph glyph-name="a.smcp" horiz-adv-x="543" 
d="M383 0l-22 78h-179l-22 -78h-145l165 520h182l166 -520h-145zM271 400l-56 -207h113z" />
    <glyph glyph-name="b.smcp" horiz-adv-x="543" 
d="M350 0h-280v520h270q82 0 114.5 -30.5t32.5 -89.5v-46q0 -58 -57 -82q78 -26 78 -98v-46q0 -61 -36 -94.5t-122 -33.5zM345 388q0 25 -30 25h-97v-102h95q32 0 32 27v50zM365 178q0 31 -33 31h-114v-102h110q37 0 37 32v39z" />
    <glyph glyph-name="c.smcp" horiz-adv-x="483" 
d="M272 -10q-217 0 -217 169v202q0 169 217 169q81 0 171 -18l-15 -122q-89 14 -156 14q-37 0 -53 -14t-16 -45v-170q0 -31 16 -45t53 -14q79 0 156 14l15 -122q-84 -18 -171 -18z" />
    <glyph glyph-name="d.smcp" horiz-adv-x="560" 
d="M309 0h-239v520h239q112 0 156.5 -48.5t44.5 -135.5v-152q0 -87 -44.5 -135.5t-156.5 -48.5zM365 338q0 57 -61 57h-86v-270h86q61 0 61 57v156z" />
    <glyph glyph-name="e.smcp" horiz-adv-x="501" 
d="M70 0v520h376v-118h-228v-79h210v-118h-210v-87h228v-118h-376z" />
    <glyph glyph-name="f.smcp" horiz-adv-x="484" 
d="M218 402v-102h214v-118h-214v-182h-148v520h379v-118h-231z" />
    <glyph glyph-name="g.smcp" horiz-adv-x="544" 
d="M273 -10q-218 0 -218 164v213q0 163 218 163q97 0 197 -18l-14 -124q-122 14 -183 14q-36 0 -53 -13t-17 -45v-167q0 -30 15.5 -45.5t54.5 -15.5q37 0 77 5v141h134v-244q-103 -28 -211 -28z" />
    <glyph glyph-name="h.smcp" horiz-adv-x="603" 
d="M385 0v197h-167v-197h-148v520h148v-195h167v195h148v-520h-148z" />
    <glyph glyph-name="i.smcp" horiz-adv-x="298" 
d="M75 0v520h148v-520h-148z" />
    <glyph glyph-name="j.smcp" horiz-adv-x="283" 
d="M82 -187l-92 96q53 53 66.5 72t13.5 37v502h148v-513q0 -42 -26 -79.5t-110 -114.5z" />
    <glyph glyph-name="k.smcp" horiz-adv-x="580" 
d="M393 0l-165 266l157 254h167l-162 -254l170 -266h-167zM70 0v520h148v-520h-148z" />
    <glyph glyph-name="l.smcp" horiz-adv-x="471" 
d="M70 0v520h148v-392h218v-128h-366z" />
    <glyph glyph-name="m.smcp" horiz-adv-x="718" 
d="M515 0l-10 255l-83 -191h-126l-83 190l-10 -254h-143l27 520h143l129 -304l129 304h143l27 -520h-143z" />
    <glyph glyph-name="n.smcp" horiz-adv-x="629" 
d="M383 0l-173 317v-317h-140v520h176l173 -318v318h140v-520h-176z" />
    <glyph glyph-name="o.smcp" horiz-adv-x="568" 
d="M284 -10q-115 0 -172 48t-57 121v202q0 73 57 121t172 48t172 -48t57 -121v-202q0 -73 -57 -121t-172 -48zM365 343q0 59 -81 59t-81 -59v-166q0 -59 81 -59t81 59v166z" />
    <glyph glyph-name="p.smcp" horiz-adv-x="534" 
d="M311 133h-93v-133h-148v520h248q105 0 148 -38.5t43 -116.5v-76q0 -78 -46.5 -117t-151.5 -39zM363 358q0 43 -51 43h-94v-150h94q51 0 51 45v62z" />
    <glyph glyph-name="q.smcp" horiz-adv-x="568" 
d="M302 -144l-63 137q-93 9 -138.5 54.5t-45.5 111.5v202q0 73 57 121t172 48t172 -48t57 -121v-202q0 -54 -31.5 -95.5t-95.5 -60.5l43 -94zM365 343q0 59 -81 59t-81 -59v-166q0 -59 81 -59t81 59v166z" />
    <glyph glyph-name="r.smcp" horiz-adv-x="576" 
d="M396 0l-92 139h-86v-139h-148v520h248q105 0 148 -38.5t43 -116.5v-70q0 -45 -14 -73t-48 -52l114 -170h-165zM365 358q0 43 -51 43h-96v-146h96q51 0 51 45v58z" />
    <glyph glyph-name="s.smcp" horiz-adv-x="494" 
d="M233 -10q-104 0 -188 36l24 110q87 -25 166 -25q40 0 53 9t13 32q0 26 -16 35.5t-84 20.5q-95 15 -122.5 52.5t-27.5 117.5q0 83 50 117.5t156 34.5q99 0 178 -22l-17 -117q-87 18 -160 18q-36 0 -47.5 -7t-11.5 -29q0 -27 14 -35.5t80 -20.5q55 -10 86 -21t46.5 -31.5
t19.5 -42t4 -63.5q0 -89 -45 -129t-171 -40z" />
    <glyph glyph-name="t.smcp" horiz-adv-x="484" 
d="M316 392v-392h-148v392h-151v128h450v-128h-151z" />
    <glyph glyph-name="u.smcp" horiz-adv-x="582" 
d="M291 -10q-122 0 -174 47t-52 117v366h148v-349q0 -53 78 -53t78 53v349h148v-366q0 -70 -52 -117t-174 -47z" />
    <glyph glyph-name="v.smcp" horiz-adv-x="552" 
d="M374 0h-196l-163 520h147l114 -402l114 402h147z" />
    <glyph glyph-name="w.smcp" horiz-adv-x="816" 
d="M665 0h-168l-89 346l-89 -346h-168l-141 520h141l86 -332l96 332h150l96 -332l86 332h141z" />
    <glyph glyph-name="x.smcp" horiz-adv-x="574" 
d="M390 0l-103 155l-102 -155h-160l176 263l-169 257h158l97 -152l97 152h159l-171 -257l177 -263h-159z" />
    <glyph glyph-name="y.smcp" horiz-adv-x="508" 
d="M328 148v-148h-148v148l-180 372h150l104 -234l104 234h150z" />
    <glyph glyph-name="z.smcp" horiz-adv-x="530" 
d="M60 0v104l238 303h-232v113h405v-105l-236 -302h240v-113h-415z" />
    <glyph glyph-name="cent.smcp" horiz-adv-x="449" 
d="M190 -105v121q-140 24 -140 163v162q0 138 140 163v121h119v-117q45 -3 100 -15l-16 -118q-62 13 -130 13q-37 0 -53 -14t-16 -45v-138q0 -31 16 -45t53 -14q68 0 130 13l16 -118q-42 -11 -100 -16v-116h-119z" />
    <glyph glyph-name="sterling.smcp" horiz-adv-x="531" 
d="M55 205v96h72q-20 58 -20 93q0 73 41 104.5t148 31.5q98 0 175 -25l-17 -106q-90 18 -160 18q-43 0 -43 -33q0 -36 20 -83h168l-6 -96h-143q-5 -59 -45 -93h241v-112h-415v106q24 15 46.5 43t27.5 56h-90z" />
    <glyph glyph-name="section.smcp" horiz-adv-x="519" 
d="M252 28l-108 -38q-94 230 -94 412q0 65 37 96.5t119 31.5q79 0 174 -29l-17 -95q-97 23 -150 23q-24 0 -33.5 -9t-9.5 -31q0 -87 20.5 -169.5t61.5 -191.5zM282 305l108 38q94 -230 94 -412q0 -65 -37 -96.5t-119 -31.5q-79 0 -174 29l17 95q97 -23 150 -23q24 0 33.5 9
t9.5 31q0 87 -20.5 169.5t-61.5 191.5z" />
    <glyph glyph-name="paragraph.smcp" horiz-adv-x="533" 
d="M40 295q0 96 64.5 160.5t160.5 64.5v-449q-96 0 -160.5 64t-64.5 160zM294 -207l-72 80q95 87 110.5 105t15.5 49v493h110v-515q0 -12 -1 -20.5l-2 -16.5t-5.5 -16t-7 -14.5t-12 -16.5l-15.5 -16.5t-21.5 -21l-26 -24l-33.5 -30.5z" />
    <glyph glyph-name="germandbls.smcp" horiz-adv-x="988" 
d="M233 -10q-104 0 -188 36l24 110q87 -25 166 -25q40 0 53 9t13 32q0 26 -16 35.5t-84 20.5q-95 15 -122.5 52.5t-27.5 117.5q0 83 50 117.5t156 34.5q99 0 178 -22l-17 -117q-87 18 -160 18q-36 0 -47.5 -7t-11.5 -29q0 -27 14 -35.5t80 -20.5q55 -10 86 -21t46.5 -31.5
t19.5 -42t4 -63.5q0 -89 -45 -129t-171 -40zM727 -10q-104 0 -188 36l24 110q87 -25 166 -25q40 0 53 9t13 32q0 26 -16 35.5t-84 20.5q-95 15 -122.5 52.5t-27.5 117.5q0 83 50 117.5t156 34.5q99 0 178 -22l-17 -117q-87 18 -160 18q-36 0 -47.5 -7t-11.5 -29
q0 -27 14 -35.5t80 -20.5q55 -10 86 -21t46.5 -31.5t19.5 -42t4 -63.5q0 -89 -45 -129t-171 -40z" />
    <glyph glyph-name="yen.smcp" horiz-adv-x="548" 
d="M426 312h73v-81h-111l-30 -61h141v-80h-151v-90h-148v90h-150v80h139l-30 61h-109v81h70l-100 208h150l104 -234l104 234h150z" />
    <glyph glyph-name="ae.smcp" horiz-adv-x="744" 
d="M380 0l-22 78h-178l-22 -78h-143l162 520h512v-118h-292l25 -79h249v-118h-213l29 -87h202v-118h-309zM269 400l-57 -207h114z" />
    <glyph glyph-name="oslash.smcp" horiz-adv-x="568" 
d="M284 -10q-71 0 -126 21l-46 -71l-44 28l44 69q-57 47 -57 123v200q0 74 57 122t172 48q74 0 127 -22l46 72l44 -28l-44 -71q56 -46 56 -121v-200q0 -74 -57 -122t-172 -48zM284 402q-81 0 -81 -59v-163l134 211q-19 11 -53 11zM365 336l-134 -208q21 -10 53 -10
q81 0 81 59v159z" />
    <glyph glyph-name="questiondown.smcp" horiz-adv-x="440" 
d="M219 354l67 -98q-70 -46 -83.5 -61t-13.5 -50q0 -23 13.5 -30.5t53.5 -7.5q53 0 135 14l14 -115q-81 -16 -163 -16q-110 0 -153.5 33t-43.5 120q0 28 0.5 40t7.5 30t14 26.5t31 29t47.5 36.5zM155 520h150v-139h-150v139z" />
    <glyph glyph-name="exclamdown.smcp" horiz-adv-x="300" 
d="M75 383v137h150v-137h-150zM75 0v207l33 131h84l33 -131v-207h-150z" />
    <glyph glyph-name="florin.smcp" horiz-adv-x="476" 
d="M5 -181l19 111q35 -7 53 -7q23 0 32.5 9t11.5 34l17 188h-79l10 118h79l9 102q7 80 49.5 118t129.5 38q64 0 115 -19l-22 -112q-38 11 -76 11q-48 0 -52 -45l-9 -93h125l-14 -118h-121l-18 -208q-6 -68 -39.5 -105.5t-113.5 -37.5q-61 0 -106 16z" />
    <glyph glyph-name="oe.smcp" horiz-adv-x="798" 
d="M284 0q-116 0 -172.5 47.5t-56.5 121.5v182q0 74 56.5 121.5t172.5 47.5h459v-118h-227v-79h209v-118h-209v-87h227v-118h-459zM368 392h-84q-81 0 -81 -59v-146q0 -59 81 -59h84v264z" />
    <glyph glyph-name="endash.smcp" horiz-adv-x="478" 
d="M428 220h-378v120h378v-120z" />
    <glyph glyph-name="divide.smcp" horiz-adv-x="524" 
d="M329 0h-134v136h134v-136zM469 198h-414v92h414v-92zM329 351h-134v136h134v-136z" />
    <glyph glyph-name="Euro.smcp" horiz-adv-x="482" 
d="M25 291v55h58v15q0 86 49.5 127.5t167.5 41.5q70 0 142 -17l-16 -113q-62 13 -130 13q-37 0 -53 -14t-16 -45v-8h113v-55h-113v-62h113v-55h-113v-8q0 -31 16 -45t53 -14q68 0 130 13l16 -113q-72 -17 -142 -17q-118 0 -167.5 41.5t-49.5 127.5v15h-58v55h58v62h-58z" />
    <glyph glyph-name="fi.smcp" horiz-adv-x="772" 
d="M554 0v520h148v-520h-148zM218 402v-102h214v-118h-214v-182h-148v520h379v-118h-231z" />
    <glyph glyph-name="fl.smcp" horiz-adv-x="955" 
d="M218 402v-102h214v-118h-214v-182h-148v520h379v-118h-231zM554 0v520h148v-392h218v-128h-366z" />
    <glyph glyph-name="perthousand.smcp" horiz-adv-x="1101" 
d="M315 -10l-87 40l230 500l87 -40zM176 236q-79 0 -110 33.5t-31 91.5v45q0 58 31 91t110 33q80 0 110.5 -33t30.5 -91v-45q0 -59 -30.5 -92t-110.5 -33zM215 416q0 28 -39 28t-39 -28v-66q0 -28 39 -28t39 28v66zM596 -10q-79 0 -110 33.5t-31 91.5v45q0 58 31 91t110 33
q80 0 110.5 -33t30.5 -91v-45q0 -59 -30.5 -92t-110.5 -33zM635 170q0 28 -39 28t-39 -28v-66q0 -28 39 -28t39 28v66zM920 -10q-79 0 -110 33.5t-31 91.5v45q0 58 31 91t110 33q80 0 110.5 -33t30.5 -91v-45q0 -59 -30.5 -92t-110.5 -33zM959 170q0 28 -39 28t-39 -28v-66
q0 -28 39 -28t39 28v66z" />
    <glyph glyph-name="dotlessi.smcp" horiz-adv-x="298" 
d="M75 0v520h148v-520h-148z" />
    <glyph glyph-name="acute.smcp" horiz-adv-x="295" 
d="M101 565l-51 78q72 45 136 92l54 -84z" />
    <glyph glyph-name="breve.smcp" horiz-adv-x="398" 
d="M286 721l67 -32q-7 -51 -47.5 -87t-106.5 -36t-106.5 36t-47.5 87l67 32q20 -73 87 -73t87 73z" />
    <glyph glyph-name="caron.smcp" horiz-adv-x="376" 
d="M277 721l39 -62q-61 -41 -128 -94q-67 53 -128 94l39 62q48 -21 89 -45q41 24 89 45z" />
    <glyph glyph-name="cedilla.smcp" horiz-adv-x="286" 
d="M241 -115q0 -82 -112 -82q-43 0 -84 16l14 55q34 -10 62 -10q47 0 47 22q0 16 -7 19t-28 3q-10 0 -42 -2l-20 17l21 97h63l-13 -67q54 7 76.5 -9.5t22.5 -58.5z" />
    <glyph glyph-name="circumflex.smcp" horiz-adv-x="346" 
d="M301 630l-39 -62q-48 21 -89 45q-41 -24 -89 -45l-39 62q61 41 128 94q67 -53 128 -94z" />
    <glyph glyph-name="commaaccent.smcp" horiz-adv-x="333" 
d="M231 -197l-67 -106l-54 33l42 81h-42v140h121v-148z" />
    <glyph glyph-name="dieresis.smcp" horiz-adv-x="416" 
d="M166 578h-111v112h111v-112zM361 578h-111v112h111v-112z" />
    <glyph glyph-name="dotaccent.smcp" horiz-adv-x="234" 
d="M189 588h-144v153h144v-153z" />
    <glyph glyph-name="grave.smcp" horiz-adv-x="295" 
d="M245 643l-51 -78l-139 86l54 84q64 -47 136 -92z" />
    <glyph glyph-name="hungarumlaut.smcp" horiz-adv-x="468" 
d="M109 565l-64 64q57 52 118 121l70 -71q-68 -70 -124 -114zM299 565l-64 64q57 52 118 121l70 -71q-68 -70 -124 -114z" />
    <glyph glyph-name="macron.smcp" horiz-adv-x="344" 
d="M299 583h-254v92h254v-92z" />
    <glyph glyph-name="ogonek.smcp" horiz-adv-x="264" 
d="M210 -121l9 -75q-27 -11 -66 -11q-49 0 -78.5 23.5t-29.5 68.5q0 65 98 115h76q-54 -44 -68 -64q-10 -17 -10 -31q0 -30 34 -30q19 0 35 4z" />
    <glyph glyph-name="ring.smcp" horiz-adv-x="280" 
d="M235 647q0 -40 -24.5 -65.5t-70.5 -25.5t-70.5 24.5t-24.5 66.5q0 40 25 65.5t70 25.5q46 0 70.5 -25.5t24.5 -65.5zM175 647q0 38 -35 38t-35 -38t35 -38t35 38z" />
    <glyph glyph-name="tilde.smcp" horiz-adv-x="417" 
d="M266 571q-37 0 -67 21q-30 22 -46 22q-5 0 -9.5 -1.5t-8.5 -5t-7 -5.5t-7.5 -8l-6 -8l-6.5 -9t-5 -8l-58 45q44 87 105 87q34 0 65 -21q35 -23 51 -23q29 0 38 41l68 -31q-27 -96 -106 -96z" />
    <glyph glyph-name="aacute.smcp" horiz-adv-x="543" 
d="M383 0l-22 78h-179l-22 -78h-145l165 520h182l166 -520h-145zM271 400l-56 -207h113zM274 565l-51 78q72 45 136 92l54 -84z" />
    <glyph glyph-name="aeacute.smcp" horiz-adv-x="744" 
d="M380 0l-22 78h-178l-22 -78h-143l162 520h512v-118h-292l25 -79h249v-118h-213l29 -87h202v-118h-309zM269 400l-57 -207h114zM325 565l-51 78q72 45 136 92l54 -84z" />
    <glyph glyph-name="abreve.smcp" horiz-adv-x="543" 
d="M383 0l-22 78h-179l-22 -78h-145l165 520h182l166 -520h-145zM271 400l-56 -207h113zM358 721l67 -32q-7 -51 -47.5 -87t-106.5 -36t-106.5 36t-47.5 87l67 32q20 -73 87 -73t87 73z" />
    <glyph glyph-name="acircumflex.smcp" horiz-adv-x="543" 
d="M383 0l-22 78h-179l-22 -78h-145l165 520h182l166 -520h-145zM271 400l-56 -207h113zM399 630l-39 -62q-48 21 -89 45q-41 -24 -89 -45l-39 62q61 41 128 94q67 -53 128 -94z" />
    <glyph glyph-name="adieresis.smcp" horiz-adv-x="543" 
d="M383 0l-22 78h-179l-22 -78h-145l165 520h182l166 -520h-145zM271 400l-56 -207h113zM229 578h-111v112h111v-112zM424 578h-111v112h111v-112z" />
    <glyph glyph-name="agrave.smcp" horiz-adv-x="543" 
d="M383 0l-22 78h-179l-22 -78h-145l165 520h182l166 -520h-145zM271 400l-56 -207h113zM327 643l-51 -78l-139 86l54 84q64 -47 136 -92z" />
    <glyph glyph-name="amacron.smcp" horiz-adv-x="543" 
d="M383 0l-22 78h-179l-22 -78h-145l165 520h182l166 -520h-145zM271 400l-56 -207h113zM398 583h-254v92h254v-92z" />
    <glyph glyph-name="aogonek.smcp" horiz-adv-x="543" 
d="M383 0l-22 78h-179l-22 -78h-145l165 520h182l166 -520h-27q-40 -30 -59 -50.5t-19 -44.5q0 -30 34 -30q19 0 35 4l9 -75q-27 -11 -66 -11q-49 0 -78.5 23.5t-29.5 68.5q0 33 31 64t88 51h-63zM271 400l-56 -207h113z" />
    <glyph glyph-name="atilde.smcp" horiz-adv-x="543" 
d="M383 0l-22 78h-179l-22 -78h-145l165 520h182l166 -520h-145zM271 400l-56 -207h113zM330 571q-37 0 -67 21q-30 22 -46 22q-5 0 -9.5 -1.5t-8.5 -5t-7 -5.5t-7.5 -8l-6 -8t-6 -9t-5.5 -8l-58 45q44 87 105 87q34 0 65 -21q35 -23 51 -23q29 0 38 41l68 -31
q-27 -96 -106 -96z" />
    <glyph glyph-name="aring.smcp" horiz-adv-x="543" 
d="M383 0l-22 78h-179l-22 -78h-145l165 520h182l166 -520h-145zM271 400l-56 -207h113zM366 647q0 -40 -24.5 -65.5t-70.5 -25.5t-70.5 24.5t-24.5 66.5q0 40 25 65.5t70 25.5q46 0 70.5 -25.5t24.5 -65.5zM306 647q0 38 -35 38t-35 -38t35 -38t35 38z" />
    <glyph glyph-name="aringacute.smcp" horiz-adv-x="543" 
d="M366 631q0 -40 -24.5 -65.5t-70.5 -25.5t-70.5 24.5t-24.5 66.5q0 40 25 65.5t70 25.5q46 0 70.5 -25.5t24.5 -65.5zM306 631q0 38 -35 38t-35 -38t35 -38t35 38zM383 0l-22 78h-179l-22 -78h-145l165 520h182l166 -520h-145zM271 400l-56 -207h113zM271 739l-51 78
q62 39 108 72l54 -84q-46 -29 -111 -66z" />
    <glyph glyph-name="cacute.smcp" horiz-adv-x="483" 
d="M272 -10q-217 0 -217 169v202q0 169 217 169q81 0 171 -18l-15 -122q-89 14 -156 14q-37 0 -53 -14t-16 -45v-170q0 -31 16 -45t53 -14q79 0 156 14l15 -122q-84 -18 -171 -18zM244 565l-51 78q72 45 136 92l54 -84z" />
    <glyph glyph-name="ccaron.smcp" horiz-adv-x="483" 
d="M272 -10q-217 0 -217 169v202q0 169 217 169q81 0 171 -18l-15 -122q-89 14 -156 14q-37 0 -53 -14t-16 -45v-170q0 -31 16 -45t53 -14q79 0 156 14l15 -122q-84 -18 -171 -18zM360 721l39 -62q-61 -41 -128 -94q-67 53 -128 94l39 62q48 -21 89 -45q41 24 89 45z" />
    <glyph glyph-name="ccedilla.smcp" horiz-adv-x="483" 
d="M383 -115q0 -82 -112 -82q-43 0 -84 16l14 55q34 -10 62 -10q47 0 47 22q0 16 -7 19t-28 3q-10 0 -42 -2l-20 17l15 69q-173 15 -173 167v202q0 169 217 169q81 0 171 -18l-15 -122q-89 14 -156 14q-37 0 -53 -14t-16 -45v-170q0 -31 16 -45t53 -14q79 0 156 14l15 -122
q-83 -17 -152 -18l-7 -37q54 7 76.5 -9.5t22.5 -58.5z" />
    <glyph glyph-name="ccircumflex.smcp" horiz-adv-x="483" 
d="M272 -10q-217 0 -217 169v202q0 169 217 169q81 0 171 -18l-15 -122q-89 14 -156 14q-37 0 -53 -14t-16 -45v-170q0 -31 16 -45t53 -14q79 0 156 14l15 -122q-84 -18 -171 -18zM395 630l-39 -62q-48 21 -89 45q-41 -24 -89 -45l-39 62q61 41 128 94q67 -53 128 -94z" />
    <glyph glyph-name="cdotaccent.smcp" horiz-adv-x="483" 
d="M272 -10q-217 0 -217 169v202q0 169 217 169q81 0 171 -18l-15 -122q-89 14 -156 14q-37 0 -53 -14t-16 -45v-170q0 -31 16 -45t53 -14q79 0 156 14l15 -122q-84 -18 -171 -18zM344 588h-144v153h144v-153z" />
    <glyph glyph-name="dcaron.smcp" horiz-adv-x="560" 
d="M309 0h-239v520h239q112 0 156.5 -48.5t44.5 -135.5v-152q0 -87 -44.5 -135.5t-156.5 -48.5zM365 338q0 57 -61 57h-86v-270h86q61 0 61 57v156zM371 721l39 -62q-61 -41 -128 -94q-67 53 -128 94l39 62q48 -21 89 -45q41 24 89 45z" />
    <glyph glyph-name="dcroat.smcp" horiz-adv-x="566" 
d="M30 211v99h46v210h239q112 0 156.5 -48.5t44.5 -135.5v-152q0 -87 -44.5 -135.5t-156.5 -48.5h-239v211h-46zM371 338q0 57 -61 57h-86v-85h72v-99h-72v-86h86q61 0 61 57v156z" />
    <glyph glyph-name="eacute.smcp" horiz-adv-x="501" 
d="M70 0v520h376v-118h-228v-79h210v-118h-210v-87h228v-118h-376zM237 565l-51 78q72 45 136 92l54 -84z" />
    <glyph glyph-name="ebreve.smcp" horiz-adv-x="501" 
d="M70 0v520h376v-118h-228v-79h210v-118h-210v-87h228v-118h-376zM351 721l67 -32q-7 -51 -47.5 -87t-106.5 -36t-106.5 36t-47.5 87l67 32q20 -73 87 -73t87 73z" />
    <glyph glyph-name="ecaron.smcp" horiz-adv-x="501" 
d="M70 0v520h376v-118h-228v-79h210v-118h-210v-87h228v-118h-376zM359 721l39 -62q-61 -41 -128 -94q-67 53 -128 94l39 62q48 -21 89 -45q41 24 89 45z" />
    <glyph glyph-name="ecircumflex.smcp" horiz-adv-x="501" 
d="M70 0v520h376v-118h-228v-79h210v-118h-210v-87h228v-118h-376zM391 630l-39 -62q-48 21 -89 45q-41 -24 -89 -45l-39 62q61 41 128 94q67 -53 128 -94z" />
    <glyph glyph-name="edieresis.smcp" horiz-adv-x="501" 
d="M70 0v520h376v-118h-228v-79h210v-118h-210v-87h228v-118h-376zM219 578h-111v112h111v-112zM414 578h-111v112h111v-112z" />
    <glyph glyph-name="edotaccent.smcp" horiz-adv-x="501" 
d="M70 0v520h376v-118h-228v-79h210v-118h-210v-87h228v-118h-376zM338 588h-144v153h144v-153z" />
    <glyph glyph-name="egrave.smcp" horiz-adv-x="501" 
d="M70 0v520h376v-118h-228v-79h210v-118h-210v-87h228v-118h-376zM334 643l-51 -78l-139 86l54 84q64 -47 136 -92z" />
    <glyph glyph-name="emacron.smcp" horiz-adv-x="501" 
d="M70 0v520h376v-118h-228v-79h210v-118h-210v-87h228v-118h-376zM392 583h-254v92h254v-92z" />
    <glyph glyph-name="eng.smcp" horiz-adv-x="629" 
d="M383 0l-173 317v-317h-140v520h176l173 -318v318h140v-533q0 -59 -34.5 -94.5t-147.5 -99.5l-60 92q66 40 84.5 58.5t18.5 42.5v14h-37z" />
    <glyph glyph-name="eogonek.smcp" horiz-adv-x="501" 
d="M70 0v520h376v-118h-228v-79h210v-118h-210v-87h228v-118h-28q-1 -1 -10.5 -9t-12.5 -10t-11.5 -9.5t-11.5 -10.5l-9.5 -10t-9.5 -11.5t-6.5 -11t-5 -12t-1.5 -11.5q0 -30 34 -30q19 0 35 4l9 -75q-27 -11 -66 -11q-49 0 -78.5 23.5t-29.5 68.5q0 65 98 115h-272z" />
    <glyph glyph-name="eth.smcp" horiz-adv-x="566" 
d="M30 211v99h46v210h239q112 0 156.5 -48.5t44.5 -135.5v-152q0 -87 -44.5 -135.5t-156.5 -48.5h-239v211h-46zM371 338q0 57 -61 57h-86v-85h72v-99h-72v-86h86q61 0 61 57v156z" />
    <glyph glyph-name="gbreve.smcp" horiz-adv-x="544" 
d="M273 -10q-218 0 -218 164v213q0 163 218 163q97 0 197 -18l-14 -124q-122 14 -183 14q-36 0 -53 -13t-17 -45v-167q0 -30 15.5 -45.5t54.5 -15.5q37 0 77 5v141h134v-244q-103 -28 -211 -28zM374 721l67 -32q-7 -51 -47.5 -87t-106.5 -36t-106.5 36t-47.5 87l67 32
q20 -73 87 -73t87 73z" />
    <glyph glyph-name="gcircumflex.smcp" horiz-adv-x="544" 
d="M273 -10q-218 0 -218 164v213q0 163 218 163q97 0 197 -18l-14 -124q-122 14 -183 14q-36 0 -53 -13t-17 -45v-167q0 -30 15.5 -45.5t54.5 -15.5q37 0 77 5v141h134v-244q-103 -28 -211 -28zM417 630l-39 -62q-48 21 -89 45q-41 -24 -89 -45l-39 62q61 41 128 94
q67 -53 128 -94z" />
    <glyph glyph-name="gcommaaccent.smcp" horiz-adv-x="544" 
d="M273 -10q-218 0 -218 164v213q0 163 218 163q97 0 197 -18l-14 -124q-122 14 -183 14q-36 0 -53 -13t-17 -45v-167q0 -30 15.5 -45.5t54.5 -15.5q37 0 77 5v141h134v-244q-103 -28 -211 -28zM353 -197l-67 -106l-54 33l42 81h-42v140h121v-148z" />
    <glyph glyph-name="gdotaccent.smcp" horiz-adv-x="544" 
d="M273 -10q-218 0 -218 164v213q0 163 218 163q97 0 197 -18l-14 -124q-122 14 -183 14q-36 0 -53 -13t-17 -45v-167q0 -30 15.5 -45.5t54.5 -15.5q37 0 77 5v141h134v-244q-103 -28 -211 -28zM364 588h-144v153h144v-153z" />
    <glyph glyph-name="hbar.smcp" horiz-adv-x="613" 
d="M24 387v63h51v70h148v-70h167v70h148v-70h51v-63h-51v-387h-148v197h-167v-197h-148v387h-51zM223 325h167v62h-167v-62z" />
    <glyph glyph-name="hcircumflex.smcp" horiz-adv-x="603" 
d="M385 0v197h-167v-197h-148v520h148v-195h167v195h148v-520h-148zM429 630l-39 -62q-48 21 -89 45q-41 -24 -89 -45l-39 62q61 41 128 94q67 -53 128 -94z" />
    <glyph glyph-name="iacute.smcp" horiz-adv-x="298" 
d="M75 0v520h148v-520h-148zM144 565l-51 78q72 45 136 92l54 -84z" />
    <glyph glyph-name="ibreve.smcp" horiz-adv-x="298" 
d="M236 721l67 -32q-7 -51 -47.5 -87t-106.5 -36t-106.5 36t-47.5 87l67 32q20 -73 87 -73t87 73zM75 0v520h148v-520h-148z" />
    <glyph glyph-name="icircumflex.smcp" horiz-adv-x="298" 
d="M75 0v520h148v-520h-148zM277 630l-39 -62q-48 21 -89 45q-41 -24 -89 -45l-39 62q61 41 128 94q67 -53 128 -94z" />
    <glyph glyph-name="idieresis.smcp" horiz-adv-x="298" 
d="M75 0v520h148v-520h-148zM107 578h-111v112h111v-112zM302 578h-111v112h111v-112z" />
    <glyph glyph-name="igrave.smcp" horiz-adv-x="298" 
d="M75 0v520h148v-520h-148zM213 643l-51 -78l-139 86l54 84q64 -47 136 -92z" />
    <glyph glyph-name="imacron.smcp" horiz-adv-x="298" 
d="M276 583h-254v92h254v-92zM75 0v520h148v-520h-148z" />
    <glyph glyph-name="iogonek.smcp" horiz-adv-x="298" 
d="M198 -122l8 -74q-32 -11 -73 -11q-50 0 -80.5 24t-30.5 68q0 58 53 115v520h148v-520h-77q-34 -60 -34 -97q0 -31 33 -31q29 0 53 6z" />
    <glyph glyph-name="itilde.smcp" horiz-adv-x="298" 
d="M210 571q-37 0 -67 21q-30 22 -46 22q-5 0 -9.5 -1.5t-8.5 -5t-7 -5.5t-7.5 -8l-6 -8l-6.5 -9t-5 -8l-58 45q44 87 105 87q34 0 65 -21q35 -23 51 -23q29 0 38 41l68 -31q-27 -96 -106 -96zM75 0v520h148v-520h-148z" />
    <glyph glyph-name="ij.smcp" horiz-adv-x="581" 
d="M75 0v520h148v-520h-148zM380 -187l-92 96q53 53 66.5 72t13.5 37v502h148v-513q0 -42 -26 -79.5t-110 -114.5z" />
    <glyph glyph-name="jcircumflex.smcp" horiz-adv-x="283" 
d="M82 -187l-92 96q53 53 66.5 72t13.5 37v502h148v-513q0 -42 -26 -79.5t-110 -114.5zM271 630l-39 -62q-48 21 -89 45q-41 -24 -89 -45l-39 62q61 41 128 94q67 -53 128 -94z" />
    <glyph glyph-name="kcommaaccent.smcp" horiz-adv-x="580" 
d="M393 0l-165 266l157 254h167l-162 -254l170 -266h-167zM70 0v520h148v-520h-148zM364 -197l-67 -106l-54 33l42 81h-42v140h121v-148z" />
    <glyph glyph-name="lacute.smcp" horiz-adv-x="471" 
d="M70 0v520h148v-392h218v-128h-366zM145 565l-51 78q72 45 136 92l54 -84z" />
    <glyph glyph-name="lcaron.smcp" horiz-adv-x="471" 
d="M70 0v520h148v-392h218v-128h-366zM421 411l-63 -95l-40 28l41 74h-48v102h110v-109z" />
    <glyph glyph-name="lcommaaccent.smcp" horiz-adv-x="471" 
d="M70 0v520h148v-392h218v-128h-366zM322 -197l-67 -106l-54 33l42 81h-42v140h121v-148z" />
    <glyph glyph-name="ldot.smcp" horiz-adv-x="471" 
d="M411 215h-134v143h134v-143zM70 0v520h148v-392h218v-128h-366z" />
    <glyph glyph-name="lslash.smcp" horiz-adv-x="491" 
d="M91 0v182l-57 -23l-34 86l91 36v239h148v-178l124 51l33 -88l-157 -63v-114h217v-128h-365z" />
    <glyph glyph-name="nacute.smcp" horiz-adv-x="629" 
d="M383 0l-173 317v-317h-140v520h176l173 -318v318h140v-520h-176zM301 565l-51 78q72 45 136 92l54 -84z" />
    <glyph glyph-name="ncaron.smcp" horiz-adv-x="629" 
d="M383 0l-173 317v-317h-140v520h176l173 -318v318h140v-520h-176zM412 721l39 -62q-61 -41 -128 -94q-67 53 -128 94l39 62q48 -21 89 -45q41 24 89 45z" />
    <glyph glyph-name="ncommaaccent.smcp" horiz-adv-x="629" 
d="M383 0l-173 317v-317h-140v520h176l173 -318v318h140v-520h-176zM372 -197l-67 -106l-54 33l42 81h-42v140h121v-148z" />
    <glyph glyph-name="ntilde.smcp" horiz-adv-x="629" 
d="M383 0l-173 317v-317h-140v520h176l173 -318v318h140v-520h-176zM378 571q-37 0 -67 21q-30 22 -46 22q-5 0 -9.5 -1.5t-8.5 -5t-7 -5.5t-7.5 -8l-6 -8l-6.5 -9t-5 -8l-58 45q44 87 105 87q34 0 65 -21q35 -23 51 -23q29 0 38 41l68 -31q-27 -96 -106 -96z" />
    <glyph glyph-name="oacute.smcp" horiz-adv-x="568" 
d="M284 -10q-115 0 -172 48t-57 121v202q0 73 57 121t172 48t172 -48t57 -121v-202q0 -73 -57 -121t-172 -48zM365 343q0 59 -81 59t-81 -59v-166q0 -59 81 -59t81 59v166zM275 565l-51 78q72 45 136 92l54 -84z" />
    <glyph glyph-name="obreve.smcp" horiz-adv-x="568" 
d="M284 -10q-115 0 -172 48t-57 121v202q0 73 57 121t172 48t172 -48t57 -121v-202q0 -73 -57 -121t-172 -48zM365 343q0 59 -81 59t-81 -59v-166q0 -59 81 -59t81 59v166zM370 721l67 -32q-7 -51 -47.5 -87t-106.5 -36t-106.5 36t-47.5 87l67 32q20 -73 87 -73t87 73z" />
    <glyph glyph-name="ocircumflex.smcp" horiz-adv-x="568" 
d="M284 -10q-115 0 -172 48t-57 121v202q0 73 57 121t172 48t172 -48t57 -121v-202q0 -73 -57 -121t-172 -48zM365 343q0 59 -81 59t-81 -59v-166q0 -59 81 -59t81 59v166zM412 630l-39 -62q-48 21 -89 45q-41 -24 -89 -45l-39 62q61 41 128 94q67 -53 128 -94z" />
    <glyph glyph-name="odieresis.smcp" horiz-adv-x="568" 
d="M284 -10q-115 0 -172 48t-57 121v202q0 73 57 121t172 48t172 -48t57 -121v-202q0 -73 -57 -121t-172 -48zM365 343q0 59 -81 59t-81 -59v-166q0 -59 81 -59t81 59v166zM242 578h-111v112h111v-112zM437 578h-111v112h111v-112z" />
    <glyph glyph-name="ograve.smcp" horiz-adv-x="568" 
d="M284 -10q-115 0 -172 48t-57 121v202q0 73 57 121t172 48t172 -48t57 -121v-202q0 -73 -57 -121t-172 -48zM365 343q0 59 -81 59t-81 -59v-166q0 -59 81 -59t81 59v166zM341 643l-51 -78l-139 86l54 84q64 -47 136 -92z" />
    <glyph glyph-name="ohungarumlaut.smcp" horiz-adv-x="568" 
d="M284 -10q-115 0 -172 48t-57 121v202q0 73 57 121t172 48t172 -48t57 -121v-202q0 -73 -57 -121t-172 -48zM365 343q0 59 -81 59t-81 -59v-166q0 -59 81 -59t81 59v166zM203 565l-64 64q57 52 118 121l70 -71q-68 -70 -124 -114zM393 565l-64 64q57 52 118 121l70 -71
q-68 -70 -124 -114z" />
    <glyph glyph-name="omacron.smcp" horiz-adv-x="568" 
d="M284 -10q-115 0 -172 48t-57 121v202q0 73 57 121t172 48t172 -48t57 -121v-202q0 -73 -57 -121t-172 -48zM365 343q0 59 -81 59t-81 -59v-166q0 -59 81 -59t81 59v166zM411 583h-254v92h254v-92z" />
    <glyph glyph-name="oslashacute.smcp" horiz-adv-x="568" 
d="M284 -10q-71 0 -126 21l-46 -71l-44 28l44 69q-57 47 -57 123v200q0 74 57 122t172 48q74 0 127 -22l46 72l44 -28l-44 -71q56 -46 56 -121v-200q0 -74 -57 -122t-172 -48zM284 402q-81 0 -81 -59v-163l134 211q-19 11 -53 11zM365 336l-134 -208q21 -10 53 -10
q81 0 81 59v159zM269 565l-51 78q72 45 136 92l54 -84z" />
    <glyph glyph-name="otilde.smcp" horiz-adv-x="568" 
d="M284 -10q-115 0 -172 48t-57 121v202q0 73 57 121t172 48t172 -48t57 -121v-202q0 -73 -57 -121t-172 -48zM365 343q0 59 -81 59t-81 -59v-166q0 -59 81 -59t81 59v166zM344 571q-37 0 -67 21q-30 22 -46 22q-5 0 -9.5 -1.5t-8.5 -5t-7 -5.5t-7.5 -8l-6 -8l-6.5 -9t-5 -8
l-58 45q44 87 105 87q34 0 65 -21q35 -23 51 -23q29 0 38 41l68 -31q-27 -96 -106 -96z" />
    <glyph glyph-name="racute.smcp" horiz-adv-x="576" 
d="M396 0l-92 139h-86v-139h-148v520h248q105 0 148 -38.5t43 -116.5v-70q0 -45 -14 -73t-48 -52l114 -170h-165zM365 358q0 43 -51 43h-96v-146h96q51 0 51 45v58zM269 565l-51 78q72 45 136 92l54 -84z" />
    <glyph glyph-name="rcaron.smcp" horiz-adv-x="576" 
d="M396 0l-92 139h-86v-139h-148v520h248q105 0 148 -38.5t43 -116.5v-70q0 -45 -14 -73t-48 -52l114 -170h-165zM365 358q0 43 -51 43h-96v-146h96q51 0 51 45v58zM371 721l39 -62q-61 -41 -128 -94q-67 53 -128 94l39 62q48 -21 89 -45q41 24 89 45z" />
    <glyph glyph-name="rcommaaccent.smcp" horiz-adv-x="576" 
d="M396 0l-92 139h-86v-139h-148v520h248q105 0 148 -38.5t43 -116.5v-70q0 -45 -14 -73t-48 -52l114 -170h-165zM365 358q0 43 -51 43h-96v-146h96q51 0 51 45v58zM365 -197l-67 -106l-54 33l42 81h-42v140h121v-148z" />
    <glyph glyph-name="sacute.smcp" horiz-adv-x="494" 
d="M233 -10q-104 0 -188 36l24 110q87 -25 166 -25q40 0 53 9t13 32q0 26 -16 35.5t-84 20.5q-95 15 -122.5 52.5t-27.5 117.5q0 83 50 117.5t156 34.5q99 0 178 -22l-17 -117q-87 18 -160 18q-36 0 -47.5 -7t-11.5 -29q0 -27 14 -35.5t80 -20.5q55 -10 86 -21t46.5 -31.5
t19.5 -42t4 -63.5q0 -89 -45 -129t-171 -40zM230 565l-51 78q72 45 136 92l54 -84z" />
    <glyph glyph-name="scaron.smcp" horiz-adv-x="494" 
d="M233 -10q-104 0 -188 36l24 110q87 -25 166 -25q40 0 53 9t13 32q0 26 -16 35.5t-84 20.5q-95 15 -122.5 52.5t-27.5 117.5q0 83 50 117.5t156 34.5q99 0 178 -22l-17 -117q-87 18 -160 18q-36 0 -47.5 -7t-11.5 -29q0 -27 14 -35.5t80 -20.5q55 -10 86 -21t46.5 -31.5
t19.5 -42t4 -63.5q0 -89 -45 -129t-171 -40zM345 721l39 -62q-61 -41 -128 -94q-67 53 -128 94l39 62q48 -21 89 -45q41 24 89 45z" />
    <glyph glyph-name="scedilla.smcp" horiz-adv-x="494" 
d="M358 -115q0 -82 -112 -82q-43 0 -84 16l14 55q34 -10 62 -10q47 0 47 22q0 16 -7 19t-28 3q-10 0 -42 -2l-20 17l14 68q-91 7 -157 35l24 110q87 -25 166 -25q40 0 53 9t13 32q0 26 -16 35.5t-84 20.5q-95 15 -122.5 52.5t-27.5 117.5q0 83 50 117.5t156 34.5
q99 0 178 -22l-17 -117q-87 18 -160 18q-36 0 -47.5 -7t-11.5 -29q0 -27 14 -35.5t80 -20.5q55 -10 86 -21t46.5 -31.5t19.5 -42t4 -63.5q0 -84 -38.5 -123.5t-144.5 -44.5l-7 -38q54 7 76.5 -9.5t22.5 -58.5z" />
    <glyph glyph-name="scircumflex.smcp" horiz-adv-x="494" 
d="M233 -10q-104 0 -188 36l24 110q87 -25 166 -25q40 0 53 9t13 32q0 26 -16 35.5t-84 20.5q-95 15 -122.5 52.5t-27.5 117.5q0 83 50 117.5t156 34.5q99 0 178 -22l-17 -117q-87 18 -160 18q-36 0 -47.5 -7t-11.5 -29q0 -27 14 -35.5t80 -20.5q55 -10 86 -21t46.5 -31.5
t19.5 -42t4 -63.5q0 -89 -45 -129t-171 -40zM384 630l-39 -62q-48 21 -89 45q-41 -24 -89 -45l-39 62q61 41 128 94q67 -53 128 -94z" />
    <glyph glyph-name="scommaaccent.smcp" horiz-adv-x="494" 
d="M233 -10q-104 0 -188 36l24 110q87 -25 166 -25q40 0 53 9t13 32q0 26 -16 35.5t-84 20.5q-95 15 -122.5 52.5t-27.5 117.5q0 83 50 117.5t156 34.5q99 0 178 -22l-17 -117q-87 18 -160 18q-36 0 -47.5 -7t-11.5 -29q0 -27 14 -35.5t80 -20.5q55 -10 86 -21t46.5 -31.5
t19.5 -42t4 -63.5q0 -89 -45 -129t-171 -40zM321 -197l-67 -106l-54 33l42 81h-42v140h121v-148z" />
    <glyph glyph-name="tbar.smcp" horiz-adv-x="484" 
d="M54 197v68h114v127h-151v128h450v-128h-151v-127h114v-68h-114v-197h-148v197h-114z" />
    <glyph glyph-name="tcaron.smcp" horiz-adv-x="484" 
d="M316 392v-392h-148v392h-151v128h450v-128h-151zM331 721l39 -62q-61 -41 -128 -94q-67 53 -128 94l39 62q48 -21 89 -45q41 24 89 45z" />
    <glyph glyph-name="tcommaaccent.smcp" horiz-adv-x="484" 
d="M316 392v-392h-148v392h-151v128h450v-128h-151zM301 -197l-67 -106l-54 33l42 81h-42v140h121v-148z" />
    <glyph glyph-name="thorn.smcp" horiz-adv-x="534" 
d="M311 69h-93v-69h-148v520h148v-64h100q105 0 148 -38.5t43 -116.5v-76q0 -78 -46.5 -117t-151.5 -39zM363 294q0 43 -51 43h-94v-150h94q51 0 51 45v62z" />
    <glyph glyph-name="uacute.smcp" horiz-adv-x="582" 
d="M291 -10q-122 0 -174 47t-52 117v366h148v-349q0 -53 78 -53t78 53v349h148v-366q0 -70 -52 -117t-174 -47zM273 565l-51 78q72 45 136 92l54 -84z" />
    <glyph glyph-name="ubreve.smcp" horiz-adv-x="582" 
d="M291 -10q-122 0 -174 47t-52 117v366h148v-349q0 -53 78 -53t78 53v349h148v-366q0 -70 -52 -117t-174 -47zM376 721l67 -32q-7 -51 -47.5 -87t-106.5 -36t-106.5 36t-47.5 87l67 32q20 -73 87 -73t87 73z" />
    <glyph glyph-name="ucircumflex.smcp" horiz-adv-x="582" 
d="M291 -10q-122 0 -174 47t-52 117v366h148v-349q0 -53 78 -53t78 53v349h148v-366q0 -70 -52 -117t-174 -47zM419 630l-39 -62q-48 21 -89 45q-41 -24 -89 -45l-39 62q61 41 128 94q67 -53 128 -94z" />
    <glyph glyph-name="udieresis.smcp" horiz-adv-x="582" 
d="M291 -10q-122 0 -174 47t-52 117v366h148v-349q0 -53 78 -53t78 53v349h148v-366q0 -70 -52 -117t-174 -47zM249 578h-111v112h111v-112zM444 578h-111v112h111v-112z" />
    <glyph glyph-name="ugrave.smcp" horiz-adv-x="582" 
d="M291 -10q-122 0 -174 47t-52 117v366h148v-349q0 -53 78 -53t78 53v349h148v-366q0 -70 -52 -117t-174 -47zM353 643l-51 -78l-139 86l54 84q64 -47 136 -92z" />
    <glyph glyph-name="uhungarumlaut.smcp" horiz-adv-x="582" 
d="M291 -10q-122 0 -174 47t-52 117v366h148v-349q0 -53 78 -53t78 53v349h148v-366q0 -70 -52 -117t-174 -47zM198 565l-64 64q57 52 118 121l70 -71q-68 -70 -124 -114zM388 565l-64 64q57 52 118 121l70 -71q-68 -70 -124 -114z" />
    <glyph glyph-name="umacron.smcp" horiz-adv-x="582" 
d="M291 -10q-122 0 -174 47t-52 117v366h148v-349q0 -53 78 -53t78 53v349h148v-366q0 -70 -52 -117t-174 -47zM418 583h-254v92h254v-92z" />
    <glyph glyph-name="uogonek.smcp" horiz-adv-x="582" 
d="M376 -121l9 -75q-27 -11 -66 -11q-49 0 -78.5 23.5t-29.5 68.5q0 59 79 105q-121 0 -173 47t-52 117v366h148v-349q0 -53 78 -53t78 53v349h148v-366q0 -116 -118 -151q-44 -20 -68 -48t-24 -50q0 -30 34 -30q19 0 35 4z" />
    <glyph glyph-name="uring.smcp" horiz-adv-x="582" 
d="M291 -10q-122 0 -174 47t-52 117v366h148v-349q0 -53 78 -53t78 53v349h148v-366q0 -70 -52 -117t-174 -47zM386 647q0 -40 -24.5 -65.5t-70.5 -25.5t-70.5 24.5t-24.5 66.5q0 40 25 65.5t70 25.5q46 0 70.5 -25.5t24.5 -65.5zM326 647q0 38 -35 38t-35 -38t35 -38t35 38
z" />
    <glyph glyph-name="utilde.smcp" horiz-adv-x="582" 
d="M291 -10q-122 0 -174 47t-52 117v366h148v-349q0 -53 78 -53t78 53v349h148v-366q0 -70 -52 -117t-174 -47zM354 571q-37 0 -67 21q-30 22 -46 22q-5 0 -9.5 -1.5t-8.5 -5t-7 -5.5t-7.5 -8l-6 -8l-6.5 -9t-5 -8l-58 45q44 87 105 87q34 0 65 -21q35 -23 51 -23
q29 0 38 41l68 -31q-27 -96 -106 -96z" />
    <glyph glyph-name="wacute.smcp" horiz-adv-x="816" 
d="M665 0h-168l-89 346l-89 -346h-168l-141 520h141l86 -332l96 332h150l96 -332l86 332h141zM414 565l-51 78q72 45 136 92l54 -84z" />
    <glyph glyph-name="wcircumflex.smcp" horiz-adv-x="816" 
d="M665 0h-168l-89 346l-89 -346h-168l-141 520h141l86 -332l96 332h150l96 -332l86 332h141zM536 630l-39 -62q-48 21 -89 45q-41 -24 -89 -45l-39 62q61 41 128 94q67 -53 128 -94z" />
    <glyph glyph-name="wdieresis.smcp" horiz-adv-x="816" 
d="M665 0h-168l-89 346l-89 -346h-168l-141 520h141l86 -332l96 332h150l96 -332l86 332h141zM366 578h-111v112h111v-112zM561 578h-111v112h111v-112z" />
    <glyph glyph-name="wgrave.smcp" horiz-adv-x="816" 
d="M665 0h-168l-89 346l-89 -346h-168l-141 520h141l86 -332l96 332h150l96 -332l86 332h141zM477 643l-51 -78l-139 86l54 84q64 -47 136 -92z" />
    <glyph glyph-name="yacute.smcp" horiz-adv-x="508" 
d="M328 148v-148h-148v148l-180 372h150l104 -234l104 234h150zM248 565l-51 78q72 45 136 92l54 -84z" />
    <glyph glyph-name="ycircumflex.smcp" horiz-adv-x="508" 
d="M328 148v-148h-148v148l-180 372h150l104 -234l104 234h150zM382 630l-39 -62q-48 21 -89 45q-41 -24 -89 -45l-39 62q61 41 128 94q67 -53 128 -94z" />
    <glyph glyph-name="ydieresis.smcp" horiz-adv-x="508" 
d="M328 148v-148h-148v148l-180 372h150l104 -234l104 234h150zM212 578h-111v112h111v-112zM407 578h-111v112h111v-112z" />
    <glyph glyph-name="ygrave.smcp" horiz-adv-x="508" 
d="M328 148v-148h-148v148l-180 372h150l104 -234l104 234h150zM310 643l-51 -78l-139 86l54 84q64 -47 136 -92z" />
    <glyph glyph-name="zacute.smcp" horiz-adv-x="530" 
d="M60 0v104l238 303h-232v113h405v-105l-236 -302h240v-113h-415zM246 565l-51 78q72 45 136 92l54 -84z" />
    <glyph glyph-name="zcaron.smcp" horiz-adv-x="530" 
d="M60 0v104l238 303h-232v113h405v-105l-236 -302h240v-113h-415zM369 721l39 -62q-61 -41 -128 -94q-67 53 -128 94l39 62q48 -21 89 -45q41 24 89 45z" />
    <glyph glyph-name="zdotaccent.smcp" horiz-adv-x="530" 
d="M60 0v104l238 303h-232v113h405v-105l-236 -302h240v-113h-415zM349 588h-144v153h144v-153z" />
    <glyph glyph-name="ornm01.ornm" horiz-adv-x="913" 
d="M373 0l-333 333l333 333l74 -75l-209 -204h615v-108h-615l209 -204z" />
    <glyph glyph-name="ornm02.ornm" horiz-adv-x="913" 
d="M873 333l-333 -333l-74 75l209 204h-615v108h615l-209 204l74 75z" />
    <glyph glyph-name="ornm03.ornm" horiz-adv-x="753" 
d="M85 195v471h471v-102h-293l435 -435l-76 -76l-435 435v-293h-102z" />
    <glyph glyph-name="ornm04.ornm" horiz-adv-x="753" 
d="M668 666v-471h-102v293l-435 -435l-76 76l435 435h-293v102h471z" />
    <glyph glyph-name="ornm05.ornm" horiz-adv-x="753" 
d="M85 0v471h102v-293l435 435l76 -76l-435 -435h293v-102h-471z" />
    <glyph glyph-name="ornm06.ornm" horiz-adv-x="753" 
d="M668 471v-471h-471v102h293l-435 435l76 76l435 -435v293h102z" />
    <glyph glyph-name="ornm07.ornm" horiz-adv-x="756" 
d="M45 343l333 333l333 -333l-75 -74l-204 209v-675h-108v675l-204 -209z" />
    <glyph glyph-name="ornm08.ornm" horiz-adv-x="756" 
d="M378 -197l-333 333l75 74l204 -209v665h108v-665l204 209l75 -74z" />
    <glyph glyph-name="ornm09.ornm" horiz-adv-x="933" 
d="M359 277v112h514v-112h-514zM373 0l-333 333l333 333l74 -75l-258 -258l258 -258z" />
    <glyph glyph-name="ornm10.ornm" horiz-adv-x="933" 
d="M574 389v-112h-514v112h514zM893 333l-333 -333l-74 75l258 258l-258 258l74 75z" />
    <glyph glyph-name="ornm11.ornm" horiz-adv-x="768" 
d="M271 401l79 79l363 -363l-79 -79zM85 196v470h471v-105h-366v-365h-105z" />
    <glyph glyph-name="ornm12.ornm" horiz-adv-x="768" 
d="M418 480l79 -79l-363 -363l-79 79zM683 666v-471h-105v366h-365v105h470z" />
    <glyph glyph-name="ornm13.ornm" horiz-adv-x="768" 
d="M350 186l-79 79l363 363l79 -79zM85 0v470h105v-365h366v-105h-471z" />
    <glyph glyph-name="ornm14.ornm" horiz-adv-x="768" 
d="M497 265l-79 -79l-363 363l79 79zM683 471v-471h-470v105h365v366h105z" />
    <glyph glyph-name="ornm15.ornm" horiz-adv-x="756" 
d="M322 357h112v-554h-112v554zM45 343l333 333l333 -333l-75 -74l-258 258l-258 -258z" />
    <glyph glyph-name="ornm16.ornm" horiz-adv-x="756" 
d="M434 122h-112v544h112v-544zM378 -197l-333 333l75 74l258 -258l258 258l75 -74z" />
    <glyph glyph-name="ornm17.ornm" horiz-adv-x="695" 
d="M277 86l-247 247l247 247l74 -75l-123 -118h407v-108h-407l123 -118z" />
    <glyph glyph-name="ornm18.ornm" horiz-adv-x="695" 
d="M665 333l-247 -247l-74 75l123 118h-407v108h407l-123 118l74 75z" />
    <glyph glyph-name="ornm19.ornm" horiz-adv-x="596" 
d="M75 317v349h350v-102h-171l287 -288l-76 -76l-288 287v-170h-102z" />
    <glyph glyph-name="ornm20.ornm" horiz-adv-x="596" 
d="M521 666v-349h-102v170l-288 -287l-76 76l287 288h-171v102h350z" />
    <glyph glyph-name="ornm21.ornm" horiz-adv-x="596" 
d="M75 0v349h102v-170l288 287l76 -76l-287 -288h171v-102h-350z" />
    <glyph glyph-name="ornm22.ornm" horiz-adv-x="596" 
d="M521 349v-349h-350v102h171l-287 288l76 76l288 -287v170h102z" />
    <glyph glyph-name="ornm23.ornm" horiz-adv-x="584" 
d="M45 429l247 247l247 -247l-75 -74l-118 123v-478h-108v478l-118 -123z" />
    <glyph glyph-name="ornm24.ornm" horiz-adv-x="584" 
d="M292 -10l-247 247l75 74l118 -123v478h108v-478l118 123l75 -74z" />
    <glyph glyph-name="ornm25.ornm" horiz-adv-x="714" 
d="M292 277v112h362v-112h-362zM277 86l-247 247l247 247l74 -75l-172 -172l172 -172z" />
    <glyph glyph-name="ornm26.ornm" horiz-adv-x="714" 
d="M422 389v-112h-362v112h362zM684 333l-247 -247l-74 75l172 172l-172 172l74 75z" />
    <glyph glyph-name="ornm27.ornm" horiz-adv-x="611" 
d="M221 441l79 79l256 -256l-79 -79zM75 316v350h349v-106h-243v-244h-106z" />
    <glyph glyph-name="ornm28.ornm" horiz-adv-x="611" 
d="M311 520l79 -79l-256 -256l-79 79zM536 666v-350h-106v244h-243v106h349z" />
    <glyph glyph-name="ornm29.ornm" horiz-adv-x="611" 
d="M300 146l-79 79l256 256l79 -79zM75 0v350h106v-244h243v-106h-349z" />
    <glyph glyph-name="ornm30.ornm" horiz-adv-x="611" 
d="M390 225l-79 -79l-256 256l79 79zM536 350v-350h-349v106h243v244h106z" />
    <glyph glyph-name="ornm31.ornm" horiz-adv-x="584" 
d="M236 414h112v-414h-112v414zM45 429l247 247l247 -247l-75 -74l-172 172l-172 -172z" />
    <glyph glyph-name="ornm32.ornm" horiz-adv-x="584" 
d="M348 252h-112v414h112v-414zM292 -10l-247 247l75 74l172 -172l172 172l75 -74z" />
    <glyph glyph-name="ornm33.ornm" horiz-adv-x="766" 
d="M156 333l224 -223l66 68l-111 107h272v97h-272l111 107l-66 68zM40 333q0 142 100.5 242.5t242.5 100.5t242.5 -100.5t100.5 -242.5t-100.5 -242.5t-242.5 -100.5t-242.5 100.5t-100.5 242.5z" />
    <glyph glyph-name="ornm34.ornm" horiz-adv-x="766" 
d="M386 110l224 223l-224 224l-66 -68l111 -107h-272v-97h272l-111 -107zM726 333q0 -142 -100.5 -242.5t-242.5 -100.5t-242.5 100.5t-100.5 242.5t100.5 242.5t242.5 100.5t242.5 -100.5t100.5 -242.5z" />
    <glyph glyph-name="ornm35.ornm" horiz-adv-x="766" 
d="M223 494v-314h92v154l193 -192l68 68l-192 190h155v94h-316zM726 333q0 -142 -100.5 -242.5t-242.5 -100.5t-242.5 100.5t-100.5 242.5t100.5 242.5t242.5 100.5t242.5 -100.5t100.5 -242.5z" />
    <glyph glyph-name="ornm36.ornm" horiz-adv-x="766" 
d="M543 180v314h-316v-94h155l-192 -190l68 -68l193 192v-154h92zM40 333q0 142 100.5 242.5t242.5 100.5t242.5 -100.5t100.5 -242.5t-100.5 -242.5t-242.5 -100.5t-242.5 100.5t-100.5 242.5z" />
    <glyph glyph-name="ornm37.ornm" horiz-adv-x="766" 
d="M223 486v-314h316v94h-155l192 190l-68 68l-193 -192v154h-92zM726 333q0 -142 -100.5 -242.5t-242.5 -100.5t-242.5 100.5t-100.5 242.5t100.5 242.5t242.5 100.5t242.5 -100.5t100.5 -242.5z" />
    <glyph glyph-name="ornm38.ornm" horiz-adv-x="766" 
d="M543 172v314h-92v-154l-193 192l-68 -68l192 -190h-155v-94h316zM40 333q0 142 100.5 242.5t242.5 100.5t242.5 -100.5t100.5 -242.5t-100.5 -242.5t-242.5 -100.5t-242.5 100.5t-100.5 242.5z" />
    <glyph glyph-name="ornm39.ornm" horiz-adv-x="766" 
d="M383 571l-223 -224l68 -66l107 111v-272h97v272l107 -111l68 66zM383 676q142 0 242.5 -100.5t100.5 -242.5t-100.5 -242.5t-242.5 -100.5t-242.5 100.5t-100.5 242.5t100.5 242.5t242.5 100.5z" />
    <glyph glyph-name="ornm40.ornm" horiz-adv-x="766" 
d="M160 319l223 -224l224 224l-68 66l-107 -111v272h-97v-272l-107 111zM383 -10q-142 0 -242.5 100.5t-100.5 242.5t100.5 242.5t242.5 100.5t242.5 -100.5t100.5 -242.5t-100.5 -242.5t-242.5 -100.5z" />
    <glyph glyph-name="ornm41.ornm" horiz-adv-x="766" 
d="M40 333q0 142 100.5 242.5t242.5 100.5t242.5 -100.5t100.5 -242.5t-100.5 -242.5t-242.5 -100.5t-242.5 100.5t-100.5 242.5zM411 383v-100h205v100h-205zM154 333l224 -224l67 67l-156 157l156 155l-67 68z" />
    <glyph glyph-name="ornm42.ornm" horiz-adv-x="766" 
d="M726 333q0 -142 -100.5 -242.5t-242.5 -100.5t-242.5 100.5t-100.5 242.5t100.5 242.5t242.5 100.5t242.5 -100.5t100.5 -242.5zM355 283v100h-205v-100h205zM388 109l224 224l-224 223l-67 -68l156 -155l-156 -157z" />
    <glyph glyph-name="ornm43.ornm" horiz-adv-x="766" 
d="M448 349l-71 -71l145 -145l71 71zM231 495v-317h96v221h219l1 96h-316zM726 333q0 -142 -100.5 -242.5t-242.5 -100.5t-242.5 100.5t-100.5 242.5t100.5 242.5t242.5 100.5t242.5 -100.5t100.5 -242.5z" />
    <glyph glyph-name="ornm44.ornm" horiz-adv-x="766" 
d="M389 278l-71 71l-145 -145l71 -71zM535 178v317h-316l1 -96h219v-221h96zM40 333q0 142 100.5 242.5t242.5 100.5t242.5 -100.5t100.5 -242.5t-100.5 -242.5t-242.5 -100.5t-242.5 100.5t-100.5 242.5z" />
    <glyph glyph-name="ornm45.ornm" horiz-adv-x="766" 
d="M377 388l71 -71l145 145l-71 71zM231 488v-317h316l-1 96h-219v221h-96zM726 333q0 -142 -100.5 -242.5t-242.5 -100.5t-242.5 100.5t-100.5 242.5t100.5 242.5t242.5 100.5t242.5 -100.5t100.5 -242.5z" />
    <glyph glyph-name="ornm46.ornm" horiz-adv-x="766" 
d="M318 317l71 71l-145 145l-71 -71zM535 171v317h-96v-221h-219l-1 -96h316zM40 333q0 142 100.5 242.5t242.5 100.5t242.5 -100.5t100.5 -242.5t-100.5 -242.5t-242.5 -100.5t-242.5 100.5t-100.5 242.5z" />
    <glyph glyph-name="ornm47.ornm" horiz-adv-x="766" 
d="M383 676q142 0 242.5 -100.5t100.5 -242.5t-100.5 -242.5t-242.5 -100.5t-242.5 100.5t-100.5 242.5t100.5 242.5t242.5 100.5zM433 314h-100v-205h100v205zM383 571l-224 -224l67 -67l157 156l155 -156l68 67z" />
    <glyph glyph-name="ornm48.ornm" horiz-adv-x="766" 
d="M383 -10q-142 0 -242.5 100.5t-100.5 242.5t100.5 242.5t242.5 100.5t242.5 -100.5t100.5 -242.5t-100.5 -242.5t-242.5 -100.5zM333 352h100v205h-100v-205zM159 319l224 -224l223 224l-68 67l-155 -156l-157 156z" />
    <glyph glyph-name="ornm49.ornm" horiz-adv-x="766" 
d="M40 333q0 142 100.5 242.5t242.5 100.5t242.5 -100.5t100.5 -242.5t-100.5 -242.5t-242.5 -100.5t-242.5 100.5t-100.5 242.5zM503 143l70 70l-120 120l120 120l-71 71l-119 -120l-119 120l-71 -71l119 -120l-119 -120l70 -70l120 120z" />
    <glyph glyph-name="ornm50.ornm" horiz-adv-x="766" 
d="M40 333q0 142 100.5 242.5t242.5 100.5t242.5 -100.5t100.5 -242.5t-100.5 -242.5t-242.5 -100.5t-242.5 100.5t-100.5 242.5zM502 524l-119 -120l70 -71l120 120zM264 524l-71 -71l119 -120l71 71zM503 143l70 70l-120 120l-70 -70zM193 213l70 -70l120 120l-71 70z" />
    <glyph glyph-name="ornm51.ornm" horiz-adv-x="766" 
d="M40 333q0 142 100.5 242.5t242.5 100.5t242.5 -100.5t100.5 -242.5t-100.5 -242.5t-242.5 -100.5t-242.5 100.5t-100.5 242.5zM603 284v99h-170v170h-99v-170h-170v-99h170v-170h99v170h170z" />
    <glyph glyph-name="ornm52.ornm" horiz-adv-x="766" 
d="M40 333q0 142 100.5 242.5t242.5 100.5t242.5 -100.5t100.5 -242.5t-100.5 -242.5t-242.5 -100.5t-242.5 100.5t-100.5 242.5zM334 553v-170h99v170h-99zM164 383v-99h170v99h-170zM603 284v99h-170v-99h170zM334 114h99v170h-99v-170z" />
    <glyph glyph-name="ornm53.ornm" horiz-adv-x="786" 
d="M25 333l686 343v-686z" />
    <glyph glyph-name="ornm54.ornm" horiz-adv-x="786" 
d="M75 676l686 -343l-686 -343v686z" />
    <glyph glyph-name="ornm55.ornm" horiz-adv-x="786" 
d="M653 582l-498 -249l498 -249v498zM25 333l686 343v-686z" />
    <glyph glyph-name="ornm56.ornm" horiz-adv-x="786" 
d="M631 333l-498 249v-498zM75 676l686 -343l-686 -343v686z" />
    <glyph glyph-name="ornm57.ornm" horiz-adv-x="608" 
d="M25 243l508 254v-508z" />
    <glyph glyph-name="ornm58.ornm" horiz-adv-x="608" 
d="M75 497l508 -254l-508 -254v508z" />
    <glyph glyph-name="ornm59.ornm" horiz-adv-x="608" 
d="M475 404l-326 -161l326 -162v323zM25 243l508 254v-508z" />
    <glyph glyph-name="ornm60.ornm" horiz-adv-x="608" 
d="M459 243l-326 161v-323zM75 497l508 -254l-508 -254v508z" />
    <glyph glyph-name="ornm61.ornm" horiz-adv-x="766" 
d="M383 676l338 -676h-676z" />
    <glyph glyph-name="ornm62.ornm" horiz-adv-x="766" 
d="M721 666l-338 -676l-338 676h676z" />
    <glyph glyph-name="ornm63.ornm" horiz-adv-x="766" 
d="M628 57l-245 491l-245 -491h490zM383 676l338 -676h-676z" />
    <glyph glyph-name="ornm64.ornm" horiz-adv-x="766" 
d="M383 118l245 491h-490zM721 666l-338 -676l-338 676h676z" />
    <glyph glyph-name="ornm65.ornm" horiz-adv-x="587" 
d="M293 497l249 -497h-497z" />
    <glyph glyph-name="ornm66.ornm" horiz-adv-x="587" 
d="M542 487l-249 -497l-248 497h497z" />
    <glyph glyph-name="ornm67.ornm" horiz-adv-x="587" 
d="M293 376l-157 -319h316zM45 0l248 497l249 -497h-497z" />
    <glyph glyph-name="ornm68.ornm" horiz-adv-x="587" 
d="M136 430l157 -319l159 319h-316zM293 -10l-248 497h497z" />
    <glyph glyph-name="ornm69.ornm" horiz-adv-x="816" 
d="M75 0v666h666v-666h-666z" />
    <glyph glyph-name="ornm70.ornm" horiz-adv-x="816" 
d="M133 608v-550h550v550h-550zM75 0v666h666v-666h-666z" />
    <glyph glyph-name="ornm71.ornm" horiz-adv-x="637" 
d="M75 0v487h487v-487h-487z" />
    <glyph glyph-name="ornm72.ornm" horiz-adv-x="637" 
d="M75 0v487h487v-487h-487zM131 431v-375h375v375h-375z" />
    <glyph glyph-name="ornm73.ornm" horiz-adv-x="816" 
d="M75 0v666h666v-666h-666zM133 573v-515h514zM683 608h-513l513 -512v512z" />
    <glyph glyph-name="ornm74.ornm" horiz-adv-x="637" 
d="M75 0v487h487v-487h-487zM506 431h-341l341 -341v341zM131 395v-339h339z" />
    </font>
</defs>
</svg>
