<?xml version="1.0" standalone="no"?>
<!DOCTYPE svg PUBLIC "-//W3C//DTD SVG 1.1//EN" "http://www.w3.org/Graphics/SVG/1.1/DTD/svg11.dtd" >
<svg>
<metadata>
Created by FontForge 20090622 at Fri May  5 09:21:48 2017
 By deploy user
Copyright 2004 Process Type Foundry. All rights reserved.
</metadata>
<defs>
<font id="Klavika-RegularItalic" horiz-adv-x="525" >
  <font-face 
    font-family="Klavika Rg"
    font-weight="400"
    font-style="italic"
    font-stretch="normal"
    units-per-em="1000"
    panose-1="2 0 5 6 9 0 0 2 0 4"
    ascent="750"
    descent="-250"
    x-height="487"
    cap-height="666"
    bbox="-79 -259 1151 960"
    underline-thickness="20"
    underline-position="-113"
    unicode-range="U+0020-U+FB02"
  />
<missing-glyph horiz-adv-x="648" 
d="M115 0v666h463v-666h-463zM532 619h-344l344 -535v535zM161 581v-535h343z" />
    <glyph glyph-name="fi" unicode="fi" horiz-adv-x="590" 
d="M383 0l74 420h-236l-81 -461q-10 -56 -31.5 -91t-67.5 -75l-50 51q32 30 47 58t23 76l78 442h-85l12 67h85l15 85q12 69 52 101.5t114 32.5t160 -28l-17 -63q-69 22 -140 22q-41 0 -61 -15t-26 -50l-15 -85h277l42 6l-87 -493h-82z" />
    <glyph glyph-name="fl" unicode="fl" horiz-adv-x="594" 
d="M375 487l-18 -69h-136l-81 -459q-10 -56 -31.5 -91t-67.5 -75l-50 51q32 30 47 58t23 76l78 440h-85l12 69h85l16 92q12 70 52.5 98.5t117.5 28.5q91 0 171 -20l84 12l-123 -698h-82l109 620q-78 18 -161 18q-44 0 -62.5 -15t-24.5 -51l-15 -85h142z" />
    <glyph glyph-name="f_f" unicode="ff" horiz-adv-x="698" 
d="M387 -207l-50 51q32 30 47 58t23 76l78 441h-264l-81 -460q-10 -56 -31.5 -91t-67.5 -75l-50 51q32 30 47 58t23 76l78 441h-85l12 68h85l15 85q12 70 47.5 102t104.5 32q53 0 104 -20l-17 -63q-44 14 -82 14q-36 0 -52.5 -14.5t-22.5 -50.5l-15 -85h264l15 85
q12 70 47.5 102t104.5 32q53 0 104 -20l-17 -63q-44 14 -82 14q-36 0 -52.5 -14.5t-22.5 -50.5l-15 -85h142l-17 -68h-137l-81 -460q-10 -56 -31.5 -91t-67.5 -75z" />
    <glyph glyph-name="f_f_i" unicode="ffi" horiz-adv-x="935" 
d="M496 487l15 85q12 69 52 101.5t114 32.5q76 0 155 -27l-17 -63q-76 21 -135 21q-41 0 -61 -15t-26 -50l-15 -85h277l42 6l-87 -493h-82l74 420h-236l-81 -461q-10 -56 -31.5 -91t-67.5 -75l-50 51q32 30 47 58t23 76l78 442h-263l-81 -461q-10 -56 -31.5 -91t-67.5 -75
l-50 51q32 30 47 58t23 76l78 442h-85l12 67h85l15 85q12 70 47.5 102t104.5 32q53 0 104 -20l-17 -63q-44 14 -82 14q-36 0 -52.5 -14.5t-22.5 -50.5l-15 -85h263z" />
    <glyph glyph-name="f_j" unicode="fj" horiz-adv-x="582" 
d="M377 -19l77 439h-233l-81 -461q-10 -56 -31.5 -91t-67.5 -75l-50 51q32 30 47 58t23 76l78 442h-85l12 67h85l15 85q12 69 52 101.5t114 32.5q78 0 157 -27l-17 -63q-76 21 -137 21q-41 0 -61 -15t-26 -50l-15 -85h274l42 6l-93 -526q-8 -47 -31 -75.5t-116 -98.5l-42 58
q69 55 86.5 74.5t23.5 55.5z" />
    <glyph glyph-name="f_f_j" unicode="ffj" horiz-adv-x="918" 
d="M713 -19l77 439h-233l-81 -461q-10 -56 -31.5 -91t-67.5 -75l-50 51q32 30 47 58t23 76l78 442h-254l-81 -461q-10 -56 -31.5 -91t-67.5 -75l-50 51q32 30 47 58t23 76l78 442h-85l12 67h85l15 85q12 70 47.5 102t104.5 32q53 0 104 -20l-17 -63q-44 14 -82 14
q-36 0 -52.5 -14.5t-22.5 -50.5l-15 -85h254l15 85q12 69 52 101.5t114 32.5q78 0 157 -27l-17 -63q-76 21 -137 21q-41 0 -61 -15t-26 -50l-15 -85h274l42 6l-93 -526q-8 -47 -31 -75.5t-116 -98.5l-42 58q69 55 86.5 74.5t23.5 55.5z" />
    <glyph glyph-name="f_f_l" unicode="ffl" horiz-adv-x="940" 
d="M497 487l16 92q12 70 52.5 98.5t117.5 28.5q91 0 171 -20l84 12l-123 -698h-82l109 620q-78 18 -161 18q-44 0 -62.5 -15t-24.5 -51l-15 -85h142l-18 -68h-136l-81 -460q-10 -56 -31.5 -91t-67.5 -75l-50 51q32 30 47 58t23 76l78 441h-264l-81 -460q-10 -56 -31.5 -91
t-67.5 -75l-50 51q32 30 47 58t23 76l78 441h-85l12 68h85l15 85q12 70 47.5 102t104.5 32q53 0 104 -20l-17 -63q-44 14 -82 14q-36 0 -52.5 -14.5t-22.5 -50.5l-15 -85h264z" />
    <glyph glyph-name=".notdef" horiz-adv-x="648" 
d="M115 0v666h463v-666h-463zM532 619h-344l344 -535v535zM161 581v-535h343z" />
    <glyph glyph-name=".null" horiz-adv-x="0" 
 />
    <glyph glyph-name="nonmarkingreturn" horiz-adv-x="333" 
 />
    <glyph glyph-name="space" unicode=" " horiz-adv-x="215" 
 />
    <glyph glyph-name="exclam" unicode="!" horiz-adv-x="264" 
d="M144 190h-47l12 172l57 324h82l-57 -323zM43 0l19 110h85l-19 -110h-85z" />
    <glyph glyph-name="quotedbl" unicode="&#x22;" horiz-adv-x="363" 
d="M257 441l43 245h63l-43 -245h-63zM95 441l43 245h63l-43 -245h-63z" />
    <glyph glyph-name="numbersign" unicode="#" horiz-adv-x="703" 
d="M659 423h-115l-41 -189h116l-14 -61h-116l-37 -173h-66l37 173h-181l-37 -173h-66l37 173h-117l14 61h117l41 189h-117l13 61h118l36 162h65l-36 -162h182l36 162h65l-35 -162h115zM297 423l-41 -189h181l41 189h-181z" />
    <glyph glyph-name="dollar" unicode="$" horiz-adv-x="504" 
d="M148 -113l18 104q-70 4 -137 35l20 66q79 -30 154 -30q72 0 94 19t33 83q7 42 7 54q0 31 -20 45.5t-78 30.5q-74 21 -101.5 48t-27.5 71q0 23 9 77q17 97 52 129t134 36l19 104h71l-19 -105q52 -4 104 -18l-15 -70q-78 18 -139 18q-24 0 -40.5 -1.5t-29.5 -3.5t-21 -9
l-13.5 -11.5t-9.5 -18.5t-6 -23t-6 -30q-8 -50 -8 -58q0 -27 18.5 -39.5t78.5 -31.5q75 -23 103 -49.5t28 -73.5q0 -26 -8 -71q-16 -92 -49 -129t-125 -43l-19 -105h-71z" />
    <glyph glyph-name="percent" unicode="%" horiz-adv-x="841" 
d="M274 -10l-52 27l354 659l52 -27zM195 313q-127 0 -127 102q0 17 3 33l18 102q12 67 48 96.5t119 29.5q63 0 96 -28t33 -76q0 -9 -3 -27l-19 -109q-11 -61 -48 -92t-120 -31zM299 448l17 97q2 10 2 21q0 26 -16 39t-54 13q-45 0 -65.5 -16t-28.5 -57l-18 -102
q-2 -14 -2 -22q0 -25 16 -37.5t54 -12.5q48 0 68 18t27 59zM591 -10q-127 0 -127 102q0 16 3 33l18 102q12 67 48 96.5t119 29.5q63 0 96 -28t33 -76q0 -9 -3 -27l-19 -109q-11 -61 -48 -92t-120 -31zM695 125l17 97q2 10 2 21q0 26 -16 39t-54 13q-45 0 -65.5 -16
t-28.5 -57l-18 -102q-2 -14 -2 -22q0 -25 16 -37.5t54 -12.5q48 0 68 18t27 59z" />
    <glyph glyph-name="ampersand" unicode="&#x26;" horiz-adv-x="719" 
d="M442 381q0 -67 -57 -104h128q67 0 106.5 11.5t83.5 41.5l30 -51q-76 -66 -205 -67q-53 -106 -129.5 -164t-199.5 -58q-157 0 -157 119q0 15 4 39l31 175q31 174 209 174q70 0 113 -31t43 -85zM206 59q84 0 140 37.5t100 115.5h-156l-16 65q43 11 67 37.5t24 57.5
q0 57 -84 57q-104 0 -122 -100l-33 -187q-3 -16 -3 -28q0 -32 19.5 -43.5t63.5 -11.5z" />
    <glyph glyph-name="quotesingle" unicode="'" horiz-adv-x="201" 
d="M95 441l43 245h63l-43 -245h-63z" />
    <glyph glyph-name="parenleft" unicode="(" horiz-adv-x="303" 
d="M156 -154q-87 156 -87 331q0 343 249 585l51 -47q-115 -127 -167 -252.5t-52 -283.5q0 -155 73 -298z" />
    <glyph glyph-name="parenright" unicode=")" horiz-adv-x="303" 
d="M161 762q87 -156 87 -331q0 -343 -249 -585l-51 47q116 125 167.5 250.5t51.5 285.5q0 155 -73 298z" />
    <glyph glyph-name="asterisk" unicode="*" horiz-adv-x="470" 
d="M142 387l98 118h-140l8 43h145l-58 126l42 22l59 -126l101 127l35 -28l-100 -121h146l-7 -43h-146l60 -125l-43 -21l-60 128l-104 -129z" />
    <glyph glyph-name="plus" unicode="+" horiz-adv-x="524" 
d="M298 209v-170h-71v170h-167v68h167v170h71v-170h166v-68h-166z" />
    <glyph glyph-name="comma" unicode="," horiz-adv-x="255" 
d="M46 -121l-31 22l60 99h-32l19 110h85l-20 -114z" />
    <glyph glyph-name="hyphen" unicode="-" horiz-adv-x="370" 
d="M74 247l11 69h238l-12 -69h-237z" />
    <glyph glyph-name="period" unicode="." horiz-adv-x="256" 
d="M52 0l19 110h85l-19 -110h-85z" />
    <glyph glyph-name="slash" unicode="/" horiz-adv-x="437" 
d="M65 -117h-76l386 793h77z" />
    <glyph glyph-name="zero" unicode="0" horiz-adv-x="551" 
d="M228 -10q-177 0 -177 136q0 22 3 38l57 324q16 93 68.5 130.5t165.5 37.5q83 0 130.5 -39.5t47.5 -106.5q0 -16 -3 -34l-55 -312q-16 -92 -65.5 -133t-171.5 -41zM384 171l53 300q4 24 4 34q0 40 -25.5 59.5t-83.5 19.5q-69 0 -99.5 -24.5t-41.5 -83.5l-55 -311
q-3 -17 -3 -34q0 -36 24 -52.5t84 -16.5q71 0 101.5 24.5t41.5 84.5z" />
    <glyph glyph-name="one" unicode="1" horiz-adv-x="347" 
d="M130 0l98 556l-142 -75l-30 64l194 101h76l-114 -646h-82z" />
    <glyph glyph-name="two" unicode="2" horiz-adv-x="486" 
d="M15 0l7 72l206 207l83 86.5t38.5 49t22.5 51.5l4 22q4 23 4 38q0 31 -22.5 44t-83.5 13q-72 0 -159 -23l-9 67q96 29 187 29q170 0 170 -126q0 -11 -4 -37l-5 -27q-10 -56 -33.5 -89.5t-114.5 -126.5l-174 -178h257l-12 -72h-362z" />
    <glyph glyph-name="three" unicode="3" horiz-adv-x="481" 
d="M182 -10q-94 0 -170 31l19 65q75 -25 152 -25q74 0 100 19.5t35 72.5l8 45q16 91 -90 91h-132l12 71h134q91 0 104 77l12 69q8 44 -15 62t-85 18q-74 0 -139 -13l-7 66q71 17 161 17q97 0 138.5 -41t28.5 -110l-11 -63q-8 -49 -28.5 -74.5t-69.5 -43.5q40 -8 58 -45
t10 -85l-8 -46q-10 -57 -27.5 -88.5t-63 -50.5t-126.5 -19z" />
    <glyph glyph-name="four" unicode="4" horiz-adv-x="531" 
d="M396 164l-29 -164h-81l29 164h-302l7 79l347 403h113l-73 -414h94l-13 -68h-92zM385 565l-284 -333h225z" />
    <glyph glyph-name="five" unicode="5" horiz-adv-x="484" 
d="M181 -10q-86 0 -166 28l17 67q88 -23 157 -23q72 0 99 21.5t37 76.5l7 39q3 15 3 28q0 34 -22 48t-84 18q-94 5 -143 7l61 346h337l-12 -72h-256l-36 -207q50 -3 103 -7q136 -12 136 -117q0 -16 -4 -38l-7 -40q-9 -49 -20.5 -78.5t-36.5 -53t-66 -33.5t-104 -10z" />
    <glyph glyph-name="six" unicode="6" horiz-adv-x="510" 
d="M218 -10q-168 0 -168 127q0 26 4 47l47 269q22 127 80 175t195 48q67 0 121 -17l-15 -66q-49 12 -100 12q-74 0 -113.5 -15.5t-57 -46t-28.5 -91.5l-15 -86q66 23 136 23q79 0 113.5 -28.5t34.5 -84.5q0 -25 -4 -46l-9 -52q-15 -86 -61 -127t-160 -41zM356 154l11 61
q4 26 4 33q0 28 -18.5 39t-67.5 11q-66 0 -130 -26l-20 -112q-3 -18 -3 -32q0 -35 22.5 -50.5t76.5 -15.5q61 0 88.5 20t36.5 72z" />
    <glyph glyph-name="seven" unicode="7" horiz-adv-x="437" 
d="M112 0h-87l361 575h-307l12 71h394l-12 -69z" />
    <glyph glyph-name="eight" unicode="8" horiz-adv-x="543" 
d="M228 -10q-182 0 -182 120q0 12 4 38l6 33q10 58 45.5 92t109.5 58q-87 54 -87 125q0 12 2 26l3 18q15 84 62.5 120t152.5 36q77 0 121 -33.5t44 -89.5q0 -11 -3 -28l-5 -29q-19 -109 -136 -147q54 -25 79 -54t25 -70q0 -13 -3 -29l-6 -33q-10 -58 -32.5 -89.5t-70 -47.5
t-129.5 -16zM420 471l6 33q2 14 2 20q0 62 -96 62q-59 0 -87 -20.5t-35 -60.5l-5 -29q-2 -12 -2 -18q0 -29 21.5 -51t68.5 -45q61 25 91 49t36 60zM380 148l5 28q3 15 3 26q0 29 -21 45.5t-87 45.5q-81 -30 -109.5 -52.5t-35.5 -63.5l-5 -29q-3 -17 -3 -29q0 -33 25 -46
t88 -13q70 0 100.5 18.5t39.5 69.5z" />
    <glyph glyph-name="nine" unicode="9" horiz-adv-x="510" 
d="M316 656q85 0 126.5 -33.5t41.5 -93.5q0 -26 -4 -47l-47 -269q-22 -128 -78 -175.5t-197 -47.5q-67 0 -121 17l15 66q49 -12 100 -12q76 0 116 15.5t56 45.5t27 92l15 86q-66 -23 -136 -23q-79 0 -113.5 28.5t-34.5 84.5q0 25 4 46l9 52q8 44 20 72.5t36 51.5t64.5 33.5
t100.5 10.5zM178 492l-11 -61q-4 -26 -4 -33q0 -29 18.5 -39.5t67.5 -10.5q66 0 130 26l20 112q3 18 3 32q0 35 -22.5 50.5t-76.5 15.5q-61 0 -88.5 -20t-36.5 -72z" />
    <glyph glyph-name="colon" unicode=":" horiz-adv-x="260" 
d="M45 0l19 110h85l-19 -110h-85zM101 312l19 110h85l-19 -110h-85z" />
    <glyph glyph-name="semicolon" unicode=";" horiz-adv-x="260" 
d="M48 -121l-31 22l60 99h-32l19 110h85l-20 -114zM100 312l19 110h85l-19 -110h-85z" />
    <glyph glyph-name="less" unicode="&#x3c;" horiz-adv-x="554" 
d="M462 -10l-412 228v52l411 227l29 -54l-366 -199l367 -200z" />
    <glyph glyph-name="equal" unicode="=" horiz-adv-x="482" 
d="M65 305v59h367v-59h-367zM65 124v59h367v-59h-367z" />
    <glyph glyph-name="greater" unicode="&#x3e;" horiz-adv-x="554" 
d="M509 218l-412 -228l-29 54l367 200l-366 199l29 54l411 -227v-52z" />
    <glyph glyph-name="question" unicode="?" horiz-adv-x="475" 
d="M284 280l-85 -55l-38 60l122 82q47 32 60.5 55t24.5 83q7 38 7 59q0 35 -21 47t-83 12q-58 0 -134 -16l-8 71q77 18 159 18q89 0 129 -29t40 -90q0 -26 -7 -68q-8 -44 -13 -64.5t-14.5 -43.5t-27.5 -39.5t-42.5 -35t-68.5 -46.5zM110 0l19 110h85l-19 -110h-85z" />
    <glyph glyph-name="at" unicode="@" horiz-adv-x="743" 
d="M519 203q-49 0 -71 28q-45 -28 -108 -28q-43 0 -59.5 26t-8.5 66l19 108q8 46 34.5 66.5t81.5 20.5q64 0 120 -29l-36 -207q12 -2 26 -2q74 0 108.5 54t34.5 140t-54.5 130.5t-156.5 44.5q-151 0 -235 -94t-84 -259q0 -106 61 -164t186 -58q104 0 205 44l12 -52
q-94 -48 -221 -48q-148 0 -226.5 74.5t-78.5 200.5q0 189 101 300t284 111q130 0 198.5 -63t68.5 -162q0 -111 -51.5 -179.5t-149.5 -68.5zM400 441q-27 0 -39 -10t-16 -34l-18 -102q-4 -23 2 -32.5t32 -9.5q39 0 79 25l27 154q-33 9 -67 9z" />
    <glyph glyph-name="A" unicode="A" horiz-adv-x="621" 
d="M465 0l-24 162h-278l-83 -162h-88l335 666h120l104 -666h-86zM379 608l-182 -374h233z" />
    <glyph glyph-name="B" unicode="B" horiz-adv-x="580" 
d="M314 0h-274l118 666h257q138 0 138 -104q0 -12 -3 -29l-15 -84q-8 -44 -27.5 -68t-64.5 -39q38 -5 57.5 -31.5t19.5 -65.5q0 -13 -3 -29l-14 -79q-12 -71 -55.5 -104t-133.5 -33zM452 454l13 74q2 14 2 19q0 48 -65 48h-173l-39 -221h160q47 0 71 18.5t31 61.5zM421 148
l13 73q2 12 2 20q0 63 -83 63h-175l-41 -233h181q49 0 72.5 18.5t30.5 58.5z" />
    <glyph glyph-name="C" unicode="C" horiz-adv-x="516" 
d="M250 -10q-196 0 -196 154q0 19 5 49l51 289q19 104 78 149t180 45q90 0 166 -21l-17 -72q-83 18 -156 18q-82 0 -119 -28t-50 -102l-49 -279q-4 -21 -4 -42q0 -46 29 -65.5t99 -19.5q74 0 159 16l3 -72q-90 -19 -179 -19z" />
    <glyph glyph-name="D" unicode="D" horiz-adv-x="593" 
d="M278 0h-238l117 666h224q98 0 143 -41.5t45 -112.5q0 -25 -4 -46l-51 -290q-11 -63 -34.5 -99.5t-72 -56.5t-129.5 -20zM433 192l48 273q4 26 4 41q0 42 -26.5 63.5t-88.5 21.5h-142l-91 -516h141q79 0 111 25.5t44 91.5z" />
    <glyph glyph-name="E" unicode="E" horiz-adv-x="534" 
d="M40 0l117 666h388l-14 -75h-302l-37 -213h280l-13 -74h-281l-41 -229h304l-13 -75h-388z" />
    <glyph glyph-name="F" unicode="F" horiz-adv-x="514" 
d="M228 591l-40 -226h285l-13 -74h-285l-51 -291h-84l117 666h391l-13 -75h-307z" />
    <glyph glyph-name="G" unicode="G" horiz-adv-x="582" 
d="M248 -10q-194 0 -194 151q0 24 4 47l52 294q18 102 74.5 148t184.5 46q101 0 186 -26l-16 -71q-94 21 -180 21q-83 0 -118.5 -28t-48.5 -100l-48 -274q-5 -26 -5 -50q0 -43 27 -63t95 -20q63 0 133 15l40 222h81l-48 -277q-98 -35 -219 -35z" />
    <glyph glyph-name="H" unicode="H" horiz-adv-x="628" 
d="M414 0l53 303h-290l-53 -303h-84l117 666h84l-51 -289h290l51 289h84l-117 -666h-84z" />
    <glyph glyph-name="I" unicode="I" horiz-adv-x="264" 
d="M45 0l117 666h84l-117 -666h-84z" />
    <glyph glyph-name="J" unicode="J" horiz-adv-x="254" 
d="M241 666l-120 -682q-9 -49 -34 -77t-122 -105l-44 61q76 58 94.5 79.5t24.5 56.5l117 667h84z" />
    <glyph glyph-name="K" unicode="K" horiz-adv-x="577" 
d="M405 0l-199 339l287 327h106l-300 -329l199 -337h-93zM40 0l117 666h84l-117 -666h-84z" />
    <glyph glyph-name="L" unicode="L" horiz-adv-x="499" 
d="M40 0l118 666h84l-105 -591h290l-13 -75h-374z" />
    <glyph glyph-name="M" unicode="M" horiz-adv-x="800" 
d="M595 0l77 537l-246 -451h-113l-86 451l-111 -537h-84l143 666h102l103 -518l282 518h108l-92 -666h-83z" />
    <glyph glyph-name="N" unicode="N" horiz-adv-x="657" 
d="M413 0l-191 568l-100 -568h-82l117 666h112l192 -576l101 576h82l-117 -666h-114z" />
    <glyph glyph-name="O" unicode="O" horiz-adv-x="619" 
d="M263 -10q-105 0 -156 44.5t-51 120.5q0 22 4 43l48 273q19 107 81.5 156t190.5 49q99 0 154.5 -48t55.5 -125q0 -15 -4 -37l-49 -279q-17 -96 -79.5 -146.5t-194.5 -50.5zM455 194l48 273q4 24 4 36q0 99 -136 99q-84 0 -125.5 -31.5t-54.5 -103.5l-47 -268
q-4 -23 -4 -39q0 -47 31 -71.5t105 -24.5q84 0 125.5 32.5t53.5 97.5z" />
    <glyph glyph-name="P" unicode="P" horiz-adv-x="558" 
d="M318 239h-152l-42 -239h-84l117 666h234q172 0 172 -130q0 -19 -4 -42l-16 -92q-14 -85 -62.5 -124t-162.5 -39zM460 408l16 91q3 16 3 29q0 34 -22 48.5t-73 14.5h-156l-49 -278h155q63 0 90 21.5t36 73.5z" />
    <glyph glyph-name="Q" unicode="Q" horiz-adv-x="619" 
d="M428 -106l-15 -66q-133 29 -264 35l12 65q138 -6 267 -34zM263 -10q-105 0 -156 44.5t-51 120.5q0 22 4 43l48 273q19 107 81.5 156t190.5 49q99 0 154.5 -48t55.5 -125q0 -15 -4 -37l-49 -279q-17 -96 -79.5 -146.5t-194.5 -50.5zM455 194l48 273q4 24 4 36
q0 99 -136 99q-84 0 -125.5 -31.5t-54.5 -103.5l-47 -268q-4 -23 -4 -39q0 -47 31 -71.5t105 -24.5q84 0 125.5 32.5t53.5 97.5z" />
    <glyph glyph-name="R" unicode="R" horiz-adv-x="627" 
d="M458 0l-124 242h-167l-43 -242h-84l118 666h238q176 0 176 -131q0 -19 -3 -36l-17 -96q-11 -64 -39 -98.5t-93 -51.5l130 -253h-92zM469 409l16 90q3 16 3 28q0 35 -23 49.5t-75 14.5h-162l-48 -275h162q62 0 90 20.5t37 72.5z" />
    <glyph glyph-name="S" unicode="S" horiz-adv-x="534" 
d="M214 -10q-101 0 -191 37l19 67q101 -31 180 -31q78 0 108 23.5t41 85.5q7 39 7 52q0 30 -23.5 44t-99.5 34q-85 22 -118 52.5t-33 84.5q0 23 7 67q18 100 67.5 135t169.5 35q90 0 175 -23l-15 -71q-86 20 -165 20q-83 0 -110 -18.5t-38 -79.5q-7 -40 -7 -55
q0 -30 22.5 -45t94.5 -34q91 -24 124.5 -52.5t33.5 -78.5q0 -26 -8 -68q-9 -49 -21.5 -80t-38.5 -55.5t-70 -35t-111 -10.5z" />
    <glyph glyph-name="T" unicode="T" 
d="M364 591l-104 -591h-84l103 591h-197l13 75h480l-13 -75h-198z" />
    <glyph glyph-name="U" unicode="U" horiz-adv-x="631" 
d="M271 -10q-102 0 -154 44.5t-52 118.5q0 19 4 40l83 473h84l-83 -473q-3 -18 -3 -37q0 -47 31 -69.5t101 -22.5q81 0 121.5 33.5t52.5 100.5l83 468h84l-84 -478q-17 -95 -77.5 -146.5t-190.5 -51.5z" />
    <glyph glyph-name="V" unicode="V" horiz-adv-x="588" 
d="M310 0h-118l-97 666h81l84 -593l282 593h88z" />
    <glyph glyph-name="W" unicode="W" horiz-adv-x="906" 
d="M670 0h-122l-42 597l-237 -597h-116l-61 666h79l50 -590l241 590h113l46 -590l240 590h85z" />
    <glyph glyph-name="X" unicode="X" horiz-adv-x="590" 
d="M-10 0l274 341l-149 325h88l120 -264l208 264h99l-271 -334l155 -332h-89l-124 266l-215 -266h-96z" />
    <glyph glyph-name="Y" unicode="Y" horiz-adv-x="535" 
d="M298 198l-35 -198h-84l36 205l-138 461h81l113 -376l237 376h95z" />
    <glyph glyph-name="Z" unicode="Z" horiz-adv-x="570" 
d="M49 0l-2 73l408 519h-330l13 74h412v-73l-408 -520h334l-12 -73h-415z" />
    <glyph glyph-name="bracketleft" unicode="[" horiz-adv-x="307" 
d="M28 -126l162 916h191l-12 -70h-111l-136 -776h109l-12 -70h-191z" />
    <glyph glyph-name="backslash" unicode="\" horiz-adv-x="430" 
d="M240 -117l-107 793h70l107 -793h-70z" />
    <glyph glyph-name="bracketright" unicode="]" horiz-adv-x="305" 
d="M305 790l-162 -916h-191l12 70h111l136 776h-109l12 70h191z" />
    <glyph glyph-name="asciicircum" unicode="^" horiz-adv-x="460" 
d="M373 378l-85 240l-165 -242l-53 39l189 271h72l107 -285z" />
    <glyph glyph-name="underscore" unicode="_" horiz-adv-x="429" 
d="M-1 -42v32h431v-32h-431z" />
    <glyph glyph-name="grave" unicode="`" horiz-adv-x="304" 
d="M242 550q-66 41 -117 87l43 51q45 -44 111 -90z" />
    <glyph glyph-name="a" unicode="a" horiz-adv-x="513" 
d="M470 464l-82 -464h-68l3 59q-78 -69 -182 -69q-103 0 -103 97q0 12 4 38l34 193q17 95 63 137t156 42q87 0 175 -33zM332 146l47 268q-45 12 -94 12q-59 0 -88 -25t-41 -94l-31 -176q-4 -24 -4 -34q0 -36 40 -36q78 0 171 85z" />
    <glyph glyph-name="b" unicode="b" horiz-adv-x="512" 
d="M39 21l117 665l84 12l-47 -266q81 65 179 65q103 0 103 -97q0 -12 -4 -38l-34 -191q-17 -94 -65 -137.5t-158 -43.5q-87 0 -175 31zM178 347l-48 -273q48 -13 98 -13q62 0 89 25t40 96l31 176q4 24 4 32q0 36 -40 36q-38 0 -85.5 -22.5t-88.5 -56.5z" />
    <glyph glyph-name="c" unicode="c" horiz-adv-x="407" 
d="M399 475l-18 -66q-53 17 -104 17q-60 0 -86.5 -25t-39.5 -94l-32 -182q-2 -14 -2 -21q0 -23 13.5 -33t44.5 -10q66 0 151 33l11 -67q-82 -37 -171 -37q-131 0 -131 109q0 15 4 38l32 181q18 100 65 139.5t145 39.5q63 0 118 -22z" />
    <glyph glyph-name="d" unicode="d" horiz-adv-x="517" 
d="M515 698l-123 -698h-72l5 59q-80 -69 -184 -69q-102 0 -102 97q0 20 3 38l34 192q17 96 62.5 138t155.5 42q47 0 101 -13l36 202zM335 142l48 272q-45 12 -98 12q-65 0 -90.5 -24t-38.5 -96l-31 -177q-3 -18 -3 -31q0 -19 8.5 -28t30.5 -9q75 0 174 81z" />
    <glyph glyph-name="e" unicode="e" horiz-adv-x="453" 
d="M134 180l-9 -50q-2 -11 -2 -22q0 -25 15 -37t52 -12q73 0 178 51l18 -61q-108 -59 -207 -59q-137 0 -137 113q0 22 4 45l29 164q17 96 66 140.5t149 44.5q63 0 101 -28.5t38 -81.5q0 -62 -37 -98.5t-138 -70.5q-29 -10 -120 -38zM237 283q115 34 115 95q0 24 -17.5 38
t-50.5 14q-57 0 -86 -24t-39 -83l-12 -67z" />
    <glyph glyph-name="f" unicode="f" horiz-adv-x="352" 
d="M41 -207l-50 51q32 30 47 58t23 76l78 440h-85l12 69h85l15 85q12 70 47.5 102t104.5 32q53 0 104 -20l-17 -63q-44 14 -82 14q-36 0 -52.5 -14.5t-22.5 -50.5l-15 -85h142l-18 -69h-136l-81 -459q-10 -56 -31.5 -91t-67.5 -75z" />
    <glyph glyph-name="g" unicode="g" horiz-adv-x="517" 
d="M473 462l-94 -536q-13 -76 -50 -104.5t-121 -28.5q-102 0 -200 41l17 62q98 -35 186 -35q45 0 62.5 15.5t24.5 55.5l25 141q-79 -63 -179 -63q-103 0 -103 97q0 12 4 38l31 171q17 94 65 137.5t158 43.5q91 0 174 -35zM338 160l45 253q-48 13 -98 13q-62 0 -89 -25
t-40 -96l-28 -156q-4 -24 -4 -32q0 -36 40 -36q38 0 85.5 22.5t88.5 56.5z" />
    <glyph glyph-name="h" unicode="h" horiz-adv-x="530" 
d="M328 0l66 375q2 10 2 17q0 27 -34 27q-66 0 -184 -73l-61 -346h-82l121 686l84 12l-47 -270q40 26 99.5 47.5t99.5 21.5q87 0 87 -86q0 -21 -4 -42l-65 -369h-82z" />
    <glyph glyph-name="i" unicode="i" horiz-adv-x="242" 
d="M134 562l22 124l84 12l-22 -125zM35 0l85 481l84 12l-87 -493h-82z" />
    <glyph glyph-name="j" unicode="j" horiz-adv-x="237" 
d="M204 493l-93 -526q-8 -47 -31 -75.5t-116 -98.5l-42 58q68 51 85.5 72t24.5 58l88 500zM134 562l22 124l84 12l-22 -125z" />
    <glyph glyph-name="k" unicode="k" horiz-adv-x="476" 
d="M315 0l-128 246l207 249l79 -20l-198 -230l130 -245h-90zM35 0l121 686l84 12l-123 -698h-82z" />
    <glyph glyph-name="l" unicode="l" horiz-adv-x="242" 
d="M35 0l121 686l84 12l-123 -698h-82z" />
    <glyph glyph-name="m" unicode="m" horiz-adv-x="822" 
d="M620 0l66 375q2 12 2 17q0 27 -34 27t-86.5 -22t-96.5 -51l-61 -346h-82l66 375q2 12 2 17q0 27 -34 27q-66 0 -184 -73l-61 -346h-82l85 481l72 12l-6 -69q38 27 101 50t105 23q80 0 86 -73q41 29 102.5 51t103.5 22q87 0 87 -86q0 -21 -4 -42l-65 -369h-82z" />
    <glyph glyph-name="n" unicode="n" horiz-adv-x="530" 
d="M392 497q87 0 87 -86q0 -21 -4 -42l-65 -369h-82l66 375q2 12 2 17q0 27 -34 27q-66 0 -184 -73l-61 -346h-82l85 481l72 12l-6 -69q38 27 101 50t105 23z" />
    <glyph glyph-name="o" unicode="o" horiz-adv-x="506" 
d="M207 -10q-100 0 -140.5 51t-25.5 134l25 142q16 91 71 135.5t158 44.5q81 0 125.5 -40t44.5 -105q0 -18 -3 -34l-27 -153q-15 -87 -67.5 -131t-160.5 -44zM354 170l26 148q3 16 3 29q0 79 -100 79q-115 0 -135 -114l-25 -141q-9 -55 11.5 -82.5t84.5 -27.5
q62 0 93.5 26.5t41.5 82.5z" />
    <glyph glyph-name="p" unicode="p" horiz-adv-x="512" 
d="M-2 -209l123 696h72l-5 -59q79 69 184 69q102 0 102 -97q0 -20 -3 -38l-34 -192q-17 -96 -62.5 -138t-155.5 -42q-47 0 -101 13l-36 -200zM177 340l-47 -267q45 -12 98 -12q65 0 90.5 24t38.5 96l31 177q3 18 3 31q0 19 -8.5 28t-30.5 9q-75 0 -175 -86z" />
    <glyph glyph-name="q" unicode="q" horiz-adv-x="517" 
d="M473 462l-116 -659l-84 -12l47 264q-81 -65 -179 -65q-103 0 -103 97q0 12 4 38l34 191q17 94 65 137.5t158 43.5q91 0 174 -35zM335 140l48 273q-48 13 -98 13q-62 0 -89 -25t-40 -96l-31 -176q-4 -24 -4 -32q0 -36 40 -36q38 0 85.5 22.5t88.5 56.5z" />
    <glyph glyph-name="r" unicode="r" horiz-adv-x="314" 
d="M323 497l3 -75q-74 -40 -152 -98l-57 -324h-82l85 481l73 12l-9 -80q62 51 139 84z" />
    <glyph glyph-name="s" unicode="s" horiz-adv-x="411" 
d="M162 -10q-81 0 -143 27l17 64q66 -22 130 -22q53 0 70 12.5t24 53.5q5 31 -10 49t-72 44q-72 33 -93.5 69t-11.5 92q11 65 47.5 91.5t126.5 26.5q73 0 138 -21l-14 -65q-65 17 -126 17q-52 0 -68.5 -11t-23.5 -48q-6 -33 6.5 -48t61.5 -41q86 -46 108 -75t12 -85
q-14 -73 -49 -101.5t-130 -28.5z" />
    <glyph glyph-name="t" unicode="t" horiz-adv-x="363" 
d="M165 -10q-43 0 -65.5 21.5t-22.5 56.5q0 11 2 22l58 329h-86l12 68h86l21 120l84 11l-23 -131h134l-14 -68h-132l-58 -328q-1 -6 -1 -11q0 -21 28 -21q42 0 90 21l19 -57q-66 -33 -132 -33z" />
    <glyph glyph-name="u" unicode="u" horiz-adv-x="530" 
d="M199 493l-67 -381q-2 -12 -2 -17q0 -27 34 -27q66 0 184 73l59 340l85 12l-87 -493h-70l5 63q-38 -27 -101 -50t-105 -23q-87 0 -87 86q0 21 4 42l64 363z" />
    <glyph glyph-name="v" unicode="v" horiz-adv-x="434" 
d="M244 0h-114l-76 480l79 11l62 -426l138 288q18 37 18 74q0 27 -8 54l79 12q8 -34 8 -64q0 -51 -17 -85z" />
    <glyph glyph-name="w" unicode="w" horiz-adv-x="685" 
d="M342 387l-18 89l72 14l81 -423q24 63 95 263q13 38 13 84q0 36 -8 65l75 14q8 -52 8 -77q0 -59 -20 -115l-114 -301h-110l-55 285l-151 -285h-106q0 326 -42 479l75 12q40 -195 36 -425z" />
    <glyph glyph-name="x" unicode="x" horiz-adv-x="460" 
d="M-17 0l202 245l-111 236l77 12l89 -193l144 187h95l-204 -251l114 -236h-85l-84 173l-145 -173h-92z" />
    <glyph glyph-name="y" unicode="y" horiz-adv-x="434" 
d="M244 0q-46 -85 -93.5 -131.5t-138.5 -76.5l-22 63q59 21 97.5 53.5t71.5 91.5h-29l-76 480l79 11l62 -426l138 288q18 37 18 74q0 27 -8 54l79 12q8 -34 8 -64q0 -51 -17 -85z" />
    <glyph glyph-name="z" unicode="z" horiz-adv-x="452" 
d="M35 0l-5 65l296 356h-241l8 66h329v-65l-296 -356h239l-10 -66h-320z" />
    <glyph glyph-name="braceleft" unicode="{" horiz-adv-x="311" 
d="M74 291h-24l11 64h24q26 0 36 10t14 32l49 279q12 64 40 89t98 25h64l-13 -71h-61q-21 0 -31.5 -9t-14.5 -31l-44 -253q0 -1 -2 -11.5t-3 -15t-4 -15.5t-6.5 -17t-10 -14.5t-14.5 -13.5t-19 -9.5t-25 -5.5q53 -11 53 -65q0 -8 -6 -44l-44 -249q-1 -6 -1 -13
q0 -14 7.5 -19t25.5 -5h61l-13 -71h-64q-99 0 -99 82q0 22 4 43l47 266q2 12 2 14q0 28 -37 28z" />
    <glyph glyph-name="bar" unicode="|" horiz-adv-x="255" 
d="M115 -210v1000h55v-1000h-55z" />
    <glyph glyph-name="braceright" unicode="}" horiz-adv-x="312" 
d="M262 357h24l-11 -64h-24q-26 0 -36 -10t-14 -32l-49 -279q-12 -64 -40 -89t-98 -25h-64l13 71h61q21 0 31.5 9t14.5 31l44 253q0 1 2 11.5t3 15t4 15.5t6.5 17t10 14.5t14.5 13.5t19 9.5t25 5.5q-53 11 -53 65q0 8 6 44l44 249q1 6 1 13q0 14 -7.5 19t-25.5 5h-61l13 71
h64q99 0 99 -82q0 -22 -4 -43l-47 -266q-2 -12 -2 -14q0 -28 37 -28z" />
    <glyph glyph-name="asciitilde" unicode="~" horiz-adv-x="506" 
d="M337 203q-37 0 -88 37l-18 14t-19.5 14.5t-17 9t-20.5 4.5q-32 0 -46 -14t-43 -68l-44 29q32 62 60 88t76 26q36 0 89 -43q45 -37 71 -37q9 0 17 1.5t15 7t11 8t10.5 13.5l8.5 14.5t10 19l10 19.5l47 -25q-25 -58 -52.5 -88t-76.5 -30z" />
    <glyph glyph-name="nbspace" unicode="&#xa0;" horiz-adv-x="215" 
 />
    <glyph glyph-name="exclamdown" unicode="&#xa1;" horiz-adv-x="265" 
d="M117 299h47l-12 -172l-57 -324h-82l57 323zM216 487l-19 -110h-85l19 110h85z" />
    <glyph glyph-name="cent" unicode="&#xa2;" horiz-adv-x="422" 
d="M153 -10l17 90q-119 4 -119 109q0 15 4 38l32 181q16 90 55.5 130.5t117.5 46.5l17 92h65l-17 -92q49 -5 90 -20l-18 -66q-53 17 -104 17q-60 0 -86.5 -25t-39.5 -94l-32 -182q-2 -14 -2 -21q0 -23 13.5 -33t44.5 -10q66 0 151 33l11 -67q-55 -25 -118 -34l-17 -93h-65z
" />
    <glyph glyph-name="sterling" unicode="&#xa3;" horiz-adv-x="530" 
d="M39 0l12 70q144 85 144 195q0 15 -3 36h-114l8 64h89q-26 63 -26 119q0 87 48.5 129.5t157.5 42.5q82 0 155 -23q-3 -11 -7.5 -33l-6.5 -32q-60 17 -141 17q-66 0 -95.5 -20.5t-29.5 -82.5q0 -55 27 -117h190l-10 -64h-165q3 -18 3 -38q0 -52 -32 -104.5t-85 -89.5h284
l-12 -69h-391z" />
    <glyph glyph-name="currency" unicode="&#xa4;" horiz-adv-x="550" 
d="M529 537l-69 -66q8 -16 8 -42q0 -14 -2 -26l-24 -138q-9 -49 -28 -74l52 -64l-55 -48l-56 68q-34 -14 -96 -14q-47 0 -78 13l-65 -61l-49 50l61 57q-9 21 -9 44q0 15 3 30l25 141q9 47 29 73l-51 63l55 48l55 -69q36 15 95 15q50 0 82 -18l70 66zM218 392l-20 -113
q-3 -18 -3 -31q0 -25 16.5 -36.5t59.5 -11.5q49 0 70 17.5t29 60.5l20 114q3 15 3 26q0 27 -17 39.5t-58 12.5q-50 0 -71 -17.5t-29 -60.5z" />
    <glyph glyph-name="yen" unicode="&#xa5;" horiz-adv-x="535" 
d="M63 306l11 56h94l-84 284h81l106 -358l224 358h95l-185 -284h95l-10 -56h-122l-70 -108l-2 -10h174l-10 -54h-174l-23 -134h-84l23 134h-169l11 54h168l3 17l-30 101h-122z" />
    <glyph glyph-name="brokenbar" unicode="&#xa6;" horiz-adv-x="255" 
d="M115 374v416h55v-416h-55zM115 -210v416h55v-416h-55z" />
    <glyph glyph-name="section" unicode="&#xa7;" horiz-adv-x="548" 
d="M396 590q-80 23 -134 23q-38 0 -53.5 -12t-20.5 -46q-10 -54 -10 -129q0 -179 51 -413l-70 -13q-54 230 -54 428q0 76 9 136q11 61 43 86.5t109 25.5q72 0 145 -28zM159 -100q80 -23 134 -23q38 0 53.5 12t20.5 46q10 54 10 129q0 179 -51 413l70 13q54 -229 54 -428
q0 -76 -9 -136q-11 -61 -43 -86.5t-109 -25.5q-72 0 -145 28z" />
    <glyph glyph-name="dieresis" unicode="&#xa8;" horiz-adv-x="398" 
d="M120 563l15 84l78 3l-15 -84zM300 563l15 84l78 3l-15 -84z" />
    <glyph glyph-name="copyright" unicode="&#xa9;" horiz-adv-x="803" 
d="M414 -10q-155 0 -248.5 98.5t-93.5 244.5q0 147 93.5 245.5t248.5 98.5t248.5 -98.5t93.5 -245.5q0 -146 -93.5 -244.5t-248.5 -98.5zM414 620q-127 0 -204 -82t-77 -205q0 -122 77 -204t204 -82t204 81.5t77 204.5t-77 205t-204 82zM418 160q-70 0 -98.5 26t-28.5 83
v129q0 57 28.5 83t98.5 26q50 0 99 -15l-9 -49q-40 11 -85 11q-44 0 -58 -10.5t-14 -43.5v-133q0 -33 14 -43.5t58 -10.5q45 0 85 11l9 -49q-49 -15 -99 -15z" />
    <glyph glyph-name="ordfeminine" unicode="&#xaa;" horiz-adv-x="392" 
d="M281 389l3 33q-51 -39 -107 -39q-79 0 -64 87l19 108q11 66 41 92t99 26q53 0 110 -21l-50 -286h-51zM290 480l28 161q-22 5 -51 5q-38 0 -54.5 -15t-23.5 -58l-19 -108q-5 -32 17 -32q49 0 103 47z" />
    <glyph glyph-name="guillemotleft" unicode="&#xab;" horiz-adv-x="480" 
d="M138 52l-92 192l157 193l54 -47l-126 -149l72 -157zM335 52l-92 192l157 193l54 -47l-126 -149l72 -157z" />
    <glyph glyph-name="logicalnot" unicode="&#xac;" horiz-adv-x="549" 
d="M393 59v173h-333v67h404v-240h-71z" />
    <glyph glyph-name="registered" unicode="&#xae;" horiz-adv-x="468" 
d="M284 334q-81 0 -130 52t-49 129t49 129t130 52t130 -52t49 -129t-49 -129t-130 -52zM284 658q-66 0 -102.5 -40.5t-36.5 -102.5t36.5 -102.5t102.5 -40.5q67 0 103.5 40.5t36.5 102.5t-36.5 102.5t-103.5 40.5zM332 437l-41 55h-35v-55h-27v164h65q50 0 50 -44v-19
q0 -31 -24 -41l43 -60h-31zM318 556q0 21 -25 21h-37v-61h37q25 0 25 20v20z" />
    <glyph glyph-name="macron" unicode="&#xaf;" horiz-adv-x="379" 
d="M125 566l10 59h239l-10 -59h-239z" />
    <glyph glyph-name="degree" unicode="&#xb0;" horiz-adv-x="345" 
d="M206 429q-45 0 -70.5 25.5t-25.5 65.5q0 59 35.5 97.5t98.5 38.5q45 0 70.5 -25.5t25.5 -65.5q0 -59 -35 -97.5t-99 -38.5zM238 615q-37 0 -59 -25.5t-22 -63.5q0 -56 56 -56q39 0 59.5 26t20.5 63q0 25 -14 40.5t-41 15.5z" />
    <glyph glyph-name="plusminus" unicode="&#xb1;" horiz-adv-x="531" 
d="M301 301v-169h-71v169h-167v68h167v170h71v-170h166v-68h-166zM63 0v66h404v-66h-404z" />
    <glyph glyph-name="twosuperior" unicode="&#xb2;" horiz-adv-x="385" 
d="M69 243l5 52l119 118q61 61 75 79t18 40l3 17q5 27 -6.5 37t-49.5 10q-41 0 -94 -12l-8 55q55 17 117 17q58 0 88 -24.5t21 -76.5l-4 -22q-6 -34 -19.5 -54.5t-66.5 -75.5l-102 -103h148l-10 -57h-234z" />
    <glyph glyph-name="threesuperior" unicode="&#xb3;" horiz-adv-x="388" 
d="M186 236q-52 0 -106 17l12 50q55 -13 97 -13q41 0 54.5 9t18.5 36l7 40q1 5 1 11q0 35 -48 35h-86l8 52h86q28 0 39.5 10t15.5 33l8 45q1 6 1 13q0 17 -12 22.5t-44 5.5q-45 0 -88 -8l-3 50q48 12 102 12q110 0 110 -73q0 -10 -2 -22l-8 -44q-5 -28 -16 -43t-40 -26
q42 -12 42 -55q0 -7 -2 -19l-7 -39q-10 -56 -39.5 -77.5t-100.5 -21.5z" />
    <glyph glyph-name="acute" unicode="&#xb4;" horiz-adv-x="302" 
d="M154 550l-29 52q80 40 148 88l31 -55q-64 -44 -150 -85z" />
    <glyph glyph-name="mu" unicode="&#xb5;" horiz-adv-x="530" 
d="M-5 -197l120 678l84 12l-67 -381q-2 -10 -2 -17q0 -27 34 -27q66 0 184 73l59 340l85 12l-87 -493h-70l5 63q-38 -27 -101 -50t-105 -23q-10 0 -24 2l-33 -189h-82z" />
    <glyph glyph-name="paragraph" unicode="&#xb6;" horiz-adv-x="503" 
d="M91 418q0 116 68 182t179 66l-73 -416q-79 0 -126.5 47t-47.5 121zM201 -207l-37 47q83 72 102.5 94.5t24.5 48.5l120 683h70l-118 -666q-8 -44 -18.5 -65t-38 -48.5t-105.5 -93.5z" />
    <glyph glyph-name="periodcentered" unicode="&#xb7;" horiz-adv-x="259" 
d="M90 270l19 110h85l-19 -110h-85z" />
    <glyph glyph-name="cedilla" unicode="&#xb8;" horiz-adv-x="303" 
d="M74 -204q-36 0 -74 14l12 40q30 -10 62 -10q62 0 62 40q0 23 -37 23q-23 0 -47 -3l-9 15l32 91h46l-24 -70q17 3 31 3q28 0 44 -14.5t16 -39.5q0 -41 -29.5 -65t-84.5 -24z" />
    <glyph glyph-name="onesuperior" unicode="&#xb9;" horiz-adv-x="332" 
d="M158 242l58 329l-84 -38l-20 48l131 65h53l-71 -404h-67z" />
    <glyph glyph-name="ordmasculine" unicode="&#xba;" horiz-adv-x="387" 
d="M217 383q-62 0 -87.5 32.5t-16.5 83.5l15 86q10 57 41.5 84t100.5 27q57 0 85 -33t19 -84l-15 -85q-10 -55 -41.5 -83t-100.5 -28zM302 494l16 91q11 62 -55 62q-37 0 -55.5 -14t-24.5 -49l-16 -90q-5 -31 7.5 -46.5t49.5 -15.5q67 0 78 62z" />
    <glyph glyph-name="guillemotright" unicode="&#xbb;" horiz-adv-x="480" 
d="M353 437l92 -192l-157 -193l-54 47l126 149l-72 157zM156 437l92 -192l-157 -193l-54 47l126 149l-72 157z" />
    <glyph glyph-name="onequarter" unicode="&#xbc;" horiz-adv-x="834" 
d="M680 87l-15 -87h-62l15 87h-184l5 54l207 263h90l-47 -264h58l-8 -53h-59zM664 348l-159 -208h122zM231 -33l-46 28l395 684l46 -26zM163 242l58 329l-84 -38l-20 48l131 65h53l-71 -404h-67z" />
    <glyph glyph-name="onehalf" unicode="&#xbd;" horiz-adv-x="855" 
d="M231 -33l-46 28l395 684l46 -26zM163 242l58 329l-84 -38l-20 48l131 65h53l-71 -404h-67zM495 0l5 52l119 118q61 61 75 79t18 40l3 17q5 27 -6.5 37t-49.5 10q-41 0 -94 -12l-8 55q55 17 117 17q58 0 88 -24.5t21 -76.5l-4 -22q-6 -34 -19.5 -54.5t-66.5 -75.5
l-102 -103h148l-10 -57h-234z" />
    <glyph glyph-name="threequarters" unicode="&#xbe;" horiz-adv-x="870" 
d="M191 236q-52 0 -106 17l12 50q55 -13 97 -13q41 0 54.5 9t18.5 36l7 40q1 5 1 11q0 35 -48 35h-86l8 52h86q28 0 39.5 10t15.5 33l8 45q1 6 1 13q0 17 -12 22.5t-44 5.5q-45 0 -88 -8l-3 50q48 12 102 12q110 0 110 -73q0 -10 -2 -22l-8 -44q-5 -28 -16 -43t-40 -26
q42 -12 42 -55q0 -7 -2 -19l-7 -39q-10 -56 -39.5 -77.5t-100.5 -21.5zM716 87l-15 -87h-62l15 87h-184l5 54l207 263h90l-47 -264h58l-8 -53h-59zM700 348l-159 -208h122zM267 -33l-46 28l395 684l46 -26z" />
    <glyph glyph-name="questiondown" unicode="&#xbf;" horiz-adv-x="475" 
d="M206 209l85 55l38 -60l-122 -82q-47 -32 -60.5 -55t-24.5 -83q-7 -38 -7 -59q0 -35 21 -47t83 -12q58 0 134 16l8 -71q-77 -18 -159 -18q-89 0 -129 29t-40 90q0 26 7 68q8 44 13 64.5t14.5 43.5t27.5 39.5t42.5 35t68.5 46.5zM380 487l-19 -110h-85l19 110h85z" />
    <glyph glyph-name="Agrave" unicode="&#xc0;" horiz-adv-x="621" 
d="M465 0l-24 162h-278l-83 -162h-88l335 666h120l104 -666h-86zM379 608l-182 -374h233zM400 717q-54 31 -112 78l39 49q43 -37 107 -80z" />
    <glyph glyph-name="Aacute" unicode="&#xc1;" horiz-adv-x="621" 
d="M465 0l-24 162h-278l-83 -162h-88l335 666h120l104 -666h-86zM379 608l-182 -374h233zM390 716l-30 49q69 42 116 78l34 -53q-58 -43 -120 -74z" />
    <glyph glyph-name="Acircumflex" unicode="&#xc2;" horiz-adv-x="621" 
d="M465 0l-24 162h-278l-83 -162h-88l335 666h120l104 -666h-86zM379 608l-182 -374h233zM489 715q-48 25 -90 53q-44 -28 -94 -53l-25 46q74 42 128 78q47 -39 109 -82z" />
    <glyph glyph-name="Atilde" unicode="&#xc3;" horiz-adv-x="621" 
d="M465 0l-24 162h-278l-83 -162h-88l335 666h120l104 -666h-86zM379 608l-182 -374h233zM458 724q-24 0 -59 19t-49 19q-22 0 -59 -35l-30 31q38 62 96 62q21 0 55 -19t50 -19q24 0 49 29l35 -25q-35 -62 -88 -62z" />
    <glyph glyph-name="Adieresis" unicode="&#xc4;" horiz-adv-x="621" 
d="M465 0l-24 162h-278l-83 -162h-88l335 666h120l104 -666h-86zM379 608l-182 -374h233zM266 732l13 75h79l-13 -75h-79zM453 732l13 75h79l-13 -75h-79z" />
    <glyph glyph-name="Aring" unicode="&#xc5;" horiz-adv-x="621" 
d="M465 0l-24 162h-278l-83 -162h-88l335 666h120l104 -666h-86zM379 608l-182 -374h233zM397 711q-27 0 -43.5 15.5t-16.5 40.5q0 38 22 59.5t61 21.5q28 0 44 -15t16 -38q0 -36 -21 -60t-62 -24zM415 815q-17 0 -28 -12t-11 -31q0 -26 26 -26q38 0 38 44q0 25 -25 25z" />
    <glyph glyph-name="AE" unicode="&#xc6;" horiz-adv-x="847" 
d="M465 0l-24 162h-278l-83 -162h-88l335 666h531l-14 -75h-386l34 -213h293l-13 -74h-269l36 -229h215l-13 -75h-276zM379 608l-182 -374h233z" />
    <glyph glyph-name="Ccedilla" unicode="&#xc7;" horiz-adv-x="516" 
d="M224 -204q-36 0 -74 14l12 40q30 -10 62 -10q62 0 62 40q0 23 -37 23q-23 0 -47 -3l-9 15l26 76q-165 13 -165 153q0 19 5 49l51 289q19 104 78 149t180 45q90 0 166 -21l-17 -72q-83 18 -156 18q-82 0 -119 -28t-50 -102l-49 -279q-4 -21 -4 -42q0 -46 29 -65.5
t99 -19.5q74 0 159 16l3 -72q-75 -16 -164 -19l-18 -54q16 3 31 3q28 0 44 -14.5t16 -39.5q0 -41 -29.5 -65t-84.5 -24z" />
    <glyph glyph-name="Egrave" unicode="&#xc8;" horiz-adv-x="534" 
d="M40 0l117 666h388l-14 -75h-302l-37 -213h280l-13 -74h-281l-41 -229h304l-13 -75h-388zM370 717q-54 31 -112 78l39 49q43 -37 107 -80z" />
    <glyph glyph-name="Eacute" unicode="&#xc9;" horiz-adv-x="534" 
d="M40 0l117 666h388l-14 -75h-302l-37 -213h280l-13 -74h-281l-41 -229h304l-13 -75h-388zM341 716l-30 49q69 42 116 78l34 -53q-58 -43 -120 -74z" />
    <glyph glyph-name="Ecircumflex" unicode="&#xca;" horiz-adv-x="534" 
d="M40 0l117 666h388l-14 -75h-302l-37 -213h280l-13 -74h-281l-41 -229h304l-13 -75h-388zM453 715q-48 25 -90 53q-44 -28 -94 -53l-25 46q74 42 128 78q47 -39 109 -82z" />
    <glyph glyph-name="Edieresis" unicode="&#xcb;" horiz-adv-x="534" 
d="M40 0l117 666h388l-14 -75h-302l-37 -213h280l-13 -74h-281l-41 -229h304l-13 -75h-388zM224 732l13 75h79l-13 -75h-79zM411 732l13 75h79l-13 -75h-79z" />
    <glyph glyph-name="Igrave" unicode="&#xcc;" horiz-adv-x="264" 
d="M45 0l117 666h84l-117 -666h-84zM218 717q-54 31 -112 78l39 49q43 -37 107 -80z" />
    <glyph glyph-name="Iacute" unicode="&#xcd;" horiz-adv-x="264" 
d="M45 0l117 666h84l-117 -666h-84zM199 716l-30 49q69 42 116 78l34 -53q-58 -43 -120 -74z" />
    <glyph glyph-name="Icircumflex" unicode="&#xce;" horiz-adv-x="264" 
d="M45 0l117 666h84l-117 -666h-84zM308 715q-48 25 -90 53q-44 -28 -94 -53l-25 46q74 42 128 78q47 -39 109 -82z" />
    <glyph glyph-name="Idieresis" unicode="&#xcf;" horiz-adv-x="264" 
d="M45 0l117 666h84l-117 -666h-84zM82 732l13 75h79l-13 -75h-79zM269 732l13 75h79l-13 -75h-79z" />
    <glyph glyph-name="Eth" unicode="&#xd0;" horiz-adv-x="619" 
d="M42 304l12 68h77l52 294h224q98 0 143 -41.5t45 -112.5q0 -25 -4 -46l-51 -290q-11 -63 -34.5 -99.5t-72 -56.5t-129.5 -20h-238l53 304h-77zM459 192l48 273q4 26 4 41q0 42 -26.5 63.5t-88.5 21.5h-142l-39 -219h126l-12 -68h-126l-40 -229h141q79 0 111 25.5t44 91.5z
" />
    <glyph glyph-name="Ntilde" unicode="&#xd1;" horiz-adv-x="657" 
d="M413 0l-191 568l-100 -568h-82l117 666h112l192 -576l101 576h82l-117 -666h-114zM469 724q-24 0 -59 19t-49 19q-22 0 -59 -35l-30 31q38 62 96 62q22 0 56 -19t49 -19q24 0 49 29l35 -25q-35 -62 -88 -62z" />
    <glyph glyph-name="Ograve" unicode="&#xd2;" horiz-adv-x="619" 
d="M263 -10q-105 0 -156 44.5t-51 120.5q0 22 4 43l48 273q19 107 81.5 156t190.5 49q99 0 154.5 -48t55.5 -125q0 -15 -4 -37l-49 -279q-17 -96 -79.5 -146.5t-194.5 -50.5zM455 194l48 273q4 24 4 36q0 99 -136 99q-84 0 -125.5 -31.5t-54.5 -103.5l-47 -268
q-4 -23 -4 -39q0 -47 31 -71.5t105 -24.5q84 0 125.5 32.5t53.5 97.5zM385 717q-54 31 -112 78l39 49q43 -37 107 -80z" />
    <glyph glyph-name="Oacute" unicode="&#xd3;" horiz-adv-x="619" 
d="M263 -10q-105 0 -156 44.5t-51 120.5q0 22 4 43l48 273q19 107 81.5 156t190.5 49q99 0 154.5 -48t55.5 -125q0 -15 -4 -37l-49 -279q-17 -96 -79.5 -146.5t-194.5 -50.5zM455 194l48 273q4 24 4 36q0 99 -136 99q-84 0 -125.5 -31.5t-54.5 -103.5l-47 -268
q-4 -23 -4 -39q0 -47 31 -71.5t105 -24.5q84 0 125.5 32.5t53.5 97.5zM375 716l-30 49q69 42 116 78l34 -53q-58 -43 -120 -74z" />
    <glyph glyph-name="Ocircumflex" unicode="&#xd4;" horiz-adv-x="619" 
d="M263 -10q-105 0 -156 44.5t-51 120.5q0 22 4 43l48 273q19 107 81.5 156t190.5 49q99 0 154.5 -48t55.5 -125q0 -15 -4 -37l-49 -279q-17 -96 -79.5 -146.5t-194.5 -50.5zM455 194l48 273q4 24 4 36q0 99 -136 99q-84 0 -125.5 -31.5t-54.5 -103.5l-47 -268
q-4 -23 -4 -39q0 -47 31 -71.5t105 -24.5q84 0 125.5 32.5t53.5 97.5zM479 715q-48 25 -90 53q-44 -28 -94 -53l-25 46q74 42 128 78q47 -39 109 -82z" />
    <glyph glyph-name="Otilde" unicode="&#xd5;" horiz-adv-x="619" 
d="M263 -10q-105 0 -156 44.5t-51 120.5q0 22 4 43l48 273q19 107 81.5 156t190.5 49q99 0 154.5 -48t55.5 -125q0 -15 -4 -37l-49 -279q-17 -96 -79.5 -146.5t-194.5 -50.5zM455 194l48 273q4 24 4 36q0 99 -136 99q-84 0 -125.5 -31.5t-54.5 -103.5l-47 -268
q-4 -23 -4 -39q0 -47 31 -71.5t105 -24.5q84 0 125.5 32.5t53.5 97.5zM451 724q-24 0 -59 19t-49 19q-22 0 -59 -35l-30 31q38 62 96 62q22 0 56 -19t49 -19q24 0 49 29l35 -25q-35 -62 -88 -62z" />
    <glyph glyph-name="Odieresis" unicode="&#xd6;" horiz-adv-x="619" 
d="M263 -10q-105 0 -156 44.5t-51 120.5q0 22 4 43l48 273q19 107 81.5 156t190.5 49q99 0 154.5 -48t55.5 -125q0 -15 -4 -37l-49 -279q-17 -96 -79.5 -146.5t-194.5 -50.5zM455 194l48 273q4 24 4 36q0 99 -136 99q-84 0 -125.5 -31.5t-54.5 -103.5l-47 -268
q-4 -23 -4 -39q0 -47 31 -71.5t105 -24.5q84 0 125.5 32.5t53.5 97.5zM257 732l13 75h79l-13 -75h-79zM444 732l13 75h79l-13 -75h-79z" />
    <glyph glyph-name="multiply" unicode="&#xd7;" horiz-adv-x="524" 
d="M408 51l-141 142l-141 -142l-49 49l141 142l-141 142l49 49l141 -141l141 141l49 -49l-141 -142l141 -142z" />
    <glyph glyph-name="Oslash" unicode="&#xd8;" horiz-adv-x="619" 
d="M27 -33l63 84q-34 41 -34 104q0 22 4 43l48 273q19 107 81.5 156t190.5 49q90 0 147 -42l69 92l36 -27l-73 -97q31 -43 31 -99q0 -15 -4 -37l-49 -279q-17 -96 -79.5 -146.5t-194.5 -50.5q-87 0 -138 31l-61 -81zM140 160q0 -22 5 -36l335 448q-33 30 -109 30
q-84 0 -125.5 -31.5t-54.5 -103.5l-47 -268q-4 -23 -4 -39zM455 194l48 273q4 24 4 36q0 14 -3 26l-331 -443q35 -22 103 -22q84 0 125.5 32.5t53.5 97.5z" />
    <glyph glyph-name="Ugrave" unicode="&#xd9;" horiz-adv-x="631" 
d="M271 -10q-102 0 -154 44.5t-52 118.5q0 19 4 40l83 473h84l-83 -473q-3 -18 -3 -37q0 -47 31 -69.5t101 -22.5q81 0 121.5 33.5t52.5 100.5l83 468h84l-84 -478q-17 -95 -77.5 -146.5t-190.5 -51.5zM410 717q-54 31 -112 78l39 49q43 -37 107 -80z" />
    <glyph glyph-name="Uacute" unicode="&#xda;" horiz-adv-x="631" 
d="M271 -10q-102 0 -154 44.5t-52 118.5q0 19 4 40l83 473h84l-83 -473q-3 -18 -3 -37q0 -47 31 -69.5t101 -22.5q81 0 121.5 33.5t52.5 100.5l83 468h84l-84 -478q-17 -95 -77.5 -146.5t-190.5 -51.5zM371 716l-30 49q69 42 116 78l34 -53q-58 -43 -120 -74z" />
    <glyph glyph-name="Ucircumflex" unicode="&#xdb;" horiz-adv-x="631" 
d="M271 -10q-102 0 -154 44.5t-52 118.5q0 19 4 40l83 473h84l-83 -473q-3 -18 -3 -37q0 -47 31 -69.5t101 -22.5q81 0 121.5 33.5t52.5 100.5l83 468h84l-84 -478q-17 -95 -77.5 -146.5t-190.5 -51.5zM492 715q-48 25 -90 53q-44 -28 -94 -53l-25 46q74 42 128 78
q47 -39 109 -82z" />
    <glyph glyph-name="Udieresis" unicode="&#xdc;" horiz-adv-x="631" 
d="M271 -10q-102 0 -154 44.5t-52 118.5q0 19 4 40l83 473h84l-83 -473q-3 -18 -3 -37q0 -47 31 -69.5t101 -22.5q81 0 121.5 33.5t52.5 100.5l83 468h84l-84 -478q-17 -95 -77.5 -146.5t-190.5 -51.5zM264 732l13 75h79l-13 -75h-79zM451 732l13 75h79l-13 -75h-79z" />
    <glyph glyph-name="Yacute" unicode="&#xdd;" horiz-adv-x="535" 
d="M298 198l-35 -198h-84l36 205l-138 461h81l113 -376l237 376h95zM319 716l-30 49q69 42 116 78l34 -53q-58 -43 -120 -74z" />
    <glyph glyph-name="Thorn" unicode="&#xde;" horiz-adv-x="561" 
d="M298 122h-152l-22 -122h-84l117 666h84l-20 -117h150q172 0 172 -130q0 -19 -4 -42l-16 -92q-14 -85 -62.5 -124t-162.5 -39zM440 291l16 91q3 16 3 29q0 34 -22 48.5t-73 14.5h-156l-49 -278h155q63 0 90 21.5t36 73.5z" />
    <glyph glyph-name="germandbls" unicode="&#xdf;" horiz-adv-x="587" 
d="M35 -28l98 556q17 97 64 137.5t151 40.5q78 0 121.5 -34.5t43.5 -91.5q0 -44 -11 -70.5t-52 -87.5l-12 -17.5l-10.5 -15.5t-8.5 -13t-7 -11.5l-5.5 -9.5t-4.5 -9.5t-2.5 -8t-2 -8.5t-0.5 -8q0 -12 10.5 -25t45.5 -43q42 -36 55.5 -54.5t13.5 -42.5q0 -86 -35.5 -126
t-136.5 -40q-59 0 -106 19l15 63q47 -14 95 -14t66.5 16t18.5 64q0 15 -10.5 27t-52.5 47q-62 52 -62 99q0 32 11 57t39 63q41 56 53.5 83t12.5 57q0 31 -23.5 48.5t-67.5 17.5q-57 0 -85.5 -25t-39.5 -90l-98 -559q-10 -58 -31 -93.5t-68 -76.5l-50 51q33 30 46 55t22 73z
" />
    <glyph glyph-name="agrave" unicode="&#xe0;" horiz-adv-x="513" 
d="M470 464l-82 -464h-68l3 59q-78 -69 -182 -69q-103 0 -103 97q0 12 4 38l34 193q17 95 63 137t156 42q87 0 175 -33zM332 146l47 268q-45 12 -94 12q-59 0 -88 -25t-41 -94l-31 -176q-4 -24 -4 -34q0 -36 40 -36q78 0 171 85zM336 550q-66 41 -117 87l43 51
q45 -44 111 -90z" />
    <glyph glyph-name="aacute" unicode="&#xe1;" horiz-adv-x="513" 
d="M470 464l-82 -464h-68l3 59q-78 -69 -182 -69q-103 0 -103 97q0 12 4 38l34 193q17 95 63 137t156 42q87 0 175 -33zM332 146l47 268q-45 12 -94 12q-59 0 -88 -25t-41 -94l-31 -176q-4 -24 -4 -34q0 -36 40 -36q78 0 171 85zM276 550l-29 52q80 40 148 88l31 -55
q-64 -44 -150 -85z" />
    <glyph glyph-name="acircumflex" unicode="&#xe2;" horiz-adv-x="513" 
d="M470 464l-82 -464h-68l3 59q-78 -69 -182 -69q-103 0 -103 97q0 12 4 38l34 193q17 95 63 137t156 42q87 0 175 -33zM332 146l47 268q-45 12 -94 12q-59 0 -88 -25t-41 -94l-31 -176q-4 -24 -4 -34q0 -36 40 -36q78 0 171 85zM416 542q-46 26 -93 64q-42 -33 -105 -64
l-26 47q84 50 140 91q37 -38 114 -95z" />
    <glyph glyph-name="atilde" unicode="&#xe3;" horiz-adv-x="513" 
d="M470 464l-82 -464h-68l3 59q-78 -69 -182 -69q-103 0 -103 97q0 12 4 38l34 193q17 95 63 137t156 42q87 0 175 -33zM332 146l47 268q-45 12 -94 12q-59 0 -88 -25t-41 -94l-31 -176q-4 -24 -4 -34q0 -36 40 -36q78 0 171 85zM378 554q-24 0 -59 19t-49 19q-5 0 -9.5 -1
t-9.5 -3.5l-8 -4t-8.5 -6t-7.5 -6t-8 -7.5l-7 -7l-31 31q38 62 96 62q21 0 55.5 -19t50.5 -19q23 0 49 29l35 -25q-35 -62 -89 -62z" />
    <glyph glyph-name="adieresis" unicode="&#xe4;" horiz-adv-x="513" 
d="M470 464l-82 -464h-68l3 59q-78 -69 -182 -69q-103 0 -103 97q0 12 4 38l34 193q17 95 63 137t156 42q87 0 175 -33zM332 146l47 268q-45 12 -94 12q-59 0 -88 -25t-41 -94l-31 -176q-4 -24 -4 -34q0 -36 40 -36q78 0 171 85zM190 563l15 84l78 3l-15 -84zM370 563l15 84
l78 3l-15 -84z" />
    <glyph glyph-name="aring" unicode="&#xe5;" horiz-adv-x="513" 
d="M470 464l-82 -464h-68l3 59q-78 -69 -182 -69q-103 0 -103 97q0 12 4 38l34 193q17 95 63 137t156 42q87 0 175 -33zM332 146l47 268q-45 12 -94 12q-59 0 -88 -25t-41 -94l-31 -176q-4 -24 -4 -34q0 -36 40 -36q78 0 171 85zM317 542q-29 0 -46 16.5t-17 42.5
q0 39 23.5 62.5t64.5 23.5q29 0 46 -16.5t17 -40.5q0 -37 -22.5 -62.5t-65.5 -25.5zM337 653q-19 0 -31 -13t-12 -34q0 -29 29 -29q19 0 30 13.5t11 34.5q0 28 -27 28z" />
    <glyph glyph-name="ae" unicode="&#xe6;" horiz-adv-x="718" 
d="M396 198l-12 -65q-2 -14 -2 -21q0 -53 74 -53q79 0 180 49l18 -62q-104 -56 -208 -56q-95 0 -127 53q-80 -53 -181 -53q-56 0 -86 28.5t-30 78.5q0 90 42.5 127t127.5 37h133l14 80q3 15 3 26q0 33 -22.5 46.5t-73.5 13.5q-71 0 -143 -16l-9 63q79 23 165 23
q111 0 137 -71q53 71 157 71q62 0 98 -31t36 -88q0 -84 -70.5 -124t-220.5 -56zM416 311l-9 -49q111 10 157.5 38t46.5 78q0 21 -15 36.5t-50 15.5q-108 0 -130 -119zM314 197h-118q-51 0 -72.5 -19.5t-21.5 -77.5q0 -43 60 -43q69 0 141 40q-3 18 3 50q1 8 8 50z" />
    <glyph glyph-name="ccedilla" unicode="&#xe7;" horiz-adv-x="409" 
d="M154 -204q-35 0 -74 14l12 40q30 -10 62 -10q62 0 62 40q0 23 -37 23q-23 0 -47 -3l-9 15l26 76q-114 7 -114 108q0 19 4 39l35 181q19 100 65.5 139t143.5 39q61 0 118 -22l-18 -66q-53 17 -104 17q-60 0 -86.5 -25t-39.5 -94l-32 -182q-2 -14 -2 -21q0 -23 13.5 -33
t44.5 -10q66 0 151 33l11 -67q-67 -30 -143 -36l-19 -55q17 3 31 3q28 0 44 -14.5t16 -39.5q0 -41 -29.5 -65t-84.5 -24z" />
    <glyph glyph-name="egrave" unicode="&#xe8;" horiz-adv-x="453" 
d="M134 180l-9 -50q-2 -11 -2 -22q0 -25 15 -37t52 -12q73 0 178 51l18 -61q-108 -59 -207 -59q-137 0 -137 113q0 22 4 45l29 164q17 96 66 140.5t149 44.5q63 0 101 -28.5t38 -81.5q0 -62 -37 -98.5t-138 -70.5q-29 -10 -120 -38zM237 283q115 34 115 95q0 24 -17.5 38
t-50.5 14q-57 0 -86 -24t-39 -83l-12 -67zM300 550q-66 41 -117 87l43 51q45 -44 111 -90z" />
    <glyph glyph-name="eacute" unicode="&#xe9;" horiz-adv-x="453" 
d="M134 180l-9 -50q-2 -11 -2 -22q0 -25 15 -37t52 -12q73 0 178 51l18 -61q-108 -59 -207 -59q-137 0 -137 113q0 22 4 45l29 164q17 96 66 140.5t149 44.5q63 0 101 -28.5t38 -81.5q0 -62 -37 -98.5t-138 -70.5q-29 -10 -120 -38zM237 283q115 34 115 95q0 24 -17.5 38
t-50.5 14q-57 0 -86 -24t-39 -83l-12 -67zM263 550l-29 52q80 40 148 88l31 -55q-64 -44 -150 -85z" />
    <glyph glyph-name="ecircumflex" unicode="&#xea;" horiz-adv-x="453" 
d="M134 180l-9 -50q-2 -11 -2 -22q0 -25 15 -37t52 -12q73 0 178 51l18 -61q-108 -59 -207 -59q-137 0 -137 113q0 22 4 45l29 164q17 96 66 140.5t149 44.5q63 0 101 -28.5t38 -81.5q0 -62 -37 -98.5t-138 -70.5q-29 -10 -120 -38zM237 283q115 34 115 95q0 24 -17.5 38
t-50.5 14q-57 0 -86 -24t-39 -83l-12 -67zM393 542q-46 26 -93 64q-42 -33 -105 -64l-26 47q84 50 140 91q37 -38 114 -95z" />
    <glyph glyph-name="edieresis" unicode="&#xeb;" horiz-adv-x="453" 
d="M134 180l-9 -50q-2 -11 -2 -22q0 -25 15 -37t52 -12q73 0 178 51l18 -61q-108 -59 -207 -59q-137 0 -137 113q0 22 4 45l29 164q17 96 66 140.5t149 44.5q63 0 101 -28.5t38 -81.5q0 -62 -37 -98.5t-138 -70.5q-29 -10 -120 -38zM237 283q115 34 115 95q0 24 -17.5 38
t-50.5 14q-57 0 -86 -24t-39 -83l-12 -67zM166 563l15 84l78 3l-15 -84zM346 563l15 84l78 3l-15 -84z" />
    <glyph glyph-name="igrave" unicode="&#xec;" horiz-adv-x="242" 
d="M35 0l85 481l84 12l-87 -493h-82zM177 550q-66 41 -117 87l43 51q45 -44 111 -90z" />
    <glyph glyph-name="iacute" unicode="&#xed;" horiz-adv-x="242" 
d="M35 0l85 481l84 12l-87 -493h-82zM155 550l-29 52q80 40 148 88l31 -55q-64 -44 -150 -85z" />
    <glyph glyph-name="icircumflex" unicode="&#xee;" horiz-adv-x="242" 
d="M35 0l85 481l84 12l-87 -493h-82zM272 542q-46 26 -93 64q-42 -33 -105 -64l-26 47q84 50 140 91q37 -38 114 -95z" />
    <glyph glyph-name="idieresis" unicode="&#xef;" horiz-adv-x="242" 
d="M35 0l85 481l84 12l-87 -493h-82zM48 563l15 84l78 3l-15 -84zM228 563l15 84l78 3l-15 -84z" />
    <glyph glyph-name="eth" unicode="&#xf0;" 
d="M229 556l82 44q-47 28 -102 40l20 60q87 -18 149 -64l84 45l24 -45l-68 -36q66 -69 66 -179q0 -28 -6 -64l-33 -187q-15 -88 -68 -134t-161 -46q-86 0 -127.5 38.5t-41.5 104.5q0 19 4 43l18 102q17 95 61.5 138.5t144.5 43.5q84 0 135 -30q3 83 -55 136l-103 -54
q-23 43 -23 44zM364 170l33 189q-64 30 -127 30q-58 0 -83.5 -26.5t-36.5 -87.5l-19 -104q-3 -19 -3 -36q0 -37 22.5 -56t76.5 -19q65 0 96 26t41 84z" />
    <glyph glyph-name="ntilde" unicode="&#xf1;" horiz-adv-x="530" 
d="M392 497q87 0 87 -86q0 -21 -4 -42l-65 -369h-82l66 375q2 12 2 17q0 27 -34 27q-66 0 -184 -73l-61 -346h-82l85 481l72 12l-6 -69q38 27 101 50t105 23zM368 554q-24 0 -59 19t-49 19q-5 0 -9.5 -1t-9.5 -3.5l-8 -4t-8.5 -6t-7.5 -6t-8 -7.5l-7 -7l-31 31q38 62 96 62
q21 0 55.5 -19t50.5 -19q23 0 49 29l35 -25q-35 -62 -89 -62z" />
    <glyph glyph-name="ograve" unicode="&#xf2;" horiz-adv-x="506" 
d="M207 -10q-100 0 -140.5 51t-25.5 134l25 142q16 91 71 135.5t158 44.5q81 0 125.5 -40t44.5 -105q0 -18 -3 -34l-27 -153q-15 -87 -67.5 -131t-160.5 -44zM354 170l26 148q3 16 3 29q0 79 -100 79q-115 0 -135 -114l-25 -141q-9 -55 11.5 -82.5t84.5 -27.5
q62 0 93.5 26.5t41.5 82.5zM308 550q-66 41 -117 87l43 51q45 -44 111 -90z" />
    <glyph glyph-name="oacute" unicode="&#xf3;" horiz-adv-x="506" 
d="M207 -10q-100 0 -140.5 51t-25.5 134l25 142q16 91 71 135.5t158 44.5q81 0 125.5 -40t44.5 -105q0 -18 -3 -34l-27 -153q-15 -87 -67.5 -131t-160.5 -44zM354 170l26 148q3 16 3 29q0 79 -100 79q-115 0 -135 -114l-25 -141q-9 -55 11.5 -82.5t84.5 -27.5
q62 0 93.5 26.5t41.5 82.5zM269 550l-29 52q80 40 148 88l31 -55q-64 -44 -150 -85z" />
    <glyph glyph-name="ocircumflex" unicode="&#xf4;" horiz-adv-x="506" 
d="M207 -10q-100 0 -140.5 51t-25.5 134l25 142q16 91 71 135.5t158 44.5q81 0 125.5 -40t44.5 -105q0 -18 -3 -34l-27 -153q-15 -87 -67.5 -131t-160.5 -44zM354 170l26 148q3 16 3 29q0 79 -100 79q-115 0 -135 -114l-25 -141q-9 -55 11.5 -82.5t84.5 -27.5
q62 0 93.5 26.5t41.5 82.5zM404 542q-46 26 -93 64q-42 -33 -105 -64l-26 47q84 50 140 91q37 -38 114 -95z" />
    <glyph glyph-name="otilde" unicode="&#xf5;" horiz-adv-x="506" 
d="M207 -10q-100 0 -140.5 51t-25.5 134l25 142q16 91 71 135.5t158 44.5q81 0 125.5 -40t44.5 -105q0 -18 -3 -34l-27 -153q-15 -87 -67.5 -131t-160.5 -44zM354 170l26 148q3 16 3 29q0 79 -100 79q-115 0 -135 -114l-25 -141q-9 -55 11.5 -82.5t84.5 -27.5
q62 0 93.5 26.5t41.5 82.5zM363 554q-24 0 -59 19t-49 19q-5 0 -9.5 -1t-9.5 -3.5l-8 -4t-8.5 -6t-7.5 -6t-8 -7.5l-7 -7l-31 31q38 62 96 62q21 0 55.5 -19t50.5 -19q23 0 49 29l35 -25q-35 -62 -89 -62z" />
    <glyph glyph-name="odieresis" unicode="&#xf6;" horiz-adv-x="506" 
d="M207 -10q-100 0 -140.5 51t-25.5 134l25 142q16 91 71 135.5t158 44.5q81 0 125.5 -40t44.5 -105q0 -18 -3 -34l-27 -153q-15 -87 -67.5 -131t-160.5 -44zM354 170l26 148q3 16 3 29q0 79 -100 79q-115 0 -135 -114l-25 -141q-9 -55 11.5 -82.5t84.5 -27.5
q62 0 93.5 26.5t41.5 82.5zM181 563l15 84l78 3l-15 -84zM361 563l15 84l78 3l-15 -84z" />
    <glyph glyph-name="divide" unicode="&#xf7;" horiz-adv-x="526" 
d="M223 364v92h81v-92h-81zM60 212v62h406v-62h-406zM223 30v92h81v-92h-81z" />
    <glyph glyph-name="oslash" unicode="&#xf8;" horiz-adv-x="506" 
d="M11 -24l54 67q-40 49 -24 132l25 142q16 91 71 135.5t158 44.5q69 0 112 -30l57 70l31 -25l-59 -72q29 -37 29 -88q0 -18 -3 -34l-27 -153q-15 -87 -67.5 -131t-160.5 -44q-68 0 -112 26l-54 -66zM123 171q-6 -35 -1 -57l237 292q-26 20 -76 20q-115 0 -135 -114z
M354 170l26 148q3 16 3 29t-3 23l-235 -292q23 -17 74 -17q62 0 93.5 26.5t41.5 82.5z" />
    <glyph glyph-name="ugrave" unicode="&#xf9;" horiz-adv-x="530" 
d="M199 493l-67 -381q-2 -12 -2 -17q0 -27 34 -27q66 0 184 73l59 340l85 12l-87 -493h-70l5 63q-38 -27 -101 -50t-105 -23q-87 0 -87 86q0 21 4 42l64 363zM328 550q-66 41 -117 87l43 51q45 -44 111 -90z" />
    <glyph glyph-name="uacute" unicode="&#xfa;" horiz-adv-x="530" 
d="M199 493l-67 -381q-2 -12 -2 -17q0 -27 34 -27q66 0 184 73l59 340l85 12l-87 -493h-70l5 63q-38 -27 -101 -50t-105 -23q-87 0 -87 86q0 21 4 42l64 363zM284 550l-29 52q80 40 148 88l31 -55q-64 -44 -150 -85z" />
    <glyph glyph-name="ucircumflex" unicode="&#xfb;" horiz-adv-x="530" 
d="M199 493l-67 -381q-2 -12 -2 -17q0 -27 34 -27q66 0 184 73l59 340l85 12l-87 -493h-70l5 63q-38 -27 -101 -50t-105 -23q-87 0 -87 86q0 21 4 42l64 363zM421 542q-46 26 -93 64q-42 -33 -105 -64l-26 47q84 50 140 91q37 -38 114 -95z" />
    <glyph glyph-name="udieresis" unicode="&#xfc;" horiz-adv-x="530" 
d="M199 493l-67 -381q-2 -12 -2 -17q0 -27 34 -27q66 0 184 73l59 340l85 12l-87 -493h-70l5 63q-38 -27 -101 -50t-105 -23q-87 0 -87 86q0 21 4 42l64 363zM196 563l15 84l78 3l-15 -84zM376 563l15 84l78 3l-15 -84z" />
    <glyph glyph-name="yacute" unicode="&#xfd;" horiz-adv-x="434" 
d="M244 0q-46 -85 -93.5 -131.5t-138.5 -76.5l-22 63q59 21 97.5 53.5t71.5 91.5h-29l-76 480l79 11l62 -426l138 288q18 37 18 74q0 27 -8 54l79 12q8 -34 8 -64q0 -51 -17 -85zM211 550l-29 52q80 40 148 88l31 -55q-64 -44 -150 -85z" />
    <glyph glyph-name="thorn" unicode="&#xfe;" horiz-adv-x="512" 
d="M-2 -209l158 895l85 12l-48 -265q78 64 179 64q102 0 102 -97q0 -20 -3 -38l-34 -192q-17 -96 -62.5 -138t-155.5 -42q-47 0 -101 13l-36 -200zM177 340l-47 -267q45 -12 98 -12q65 0 90.5 24t38.5 96l31 177q3 18 3 31q0 19 -8.5 28t-30.5 9q-75 0 -175 -86z" />
    <glyph glyph-name="ydieresis" unicode="&#xff;" horiz-adv-x="434" 
d="M244 0q-46 -85 -93.5 -131.5t-138.5 -76.5l-22 63q59 21 97.5 53.5t71.5 91.5h-29l-76 480l79 11l62 -426l138 288q18 37 18 74q0 27 -8 54l79 12q8 -34 8 -64q0 -51 -17 -85zM126 563l15 84l78 3l-15 -84zM306 563l15 84l78 3l-15 -84z" />
    <glyph glyph-name="Amacron" unicode="&#x100;" horiz-adv-x="621" 
d="M465 0l-24 162h-278l-83 -162h-88l335 666h120l104 -666h-86zM379 608l-182 -374h233zM277 737l11 59h239l-11 -59h-239z" />
    <glyph glyph-name="amacron" unicode="&#x101;" horiz-adv-x="513" 
d="M470 464l-82 -464h-68l3 59q-78 -69 -182 -69q-103 0 -103 97q0 12 4 38l34 193q17 95 63 137t156 42q87 0 175 -33zM332 146l47 268q-45 12 -94 12q-59 0 -88 -25t-41 -94l-31 -176q-4 -24 -4 -34q0 -36 40 -36q78 0 171 85zM202 566l10 59h239l-10 -59h-239z" />
    <glyph glyph-name="Abreve" unicode="&#x102;" horiz-adv-x="621" 
d="M465 0l-24 162h-278l-83 -162h-88l335 666h120l104 -666h-86zM379 608l-182 -374h233zM399 715q-45 0 -75.5 22.5t-40.5 56.5l46 27q21 -51 75 -51q50 0 87 52l40 -29q-39 -78 -132 -78z" />
    <glyph glyph-name="abreve" unicode="&#x103;" horiz-adv-x="513" 
d="M470 464l-82 -464h-68l3 59q-78 -69 -182 -69q-103 0 -103 97q0 12 4 38l34 193q17 95 63 137t156 42q87 0 175 -33zM332 146l47 268q-45 12 -94 12q-59 0 -88 -25t-41 -94l-31 -176q-4 -24 -4 -34q0 -36 40 -36q78 0 171 85zM315 539q-46 0 -78 25t-43 61l47 26
q22 -57 78 -57q54 0 96 59l40 -29q-44 -85 -140 -85z" />
    <glyph glyph-name="Aogonek" unicode="&#x104;" horiz-adv-x="621" 
d="M516 -194q-25 -13 -63 -13q-42 0 -66.5 19t-24.5 54q0 73 103 134l-24 162h-278l-83 -162h-88l335 666h120l104 -666q-119 -61 -119 -121q0 -32 41 -32q21 0 39 6zM379 608l-182 -374h233z" />
    <glyph glyph-name="aogonek" unicode="&#x105;" horiz-adv-x="513" 
d="M353 -194q-25 -13 -63 -13q-42 0 -66.5 19t-24.5 54q0 77 121 134l3 59q-78 -69 -182 -69q-103 0 -103 97q0 12 4 38l34 193q17 95 63 137t156 42q87 0 175 -33l-82 -464q-60 -30 -89.5 -59t-29.5 -62q0 -32 41 -32q21 0 39 6zM332 146l47 268q-45 12 -94 12
q-59 0 -88 -25t-41 -94l-31 -176q-4 -24 -4 -34q0 -36 40 -36q78 0 171 85z" />
    <glyph glyph-name="Cacute" unicode="&#x106;" horiz-adv-x="516" 
d="M250 -10q-196 0 -196 154q0 19 5 49l51 289q19 104 78 149t180 45q90 0 166 -21l-17 -72q-83 18 -156 18q-82 0 -119 -28t-50 -102l-49 -279q-4 -21 -4 -42q0 -46 29 -65.5t99 -19.5q74 0 159 16l3 -72q-90 -19 -179 -19zM342 716l-30 49q69 42 116 78l34 -53
q-58 -43 -120 -74z" />
    <glyph glyph-name="cacute" unicode="&#x107;" horiz-adv-x="407" 
d="M399 475l-18 -66q-53 17 -104 17q-60 0 -86.5 -25t-39.5 -94l-32 -182q-2 -14 -2 -21q0 -23 13.5 -33t44.5 -10q66 0 151 33l11 -67q-82 -37 -171 -37q-131 0 -131 109q0 15 4 38l32 181q18 100 65 139.5t145 39.5q63 0 118 -22zM242 550l-29 52q80 40 148 88l31 -55
q-64 -44 -150 -85z" />
    <glyph glyph-name="Ccircumflex" unicode="&#x108;" horiz-adv-x="516" 
d="M250 -10q-196 0 -196 154q0 19 5 49l51 289q19 104 78 149t180 45q90 0 166 -21l-17 -72q-83 18 -156 18q-82 0 -119 -28t-50 -102l-49 -279q-4 -21 -4 -42q0 -46 29 -65.5t99 -19.5q74 0 159 16l3 -72q-90 -19 -179 -19zM463 715q-48 25 -90 53q-44 -28 -94 -53l-25 46
q74 42 128 78q47 -39 109 -82z" />
    <glyph glyph-name="ccircumflex" unicode="&#x109;" horiz-adv-x="407" 
d="M399 475l-18 -66q-53 17 -104 17q-60 0 -86.5 -25t-39.5 -94l-32 -182q-2 -14 -2 -21q0 -23 13.5 -33t44.5 -10q66 0 151 33l11 -67q-82 -37 -171 -37q-131 0 -131 109q0 15 4 38l32 181q18 100 65 139.5t145 39.5q63 0 118 -22zM380 542q-46 26 -93 64q-42 -33 -105 -64
l-26 47q84 50 140 91q37 -38 114 -95z" />
    <glyph glyph-name="Cdotaccent" unicode="&#x10a;" horiz-adv-x="516" 
d="M250 -10q-196 0 -196 154q0 19 5 49l51 289q19 104 78 149t180 45q90 0 166 -21l-17 -72q-83 18 -156 18q-82 0 -119 -28t-50 -102l-49 -279q-4 -21 -4 -42q0 -46 29 -65.5t99 -19.5q74 0 159 16l3 -72q-90 -19 -179 -19zM328 718l22 124l84 12l-22 -125z" />
    <glyph glyph-name="cdotaccent" unicode="&#x10b;" horiz-adv-x="407" 
d="M399 475l-18 -66q-53 17 -104 17q-60 0 -86.5 -25t-39.5 -94l-32 -182q-2 -14 -2 -21q0 -23 13.5 -33t44.5 -10q66 0 151 33l11 -67q-82 -37 -171 -37q-131 0 -131 109q0 15 4 38l32 181q18 100 65 139.5t145 39.5q63 0 118 -22zM234 562l22 124l84 12l-22 -125z" />
    <glyph glyph-name="Ccaron" unicode="&#x10c;" horiz-adv-x="516" 
d="M250 -10q-196 0 -196 154q0 19 5 49l51 289q19 104 78 149t180 45q90 0 166 -21l-17 -72q-83 18 -156 18q-82 0 -119 -28t-50 -102l-49 -279q-4 -21 -4 -42q0 -46 29 -65.5t99 -19.5q74 0 159 16l3 -72q-90 -19 -179 -19zM293 838q41 -21 89 -53q44 27 94 53l26 -47
q-60 -32 -129 -78q-45 38 -109 82z" />
    <glyph glyph-name="ccaron" unicode="&#x10d;" horiz-adv-x="407" 
d="M399 475l-18 -66q-53 17 -104 17q-60 0 -86.5 -25t-39.5 -94l-32 -182q-2 -14 -2 -21q0 -23 13.5 -33t44.5 -10q66 0 151 33l11 -67q-82 -37 -171 -37q-131 0 -131 109q0 15 4 38l32 181q18 100 65 139.5t145 39.5q63 0 118 -22zM192 671q40 -23 94 -67q42 31 104 67
l27 -46q-69 -41 -141 -93q-42 45 -113 97z" />
    <glyph glyph-name="Dcaron" unicode="&#x10e;" horiz-adv-x="593" 
d="M278 0h-238l117 666h224q98 0 143 -41.5t45 -112.5q0 -25 -4 -46l-51 -290q-11 -63 -34.5 -99.5t-72 -56.5t-129.5 -20zM433 192l48 273q4 26 4 41q0 42 -26.5 63.5t-88.5 21.5h-142l-91 -516h141q79 0 111 25.5t44 91.5zM284 838q41 -21 89 -53q44 27 94 53l26 -47
q-60 -32 -129 -78q-45 38 -109 82z" />
    <glyph glyph-name="dcaron" unicode="&#x10f;" horiz-adv-x="613" 
d="M580 573l19 113h84l-19 -113l-75 -108l-31 21l53 87h-31zM515 698l-123 -698h-72l5 59q-80 -69 -184 -69q-102 0 -102 97q0 20 3 38l34 192q17 96 62.5 138t155.5 42q47 0 101 -13l36 202zM335 142l48 272q-45 12 -98 12q-65 0 -90.5 -24t-38.5 -96l-31 -177
q-3 -18 -3 -31q0 -19 8.5 -28t30.5 -9q75 0 174 81z" />
    <glyph glyph-name="Dcroat" unicode="&#x110;" horiz-adv-x="619" 
d="M42 304l12 68h77l52 294h224q98 0 143 -41.5t45 -112.5q0 -25 -4 -46l-51 -290q-11 -63 -34.5 -99.5t-72 -56.5t-129.5 -20h-238l53 304h-77zM459 192l48 273q4 26 4 41q0 42 -26.5 63.5t-88.5 21.5h-142l-39 -219h126l-12 -68h-126l-40 -229h141q79 0 111 25.5t44 91.5z
" />
    <glyph glyph-name="dcroat" unicode="&#x111;" horiz-adv-x="522" 
d="M300 556l9 55h109l13 75l84 12l-16 -87h73l-9 -55h-73l-98 -556h-72l5 59q-80 -69 -184 -69q-102 0 -102 97q0 20 3 38l34 192q17 96 62.5 138t155.5 42q47 0 101 -13l13 72h-108zM335 142l48 272q-45 12 -98 12q-65 0 -90.5 -24t-38.5 -96l-31 -177q-3 -18 -3 -31
q0 -19 8.5 -28t30.5 -9q75 0 174 81z" />
    <glyph glyph-name="Emacron" unicode="&#x112;" horiz-adv-x="534" 
d="M40 0l117 666h388l-14 -75h-302l-37 -213h280l-13 -74h-281l-41 -229h304l-13 -75h-388zM247 737l11 59h239l-11 -59h-239z" />
    <glyph glyph-name="emacron" unicode="&#x113;" horiz-adv-x="453" 
d="M134 180l-9 -50q-2 -11 -2 -22q0 -25 15 -37t52 -12q73 0 178 51l18 -61q-108 -59 -207 -59q-137 0 -137 113q0 22 4 45l29 164q17 96 66 140.5t149 44.5q63 0 101 -28.5t38 -81.5q0 -62 -37 -98.5t-138 -70.5q-29 -10 -120 -38zM237 283q115 34 115 95q0 24 -17.5 38
t-50.5 14q-57 0 -86 -24t-39 -83l-12 -67zM178 566l10 59h239l-10 -59h-239z" />
    <glyph glyph-name="Ebreve" unicode="&#x114;" horiz-adv-x="534" 
d="M40 0l117 666h388l-14 -75h-302l-37 -213h280l-13 -74h-281l-41 -229h304l-13 -75h-388zM358 715q-45 0 -75.5 22.5t-40.5 56.5l46 27q21 -51 75 -51q50 0 87 52l40 -29q-39 -78 -132 -78z" />
    <glyph glyph-name="ebreve" unicode="&#x115;" horiz-adv-x="453" 
d="M134 180l-9 -50q-2 -11 -2 -22q0 -25 15 -37t52 -12q73 0 178 51l18 -61q-108 -59 -207 -59q-137 0 -137 113q0 22 4 45l29 164q17 96 66 140.5t149 44.5q63 0 101 -28.5t38 -81.5q0 -62 -37 -98.5t-138 -70.5q-29 -10 -120 -38zM237 283q115 34 115 95q0 24 -17.5 38
t-50.5 14q-57 0 -86 -24t-39 -83l-12 -67zM297 539q-46 0 -78 25t-43 61l47 26q22 -57 78 -57q54 0 96 59l40 -29q-44 -85 -140 -85z" />
    <glyph glyph-name="Edotaccent" unicode="&#x116;" horiz-adv-x="534" 
d="M40 0l117 666h388l-14 -75h-302l-37 -213h280l-13 -74h-281l-41 -229h304l-13 -75h-388zM324 718l22 124l84 12l-22 -125z" />
    <glyph glyph-name="edotaccent" unicode="&#x117;" horiz-adv-x="453" 
d="M134 180l-9 -50q-2 -11 -2 -22q0 -25 15 -37t52 -12q73 0 178 51l18 -61q-108 -59 -207 -59q-137 0 -137 113q0 22 4 45l29 164q17 96 66 140.5t149 44.5q63 0 101 -28.5t38 -81.5q0 -62 -37 -98.5t-138 -70.5q-29 -10 -120 -38zM237 283q115 34 115 95q0 24 -17.5 38
t-50.5 14q-57 0 -86 -24t-39 -83l-12 -67zM250 562l22 124l84 12l-22 -125z" />
    <glyph glyph-name="Eogonek" unicode="&#x118;" horiz-adv-x="534" 
d="M40 0l117 666h388l-14 -75h-302l-37 -213h280l-13 -74h-281l-41 -229h304l-13 -75h-46q-119 -67 -119 -121q0 -32 41 -32q21 0 39 6l4 -47q-25 -13 -63 -13q-42 0 -66.5 19t-24.5 54q0 42 34 73t89 61h-276z" />
    <glyph glyph-name="eogonek" unicode="&#x119;" horiz-adv-x="453" 
d="M284 -194q-25 -13 -63 -13q-42 0 -66.5 19t-24.5 54q0 41 35.5 74.5t87.5 57.5q-37 -8 -74 -8q-137 0 -137 113q0 22 4 45l29 164q17 96 66 140.5t149 44.5q63 0 101 -28.5t38 -81.5q0 -62 -37 -98.5t-138 -70.5q-29 -10 -120 -38l-9 -50q-2 -11 -2 -22q0 -25 15 -37
t52 -12q73 0 178 51l18 -61q-186 -108 -186 -170q0 -32 41 -32q21 0 39 6zM237 283q115 34 115 95q0 24 -17.5 38t-50.5 14q-57 0 -86 -24t-39 -83l-12 -67z" />
    <glyph glyph-name="Ecaron" unicode="&#x11a;" horiz-adv-x="534" 
d="M40 0l117 666h388l-14 -75h-302l-37 -213h280l-13 -74h-281l-41 -229h304l-13 -75h-388zM278 838q41 -21 89 -53q44 27 94 53l26 -47q-60 -32 -129 -78q-45 38 -109 82z" />
    <glyph glyph-name="ecaron" unicode="&#x11b;" horiz-adv-x="453" 
d="M134 180l-9 -50q-2 -11 -2 -22q0 -25 15 -37t52 -12q73 0 178 51l18 -61q-108 -59 -207 -59q-137 0 -137 113q0 22 4 45l29 164q17 96 66 140.5t149 44.5q63 0 101 -28.5t38 -81.5q0 -62 -37 -98.5t-138 -70.5q-29 -10 -120 -38zM237 283q115 34 115 95q0 24 -17.5 38
t-50.5 14q-57 0 -86 -24t-39 -83l-12 -67zM209 671q40 -23 94 -67q42 31 104 67l27 -46q-69 -41 -141 -93q-42 45 -113 97z" />
    <glyph glyph-name="Gcircumflex" unicode="&#x11c;" horiz-adv-x="582" 
d="M248 -10q-194 0 -194 151q0 24 4 47l52 294q18 102 74.5 148t184.5 46q101 0 186 -26l-16 -71q-94 21 -180 21q-83 0 -118.5 -28t-48.5 -100l-48 -274q-5 -26 -5 -50q0 -43 27 -63t95 -20q63 0 133 15l40 222h81l-48 -277q-98 -35 -219 -35zM473 715q-48 25 -90 53
q-44 -28 -94 -53l-25 46q74 42 128 78q47 -39 109 -82z" />
    <glyph glyph-name="gcircumflex" unicode="&#x11d;" horiz-adv-x="517" 
d="M473 462l-94 -536q-13 -76 -50 -104.5t-121 -28.5q-102 0 -200 41l17 62q98 -35 186 -35q45 0 62.5 15.5t24.5 55.5l25 141q-79 -63 -179 -63q-103 0 -103 97q0 12 4 38l31 171q17 94 65 137.5t158 43.5q91 0 174 -35zM338 160l45 253q-48 13 -98 13q-62 0 -89 -25
t-40 -96l-28 -156q-4 -24 -4 -32q0 -36 40 -36q38 0 85.5 22.5t88.5 56.5zM415 542q-46 26 -93 64q-42 -33 -105 -64l-26 47q84 50 140 91q37 -38 114 -95z" />
    <glyph glyph-name="Gbreve" unicode="&#x11e;" horiz-adv-x="582" 
d="M248 -10q-194 0 -194 151q0 24 4 47l52 294q18 102 74.5 148t184.5 46q101 0 186 -26l-16 -71q-94 21 -180 21q-83 0 -118.5 -28t-48.5 -100l-48 -274q-5 -26 -5 -50q0 -43 27 -63t95 -20q63 0 133 15l40 222h81l-48 -277q-98 -35 -219 -35zM382 715q-45 0 -75.5 22.5
t-40.5 56.5l46 27q21 -51 75 -51q50 0 87 52l40 -29q-39 -78 -132 -78z" />
    <glyph glyph-name="gbreve" unicode="&#x11f;" horiz-adv-x="517" 
d="M473 462l-94 -536q-13 -76 -50 -104.5t-121 -28.5q-102 0 -200 41l17 62q98 -35 186 -35q45 0 62.5 15.5t24.5 55.5l25 141q-79 -63 -179 -63q-103 0 -103 97q0 12 4 38l31 171q17 94 65 137.5t158 43.5q91 0 174 -35zM338 160l45 253q-48 13 -98 13q-62 0 -89 -25
t-40 -96l-28 -156q-4 -24 -4 -32q0 -36 40 -36q38 0 85.5 22.5t88.5 56.5zM321 539q-46 0 -78 25t-43 61l47 26q22 -57 78 -57q54 0 96 59l40 -29q-44 -85 -140 -85z" />
    <glyph glyph-name="Gdotaccent" unicode="&#x120;" horiz-adv-x="582" 
d="M248 -10q-194 0 -194 151q0 24 4 47l52 294q18 102 74.5 148t184.5 46q101 0 186 -26l-16 -71q-94 21 -180 21q-83 0 -118.5 -28t-48.5 -100l-48 -274q-5 -26 -5 -50q0 -43 27 -63t95 -20q63 0 133 15l40 222h81l-48 -277q-98 -35 -219 -35zM335 718l22 124l84 12
l-22 -125z" />
    <glyph glyph-name="gdotaccent" unicode="&#x121;" horiz-adv-x="517" 
d="M473 462l-94 -536q-13 -76 -50 -104.5t-121 -28.5q-102 0 -200 41l17 62q98 -35 186 -35q45 0 62.5 15.5t24.5 55.5l25 141q-79 -63 -179 -63q-103 0 -103 97q0 12 4 38l31 171q17 94 65 137.5t158 43.5q91 0 174 -35zM338 160l45 253q-48 13 -98 13q-62 0 -89 -25
t-40 -96l-28 -156q-4 -24 -4 -32q0 -36 40 -36q38 0 85.5 22.5t88.5 56.5zM278 562l22 124l84 12l-22 -125z" />
    <glyph glyph-name="Gcommaaccent" unicode="&#x122;" horiz-adv-x="582" 
d="M248 -10q-194 0 -194 151q0 24 4 47l52 294q18 102 74.5 148t184.5 46q101 0 186 -26l-16 -71q-94 21 -180 21q-83 0 -118.5 -28t-48.5 -100l-48 -274q-5 -26 -5 -50q0 -43 27 -63t95 -20q63 0 133 15l40 222h81l-48 -277q-98 -35 -219 -35zM206 -158l19 107h82l-19 -107
l-67 -101l-33 22l48 79h-30z" />
    <glyph glyph-name="gcommaaccent" unicode="&#x123;" horiz-adv-x="517" 
d="M373 656l-19 -113h-84l19 113l66 95l31 -21l-44 -74h31zM473 462l-94 -536q-13 -76 -50 -104.5t-121 -28.5q-102 0 -200 41l17 62q98 -35 186 -35q45 0 62.5 15.5t24.5 55.5l25 141q-79 -63 -179 -63q-103 0 -103 97q0 12 4 38l31 171q17 94 65 137.5t158 43.5
q91 0 174 -35zM338 160l45 253q-48 13 -98 13q-62 0 -89 -25t-40 -96l-28 -156q-4 -24 -4 -32q0 -36 40 -36q38 0 85.5 22.5t88.5 56.5z" />
    <glyph glyph-name="Hcircumflex" unicode="&#x124;" horiz-adv-x="628" 
d="M414 0l53 303h-290l-53 -303h-84l117 666h84l-51 -289h290l51 289h84l-117 -666h-84zM485 715q-48 25 -90 53q-44 -28 -94 -53l-25 46q74 42 128 78q47 -39 109 -82z" />
    <glyph glyph-name="hcircumflex" unicode="&#x125;" horiz-adv-x="530" 
d="M328 0l66 375q2 10 2 17q0 27 -34 27q-66 0 -184 -73l-61 -346h-82l121 686l84 12l-47 -270q40 26 99.5 47.5t99.5 21.5q87 0 87 -86q0 -21 -4 -42l-65 -369h-82zM300 745q-48 25 -90 53q-44 -28 -94 -53l-25 46q74 42 128 78q47 -39 109 -82z" />
    <glyph glyph-name="Hbar" unicode="&#x126;" horiz-adv-x="638" 
d="M54 510l10 55h80l18 101h84l-18 -101h290l18 101h84l-18 -101h83l-10 -55h-82l-90 -510h-84l53 303h-290l-53 -303h-84l89 510h-80zM195 377h290l23 133h-290z" />
    <glyph glyph-name="hbar" unicode="&#x127;" horiz-adv-x="530" 
d="M74 552l9 54h59l14 80l84 12l-16 -92h121l-9 -54h-122l-21 -124q40 26 99.5 47.5t99.5 21.5q87 0 87 -86q0 -21 -4 -42l-65 -369h-82l66 375q2 10 2 17q0 27 -34 27q-66 0 -184 -73l-61 -346h-82l97 552h-58z" />
    <glyph glyph-name="Itilde" unicode="&#x128;" horiz-adv-x="264" 
d="M45 0l117 666h84l-117 -666h-84zM276 724q-24 0 -59 19t-49 19q-22 0 -59 -35l-30 31q38 62 96 62q21 0 55 -19t50 -19q24 0 49 29l35 -25q-35 -62 -88 -62z" />
    <glyph glyph-name="itilde" unicode="&#x129;" horiz-adv-x="242" 
d="M35 0l85 481l84 12l-87 -493h-82zM234 554q-24 0 -59 19t-49 19q-5 0 -9.5 -1t-9.5 -3.5l-8 -4t-8.5 -6t-7.5 -6t-8 -7.5l-7 -7l-31 31q38 62 96 62q21 0 55.5 -19t50.5 -19q23 0 49 29l35 -25q-35 -62 -89 -62z" />
    <glyph glyph-name="Imacron" unicode="&#x12a;" horiz-adv-x="264" 
d="M45 0l117 666h84l-117 -666h-84zM93 737l11 59h239l-11 -59h-239z" />
    <glyph glyph-name="imacron" unicode="&#x12b;" horiz-adv-x="242" 
d="M35 0l85 481l84 12l-87 -493h-82zM53 566l10 59h239l-10 -59h-239z" />
    <glyph glyph-name="Ibreve" unicode="&#x12c;" horiz-adv-x="264" 
d="M45 0l117 666h84l-117 -666h-84zM218 715q-45 0 -75.5 22.5t-40.5 56.5l46 27q21 -51 75 -51q50 0 87 52l40 -29q-39 -78 -132 -78z" />
    <glyph glyph-name="ibreve" unicode="&#x12d;" horiz-adv-x="242" 
d="M35 0l85 481l84 12l-87 -493h-82zM174 539q-46 0 -78 25t-43 61l47 26q22 -57 78 -57q54 0 96 59l40 -29q-44 -85 -140 -85z" />
    <glyph glyph-name="Iogonek" unicode="&#x12e;" horiz-adv-x="264" 
d="M114 -194q-25 -13 -63 -13q-42 0 -66.5 19t-24.5 54q0 37 24.5 72.5t60.5 61.5l117 666h84l-117 -666q-99 -56 -99 -121q0 -32 41 -32q21 0 39 6z" />
    <glyph glyph-name="iogonek" unicode="&#x12f;" horiz-adv-x="242" 
d="M102 -194q-25 -13 -63 -13q-42 0 -66.5 19t-24.5 54q0 72 87 134l85 481l84 12l-87 -493q-48 -29 -73.5 -61t-25.5 -60q0 -32 41 -32q21 0 39 6zM134 562l22 124l84 12l-22 -125z" />
    <glyph glyph-name="Idotaccent" unicode="&#x130;" horiz-adv-x="264" 
d="M45 0l117 666h84l-117 -666h-84zM171 718l22 124l84 12l-22 -125z" />
    <glyph glyph-name="dotlessi" unicode="&#x131;" horiz-adv-x="242" 
d="M35 0l85 481l84 12l-87 -493h-82z" />
    <glyph glyph-name="IJ" unicode="&#x132;" horiz-adv-x="518" 
d="M45 0l117 666h84l-117 -666h-84zM505 666l-120 -682q-9 -49 -34 -77t-122 -105l-44 61q76 58 94.5 79.5t24.5 56.5l117 667h84z" />
    <glyph glyph-name="ij" unicode="&#x133;" horiz-adv-x="479" 
d="M134 562l22 124l84 12l-22 -125zM35 0l85 481l84 12l-87 -493h-82zM446 493l-93 -526q-8 -47 -31 -75.5t-116 -98.5l-42 58q68 51 85.5 72t24.5 58l88 500zM376 562l22 124l84 12l-22 -125z" />
    <glyph glyph-name="Jcircumflex" unicode="&#x134;" horiz-adv-x="254" 
d="M241 666l-120 -682q-9 -49 -34 -77t-122 -105l-44 61q76 58 94.5 79.5t24.5 56.5l117 667h84zM305 715q-48 25 -90 53q-44 -28 -94 -53l-25 46q74 42 128 78q47 -39 109 -82z" />
    <glyph glyph-name="jcircumflex" unicode="&#x135;" horiz-adv-x="237" 
d="M204 493l-93 -526q-8 -47 -31 -75.5t-116 -98.5l-42 58q68 51 85.5 72t24.5 58l88 500zM271 542q-46 26 -93 64q-42 -33 -105 -64l-26 47q84 50 140 91q37 -38 114 -95z" />
    <glyph glyph-name="Kcommaaccent" unicode="&#x136;" horiz-adv-x="577" 
d="M405 0l-199 339l287 327h106l-300 -329l199 -337h-93zM40 0l117 666h84l-117 -666h-84zM191 -158l19 107h82l-19 -107l-67 -101l-33 22l48 79h-30z" />
    <glyph glyph-name="kcommaaccent" unicode="&#x137;" horiz-adv-x="476" 
d="M315 0l-128 246l207 249l79 -20l-198 -230l130 -245h-90zM35 0l121 686l84 12l-123 -698h-82zM141 -158l19 107h82l-19 -107l-67 -101l-33 22l48 79h-30z" />
    <glyph glyph-name="kgreenlandic" unicode="&#x138;" horiz-adv-x="476" 
d="M315 0l-128 246l200 241h96l-208 -242l130 -245h-90zM35 0l86 487h82l-86 -487h-82z" />
    <glyph glyph-name="Lacute" unicode="&#x139;" horiz-adv-x="499" 
d="M40 0l118 666h84l-105 -591h290l-13 -75h-374zM209 716l-30 49q69 42 116 78l34 -53q-58 -43 -120 -74z" />
    <glyph glyph-name="lacute" unicode="&#x13a;" horiz-adv-x="242" 
d="M35 0l121 686l84 12l-123 -698h-82zM196 746l-30 49q69 42 116 78l34 -53q-58 -43 -120 -74z" />
    <glyph glyph-name="Lcommaaccent" unicode="&#x13b;" horiz-adv-x="499" 
d="M40 0l118 666h84l-105 -591h290l-13 -75h-374zM167 -158l19 107h82l-19 -107l-67 -101l-33 22l48 79h-30z" />
    <glyph glyph-name="lcommaaccent" unicode="&#x13c;" horiz-adv-x="242" 
d="M35 0l121 686l84 12l-123 -698h-82zM7 -158l19 107h82l-19 -107l-67 -101l-33 22l48 79h-30z" />
    <glyph glyph-name="Lcaron" unicode="&#x13d;" horiz-adv-x="499" 
d="M363 573l19 113h84l-19 -113l-75 -108l-31 21l53 87h-31zM40 0l118 666h84l-105 -591h290l-13 -75h-374z" />
    <glyph glyph-name="lcaron" unicode="&#x13e;" horiz-adv-x="370" 
d="M35 0l121 686l84 12l-123 -698h-82zM322 573l19 113h84l-19 -113l-75 -108l-31 21l53 87h-31z" />
    <glyph glyph-name="Ldot" unicode="&#x13f;" horiz-adv-x="499" 
d="M292 305l21 115h84l-21 -115h-84zM40 0l118 666h84l-105 -591h290l-13 -75h-374z" />
    <glyph glyph-name="ldot" unicode="&#x140;" horiz-adv-x="349" 
d="M35 0l121 686l84 12l-123 -698h-82zM239 228l21 115h84l-21 -115h-84z" />
    <glyph glyph-name="Lslash" unicode="&#x141;" horiz-adv-x="522" 
d="M43 246l-17 56l98 45l56 319h85l-50 -280l156 74l17 -57l-185 -86l-43 -242h290l-13 -75h-374l49 277z" />
    <glyph glyph-name="lslash" unicode="&#x142;" horiz-adv-x="272" 
d="M32 249l-17 56l91 42l59 339l85 12l-55 -312l82 39l17 -57l-111 -51l-56 -317h-83l49 278z" />
    <glyph glyph-name="Nacute" unicode="&#x143;" horiz-adv-x="657" 
d="M413 0l-191 568l-100 -568h-82l117 666h112l192 -576l101 576h82l-117 -666h-114zM389 716l-30 49q69 42 116 78l34 -53q-58 -43 -120 -74z" />
    <glyph glyph-name="nacute" unicode="&#x144;" horiz-adv-x="530" 
d="M392 497q87 0 87 -86q0 -21 -4 -42l-65 -369h-82l66 375q2 12 2 17q0 27 -34 27q-66 0 -184 -73l-61 -346h-82l85 481l72 12l-6 -69q38 27 101 50t105 23zM273 550l-29 52q80 40 148 88l31 -55q-64 -44 -150 -85z" />
    <glyph glyph-name="Ncommaaccent" unicode="&#x145;" horiz-adv-x="657" 
d="M413 0l-191 568l-100 -568h-82l117 666h112l192 -576l101 576h82l-117 -666h-114zM216 -158l19 107h82l-19 -107l-67 -101l-33 22l48 79h-30z" />
    <glyph glyph-name="ncommaaccent" unicode="&#x146;" horiz-adv-x="530" 
d="M392 497q87 0 87 -86q0 -21 -4 -42l-65 -369h-82l66 375q2 12 2 17q0 27 -34 27q-66 0 -184 -73l-61 -346h-82l85 481l72 12l-6 -69q38 27 101 50t105 23zM162 -158l19 107h82l-19 -107l-67 -101l-33 22l48 79h-30z" />
    <glyph glyph-name="Ncaron" unicode="&#x147;" horiz-adv-x="657" 
d="M413 0l-191 568l-100 -568h-82l117 666h112l192 -576l101 576h82l-117 -666h-114zM328 838q41 -21 89 -53q44 27 94 53l26 -47q-60 -32 -129 -78q-45 38 -109 82z" />
    <glyph glyph-name="ncaron" unicode="&#x148;" horiz-adv-x="530" 
d="M392 497q87 0 87 -86q0 -21 -4 -42l-65 -369h-82l66 375q2 12 2 17q0 27 -34 27q-66 0 -184 -73l-61 -346h-82l85 481l72 12l-6 -69q38 27 101 50t105 23zM229 671q40 -23 94 -67q42 31 104 67l27 -46q-69 -41 -141 -93q-42 45 -113 97z" />
    <glyph glyph-name="Eng" unicode="&#x14a;" horiz-adv-x="657" 
d="M413 0l-191 568l-100 -568h-82l117 666h112l192 -576l101 576h82l-123 -699q-8 -47 -31 -75.5t-116 -98.5l-42 58q68 51 85.5 72t24.5 58l3 19h-32z" />
    <glyph glyph-name="eng" unicode="&#x14b;" horiz-adv-x="530" 
d="M325 -19l69 394q2 12 2 17q0 27 -34 27q-66 0 -184 -73l-61 -346h-82l85 481l72 12l-6 -69q38 27 101 50t105 23q87 0 87 -86q0 -21 -4 -42l-71 -402q-8 -47 -31 -75.5t-116 -98.5l-42 58q68 51 85.5 72t24.5 58z" />
    <glyph glyph-name="Omacron" unicode="&#x14c;" horiz-adv-x="619" 
d="M263 -10q-105 0 -156 44.5t-51 120.5q0 22 4 43l48 273q19 107 81.5 156t190.5 49q99 0 154.5 -48t55.5 -125q0 -15 -4 -37l-49 -279q-17 -96 -79.5 -146.5t-194.5 -50.5zM455 194l48 273q4 24 4 36q0 99 -136 99q-84 0 -125.5 -31.5t-54.5 -103.5l-47 -268
q-4 -23 -4 -39q0 -47 31 -71.5t105 -24.5q84 0 125.5 32.5t53.5 97.5zM270 737l11 59h239l-11 -59h-239z" />
    <glyph glyph-name="omacron" unicode="&#x14d;" horiz-adv-x="506" 
d="M207 -10q-100 0 -140.5 51t-25.5 134l25 142q16 91 71 135.5t158 44.5q81 0 125.5 -40t44.5 -105q0 -18 -3 -34l-27 -153q-15 -87 -67.5 -131t-160.5 -44zM354 170l26 148q3 16 3 29q0 79 -100 79q-115 0 -135 -114l-25 -141q-9 -55 11.5 -82.5t84.5 -27.5
q62 0 93.5 26.5t41.5 82.5zM184 566l10 59h239l-10 -59h-239z" />
    <glyph glyph-name="Obreve" unicode="&#x14e;" horiz-adv-x="619" 
d="M263 -10q-105 0 -156 44.5t-51 120.5q0 22 4 43l48 273q19 107 81.5 156t190.5 49q99 0 154.5 -48t55.5 -125q0 -15 -4 -37l-49 -279q-17 -96 -79.5 -146.5t-194.5 -50.5zM455 194l48 273q4 24 4 36q0 99 -136 99q-84 0 -125.5 -31.5t-54.5 -103.5l-47 -268
q-4 -23 -4 -39q0 -47 31 -71.5t105 -24.5q84 0 125.5 32.5t53.5 97.5zM395 715q-45 0 -75.5 22.5t-40.5 56.5l46 27q21 -51 75 -51q50 0 87 52l40 -29q-39 -78 -132 -78z" />
    <glyph glyph-name="obreve" unicode="&#x14f;" horiz-adv-x="506" 
d="M207 -10q-100 0 -140.5 51t-25.5 134l25 142q16 91 71 135.5t158 44.5q81 0 125.5 -40t44.5 -105q0 -18 -3 -34l-27 -153q-15 -87 -67.5 -131t-160.5 -44zM354 170l26 148q3 16 3 29q0 79 -100 79q-115 0 -135 -114l-25 -141q-9 -55 11.5 -82.5t84.5 -27.5
q62 0 93.5 26.5t41.5 82.5zM311 539q-46 0 -78 25t-43 61l47 26q22 -57 78 -57q54 0 96 59l40 -29q-44 -85 -140 -85z" />
    <glyph glyph-name="Ohungarumlaut" unicode="&#x150;" horiz-adv-x="619" 
d="M263 -10q-105 0 -156 44.5t-51 120.5q0 22 4 43l48 273q19 107 81.5 156t190.5 49q99 0 154.5 -48t55.5 -125q0 -15 -4 -37l-49 -279q-17 -96 -79.5 -146.5t-194.5 -50.5zM455 194l48 273q4 24 4 36q0 99 -136 99q-84 0 -125.5 -31.5t-54.5 -103.5l-47 -268
q-4 -23 -4 -39q0 -47 31 -71.5t105 -24.5q84 0 125.5 32.5t53.5 97.5zM309 715l-36 43q46 37 96 85l39 -48q-43 -40 -99 -80zM467 715l-36 43q46 37 96 85l39 -48q-43 -40 -99 -80z" />
    <glyph glyph-name="ohungarumlaut" unicode="&#x151;" horiz-adv-x="506" 
d="M207 -10q-100 0 -140.5 51t-25.5 134l25 142q16 91 71 135.5t158 44.5q81 0 125.5 -40t44.5 -105q0 -18 -3 -34l-27 -153q-15 -87 -67.5 -131t-160.5 -44zM354 170l26 148q3 16 3 29q0 79 -100 79q-115 0 -135 -114l-25 -141q-9 -55 11.5 -82.5t84.5 -27.5
q62 0 93.5 26.5t41.5 82.5zM229 536l-38 41q66 61 107 109l41 -46q-45 -51 -110 -104zM385 536l-38 41q66 61 108 109l40 -46q-49 -55 -110 -104z" />
    <glyph glyph-name="OE" unicode="&#x152;" horiz-adv-x="889" 
d="M783 0h-519q-105 0 -156 44.5t-51 120.5q0 22 4 43l46 253q19 107 81.5 156t190.5 49h521l-14 -75h-302l-37 -213h280l-13 -74h-281l-41 -229h304zM141 170q0 -47 31 -71.5t105 -24.5h131l91 518h-129q-84 0 -125.5 -31.5t-54.5 -103.5l-45 -248q-4 -23 -4 -39z" />
    <glyph glyph-name="oe" unicode="&#x153;" horiz-adv-x="751" 
d="M438 183l-9 -51q-6 -37 7.5 -55t57.5 -18q73 0 178 51l18 -61q-108 -59 -207 -59q-43 0 -73.5 15t-42.5 38q-59 -53 -160 -53q-100 0 -140.5 51t-25.5 134l25 142q16 92 68 136t157 44q91 0 141 -63q30 34 67.5 48.5t94.5 14.5q63 0 101 -28.5t38 -81.5
q0 -61 -38.5 -97.5t-136.5 -68.5q-75 -25 -120 -38zM354 170l27 154q2 10 2 23q0 79 -100 79q-115 0 -135 -114l-25 -141q-9 -55 11.5 -82.5t84.5 -27.5q62 0 93.5 26.5t41.5 82.5zM541 283q60 18 87.5 40t27.5 52q0 55 -68 55q-57 0 -86 -24t-39 -83l-12 -67z" />
    <glyph glyph-name="Racute" unicode="&#x154;" horiz-adv-x="627" 
d="M458 0l-124 242h-167l-43 -242h-84l118 666h238q176 0 176 -131q0 -19 -3 -36l-17 -96q-11 -64 -39 -98.5t-93 -51.5l130 -253h-92zM469 409l16 90q3 16 3 28q0 35 -23 49.5t-75 14.5h-162l-48 -275h162q62 0 90 20.5t37 72.5zM347 716l-30 49q69 42 116 78l34 -53
q-58 -43 -120 -74z" />
    <glyph glyph-name="racute" unicode="&#x155;" horiz-adv-x="314" 
d="M323 497l3 -75q-74 -40 -152 -98l-57 -324h-82l85 481l73 12l-9 -80q62 51 139 84zM183 550l-29 52q80 40 148 88l31 -55q-64 -44 -150 -85z" />
    <glyph glyph-name="Rcommaaccent" unicode="&#x156;" horiz-adv-x="627" 
d="M458 0l-124 242h-167l-43 -242h-84l118 666h238q176 0 176 -131q0 -19 -3 -36l-17 -96q-11 -64 -39 -98.5t-93 -51.5l130 -253h-92zM469 409l16 90q3 16 3 28q0 35 -23 49.5t-75 14.5h-162l-48 -275h162q62 0 90 20.5t37 72.5zM215 -158l19 107h82l-19 -107l-67 -101
l-33 22l48 79h-30z" />
    <glyph glyph-name="rcommaaccent" unicode="&#x157;" horiz-adv-x="314" 
d="M323 497l3 -75q-74 -40 -152 -98l-57 -324h-82l85 481l73 12l-9 -80q62 51 139 84zM8 -158l19 107h82l-19 -107l-67 -101l-33 22l48 79h-30z" />
    <glyph glyph-name="Rcaron" unicode="&#x158;" horiz-adv-x="627" 
d="M458 0l-124 242h-167l-43 -242h-84l118 666h238q176 0 176 -131q0 -19 -3 -36l-17 -96q-11 -64 -39 -98.5t-93 -51.5l130 -253h-92zM469 409l16 90q3 16 3 28q0 35 -23 49.5t-75 14.5h-162l-48 -275h162q62 0 90 20.5t37 72.5zM288 838q41 -21 89 -53q44 27 94 53l26 -47
q-60 -32 -129 -78q-45 38 -109 82z" />
    <glyph glyph-name="rcaron" unicode="&#x159;" horiz-adv-x="314" 
d="M323 497l3 -75q-74 -40 -152 -98l-57 -324h-82l85 481l73 12l-9 -80q62 51 139 84zM136 671q40 -23 94 -67q42 31 104 67l27 -46q-69 -41 -141 -93q-42 45 -113 97z" />
    <glyph glyph-name="Sacute" unicode="&#x15a;" horiz-adv-x="534" 
d="M214 -10q-101 0 -191 37l19 67q101 -31 180 -31q78 0 108 23.5t41 85.5q7 39 7 52q0 30 -23.5 44t-99.5 34q-85 22 -118 52.5t-33 84.5q0 23 7 67q18 100 67.5 135t169.5 35q90 0 175 -23l-15 -71q-86 20 -165 20q-83 0 -110 -18.5t-38 -79.5q-7 -40 -7 -55
q0 -30 22.5 -45t94.5 -34q91 -24 124.5 -52.5t33.5 -78.5q0 -26 -8 -68q-9 -49 -21.5 -80t-38.5 -55.5t-70 -35t-111 -10.5zM333 716l-30 49q69 42 116 78l34 -53q-58 -43 -120 -74z" />
    <glyph glyph-name="sacute" unicode="&#x15b;" horiz-adv-x="411" 
d="M162 -10q-81 0 -143 27l17 64q66 -22 130 -22q53 0 70 12.5t24 53.5q5 31 -10 49t-72 44q-72 33 -93.5 69t-11.5 92q11 65 47.5 91.5t126.5 26.5q73 0 138 -21l-14 -65q-65 17 -126 17q-52 0 -68.5 -11t-23.5 -48q-6 -33 6.5 -48t61.5 -41q86 -46 108 -75t12 -85
q-14 -73 -49 -101.5t-130 -28.5zM222 550l-29 52q80 40 148 88l31 -55q-64 -44 -150 -85z" />
    <glyph glyph-name="Scircumflex" unicode="&#x15c;" horiz-adv-x="534" 
d="M214 -10q-101 0 -191 37l19 67q101 -31 180 -31q78 0 108 23.5t41 85.5q7 39 7 52q0 30 -23.5 44t-99.5 34q-85 22 -118 52.5t-33 84.5q0 23 7 67q18 100 67.5 135t169.5 35q90 0 175 -23l-15 -71q-86 20 -165 20q-83 0 -110 -18.5t-38 -79.5q-7 -40 -7 -55
q0 -30 22.5 -45t94.5 -34q91 -24 124.5 -52.5t33.5 -78.5q0 -26 -8 -68q-9 -49 -21.5 -80t-38.5 -55.5t-70 -35t-111 -10.5zM449 715q-48 25 -90 53q-44 -28 -94 -53l-25 46q74 42 128 78q47 -39 109 -82z" />
    <glyph glyph-name="scircumflex" unicode="&#x15d;" horiz-adv-x="411" 
d="M162 -10q-81 0 -143 27l17 64q66 -22 130 -22q53 0 70 12.5t24 53.5q5 31 -10 49t-72 44q-72 33 -93.5 69t-11.5 92q11 65 47.5 91.5t126.5 26.5q73 0 138 -21l-14 -65q-65 17 -126 17q-52 0 -68.5 -11t-23.5 -48q-6 -33 6.5 -48t61.5 -41q86 -46 108 -75t12 -85
q-14 -73 -49 -101.5t-130 -28.5zM361 542q-46 26 -93 64q-42 -33 -105 -64l-26 47q84 50 140 91q37 -38 114 -95z" />
    <glyph glyph-name="Scedilla" unicode="&#x15e;" horiz-adv-x="534" 
d="M182 -204q-36 0 -74 14l12 40q30 -10 62 -10q62 0 62 40q0 23 -37 23q-23 0 -47 -3l-9 15l27 77q-89 7 -155 35l19 67q101 -31 180 -31q78 0 108 23.5t41 85.5q7 39 7 52q0 30 -23.5 44t-99.5 34q-85 22 -118 52.5t-33 84.5q0 23 7 67q18 100 67.5 135t169.5 35
q90 0 175 -23l-15 -71q-86 20 -165 20q-83 0 -110 -18.5t-38 -79.5q-7 -40 -7 -55q0 -30 22.5 -45t94.5 -34q91 -24 124.5 -52.5t33.5 -78.5q0 -26 -8 -68q-9 -49 -21.5 -79t-37.5 -54.5t-67 -35.5t-106 -12l-18 -54q17 3 31 3q28 0 44 -14.5t16 -39.5q0 -41 -29.5 -65
t-84.5 -24z" />
    <glyph glyph-name="scedilla" unicode="&#x15f;" horiz-adv-x="411" 
d="M133 -204q-36 0 -74 14l12 40q30 -10 62 -10q62 0 62 40q0 23 -37 23q-23 0 -47 -3l-9 15l27 77q-64 5 -110 25l17 64q66 -22 130 -22q53 0 70 12.5t24 53.5q5 31 -10 49t-72 44q-72 33 -93.5 69t-11.5 92q11 65 47.5 91.5t126.5 26.5q73 0 138 -21l-14 -65
q-65 17 -126 17q-52 0 -68.5 -11t-23.5 -48q-6 -33 6.5 -48t61.5 -41q86 -46 108 -75t12 -85q-14 -71 -46.5 -99.5t-120.5 -30.5l-18 -54q17 3 31 3q28 0 44 -14.5t16 -39.5q0 -41 -29.5 -65t-84.5 -24z" />
    <glyph glyph-name="Scaron" unicode="&#x160;" horiz-adv-x="534" 
d="M214 -10q-101 0 -191 37l19 67q101 -31 180 -31q78 0 108 23.5t41 85.5q7 39 7 52q0 30 -23.5 44t-99.5 34q-85 22 -118 52.5t-33 84.5q0 23 7 67q18 100 67.5 135t169.5 35q90 0 175 -23l-15 -71q-86 20 -165 20q-83 0 -110 -18.5t-38 -79.5q-7 -40 -7 -55
q0 -30 22.5 -45t94.5 -34q91 -24 124.5 -52.5t33.5 -78.5q0 -26 -8 -68q-9 -49 -21.5 -80t-38.5 -55.5t-70 -35t-111 -10.5zM277 838q41 -21 89 -53q44 27 94 53l26 -47q-60 -32 -129 -78q-45 38 -109 82z" />
    <glyph glyph-name="scaron" unicode="&#x161;" horiz-adv-x="411" 
d="M162 -10q-81 0 -143 27l17 64q66 -22 130 -22q53 0 70 12.5t24 53.5q5 31 -10 49t-72 44q-72 33 -93.5 69t-11.5 92q11 65 47.5 91.5t126.5 26.5q73 0 138 -21l-14 -65q-65 17 -126 17q-52 0 -68.5 -11t-23.5 -48q-6 -33 6.5 -48t61.5 -41q86 -46 108 -75t12 -85
q-14 -73 -49 -101.5t-130 -28.5zM170 671q40 -23 94 -67q42 31 104 67l27 -46q-69 -41 -141 -93q-42 45 -113 97z" />
    <glyph glyph-name="Tcommaaccent" unicode="&#x162;" 
d="M364 591l-104 -591h-84l103 591h-197l13 75h480l-13 -75h-198zM148 -158l19 107h82l-19 -107l-67 -101l-33 22l48 79h-30z" />
    <glyph glyph-name="Tcommaaccent" unicode="&#x21a;" 
d="M364 591l-104 -591h-84l103 591h-197l13 75h480l-13 -75h-198zM148 -158l19 107h82l-19 -107l-67 -101l-33 22l48 79h-30z" />
    <glyph glyph-name="tcommaaccent" unicode="&#x163;" horiz-adv-x="363" 
d="M165 -10q-43 0 -65.5 21.5t-22.5 56.5q0 11 2 22l58 329h-86l12 68h86l21 120l84 11l-23 -131h134l-14 -68h-132l-58 -328q-1 -6 -1 -11q0 -21 28 -21q42 0 90 21l19 -57q-66 -33 -132 -33zM105 -158l19 107h82l-19 -107l-67 -101l-33 22l48 79h-30z" />
    <glyph glyph-name="tcommaaccent" unicode="&#x21b;" horiz-adv-x="363" 
d="M165 -10q-43 0 -65.5 21.5t-22.5 56.5q0 11 2 22l58 329h-86l12 68h86l21 120l84 11l-23 -131h134l-14 -68h-132l-58 -328q-1 -6 -1 -11q0 -21 28 -21q42 0 90 21l19 -57q-66 -33 -132 -33zM105 -158l19 107h82l-19 -107l-67 -101l-33 22l48 79h-30z" />
    <glyph glyph-name="Tcaron" unicode="&#x164;" 
d="M364 591l-104 -591h-84l103 591h-197l13 75h480l-13 -75h-198zM260 838q41 -21 89 -53q44 27 94 53l26 -47q-60 -32 -129 -78q-45 38 -109 82z" />
    <glyph glyph-name="tcaron" unicode="&#x165;" horiz-adv-x="366" 
d="M344 606l16 90h84l-16 -90l-56 -77l-31 24l36 53h-33zM165 -10q-43 0 -65.5 21.5t-22.5 56.5q0 11 2 22l58 329h-86l12 68h86l21 120l84 11l-23 -131h134l-14 -68h-132l-58 -328q-1 -6 -1 -11q0 -21 28 -21q42 0 90 21l19 -57q-66 -33 -132 -33z" />
    <glyph glyph-name="Tbar" unicode="&#x166;" 
d="M64 300l10 58h164l41 233h-197l13 75h480l-13 -75h-198l-41 -233h165l-11 -58h-164l-53 -300h-84l52 300h-164z" />
    <glyph glyph-name="tbar" unicode="&#x167;" horiz-adv-x="363" 
d="M21 225l9 58h87l24 136h-86l12 68h86l21 120l84 11l-23 -131h134l-14 -68h-132l-24 -136h125l-9 -58h-127l-23 -134q-1 -6 -1 -11q0 -21 28 -21q42 0 90 21l19 -57q-66 -33 -132 -33q-43 0 -65.5 21.5t-22.5 56.5q0 11 2 22l24 135h-86z" />
    <glyph glyph-name="Utilde" unicode="&#x168;" horiz-adv-x="631" 
d="M271 -10q-102 0 -154 44.5t-52 118.5q0 19 4 40l83 473h84l-83 -473q-3 -18 -3 -37q0 -47 31 -69.5t101 -22.5q81 0 121.5 33.5t52.5 100.5l83 468h84l-84 -478q-17 -95 -77.5 -146.5t-190.5 -51.5zM465 724q-24 0 -59 19t-49 19q-22 0 -59 -35l-30 31q38 62 96 62
q22 0 56 -19t49 -19q24 0 49 29l35 -25q-35 -62 -88 -62z" />
    <glyph glyph-name="utilde" unicode="&#x169;" horiz-adv-x="530" 
d="M199 493l-67 -381q-2 -12 -2 -17q0 -27 34 -27q66 0 184 73l59 340l85 12l-87 -493h-70l5 63q-38 -27 -101 -50t-105 -23q-87 0 -87 86q0 21 4 42l64 363zM383 554q-24 0 -59 19t-49 19q-5 0 -9.5 -1t-9.5 -3.5l-8 -4t-8.5 -6t-7.5 -6t-8 -7.5l-7 -7l-31 31q38 62 96 62
q21 0 55.5 -19t50.5 -19q23 0 49 29l35 -25q-35 -62 -89 -62z" />
    <glyph glyph-name="Umacron" unicode="&#x16a;" horiz-adv-x="631" 
d="M271 -10q-102 0 -154 44.5t-52 118.5q0 19 4 40l83 473h84l-83 -473q-3 -18 -3 -37q0 -47 31 -69.5t101 -22.5q81 0 121.5 33.5t52.5 100.5l83 468h84l-84 -478q-17 -95 -77.5 -146.5t-190.5 -51.5zM273 737l11 59h239l-11 -59h-239z" />
    <glyph glyph-name="umacron" unicode="&#x16b;" horiz-adv-x="530" 
d="M199 493l-67 -381q-2 -12 -2 -17q0 -27 34 -27q66 0 184 73l59 340l85 12l-87 -493h-70l5 63q-38 -27 -101 -50t-105 -23q-87 0 -87 86q0 21 4 42l64 363zM204 566l10 59h239l-10 -59h-239z" />
    <glyph glyph-name="Ubreve" unicode="&#x16c;" horiz-adv-x="631" 
d="M271 -10q-102 0 -154 44.5t-52 118.5q0 19 4 40l83 473h84l-83 -473q-3 -18 -3 -37q0 -47 31 -69.5t101 -22.5q81 0 121.5 33.5t52.5 100.5l83 468h84l-84 -478q-17 -95 -77.5 -146.5t-190.5 -51.5zM402 715q-45 0 -75.5 22.5t-40.5 56.5l46 27q21 -51 75 -51q50 0 87 52
l40 -29q-39 -78 -132 -78z" />
    <glyph glyph-name="ubreve" unicode="&#x16d;" horiz-adv-x="530" 
d="M199 493l-67 -381q-2 -12 -2 -17q0 -27 34 -27q66 0 184 73l59 340l85 12l-87 -493h-70l5 63q-38 -27 -101 -50t-105 -23q-87 0 -87 86q0 21 4 42l64 363zM323 539q-46 0 -78 25t-43 61l47 26q22 -57 78 -57q54 0 96 59l40 -29q-44 -85 -140 -85z" />
    <glyph glyph-name="Uring" unicode="&#x16e;" horiz-adv-x="631" 
d="M271 -10q-102 0 -154 44.5t-52 118.5q0 19 4 40l83 473h84l-83 -473q-3 -18 -3 -37q0 -47 31 -69.5t101 -22.5q81 0 121.5 33.5t52.5 100.5l83 468h84l-84 -478q-17 -95 -77.5 -146.5t-190.5 -51.5zM399 711q-27 0 -43.5 15.5t-16.5 40.5q0 38 22 59.5t61 21.5
q28 0 44 -15t16 -38q0 -36 -21 -60t-62 -24zM417 815q-17 0 -28 -12t-11 -31q0 -26 26 -26q38 0 38 44q0 25 -25 25z" />
    <glyph glyph-name="uring" unicode="&#x16f;" horiz-adv-x="530" 
d="M199 493l-67 -381q-2 -12 -2 -17q0 -27 34 -27q66 0 184 73l59 340l85 12l-87 -493h-70l5 63q-38 -27 -101 -50t-105 -23q-87 0 -87 86q0 21 4 42l64 363zM313 535q-29 0 -46 16.5t-17 42.5q0 39 23.5 62.5t64.5 23.5q29 0 46 -16.5t17 -40.5q0 -37 -22.5 -62.5
t-65.5 -25.5zM333 646q-19 0 -31 -13t-12 -34q0 -29 29 -29q19 0 30 13.5t11 34.5q0 28 -27 28z" />
    <glyph glyph-name="Uhungarumlaut" unicode="&#x170;" horiz-adv-x="631" 
d="M271 -10q-102 0 -154 44.5t-52 118.5q0 19 4 40l83 473h84l-83 -473q-3 -18 -3 -37q0 -47 31 -69.5t101 -22.5q81 0 121.5 33.5t52.5 100.5l83 468h84l-84 -478q-17 -95 -77.5 -146.5t-190.5 -51.5zM312 715l-36 43q46 37 96 85l39 -48q-43 -40 -99 -80zM470 715l-36 43
q46 37 96 85l39 -48q-43 -40 -99 -80z" />
    <glyph glyph-name="uhungarumlaut" unicode="&#x171;" horiz-adv-x="530" 
d="M199 493l-67 -381q-2 -12 -2 -17q0 -27 34 -27q66 0 184 73l59 340l85 12l-87 -493h-70l5 63q-38 -27 -101 -50t-105 -23q-87 0 -87 86q0 21 4 42l64 363zM229 536l-38 41q66 61 107 109l41 -46q-45 -51 -110 -104zM385 536l-38 41q66 61 108 109l40 -46
q-49 -55 -110 -104z" />
    <glyph glyph-name="Uogonek" unicode="&#x172;" horiz-adv-x="631" 
d="M337 -194q-25 -13 -63 -13q-42 0 -66.5 19t-24.5 54q0 71 117 125q-10 -1 -29 -1q-102 0 -154 44.5t-52 118.5q0 19 4 40l83 473h84l-83 -473q-3 -18 -3 -37q0 -47 31 -69.5t101 -22.5q81 0 121.5 33.5t52.5 100.5l83 468h84l-84 -478q-25 -140 -140 -180
q-146 -66 -146 -129q0 -32 41 -32q21 0 39 6z" />
    <glyph glyph-name="uogonek" unicode="&#x173;" horiz-adv-x="530" 
d="M370 -194q-25 -13 -63 -13q-42 0 -66.5 19t-24.5 54q0 70 119 134l5 63q-38 -27 -101 -50t-105 -23q-87 0 -87 86q0 21 4 42l64 363l84 12l-67 -381q-2 -12 -2 -17q0 -27 34 -27q66 0 184 73l59 340l85 12l-87 -493q-119 -67 -119 -121q0 -32 41 -32q21 0 39 6z" />
    <glyph glyph-name="Wcircumflex" unicode="&#x174;" horiz-adv-x="906" 
d="M670 0h-122l-42 597l-237 -597h-116l-61 666h79l50 -590l241 590h113l46 -590l240 590h85zM623 715q-48 25 -90 53q-44 -28 -94 -53l-25 46q74 42 128 78q47 -39 109 -82z" />
    <glyph glyph-name="wcircumflex" unicode="&#x175;" horiz-adv-x="685" 
d="M342 387l-18 89l72 14l81 -423q24 63 95 263q13 38 13 84q0 36 -8 65l75 14q8 -52 8 -77q0 -59 -20 -115l-114 -301h-110l-55 285l-151 -285h-106q0 326 -42 479l75 12q40 -195 36 -425zM473 542q-46 26 -93 64q-42 -33 -105 -64l-26 47q84 50 140 91q37 -38 114 -95z
" />
    <glyph glyph-name="Ycircumflex" unicode="&#x176;" horiz-adv-x="535" 
d="M298 198l-35 -198h-84l36 205l-138 461h81l113 -376l237 376h95zM434 715q-48 25 -90 53q-44 -28 -94 -53l-25 46q74 42 128 78q47 -39 109 -82z" />
    <glyph glyph-name="ycircumflex" unicode="&#x177;" horiz-adv-x="434" 
d="M244 0q-46 -85 -93.5 -131.5t-138.5 -76.5l-22 63q59 21 97.5 53.5t71.5 91.5h-29l-76 480l79 11l62 -426l138 288q18 37 18 74q0 27 -8 54l79 12q8 -34 8 -64q0 -51 -17 -85zM350 542q-46 26 -93 64q-42 -33 -105 -64l-26 47q84 50 140 91q37 -38 114 -95z" />
    <glyph glyph-name="Ydieresis" unicode="&#x178;" horiz-adv-x="535" 
d="M298 198l-35 -198h-84l36 205l-138 461h81l113 -376l237 376h95zM205 732l13 75h79l-13 -75h-79zM392 732l13 75h79l-13 -75h-79z" />
    <glyph glyph-name="Zacute" unicode="&#x179;" horiz-adv-x="570" 
d="M49 0l-2 73l408 519h-330l13 74h412v-73l-408 -520h334l-12 -73h-415zM322 716l-30 49q69 42 116 78l34 -53q-58 -43 -120 -74z" />
    <glyph glyph-name="zacute" unicode="&#x17a;" horiz-adv-x="452" 
d="M35 0l-5 65l296 356h-241l8 66h329v-65l-296 -356h239l-10 -66h-320zM223 550l-29 52q80 40 148 88l31 -55q-64 -44 -150 -85z" />
    <glyph glyph-name="Zdotaccent" unicode="&#x17b;" horiz-adv-x="570" 
d="M49 0l-2 73l408 519h-330l13 74h412v-73l-408 -520h334l-12 -73h-415zM307 718l22 124l84 12l-22 -125z" />
    <glyph glyph-name="zdotaccent" unicode="&#x17c;" horiz-adv-x="452" 
d="M35 0l-5 65l296 356h-241l8 66h329v-65l-296 -356h239l-10 -66h-320zM229 562l22 124l84 12l-22 -125z" />
    <glyph glyph-name="Zcaron" unicode="&#x17d;" horiz-adv-x="570" 
d="M49 0l-2 73l408 519h-330l13 74h412v-73l-408 -520h334l-12 -73h-415zM263 838q41 -21 89 -53q44 27 94 53l26 -47q-60 -32 -129 -78q-45 38 -109 82z" />
    <glyph glyph-name="zcaron" unicode="&#x17e;" horiz-adv-x="452" 
d="M35 0l-5 65l296 356h-241l8 66h329v-65l-296 -356h239l-10 -66h-320zM179 671q40 -23 94 -67q42 31 104 67l27 -46q-69 -41 -141 -93q-42 45 -113 97z" />
    <glyph glyph-name="florin" unicode="&#x192;" horiz-adv-x="497" 
d="M509 625q-41 12 -76 12q-40 0 -55.5 -12t-25.5 -49l-39 -150h133l-17 -69h-135l-114 -435q-18 -67 -45.5 -93t-91.5 -26q-48 0 -86 19l17 63q33 -13 61 -13q30 0 43 12t22 47l112 426h-87l19 69h87l42 160q17 65 49 92.5t103 27.5q53 0 100 -18z" />
    <glyph glyph-name="Aringacute" unicode="&#x1fa;" horiz-adv-x="621" 
d="M465 0l-24 162h-278l-83 -162h-88l335 666h120l104 -666h-86zM379 608l-182 -374h233zM395 694q-27 0 -43.5 15.5t-16.5 40.5q0 38 22 59.5t61 21.5q28 0 44 -15t16 -38q0 -36 -21 -60t-62 -24zM413 798q-17 0 -28 -12t-11 -31q0 -26 26 -26q38 0 38 44q0 25 -25 25z
M427 851l-27 43q63 37 101 66l31 -47q-46 -31 -105 -62z" />
    <glyph glyph-name="aringacute" unicode="&#x1fb;" horiz-adv-x="513" 
d="M470 464l-82 -464h-68l3 59q-78 -69 -182 -69q-103 0 -103 97q0 12 4 38l34 193q17 95 63 137t156 42q87 0 175 -33zM332 146l47 268q-45 12 -94 12q-59 0 -88 -25t-41 -94l-31 -176q-4 -24 -4 -34q0 -36 40 -36q78 0 171 85zM322 534q-27 0 -43.5 15.5t-16.5 40.5
q0 38 22 59.5t61 21.5q28 0 44 -15t16 -38q0 -36 -21 -60t-62 -24zM340 638q-17 0 -28 -12t-11 -31q0 -26 26 -26q38 0 38 44q0 25 -25 25zM354 691l-27 43q63 37 101 66l31 -47q-46 -31 -105 -62z" />
    <glyph glyph-name="AEacute" unicode="&#x1fc;" horiz-adv-x="847" 
d="M465 0l-24 162h-278l-83 -162h-88l335 666h531l-14 -75h-386l34 -213h293l-13 -74h-269l36 -229h215l-13 -75h-276zM379 608l-182 -374h233zM435 716l-30 49q69 42 116 78l34 -53q-58 -43 -120 -74z" />
    <glyph glyph-name="aeacute" unicode="&#x1fd;" horiz-adv-x="718" 
d="M396 198l-12 -65q-2 -14 -2 -21q0 -53 74 -53q79 0 180 49l18 -62q-104 -56 -208 -56q-95 0 -127 53q-80 -53 -181 -53q-56 0 -86 28.5t-30 78.5q0 90 42.5 127t127.5 37h133l14 80q3 15 3 26q0 33 -22.5 46.5t-73.5 13.5q-71 0 -143 -16l-9 63q79 23 165 23
q111 0 137 -71q53 71 157 71q62 0 98 -31t36 -88q0 -84 -70.5 -124t-220.5 -56zM416 311l-9 -49q111 10 157.5 38t46.5 78q0 21 -15 36.5t-50 15.5q-108 0 -130 -119zM314 197h-118q-51 0 -72.5 -19.5t-21.5 -77.5q0 -43 60 -43q69 0 141 40q-3 18 3 50q1 8 8 50zM406 550
l-29 52q80 40 148 88l31 -55q-64 -44 -150 -85z" />
    <glyph glyph-name="Oslashacute" unicode="&#x1fe;" horiz-adv-x="619" 
d="M27 -33l63 84q-34 41 -34 104q0 22 4 43l48 273q19 107 81.5 156t190.5 49q90 0 147 -42l69 92l36 -27l-73 -97q31 -43 31 -99q0 -15 -4 -37l-49 -279q-17 -96 -79.5 -146.5t-194.5 -50.5q-87 0 -138 31l-61 -81zM140 160q0 -22 5 -36l335 448q-33 30 -109 30
q-84 0 -125.5 -31.5t-54.5 -103.5l-47 -268q-4 -23 -4 -39zM455 194l48 273q4 24 4 36q0 14 -3 26l-331 -443q35 -22 103 -22q84 0 125.5 32.5t53.5 97.5zM359 716l-30 49q69 42 116 78l34 -53q-58 -43 -120 -74z" />
    <glyph glyph-name="oslashacute" unicode="&#x1ff;" horiz-adv-x="506" 
d="M11 -24l54 67q-40 49 -24 132l25 142q16 91 71 135.5t158 44.5q69 0 112 -30l57 70l31 -25l-59 -72q29 -37 29 -88q0 -18 -3 -34l-27 -153q-15 -87 -67.5 -131t-160.5 -44q-68 0 -112 26l-54 -66zM123 171q-6 -35 -1 -57l237 292q-26 20 -76 20q-115 0 -135 -114z
M354 170l26 148q3 16 3 29t-3 23l-235 -292q23 -17 74 -17q62 0 93.5 26.5t41.5 82.5zM272 550l-29 52q80 40 148 88l31 -55q-64 -44 -150 -85z" />
    <glyph glyph-name="Scommaaccent" unicode="&#x218;" horiz-adv-x="534" 
d="M214 -10q-101 0 -191 37l19 67q101 -31 180 -31q78 0 108 23.5t41 85.5q7 39 7 52q0 30 -23.5 44t-99.5 34q-85 22 -118 52.5t-33 84.5q0 23 7 67q18 100 67.5 135t169.5 35q90 0 175 -23l-15 -71q-86 20 -165 20q-83 0 -110 -18.5t-38 -79.5q-7 -40 -7 -55
q0 -30 22.5 -45t94.5 -34q91 -24 124.5 -52.5t33.5 -78.5q0 -26 -8 -68q-9 -49 -21.5 -80t-38.5 -55.5t-70 -35t-111 -10.5zM149 -158l19 107h82l-19 -107l-67 -101l-33 22l48 79h-30z" />
    <glyph glyph-name="scommaaccent" unicode="&#x219;" horiz-adv-x="411" 
d="M162 -10q-81 0 -143 27l17 64q66 -22 130 -22q53 0 70 12.5t24 53.5q5 31 -10 49t-72 44q-72 33 -93.5 69t-11.5 92q11 65 47.5 91.5t126.5 26.5q73 0 138 -21l-14 -65q-65 17 -126 17q-52 0 -68.5 -11t-23.5 -48q-6 -33 6.5 -48t61.5 -41q86 -46 108 -75t12 -85
q-14 -73 -49 -101.5t-130 -28.5zM92 -158l19 107h82l-19 -107l-67 -101l-33 22l48 79h-30z" />
    <glyph glyph-name="circumflex" unicode="&#x2c6;" horiz-adv-x="384" 
d="M349 542q-46 26 -93 64q-42 -33 -105 -64l-26 47q84 50 140 91q37 -38 114 -95z" />
    <glyph glyph-name="caron" unicode="&#x2c7;" horiz-adv-x="384" 
d="M154 671q40 -23 94 -67q42 31 104 67l27 -46q-69 -41 -141 -93q-42 45 -113 97z" />
    <glyph glyph-name="breve" unicode="&#x2d8;" horiz-adv-x="391" 
d="M246 539q-46 0 -78 25t-43 61l47 26q22 -57 78 -57q54 0 96 59l40 -29q-44 -85 -140 -85z" />
    <glyph glyph-name="dotaccent" unicode="&#x2d9;" horiz-adv-x="236" 
d="M125 562l22 124l84 12l-22 -125z" />
    <glyph glyph-name="ring" unicode="&#x2da;" horiz-adv-x="281" 
d="M183 535q-29 0 -46 16.5t-17 42.5q0 39 23.5 62.5t64.5 23.5q29 0 46 -16.5t17 -40.5q0 -37 -22.5 -62.5t-65.5 -25.5zM203 646q-19 0 -31 -13t-12 -34q0 -29 29 -29q19 0 30 13.5t11 34.5q0 28 -27 28z" />
    <glyph glyph-name="ogonek" unicode="&#x2db;" horiz-adv-x="324" 
d="M154 -194q-25 -13 -63 -13q-42 0 -66.5 19t-24.5 54q0 42 34 73t89 61h66q-119 -67 -119 -121q0 -32 41 -32q21 0 39 6z" />
    <glyph glyph-name="tilde" unicode="&#x2dc;" horiz-adv-x="416" 
d="M322 554q-24 0 -59 19t-49 19q-5 0 -9.5 -1t-9.5 -3.5l-8 -4t-8.5 -6t-7.5 -6t-8 -7.5l-7 -7l-31 31q38 62 96 62q21 0 55.5 -19t50.5 -19q23 0 49 29l35 -25q-35 -62 -89 -62z" />
    <glyph glyph-name="hungarumlaut" unicode="&#x2dd;" horiz-adv-x="429" 
d="M163 536l-38 41q66 61 107 109l41 -46q-45 -51 -110 -104zM319 536l-38 41q66 61 108 109l40 -46q-49 -55 -110 -104z" />
    <glyph glyph-name="Omega" unicode="&#x3a9;" horiz-adv-x="680" 
d="M485 196l48 272q3 19 3 34q0 99 -135 99q-83 0 -125.5 -32.5t-54.5 -101.5l-48 -273q-2 -12 -2 -24q0 -71 55 -106l-11 -64h-190l11 63h92q-42 45 -42 96q0 18 3 36l49 276q19 107 81.5 156t190.5 49q103 0 157 -48t54 -123q0 -18 -3 -37l-50 -279q-7 -43 -25 -72
t-52 -54h93l-11 -63h-198l10 64q86 47 100 132z" />
    <glyph glyph-name="pi" unicode="&#x3c0;" horiz-adv-x="672" 
d="M479 -10q-97 0 -97 79q0 15 3 32l56 316h-172q-36 -243 -107 -417h-83q79 206 111 417h-123l12 70h573l-12 -70h-119l-55 -310q-5 -27 1 -39t32 -12q33 0 67 18l4 -61q-37 -23 -91 -23z" />
    <glyph glyph-name="Wgrave" unicode="&#x1e80;" horiz-adv-x="906" 
d="M670 0h-122l-42 597l-237 -597h-116l-61 666h79l50 -590l241 590h113l46 -590l240 590h85zM527 717q-54 31 -112 78l39 49q43 -37 107 -80z" />
    <glyph glyph-name="wgrave" unicode="&#x1e81;" horiz-adv-x="685" 
d="M342 387l-18 89l72 14l81 -423q24 63 95 263q13 38 13 84q0 36 -8 65l75 14q8 -52 8 -77q0 -59 -20 -115l-114 -301h-110l-55 285l-151 -285h-106q0 326 -42 479l75 12q40 -195 36 -425zM374 550q-66 41 -117 87l43 51q45 -44 111 -90z" />
    <glyph glyph-name="Wacute" unicode="&#x1e82;" horiz-adv-x="906" 
d="M670 0h-122l-42 597l-237 -597h-116l-61 666h79l50 -590l241 590h113l46 -590l240 590h85zM525 716l-30 49q69 42 116 78l34 -53q-58 -43 -120 -74z" />
    <glyph glyph-name="wacute" unicode="&#x1e83;" horiz-adv-x="685" 
d="M342 387l-18 89l72 14l81 -423q24 63 95 263q13 38 13 84q0 36 -8 65l75 14q8 -52 8 -77q0 -59 -20 -115l-114 -301h-110l-55 285l-151 -285h-106q0 326 -42 479l75 12q40 -195 36 -425zM344 550l-29 52q80 40 148 88l31 -55q-64 -44 -150 -85z" />
    <glyph glyph-name="Wdieresis" unicode="&#x1e84;" horiz-adv-x="906" 
d="M670 0h-122l-42 597l-237 -597h-116l-61 666h79l50 -590l241 590h113l46 -590l240 590h85zM404 732l13 75h79l-13 -75h-79zM591 732l13 75h79l-13 -75h-79z" />
    <glyph glyph-name="wdieresis" unicode="&#x1e85;" horiz-adv-x="685" 
d="M342 387l-18 89l72 14l81 -423q24 63 95 263q13 38 13 84q0 36 -8 65l75 14q8 -52 8 -77q0 -59 -20 -115l-114 -301h-110l-55 285l-151 -285h-106q0 326 -42 479l75 12q40 -195 36 -425zM256 563l15 84l78 3l-15 -84zM436 563l15 84l78 3l-15 -84z" />
    <glyph glyph-name="Ygrave" unicode="&#x1ef2;" horiz-adv-x="535" 
d="M298 198l-35 -198h-84l36 205l-138 461h81l113 -376l237 376h95zM349 717q-54 31 -112 78l39 49q43 -37 107 -80z" />
    <glyph glyph-name="ygrave" unicode="&#x1ef3;" horiz-adv-x="434" 
d="M244 0q-46 -85 -93.5 -131.5t-138.5 -76.5l-22 63q59 21 97.5 53.5t71.5 91.5h-29l-76 480l79 11l62 -426l138 288q18 37 18 74q0 27 -8 54l79 12q8 -34 8 -64q0 -51 -17 -85zM263 550q-66 41 -117 87l43 51q45 -44 111 -90z" />
    <glyph glyph-name="endash" unicode="&#x2013;" horiz-adv-x="486" 
d="M74 247l11 69h354l-12 -69h-353z" />
    <glyph glyph-name="emdash" unicode="&#x2014;" horiz-adv-x="622" 
d="M74 247l11 69h490l-12 -69h-489z" />
    <glyph glyph-name="quoteleft" unicode="&#x2018;" horiz-adv-x="247" 
d="M221 699l31 -22l-60 -99h32l-19 -110h-85l20 114z" />
    <glyph glyph-name="quoteright" unicode="&#x2019;" horiz-adv-x="247" 
d="M151 455l-31 22l60 99h-32l19 110h85l-20 -114z" />
    <glyph glyph-name="quotesinglbase" unicode="&#x201a;" horiz-adv-x="255" 
d="M46 -121l-31 22l60 99h-32l19 110h85l-20 -114z" />
    <glyph glyph-name="quotedblleft" unicode="&#x201c;" horiz-adv-x="421" 
d="M221 699l31 -22l-60 -99h32l-19 -110h-85l20 114zM395 699l31 -22l-60 -99h32l-19 -110h-85l20 114z" />
    <glyph glyph-name="quotedblright" unicode="&#x201d;" horiz-adv-x="421" 
d="M325 455l-31 22l60 99h-32l19 110h85l-20 -114zM151 455l-31 22l60 99h-32l19 110h85l-20 -114z" />
    <glyph glyph-name="quotedblbase" unicode="&#x201e;" horiz-adv-x="429" 
d="M220 -121l-31 22l60 99h-32l19 110h85l-20 -114zM46 -121l-31 22l60 99h-32l19 110h85l-20 -114z" />
    <glyph glyph-name="dagger" unicode="&#x2020;" horiz-adv-x="470" 
d="M301 428l-88 -498h-70l88 498h-156l11 61h156l31 177h70l-31 -177h157l-12 -61h-156z" />
    <glyph glyph-name="daggerdbl" unicode="&#x2021;" horiz-adv-x="470" 
d="M244 107l-31 -177h-71l32 177h-157l12 61h156l45 260h-156l11 61h156l31 177h71l-32 -177h157l-11 -61h-157l-45 -260h157l-12 -61h-156z" />
    <glyph glyph-name="bullet" unicode="&#x2022;" horiz-adv-x="372" 
d="M75 323q0 50 35.5 85.5t85.5 35.5t86 -35.5t36 -85.5t-36 -85.5t-86 -35.5t-85.5 35.5t-35.5 85.5z" />
    <glyph glyph-name="ellipsis" unicode="&#x2026;" horiz-adv-x="768" 
d="M52 0l19 110h85l-19 -110h-85zM308 0l19 110h85l-19 -110h-85zM564 0l19 110h85l-19 -110h-85z" />
    <glyph glyph-name="perthousand" unicode="&#x2030;" horiz-adv-x="1211" 
d="M274 -10l-52 27l354 659l52 -27zM195 313q-127 0 -127 102q0 17 3 33l18 102q12 67 48 96.5t119 29.5q63 0 96 -28t33 -76q0 -9 -3 -27l-19 -109q-11 -61 -48 -92t-120 -31zM299 448l17 97q2 10 2 21q0 26 -16 39t-54 13q-45 0 -65.5 -16t-28.5 -57l-18 -102
q-2 -14 -2 -22q0 -25 16 -37.5t54 -12.5q48 0 68 18t27 59zM591 -10q-127 0 -127 102q0 16 3 33l18 102q12 67 48 96.5t119 29.5q63 0 96 -28t33 -76q0 -9 -3 -27l-19 -109q-11 -61 -48 -92t-120 -31zM695 125l17 97q2 10 2 21q0 26 -16 39t-54 13q-45 0 -65.5 -16
t-28.5 -57l-18 -102q-2 -14 -2 -22q0 -25 16 -37.5t54 -12.5q48 0 68 18t27 59zM961 -10q-127 0 -127 102q0 16 3 33l18 102q12 67 48 96.5t119 29.5q63 0 96 -28t33 -76q0 -9 -3 -27l-19 -109q-11 -61 -48 -92t-120 -31zM1065 125l17 97q2 10 2 21q0 26 -16 39t-54 13
q-45 0 -65.5 -16t-28.5 -57l-18 -102q-2 -14 -2 -22q0 -25 16 -37.5t54 -12.5q48 0 68 18t27 59z" />
    <glyph glyph-name="guilsinglleft" unicode="&#x2039;" horiz-adv-x="283" 
d="M138 52l-92 192l157 193l54 -47l-126 -149l72 -157z" />
    <glyph glyph-name="guilsinglright" unicode="&#x203a;" horiz-adv-x="283" 
d="M156 438l92 -192l-157 -193l-54 47l126 149l-72 157z" />
    <glyph glyph-name="fraction" unicode="&#x2044;" horiz-adv-x="311" 
d="M-9 -33l-46 28l395 684l46 -26z" />
    <glyph glyph-name="Euro" unicode="&#x20ac;" horiz-adv-x="522" 
d="M43 378l10 53h86l6 31q19 104 78 149t180 45q70 0 139 -19l-16 -67q-65 14 -130 14q-84 0 -120.5 -29t-50.5 -104l-4 -20h219l-9 -53h-219l-18 -104h218l-9 -53h-218l-5 -29q-4 -21 -4 -42q0 -47 27 -67.5t103 -20.5q59 0 133 14l3 -69q-68 -17 -153 -17q-196 0 -196 154
q0 19 5 49l5 28h-88l10 53h87l18 104h-87z" />
    <glyph glyph-name="uni2113" unicode="&#x2113;" horiz-adv-x="459" 
d="M199 -10q-127 0 -127 113q0 24 4 44l9 51l-72 -40l-26 59l112 61l46 261q15 85 56 126t123 41q63 0 95 -34.5t32 -89.5q0 -95 -71 -174.5t-206 -162.5l-20 -115q-2 -12 -2 -23q0 -47 57 -47q59 0 154 55l28 -58q-100 -67 -192 -67zM228 550l-38 -217q183 119 183 250
q0 54 -57 54q-74 0 -88 -87z" />
    <glyph glyph-name="uni2116" unicode="&#x2116;" horiz-adv-x="966" 
d="M370 0l-154 557l-98 -557h-78l118 666h105l153 -564l99 564h78l-117 -666h-106zM625 185l9 56h278l-10 -56h-277zM955 434q-11 -66 -51 -101.5t-122 -35.5q-75 0 -105.5 36.5t-18.5 100.5l20 110q24 132 171 132q73 0 104.5 -39.5t19.5 -102.5zM906 541q14 76 -68 76
q-79 0 -93 -76l-19 -109q-7 -39 7 -57.5t59 -18.5q81 0 95 76z" />
    <glyph glyph-name="trademark" unicode="&#x2122;" horiz-adv-x="504" 
d="M166 461v173h-61v32h157v-32h-61v-173h-35zM403 515l54 151h40l7 -205h-35l-3 141l-43 -116h-40l-43 116l-3 -141h-35l7 205h40z" />
    <glyph glyph-name="estimated" unicode="&#x212e;" horiz-adv-x="804" 
d="M774 301h-572v-201q87 -76 215 -76q88 0 155.5 31t135.5 99l24 -24q-65 -67 -139.5 -103.5t-175.5 -36.5q-150 0 -253.5 98t-103.5 235t105.5 235t251.5 98t251.5 -98t105.5 -235v-22zM417 622q-124 0 -215 -80v-209h430v209q-91 80 -215 80z" />
    <glyph glyph-name="partialdiff" unicode="&#x2202;" horiz-adv-x="570" 
d="M441 157q-17 -49 -32 -76t-42 -50t-68.5 -32t-105.5 -9q-155 0 -155 103q0 29 12 64l39 109q21 59 43.5 91t66.5 50.5t114 18.5q64 0 131 -28l7 21q24 70 24 107q0 52 -29.5 75t-100.5 23q-58 0 -127 -27l-16 63q77 36 165 36q85 0 135.5 -41t50.5 -118q0 -61 -26 -133z
M305 355q-65 0 -91 -19t-44 -71l-40 -110q-11 -31 -11 -50q0 -25 22 -34.5t76 -9.5q67 0 93.5 18.5t46.5 74.5l63 176q-54 25 -115 25z" />
    <glyph glyph-name="Delta" unicode="&#x2206;" horiz-adv-x="702" 
d="M5 0l373 666h90l139 -666h-602zM410 588l-279 -519h379z" />
    <glyph glyph-name="product" unicode="&#x220f;" horiz-adv-x="799" 
d="M663 592l-122 -692h-81l121 692h-245l-122 -692h-82l122 692h-139l13 74h686l-13 -74h-138z" />
    <glyph glyph-name="summation" unicode="&#x2211;" horiz-adv-x="538" 
d="M23 -100l13 70l292 315l-185 311l13 70h389l-13 -69h-299l192 -312l-286 -316h290l-13 -69h-393z" />
    <glyph glyph-name="minus" unicode="&#x2212;" horiz-adv-x="392" 
d="M75 245v71h267v-71h-267z" />
    <glyph glyph-name="radical" unicode="&#x221a;" horiz-adv-x="673" 
d="M576 665l-297 -665h-87l-83 455l69 11l67 -380l283 644h213l-11 -65h-154z" />
    <glyph glyph-name="infinity" unicode="&#x221e;" horiz-adv-x="875" 
d="M655 106q-63 0 -109.5 33t-95.5 93q-50 -60 -96.5 -93t-109.5 -33q-80 0 -127.5 45t-47.5 125q0 81 47.5 126.5t127.5 45.5q63 0 109.5 -33t96.5 -94q49 61 95.5 94t109.5 33q81 0 128.5 -45.5t47.5 -126.5q0 -80 -48 -125t-128 -45zM654 382q-47 0 -82.5 -28t-72.5 -78
q40 -51 74 -77t81 -26q48 0 76.5 26.5t28.5 76.5q0 51 -28.5 78.5t-76.5 27.5zM245 382q-48 0 -76.5 -27.5t-28.5 -78.5q0 -50 28.5 -76.5t76.5 -26.5q47 0 81.5 26.5t74.5 76.5q-37 50 -73 78t-83 28z" />
    <glyph glyph-name="integral" unicode="&#x222b;" horiz-adv-x="387" 
d="M382 595q-32 10 -59 10q-23 0 -32.5 -9t-14.5 -33l-117 -666q-11 -58 -35.5 -81t-82.5 -23q-46 0 -86 19l17 61q30 -12 60 -12q23 0 32 7.5t13 29.5l118 668q10 59 35.5 84.5t85.5 25.5q47 0 83 -18z" />
    <glyph glyph-name="approxequal" unicode="&#x2248;" horiz-adv-x="522" 
d="M354 255q-36 0 -87 29t-83 29q-41 0 -85 -32l-29 52q57 48 120 48q33 0 86.5 -29t79.5 -29q40 0 80 30l31 -50q-54 -48 -113 -48zM354 92q-36 0 -87 29t-83 29q-41 0 -85 -32l-29 52q57 48 120 48q33 0 86.5 -29t79.5 -29q40 0 80 30l31 -50q-54 -48 -113 -48z" />
    <glyph glyph-name="notequal" unicode="&#x2260;" horiz-adv-x="482" 
d="M221 129l-60 -120l-51 27l48 93h-93v59h124l62 120h-186v59h216l62 122l51 -27l-49 -95h87v-59h-118l-62 -120h180v-59h-211z" />
    <glyph glyph-name="lessequal" unicode="&#x2264;" horiz-adv-x="538" 
d="M64 0v59h398v-59h-398zM439 470l-285 -138l285 -138l-27 -57l-337 168v54l337 168z" />
    <glyph glyph-name="greaterequal" unicode="&#x2265;" horiz-adv-x="538" 
d="M474 59v-59h-398v59h398zM384 332l-285 138l27 57l337 -168v-54l-337 -168l-27 57z" />
    <glyph glyph-name="lozenge" unicode="&#x25ca;" horiz-adv-x="594" 
d="M346 0h-48l-228 333l228 333h48l228 -333zM322 591l-176 -258l176 -258l175 258z" />
    <glyph glyph-name="apple" unicode="&#xf8ff;" horiz-adv-x="815" 
d="M451 334v-334h-331v666h665v-332h-334z" />
    <glyph glyph-name="Acute" horiz-adv-x="285" 
d="M190 716l-30 49q69 42 116 78l34 -53q-58 -43 -120 -74z" />
    <glyph glyph-name="Breve" horiz-adv-x="383" 
d="M276 715q-45 0 -75.5 22.5t-40.5 56.5l46 27q21 -51 75 -51q50 0 87 52l40 -29q-39 -78 -132 -78z" />
    <glyph glyph-name="Caron" horiz-adv-x="363" 
d="M174 838q41 -21 89 -53q44 27 94 53l26 -47q-60 -32 -129 -78q-45 38 -109 82z" />
    <glyph glyph-name="Cedilla" horiz-adv-x="303" 
d="M74 -204q-36 0 -74 14l12 40q30 -10 62 -10q62 0 62 40q0 23 -37 23q-23 0 -47 -3l-9 15l32 91h46l-24 -70q17 3 31 3q28 0 44 -14.5t16 -39.5q0 -41 -29.5 -65t-84.5 -24z" />
    <glyph glyph-name="Circumflex" horiz-adv-x="367" 
d="M359 715q-48 25 -90 53q-44 -28 -94 -53l-25 46q74 42 128 78q47 -39 109 -82z" />
    <glyph glyph-name="commaaccent" horiz-adv-x="327" 
d="M101 -158l19 107h82l-19 -107l-67 -101l-33 22l48 79h-30z" />
    <glyph glyph-name="Dieresis" horiz-adv-x="396" 
d="M136 732l13 75h79l-13 -75h-79zM323 732l13 75h79l-13 -75h-79z" />
    <glyph glyph-name="Dotaccent" horiz-adv-x="231" 
d="M150 718l22 124l84 12l-22 -125z" />
    <glyph glyph-name="Grave" horiz-adv-x="291" 
d="M252 717q-54 31 -112 78l39 49q43 -37 107 -80z" />
    <glyph glyph-name="Hungarumlaut" horiz-adv-x="413" 
d="M196 715l-36 43q46 37 96 85l39 -48q-43 -40 -99 -80zM354 715l-36 43q46 37 96 85l39 -48q-43 -40 -99 -80z" />
    <glyph glyph-name="Macron" horiz-adv-x="375" 
d="M150 737l11 59h239l-11 -59h-239z" />
    <glyph glyph-name="Ogonek" horiz-adv-x="324" 
d="M154 -194q-25 -13 -63 -13q-42 0 -66.5 19t-24.5 54q0 42 34 73t89 61h66q-119 -67 -119 -121q0 -32 41 -32q21 0 39 6z" />
    <glyph glyph-name="Ring" horiz-adv-x="268" 
d="M210 711q-27 0 -43.5 15.5t-16.5 40.5q0 38 22 59.5t61 21.5q28 0 44 -15t16 -38q0 -36 -21 -60t-62 -24zM228 815q-17 0 -28 -12t-11 -31q0 -26 26 -26q38 0 38 44q0 25 -25 25z" />
    <glyph glyph-name="Tilde" horiz-adv-x="400" 
d="M327 724q-24 0 -59 19t-49 19q-22 0 -59 -35l-30 31q38 62 96 62q22 0 56 -19t49 -19q24 0 49 29l35 -25q-35 -62 -88 -62z" />
    <glyph glyph-name="ampersand.salt" horiz-adv-x="608" 
d="M491 299l-50 -279q-92 -30 -208 -30q-95 0 -139 30t-44 90q0 20 3 38l12 68q17 101 112 123q-58 26 -58 88q0 16 3 31l12 68q15 85 60.5 117.5t159.5 32.5q92 0 172 -24l-14 -65q-92 18 -172 18q-64 0 -90 -16.5t-35 -66.5l-12 -68q-2 -16 -2 -22q0 -63 78 -63h322
l-12 -70h-98zM413 299h-136q-116 0 -132 -95l-9 -51q-3 -17 -3 -31q0 -34 23.5 -48.5t88.5 -14.5t128 15z" />
    <glyph glyph-name="minus.onum" horiz-adv-x="392" 
d="M75 245v71h267v-71h-267z" />
    <glyph glyph-name="multiply.onum" horiz-adv-x="524" 
d="M408 51l-141 142l-141 -142l-49 49l141 142l-141 142l49 49l141 -141l141 141l49 -49l-141 -142l141 -142z" />
    <glyph glyph-name="numbersign.onum" horiz-adv-x="624" 
d="M539 120h-110l-25 -120h-64l25 120h-165l-26 -120h-64l25 120h-104l13 59h104l34 155h-104l12 59h103l26 117h65l-26 -117h165l26 117h64l-25 -117h111l-12 -59h-111l-34 -155h110zM246 334l-34 -155h166l34 155h-166z" />
    <glyph glyph-name="dollar.onum" horiz-adv-x="475" 
d="M137 -99l15 91q-69 6 -129 33l16 62q88 -28 158 -28q61 0 83.5 15.5t29.5 54.5q8 46 -6.5 61t-88.5 36q-67 19 -95 38.5t-33 50.5t6 78q12 68 49.5 95t115.5 31l17 90h73l-17 -91q50 -3 109 -17l-15 -67q-75 16 -139 16q-66 0 -86.5 -12t-28.5 -57q-7 -42 5.5 -55.5
t80.5 -34.5q99 -31 123 -60t11 -101t-47 -103t-119 -35l-15 -91h-73z" />
    <glyph glyph-name="percent.onum" horiz-adv-x="743" 
d="M325 342q-10 -57 -41.5 -84t-107.5 -27q-112 0 -112 88q0 17 3 33l12 68q9 53 41 76.5t105 23.5q53 0 83.5 -24t30.5 -67q0 -9 -2 -21zM141 415l-13 -75q-2 -14 -2 -18q0 -19 12.5 -28t46.5 -9q39 0 56 13.5t22 41.5l12 70q2 12 2 18q0 38 -60 38q-40 0 -55.5 -11
t-20.5 -40zM669 101q-10 -57 -41.5 -84t-107.5 -27q-112 0 -112 88q0 17 3 33l12 68q9 53 41 76.5t105 23.5q53 0 83.5 -24t30.5 -67q0 -9 -2 -21zM485 174l-13 -75q-2 -14 -2 -18q0 -19 12.5 -28t46.5 -9q39 0 56 13.5t22 41.5l12 70q2 12 2 18q0 38 -60 38
q-40 0 -55.5 -11t-20.5 -40zM191 21l316 499l46 -31l-315 -499z" />
    <glyph glyph-name="plus.onum" horiz-adv-x="524" 
d="M298 209v-170h-71v170h-167v68h167v170h71v-170h166v-68h-166z" />
    <glyph glyph-name="zero.onum" horiz-adv-x="542" 
d="M224 -10q-178 0 -178 138q0 18 4 42l32 181q15 88 69 128.5t165 40.5q88 0 133.5 -40.5t45.5 -105.5q0 -16 -3 -33l-32 -182q-15 -85 -65 -127t-171 -42zM380 169l30 172q3 17 3 32q0 38 -25 57t-84 19q-69 0 -100.5 -25.5t-41.5 -82.5l-30 -171q-3 -18 -3 -35
q0 -37 24 -55.5t84 -18.5q70 0 101.5 24.5t41.5 83.5z" />
    <glyph glyph-name="one.onum" horiz-adv-x="342" 
d="M130 0l73 414l-137 -70l-31 65l191 101h76l-90 -510h-82z" />
    <glyph glyph-name="two.onum" horiz-adv-x="502" 
d="M23 0q1 11 4.5 32.5t5.5 32.5l167 127q96 74 122.5 102t32.5 63l3 17q2 14 2 19q0 30 -21 42t-69 12q-68 0 -161 -24l-12 66q95 31 178 31q79 0 123.5 -30.5t44.5 -87.5q0 -12 -3 -27l-2 -12q-11 -61 -32.5 -91.5t-100.5 -93.5l-139 -107h233q-11 -67 -12 -71h-364z" />
    <glyph glyph-name="three.onum" horiz-adv-x="476" 
d="M150 -146q-84 0 -160 27l19 65q78 -21 142 -21q74 0 100 19.5t35 72.5l8 45q2 14 2 19q0 72 -100 72h-114l12 71h115q100 0 113 77l12 69q2 10 2 22q0 32 -24 45t-78 13q-67 0 -132 -13l-7 66q71 17 154 17q86 0 128 -32t42 -88q0 -14 -3 -31l-11 -63q-9 -50 -31.5 -77.5
t-72.5 -43.5q35 -7 55.5 -35t20.5 -67q0 -15 -2 -27l-8 -44q-8 -43 -19 -69t-34 -48t-63 -31.5t-101 -9.5z" />
    <glyph glyph-name="four.onum" horiz-adv-x="562" 
d="M400 43l-32 -179h-81l31 179h-302l6 79l345 388h115l-71 -399h97l-13 -68h-95zM387 429l-282 -318h225z" />
    <glyph glyph-name="five.onum" horiz-adv-x="487" 
d="M159 -146q-83 0 -158 24l17 67q82 -19 149 -19q72 0 99 21.5t37 76.5l6 36q3 21 3 28q0 36 -21 49t-85 17q-103 6 -138 7l62 349h332l-12 -72h-251l-37 -210q35 -2 98 -7q136 -12 136 -117q0 -16 -4 -38l-6 -37q-9 -49 -20.5 -78.5t-36.5 -53t-66 -33.5t-104 -10z" />
    <glyph glyph-name="six.onum" horiz-adv-x="532" 
d="M233 -10q-168 0 -168 127q0 26 4 47l47 269q22 127 80 175t195 48q67 0 121 -17l-15 -66q-49 12 -100 12q-74 0 -113.5 -15.5t-57 -46t-28.5 -91.5l-15 -86q66 23 136 23q79 0 113.5 -28.5t34.5 -84.5q0 -25 -4 -46l-9 -52q-15 -86 -61 -127t-160 -41zM371 154l11 61
q4 26 4 33q0 28 -18.5 39t-67.5 11q-66 0 -130 -26l-20 -112q-3 -18 -3 -32q0 -35 22.5 -50.5t76.5 -15.5q61 0 88.5 20t36.5 72z" />
    <glyph glyph-name="seven.onum" horiz-adv-x="460" 
d="M90 -136l-61 40l344 535h-312l12 71h391l-5 -70z" />
    <glyph glyph-name="eight.onum" horiz-adv-x="551" 
d="M232 -10q-182 0 -182 120q0 12 4 38l6 33q10 58 45.5 92t109.5 58q-87 54 -87 125q0 12 2 26l3 18q15 84 62.5 120t152.5 36q77 0 121 -33.5t44 -89.5q0 -11 -3 -28l-5 -29q-19 -109 -136 -147q54 -25 79 -54t25 -70q0 -13 -3 -29l-6 -33q-10 -58 -32.5 -89.5t-70 -47.5
t-129.5 -16zM424 471l6 33q2 14 2 20q0 62 -96 62q-59 0 -87 -20.5t-35 -60.5l-5 -29q-2 -12 -2 -18q0 -29 21.5 -51t68.5 -45q61 25 91 49t36 60zM384 148l5 28q3 15 3 26q0 29 -21 45.5t-87 45.5q-81 -30 -109.5 -52.5t-35.5 -63.5l-5 -29q-3 -17 -3 -29q0 -33 25 -46
t88 -13q70 0 100.5 18.5t39.5 69.5z" />
    <glyph glyph-name="nine.onum" horiz-adv-x="522" 
d="M299 520q85 0 126.5 -33.5t41.5 -93.5q0 -26 -4 -47l-47 -269q-22 -128 -78 -175.5t-197 -47.5q-67 0 -121 17l15 66q49 -12 100 -12q76 0 116 15.5t56 45.5t27 92l15 86q-66 -23 -136 -23q-79 0 -113.5 28.5t-34.5 84.5q0 25 4 46l9 52q8 44 20 72.5t36 51.5t64.5 33.5
t100.5 10.5zM161 356l-11 -61q-4 -26 -4 -33q0 -29 18.5 -39.5t67.5 -10.5q66 0 130 26l20 112q3 18 3 32q0 35 -22.5 50.5t-76.5 15.5q-61 0 -88.5 -20t-36.5 -72z" />
    <glyph glyph-name="less.onum" horiz-adv-x="554" 
d="M462 -10l-412 228v52l411 227l29 -54l-366 -199l367 -200z" />
    <glyph glyph-name="equal.onum" horiz-adv-x="482" 
d="M65 305v59h367v-59h-367zM65 124v59h367v-59h-367z" />
    <glyph glyph-name="greater.onum" horiz-adv-x="554" 
d="M509 218l-412 -228l-29 54l367 200l-366 199l29 54l411 -227v-52z" />
    <glyph glyph-name="cent.onum" horiz-adv-x="456" 
d="M155 -82l17 90q-119 4 -119 109q0 15 4 38l27 154q16 90 55.5 130.5t117.5 46.5l17 92h65l-17 -92q49 -5 90 -20l-18 -64q-53 16 -104 16q-60 0 -87 -25.5t-40 -94.5l-27 -155q-2 -14 -2 -21q0 -23 14 -33.5t45 -10.5q66 0 151 33l11 -66q-55 -25 -118 -34l-17 -93h-65z
" />
    <glyph glyph-name="sterling.onum" horiz-adv-x="510" 
d="M64 224l11 62h80q-21 50 -21 86q0 79 46 113.5t151 34.5q81 0 148 -25l-15 -63q-69 18 -141 18q-57 0 -81 -15t-24 -63q0 -40 24 -86h189l-13 -62h-164q1 -5 1 -18q0 -82 -87 -138h263l-12 -68h-377l11 65q118 61 118 140q0 9 -2 19h-105z" />
    <glyph glyph-name="section.onum" horiz-adv-x="521" 
d="M226 20l-61 -30q-81 142 -81 303q0 59 10 115q10 59 45 85.5t106 26.5q77 0 146 -24l-15 -59q-72 20 -135 20q-37 0 -53.5 -13t-21.5 -46q-9 -56 -9 -108q0 -133 69 -270zM300 315l61 30q81 -142 81 -303q0 -59 -10 -115q-10 -59 -45 -85.5t-106 -26.5q-77 0 -146 24
l15 59q72 -20 135 -20q37 0 53.5 13t21.5 46q9 55 9 108q0 133 -69 270z" />
    <glyph glyph-name="yen.onum" horiz-adv-x="512" 
d="M53 214l10 55h93l-86 241h80l100 -288l194 288h89l-170 -241h92l-10 -55h-121l-45 -62l-3 -16h155l-9 -53h-155l-14 -83h-81l14 83h-156l9 53h156l4 20l-23 58h-123z" />
    <glyph glyph-name="florin.onum" horiz-adv-x="452" 
d="M441 441q-39 13 -76 13q-39 0 -55 -12t-26 -49l-33 -131h133l-17 -67h-136l-70 -273q-17 -68 -43.5 -93.5t-90.5 -25.5q-47 0 -88 19l17 63q32 -13 62 -13q31 0 42.5 11t20.5 45l69 267h-88l20 67h87l36 141q17 65 49 92.5t102 27.5q54 0 102 -19z" />
    <glyph glyph-name="endash.onum" horiz-adv-x="486" 
d="M74 247l11 69h354l-12 -69h-353z" />
    <glyph glyph-name="divide.onum" horiz-adv-x="526" 
d="M223 364v92h81v-92h-81zM60 212v62h406v-62h-406zM223 30v92h81v-92h-81z" />
    <glyph glyph-name="Euro.onum" horiz-adv-x="522" 
d="M41 170l9 45h73l15 83h-74l8 46h74l5 28q14 83 59 115.5t152 32.5q64 0 141 -23l-16 -63q-71 17 -130 17q-72 0 -94 -15.5t-32 -71.5l-3 -20h189l-7 -46h-190l-15 -83h190l-8 -45h-190l-5 -28q-9 -51 11.5 -67t94.5 -16q50 0 123 13l2 -64q-61 -18 -138 -18
q-108 0 -148.5 38.5t-25.5 118.5l4 23h-74z" />
    <glyph glyph-name="perthousand.onum" horiz-adv-x="1063" 
d="M190 21l316 499l46 -31l-315 -499zM325 342q-10 -57 -41.5 -84t-107.5 -27q-112 0 -112 88q0 17 3 33l12 68q9 53 41 76.5t105 23.5q53 0 83.5 -24t30.5 -67q0 -9 -2 -21zM141 415l-13 -75q-2 -14 -2 -18q0 -19 12.5 -28t46.5 -9q39 0 56 13.5t22 41.5l12 70q2 12 2 18
q0 38 -60 38q-40 0 -55.5 -11t-20.5 -40zM669 101q-10 -57 -41.5 -84t-107.5 -27q-112 0 -112 88q0 17 3 33l12 68q9 53 41 76.5t105 23.5q53 0 83.5 -24t30.5 -67q0 -9 -2 -21zM485 174l-13 -75q-2 -14 -2 -18q0 -19 12.5 -28t46.5 -9q39 0 56 13.5t22 41.5l12 70
q2 12 2 18q0 38 -60 38q-40 0 -55.5 -11t-20.5 -40zM989 101q-10 -57 -41.5 -84t-107.5 -27q-112 0 -112 88q0 17 3 33l12 68q9 53 41 76.5t105 23.5q53 0 83.5 -24t30.5 -67q0 -9 -2 -21zM805 174l-13 -75q-2 -14 -2 -18q0 -19 12.5 -28t46.5 -9q39 0 56 13.5t22 41.5
l12 70q2 12 2 18q0 38 -60 38q-40 0 -55.5 -11t-20.5 -40z" />
    <glyph glyph-name="minus.tnum" 
d="M129 207v71h267v-71h-267z" />
    <glyph glyph-name="multiply.tnum" 
d="M426 51l-141 142l-141 -142l-49 49l141 142l-141 142l49 49l141 -141l141 141l49 -49l-141 -142l141 -142z" />
    <glyph glyph-name="numbersign.tnum" 
d="M519 427h-83l-43 -196h84l-13 -57h-83l-38 -174h-61l37 174h-151l-38 -174h-61l37 174h-83l13 57h83l43 196h-84l13 57h84l36 162h61l-36 -162h152l35 162h62l-36 -162h83zM223 427l-42 -196h151l43 196h-152z" />
    <glyph glyph-name="dollar.tnum" 
d="M168 -113l18 104q-70 4 -137 35l20 66q79 -30 154 -30q72 0 94 19t33 83q7 42 7 54q0 31 -20 45.5t-78 30.5q-74 21 -101.5 48t-27.5 71q0 23 9 77q17 97 52 129t134 36l19 104h71l-19 -105q52 -4 104 -18l-15 -70q-78 18 -139 18q-24 0 -40.5 -1.5t-29.5 -3.5t-21 -9
l-13.5 -11.5t-9.5 -18.5t-6 -23t-6 -30q-8 -50 -8 -58q0 -27 18.5 -39.5t78.5 -31.5q75 -23 103 -49.5t28 -73.5q0 -26 -8 -71q-16 -92 -49 -129t-125 -43l-19 -105h-71z" />
    <glyph glyph-name="percent.tnum" horiz-adv-x="841" 
d="M274 -10l-52 27l354 659l52 -27zM195 313q-127 0 -127 102q0 17 3 33l18 102q12 67 48 96.5t119 29.5q63 0 96 -28t33 -76q0 -9 -3 -27l-19 -109q-11 -61 -48 -92t-120 -31zM299 448l17 97q2 10 2 21q0 26 -16 39t-54 13q-45 0 -65.5 -16t-28.5 -57l-18 -102
q-2 -14 -2 -22q0 -25 16 -37.5t54 -12.5q48 0 68 18t27 59zM591 -10q-127 0 -127 102q0 16 3 33l18 102q12 67 48 96.5t119 29.5q63 0 96 -28t33 -76q0 -9 -3 -27l-19 -109q-11 -61 -48 -92t-120 -31zM695 125l17 97q2 10 2 21q0 26 -16 39t-54 13q-45 0 -65.5 -16
t-28.5 -57l-18 -102q-2 -14 -2 -22q0 -25 16 -37.5t54 -12.5q48 0 68 18t27 59z" />
    <glyph glyph-name="plus.tnum" 
d="M298 209v-170h-71v170h-167v68h167v170h71v-170h166v-68h-166z" />
    <glyph glyph-name="zero.tnum" 
d="M215 -10q-177 0 -177 136q0 22 3 38l57 324q16 93 68.5 130.5t165.5 37.5q83 0 130.5 -39.5t47.5 -106.5q0 -16 -3 -34l-55 -312q-16 -92 -65.5 -133t-171.5 -41zM371 171l53 300q4 24 4 34q0 40 -25.5 59.5t-83.5 19.5q-69 0 -99.5 -24.5t-41.5 -83.5l-55 -311
q-3 -17 -3 -34q0 -36 24 -52.5t84 -16.5q71 0 101.5 24.5t41.5 84.5z" />
    <glyph glyph-name="one.tnum" 
d="M55 0l12 70h154l85 482l-151 -70l-30 64l204 100h76l-102 -576h158l-12 -70h-394z" />
    <glyph glyph-name="two.tnum" 
d="M40 0l7 72l206 207l83 86.5t38.5 49t22.5 51.5l4 22q4 23 4 38q0 31 -22.5 44t-83.5 13q-72 0 -159 -23l-9 67q96 29 187 29q170 0 170 -126q0 -11 -4 -37l-5 -27q-10 -56 -33.5 -89.5t-114.5 -126.5l-174 -178h257l-12 -72h-362z" />
    <glyph glyph-name="three.tnum" 
d="M207 -10q-94 0 -170 31l19 65q75 -25 152 -25q74 0 100 19.5t35 72.5l8 45q16 91 -90 91h-132l12 71h134q91 0 104 77l12 69q8 44 -15 62t-85 18q-74 0 -139 -13l-7 66q71 17 161 17q97 0 138.5 -41t28.5 -110l-11 -63q-8 -49 -28.5 -74.5t-69.5 -43.5q40 -8 58 -45
t10 -85l-8 -46q-10 -57 -27.5 -88.5t-63 -50.5t-126.5 -19z" />
    <glyph glyph-name="four.tnum" 
d="M406 164l-28 -164h-81l28 164h-297l12 79l335 403h116l-73 -414h86l-12 -68h-86zM398 574l-279 -342h218z" />
    <glyph glyph-name="five.tnum" 
d="M204 -10q-86 0 -166 28l17 67q88 -23 157 -23q72 0 99 21.5t37 76.5l7 39q3 15 3 28q0 34 -22 48t-84 18q-94 5 -143 7l61 346h337l-12 -72h-256l-36 -207q50 -3 103 -7q136 -12 136 -117q0 -16 -4 -38l-7 -40q-9 -49 -20.5 -78.5t-36.5 -53t-66 -33.5t-104 -10z" />
    <glyph glyph-name="six.tnum" 
d="M230 -10q-168 0 -168 127q0 26 4 47l47 269q22 127 80 175t195 48q67 0 121 -17l-15 -66q-49 12 -100 12q-74 0 -113.5 -15.5t-57 -46t-28.5 -91.5l-15 -86q66 23 136 23q79 0 113.5 -28.5t34.5 -84.5q0 -25 -4 -46l-9 -52q-15 -86 -61 -127t-160 -41zM368 154l11 61
q4 26 4 33q0 28 -18.5 39t-67.5 11q-66 0 -130 -26l-20 -112q-3 -18 -3 -32q0 -35 22.5 -50.5t76.5 -15.5q61 0 88.5 20t36.5 72z" />
    <glyph glyph-name="seven.tnum" 
d="M146 0h-87l370 575h-320l12 71h406l-12 -69z" />
    <glyph glyph-name="eight.tnum" 
d="M220 -10q-182 0 -182 120q0 12 4 38l6 33q10 58 45.5 92t109.5 58q-87 54 -87 125q0 12 2 26l3 18q15 84 62.5 120t152.5 36q77 0 121 -33.5t44 -89.5q0 -11 -3 -28l-5 -29q-19 -109 -136 -147q54 -25 79 -54t25 -70q0 -13 -3 -29l-6 -33q-10 -58 -32.5 -89.5t-70 -47.5
t-129.5 -16zM412 471l6 33q2 14 2 20q0 62 -96 62q-59 0 -87 -20.5t-35 -60.5l-5 -29q-2 -12 -2 -18q0 -29 21.5 -51t68.5 -45q61 25 91 49t36 60zM372 148l5 28q3 15 3 26q0 29 -21 45.5t-87 45.5q-81 -30 -109.5 -52.5t-35.5 -63.5l-5 -29q-3 -17 -3 -29q0 -33 25 -46
t88 -13q70 0 100.5 18.5t39.5 69.5z" />
    <glyph glyph-name="nine.tnum" 
d="M318 656q85 0 126.5 -33.5t41.5 -93.5q0 -26 -4 -47l-47 -269q-22 -128 -78 -175.5t-197 -47.5q-67 0 -121 17l15 66q49 -12 100 -12q76 0 116 15.5t56 45.5t27 92l15 86q-66 -23 -136 -23q-79 0 -113.5 28.5t-34.5 84.5q0 25 4 46l9 52q8 44 20 72.5t36 51.5t64.5 33.5
t100.5 10.5zM180 492l-11 -61q-4 -26 -4 -33q0 -29 18.5 -39.5t67.5 -10.5q66 0 130 26l20 112q3 18 3 32q0 35 -22.5 50.5t-76.5 15.5q-61 0 -88.5 -20t-36.5 -72z" />
    <glyph glyph-name="less.tnum" 
d="M438 -10l-382 228v52l381 227l32 -53l-339 -200l339 -202z" />
    <glyph glyph-name="equal.tnum" 
d="M79 305v59h367v-59h-367zM79 124v59h367v-59h-367z" />
    <glyph glyph-name="greater.tnum" 
d="M484 218l-382 -228l-31 52l339 202l-339 200l32 53l381 -227v-52z" />
    <glyph glyph-name="cent.tnum" 
d="M212 -10l17 90q-119 4 -119 109q0 15 4 38l32 181q16 90 55.5 130.5t117.5 46.5l17 92h65l-17 -92q49 -5 90 -20l-18 -66q-53 17 -104 17q-60 0 -86.5 -25t-39.5 -94l-32 -182q-2 -14 -2 -21q0 -23 13.5 -33t44.5 -10q66 0 151 33l11 -67q-55 -25 -118 -34l-17 -93h-65z
" />
    <glyph glyph-name="sterling.tnum" 
d="M40 0l12 70q144 85 144 195q0 15 -3 36h-114l8 64h89q-26 63 -26 119q0 87 48.5 129.5t157.5 42.5q82 0 155 -23q-3 -11 -7.5 -33l-6.5 -32q-60 17 -141 17q-66 0 -95.5 -20.5t-29.5 -82.5q0 -55 27 -117h190l-10 -64h-165q3 -18 3 -38q0 -52 -32 -104.5t-85 -89.5h284
l-12 -69h-391z" />
    <glyph glyph-name="section.tnum" 
d="M396 590q-80 23 -134 23q-38 0 -53.5 -12t-20.5 -46q-10 -54 -10 -129q0 -179 51 -413l-70 -13q-54 230 -54 428q0 76 9 136q11 61 43 86.5t109 25.5q72 0 145 -28zM159 -100q80 -23 134 -23q38 0 53.5 12t20.5 46q10 54 10 129q0 179 -51 413l70 13q54 -229 54 -428
q0 -76 -9 -136q-11 -61 -43 -86.5t-109 -25.5q-72 0 -145 28z" />
    <glyph glyph-name="yen.tnum" 
d="M72 305l10 59h94l-66 282h81l78 -356l196 356h95l-166 -282h88l-10 -59h-113l-63 -107l-1 -5h157l-10 -57h-157l-24 -136h-84l24 136h-159l10 57h159l2 12l-24 100h-117z" />
    <glyph glyph-name="florin.tnum" 
d="M531 625q-41 12 -76 12q-40 0 -55.5 -12t-25.5 -49l-39 -150h133l-17 -69h-135l-114 -435q-18 -67 -45.5 -93t-91.5 -26q-48 0 -86 19l17 63q33 -13 61 -13q30 0 43 12t22 47l112 426h-87l19 69h87l42 160q17 65 49 92.5t103 27.5q53 0 100 -18z" />
    <glyph glyph-name="endash.tnum" 
d="M104 247l11 69h354l-12 -69h-353z" />
    <glyph glyph-name="divide.tnum" 
d="M219 364v92h81v-92h-81zM56 212v62h406v-62h-406zM219 30v92h81v-92h-81z" />
    <glyph glyph-name="Euro.tnum" 
d="M62 378l10 53h83l6 31q19 104 78 149t180 45q65 0 118 -15l-16 -67q-54 10 -109 10q-84 0 -120.5 -29t-50.5 -104l-4 -20h230l-9 -53h-230l-18 -104h229l-9 -53h-229l-5 -29q-4 -21 -4 -42q0 -47 27 -67.5t103 -20.5q55 0 112 12l3 -69q-60 -15 -132 -15q-196 0 -196 154
q0 19 5 49l5 28h-85l10 53h84l18 104h-84z" />
    <glyph glyph-name="perthousand.tnum" horiz-adv-x="1211" 
d="M274 -10l-52 27l354 659l52 -27zM195 313q-127 0 -127 102q0 17 3 33l18 102q12 67 48 96.5t119 29.5q63 0 96 -28t33 -76q0 -9 -3 -27l-19 -109q-11 -61 -48 -92t-120 -31zM299 448l17 97q2 10 2 21q0 26 -16 39t-54 13q-45 0 -65.5 -16t-28.5 -57l-18 -102
q-2 -14 -2 -22q0 -25 16 -37.5t54 -12.5q48 0 68 18t27 59zM591 -10q-127 0 -127 102q0 16 3 33l18 102q12 67 48 96.5t119 29.5q63 0 96 -28t33 -76q0 -9 -3 -27l-19 -109q-11 -61 -48 -92t-120 -31zM695 125l17 97q2 10 2 21q0 26 -16 39t-54 13q-45 0 -65.5 -16
t-28.5 -57l-18 -102q-2 -14 -2 -22q0 -25 16 -37.5t54 -12.5q48 0 68 18t27 59zM961 -10q-127 0 -127 102q0 16 3 33l18 102q12 67 48 96.5t119 29.5q63 0 96 -28t33 -76q0 -9 -3 -27l-19 -109q-11 -61 -48 -92t-120 -31zM1065 125l17 97q2 10 2 21q0 26 -16 39t-54 13
q-45 0 -65.5 -16t-28.5 -57l-18 -102q-2 -14 -2 -22q0 -25 16 -37.5t54 -12.5q48 0 68 18t27 59z" />
    <glyph glyph-name="minusonum.tnum" 
d="M129 207v71h267v-71h-267z" />
    <glyph glyph-name="multiplyonum.tnum" 
d="M403 51l-141 142l-141 -142l-49 49l141 142l-141 142l49 49l141 -141l141 141l49 -49l-141 -142l141 -142z" />
    <glyph glyph-name="numbersignonum.tnum" 
d="M460 122h-77l-25 -122h-62l25 122h-149l-26 -122h-62l25 122h-84l13 57h84l34 155h-84l12 57h83l26 119h63l-26 -119h149l26 119h62l-25 -119h78l-12 -57h-78l-34 -155h77zM218 334l-34 -155h150l34 155h-150z" />
    <glyph glyph-name="dollaronum.tnum" 
d="M165 -99l15 91q-69 6 -129 33l16 62q88 -28 158 -28q61 0 83.5 15.5t29.5 54.5q8 46 -6.5 61t-88.5 36q-67 19 -95 38.5t-33 50.5t6 78q12 68 49.5 95t115.5 31l17 90h73l-17 -91q50 -3 109 -17l-15 -67q-75 16 -139 16q-66 0 -86.5 -12t-28.5 -57q-7 -42 5.5 -55.5
t80.5 -34.5q99 -31 123 -60t11 -101t-47 -103t-119 -35l-15 -91h-73z" />
    <glyph glyph-name="percentonum.tnum" horiz-adv-x="743" 
d="M325 342q-10 -57 -41.5 -84t-107.5 -27q-112 0 -112 88q0 17 3 33l12 68q9 53 41 76.5t105 23.5q53 0 83.5 -24t30.5 -67q0 -9 -2 -21zM141 415l-13 -75q-2 -14 -2 -18q0 -19 12.5 -28t46.5 -9q39 0 56 13.5t22 41.5l12 70q2 12 2 18q0 38 -60 38q-40 0 -55.5 -11
t-20.5 -40zM669 101q-10 -57 -41.5 -84t-107.5 -27q-112 0 -112 88q0 17 3 33l12 68q9 53 41 76.5t105 23.5q53 0 83.5 -24t30.5 -67q0 -9 -2 -21zM485 174l-13 -75q-2 -14 -2 -18q0 -19 12.5 -28t46.5 -9q39 0 56 13.5t22 41.5l12 70q2 12 2 18q0 38 -60 38
q-40 0 -55.5 -11t-20.5 -40zM191 21l316 499l46 -31l-315 -499z" />
    <glyph glyph-name="plusonum.tnum" 
d="M297 209v-170h-71v170h-167v68h167v170h71v-170h166v-68h-166z" />
    <glyph glyph-name="zeroonum.tnum" 
d="M216 -10q-178 0 -178 138q0 18 4 42l32 181q15 88 69 128.5t165 40.5q88 0 133.5 -40.5t45.5 -105.5q0 -16 -3 -33l-32 -182q-15 -85 -65 -127t-171 -42zM372 169l30 172q3 17 3 32q0 38 -25 57t-84 19q-69 0 -100.5 -25.5t-41.5 -82.5l-30 -171q-3 -18 -3 -35
q0 -37 24 -55.5t84 -18.5q70 0 101.5 24.5t41.5 83.5z" />
    <glyph glyph-name="oneonum.tnum" 
d="M45 0l11 68h160l63 357l-160 -60l-24 65l205 80h76l-78 -442h159l-11 -68h-401z" />
    <glyph glyph-name="twoonum.tnum" 
d="M40 0q2 11 5.5 32.5t4.5 32.5l167 127q96 74 122.5 102t32.5 63l3 17q2 14 2 19q0 30 -21 42t-69 12q-68 0 -161 -24l-12 66q95 31 178 31q79 0 123.5 -30.5t44.5 -87.5q0 -12 -3 -27l-2 -12q-11 -61 -32.5 -91.5t-100.5 -93.5l-139 -107h233q-11 -67 -12 -71h-364z" />
    <glyph glyph-name="threeonum.tnum" 
d="M190 -146q-96 0 -172 27l19 65q78 -21 154 -21q74 0 100 19.5t35 72.5l8 45q2 14 2 19q0 72 -100 72h-126l12 71h127q100 0 113 77l12 69q2 10 2 22q0 32 -24 45t-78 13q-79 0 -144 -13l-7 66q71 17 166 17q86 0 128 -32t42 -88q0 -14 -3 -31l-11 -63q-9 -50 -31.5 -77.5
t-72.5 -43.5q35 -7 55.5 -35t20.5 -67q0 -15 -2 -27l-8 -44q-8 -43 -19 -69t-34 -48t-63 -31.5t-101 -9.5z" />
    <glyph glyph-name="fouronum.tnum" 
d="M378 43l-32 -179h-81l31 179h-275l6 79l318 388h115l-71 -399h87l-13 -68h-85zM366 433l-260 -322h202z" />
    <glyph glyph-name="fiveonum.tnum" 
d="M182 -146q-83 0 -158 24l17 67q82 -19 149 -19q72 0 99 21.5t37 76.5l6 36q3 21 3 28q0 36 -21 49t-85 17q-103 6 -138 7l62 349h332l-12 -72h-251l-37 -210q35 -2 98 -7q136 -12 136 -117q0 -16 -4 -38l-6 -37q-9 -49 -20.5 -78.5t-36.5 -53t-66 -33.5t-104 -10z" />
    <glyph glyph-name="sixonum.tnum" 
d="M227 -10q-168 0 -168 127q0 26 4 47l47 269q22 127 80 175t195 48q67 0 121 -17l-15 -66q-49 12 -100 12q-74 0 -113.5 -15.5t-57 -46t-28.5 -91.5l-15 -86q66 23 136 23q79 0 113.5 -28.5t34.5 -84.5q0 -25 -4 -46l-9 -52q-15 -86 -61 -127t-160 -41zM365 154l11 61
q4 26 4 33q0 28 -18.5 39t-67.5 11q-66 0 -130 -26l-20 -112q-3 -18 -3 -32q0 -35 22.5 -50.5t76.5 -15.5q61 0 88.5 20t36.5 72z" />
    <glyph glyph-name="sevenonum.tnum" 
d="M121 -136l-61 40l344 535h-328l12 71h407l-5 -70z" />
    <glyph glyph-name="eightonum.tnum" 
d="M217 -10q-182 0 -182 120q0 12 4 38l6 33q10 58 45.5 92t109.5 58q-87 54 -87 125q0 12 2 26l3 18q15 84 62.5 120t152.5 36q77 0 121 -33.5t44 -89.5q0 -11 -3 -28l-5 -29q-19 -109 -136 -147q54 -25 79 -54t25 -70q0 -13 -3 -29l-6 -33q-10 -58 -32.5 -89.5t-70 -47.5
t-129.5 -16zM409 471l6 33q2 14 2 20q0 62 -96 62q-59 0 -87 -20.5t-35 -60.5l-5 -29q-2 -12 -2 -18q0 -29 21.5 -51t68.5 -45q61 25 91 49t36 60zM369 148l5 28q3 15 3 26q0 29 -21 45.5t-87 45.5q-81 -30 -109.5 -52.5t-35.5 -63.5l-5 -29q-3 -17 -3 -29q0 -33 25 -46
t88 -13q70 0 100.5 18.5t39.5 69.5z" />
    <glyph glyph-name="nineonum.tnum" 
d="M298 520q85 0 126.5 -33.5t41.5 -93.5q0 -26 -4 -47l-47 -269q-22 -128 -78 -175.5t-197 -47.5q-67 0 -121 17l15 66q49 -12 100 -12q76 0 116 15.5t56 45.5t27 92l15 86q-66 -23 -136 -23q-79 0 -113.5 28.5t-34.5 84.5q0 25 4 46l9 52q8 44 20 72.5t36 51.5t64.5 33.5
t100.5 10.5zM160 356l-11 -61q-4 -26 -4 -33q0 -29 18.5 -39.5t67.5 -10.5q66 0 130 26l20 112q3 18 3 32q0 35 -22.5 50.5t-76.5 15.5q-61 0 -88.5 -20t-36.5 -72z" />
    <glyph glyph-name="lessonum.tnum" 
d="M432 -10l-382 228v52l381 227l32 -53l-339 -200l339 -202z" />
    <glyph glyph-name="equalonum.tnum" 
d="M102 305v59h367v-59h-367zM102 124v59h367v-59h-367z" />
    <glyph glyph-name="greateronum.tnum" 
d="M486 218l-382 -228l-31 52l339 202l-339 200l32 53l381 -227v-52z" />
    <glyph glyph-name="centonum.tnum" 
d="M181 -82l17 90q-119 4 -119 109q0 15 4 38l27 154q16 90 55.5 130.5t117.5 46.5l17 92h65l-17 -92q49 -5 90 -20l-18 -64q-53 16 -104 16q-60 0 -87 -25.5t-40 -94.5l-27 -155q-2 -14 -2 -21q0 -23 14 -33.5t45 -10.5q66 0 151 33l11 -66q-55 -25 -118 -34l-17 -93h-65z
" />
    <glyph glyph-name="sterlingonum.tnum" 
d="M58 224l11 62h80q-21 50 -21 86q0 79 46 113.5t151 34.5q81 0 148 -25l-15 -63q-69 18 -141 18q-57 0 -81 -15t-24 -63q0 -40 24 -86h189l-13 -62h-164q1 -5 1 -18q0 -82 -87 -138h263l-12 -68h-377l11 65q118 61 118 140q0 9 -2 19h-105z" />
    <glyph glyph-name="sectiononum.tnum" 
d="M225 20l-61 -30q-81 142 -81 303q0 59 10 115q10 59 45 85.5t106 26.5q77 0 146 -24l-15 -59q-72 20 -135 20q-37 0 -53.5 -13t-21.5 -46q-9 -56 -9 -108q0 -133 69 -270zM299 315l61 30q81 -142 81 -303q0 -59 -10 -115q-10 -59 -45 -85.5t-106 -26.5q-77 0 -146 24
l15 59q72 -20 135 -20q37 0 53.5 13t21.5 46q9 55 9 108q0 133 -69 270z" />
    <glyph glyph-name="yenonum.tnum" 
d="M50 214l10 55h93l-86 241h80l100 -288l194 288h89l-170 -241h92l-10 -55h-121l-45 -62l-3 -16h155l-9 -53h-155l-14 -83h-81l14 83h-156l9 53h156l4 20l-23 58h-123z" />
    <glyph glyph-name="florinonum.tnum" 
d="M470 441q-39 13 -76 13q-39 0 -55 -12t-26 -49l-33 -131h133l-17 -67h-136l-70 -273q-17 -68 -43.5 -93.5t-90.5 -25.5q-47 0 -88 19l17 63q32 -13 62 -13q31 0 42.5 11t20.5 45l69 267h-88l20 67h87l36 141q17 65 49 92.5t102 27.5q55 0 102 -19z" />
    <glyph glyph-name="endashonum.tnum" 
d="M80 247l11 69h354l-12 -69h-353z" />
    <glyph glyph-name="divideonum.tnum" 
d="M222 364v92h81v-92h-81zM59 212v62h406v-62h-406zM222 30v92h81v-92h-81z" />
    <glyph glyph-name="Euroonum.tnum" 
d="M38 170l9 45h73l15 83h-74l8 46h74l5 28q14 83 59 115.5t152 32.5q64 0 141 -23l-16 -63q-71 17 -130 17q-72 0 -94 -15.5t-32 -71.5l-3 -20h189l-7 -46h-190l-15 -83h190l-8 -45h-190l-5 -28q-9 -51 11.5 -67t94.5 -16q50 0 123 13l2 -64q-61 -18 -138 -18
q-108 0 -148.5 38.5t-25.5 118.5l4 23h-74z" />
    <glyph glyph-name="perthousandonum.tnum" horiz-adv-x="1063" 
d="M190 21l316 499l46 -31l-315 -499zM325 342q-10 -57 -41.5 -84t-107.5 -27q-112 0 -112 88q0 17 3 33l12 68q9 53 41 76.5t105 23.5q53 0 83.5 -24t30.5 -67q0 -9 -2 -21zM141 415l-13 -75q-2 -14 -2 -18q0 -19 12.5 -28t46.5 -9q39 0 56 13.5t22 41.5l12 70q2 12 2 18
q0 38 -60 38q-40 0 -55.5 -11t-20.5 -40zM669 101q-10 -57 -41.5 -84t-107.5 -27q-112 0 -112 88q0 17 3 33l12 68q9 53 41 76.5t105 23.5q53 0 83.5 -24t30.5 -67q0 -9 -2 -21zM485 174l-13 -75q-2 -14 -2 -18q0 -19 12.5 -28t46.5 -9q39 0 56 13.5t22 41.5l12 70
q2 12 2 18q0 38 -60 38q-40 0 -55.5 -11t-20.5 -40zM989 101q-10 -57 -41.5 -84t-107.5 -27q-112 0 -112 88q0 17 3 33l12 68q9 53 41 76.5t105 23.5q53 0 83.5 -24t30.5 -67q0 -9 -2 -21zM805 174l-13 -75q-2 -14 -2 -18q0 -19 12.5 -28t46.5 -9q39 0 56 13.5t22 41.5
l12 70q2 12 2 18q0 38 -60 38q-40 0 -55.5 -11t-20.5 -40z" />
    <glyph glyph-name="minussmcp.tnum" 
d="M129 207v71h267v-71h-267z" />
    <glyph glyph-name="multiplysmcp.tnum" 
d="M426 51l-141 142l-141 -142l-49 49l141 142l-141 142l49 49l141 -141l141 141l49 -49l-141 -142l141 -142z" />
    <glyph glyph-name="numbersignsmcp.tnum" 
d="M512 344h-79l-38 -164h78l-13 -55h-78l-28 -125h-62l28 125h-152l-28 -125h-62l28 125h-80l13 55h81l37 164h-79l13 55h79l29 121h61l-28 -121h152l29 121h61l-28 -121h78zM219 344l-38 -164h152l38 164h-152z" />
    <glyph glyph-name="dollarsmcp.tnum" 
d="M162 -96l17 96q-60 5 -126 30l18 64q84 -26 146 -26q38 0 59 3.5t38.5 19t22.5 45.5q9 49 -4 64t-85 30q-91 19 -115.5 52.5t-12.5 102.5q13 75 48 105t119 32l17 91h71l-17 -92q64 -6 111 -19l-14 -67q-72 18 -140 18q-67 0 -86.5 -12.5t-27.5 -59.5q-4 -21 -4 -30.5
t2 -19t15.5 -15t29 -10.5t50.5 -14q93 -23 115.5 -52.5t9.5 -102.5q-13 -72 -49.5 -102t-120.5 -36l-17 -95h-70z" />
    <glyph glyph-name="percentsmcp.tnum" horiz-adv-x="743" 
d="M183 24l321 506l50 -32l-322 -508zM331 420l-13 -74q-10 -57 -42 -83.5t-105 -26.5q-110 0 -110 91q0 15 3 30l11 63q10 57 43 83.5t105 26.5q50 0 80 -23t30 -63q0 -14 -2 -24zM255 345l13 76q1 6 1 13q0 40 -56 40q-37 0 -53.5 -12t-21.5 -42l-12 -69q-2 -12 -2 -17
q0 -42 57 -42q37 0 53 13t21 40zM675 174l-13 -74q-10 -57 -42 -83.5t-105 -26.5q-110 0 -110 91q0 15 3 30l11 63q10 57 43 83.5t105 26.5q50 0 80 -23t30 -63q0 -14 -2 -24zM599 99l13 76q1 6 1 13q0 40 -56 40q-37 0 -53.5 -12t-21.5 -42l-12 -69q-2 -12 -2 -17
q0 -42 57 -42q37 0 53 13t21 40z" />
    <glyph glyph-name="plussmcp.tnum" 
d="M298 209v-170h-71v170h-167v68h167v170h71v-170h166v-68h-166z" />
    <glyph glyph-name="zerosmcp.tnum" 
d="M215 -10q-87 0 -129.5 34.5t-42.5 92.5q0 13 3 31l42 238q14 75 66.5 109.5t155.5 34.5q84 0 128 -36t44 -95q0 -14 -3 -29l-41 -233q-13 -71 -62 -109t-161 -38zM358 146l40 229q2 14 2 20q0 64 -103 64q-61 0 -91.5 -21t-38.5 -69l-39 -222q-2 -12 -2 -24
q0 -33 23.5 -47.5t77.5 -14.5q61 0 92 20t39 65z" />
    <glyph glyph-name="onesmcp.tnum" 
d="M38 0l11 70h156l64 359l-151 -71l-29 62l202 100h76l-80 -450h161l-11 -70h-399z" />
    <glyph glyph-name="twosmcp.tnum" 
d="M48 0l8 66l171 143q83 67 105.5 93t28.5 61l5 29q3 18 3 23q0 24 -20.5 33t-77.5 9q-68 0 -145 -18l-8 68q90 23 174 23q160 0 160 -103q0 -8 -3 -29l-6 -35q-9 -52 -29.5 -83.5t-92.5 -93.5l-138 -115h218l-11 -71h-342z" />
    <glyph glyph-name="threesmcp.tnum" 
d="M188 -10q-79 0 -142 22l17 62q64 -18 130 -18q64 0 90 12.5t33 51.5l9 50q2 10 2 15q0 44 -79 44h-125l12 65h120q44 0 64 13.5t25 44.5l10 56q2 12 2 16q0 24 -19.5 32t-68.5 8q-68 0 -133 -13l-3 62q68 17 151 17q82 0 118.5 -23.5t36.5 -69.5q0 -11 -3 -28l-11 -62
q-6 -32 -22 -52t-52 -32q57 -15 57 -78q0 -8 -2 -20l-9 -51q-12 -69 -57 -96.5t-151 -27.5z" />
    <glyph glyph-name="foursmcp.tnum" 
d="M380 123l-21 -123h-79l22 123h-273l5 70l308 327h109l-59 -334h72l-11 -63h-73zM359 447l-239 -261h193z" />
    <glyph glyph-name="fivesmcp.tnum" 
d="M200 -10q-82 0 -147 23l16 65q72 -18 144 -18q63 0 88 13t32 52l5 29q2 16 2 20q0 28 -19.5 41t-66.5 15q-88 5 -148 7l50 283h316l-11 -70h-237l-27 -151q45 -1 85 -4q141 -8 141 -110q0 -13 -3 -31l-4 -24q-7 -39 -17.5 -62.5t-33.5 -42.5t-63 -27t-102 -8z" />
    <glyph glyph-name="sixsmcp.tnum" 
d="M225 -10q-86 0 -123 27t-37 80q0 15 3 33l41 233q17 96 66.5 131.5t158.5 35.5q75 0 142 -23l-14 -61q-66 17 -133 17q-75 0 -101 -20t-40 -97l-11 -62q59 18 120 18q142 0 142 -98q0 -10 -3 -28l-7 -39q-9 -53 -26 -82t-60 -47t-118 -18zM348 136l8 45q1 7 1 14
q0 21 -18 29.5t-63 8.5q-50 0 -112 -23l-14 -79q-2 -12 -2 -24q0 -28 20 -38.5t69 -10.5q58 0 80.5 15.5t30.5 62.5z" />
    <glyph glyph-name="sevensmcp.tnum" 
d="M167 0h-90l322 452h-295l13 68h377l-5 -64z" />
    <glyph glyph-name="eightsmcp.tnum" 
d="M221 -10q-86 0 -127 30.5t-41 82.5q0 11 3 28l2 11q15 90 127 124q-47 27 -60.5 56.5t-6.5 68.5l2 13q12 65 57 95.5t139 30.5q73 0 113.5 -27t41.5 -74q0 -7 -2 -21l-5 -28q-7 -41 -31.5 -68t-81.5 -48q89 -35 89 -106q0 -6 -2 -22l-3 -18q-13 -71 -59.5 -99.5
t-154.5 -28.5zM389 392l2 11q1 6 1 13q0 50 -88 50q-52 0 -76.5 -15.5t-30.5 -48.5l-3 -16q-6 -33 12.5 -52.5t67.5 -38.5q53 18 81 39t34 58zM356 119l3 17q2 14 2 19q0 27 -21.5 43t-75.5 36q-62 -20 -91.5 -40t-35.5 -51l-3 -18q-2 -12 -2 -18q0 -26 22 -38.5t78 -12.5
q60 0 89 14t35 49z" />
    <glyph glyph-name="ninesmcp.tnum" 
d="M302 530q79 0 118.5 -30.5t39.5 -86.5q0 -15 -3 -32l-39 -224q-17 -96 -66.5 -131.5t-158.5 -35.5q-83 0 -145 26l14 60q69 -19 136 -19q74 0 101 21.5t40 95.5l11 62q-59 -18 -120 -18q-141 0 -141 98q0 12 3 31l7 38q10 53 26.5 81.5t59 46t117.5 17.5zM179 386l-8 -45
q-1 -7 -1 -16q0 -21 18 -29.5t63 -8.5q55 0 111 21l15 81q3 18 3 25q0 27 -20 37.5t-70 10.5q-59 0 -81 -15t-30 -61z" />
    <glyph glyph-name="lesssmcp.tnum" 
d="M432 -10l-391 228v52l390 227l30 -54l-347 -199l350 -200z" />
    <glyph glyph-name="equalsmcp.tnum" 
d="M86 305v59h367v-59h-367zM86 124v59h367v-59h-367z" />
    <glyph glyph-name="greatersmcp.tnum" 
d="M110 -10l-32 54l350 200l-347 199l30 54l390 -227v-52z" />
    <glyph glyph-name="centsmcp.tnum" 
d="M196 -81l20 110q-70 7 -102 35t-32 81q0 20 4 42l28 159q13 73 56 107.5t127 36.5l19 111h75l-19 -110q45 0 100 -15l-13 -66q-64 12 -129 12q-68 0 -97 -17t-38 -70l-27 -154q-3 -17 -3 -27q0 -33 23.5 -45t85.5 -12q60 0 129 12v-67q-47 -12 -113 -15l-19 -108h-75z
" />
    <glyph glyph-name="sterlingsmcp.tnum" 
d="M73 231l11 60h80q-20 51 -20 89q0 77 47.5 113.5t150.5 36.5q78 0 147 -25l-15 -62q-65 18 -127 18q-61 0 -90.5 -16.5t-29.5 -62.5q0 -37 23 -91h190l-13 -60h-166v-10q0 -95 -88 -155h266l-12 -66h-377l12 63q117 67 117 152q0 10 -1 16h-105z" />
    <glyph glyph-name="sectionsmcp.tnum" 
d="M246 21l-63 -31q-87 152 -87 313q0 59 10 115q11 60 44 86t108 26q76 0 145 -24l-14 -59q-80 20 -135 20q-37 0 -53.5 -13t-21.5 -46q-9 -55 -9 -108q0 -130 76 -279zM311 340l63 31q87 -152 87 -313q0 -59 -10 -115q-11 -60 -44 -86t-108 -26q-76 0 -145 24l14 59
q80 -20 135 -20q37 0 53.5 13t21.5 46q9 56 9 108q0 130 -76 279z" />
    <glyph glyph-name="yensmcp.tnum" 
d="M70 220l10 52h92l-88 248h82l101 -292l191 292h94l-171 -248h97l-10 -52h-122l-51 -74l-2 -9h161l-10 -52h-160l-15 -85h-83l15 85h-155l10 52h154l4 19l-23 64h-121z" />
    <glyph glyph-name="florinsmcp.tnum" 
d="M476 441q-39 13 -76 13q-39 0 -55 -12t-26 -49l-34 -131h133l-16 -67h-136l-70 -273q-18 -66 -46 -92.5t-88 -26.5q-51 0 -89 20l17 63q36 -14 63 -14q29 0 41.5 12t20.5 44l69 267h-87l19 67h88l36 141q17 65 49 92.5t102 27.5q55 0 101 -19z" />
    <glyph glyph-name="endashsmcp.tnum" 
d="M104 247l11 69h354l-12 -69h-353z" />
    <glyph glyph-name="dividesmcp.tnum" 
d="M219 364v92h81v-92h-81zM56 212v62h406v-62h-406zM219 30v92h81v-92h-81z" />
    <glyph glyph-name="Eurosmcp.tnum" 
d="M79 301l8 44h73l6 35q15 85 66.5 117.5t156.5 32.5q75 0 136 -19l-13 -63q-68 14 -130 14q-71 0 -98.5 -18.5t-37.5 -72.5l-5 -26h195l-8 -44h-194l-15 -83h194l-8 -44h-193l-5 -28q-3 -18 -3 -31q0 -33 23 -45t86 -12q65 0 129 14l4 -64q-62 -18 -146 -18
q-179 0 -179 119q0 14 4 38l5 27h-74l8 44h73l15 83h-73z" />
    <glyph glyph-name="perthousandsmcp.tnum" horiz-adv-x="1056" 
d="M183 24l321 506l50 -32l-322 -508zM331 420l-13 -74q-10 -57 -42 -83.5t-105 -26.5q-110 0 -110 91q0 15 3 30l11 63q10 57 43 83.5t105 26.5q50 0 80 -23t30 -63q0 -14 -2 -24zM255 345l13 76q1 6 1 13q0 40 -56 40q-37 0 -53.5 -12t-21.5 -42l-12 -69q-2 -12 -2 -17
q0 -42 57 -42q37 0 53 13t21 40zM675 174l-13 -74q-10 -57 -42 -83.5t-105 -26.5q-110 0 -110 91q0 15 3 30l11 63q10 57 43 83.5t105 26.5q50 0 80 -23t30 -63q0 -14 -2 -24zM599 99l13 76q1 6 1 13q0 40 -56 40q-37 0 -53.5 -12t-21.5 -42l-12 -69q-2 -12 -2 -17
q0 -42 57 -42q37 0 53 13t21 40zM988 174l-13 -74q-10 -57 -42 -83.5t-105 -26.5q-110 0 -110 91q0 15 3 30l11 63q10 57 43 83.5t105 26.5q50 0 80 -23t30 -63q0 -14 -2 -24zM912 99l13 76q1 6 1 13q0 40 -56 40q-37 0 -53.5 -12t-21.5 -42l-12 -69q-2 -12 -2 -17
q0 -42 57 -42q37 0 53 13t21 40z" />
    <glyph glyph-name="minus.smcp" horiz-adv-x="392" 
d="M75 245v71h267v-71h-267z" />
    <glyph glyph-name="multiply.smcp" horiz-adv-x="524" 
d="M408 51l-141 142l-141 -142l-49 49l141 142l-141 142l49 49l141 -141l141 141l49 -49l-141 -142l141 -142z" />
    <glyph glyph-name="exclam.smcp" horiz-adv-x="278" 
d="M153 175h-46l6 142l36 203h83l-35 -203zM57 0l19 110h85l-19 -110h-85z" />
    <glyph glyph-name="numbersign.smcp" horiz-adv-x="621" 
d="M592 341h-112l-36 -159h111l-14 -57h-111l-28 -125h-62l28 125h-167l-28 -125h-62l28 125h-109l14 57h109l36 159h-108l14 58h107l29 121h63l-29 -121h166l29 121h63l-29 -121h111zM251 341l-36 -159h167l36 159h-167z" />
    <glyph glyph-name="dollar.smcp" horiz-adv-x="463" 
d="M128 -96l17 96q-60 5 -126 30l18 64q84 -26 146 -26q38 0 59 3.5t38.5 19t22.5 45.5q9 49 -4 64t-85 30q-91 19 -115.5 52.5t-12.5 102.5q13 75 48 105t119 32l17 91h71l-17 -92q64 -6 111 -19l-14 -67q-72 18 -140 18q-67 0 -86.5 -12.5t-27.5 -59.5q-4 -21 -4 -30.5
t2 -19t15.5 -15t29 -10.5t50.5 -14q93 -23 115.5 -52.5t9.5 -102.5q-13 -72 -49.5 -102t-120.5 -36l-17 -95h-70z" />
    <glyph glyph-name="percent.smcp" horiz-adv-x="743" 
d="M183 24l321 506l50 -32l-322 -508zM331 420l-13 -74q-10 -57 -42 -83.5t-105 -26.5q-110 0 -110 91q0 15 3 30l11 63q10 57 43 83.5t105 26.5q50 0 80 -23t30 -63q0 -14 -2 -24zM255 345l13 76q1 6 1 13q0 40 -56 40q-37 0 -53.5 -12t-21.5 -42l-12 -69q-2 -12 -2 -17
q0 -42 57 -42q37 0 53 13t21 40zM675 174l-13 -74q-10 -57 -42 -83.5t-105 -26.5q-110 0 -110 91q0 15 3 30l11 63q10 57 43 83.5t105 26.5q50 0 80 -23t30 -63q0 -14 -2 -24zM599 99l13 76q1 6 1 13q0 40 -56 40q-37 0 -53.5 -12t-21.5 -42l-12 -69q-2 -12 -2 -17
q0 -42 57 -42q37 0 53 13t21 40z" />
    <glyph glyph-name="ampersand.smcp" horiz-adv-x="571" 
d="M456 229l-37 -212q-90 -27 -190 -27q-104 0 -142 35.5t-27 99.5l10 57q13 74 87 84q-54 29 -42 96l10 59q11 63 52.5 86t144.5 23q92 0 164 -22l-12 -63q-90 16 -164 16q-61 0 -81 -12t-26 -47l-9 -50q-5 -28 8 -43t51 -15h294l-10 -65h-81zM378 229h-144
q-41 0 -61.5 -14.5t-25.5 -45.5l-7 -40q-7 -38 12 -56t86 -18q55 0 112 11z" />
    <glyph glyph-name="plus.smcp" horiz-adv-x="524" 
d="M298 209v-170h-71v170h-167v68h167v170h71v-170h166v-68h-166z" />
    <glyph glyph-name="zero.smcp" horiz-adv-x="534" 
d="M220 -10q-87 0 -129.5 34.5t-42.5 92.5q0 13 3 31l42 238q14 75 66.5 109.5t155.5 34.5q84 0 128 -36t44 -95q0 -14 -3 -29l-41 -233q-13 -71 -62 -109t-161 -38zM363 146l40 229q2 14 2 20q0 64 -103 64q-61 0 -91.5 -21t-38.5 -69l-39 -222q-2 -12 -2 -24
q0 -33 23.5 -47.5t77.5 -14.5q61 0 92 20t39 65z" />
    <glyph glyph-name="one.smcp" horiz-adv-x="347" 
d="M130 0l76 429l-137 -64l-29 62l188 93h76l-92 -520h-82z" />
    <glyph glyph-name="two.smcp" horiz-adv-x="476" 
d="M25 0l8 66l171 143q83 67 105.5 93t28.5 61l5 29q3 18 3 23q0 24 -20.5 33t-77.5 9q-68 0 -145 -18l-8 68q90 23 174 23q160 0 160 -103q0 -8 -3 -29l-6 -35q-9 -52 -29.5 -83.5t-92.5 -93.5l-138 -115h218l-11 -71h-342z" />
    <glyph glyph-name="three.smcp" horiz-adv-x="458" 
d="M155 -10q-79 0 -142 22l17 62q64 -18 130 -18q64 0 90 12.5t33 51.5l9 50q2 10 2 15q0 44 -79 44h-125l12 65h120q44 0 64 13.5t25 44.5l10 56q2 12 2 16q0 24 -19.5 32t-68.5 8q-68 0 -133 -13l-3 62q68 17 151 17q82 0 118.5 -23.5t36.5 -69.5q0 -11 -3 -28l-11 -62
q-6 -32 -22 -52t-52 -32q57 -15 57 -78q0 -8 -2 -20l-9 -51q-12 -69 -57 -96.5t-151 -27.5z" />
    <glyph glyph-name="four.smcp" horiz-adv-x="499" 
d="M365 123l-21 -123h-79l22 123h-275l5 70l306 327h113l-59 -334h82l-11 -63h-83zM344 447l-239 -261h193z" />
    <glyph glyph-name="five.smcp" horiz-adv-x="468" 
d="M176 -10q-82 0 -147 23l16 65q72 -18 144 -18q63 0 88 13t32 52l5 29q2 16 2 20q0 28 -19.5 41t-66.5 15q-88 5 -148 7l50 283h316l-11 -70h-237l-27 -151q45 -1 85 -4q141 -8 141 -110q0 -13 -3 -31l-4 -24q-7 -39 -17.5 -62.5t-33.5 -42.5t-63 -27t-102 -8z" />
    <glyph glyph-name="six.smcp" horiz-adv-x="486" 
d="M210 -10q-86 0 -123 27t-37 80q0 15 3 33l41 233q17 96 66.5 131.5t158.5 35.5q75 0 142 -23l-14 -61q-66 17 -133 17q-75 0 -101 -20t-40 -97l-11 -62q59 18 120 18q142 0 142 -98q0 -10 -3 -28l-7 -39q-9 -53 -26 -82t-60 -47t-118 -18zM333 136l8 45q1 7 1 14
q0 21 -18 29.5t-63 8.5q-50 0 -112 -23l-14 -79q-2 -12 -2 -24q0 -28 20 -38.5t69 -10.5q58 0 80.5 15.5t30.5 62.5z" />
    <glyph glyph-name="seven.smcp" horiz-adv-x="424" 
d="M114 0h-90l322 452h-285l13 68h367l-5 -64z" />
    <glyph glyph-name="eight.smcp" horiz-adv-x="512" 
d="M214 -10q-86 0 -127 30.5t-41 82.5q0 11 3 28l2 11q15 90 127 124q-47 27 -60.5 56.5t-6.5 68.5l2 13q12 65 57 95.5t139 30.5q73 0 113.5 -27t41.5 -74q0 -7 -2 -21l-5 -28q-7 -41 -31.5 -68t-81.5 -48q89 -35 89 -106q0 -6 -2 -22l-3 -18q-13 -71 -59.5 -99.5
t-154.5 -28.5zM382 392l2 11q1 6 1 13q0 50 -88 50q-52 0 -76.5 -15.5t-30.5 -48.5l-3 -16q-6 -33 12.5 -52.5t67.5 -38.5q53 18 81 39t34 58zM349 119l3 17q2 14 2 19q0 27 -21.5 43t-75.5 36q-62 -20 -91.5 -40t-35.5 -51l-3 -18q-2 -12 -2 -18q0 -26 22 -38.5t78 -12.5
q60 0 89 14t35 49z" />
    <glyph glyph-name="nine.smcp" horiz-adv-x="490" 
d="M282 530q79 0 118.5 -30.5t39.5 -86.5q0 -15 -3 -32l-39 -224q-17 -96 -66.5 -131.5t-158.5 -35.5q-83 0 -145 26l14 60q69 -19 136 -19q74 0 101 21.5t40 95.5l11 62q-59 -18 -120 -18q-141 0 -141 98q0 12 3 31l7 38q10 53 26.5 81.5t59 46t117.5 17.5zM159 386l-8 -45
q-1 -7 -1 -16q0 -21 18 -29.5t63 -8.5q55 0 111 21l15 81q3 18 3 25q0 27 -20 37.5t-70 10.5q-59 0 -81 -15t-30 -61z" />
    <glyph glyph-name="less.smcp" horiz-adv-x="554" 
d="M462 -10l-412 228v52l411 227l29 -54l-366 -199l367 -200z" />
    <glyph glyph-name="equal.smcp" horiz-adv-x="482" 
d="M65 305v59h367v-59h-367zM65 124v59h367v-59h-367z" />
    <glyph glyph-name="greater.smcp" horiz-adv-x="554" 
d="M509 218l-412 -228l-29 54l367 200l-366 199l29 54l411 -227v-52z" />
    <glyph glyph-name="question.smcp" horiz-adv-x="451" 
d="M105 0l19 110h85l-19 -110h-85zM181 164l-34 61l118 67q35 20 44 33.5t17 60.5q4 26 4 33q0 27 -18.5 35t-73.5 8q-54 0 -125 -13l-7 66q75 15 156 15q78 0 114 -24.5t36 -79.5q0 -21 -4 -41q-12 -68 -25.5 -91.5t-66.5 -53.5z" />
    <glyph glyph-name="at.smcp" horiz-adv-x="660" 
d="M454 363l-29 -164q9 -3 22 -3q57 0 82 40t25 100q0 66 -46 103.5t-129 37.5q-118 0 -190 -71t-72 -197q0 -166 210 -166q70 0 159 28l11 -46q-76 -35 -180 -35q-129 0 -195.5 58.5t-66.5 156.5q0 149 87 237t244 88q106 0 167.5 -53t61.5 -138q0 -83 -42 -135.5
t-122 -52.5q-46 0 -70 27q-40 -21 -87 -21q-37 0 -53 19.5t-10 51.5l15 83q7 43 30 59t74 16q55 0 104 -23zM346 342q-15 0 -23 -1.5t-14.5 -8.5t-8.5 -20l-16 -91q-2 -9 4.5 -14.5t21.5 -5.5q33 0 64 16l21 118q-21 7 -49 7z" />
    <glyph glyph-name="a.smcp" horiz-adv-x="560" 
d="M403 0l-21 118h-233l-63 -118h-87l277 520h109l98 -520h-80zM323 462l-140 -277h189z" />
    <glyph glyph-name="b.smcp" horiz-adv-x="527" 
d="M294 0h-249l92 520h228q67 0 97.5 -29.5t21.5 -81.5l-10 -57q-6 -34 -23 -55t-59 -32q36 -9 55.5 -33.5t13.5 -61.5l-10 -56q-10 -60 -43.5 -87t-113.5 -27zM392 352l10 57q4 22 -7 33.5t-42 11.5h-145l-28 -156h138q65 0 74 54zM370 120l10 56q5 29 -14 43t-56 14h-141
l-29 -167h153q68 0 77 54z" />
    <glyph glyph-name="c.smcp" horiz-adv-x="474" 
d="M229 -10q-179 0 -179 119q0 14 4 38l41 233q15 85 65.5 117.5t157.5 32.5q73 0 142 -19l-13 -65q-79 14 -136 14q-68 0 -96.5 -19t-38.5 -72l-39 -221q-3 -18 -3 -31q0 -33 23.5 -45t84.5 -12q59 0 135 14l4 -66q-80 -18 -152 -18z" />
    <glyph glyph-name="d.smcp" horiz-adv-x="548" 
d="M257 0h-212l92 520h198q166 0 166 -125q0 -20 -4 -43l-35 -198q-7 -40 -17.5 -65.5t-32.5 -47t-60 -31.5t-95 -10zM381 165l34 192q3 18 3 31q0 32 -20.5 46.5t-71.5 14.5h-119l-67 -378h121q62 0 86.5 21.5t33.5 72.5z" />
    <glyph glyph-name="e.smcp" horiz-adv-x="499" 
d="M45 0l92 520h342l-12 -70h-260l-25 -145h241l-12 -70h-242l-29 -165h261l-12 -70h-344z" />
    <glyph glyph-name="f.smcp" horiz-adv-x="480" 
d="M207 450l-29 -164h244l-11 -70h-245l-38 -216h-83l92 520h344l-11 -70h-263z" />
    <glyph glyph-name="g.smcp" horiz-adv-x="534" 
d="M226 -10q-106 0 -146 39t-26 118l41 233q15 85 63 117.5t159 32.5q88 0 165 -22l-14 -66q-83 17 -157 17q-71 0 -98 -17.5t-37 -72.5l-38 -217q-10 -54 7.5 -73t91.5 -19q59 0 109 10l31 169h77l-39 -223q-80 -26 -189 -26z" />
    <glyph glyph-name="h.smcp" horiz-adv-x="592" 
d="M374 0l41 232h-247l-40 -232h-83l92 520h83l-39 -216h246l39 216h83l-92 -520h-83z" />
    <glyph glyph-name="i.smcp" horiz-adv-x="273" 
d="M50 0l92 520h83l-92 -520h-83z" />
    <glyph glyph-name="j.smcp" horiz-adv-x="258" 
d="M-14 -158l-44 56q69 54 85 72.5t20 40.5l90 509h83l-91 -514q-6 -32 -15 -48t-34.5 -39.5t-93.5 -76.5z" />
    <glyph glyph-name="k.smcp" horiz-adv-x="537" 
d="M364 0l-173 265l243 255h105l-256 -259l174 -261h-93zM45 0l92 520h83l-92 -520h-83z" />
    <glyph glyph-name="l.smcp" horiz-adv-x="465" 
d="M45 0l92 520h83l-79 -447h247l-12 -73h-331z" />
    <glyph glyph-name="m.smcp" horiz-adv-x="712" 
d="M506 0l56 394l-190 -329h-99l-74 337l-81 -402h-82l111 520h94l91 -390l226 390h100l-70 -520h-82z" />
    <glyph glyph-name="n.smcp" horiz-adv-x="607" 
d="M365 0l-166 425l-75 -425h-79l91 520h106l165 -429l76 429h80l-91 -520h-107z" />
    <glyph glyph-name="o.smcp" horiz-adv-x="570" 
d="M239 -10q-96 0 -141 36t-45 98q0 17 3 35l37 211q15 86 68.5 123t172.5 37q89 0 136 -40.5t47 -104.5q0 -15 -3 -32l-35 -200q-7 -41 -20.5 -68.5t-39.5 -50t-70.5 -33.5t-109.5 -11zM395 149l37 210q3 13 3 26q0 75 -114 75q-75 0 -106 -22.5t-41 -78.5l-35 -200
q-2 -11 -2 -27q0 -36 25.5 -54t88.5 -18q67 0 101.5 21t42.5 68z" />
    <glyph glyph-name="p.smcp" horiz-adv-x="513" 
d="M294 170h-136l-30 -170h-83l92 520h213q72 0 110.5 -26t38.5 -77q0 -8 -3 -26l-16 -90q-12 -69 -51.5 -100t-134.5 -31zM398 306l14 80q2 14 2 19q0 24 -17 34.5t-58 10.5h-132l-37 -210h130q50 0 71 15t27 51z" />
    <glyph glyph-name="q.smcp" horiz-adv-x="570" 
d="M383 -86l-10 -60q-130 21 -255 22l9 60q124 0 256 -22zM239 -10q-96 0 -141 36t-45 98q0 17 3 35l37 211q15 86 68.5 123t172.5 37q89 0 136 -40.5t47 -104.5q0 -15 -3 -32l-35 -200q-7 -41 -20.5 -68.5t-39.5 -50t-70.5 -33.5t-109.5 -11zM395 149l37 210q3 13 3 26
q0 75 -114 75q-75 0 -106 -22.5t-41 -78.5l-35 -200q-2 -11 -2 -27q0 -36 25.5 -54t88.5 -18q67 0 101.5 21t42.5 68z" />
    <glyph glyph-name="r.smcp" horiz-adv-x="569" 
d="M307 173h-148l-31 -173h-83l92 520h225q80 0 118.5 -33t27.5 -96l-15 -85q-9 -51 -31 -81t-68 -43l93 -182h-89l-90 173h-1zM411 312l13 73q6 36 -9.5 50.5t-63.5 14.5h-144l-36 -207h142q51 0 71.5 16t26.5 53z" />
    <glyph glyph-name="s.smcp" horiz-adv-x="489" 
d="M199 -10q-96 0 -173 33l18 66q87 -29 166 -29q63 0 84 13.5t29 56.5q9 49 -7 66.5t-93 33.5q-65 14 -95.5 36t-34.5 54t4 77q14 79 55.5 106t149.5 27q81 0 157 -23l-14 -67q-79 19 -147 19q-71 0 -91.5 -13t-28.5 -60q-8 -44 6 -59t86 -32q98 -23 123.5 -55.5
t12.5 -108.5q-9 -54 -25.5 -81.5t-59.5 -43.5t-122 -16z" />
    <glyph glyph-name="t.smcp" horiz-adv-x="475" 
d="M313 447l-78 -447h-83l78 447h-171l13 73h425l-13 -73h-171z" />
    <glyph glyph-name="u.smcp" horiz-adv-x="587" 
d="M248 -10q-101 0 -147.5 45t-34.5 113l66 372h83l-65 -367q-8 -46 16 -68t95 -22q65 0 98.5 23t42.5 73l64 361h83l-66 -372q-14 -79 -65.5 -118.5t-169.5 -39.5z" />
    <glyph glyph-name="v.smcp" horiz-adv-x="504" 
d="M273 0h-114l-89 520h79l74 -454l225 454h88z" />
    <glyph glyph-name="w.smcp" horiz-adv-x="789" 
d="M575 0h-110l-37 440l-191 -440h-102l-61 520h75l49 -437l191 437h103l40 -437l201 437h85z" />
    <glyph glyph-name="x.smcp" horiz-adv-x="558" 
d="M0 0l235 266l-133 254h88l103 -199l171 199h99l-230 -259l140 -261h-89l-109 200l-179 -200h-96z" />
    <glyph glyph-name="y.smcp" horiz-adv-x="491" 
d="M276 146l-26 -146h-83l28 156l-130 364h82l101 -292l191 292h94z" />
    <glyph glyph-name="z.smcp" horiz-adv-x="520" 
d="M45 0l-2 62l349 392h-285l11 66h371l1 -63l-348 -391h283l-11 -66h-369z" />
    <glyph glyph-name="cent.smcp" horiz-adv-x="453" 
d="M163 -81l20 110q-70 7 -102 35t-32 81q0 20 4 42l28 159q13 73 56 107.5t127 36.5l19 111h75l-19 -110q45 0 100 -15l-13 -66q-65 12 -129 12q-68 0 -97 -17t-38 -70l-27 -154q-3 -17 -3 -27q0 -33 23.5 -45t85.5 -12q60 0 129 12v-67q-47 -12 -113 -15l-19 -108h-75z
" />
    <glyph glyph-name="sterling.smcp" horiz-adv-x="518" 
d="M66 231l11 60h80q-20 51 -20 89q0 77 47.5 113.5t150.5 36.5q78 0 147 -25l-15 -62q-65 18 -127 18q-61 0 -90.5 -16.5t-29.5 -62.5q0 -37 23 -91h190l-13 -60h-166v-10q0 -95 -88 -155h266l-12 -66h-377l12 63q117 67 117 152q0 10 -1 16h-105z" />
    <glyph glyph-name="section.smcp" horiz-adv-x="533" 
d="M233 21l-63 -31q-87 152 -87 313q0 59 10 115q11 60 44 86t108 26q76 0 145 -24l-14 -59q-80 20 -135 20q-37 0 -53.5 -13t-21.5 -46q-9 -55 -9 -108q0 -130 76 -279zM298 340l63 31q87 -152 87 -313q0 -59 -10 -115q-11 -60 -44 -86t-108 -26q-76 0 -145 24l14 59
q80 -20 135 -20q37 0 53.5 13t21.5 46q9 56 9 108q0 130 -76 279z" />
    <glyph glyph-name="paragraph.smcp" horiz-adv-x="504" 
d="M69 272q0 114 69 181t177 67l-73 -416q-77 0 -125 47t-48 121zM390 520h70l-98 -559q-7 -36 -28 -58.5t-127 -109.5l-39 50q86 71 103.5 88t21.5 35z" />
    <glyph glyph-name="germandbls.smcp" horiz-adv-x="979" 
d="M199 -10q-96 0 -173 33l18 66q87 -29 166 -29q63 0 84 13.5t29 56.5q9 49 -7 66.5t-93 33.5q-65 14 -95.5 36t-34.5 54t4 77q14 79 55.5 106t149.5 27q81 0 157 -23l-14 -67q-79 19 -147 19q-71 0 -91.5 -13t-28.5 -60q-8 -44 6 -59t86 -32q98 -23 123.5 -55.5
t12.5 -108.5q-9 -54 -25.5 -81.5t-59.5 -43.5t-122 -16zM689 -10q-96 0 -173 33l18 66q87 -29 166 -29q63 0 84 13.5t29 56.5q9 49 -7 66.5t-93 33.5q-65 14 -95.5 36t-34.5 54t4 77q14 79 55.5 106t149.5 27q81 0 157 -23l-14 -67q-79 19 -147 19q-71 0 -91.5 -13
t-28.5 -60q-8 -44 6 -59t86 -32q98 -23 123.5 -55.5t12.5 -108.5q-9 -54 -25.5 -81.5t-59.5 -43.5t-122 -16z" />
    <glyph glyph-name="yen.smcp" horiz-adv-x="518" 
d="M53 220l10 52h92l-88 248h80l101 -296l196 296h91l-171 -248h97l-10 -52h-122l-51 -74l-2 -9h161l-10 -52h-160l-15 -85h-83l15 85h-155l10 52h154l4 19l-23 64h-121z" />
    <glyph glyph-name="ae.smcp" horiz-adv-x="755" 
d="M403 0l-21 118h-233l-63 -118h-87l277 520h459l-12 -70h-325l27 -145h254l-12 -70h-229l31 -165h188l-12 -70h-242zM323 462l-140 -277h189z" />
    <glyph glyph-name="oslash.smcp" horiz-adv-x="570" 
d="M58 -60l-30 24l57 73q-32 33 -32 87q0 17 3 35l37 211q15 86 68.5 123t172.5 37q73 0 118 -28l62 78l30 -23l-62 -79q35 -38 35 -93q0 -15 -3 -32l-35 -200q-7 -41 -20.5 -68.5t-39.5 -50t-70.5 -33.5t-109.5 -11q-77 0 -123 24zM137 132q0 -14 3 -26l266 337
q-29 17 -85 17q-75 0 -106 -22.5t-41 -78.5l-35 -200q-2 -11 -2 -27zM395 149l37 210q3 13 3 26t-5 28l-265 -337q26 -16 86 -16q67 0 101.5 21t42.5 68z" />
    <glyph glyph-name="questiondown.smcp" horiz-adv-x="448" 
d="M355 520l-19 -110h-85l19 110h85zM279 356l34 -61l-118 -67q-35 -20 -44 -33.5t-17 -60.5q-4 -26 -4 -33q0 -27 18.5 -35t73.5 -8q54 0 125 13l7 -66q-75 -15 -156 -15q-78 0 -114 24.5t-36 79.5q0 21 4 41q12 68 25.5 91.5t66.5 53.5z" />
    <glyph glyph-name="exclamdown.smcp" horiz-adv-x="280" 
d="M133 345h46l-6 -142l-36 -203h-83l35 203zM229 520l-19 -110h-85l19 110h85z" />
    <glyph glyph-name="florin.smcp" horiz-adv-x="477" 
d="M447 441q-39 13 -76 13q-39 0 -55 -12t-26 -49l-34 -131h133l-16 -67h-136l-70 -273q-18 -66 -46 -92.5t-88 -26.5q-51 0 -89 20l17 63q36 -14 63 -14q29 0 41.5 12t20.5 44l69 267h-87l19 67h88l36 141q17 65 49 92.5t102 27.5q55 0 101 -19z" />
    <glyph glyph-name="oe.smcp" horiz-adv-x="808" 
d="M698 0h-457q-96 0 -141 36t-45 98q0 17 3 35l33 191q15 86 68.5 123t172.5 37h456l-12 -70h-260l-25 -145h241l-12 -70h-242l-29 -165h261zM139 142q0 -36 25.5 -54t88.5 -18h113l67 380h-114q-75 0 -106 -22.5t-41 -78.5l-31 -180q-2 -11 -2 -27z" />
    <glyph glyph-name="endash.smcp" horiz-adv-x="486" 
d="M74 247l11 69h354l-12 -69h-353z" />
    <glyph glyph-name="divide.smcp" horiz-adv-x="526" 
d="M223 364v92h81v-92h-81zM60 212v62h406v-62h-406zM223 30v92h81v-92h-81z" />
    <glyph glyph-name="Euro.smcp" horiz-adv-x="497" 
d="M45 301l8 44h73l6 35q15 85 66.5 117.5t156.5 32.5q75 0 136 -19l-13 -63q-68 14 -130 14q-71 0 -98.5 -18.5t-37.5 -72.5l-5 -26h195l-8 -44h-194l-15 -83h194l-8 -44h-193l-5 -28q-3 -18 -3 -31q0 -33 23 -45t86 -12q65 0 129 14l4 -64q-62 -18 -146 -18
q-179 0 -179 119q0 14 4 38l5 27h-74l8 44h73l15 83h-73z" />
    <glyph glyph-name="fi.smcp" horiz-adv-x="753" 
d="M207 450l-29 -164h244l-11 -70h-245l-38 -216h-83l92 520h344l-11 -70h-263zM530 0l92 520h83l-92 -520h-83z" />
    <glyph glyph-name="fl.smcp" horiz-adv-x="945" 
d="M207 450l-29 -164h244l-11 -70h-245l-38 -216h-83l92 520h344l-11 -70h-263zM525 0l92 520h83l-79 -447h247l-12 -73h-331z" />
    <glyph glyph-name="perthousand.smcp" horiz-adv-x="1056" 
d="M183 24l321 506l50 -32l-322 -508zM331 420l-13 -74q-10 -57 -42 -83.5t-105 -26.5q-110 0 -110 91q0 15 3 30l11 63q10 57 43 83.5t105 26.5q50 0 80 -23t30 -63q0 -14 -2 -24zM255 345l13 76q1 6 1 13q0 40 -56 40q-37 0 -53.5 -12t-21.5 -42l-12 -69q-2 -12 -2 -17
q0 -42 57 -42q37 0 53 13t21 40zM675 174l-13 -74q-10 -57 -42 -83.5t-105 -26.5q-110 0 -110 91q0 15 3 30l11 63q10 57 43 83.5t105 26.5q50 0 80 -23t30 -63q0 -14 -2 -24zM599 99l13 76q1 6 1 13q0 40 -56 40q-37 0 -53.5 -12t-21.5 -42l-12 -69q-2 -12 -2 -17
q0 -42 57 -42q37 0 53 13t21 40zM988 174l-13 -74q-10 -57 -42 -83.5t-105 -26.5q-110 0 -110 91q0 15 3 30l11 63q10 57 43 83.5t105 26.5q50 0 80 -23t30 -63q0 -14 -2 -24zM912 99l13 76q1 6 1 13q0 40 -56 40q-37 0 -53.5 -12t-21.5 -42l-12 -69q-2 -12 -2 -17
q0 -42 57 -42q37 0 53 13t21 40z" />
    <glyph glyph-name="dotlessi.smcp" horiz-adv-x="273" 
d="M50 0l92 520h83l-92 -520h-83z" />
    <glyph glyph-name="acute.smcp" horiz-adv-x="284" 
d="M173 571l-28 49q66 35 125 75l29 -54q-50 -34 -126 -70z" />
    <glyph glyph-name="breve.smcp" horiz-adv-x="373" 
d="M232 574q-46 0 -76.5 22.5t-40.5 57.5l46 26q21 -51 75 -51q50 0 87 52l40 -29q-39 -78 -131 -78z" />
    <glyph glyph-name="caron.smcp" horiz-adv-x="365" 
d="M120 646l28 42q38 -19 86 -52q41 29 91 53l25 -44q-69 -39 -125 -78q-48 42 -105 79z" />
    <glyph glyph-name="cedilla.smcp" horiz-adv-x="303" 
d="M74 -204q-36 0 -74 14l13 41q31 -11 61 -11q62 0 62 38q0 25 -37 25q-23 0 -47 -3l-9 15l32 91h46l-24 -70q17 3 31 3q28 0 44 -14.5t16 -39.5q0 -89 -114 -89z" />
    <glyph glyph-name="circumflex.smcp" horiz-adv-x="371" 
d="M351 613l-28 -42q-35 17 -86 52q-46 -31 -91 -53l-26 44q62 34 126 78q51 -44 105 -79z" />
    <glyph glyph-name="commaaccent.smcp" horiz-adv-x="289" 
d="M28 -158l19 107h82l-19 -107l-67 -101l-33 22l48 79h-30z" />
    <glyph glyph-name="dieresis.smcp" horiz-adv-x="393" 
d="M294 581l15 78h79l-14 -78h-80zM115 581l14 78h79l-14 -78h-79z" />
    <glyph glyph-name="dotaccent.smcp" horiz-adv-x="231" 
d="M125 574l22 124l84 12l-22 -125z" />
    <glyph glyph-name="grave.smcp" horiz-adv-x="296" 
d="M261 618l-32 -47q-74 41 -119 79l37 48q54 -45 114 -80z" />
    <glyph glyph-name="hungarumlaut.smcp" horiz-adv-x="415" 
d="M170 562l-35 42q49 39 103 93l39 -46q-51 -50 -107 -89zM328 562l-35 42q49 39 103 93l39 -46q-51 -50 -107 -89z" />
    <glyph glyph-name="macron.smcp" horiz-adv-x="375" 
d="M120 586l11 59h239l-11 -59h-239z" />
    <glyph glyph-name="ogonek.smcp" horiz-adv-x="324" 
d="M154 -194q-25 -13 -63 -13q-42 0 -66.5 19t-24.5 54q0 42 34 73t89 61h66q-119 -67 -119 -121q0 -32 41 -32q21 0 39 6z" />
    <glyph glyph-name="ring.smcp" horiz-adv-x="270" 
d="M190 555q-27 0 -43.5 15.5t-16.5 40.5q0 39 22 60.5t62 21.5q29 0 45 -15t16 -38q0 -37 -21 -61t-64 -24zM209 659q-18 0 -28.5 -11.5t-10.5 -31.5q0 -26 25 -26q39 0 39 44q0 25 -25 25z" />
    <glyph glyph-name="tilde.smcp" horiz-adv-x="405" 
d="M323 576q-24 0 -57.5 19t-47.5 19q-11 0 -23 -7t-16.5 -12t-17.5 -18l-31 31q38 63 95 63q21 0 54 -19t49 -19q25 0 47 29l35 -26q-17 -31 -36 -45.5t-51 -14.5z" />
    <glyph glyph-name="aacute.smcp" horiz-adv-x="560" 
d="M403 0l-21 118h-233l-63 -118h-87l277 520h109l98 -520h-80zM323 462l-140 -277h189zM331 571l-28 49q66 35 125 75l29 -54q-50 -34 -126 -70z" />
    <glyph glyph-name="aeacute.smcp" horiz-adv-x="755" 
d="M403 0l-21 118h-233l-63 -118h-87l277 520h459l-12 -70h-325l27 -145h254l-12 -70h-229l31 -165h188l-12 -70h-242zM323 462l-140 -277h189zM383 571l-28 49q66 35 125 75l29 -54q-50 -34 -126 -70z" />
    <glyph glyph-name="abreve.smcp" horiz-adv-x="560" 
d="M403 0l-21 118h-233l-63 -118h-87l277 520h109l98 -520h-80zM323 462l-140 -277h189zM344 574q-46 0 -76.5 22.5t-40.5 57.5l46 26q21 -51 75 -51q50 0 87 52l40 -29q-39 -78 -131 -78z" />
    <glyph glyph-name="acircumflex.smcp" horiz-adv-x="560" 
d="M403 0l-21 118h-233l-63 -118h-87l277 520h109l98 -520h-80zM323 462l-140 -277h189zM456 613l-28 -42q-35 17 -86 52q-46 -31 -91 -53l-26 44q62 34 126 78q51 -44 105 -79z" />
    <glyph glyph-name="adieresis.smcp" horiz-adv-x="560" 
d="M403 0l-21 118h-233l-63 -118h-87l277 520h109l98 -520h-80zM323 462l-140 -277h189zM393 581l15 78h79l-14 -78h-80zM214 581l14 78h79l-14 -78h-79z" />
    <glyph glyph-name="agrave.smcp" horiz-adv-x="560" 
d="M403 0l-21 118h-233l-63 -118h-87l277 520h109l98 -520h-80zM323 462l-140 -277h189zM368 618l-32 -47q-74 41 -119 79l37 48q54 -45 114 -80z" />
    <glyph glyph-name="amacron.smcp" horiz-adv-x="560" 
d="M403 0l-21 118h-233l-63 -118h-87l277 520h109l98 -520h-80zM323 462l-140 -277h189zM219 586l11 59h239l-11 -59h-239z" />
    <glyph glyph-name="aogonek.smcp" horiz-adv-x="560" 
d="M448 -194q-25 -13 -63 -13q-42 0 -66.5 19t-24.5 54q0 41 28.5 72t80.5 62l-21 118h-233l-63 -118h-87l277 520h109l98 -520q-119 -68 -119 -121q0 -32 41 -32q21 0 39 6zM323 462l-140 -277h189z" />
    <glyph glyph-name="atilde.smcp" horiz-adv-x="560" 
d="M403 0l-21 118h-233l-63 -118h-87l277 520h109l98 -520h-80zM323 462l-140 -277h189zM395 576q-24 0 -57.5 19t-47.5 19q-11 0 -23 -7t-16.5 -12t-17.5 -18l-31 31q38 63 95 63q21 0 54 -19t49 -19q25 0 47 29l35 -26q-17 -31 -36 -45.5t-51 -14.5z" />
    <glyph glyph-name="aring.smcp" horiz-adv-x="560" 
d="M403 0l-21 118h-233l-63 -118h-87l277 520h109l98 -520h-80zM323 462l-140 -277h189zM336 555q-27 0 -43.5 15.5t-16.5 40.5q0 39 22 60.5t62 21.5q29 0 45 -15t16 -38q0 -37 -21 -61t-64 -24zM355 659q-18 0 -28.5 -11.5t-10.5 -31.5q0 -26 25 -26q39 0 39 44
q0 25 -25 25z" />
    <glyph glyph-name="aringacute.smcp" horiz-adv-x="560" 
d="M339 556q-27 0 -43.5 15.5t-16.5 40.5q0 38 22 59.5t61 21.5q28 0 44 -15t16 -38q0 -36 -21 -60t-62 -24zM357 660q-17 0 -28 -12t-11 -31q0 -26 26 -26q38 0 38 44q0 25 -25 25zM366 713l-27 43q63 37 101 66l31 -47q-46 -31 -105 -62zM403 0l-21 118h-233l-63 -118h-87
l277 520h109l98 -520h-80zM323 462l-140 -277h189z" />
    <glyph glyph-name="cacute.smcp" horiz-adv-x="474" 
d="M229 -10q-179 0 -179 119q0 14 4 38l41 233q15 85 65.5 117.5t157.5 32.5q73 0 142 -19l-13 -65q-79 14 -136 14q-68 0 -96.5 -19t-38.5 -72l-39 -221q-3 -18 -3 -31q0 -33 23.5 -45t84.5 -12q59 0 135 14l4 -66q-80 -18 -152 -18zM281 571l-28 49q66 35 125 75l29 -54
q-50 -34 -126 -70z" />
    <glyph glyph-name="ccaron.smcp" horiz-adv-x="474" 
d="M229 -10q-179 0 -179 119q0 14 4 38l41 233q15 85 65.5 117.5t157.5 32.5q73 0 142 -19l-13 -65q-79 14 -136 14q-68 0 -96.5 -19t-38.5 -72l-39 -221q-3 -18 -3 -31q0 -33 23.5 -45t84.5 -12q59 0 135 14l4 -66q-80 -18 -152 -18zM209 646l28 42q38 -19 86 -52
q41 29 91 53l25 -44q-69 -39 -125 -78q-48 42 -105 79z" />
    <glyph glyph-name="ccedilla.smcp" horiz-adv-x="474" 
d="M198 -204q-36 0 -74 14l13 41q31 -11 61 -11q62 0 62 38q0 25 -37 25q-23 0 -47 -3l-9 15l26 76q-143 11 -143 118q0 14 4 38l41 233q15 85 65.5 117.5t157.5 32.5q73 0 142 -19l-13 -65q-79 14 -136 14q-68 0 -96.5 -19t-38.5 -72l-39 -221q-3 -18 -3 -31
q0 -33 23.5 -45t84.5 -12q59 0 135 14l4 -66q-76 -17 -142 -18l-18 -54q17 3 31 3q28 0 44 -14.5t16 -39.5q0 -89 -114 -89z" />
    <glyph glyph-name="ccircumflex.smcp" horiz-adv-x="474" 
d="M229 -10q-179 0 -179 119q0 14 4 38l41 233q15 85 65.5 117.5t157.5 32.5q73 0 142 -19l-13 -65q-79 14 -136 14q-68 0 -96.5 -19t-38.5 -72l-39 -221q-3 -18 -3 -31q0 -33 23.5 -45t84.5 -12q59 0 135 14l4 -66q-80 -18 -152 -18zM433 613l-28 -42q-35 17 -86 52
q-46 -31 -91 -53l-26 44q62 34 126 78q51 -44 105 -79z" />
    <glyph glyph-name="cdotaccent.smcp" horiz-adv-x="474" 
d="M229 -10q-179 0 -179 119q0 14 4 38l41 233q15 85 65.5 117.5t157.5 32.5q73 0 142 -19l-13 -65q-79 14 -136 14q-68 0 -96.5 -19t-38.5 -72l-39 -221q-3 -18 -3 -31q0 -33 23.5 -45t84.5 -12q59 0 135 14l4 -66q-80 -18 -152 -18zM270 574l22 124l84 12l-22 -125z" />
    <glyph glyph-name="dcaron.smcp" horiz-adv-x="548" 
d="M257 0h-212l92 520h198q166 0 166 -125q0 -20 -4 -43l-35 -198q-7 -40 -17.5 -65.5t-32.5 -47t-60 -31.5t-95 -10zM381 165l34 192q3 18 3 31q0 32 -20.5 46.5t-71.5 14.5h-119l-67 -378h121q62 0 86.5 21.5t33.5 72.5zM215 646l28 42q38 -19 86 -52q41 29 91 53l25 -44
q-69 -39 -125 -78q-48 42 -105 79z" />
    <glyph glyph-name="dcroat.smcp" horiz-adv-x="576" 
d="M55 231l11 61h59l40 228h198q166 0 166 -125q0 -20 -4 -43l-35 -198q-7 -40 -17.5 -65.5t-32.5 -47t-60 -31.5t-95 -10h-212l41 231h-59zM409 165l34 192q3 18 3 31q0 32 -20.5 46.5t-71.5 14.5h-119l-28 -157h105l-11 -61h-105l-28 -160h121q62 0 86.5 21.5t33.5 72.5z
" />
    <glyph glyph-name="eacute.smcp" horiz-adv-x="499" 
d="M45 0l92 520h342l-12 -70h-260l-25 -145h241l-12 -70h-242l-29 -165h261l-12 -70h-344zM285 571l-28 49q66 35 125 75l29 -54q-50 -34 -126 -70z" />
    <glyph glyph-name="ebreve.smcp" horiz-adv-x="499" 
d="M45 0l92 520h342l-12 -70h-260l-25 -145h241l-12 -70h-242l-29 -165h261l-12 -70h-344zM324 574q-46 0 -76.5 22.5t-40.5 57.5l46 26q21 -51 75 -51q50 0 87 52l40 -29q-39 -78 -131 -78z" />
    <glyph glyph-name="ecaron.smcp" horiz-adv-x="499" 
d="M45 0l92 520h342l-12 -70h-260l-25 -145h241l-12 -70h-242l-29 -165h261l-12 -70h-344zM218 646l28 42q38 -19 86 -52q41 29 91 53l25 -44q-69 -39 -125 -78q-48 42 -105 79z" />
    <glyph glyph-name="ecircumflex.smcp" horiz-adv-x="499" 
d="M45 0l92 520h342l-12 -70h-260l-25 -145h241l-12 -70h-242l-29 -165h261l-12 -70h-344zM436 613l-28 -42q-35 17 -86 52q-46 -31 -91 -53l-26 44q62 34 126 78q51 -44 105 -79z" />
    <glyph glyph-name="edieresis.smcp" horiz-adv-x="499" 
d="M45 0l92 520h342l-12 -70h-260l-25 -145h241l-12 -70h-242l-29 -165h261l-12 -70h-344zM367 581l15 78h79l-14 -78h-80zM188 581l14 78h79l-14 -78h-79z" />
    <glyph glyph-name="edotaccent.smcp" horiz-adv-x="499" 
d="M45 0l92 520h342l-12 -70h-260l-25 -145h241l-12 -70h-242l-29 -165h261l-12 -70h-344zM277 574l22 124l84 12l-22 -125z" />
    <glyph glyph-name="egrave.smcp" horiz-adv-x="499" 
d="M45 0l92 520h342l-12 -70h-260l-25 -145h241l-12 -70h-242l-29 -165h261l-12 -70h-344zM368 618l-32 -47q-74 41 -119 79l37 48q54 -45 114 -80z" />
    <glyph glyph-name="emacron.smcp" horiz-adv-x="499" 
d="M45 0l92 520h342l-12 -70h-260l-25 -145h241l-12 -70h-242l-29 -165h261l-12 -70h-344zM199 586l11 59h239l-11 -59h-239z" />
    <glyph glyph-name="eng.smcp" horiz-adv-x="607" 
d="M365 0l-166 425l-75 -425h-79l91 520h106l165 -429l76 429h80l-97 -553q-8 -47 -31 -75.5t-116 -98.5l-42 58q68 51 85.5 72t24.5 58l4 19h-26z" />
    <glyph glyph-name="eogonek.smcp" horiz-adv-x="499" 
d="M45 0l92 520h342l-12 -70h-260l-25 -145h241l-12 -70h-242l-29 -165h261l-12 -70h-43q-119 -67 -119 -121q0 -32 41 -32q21 0 39 6l4 -47q-25 -13 -63 -13q-42 0 -66.5 19t-24.5 54q0 70 130 134h-242z" />
    <glyph glyph-name="eth.smcp" horiz-adv-x="575" 
d="M54 231l11 61h59l40 228h198q166 0 166 -125q0 -20 -4 -43l-35 -198q-7 -40 -17.5 -65.5t-32.5 -47t-60 -31.5t-95 -10h-212l41 231h-59zM408 165l34 192q3 18 3 31q0 32 -20.5 46.5t-71.5 14.5h-119l-28 -157h105l-11 -61h-105l-28 -160h121q62 0 86.5 21.5t33.5 72.5z
" />
    <glyph glyph-name="gbreve.smcp" horiz-adv-x="534" 
d="M226 -10q-106 0 -146 39t-26 118l41 233q15 85 63 117.5t159 32.5q88 0 165 -22l-14 -66q-83 17 -157 17q-71 0 -98 -17.5t-37 -72.5l-38 -217q-10 -54 7.5 -73t91.5 -19q59 0 109 10l31 169h77l-39 -223q-80 -26 -189 -26zM325 574q-46 0 -76.5 22.5t-40.5 57.5l46 26
q21 -51 75 -51q50 0 87 52l40 -29q-39 -78 -131 -78z" />
    <glyph glyph-name="gcircumflex.smcp" horiz-adv-x="534" 
d="M226 -10q-106 0 -146 39t-26 118l41 233q15 85 63 117.5t159 32.5q88 0 165 -22l-14 -66q-83 17 -157 17q-71 0 -98 -17.5t-37 -72.5l-38 -217q-10 -54 7.5 -73t91.5 -19q59 0 109 10l31 169h77l-39 -223q-80 -26 -189 -26zM441 613l-28 -42q-35 17 -86 52
q-46 -31 -91 -53l-26 44q62 34 126 78q51 -44 105 -79z" />
    <glyph glyph-name="gcommaaccent.smcp" horiz-adv-x="534" 
d="M226 -10q-106 0 -146 39t-26 118l41 233q15 85 63 117.5t159 32.5q88 0 165 -22l-14 -66q-83 17 -157 17q-71 0 -98 -17.5t-37 -72.5l-38 -217q-10 -54 7.5 -73t91.5 -19q59 0 109 10l31 169h77l-39 -223q-80 -26 -189 -26zM171 -158l19 107h82l-19 -107l-67 -101l-33 22
l48 79h-30z" />
    <glyph glyph-name="gdotaccent.smcp" horiz-adv-x="534" 
d="M226 -10q-106 0 -146 39t-26 118l41 233q15 85 63 117.5t159 32.5q88 0 165 -22l-14 -66q-83 17 -157 17q-71 0 -98 -17.5t-37 -72.5l-38 -217q-10 -54 7.5 -73t91.5 -19q59 0 109 10l31 169h77l-39 -223q-80 -26 -189 -26zM279 574l22 124l84 12l-22 -125z" />
    <glyph glyph-name="hbar.smcp" horiz-adv-x="602" 
d="M68 395l9 49h51l14 76h83l-14 -76h246l14 76h83l-14 -76h52l-8 -49h-52l-70 -395h-83l41 232h-247l-40 -232h-83l70 395h-52zM186 304h246l16 91h-246z" />
    <glyph glyph-name="hcircumflex.smcp" horiz-adv-x="592" 
d="M374 0l41 232h-247l-40 -232h-83l92 520h83l-39 -216h246l39 216h83l-92 -520h-83zM467 613l-28 -42q-35 17 -86 52q-46 -31 -91 -53l-26 44q62 34 126 78q51 -44 105 -79z" />
    <glyph glyph-name="iacute.smcp" horiz-adv-x="273" 
d="M50 0l92 520h83l-92 -520h-83zM182 571l-28 49q66 35 125 75l29 -54q-50 -34 -126 -70z" />
    <glyph glyph-name="ibreve.smcp" horiz-adv-x="273" 
d="M198 574q-46 0 -76.5 22.5t-40.5 57.5l46 26q21 -51 75 -51q50 0 87 52l40 -29q-39 -78 -131 -78zM50 0l92 520h83l-92 -520h-83z" />
    <glyph glyph-name="icircumflex.smcp" horiz-adv-x="273" 
d="M50 0l92 520h83l-92 -520h-83zM312 613l-28 -42q-35 17 -86 52q-46 -31 -91 -53l-26 44q62 34 126 78q51 -44 105 -79z" />
    <glyph glyph-name="idieresis.smcp" horiz-adv-x="273" 
d="M50 0l92 520h83l-92 -520h-83zM246 581l15 78h79l-14 -78h-80zM67 581l14 78h79l-14 -78h-79z" />
    <glyph glyph-name="igrave.smcp" horiz-adv-x="273" 
d="M50 0l92 520h83l-92 -520h-83zM234 618l-32 -47q-74 41 -119 79l37 48q54 -45 114 -80z" />
    <glyph glyph-name="imacron.smcp" horiz-adv-x="273" 
d="M77 586l11 59h239l-11 -59h-239zM50 0l92 520h83l-92 -520h-83z" />
    <glyph glyph-name="iogonek.smcp" horiz-adv-x="273" 
d="M119 -194q-25 -13 -63 -13q-42 0 -66.5 19t-24.5 54q0 37 24.5 72.5t60.5 61.5l92 520h83l-92 -520q-98 -55 -98 -121q0 -32 41 -32q21 0 39 6z" />
    <glyph glyph-name="itilde.smcp" horiz-adv-x="273" 
d="M254 576q-24 0 -57.5 19t-47.5 19q-11 0 -23 -7t-16.5 -12t-17.5 -18l-31 31q39 63 95 63q21 0 54 -19t49 -19q25 0 47 29l35 -26q-17 -31 -36 -45.5t-51 -14.5zM50 0l92 520h83l-92 -520h-83z" />
    <glyph glyph-name="ij.smcp" horiz-adv-x="531" 
d="M50 0l92 520h83l-92 -520h-83zM259 -158l-44 56q69 54 85 72.5t20 40.5l90 509h83l-91 -514q-6 -32 -15 -48t-34.5 -39.5t-93.5 -76.5z" />
    <glyph glyph-name="jcircumflex.smcp" horiz-adv-x="258" 
d="M-14 -158l-44 56q69 54 85 72.5t20 40.5l90 509h83l-91 -514q-6 -32 -15 -48t-34.5 -39.5t-93.5 -76.5zM303 613l-28 -42q-35 17 -86 52q-46 -31 -91 -53l-26 44q62 34 126 78q51 -44 105 -79z" />
    <glyph glyph-name="kcommaaccent.smcp" horiz-adv-x="537" 
d="M364 0l-173 265l243 255h105l-256 -259l174 -261h-93zM45 0l92 520h83l-92 -520h-83zM166 -158l19 107h82l-19 -107l-67 -101l-33 22l48 79h-30z" />
    <glyph glyph-name="lacute.smcp" horiz-adv-x="465" 
d="M45 0l92 520h83l-79 -447h247l-12 -73h-331zM181 571l-28 49q66 35 125 75l29 -54q-50 -34 -126 -70z" />
    <glyph glyph-name="lcaron.smcp" horiz-adv-x="465" 
d="M45 0l92 520h83l-79 -447h247l-12 -73h-331zM321 407l19 113h84l-19 -113l-75 -108l-31 21l53 87h-31z" />
    <glyph glyph-name="lcommaaccent.smcp" horiz-adv-x="465" 
d="M45 0l92 520h83l-79 -447h247l-12 -73h-331zM151 -158l19 107h82l-19 -107l-67 -101l-33 22l48 79h-30z" />
    <glyph glyph-name="ldot.smcp" horiz-adv-x="465" 
d="M261 211l21 115h84l-21 -115h-84zM45 0l92 520h83l-79 -447h247l-12 -73h-331z" />
    <glyph glyph-name="lslash.smcp" horiz-adv-x="497" 
d="M28 238l99 45l42 237h83l-35 -195l149 68l16 -55l-177 -81l-32 -184h247l-12 -73h-331l38 216l-71 -32z" />
    <glyph glyph-name="nacute.smcp" horiz-adv-x="607" 
d="M365 0l-166 425l-75 -425h-79l91 520h106l165 -429l76 429h80l-91 -520h-107zM346 571l-28 49q66 35 125 75l29 -54q-50 -34 -126 -70z" />
    <glyph glyph-name="ncaron.smcp" horiz-adv-x="607" 
d="M365 0l-166 425l-75 -425h-79l91 520h106l165 -429l76 429h80l-91 -520h-107zM253 646l28 42q38 -19 86 -52q41 29 91 53l25 -44q-69 -39 -125 -78q-48 42 -105 79z" />
    <glyph glyph-name="ncommaaccent.smcp" horiz-adv-x="607" 
d="M365 0l-166 425l-75 -425h-79l91 520h106l165 -429l76 429h80l-91 -520h-107zM184 -158l19 107h82l-19 -107l-67 -101l-33 22l48 79h-30z" />
    <glyph glyph-name="ntilde.smcp" horiz-adv-x="607" 
d="M365 0l-166 425l-75 -425h-79l91 520h106l165 -429l76 429h80l-91 -520h-107zM416 576q-24 0 -57.5 19t-47.5 19q-11 0 -23 -7t-16.5 -12t-17.5 -18l-31 31q39 63 95 63q21 0 54 -19t49 -19q25 0 47 29l35 -26q-17 -31 -36 -45.5t-51 -14.5z" />
    <glyph glyph-name="oacute.smcp" horiz-adv-x="570" 
d="M239 -10q-96 0 -141 36t-45 98q0 17 3 35l37 211q15 86 68.5 123t172.5 37q89 0 136 -40.5t47 -104.5q0 -15 -3 -32l-35 -200q-7 -41 -20.5 -68.5t-39.5 -50t-70.5 -33.5t-109.5 -11zM395 149l37 210q3 13 3 26q0 75 -114 75q-75 0 -106 -22.5t-41 -78.5l-35 -200
q-2 -11 -2 -27q0 -36 25.5 -54t88.5 -18q67 0 101.5 21t42.5 68zM313 571l-28 49q66 35 125 75l29 -54q-50 -34 -126 -70z" />
    <glyph glyph-name="obreve.smcp" horiz-adv-x="570" 
d="M239 -10q-96 0 -141 36t-45 98q0 17 3 35l37 211q15 86 68.5 123t172.5 37q89 0 136 -40.5t47 -104.5q0 -15 -3 -32l-35 -200q-7 -41 -20.5 -68.5t-39.5 -50t-70.5 -33.5t-109.5 -11zM395 149l37 210q3 13 3 26q0 75 -114 75q-75 0 -106 -22.5t-41 -78.5l-35 -200
q-2 -11 -2 -27q0 -36 25.5 -54t88.5 -18q67 0 101.5 21t42.5 68zM340 574q-46 0 -76.5 22.5t-40.5 57.5l46 26q21 -51 75 -51q50 0 87 52l40 -29q-39 -78 -131 -78z" />
    <glyph glyph-name="ocircumflex.smcp" horiz-adv-x="570" 
d="M239 -10q-96 0 -141 36t-45 98q0 17 3 35l37 211q15 86 68.5 123t172.5 37q89 0 136 -40.5t47 -104.5q0 -15 -3 -32l-35 -200q-7 -41 -20.5 -68.5t-39.5 -50t-70.5 -33.5t-109.5 -11zM395 149l37 210q3 13 3 26q0 75 -114 75q-75 0 -106 -22.5t-41 -78.5l-35 -200
q-2 -11 -2 -27q0 -36 25.5 -54t88.5 -18q67 0 101.5 21t42.5 68zM456 613l-28 -42q-35 17 -86 52q-46 -31 -91 -53l-26 44q62 34 126 78q51 -44 105 -79z" />
    <glyph glyph-name="odieresis.smcp" horiz-adv-x="570" 
d="M239 -10q-96 0 -141 36t-45 98q0 17 3 35l37 211q15 86 68.5 123t172.5 37q89 0 136 -40.5t47 -104.5q0 -15 -3 -32l-35 -200q-7 -41 -20.5 -68.5t-39.5 -50t-70.5 -33.5t-109.5 -11zM395 149l37 210q3 13 3 26q0 75 -114 75q-75 0 -106 -22.5t-41 -78.5l-35 -200
q-2 -11 -2 -27q0 -36 25.5 -54t88.5 -18q67 0 101.5 21t42.5 68zM391 581l15 78h79l-14 -78h-80zM212 581l14 78h79l-14 -78h-79z" />
    <glyph glyph-name="ograve.smcp" horiz-adv-x="570" 
d="M239 -10q-96 0 -141 36t-45 98q0 17 3 35l37 211q15 86 68.5 123t172.5 37q89 0 136 -40.5t47 -104.5q0 -15 -3 -32l-35 -200q-7 -41 -20.5 -68.5t-39.5 -50t-70.5 -33.5t-109.5 -11zM395 149l37 210q3 13 3 26q0 75 -114 75q-75 0 -106 -22.5t-41 -78.5l-35 -200
q-2 -11 -2 -27q0 -36 25.5 -54t88.5 -18q67 0 101.5 21t42.5 68zM382 618l-32 -47q-74 41 -119 79l37 48q54 -45 114 -80z" />
    <glyph glyph-name="ohungarumlaut.smcp" horiz-adv-x="570" 
d="M239 -10q-96 0 -141 36t-45 98q0 17 3 35l37 211q15 86 68.5 123t172.5 37q89 0 136 -40.5t47 -104.5q0 -15 -3 -32l-35 -200q-7 -41 -20.5 -68.5t-39.5 -50t-70.5 -33.5t-109.5 -11zM395 149l37 210q3 13 3 26q0 75 -114 75q-75 0 -106 -22.5t-41 -78.5l-35 -200
q-2 -11 -2 -27q0 -36 25.5 -54t88.5 -18q67 0 101.5 21t42.5 68zM253 562l-35 42q49 39 103 93l39 -46q-51 -50 -107 -89zM411 562l-35 42q49 39 103 93l39 -46q-51 -50 -107 -89z" />
    <glyph glyph-name="omacron.smcp" horiz-adv-x="570" 
d="M239 -10q-96 0 -141 36t-45 98q0 17 3 35l37 211q15 86 68.5 123t172.5 37q89 0 136 -40.5t47 -104.5q0 -15 -3 -32l-35 -200q-7 -41 -20.5 -68.5t-39.5 -50t-70.5 -33.5t-109.5 -11zM395 149l37 210q3 13 3 26q0 75 -114 75q-75 0 -106 -22.5t-41 -78.5l-35 -200
q-2 -11 -2 -27q0 -36 25.5 -54t88.5 -18q67 0 101.5 21t42.5 68zM220 586l11 59h239l-11 -59h-239z" />
    <glyph glyph-name="oslashacute.smcp" horiz-adv-x="570" 
d="M58 -60l-30 24l57 73q-32 33 -32 87q0 17 3 35l37 211q15 86 68.5 123t172.5 37q73 0 118 -28l62 78l30 -23l-62 -79q35 -38 35 -93q0 -15 -3 -32l-35 -200q-7 -41 -20.5 -68.5t-39.5 -50t-70.5 -33.5t-109.5 -11q-77 0 -123 24zM137 132q0 -14 3 -26l266 337
q-29 17 -85 17q-75 0 -106 -22.5t-41 -78.5l-35 -200q-2 -11 -2 -27zM395 149l37 210q3 13 3 26t-5 28l-265 -337q26 -16 86 -16q67 0 101.5 21t42.5 68zM302 571l-28 49q66 35 125 75l29 -54q-50 -34 -126 -70z" />
    <glyph glyph-name="otilde.smcp" horiz-adv-x="570" 
d="M239 -10q-96 0 -141 36t-45 98q0 17 3 35l37 211q15 86 68.5 123t172.5 37q89 0 136 -40.5t47 -104.5q0 -15 -3 -32l-35 -200q-7 -41 -20.5 -68.5t-39.5 -50t-70.5 -33.5t-109.5 -11zM395 149l37 210q3 13 3 26q0 75 -114 75q-75 0 -106 -22.5t-41 -78.5l-35 -200
q-2 -11 -2 -27q0 -36 25.5 -54t88.5 -18q67 0 101.5 21t42.5 68zM390 576q-24 0 -57.5 19t-47.5 19q-11 0 -23 -7t-16.5 -12t-17.5 -18l-31 31q39 63 95 63q21 0 54 -19t49 -19q25 0 47 29l35 -26q-17 -31 -36 -45.5t-51 -14.5z" />
    <glyph glyph-name="racute.smcp" horiz-adv-x="569" 
d="M307 173h-148l-31 -173h-83l92 520h225q80 0 118.5 -33t27.5 -96l-15 -85q-9 -51 -31 -81t-68 -43l93 -182h-89l-90 173h-1zM411 312l13 73q6 36 -9.5 50.5t-63.5 14.5h-144l-36 -207h142q51 0 71.5 16t26.5 53zM309 571l-28 49q66 35 125 75l29 -54q-50 -34 -126 -70z
" />
    <glyph glyph-name="rcaron.smcp" horiz-adv-x="569" 
d="M307 173h-148l-31 -173h-83l92 520h225q80 0 118.5 -33t27.5 -96l-15 -85q-9 -51 -31 -81t-68 -43l93 -182h-89l-90 173h-1zM411 312l13 73q6 36 -9.5 50.5t-63.5 14.5h-144l-36 -207h142q51 0 71.5 16t26.5 53zM224 646l28 42q38 -19 86 -52q41 29 91 53l25 -44
q-69 -39 -125 -78q-48 42 -105 79z" />
    <glyph glyph-name="rcommaaccent.smcp" horiz-adv-x="569" 
d="M307 173h-148l-31 -173h-83l92 520h225q80 0 118.5 -33t27.5 -96l-15 -85q-9 -51 -31 -81t-68 -43l93 -182h-89l-90 173h-1zM411 312l13 73q6 36 -9.5 50.5t-63.5 14.5h-144l-36 -207h142q51 0 71.5 16t26.5 53zM187 -158l19 107h82l-19 -107l-67 -101l-33 22l48 79h-30z
" />
    <glyph glyph-name="sacute.smcp" horiz-adv-x="489" 
d="M199 -10q-96 0 -173 33l18 66q87 -29 166 -29q63 0 84 13.5t29 56.5q9 49 -7 66.5t-93 33.5q-65 14 -95.5 36t-34.5 54t4 77q14 79 55.5 106t149.5 27q81 0 157 -23l-14 -67q-79 19 -147 19q-71 0 -91.5 -13t-28.5 -60q-8 -44 6 -59t86 -32q98 -23 123.5 -55.5
t12.5 -108.5q-9 -54 -25.5 -81.5t-59.5 -43.5t-122 -16zM283 571l-28 49q66 35 125 75l29 -54q-50 -34 -126 -70z" />
    <glyph glyph-name="scaron.smcp" horiz-adv-x="489" 
d="M199 -10q-96 0 -173 33l18 66q87 -29 166 -29q63 0 84 13.5t29 56.5q9 49 -7 66.5t-93 33.5q-65 14 -95.5 36t-34.5 54t4 77q14 79 55.5 106t149.5 27q81 0 157 -23l-14 -67q-79 19 -147 19q-71 0 -91.5 -13t-28.5 -60q-8 -44 6 -59t86 -32q98 -23 123.5 -55.5
t12.5 -108.5q-9 -54 -25.5 -81.5t-59.5 -43.5t-122 -16zM201 646l28 42q38 -19 86 -52q41 29 91 53l25 -44q-69 -39 -125 -78q-48 42 -105 79z" />
    <glyph glyph-name="scedilla.smcp" horiz-adv-x="489" 
d="M164 -204q-36 0 -74 14l12 40q30 -10 62 -10q62 0 62 40q0 23 -37 23q-23 0 -47 -3l-9 15l27 77q-80 7 -134 31l18 66q87 -29 166 -29q63 0 84 13.5t29 56.5q9 49 -7 66.5t-93 33.5q-65 14 -95.5 36t-34.5 54t4 77q14 79 55.5 106t149.5 27q81 0 157 -23l-14 -67
q-79 19 -147 19q-71 0 -91.5 -13t-28.5 -60q-8 -44 6 -59t86 -32q98 -23 123.5 -55.5t12.5 -108.5q-9 -53 -25 -80.5t-58 -44t-118 -16.5l-18 -54q17 3 31 3q28 0 44 -14.5t16 -39.5q0 -41 -29.5 -65t-84.5 -24z" />
    <glyph glyph-name="scircumflex.smcp" horiz-adv-x="489" 
d="M199 -10q-96 0 -173 33l18 66q87 -29 166 -29q63 0 84 13.5t29 56.5q9 49 -7 66.5t-93 33.5q-65 14 -95.5 36t-34.5 54t4 77q14 79 55.5 106t149.5 27q81 0 157 -23l-14 -67q-79 19 -147 19q-71 0 -91.5 -13t-28.5 -60q-8 -44 6 -59t86 -32q98 -23 123.5 -55.5
t12.5 -108.5q-9 -54 -25.5 -81.5t-59.5 -43.5t-122 -16zM430 613l-28 -42q-35 17 -86 52q-46 -31 -91 -53l-26 44q62 34 126 78q51 -44 105 -79z" />
    <glyph glyph-name="scommaaccent.smcp" horiz-adv-x="489" 
d="M199 -10q-96 0 -173 33l18 66q87 -29 166 -29q63 0 84 13.5t29 56.5q9 49 -7 66.5t-93 33.5q-65 14 -95.5 36t-34.5 54t4 77q14 79 55.5 106t149.5 27q81 0 157 -23l-14 -67q-79 19 -147 19q-71 0 -91.5 -13t-28.5 -60q-8 -44 6 -59t86 -32q98 -23 123.5 -55.5
t12.5 -108.5q-9 -54 -25.5 -81.5t-59.5 -43.5t-122 -16zM135 -158l19 107h82l-19 -107l-67 -101l-33 22l48 79h-30z" />
    <glyph glyph-name="tbar.smcp" horiz-adv-x="475" 
d="M59 204l9 52h134l34 191h-171l13 73h425l-13 -73h-171l-34 -191h137l-9 -52h-137l-35 -204h-83l35 204h-134z" />
    <glyph glyph-name="tcaron.smcp" horiz-adv-x="475" 
d="M313 447l-78 -447h-83l78 447h-171l13 73h425l-13 -73h-171zM183 646l28 42q38 -19 86 -52q41 29 91 53l25 -44q-69 -39 -125 -78q-48 42 -105 79z" />
    <glyph glyph-name="tcommaaccent.smcp" horiz-adv-x="475" 
d="M313 447l-78 -447h-83l78 447h-171l13 73h425l-13 -73h-171zM124 -158l19 107h82l-19 -107l-67 -101l-33 22l48 79h-30z" />
    <glyph glyph-name="thorn.smcp" horiz-adv-x="512" 
d="M45 0l92 520h83l-15 -82h131q72 0 110.5 -26t38.5 -77q0 -8 -3 -26l-16 -90q-12 -69 -51.5 -100t-134.5 -31h-136l-15 -88h-84zM384 224l14 80q2 12 2 19q0 24 -17 34.5t-58 10.5h-132l-37 -210h130q50 0 71 15t27 51z" />
    <glyph glyph-name="uacute.smcp" horiz-adv-x="587" 
d="M248 -10q-101 0 -147.5 45t-34.5 113l66 372h83l-65 -367q-8 -46 16 -68t95 -22q65 0 98.5 23t42.5 73l64 361h83l-66 -372q-14 -79 -65.5 -118.5t-169.5 -39.5zM319 571l-28 49q66 35 125 75l29 -54q-50 -34 -126 -70z" />
    <glyph glyph-name="ubreve.smcp" horiz-adv-x="587" 
d="M248 -10q-101 0 -147.5 45t-34.5 113l66 372h83l-65 -367q-8 -46 16 -68t95 -22q65 0 98.5 23t42.5 73l64 361h83l-66 -372q-14 -79 -65.5 -118.5t-169.5 -39.5zM357 574q-46 0 -76.5 22.5t-40.5 57.5l46 26q21 -51 75 -51q50 0 87 52l40 -29q-39 -78 -131 -78z" />
    <glyph glyph-name="ucircumflex.smcp" horiz-adv-x="587" 
d="M248 -10q-101 0 -147.5 45t-34.5 113l66 372h83l-65 -367q-8 -46 16 -68t95 -22q65 0 98.5 23t42.5 73l64 361h83l-66 -372q-14 -79 -65.5 -118.5t-169.5 -39.5zM470 613l-28 -42q-35 17 -86 52q-46 -31 -91 -53l-26 44q62 34 126 78q51 -44 105 -79z" />
    <glyph glyph-name="udieresis.smcp" horiz-adv-x="587" 
d="M248 -10q-101 0 -147.5 45t-34.5 113l66 372h83l-65 -367q-8 -46 16 -68t95 -22q65 0 98.5 23t42.5 73l64 361h83l-66 -372q-14 -79 -65.5 -118.5t-169.5 -39.5zM397 581l15 78h79l-14 -78h-80zM218 581l14 78h79l-14 -78h-79z" />
    <glyph glyph-name="ugrave.smcp" horiz-adv-x="587" 
d="M248 -10q-101 0 -147.5 45t-34.5 113l66 372h83l-65 -367q-8 -46 16 -68t95 -22q65 0 98.5 23t42.5 73l64 361h83l-66 -372q-14 -79 -65.5 -118.5t-169.5 -39.5zM396 618l-32 -47q-74 41 -119 79l37 48q54 -45 114 -80z" />
    <glyph glyph-name="uhungarumlaut.smcp" horiz-adv-x="587" 
d="M248 -10q-101 0 -147.5 45t-34.5 113l66 372h83l-65 -367q-8 -46 16 -68t95 -22q65 0 98.5 23t42.5 73l64 361h83l-66 -372q-14 -79 -65.5 -118.5t-169.5 -39.5zM256 562l-35 42q49 39 103 93l39 -46q-51 -50 -107 -89zM414 562l-35 42q49 39 103 93l39 -46
q-51 -50 -107 -89z" />
    <glyph glyph-name="umacron.smcp" horiz-adv-x="587" 
d="M248 -10q-101 0 -147.5 45t-34.5 113l66 372h83l-65 -367q-8 -46 16 -68t95 -22q65 0 98.5 23t42.5 73l64 361h83l-66 -372q-14 -79 -65.5 -118.5t-169.5 -39.5zM234 586l11 59h239l-11 -59h-239z" />
    <glyph glyph-name="uogonek.smcp" horiz-adv-x="587" 
d="M313 -194q-25 -13 -63 -13q-42 0 -66.5 19t-24.5 54q0 38 30.5 67.5t80.5 57.5q-7 -1 -22 -1q-101 0 -147.5 45t-34.5 113l66 372h83l-65 -367q-8 -46 16 -68t95 -22q65 0 98.5 23t42.5 73l64 361h83l-66 -372q-10 -54 -35.5 -89t-76.5 -52q-66 -30 -104 -64t-38 -64
q0 -32 41 -32q21 0 39 6z" />
    <glyph glyph-name="uring.smcp" horiz-adv-x="587" 
d="M248 -10q-101 0 -147.5 45t-34.5 113l66 372h83l-65 -367q-8 -46 16 -68t95 -22q65 0 98.5 23t42.5 73l64 361h83l-66 -372q-14 -79 -65.5 -118.5t-169.5 -39.5zM346 555q-27 0 -43.5 15.5t-16.5 40.5q0 39 22 60.5t62 21.5q29 0 45 -15t16 -38q0 -37 -21 -61t-64 -24z
M365 659q-18 0 -28.5 -11.5t-10.5 -31.5q0 -26 25 -26q39 0 39 44q0 25 -25 25z" />
    <glyph glyph-name="utilde.smcp" horiz-adv-x="587" 
d="M414 576q-24 0 -57.5 19t-47.5 19q-11 0 -23 -7t-16.5 -12t-17.5 -18l-31 31q39 63 95 63q21 0 54 -19t49 -19q25 0 47 29l35 -26q-17 -31 -36 -45.5t-51 -14.5zM248 -10q-101 0 -147.5 45t-34.5 113l66 372h83l-65 -367q-8 -46 16 -68t95 -22q65 0 98.5 23t42.5 73
l64 361h83l-66 -372q-14 -79 -65.5 -118.5t-169.5 -39.5z" />
    <glyph glyph-name="wacute.smcp" horiz-adv-x="789" 
d="M575 0h-110l-37 440l-191 -440h-102l-61 520h75l49 -437l191 437h103l40 -437l201 437h85zM432 571l-28 49q66 35 125 75l29 -54q-50 -34 -126 -70z" />
    <glyph glyph-name="wcircumflex.smcp" horiz-adv-x="789" 
d="M575 0h-110l-37 440l-191 -440h-102l-61 520h75l49 -437l191 437h103l40 -437l201 437h85zM569 613l-28 -42q-35 17 -86 52q-46 -31 -91 -53l-26 44q62 34 126 78q51 -44 105 -79z" />
    <glyph glyph-name="wdieresis.smcp" horiz-adv-x="789" 
d="M575 0h-110l-37 440l-191 -440h-102l-61 520h75l49 -437l191 437h103l40 -437l201 437h85zM505 581l15 78h79l-14 -78h-80zM326 581l14 78h79l-14 -78h-79z" />
    <glyph glyph-name="wgrave.smcp" horiz-adv-x="789" 
d="M575 0h-110l-37 440l-191 -440h-102l-61 520h75l49 -437l191 437h103l40 -437l201 437h85zM484 618l-32 -47q-74 41 -119 79l37 48q54 -45 114 -80z" />
    <glyph glyph-name="yacute.smcp" horiz-adv-x="491" 
d="M276 146l-26 -146h-83l28 156l-130 364h82l101 -292l191 292h94zM284 571l-28 49q66 35 125 75l29 -54q-50 -34 -126 -70z" />
    <glyph glyph-name="ycircumflex.smcp" horiz-adv-x="491" 
d="M276 146l-26 -146h-83l28 156l-130 364h82l101 -292l191 292h94zM416 613l-28 -42q-35 17 -86 52q-46 -31 -91 -53l-26 44q62 34 126 78q51 -44 105 -79z" />
    <glyph glyph-name="ydieresis.smcp" horiz-adv-x="491" 
d="M276 146l-26 -146h-83l28 156l-130 364h82l101 -292l191 292h94zM355 581l15 78h79l-14 -78h-80zM176 581l14 78h79l-14 -78h-79z" />
    <glyph glyph-name="ygrave.smcp" horiz-adv-x="491" 
d="M276 146l-26 -146h-83l28 156l-130 364h82l101 -292l191 292h94zM342 618l-32 -47q-74 41 -119 79l37 48q54 -45 114 -80z" />
    <glyph glyph-name="zacute.smcp" horiz-adv-x="520" 
d="M45 0l-2 62l349 392h-285l11 66h371l1 -63l-348 -391h283l-11 -66h-369zM282 571l-28 49q66 35 125 75l29 -54q-50 -34 -126 -70z" />
    <glyph glyph-name="zcaron.smcp" horiz-adv-x="520" 
d="M45 0l-2 62l349 392h-285l11 66h371l1 -63l-348 -391h283l-11 -66h-369zM203 646l28 42q38 -19 86 -52q41 29 91 53l25 -44q-69 -39 -125 -78q-48 42 -105 79z" />
    <glyph glyph-name="zdotaccent.smcp" horiz-adv-x="520" 
d="M45 0l-2 62l349 392h-285l11 66h371l1 -63l-348 -391h283l-11 -66h-369zM269 574l22 124l84 12l-22 -125z" />
    </font>
</defs>
</svg>
