<?xml version="1.0" encoding="utf-8"?>
<!-- Generator: Adobe Illustrator 21.1.0, SVG Export Plug-In . SVG Version: 6.00 Build 0)  -->
<svg version="1.1" id="Layer_1" xmlns="http://www.w3.org/2000/svg" xmlns:xlink="http://www.w3.org/1999/xlink" x="0px" y="0px"
	 viewBox="0 0 200 200" style="enable-background:new 0 0 200 200;" xml:space="preserve">
<style type="text/css">
	.st0{fill:#B3B3B3;}
	.st1{fill:#A6120D;}
	.st2{fill:#DD1B16;}
	.st3{fill:#F2F2F2;}
</style>
<g>
	<path class="st0" d="M99.7,1.6L7.1,34.2l14.6,121.4l78.1,42.9l78.5-43.5l14.6-121.4L99.7,1.6z"/>
	<path class="st1" d="M183.7,40.6L99.5,11.9v176.3l70.6-39.1L183.7,40.6L183.7,40.6z"/>
	<path class="st2" d="M17.5,41.1L30,149.7l69.5,38.5V11.9L17.5,41.1L17.5,41.1z"/>
	<path class="st3" d="M122.7,105.7l-23.2,10.8H75.1l-11.5,28.7l-21.4,0.4L99.5,18.3L122.7,105.7L122.7,105.7z M120.4,100.3
		L99.6,59.1l-17,40.4h16.9L120.4,100.3L120.4,100.3z"/>
	<path class="st0" d="M99.5,18.3l0.2,40.9L119,99.6H99.5l0,16.9l26.9,0l12.6,29.1l20.4,0.4L99.5,18.3L99.5,18.3z"/>
</g>
</svg>
