<?xml version="1.0" encoding="utf-8"?>
<!-- Generator: Adobe Illustrator 21.1.0, SVG Export Plug-In . SVG Version: 6.00 Build 0)  -->
<svg version="1.1" id="Layer_1" xmlns="http://www.w3.org/2000/svg" xmlns:xlink="http://www.w3.org/1999/xlink" x="0px" y="0px"
	 viewBox="0 0 200 200" style="enable-background:new 0 0 200 200;" xml:space="preserve">
<style type="text/css">
	.st0{fill:#563D7C;}
	.st1{fill:#FFFFFF;}
</style>
<g>
	<path class="st0" d="M4.8,170.7c0,13.6,11,24.6,24.6,24.6h141.4c13.6,0,24.6-11,24.6-24.6V29.3c0-13.6-11-24.6-24.6-24.6H29.3
		c-13.6,0-24.6,11-24.6,24.6V170.7L4.8,170.7z"/>
	<path class="st1" d="M83.7,89V62h23.7c2.3,0,4.4,0.2,6.5,0.6c2.1,0.4,4,1,5.6,2c1.6,1,2.9,2.3,3.9,4c1,1.7,1.5,3.9,1.5,6.6
		c0,4.8-1.5,8.3-4.4,10.5c-2.9,2.2-6.6,3.2-11.1,3.2H83.7L83.7,89z M58.4,42.3v115.3h55.9c5.2,0,10.2-0.6,15.1-1.9
		c4.9-1.3,9.3-3.3,13.1-6c3.8-2.7,6.9-6.2,9.1-10.4c2.3-4.3,3.4-9.3,3.4-15.1c0-7.2-1.7-13.4-5.2-18.5c-3.5-5.1-8.8-8.7-15.9-10.7
		c5.2-2.5,9.1-5.7,11.7-9.5c2.6-3.9,4-8.7,4-14.5c0-5.4-0.9-9.9-2.7-13.6c-1.8-3.7-4.3-6.6-7.5-8.8c-3.2-2.2-7.1-3.8-11.6-4.8
		c-4.5-1-9.5-1.5-15-1.5L58.4,42.3L58.4,42.3z M83.7,138v-31.7h27.6c5.5,0,9.9,1.3,13.2,3.8c3.3,2.5,5,6.8,5,12.7
		c0,3-0.5,5.5-1.5,7.4c-1,1.9-2.4,3.5-4.1,4.6c-1.7,1.1-3.7,1.9-6,2.4c-2.3,0.5-4.6,0.7-7.1,0.7H83.7L83.7,138z"/>
</g>
</svg>
