<?xml version="1.0" encoding="utf-8"?>
<!-- Generator: Adobe Illustrator 23.0.1, SVG Export Plug-In . SVG Version: 6.00 Build 0)  -->
<svg version="1.1" id="svg2816" xmlns="http://www.w3.org/2000/svg" xmlns:xlink="http://www.w3.org/1999/xlink" x="0px" y="0px"
	 viewBox="-416.6 241.3 225.1 192" style="enable-background:new -416.6 241.3 225.1 192;" xml:space="preserve">
<style type="text/css">
	.st0{fill:url(#path12339_1_);}
	.st1{fill:url(#path12367_1_);}
	.st2{fill:#14559A;}
	.st3{fill:url(#path12459_1_);}
	.st4{fill:#3092C4;}
	.st5{fill:#1969BC;}
	.st6{fill:url(#path12553_1_);}
	.st7{fill:url(#path12581_1_);}
	.st8{fill:url(#path12651_1_);}
	.st9{fill:#2B74B1;}
	.st10{fill:#125A9E;}
	.st11{fill:url(#path12741_1_);}
	.st12{fill:url(#path12803_1_);}
	.st13{fill:#0D82CA;}
	.st14{fill:url(#path12831_1_);}
	.st15{fill:#127BCA;}
	.st16{fill:url(#path12923_1_);}
	.st17{fill:url(#path12949_1_);}
	.st18{fill:#05A1E6;}
	.st19{fill:url(#path12981_1_);}
	.st20{fill:url(#path13003_1_);}
	.st21{fill:url(#path13093_1_);}
	.st22{fill:#079AE1;}
	.st23{fill:#1E5CB3;}
	.st24{fill:#1D60B5;}
	.st25{fill:#175FAB;}
	.st26{fill:url(#path13139_1_);}
	.st27{fill:#7DCBEC;}
	.st28{fill:#5EC5ED;}
	.st29{fill:url(#path13245_1_);}
	.st30{fill:url(#path13255_1_);}
	.st31{fill:url(#path13333_1_);}
</style>
<g>
	<path id="path12245" d="M-235.9,314.5h-1.7v5.6h-0.7v-5.6h-1.7v-0.7h4.3v0.7H-235.9z"/>
	<path id="path12257" d="M-228.6,320.1h-0.7v-4.2c0-0.3,0-0.7,0-1.2l0,0c0,0.3-0.2,0.5-0.2,0.5l-2.1,4.9h-0.3l-2.1-4.7
		c0-0.2-0.2-0.3-0.2-0.7l0,0c0,0.2,0,0.7,0,1.2v4.2h-0.7v-6.3h1l1.9,4.3c0.2,0.3,0.2,0.5,0.3,0.7l0,0c0.2-0.3,0.2-0.5,0.4-0.7
		l1.9-4.3h0.9L-228.6,320.1L-228.6,320.1z"/>
	
		<linearGradient id="path12339_1_" gradientUnits="userSpaceOnUse" x1="-755.7147" y1="-899.8513" x2="-755.0743" y2="-899.8513" gradientTransform="matrix(0 149.7346 -149.7346 0 -135053.7656 113399.8125)">
		<stop  offset="0" style="stop-color:#0994DC"/>
		<stop  offset="0.35" style="stop-color:#66CEF5"/>
		<stop  offset="0.35" style="stop-color:#66CEF5"/>
		<stop  offset="0.8462" style="stop-color:#127BCA"/>
		<stop  offset="0.8462" style="stop-color:#127BCA"/>
		<stop  offset="1" style="stop-color:#127BCA"/>
	</linearGradient>
	<path id="path12339" class="st0" d="M-332.9,258.4c7.3,22.1,9.9,61.7,31.1,61.7l0,0c1.6,0,3.3-0.2,4.9-0.5l0,0
		c-19.3-4.5-21.6-43.6-33.2-63.8l0,0C-331.1,256.5-332,257.3-332.9,258.4"/>
	
		<linearGradient id="path12367_1_" gradientUnits="userSpaceOnUse" x1="-755.8477" y1="-899.8519" x2="-755.2081" y2="-899.8519" gradientTransform="matrix(0 153.5506 -153.5506 0 -138484.2188 116301.7813)">
		<stop  offset="0" style="stop-color:#0E76BC"/>
		<stop  offset="0.36" style="stop-color:#36AEE8"/>
		<stop  offset="0.36" style="stop-color:#36AEE8"/>
		<stop  offset="0.8462" style="stop-color:#00ADEF"/>
		<stop  offset="0.8462" style="stop-color:#00ADEF"/>
		<stop  offset="1" style="stop-color:#00ADEF"/>
	</linearGradient>
	<path id="path12367" class="st1" d="M-330.3,255.8c11.8,20.2,14.1,59.3,33.2,63.8l0,0c1.6-0.4,3-0.7,4.5-1.2l0,0
		c-17.2-8.5-22.1-46.4-35.5-64.7l0,0C-328.5,254.2-329.4,254.9-330.3,255.8"/>
	<path id="path12379" class="st2" d="M-313.2,243.6c-1.6,0-3.3,0.2-4.9,0.5c-4.3,0.9-8.7,2.6-13,5.4c1.2,1.2,2.3,2.6,3.5,4
		c4.5-3.7,8.9-6.4,13.4-8.2c1.7-0.7,3.3-1,5-1.4C-310.6,243.8-312,243.6-313.2,243.6"/>
	
		<linearGradient id="path12459_1_" gradientUnits="userSpaceOnUse" x1="-768.1311" y1="-901.4017" x2="-767.4911" y2="-901.4017" gradientTransform="matrix(0 -122.178 122.178 0 109840.1172 -93531.2578)">
		<stop  offset="0" style="stop-color:#1C63B7"/>
		<stop  offset="0.5" style="stop-color:#33BDF2"/>
		<stop  offset="1" style="stop-color:#33BDF2;stop-opacity:0.4196"/>
	</linearGradient>
	<path id="path12459" class="st3" d="M-278.8,310.5c1.7-1.4,3.5-3,5.4-4.7c-7.3-22.1-9.9-62.1-31.3-62.1c-1.6,0-3.1,0.2-4.5,0.3
		C-290.1,249-287.5,291.2-278.8,310.5"/>
	<path id="path12521" class="st4" d="M-309.4,244.1c-1.2-0.3-2.4-0.5-3.8-0.5h8.3C-306.5,243.8-308,243.8-309.4,244.1"/>
	<path id="path12525" class="st5" d="M-279.3,315.2c-0.9-0.9-1.6-1.7-2.4-2.6c-3.7,2.6-7.1,4.5-10.8,5.7c1.2,0.7,2.6,1,4,1.4
		c1,0.2,2.3,0.4,3.5,0.4c4,0,7.1-0.5,9.7-1.7C-276.6,317.5-277.9,316.4-279.3,315.2"/>
	
		<linearGradient id="path12553_1_" gradientUnits="userSpaceOnUse" x1="-756.0183" y1="-899.8292" x2="-755.3774" y2="-899.8292" gradientTransform="matrix(0 159.4252 -159.4252 0 -143752.0781 120758.9453)">
		<stop  offset="0" style="stop-color:#166AB8"/>
		<stop  offset="0.4" style="stop-color:#36AEE8"/>
		<stop  offset="0.4" style="stop-color:#36AEE8"/>
		<stop  offset="0.8462" style="stop-color:#0798DD"/>
		<stop  offset="0.8462" style="stop-color:#0798DD"/>
		<stop  offset="1" style="stop-color:#0798DD"/>
	</linearGradient>
	<path id="path12553" class="st6" d="M-314.5,245.5c17.4,9,18.9,50.2,32.9,67.1l0,0c0.9-0.7,1.9-1.4,2.8-2.1l0,0
		c-8.7-19.3-11.1-61.5-30.6-66.4l0,0C-311.2,244.5-312.7,244.8-314.5,245.5"/>
	
		<linearGradient id="path12581_1_" gradientUnits="userSpaceOnUse" x1="-756.3448" y1="-899.8933" x2="-755.7043" y2="-899.8933" gradientTransform="matrix(0 169.5276 -169.5276 0 -152861.4688 128452.5703)">
		<stop  offset="0" style="stop-color:#124379"/>
		<stop  offset="0.39" style="stop-color:#1487CB"/>
		<stop  offset="0.39" style="stop-color:#1487CB"/>
		<stop  offset="0.7802" style="stop-color:#165197"/>
		<stop  offset="0.7802" style="stop-color:#165197"/>
		<stop  offset="1" style="stop-color:#165197"/>
	</linearGradient>
	<path id="path12581" class="st7" d="M-327.8,253.7c13.4,18.3,18.1,56.1,35.5,64.7l0,0c3.5-1.2,7.1-3.1,10.8-5.7l0,0
		c-13.9-16.7-15.5-57.9-32.9-67.1l0,0C-318.8,247.1-323.3,249.9-327.8,253.7"/>
	
		<linearGradient id="path12651_1_" gradientUnits="userSpaceOnUse" x1="177.9624" y1="1378.1176" x2="181.7622" y2="1378.1176" gradientTransform="matrix(4.0385 0 0 4.0385 -1066.9996 -5300.8091)">
		<stop  offset="0" style="stop-color:#33BDF2;stop-opacity:0.698"/>
		<stop  offset="1" style="stop-color:#1DACD8"/>
	</linearGradient>
	<path id="path12651" class="st8" d="M-341.6,257.8c-2.1,4.7-4.2,11-6.8,19.1c5.2-7.3,10.3-13.4,15.3-18.6c-0.7-2.1-1.4-4.2-2.3-5.9
		C-337.2,254-339.3,255.8-341.6,257.8"/>
	<path id="path12655" class="st9" d="M-333.4,251.1c-0.7,0.5-1.2,0.9-1.9,1.4c0.9,1.7,1.6,3.8,2.3,5.9c0.9-0.9,1.9-1.7,2.8-2.6
		C-331.1,254-332.2,252.5-333.4,251.1"/>
	<path id="path12659" class="st10" d="M-331.1,249.5c-0.7,0.5-1.4,0.9-2.3,1.4c1.2,1.4,2.3,3,3.1,4.7c0.9-0.7,1.6-1.4,2.4-2.1
		C-328.9,252.1-329.9,250.7-331.1,249.5"/>
	
		<linearGradient id="path12741_1_" gradientUnits="userSpaceOnUse" x1="-768.3184" y1="-901.7023" x2="-767.6775" y2="-901.7023" gradientTransform="matrix(0 -119.0183 119.0183 0 107085.9766 -91128.1953)">
		<stop  offset="0" style="stop-color:#136AB4"/>
		<stop  offset="0.6" style="stop-color:#59CAF5;stop-opacity:0.549"/>
		<stop  offset="1" style="stop-color:#59CAF5;stop-opacity:0.2353"/>
	</linearGradient>
	<path id="path12741" class="st11" d="M-212.6,242c-9.9,37.9-30.4,68.5-47.6,76.1l0,0c-0.3,0.2-0.7,0.3-0.9,0.3c0,0,0,0-0.2,0
		c-0.2,0-0.2,0-0.3,0.2c0,0,0,0-0.2,0c-0.2,0-0.3,0.2-0.3,0.2h-0.2h-0.2h-0.2h-0.2c-0.2,0-0.2,0-0.3,0.2h-0.2h-0.2h-0.2
		c-0.2,0-0.2,0-0.3,0c-0.2,0-0.2,0-0.3,0c0.7,0.4,1.6,0.4,2.4,0.4c16.3,0,32.9-29.2,60.1-78.1L-212.6,242L-212.6,242z"/>
	
		<linearGradient id="path12803_1_" gradientUnits="userSpaceOnUse" x1="164.4794" y1="1382.7228" x2="178.5717" y2="1382.7228" gradientTransform="matrix(4.0385 0 0 4.0385 -1066.9996 -5300.8091)">
		<stop  offset="0" style="stop-color:#05A1E6;stop-opacity:0.2471"/>
		<stop  offset="1" style="stop-color:#05A1E6"/>
	</linearGradient>
	<path id="path12803" class="st12" d="M-351.8,245.2L-351.8,245.2L-351.8,245.2L-351.8,245.2c0.2,0,0.3-0.2,0.3-0.2l0,0l0,0
		c0.2,0,0.2,0,0.3-0.2l0,0c0.2,0,0.3-0.2,0.7-0.2c0,0,0,0,0.2,0c0.2,0,0.2,0,0.3,0c0,0,0,0,0.2,0c0.2,0,0.2,0,0.3,0c0,0,0,0,0.2,0
		c0.3,0,0.5-0.2,0.9-0.2c0,0,0,0,0.2,0c0.2,0,0.2,0,0.3,0c0,0,0,0,0.2,0c0,0,0.2,0,0.3,0l0,0c0.2,0,0.3,0,0.5-0.2c0,0,0,0,0.2,0
		c0.2,0,0.2,0,0.2,0h0.2h0.2c0,0,0,0,0.2,0c0.2,0,0.4,0,0.5,0c-0.5,0-1.2-0.2-1.7-0.2c-18.4,0-43.8,34.1-55.1,78.4c0,0,0.9,0,2.3,0
		c3.7-6.4,7-12.7,9.9-18.4C-382.6,272.3-366.3,250.9-351.8,245.2"/>
	<path id="path12807" class="st13" d="M-341.6,257.8c2.1-1.9,4.2-3.8,6.3-5.4c-0.5-1-1-2.1-1.6-3
		C-338.4,251.6-340,254.2-341.6,257.8"/>
	<path id="path12811" class="st13" d="M-340,245.5c1.2,1,2.3,2.4,3.3,4c0.4-0.4,0.7-0.7,0.9-1c-1.4-1.2-2.8-2.3-4.5-3.1
		C-340.2,245.3-340,245.3-340,245.5L-340,245.5"/>
	
		<linearGradient id="path12831_1_" gradientUnits="userSpaceOnUse" x1="-768.1549" y1="-901.0323" x2="-767.5165" y2="-901.0323" gradientTransform="matrix(0 -121.8652 121.8652 0 109433.2656 -93293.625)">
		<stop  offset="0" style="stop-color:#318ED5"/>
		<stop  offset="1" style="stop-color:#38A7E4"/>
	</linearGradient>
	<path id="path12831" class="st14" d="M-390.6,303.6c16.9-32.3,24.7-52.8,38.8-58.4l0,0C-366.3,250.9-382.6,272.3-390.6,303.6"/>
	<path id="path12843" class="st15" d="M-335.8,248.5c-0.3,0.3-0.7,0.7-0.9,1c0.5,0.9,1,1.9,1.6,3c0.7-0.5,1.2-0.9,1.9-1.4
		C-334.1,250-335,249.2-335.8,248.5"/>
	
		<linearGradient id="path12923_1_" gradientUnits="userSpaceOnUse" x1="-768.3458" y1="-901.0704" x2="-767.706" y2="-901.0704" gradientTransform="matrix(0 -118.4596 118.4596 0 106374.2656 -90699.8203)">
		<stop  offset="0" style="stop-color:#05A1E6"/>
		<stop  offset="1" style="stop-color:#05A1E6;stop-opacity:0.549"/>
	</linearGradient>
	<path id="path12923" class="st16" d="M-382.9,321.8L-382.9,321.8c-0.2,0-0.2,0-0.3,0l0,0c-0.2,0-0.2,0-0.2,0l0,0
		c-0.2,0-0.3,0-0.7,0l0,0c17-0.5,24.7-9,28.5-21.4c3-9.4,5.4-17.2,7.5-23.8c-7.1,10.1-14.3,21.9-21.4,35.3
		C-373.2,318.5-378.4,321.3-382.9,321.8"/>
	
		<linearGradient id="path12949_1_" gradientUnits="userSpaceOnUse" x1="-769.588" y1="-901.2015" x2="-768.9471" y2="-901.2015" gradientTransform="matrix(0 -100.1002 100.1002 0 89848.1953 -76714)">
		<stop  offset="0" style="stop-color:#1959A6"/>
		<stop  offset="0.5" style="stop-color:#05A1E6"/>
		<stop  offset="0.5" style="stop-color:#05A1E6"/>
		<stop  offset="0.9176" style="stop-color:#7EC5EA"/>
		<stop  offset="1" style="stop-color:#7EC5EA"/>
	</linearGradient>
	<path id="path12949" class="st17" d="M-382.9,321.8L-382.9,321.8c4.5-0.5,9.7-3.3,13.2-9.7l0,0c7.1-13.4,14.3-25.4,21.4-35.3l0,0
		c2.6-8.2,4.7-14.3,6.8-19.1l0,0C-355.7,271.2-369.9,293.7-382.9,321.8"/>
	<path id="path12961" class="st18" d="M-390.6,303.6c-3,5.7-6.3,12-9.9,18.4c1.6,0,3.8,0,6.4,0
		C-393.4,315.6-392.2,309.3-390.6,303.6"/>
	
		<linearGradient id="path12981_1_" gradientUnits="userSpaceOnUse" x1="-768.6333" y1="-902.4333" x2="-767.9922" y2="-902.4333" gradientTransform="matrix(-19.138 -108.5369 108.5369 -19.138 82876.7109 -100377.9375)">
		<stop  offset="0" style="stop-color:#165096"/>
		<stop  offset="1" style="stop-color:#0D82CA"/>
	</linearGradient>
	<path id="path12981" class="st19" d="M-346.4,243.8L-346.4,243.8L-346.4,243.8c-0.2,0-0.3,0-0.3,0l0,0h-0.2l0,0c-0.2,0-0.2,0-0.2,0
		l0,0c0,0,0,0-0.2,0l0,0c-0.2,0-0.3,0-0.5,0.2l0,0l0,0l0,0c-0.2,0-0.2,0-0.3,0l0,0h-0.2l0,0c-0.2,0-0.2,0-0.2,0l0,0c0,0,0,0-0.2,0
		l0,0c-0.4,0-0.5,0.2-0.9,0.2l0,0c0,0,0,0-0.2,0l0,0c-0.2,0-0.2,0-0.3,0l0,0c0,0,0,0-0.2,0l0,0c-0.2,0-0.2,0-0.3,0l0,0
		c0,0,0,0-0.2,0l0,0c-0.2,0-0.3,0.2-0.7,0.2l0,0l0,0l0,0c-0.2,0-0.2,0-0.3,0.2l0,0c0,0,0,0-0.2,0l0,0c-0.2,0-0.2,0-0.3,0.2l0,0
		c0,0,0,0-0.2,0l0,0c-14.1,5.6-21.9,26.1-38.8,58.4l0,0c-1.6,5.7-2.8,12-3.5,18.4l0,0h0.9c2.6,0,3.3,0,6.1,0l0,0h0.2h0.3h0.2l0,0
		h0.2l0,0l0,0h0.2h0.3h0.3h0.3l0,0c0.2,0,0.3,0,0.5,0l0,0c0.2,0,0.3,0,0.7,0l0,0l0,0l0,0c0.2,0,0.2,0,0.2,0l0,0l0,0l0,0
		c0.2,0,0.2,0,0.3,0l0,0l0,0c13-28.2,27.3-50.6,41.5-64.1l0,0c1.6-3.5,3.1-6.3,4.7-8.3l0,0c-1-1.7-2.1-3.1-3.3-4l0,0l0,0l0,0
		c0,0-0.2,0-0.2-0.2l0,0c0,0-0.2,0-0.2-0.2l0,0c0,0-0.2,0-0.2-0.2l0,0c0,0-0.2,0-0.2-0.2l0,0h-0.2l0,0c-0.2,0-0.2-0.2-0.3-0.2l0,0
		h-0.2l0,0c-0.2,0-0.2,0-0.3-0.2l0,0h-0.2l0,0c-0.2,0-0.3-0.2-0.3-0.2l0,0l0,0l0,0c-0.2,0-0.3,0-0.5-0.2l0,0c0,0,0,0-0.2,0l0,0
		c-0.2,0-0.2,0-0.3-0.2l0,0l0,0l0,0c-0.3,0-0.7-0.2-0.9-0.2l0,0c0,0,0,0-0.2,0l0,0c-0.2,0-0.3,0-0.3,0l0,0l0,0l0,0
		c-0.2,0-0.3,0-0.5,0l0,0l0,0l0,0c-0.2,0-0.2,0-0.3,0l0,0C-346.1,243.8-346.3,243.8-346.4,243.8"/>
	
		<linearGradient id="path13003_1_" gradientUnits="userSpaceOnUse" x1="-776.2376" y1="-902.894" x2="-775.5975" y2="-902.894" gradientTransform="matrix(0 -56.7206 56.7206 0 50966.4688 -43750.2383)">
		<stop  offset="0" style="stop-color:#05A1E6"/>
		<stop  offset="0.8736" style="stop-color:#0495D6"/>
		<stop  offset="1" style="stop-color:#0495D6"/>
	</linearGradient>
	<path id="path13003" class="st20" d="M-251,263.1c-3.3,10.3-5.9,18.9-8.2,25.9l0,0c8.9-12.2,17.6-27.5,25.9-45.2l0,0
		C-242.8,246.7-248.1,253.7-251,263.1"/>
	
		<linearGradient id="path13093_1_" gradientUnits="userSpaceOnUse" x1="-754.8754" y1="-900.5515" x2="-754.2351" y2="-900.5515" gradientTransform="matrix(-23.0627 130.7947 -130.7947 -23.0627 -135425.9688 78203.4297)">
		<stop  offset="0" style="stop-color:#38A7E4;stop-opacity:0.3294"/>
		<stop  offset="0.9615" style="stop-color:#0E88D3"/>
		<stop  offset="0.9615" style="stop-color:#0E88D3"/>
		<stop  offset="1" style="stop-color:#0E88D3"/>
	</linearGradient>
	<path id="path13093" class="st21" d="M-258.8,317.5c-0.5,0.2-0.9,0.5-1.4,0.7c17.2-7.6,37.7-38.2,47.6-76.1h-1.9
		C-237.1,282.4-244.4,309.5-258.8,317.5"/>
	<path id="path13097" class="st22" d="M-270,314c3.8-4.5,6.8-12.3,11-25.2c-4.9,6.6-9.7,12.3-14.4,16.9l0,0
		C-272.6,309-271.3,311.7-270,314"/>
	<path id="path13101" class="st5" d="M-270,314c-1.2,1.6-2.6,2.8-4.2,3.7c-0.3,0.2-0.7,0.3-1,0.5c1.6,0.9,3.3,1.4,5.2,1.7l0,0l0,0
		c0.3,0,0.5,0,0.9,0l0,0c0.2,0,0.4,0,0.4,0l0,0c0.2,0,0.3,0,0.3,0c0.2,0,0.3,0,0.5,0h0.2c0.2,0,0.2,0,0.3,0h0.2c0.2,0,0.2,0,0.3,0
		l0,0c0,0,0,0,0.2,0c0.2,0,0.2,0,0.3,0l0,0c0,0,0,0,0.2,0s0.2,0,0.3,0c0,0,0,0,0.2,0c0.2,0,0.3,0,0.3,0l0,0l0,0
		c0.3,0,0.5-0.2,0.9-0.2C-266.6,318.7-268.4,316.8-270,314"/>
	<path id="path13105" class="st23" d="M-301.8,319.9c1.6,0,3.3-0.2,4.9-0.5c1.6-0.4,3-0.7,4.5-1.2c1.2,0.7,2.6,1,4,1.4
		c1,0.2,2.3,0.3,3.5,0.3H-301.8z"/>
	<path id="path13109" class="st23" d="M-284.9,319.9c4,0,7.1-0.5,9.7-1.7c1.6,0.9,3.3,1.4,5.2,1.7l0,0l0,0c0.3,0,0.5,0,0.9,0l0,0
		c0.2,0,0.4,0,0.4,0l0,0c0.2,0,0.3,0,0.3,0H-284.9L-284.9,319.9z"/>
	<path id="path13113" class="st24" d="M-268,319.9c0.2,0,0.3,0,0.5,0h0.2c0.2,0,0.2,0,0.3,0h0.2c0.2,0,0.2,0,0.4,0l0,0
		c0,0,0,0,0.2,0c0.2,0,0.2,0,0.3,0l0,0c0,0,0,0,0.2,0c0.2,0,0.2,0,0.3,0c0,0,0,0,0.2,0c0.2,0,0.3,0,0.3,0l0,0l0,0
		c0.3,0,0.5-0.2,0.9-0.2l0,0c0.7,0.4,1.6,0.4,2.4,0.4L-268,319.9L-268,319.9z"/>
	<path id="path13117" class="st25" d="M-273.6,305.8L-273.6,305.8c-1.7,1.7-3.5,3.3-5.4,4.7c-0.9,0.7-1.9,1.4-2.8,2.1
		c0.7,0.9,1.6,1.7,2.4,2.6c1.2,1.2,2.6,2.3,4.2,3.1c0.3-0.2,0.7-0.4,1-0.5c1.6-0.9,2.8-2.1,4.2-3.7
		C-271.3,311.7-272.6,309-273.6,305.8"/>
	
		<linearGradient id="path13139_1_" gradientUnits="userSpaceOnUse" x1="-754.5015" y1="-899.3903" x2="-753.8607" y2="-899.3903" gradientTransform="matrix(0 123.7424 -123.7424 0 -111534.8516 93605.4375)">
		<stop  offset="0" style="stop-color:#168CD4"/>
		<stop  offset="0.5" style="stop-color:#1C87CC"/>
		<stop  offset="1" style="stop-color:#154B8D"/>
	</linearGradient>
	<path id="path13139" class="st26" d="M-220.8,242h-8.3c-0.3,0-0.5,0-0.9,0l0,0c-0.3,0-0.5,0-0.9,0l0,0l0,0c-0.5,0-1,0-1.6,0l0,0
		c-0.2,0.5-0.5,1-0.7,1.6l0,0c-8.3,17.7-17,33-25.9,45.2l0,0c-4.2,12.9-7.3,20.5-11,25.2l0,0c1.6,2.8,3.5,4.7,5.7,5.4l0,0h0.2l0,0
		l0,0l0,0c0,0,0,0,0.2,0l0,0c0.2,0,0.2,0,0.4,0l0,0h0.2l0,0h0.2l0,0h0.2l0,0c0.2,0,0.2,0,0.3-0.2l0,0h0.2l0,0h0.2l0,0h0.2l0,0h0.2
		l0,0c0.2,0,0.3-0.2,0.3-0.2l0,0c0,0,0,0,0.2,0l0,0c0.2,0,0.2,0,0.3-0.2l0,0c0,0,0,0,0.2,0l0,0c0.3-0.2,0.7-0.2,0.9-0.3l0,0l0,0l0,0
		c0.5-0.2,0.9-0.3,1.4-0.7l0,0c14.4-8,21.7-35.1,44.3-75.5l0,0L-220.8,242L-220.8,242z"/>
	<path id="path13231" class="st27" d="M-345.9,243.8C-345.7,243.8-345.7,243.8-345.9,243.8c0.2,0,0.4,0,0.4,0s0,0,0.2,0
		c0.2,0,0.3,0,0.5,0l0,0c0.2,0,0.3,0,0.3,0s0,0,0.2,0c0.3,0,0.7,0.2,0.9,0.2l0,0c0.2,0,0.2,0,0.3,0.2c0,0,0,0,0.2,0
		c0.2,0,0.3,0,0.5,0.2l0,0c0.2,0,0.2,0.2,0.3,0.2h0.2c0.2,0,0.2,0,0.4,0.2h0.2c0.2,0,0.2,0.2,0.3,0.2h0.2c0,0,0.2,0,0.2,0.2
		c0,0,0.2,0,0.2,0.2c0,0,0.2,0,0.2,0.2c1.6,0.9,3.1,1.9,4.5,3.1c0.5-0.5,1-1,1.6-1.4c-3-2.1-6.4-3.3-10.3-3.3
		C-344.9,243.8-345.4,243.8-345.9,243.8"/>
	<path id="path13235" class="st28" d="M-335.8,248.5c0.9,0.7,1.6,1.6,2.4,2.6c0.7-0.5,1.4-1,2.3-1.4c-1-1-1.9-1.7-3-2.6
		C-334.8,247.4-335.3,247.9-335.8,248.5"/>
	<g id="g13243" transform="matrix(5.0481458,0,0,-5.0481458,-9064.2597,2270.6096)">
		
			<linearGradient id="path13245_1_" gradientUnits="userSpaceOnUse" x1="2097.6372" y1="439.5754" x2="2098.2771" y2="439.5754" gradientTransform="matrix(143.8888 -59.6807 -59.6807 -143.8888 -273864.625 188840.7031)">
			<stop  offset="0" style="stop-color:#97D6EE"/>
			<stop  offset="0.7033" style="stop-color:#55C1EA"/>
			<stop  offset="1" style="stop-color:#55C1EA"/>
		</linearGradient>
		<path id="path13245" class="st29" d="M1727,401.6c0.2,0,0.2,0,0.3,0c0.7,0,1.4-0.2,2.1-0.7c0.7,0.5,1.4,0.7,2.4,0.7h-5H1727"/>
	</g>
	<g id="g13253" transform="matrix(5.0481458,0,0,-5.0481458,-9064.2597,2270.6096)">
		
			<linearGradient id="path13255_1_" gradientUnits="userSpaceOnUse" x1="2096.6252" y1="439.7043" x2="2097.2622" y2="439.7043" gradientTransform="matrix(113.6429 51.5183 51.5183 -113.6429 -259189.7813 -57644.8086)">
			<stop  offset="0" style="stop-color:#7ACCEC"/>
			<stop  offset="1" style="stop-color:#3FB7ED"/>
		</linearGradient>
		<path id="path13255" class="st30" d="M1731.7,401.6c-1,0-1.7-0.2-2.4-0.7c0.2-0.2,0.3-0.3,0.5-0.5c0.9,0.5,1.7,0.9,2.6,1
			c0.3,0,0.7,0.2,1,0.2L1731.7,401.6L1731.7,401.6z"/>
	</g>
	
		<linearGradient id="path13333_1_" gradientUnits="userSpaceOnUse" x1="-754.3687" y1="-899.4103" x2="-753.7294" y2="-899.4103" gradientTransform="matrix(0 121.0325 -121.0325 0 -109110.8906 91549.125)">
		<stop  offset="0" style="stop-color:#1DA7E7"/>
		<stop  offset="1" style="stop-color:#37ABE7;stop-opacity:0"/>
	</linearGradient>
	<path id="path13333" class="st31" d="M-259,289c2.3-7,4.9-15.5,8.2-25.9c3-9.4,8-16.3,17.7-19.3c0.2-0.5,0.5-1,0.7-1.6
		c-15.8,0.9-23.1,9-26.9,20.9c-6.4,20.9-10.4,34.2-14.3,42.8C-268.7,301.1-263.9,295.4-259,289"/>
</g>
<rect x="-416.6" y="341.6" width="225.1" height="0.7"/>
<g>
	<path d="M-345,380.1h-12.2v11.3h13.6v3.4h-17.7v-31.4h17v3.4h-12.9v9.9h12.2V380.1z"/>
	<path d="M-338.5,378.3c0-2.3,0-4.2-0.2-6.1h3.6l0.2,3.7h0.1c1.1-2.1,3.7-4.2,7.5-4.2c3.1,0,8,1.9,8,9.6v13.5h-4.1v-13
		c0-3.6-1.4-6.7-5.2-6.7c-2.7,0-4.8,1.9-5.5,4.2c-0.2,0.5-0.3,1.2-0.3,1.9v13.6h-4.1V378.3z"/>
	<path d="M-307.8,365.8v6.5h5.9v3.1h-5.9v12.2c0,2.8,0.8,4.4,3.1,4.4c1.1,0,1.9-0.1,2.4-0.3l0.2,3.1c-0.8,0.3-2.1,0.6-3.6,0.6
		c-1.9,0-3.5-0.6-4.4-1.7c-1.2-1.2-1.6-3.2-1.6-5.9v-12.3h-3.5v-3.1h3.5v-5.4L-307.8,365.8z"/>
	<path d="M-292.8,365.9c0,1.4-1,2.5-2.6,2.5c-1.4,0-2.5-1.1-2.5-2.5c0-1.4,1.1-2.6,2.6-2.6C-293.7,363.3-292.8,364.4-292.8,365.9z
		 M-297.3,394.8v-22.6h4.1v22.6H-297.3z"/>
	<path d="M-281.5,365.8v6.5h5.9v3.1h-5.9v12.2c0,2.8,0.8,4.4,3.1,4.4c1.1,0,1.9-0.1,2.4-0.3l0.2,3.1c-0.8,0.3-2.1,0.6-3.6,0.6
		c-1.9,0-3.5-0.6-4.4-1.7c-1.2-1.2-1.6-3.2-1.6-5.9v-12.3h-3.5v-3.1h3.5v-5.4L-281.5,365.8z"/>
	<path d="M-269.1,372.2l4.9,13.3c0.5,1.5,1.1,3.3,1.4,4.6h0.1c0.4-1.4,0.9-3.1,1.4-4.7l4.5-13.2h4.3l-6.2,16.1
		c-2.9,7.7-4.9,11.7-7.7,14.1c-2,1.8-4,2.5-5,2.7l-1-3.5c1-0.3,2.4-1,3.6-2c1.1-0.9,2.5-2.5,3.5-4.6c0.2-0.4,0.3-0.7,0.3-1
		c0-0.2-0.1-0.6-0.3-1.1l-8.3-20.8H-269.1z"/>
	<path d="M-413.9,401.4h16.9v3.4h-12.9v10.4h11.9v3.4h-11.9v14.2h-4.1V401.4z"/>
	<path d="M-392.5,417.3c0-2.7,0-4.9-0.2-7h3.6l0.1,4.4h0.2c1-3,3.5-4.9,6.3-4.9c0.5,0,0.8,0,1.2,0.1v3.9c-0.4-0.1-0.8-0.1-1.4-0.1
		c-2.9,0-4.9,2.2-5.5,5.3c-0.1,0.6-0.2,1.2-0.2,1.9v12h-4.1V417.3z"/>
	<path d="M-365,432.8l-0.3-2.8h-0.1c-1.3,1.8-3.7,3.4-6.9,3.4c-4.6,0-6.9-3.2-6.9-6.5c0-5.5,4.9-8.4,13.6-8.4V418
		c0-1.9-0.5-5.2-5.1-5.2c-2.1,0-4.3,0.7-5.9,1.7l-0.9-2.7c1.9-1.2,4.6-2,7.4-2c6.9,0,8.6,4.7,8.6,9.2v8.4c0,2,0.1,3.9,0.4,5.4H-365z
		 M-365.6,421.3c-4.5-0.1-9.6,0.7-9.6,5.1c0,2.7,1.8,3.9,3.9,3.9c2.9,0,4.8-1.9,5.5-3.8c0.1-0.4,0.2-0.9,0.2-1.3V421.3z"/>
	<path d="M-355,416.3c0-2.3,0-4.2-0.2-6.1h3.6l0.2,3.6h0.1c1.3-2.1,3.4-4.2,7.1-4.2c3.1,0,5.4,1.9,6.4,4.5h0.1
		c0.7-1.3,1.6-2.2,2.5-2.9c1.4-1,2.8-1.6,5-1.6c3,0,7.4,2,7.4,9.8v13.3h-4V420c0-4.3-1.6-7-4.9-7c-2.3,0-4.2,1.7-4.9,3.7
		c-0.2,0.6-0.3,1.3-0.3,2.1v13.9h-4v-13.5c0-3.6-1.6-6.2-4.7-6.2c-2.6,0-4.4,2.1-5.1,4.1c-0.2,0.6-0.3,1.3-0.3,2v13.6h-4V416.3z"/>
	<path d="M-313.8,422.3c0.1,5.6,3.6,7.8,7.7,7.8c2.9,0,4.7-0.5,6.3-1.2l0.7,2.9c-1.4,0.7-3.9,1.4-7.5,1.4c-7,0-11.1-4.6-11.1-11.4
		c0-6.8,4-12.2,10.6-12.2c7.4,0,9.3,6.5,9.3,10.6c0,0.8-0.1,1.5-0.1,1.9H-313.8z M-301.8,419.3c0-2.6-1.1-6.7-5.7-6.7
		c-4.2,0-6,3.8-6.3,6.7H-301.8z"/>
	<path d="M-291.1,410.2l3,11.5c0.7,2.5,1.3,4.9,1.7,7.2h0.1c0.5-2.3,1.3-4.7,2-7.1l3.7-11.5h3.5l3.5,11.3c0.8,2.7,1.5,5.1,2,7.4h0.1
		c0.4-2.3,1-4.7,1.7-7.3l3.2-11.3h4.1l-7.3,22.6h-3.7L-277,422c-0.8-2.5-1.4-4.8-2-7.4h-0.1c-0.6,2.7-1.3,5-2.1,7.5l-3.6,10.7h-3.7
		l-6.8-22.6H-291.1z"/>
	<path d="M-238.5,421.3c0,8.3-5.8,12-11.2,12c-6.1,0-10.8-4.5-10.8-11.6c0-7.6,4.9-12,11.2-12C-242.8,409.7-238.5,414.4-238.5,421.3
		z M-256.4,421.6c0,4.9,2.8,8.7,6.9,8.7c3.9,0,6.9-3.7,6.9-8.8c0-3.8-1.9-8.7-6.8-8.7C-254.3,412.8-256.4,417.3-256.4,421.6z"/>
	<path d="M-233.3,417.3c0-2.7,0-4.9-0.2-7h3.6l0.1,4.4h0.2c1-3,3.5-4.9,6.3-4.9c0.5,0,0.8,0,1.2,0.1v3.9c-0.4-0.1-0.8-0.1-1.4-0.1
		c-2.9,0-4.9,2.2-5.5,5.3c-0.1,0.6-0.2,1.2-0.2,1.9v12h-4.1V417.3z"/>
	<path d="M-213.8,420.6L-213.8,420.6c0.7-0.8,1.4-1.8,2.1-2.6l6.6-7.8h4.9l-8.7,9.3l9.9,13.3h-5l-7.8-10.8l-2.1,2.3v8.5h-4.1v-33.1
		h4.1V420.6z"/>
</g>
</svg>
