<?xml version="1.0" encoding="utf-8"?>
<!-- Generator: Adobe Illustrator 19.0.0, SVG Export Plug-In . SVG Version: 6.00 Build 0)  -->
<svg version="1.1" id="Layer_1" xmlns="http://www.w3.org/2000/svg" xmlns:xlink="http://www.w3.org/1999/xlink" x="0px" y="0px"
	 viewBox="0 0 25 25" style="enable-background:new 0 0 25 25;fill:#041E3A;" xml:space="preserve">
<path id="XMLID_157_" d="M20.7,0H4.3C1.9,0,0,1.9,0,4.3v16.4C0,23.1,1.9,25,4.3,25h16.4c2.4,0,4.3-1.9,4.3-4.3V4.3
	C25,1.9,23.1,0,20.7,0z M4.1,15.9c-0.4,0-0.5-0.1-0.5-0.6c0-0.6,0.2-0.7,0.8-0.6c0.2,0,0.3,0.1,0.3,0.3c0,0.1,0,0.2,0,0.3
	C4.6,15.7,4.5,15.9,4.1,15.9z M11.2,15.3c0,0.5-0.1,0.6-0.6,0.6c-0.4,0-0.7-0.2-0.8-0.5c-0.5-0.9-0.9-1.7-1.4-2.5
	C8,12,7.6,11.2,7.2,10.4c0,0,0-0.1-0.1-0.1c0,0.3,0,0.6,0,0.9c0,1.4,0,2.8,0,4.3c0,0.2-0.1,0.3-0.2,0.3c0,0-0.1,0-0.1,0
	c-0.5,0-0.5,0-0.5-0.5c0-1.9,0-3.7,0-5.6c0-0.4,0.1-0.5,0.5-0.5c0.1,0,0.1,0,0.2,0c0.4,0,0.6,0.1,0.8,0.5c0.3,0.5,0.6,1.1,0.9,1.6
	c0.6,1,1.1,2.1,1.7,3.2c0-0.3,0-0.6,0-0.9c0-1.4,0-2.7,0-4.1c0-0.3,0-0.3,0.3-0.3c0.6,0,0.6,0,0.6,0.5
	C11.2,11.6,11.2,13.5,11.2,15.3z M16.5,15.6c0,0.2-0.1,0.2-0.3,0.2c-1,0-2,0-3,0c-0.3,0-0.4-0.1-0.4-0.3c0-0.1,0-0.1,0-0.2
	c0-1.8,0-3.7,0-5.5c0-0.4,0.1-0.5,0.5-0.5c0.9,0,1.8,0,2.8,0c0.3,0,0.3,0,0.3,0.3c0,0.1,0,0.1,0,0.2c0,0.2-0.1,0.3-0.3,0.3
	c-0.7,0-1.5,0-2.2,0c-0.1,0-0.1,0-0.2,0c0,0.7,0,1.4,0,2c0.4,0,0.7,0,1.1,0c0.3,0,0.7,0,1,0c0.2,0,0.3,0.1,0.3,0.2
	c0,0.1,0,0.1,0,0.2c0,0.2-0.1,0.3-0.3,0.3c-0.6,0-1.2,0-1.8,0c-0.1,0-0.1,0-0.2,0c0,0.8,0,1.5,0,2.3c0.2,0,0.4,0,0.6,0
	c0.6,0,1.2,0,1.9,0c0.2,0,0.3,0.1,0.3,0.3C16.5,15.4,16.5,15.5,16.5,15.6z M21.7,10c-0.6,0-1.1,0-1.7,0c0,0.1,0,0.2,0,0.2
	c0,1.8,0,3.5,0,5.3c0,0.2-0.1,0.3-0.3,0.3c0,0-0.1,0-0.1,0c-0.5,0-0.5,0-0.5-0.5c0-1.7,0-3.4,0-5c0-0.1,0-0.2,0-0.3
	c-0.6,0-1.1,0-1.6,0c-0.1,0-0.3-0.1-0.3-0.1c0-0.2,0-0.4,0-0.6c0,0,0.1-0.1,0.2-0.1c1.5,0,2.9,0,4.4,0c0.2,0,0.2,0.1,0.2,0.2
	c0,0.1,0,0.2,0,0.3C22,10,22,10,21.7,10z"/>
</svg>
