<?xml version="1.0" encoding="utf-8"?>
<!-- Generator: Adobe Illustrator 17.1.0, SVG Export Plug-In . SVG Version: 6.00 Build 0)  -->
<!DOCTYPE svg PUBLIC "-//W3C//DTD SVG 1.1//EN" "http://www.w3.org/Graphics/SVG/1.1/DTD/svg11.dtd">
<svg version="1.1" id="Layer_1" xmlns="http://www.w3.org/2000/svg" xmlns:xlink="http://www.w3.org/1999/xlink" x="0px" y="0px"
	 viewBox="0 0 100 100" enable-background="new 0 0 100 100" xml:space="preserve">
<g>
	<g>
		<path id="path12245_1_" d="M80.4,53.2h-0.8v2.6h-0.3v-2.6h-0.9v-0.3h2L80.4,53.2L80.4,53.2z"/>
		<path id="path12257_1_" d="M83.7,55.7h-0.3v-1.9c0-0.1,0-0.3,0-0.6l0,0c0,0.1-0.1,0.2-0.1,0.3l-1,2.2h-0.2l-1-2.2
			c0-0.1-0.1-0.1-0.1-0.3l0,0c0,0.1,0,0.3,0,0.6v1.9h-0.3v-2.9h0.4l0.9,2c0.1,0.1,0.1,0.3,0.1,0.4l0,0c0.1-0.1,0.1-0.3,0.1-0.4
			l0.9-2h0.4V55.7L83.7,55.7z"/>
		
			<linearGradient id="path12339_2_" gradientUnits="userSpaceOnUse" x1="-820.1492" y1="-994.2443" x2="-818.9918" y2="-994.2443" gradientTransform="matrix(0 38.1004 -38.1004 0 -37837.1328 31268.4043)">
			<stop  offset="0" style="stop-color:#0994DC"/>
			<stop  offset="0.35" style="stop-color:#66CEF5"/>
			<stop  offset="0.35" style="stop-color:#66CEF5"/>
			<stop  offset="0.8462" style="stop-color:#127BCA"/>
			<stop  offset="0.8462" style="stop-color:#127BCA"/>
			<stop  offset="1" style="stop-color:#127BCA"/>
		</linearGradient>
		<path id="path12339_1_" fill="url(#path12339_2_)" d="M35.7,27.4C39,37.6,40.3,55.7,50,55.7l0,0c0.7,0,1.5-0.1,2.2-0.2l0,0
			c-8.9-2.1-9.9-20.1-15.3-29.4l0,0C36.5,26.5,36.1,27,35.7,27.4"/>
		
			<linearGradient id="path12367_2_" gradientUnits="userSpaceOnUse" x1="-820.373" y1="-994.2723" x2="-819.2157" y2="-994.2723" gradientTransform="matrix(0 39.0714 -39.0714 0 -38801.9492 32072.3926)">
			<stop  offset="0" style="stop-color:#0E76BC"/>
			<stop  offset="0.36" style="stop-color:#36AEE8"/>
			<stop  offset="0.36" style="stop-color:#36AEE8"/>
			<stop  offset="0.8462" style="stop-color:#00ADEF"/>
			<stop  offset="0.8462" style="stop-color:#00ADEF"/>
			<stop  offset="1" style="stop-color:#00ADEF"/>
		</linearGradient>
		<path id="path12367_1_" fill="url(#path12367_2_)" d="M37,26.2c5.4,9.3,6.4,27.3,15.3,29.4l0,0c0.7-0.1,1.4-0.3,2.1-0.6l0,0
			c-8-3.9-10.2-21.4-16.3-29.7l0,0C37.7,25.5,37.3,25.8,37,26.2"/>
		<path id="path12379_1_" fill="#14559A" d="M44.8,20.6c-0.7,0-1.5,0.1-2.2,0.2c-2,0.4-4,1.2-6,2.5c0.6,0.5,1.1,1.2,1.6,1.9
			c2.1-1.7,4.1-3,6.1-3.7c0.8-0.3,1.5-0.5,2.3-0.6C45.9,20.7,45.3,20.6,44.8,20.6"/>
		
			<linearGradient id="path12459_2_" gradientUnits="userSpaceOnUse" x1="-839.9971" y1="-996.1906" x2="-838.8398" y2="-996.1906" gradientTransform="matrix(0 -31.0885 31.0885 0 31024.875 -26059.5859)">
			<stop  offset="0" style="stop-color:#1C63B7"/>
			<stop  offset="0.5" style="stop-color:#33BDF2"/>
			<stop  offset="1" style="stop-color:#33BDF2;stop-opacity:0.4196"/>
		</linearGradient>
		<path id="path12459_1_" fill="url(#path12459_2_)" d="M60.6,51.4c0.8-0.6,1.6-1.4,2.4-2.1c-3.4-10.1-4.6-28.6-14.4-28.6
			c-0.7,0-1.4,0.1-2.1,0.2C55.4,23.1,56.6,42.5,60.6,51.4"/>
		<path id="path12521_1_" fill="#3092C4" d="M46.5,20.8c-0.6-0.1-1.1-0.2-1.7-0.2h3.9C47.9,20.6,47.2,20.7,46.5,20.8"/>
		<path id="path12525_1_" fill="#1969BC" d="M60.4,53.5c-0.4-0.4-0.7-0.8-1.1-1.2c-1.6,1.2-3.3,2.1-4.9,2.6c0.6,0.3,1.2,0.5,1.8,0.6
			c0.5,0.1,1,0.1,1.6,0.1c1.8,0,3.3-0.2,4.5-0.8C61.6,54.6,61,54.1,60.4,53.5"/>
		
			<linearGradient id="path12553_2_" gradientUnits="userSpaceOnUse" x1="-820.7062" y1="-994.327" x2="-819.5489" y2="-994.327" gradientTransform="matrix(0 40.5662 -40.5662 0 -40283.6992 33307.6445)">
			<stop  offset="0" style="stop-color:#166AB8"/>
			<stop  offset="0.4" style="stop-color:#36AEE8"/>
			<stop  offset="0.4" style="stop-color:#36AEE8"/>
			<stop  offset="0.8462" style="stop-color:#0798DD"/>
			<stop  offset="0.8462" style="stop-color:#0798DD"/>
			<stop  offset="1" style="stop-color:#0798DD"/>
		</linearGradient>
		<path id="path12553_1_" fill="url(#path12553_2_)" d="M44.2,21.5c8,4.2,8.7,23.1,15.1,30.8l0,0c0.4-0.3,0.9-0.6,1.3-1l0,0
			c-4-8.9-5.2-28.3-14.1-30.5l0,0C45.7,21,45,21.2,44.2,21.5"/>
		
			<linearGradient id="path12581_2_" gradientUnits="userSpaceOnUse" x1="-821.1997" y1="-994.3636" x2="-820.0424" y2="-994.3636" gradientTransform="matrix(0 43.1368 -43.1368 0 -42844.9844 35438.8672)">
			<stop  offset="0" style="stop-color:#124379"/>
			<stop  offset="0.39" style="stop-color:#1487CB"/>
			<stop  offset="0.39" style="stop-color:#1487CB"/>
			<stop  offset="0.7802" style="stop-color:#165197"/>
			<stop  offset="0.7802" style="stop-color:#165197"/>
			<stop  offset="1" style="stop-color:#165197"/>
		</linearGradient>
		<path id="path12581_1_" fill="url(#path12581_2_)" d="M38.1,25.2c6.1,8.4,8.3,25.9,16.3,29.7l0,0c1.6-0.6,3.3-1.5,4.9-2.6l0,0
			c-6.4-7.7-7.1-26.7-15.1-30.8l0,0C42.2,22.2,40.1,23.5,38.1,25.2"/>
		
			<linearGradient id="path12651_2_" gradientUnits="userSpaceOnUse" x1="94.4869" y1="1403.3195" x2="101.3557" y2="1403.3195" gradientTransform="matrix(1.0276 0 0 1.0276 -68.4638 -1411.7599)">
			<stop  offset="0" style="stop-color:#33BDF2;stop-opacity:0.698"/>
			<stop  offset="1" style="stop-color:#1DACD8"/>
		</linearGradient>
		<path id="path12651_1_" fill="url(#path12651_2_)" d="M31.8,27.1c-1,2.2-1.9,5-3.1,8.8c2.4-3.3,4.7-6.2,7.1-8.5
			c-0.3-1-0.7-1.9-1-2.7C33.7,25.4,32.7,26.2,31.8,27.1"/>
		<path id="path12655_1_" fill="#2B74B1" d="M35.5,24c-0.3,0.2-0.6,0.4-0.9,0.6c0.4,0.8,0.7,1.7,1,2.7c0.4-0.4,0.9-0.8,1.3-1.2
			C36.5,25.4,36,24.7,35.5,24"/>
		<path id="path12659_1_" fill="#125A9E" d="M36.5,23.3c-0.3,0.2-0.7,0.4-1,0.7c0.5,0.6,1,1.4,1.5,2.1c0.4-0.3,0.7-0.7,1.1-1
			C37.6,24.5,37.1,23.9,36.5,23.3"/>
		
			<linearGradient id="path12741_2_" gradientUnits="userSpaceOnUse" x1="-840.2849" y1="-996.0989" x2="-839.1276" y2="-996.0989" gradientTransform="matrix(0 -30.2846 30.2846 0 30248.0234 -25393.8535)">
			<stop  offset="0" style="stop-color:#136AB4"/>
			<stop  offset="0.6" style="stop-color:#59CAF5;stop-opacity:0.549"/>
			<stop  offset="1" style="stop-color:#59CAF5;stop-opacity:0.2353"/>
		</linearGradient>
		<path id="path12741_1_" fill="url(#path12741_2_)" d="M91.1,19.9c-4.5,17.5-14,31.5-21.9,35h0c-0.1,0.1-0.3,0.1-0.4,0.2
			c0,0,0,0-0.1,0c0,0-0.1,0-0.1,0.1c0,0,0,0-0.1,0c-0.1,0-0.1,0-0.2,0.1c0,0-0.1,0-0.1,0c0,0-0.1,0-0.1,0c0,0-0.1,0-0.1,0
			c0,0-0.1,0-0.1,0c-0.1,0-0.1,0-0.2,0.1c0,0-0.1,0-0.1,0c0,0-0.1,0-0.1,0c0,0-0.1,0-0.1,0c0,0-0.1,0-0.1,0c-0.1,0-0.1,0-0.1,0
			c0.4,0.1,0.7,0.2,1.1,0.2c7.5,0,15.1-13.5,27.6-35.9L91.1,19.9L91.1,19.9z"/>
		
			<linearGradient id="path12803_2_" gradientUnits="userSpaceOnUse" x1="70.0889" y1="1411.444" x2="95.5656" y2="1411.444" gradientTransform="matrix(1.0276 0 0 1.0276 -68.4638 -1411.7599)">
			<stop  offset="0" style="stop-color:#05A1E6;stop-opacity:0.2471"/>
			<stop  offset="1" style="stop-color:#05A1E6"/>
		</linearGradient>
		<path id="path12803_1_" fill="url(#path12803_2_)" d="M27,21.3L27,21.3C27,21.3,27,21.3,27,21.3L27,21.3c0.1,0,0.1-0.1,0.1-0.1h0
			h0c0.1,0,0.1,0,0.1-0.1l0,0c0.1,0,0.2-0.1,0.3-0.1h0c0,0,0.1,0,0.1,0c0,0,0,0,0.1,0c0,0,0.1,0,0.1,0c0,0,0,0,0.1,0
			c0.1,0,0.3-0.1,0.4-0.1c0,0,0,0,0.1,0c0,0,0.1,0,0.1,0c0,0,0,0,0.1,0c0,0,0.1,0,0.1,0h0c0.1,0,0.2,0,0.3-0.1c0,0,0,0,0.1,0
			c0,0,0.1,0,0.1,0c0,0,0.1,0,0.1,0c0,0,0.1,0,0.1,0c0,0,0,0,0.1,0c0.1,0,0.2,0,0.3,0c-0.3,0-0.5,0-0.8,0c-8.5,0-20.1,15.7-25.4,36
			c0,0,0.4,0,1,0c1.7-3,3.2-5.8,4.6-8.5C12.8,33.8,20.3,23.9,27,21.3"/>
		<path id="path12807_1_" fill="#0D82CA" d="M31.8,27.1c1-0.9,1.9-1.7,2.9-2.5c-0.2-0.5-0.4-0.9-0.7-1.3
			C33.2,24.3,32.5,25.5,31.8,27.1"/>
		<path id="path12811_1_" fill="#0D82CA" d="M32.4,21.5c0.6,0.5,1.1,1.1,1.5,1.9c0.1-0.2,0.3-0.3,0.4-0.5
			C33.8,22.2,33.1,21.7,32.4,21.5C32.4,21.4,32.4,21.4,32.4,21.5L32.4,21.5"/>
		
			<linearGradient id="path12831_2_" gradientUnits="userSpaceOnUse" x1="-840.0253" y1="-996.3542" x2="-838.868" y2="-996.3542" gradientTransform="matrix(0 -31.009 31.009 0 30913.9668 -25993.5996)">
			<stop  offset="0" style="stop-color:#318ED5"/>
			<stop  offset="1" style="stop-color:#38A7E4"/>
		</linearGradient>
		<path id="path12831_1_" fill="url(#path12831_2_)" d="M9.2,48.2C16.9,33.3,20.5,23.9,27,21.3l0,0C20.3,23.9,12.8,33.8,9.2,48.2"/>
		<path id="path12843_1_" fill="#127BCA" d="M34.4,22.8c-0.1,0.1-0.3,0.3-0.4,0.5c0.2,0.4,0.5,0.9,0.7,1.3c0.3-0.2,0.6-0.4,0.9-0.6
			C35.2,23.6,34.8,23.2,34.4,22.8"/>
		
			<linearGradient id="path12923_2_" gradientUnits="userSpaceOnUse" x1="-840.3428" y1="-996.3798" x2="-839.1854" y2="-996.3798" gradientTransform="matrix(0 -30.1424 30.1424 0 30053.5703 -25275.1133)">
			<stop  offset="0" style="stop-color:#05A1E6"/>
			<stop  offset="1" style="stop-color:#05A1E6;stop-opacity:0.549"/>
		</linearGradient>
		<path id="path12923_1_" fill="url(#path12923_2_)" d="M12.7,56.6L12.7,56.6c-0.1,0-0.1,0-0.1,0c0,0,0,0,0,0c0,0-0.1,0-0.1,0h0
			c-0.1,0-0.2,0-0.3,0h0c7.8-0.2,11.4-4.1,13.2-9.8c1.4-4.3,2.4-7.9,3.4-11C25.3,40.5,22,46,18.7,52.2
			C17.2,55.1,14.8,56.3,12.7,56.6"/>
		
			<linearGradient id="path12949_2_" gradientUnits="userSpaceOnUse" x1="-842.432" y1="-996.5964" x2="-841.2735" y2="-996.5964" gradientTransform="matrix(0 -25.4708 25.4708 0 25406.2969 -21400.8203)">
			<stop  offset="0" style="stop-color:#1959A6"/>
			<stop  offset="0.5" style="stop-color:#05A1E6"/>
			<stop  offset="0.5" style="stop-color:#05A1E6"/>
			<stop  offset="0.9176" style="stop-color:#7EC5EA"/>
			<stop  offset="1" style="stop-color:#7EC5EA"/>
		</linearGradient>
		<path id="path12949_1_" fill="url(#path12949_2_)" d="M12.7,56.6L12.7,56.6c2.1-0.3,4.5-1.5,6.1-4.5l0,0
			c3.3-6.2,6.6-11.6,9.9-16.3l0,0c1.2-3.7,2.2-6.6,3.1-8.8l0,0C25.3,33.3,18.7,43.6,12.7,56.6"/>
		<path id="path12961_1_" fill="#05A1E6" d="M9.2,48.2c-1.4,2.7-2.9,5.5-4.6,8.5c0.7,0,1.8,0,2.9,0C7.9,53.7,8.5,50.8,9.2,48.2"/>
		
			<linearGradient id="path12981_2_" gradientUnits="userSpaceOnUse" x1="-840.7773" y1="-998.5526" x2="-839.619" y2="-998.5526" gradientTransform="matrix(-4.8697 -27.6175 27.6175 -4.8697 23506.5918 -28028.1504)">
			<stop  offset="0" style="stop-color:#165096"/>
			<stop  offset="1" style="stop-color:#0D82CA"/>
		</linearGradient>
		<path id="path12981_1_" fill="url(#path12981_2_)" d="M29.5,20.7C29.5,20.7,29.5,20.7,29.5,20.7L29.5,20.7c-0.1,0-0.1,0-0.2,0l0,0
			c0,0,0,0-0.1,0l0,0c0,0-0.1,0-0.1,0l0,0c0,0,0,0-0.1,0l0,0c-0.1,0-0.2,0-0.3,0l0,0h0l0,0c0,0-0.1,0-0.1,0l0,0c0,0,0,0-0.1,0l0,0
			c0,0-0.1,0-0.1,0l0,0c0,0,0,0-0.1,0l0,0c-0.1,0-0.3,0.1-0.4,0.1l0,0c0,0,0,0-0.1,0l0,0c0,0-0.1,0-0.1,0l0,0c0,0,0,0-0.1,0l0,0
			c0,0-0.1,0-0.1,0l0,0c0,0,0,0-0.1,0l0,0c-0.1,0-0.2,0.1-0.3,0.1l0,0l0,0l0,0c0,0-0.1,0-0.1,0.1l0,0c0,0,0,0-0.1,0l0,0
			c0,0-0.1,0-0.1,0.1l0,0c0,0,0,0,0,0l0,0c-6.4,2.6-10.1,12-17.8,26.8l0,0c-0.7,2.7-1.2,5.5-1.6,8.5l0,0H8c1.2,0,1.5,0,2.8,0l0,0
			h0.1h0.2h0.1h0h0.1h0h0h0.1h0.2h0.2h0.1h0c0.1,0,0.2,0,0.2,0l0,0c0.1,0,0.2,0,0.3,0l0,0h0l0,0c0,0,0.1,0,0.1,0l0,0c0,0,0,0,0,0
			l0,0c0,0,0.1,0,0.1,0l0,0l0,0c6-13,12.6-23.3,19.1-29.5l0,0c0.7-1.6,1.4-2.9,2.2-3.8l0,0c-0.4-0.8-0.9-1.4-1.5-1.9l0,0h0l0,0
			c0,0-0.1,0-0.1,0l0,0c0,0-0.1,0-0.1-0.1l0,0c0,0-0.1,0-0.1,0l0,0c0,0-0.1,0-0.1,0l0,0c0,0-0.1,0-0.1,0l0,0c-0.1,0-0.1-0.1-0.2-0.1
			l0,0c0,0-0.1,0-0.1,0l0,0c0,0-0.1,0-0.1-0.1l0,0c0,0-0.1,0-0.1,0l0,0c-0.1,0-0.1,0-0.2-0.1l0,0c0,0,0,0,0,0l0,0
			c-0.1,0-0.1,0-0.2-0.1l0,0c0,0,0,0-0.1,0l0,0c-0.1,0-0.1,0-0.2-0.1l0,0c0,0,0,0,0,0l0,0c-0.1,0-0.3-0.1-0.4-0.1l0,0c0,0,0,0-0.1,0
			l0,0c-0.1,0-0.1,0-0.2,0l0,0c0,0,0,0,0,0l0,0c-0.1,0-0.1,0-0.2,0l0,0c0,0,0,0,0,0l0,0c-0.1,0-0.1,0-0.2,0l0,0
			C29.7,20.7,29.6,20.7,29.5,20.7"/>
		
			<linearGradient id="path13003_2_" gradientUnits="userSpaceOnUse" x1="-852.5179" y1="-997.2076" x2="-851.3605" y2="-997.2076" gradientTransform="matrix(0 -14.4327 14.4327 0 14468.041 -12267.5146)">
			<stop  offset="0" style="stop-color:#05A1E6"/>
			<stop  offset="0.8736" style="stop-color:#0495D6"/>
			<stop  offset="1" style="stop-color:#0495D6"/>
		</linearGradient>
		<path id="path13003_1_" fill="url(#path13003_2_)" d="M73.4,29.5c-1.5,4.8-2.7,8.7-3.7,11.9l0,0c4.1-5.6,8.1-12.7,11.9-20.8l0,0
			C77.2,22,74.8,25.2,73.4,29.5"/>
		
			<linearGradient id="path13093_2_" gradientUnits="userSpaceOnUse" x1="-819.0333" y1="-996.0336" x2="-817.876" y2="-996.0336" gradientTransform="matrix(-5.8684 33.2811 -33.2811 -5.8684 -37871.9766 21431.6289)">
			<stop  offset="0" style="stop-color:#38A7E4;stop-opacity:0.3294"/>
			<stop  offset="0.9615" style="stop-color:#0E88D3"/>
			<stop  offset="0.9615" style="stop-color:#0E88D3"/>
			<stop  offset="1" style="stop-color:#0E88D3"/>
		</linearGradient>
		<path id="path13093_1_" fill="url(#path13093_2_)" d="M69.8,54.6c-0.2,0.1-0.4,0.2-0.6,0.3c7.9-3.5,17.4-17.6,21.9-35h-0.9
			C79.8,38.4,76.4,50.9,69.8,54.6"/>
		<path id="path13097_1_" fill="#079AE1" d="M64.6,53c1.7-2.1,3.1-5.7,5-11.6c-2.2,3-4.4,5.7-6.7,7.8c0,0,0,0,0,0
			C63.5,50.7,64,52,64.6,53"/>
		<path id="path13101_1_" fill="#1969BC" d="M64.6,53c-0.6,0.7-1.2,1.3-1.9,1.7c-0.1,0.1-0.3,0.2-0.5,0.2c0.7,0.4,1.5,0.6,2.4,0.8
			l0,0l0,0c0.1,0,0.3,0,0.4,0h0c0.1,0,0.1,0,0.2,0h0c0.1,0,0.1,0,0.2,0c0.1,0,0.1,0,0.2,0c0,0,0,0,0.1,0c0.1,0,0.1,0,0.1,0
			c0,0,0.1,0,0.1,0c0.1,0,0.1,0,0.1,0c0,0,0,0,0,0c0,0,0,0,0.1,0c0.1,0,0.1,0,0.1,0l0,0c0,0,0,0,0.1,0c0.1,0,0.1,0,0.2,0
			c0,0,0,0,0.1,0c0.1,0,0.1,0,0.2,0l0,0c0,0,0,0,0,0c0.1,0,0.2-0.1,0.4-0.1C66.2,55.2,65.4,54.3,64.6,53"/>
		<path id="path13105_1_" fill="#1E5CB3" d="M50,55.7c0.7,0,1.5-0.1,2.2-0.2c0.7-0.1,1.4-0.3,2.1-0.6c0.6,0.3,1.2,0.5,1.8,0.6
			c0.5,0.1,1,0.1,1.6,0.1L50,55.7z"/>
		<path id="path13109_1_" fill="#1E5CB3" d="M57.8,55.7c1.8,0,3.3-0.2,4.5-0.8c0.7,0.4,1.5,0.6,2.4,0.8l0,0l0,0c0.1,0,0.3,0,0.4,0h0
			c0.1,0,0.1,0,0.2,0h0c0.1,0,0.1,0,0.2,0L57.8,55.7L57.8,55.7z"/>
		<path id="path13113_1_" fill="#1D60B5" d="M65.5,55.7c0.1,0,0.1,0,0.2,0c0,0,0,0,0.1,0c0.1,0,0.1,0,0.1,0c0,0,0.1,0,0.1,0
			c0.1,0,0.1,0,0.1,0c0,0,0,0,0,0c0,0,0,0,0.1,0c0.1,0,0.1,0,0.1,0l0,0c0,0,0,0,0.1,0c0.1,0,0.1,0,0.2,0c0,0,0,0,0.1,0
			c0.1,0,0.1,0,0.2,0l0,0c0,0,0,0,0,0c0.1,0,0.2-0.1,0.4-0.1l0,0c0.4,0.1,0.7,0.2,1.1,0.2L65.5,55.7L65.5,55.7z"/>
		<path id="path13117_1_" fill="#175FAB" d="M63,49.2L63,49.2c-0.8,0.8-1.6,1.5-2.4,2.1c-0.4,0.3-0.9,0.6-1.3,1
			c0.4,0.4,0.7,0.8,1.1,1.2c0.6,0.6,1.2,1,1.9,1.4c0.1-0.1,0.3-0.1,0.5-0.2c0.7-0.4,1.3-0.9,1.9-1.7C64,52,63.5,50.7,63,49.2"/>
		
			<linearGradient id="path13139_2_" gradientUnits="userSpaceOnUse" x1="-818.2928" y1="-994.203" x2="-817.1355" y2="-994.203" gradientTransform="matrix(0 31.4866 -31.4866 0 -31226.6094 25785.0293)">
			<stop  offset="0" style="stop-color:#168CD4"/>
			<stop  offset="0.5" style="stop-color:#1C87CC"/>
			<stop  offset="1" style="stop-color:#154B8D"/>
		</linearGradient>
		<path id="path13139_1_" fill="url(#path13139_2_)" d="M87.3,19.9h-3.9c-0.1,0-0.3,0-0.4,0l0,0c-0.1,0-0.2,0-0.4,0l0,0l0,0
			c-0.2,0-0.5,0-0.7,0l0,0c-0.1,0.2-0.2,0.5-0.4,0.7l0,0c-3.8,8.1-7.8,15.2-11.9,20.8l0,0c-1.9,5.9-3.3,9.5-5,11.6l0,0
			c0.7,1.3,1.6,2.1,2.6,2.5l0,0c0,0,0.1,0,0.1,0l0,0h0l0,0c0,0,0,0,0.1,0l0,0c0,0,0.1,0,0.1,0l0,0c0,0,0.1,0,0.1,0l0,0
			c0,0,0.1,0,0.1,0l0,0c0,0,0.1,0,0.1,0l0,0c0.1,0,0.1,0,0.2-0.1l0,0c0,0,0.1,0,0.1,0l0,0c0,0,0.1,0,0.1,0l0,0c0,0,0.1,0,0.1,0l0,0
			c0,0,0.1,0,0.1,0l0,0c0.1,0,0.1,0,0.2-0.1l0,0c0,0,0,0,0.1,0l0,0c0,0,0.1,0,0.1-0.1l0,0c0,0,0,0,0.1,0l0,0
			c0.1-0.1,0.3-0.1,0.4-0.2l0,0h0l0,0c0.2-0.1,0.4-0.2,0.6-0.3l0,0c6.6-3.7,10-16.1,20.4-34.7l0,0L87.3,19.9L87.3,19.9z"/>
		<path id="path13231_1_" fill="#7DCBEC" d="M29.8,20.7C29.8,20.7,29.8,20.7,29.8,20.7c0.1,0,0.1,0,0.2,0c0,0,0,0,0,0
			c0.1,0,0.1,0,0.2,0h0c0.1,0,0.1,0,0.2,0c0,0,0,0,0.1,0c0.1,0,0.3,0.1,0.4,0.1h0c0.1,0,0.1,0,0.2,0.1c0,0,0,0,0.1,0
			c0.1,0,0.1,0,0.2,0.1c0,0,0,0,0,0c0.1,0,0.1,0,0.2,0.1c0,0,0.1,0,0.1,0c0,0,0.1,0,0.1,0.1c0,0,0.1,0,0.1,0c0.1,0,0.1,0.1,0.2,0.1
			c0,0,0.1,0,0.1,0c0,0,0.1,0,0.1,0s0.1,0,0.1,0c0,0,0.1,0,0.1,0.1c0.7,0.4,1.4,0.9,2,1.4c0.2-0.2,0.5-0.5,0.7-0.6
			c-1.4-1-2.9-1.5-4.7-1.5C30.2,20.7,30,20.7,29.8,20.7"/>
		<path id="path13235_1_" fill="#5EC5ED" d="M34.4,22.8c0.4,0.4,0.8,0.8,1.1,1.2c0.3-0.2,0.7-0.5,1-0.7c-0.4-0.4-0.9-0.8-1.4-1.2
			C34.9,22.4,34.6,22.6,34.4,22.8"/>
		<g id="g13243_1_" transform="matrix(5.0481458,0,0,-5.0481458,-9064.2597,2270.6096)">
			
				<linearGradient id="path13245_2_" gradientUnits="userSpaceOnUse" x1="2157.4819" y1="520.2158" x2="2158.6394" y2="520.2158" gradientTransform="matrix(36.6129 -15.1859 -15.1859 -36.6129 -69290.0859 52256)">
				<stop  offset="0" style="stop-color:#97D6EE"/>
				<stop  offset="0.7033" style="stop-color:#55C1EA"/>
				<stop  offset="1" style="stop-color:#55C1EA"/>
			</linearGradient>
			<path id="path13245_1_" fill="url(#path13245_2_)" d="M1801.4,445.7c0,0,0.1,0,0.1,0c0.4,0,0.7-0.1,0.9-0.3
				c0.3,0.2,0.6,0.3,1.1,0.3h-2.3C1801.4,445.7,1801.4,445.7,1801.4,445.7"/>
		</g>
		<g id="g13253_1_" transform="matrix(5.0481458,0,0,-5.0481458,-9064.2597,2270.6096)">
			
				<linearGradient id="path13255_2_" gradientUnits="userSpaceOnUse" x1="2155.9324" y1="520.4188" x2="2157.0898" y2="520.4188" gradientTransform="matrix(28.9168 13.109 13.109 -28.9168 -67362.0859 -12768.0889)">
				<stop  offset="0" style="stop-color:#7ACCEC"/>
				<stop  offset="1" style="stop-color:#3FB7ED"/>
			</linearGradient>
			<path id="path13255_1_" fill="url(#path13255_2_)" d="M1803.6,445.7c-0.5,0-0.8-0.1-1.1-0.3c0.1-0.1,0.2-0.1,0.3-0.2
				c0.4,0.3,0.8,0.4,1.2,0.5c0.1,0,0.3,0,0.4,0H1803.6L1803.6,445.7z"/>
		</g>
		
			<linearGradient id="path13333_2_" gradientUnits="userSpaceOnUse" x1="-818.0442" y1="-994.1586" x2="-816.8869" y2="-994.1586" gradientTransform="matrix(0 30.7971 -30.7971 0 -30544.6738 25215.1289)">
			<stop  offset="0" style="stop-color:#1DA7E7"/>
			<stop  offset="1" style="stop-color:#37ABE7;stop-opacity:0"/>
		</linearGradient>
		<path id="path13333_1_" fill="url(#path13333_2_)" d="M69.7,41.4c1.1-3.2,2.2-7.2,3.7-11.9c1.4-4.3,3.7-7.5,8.2-8.9
			c0.1-0.2,0.2-0.5,0.4-0.7c-7.3,0.4-10.7,4.1-12.4,9.6c-3,9.6-4.8,15.8-6.5,19.7C65.3,47.1,67.5,44.5,69.7,41.4"/>
	</g>
	<g>
		<path d="M8.7,80.3L4.1,62.1h2.5l2.1,9.2c0.5,2.3,1,4.5,1.4,6.3h0.1c0.3-1.8,0.9-4,1.5-6.3l2.4-9.2h2.4l2.2,9.2
			c0.5,2.1,1,4.3,1.3,6.2H20c0.4-2,0.9-4,1.4-6.3l2.4-9.2h2.4l-5.2,18.2h-2.4l-2.3-9.5c-0.6-2.3-0.9-4.1-1.2-5.9h-0.1
			c-0.3,1.8-0.7,3.6-1.4,5.9l-2.6,9.5L8.7,80.3L8.7,80.3z"/>
		<path d="M28.9,74.2c0.1,3.2,2.1,4.5,4.5,4.5c1.7,0,2.7-0.3,3.6-0.7l0.4,1.7c-0.8,0.4-2.3,0.8-4.3,0.8c-4,0-6.4-2.7-6.4-6.6
			s2.3-7,6.1-7c4.3,0,5.4,3.7,5.4,6.2c0,0.5-0.1,0.9-0.1,1.1L28.9,74.2L28.9,74.2z M35.9,72.5c0-1.5-0.6-3.9-3.3-3.9
			c-2.4,0-3.4,2.2-3.7,3.9H35.9z"/>
		<path d="M41,80.3c0.1-0.9,0.1-2.2,0.1-3.4V61.2h2.4v8.2h0.1c0.8-1.4,2.4-2.4,4.4-2.4c3.2,0,5.5,2.7,5.5,6.7c0,4.7-2.9,7-5.9,7
			c-1.9,0-3.4-0.7-4.4-2.4h-0.1l-0.1,2.1L41,80.3L41,80.3z M43.5,75.1c0,0.3,0.1,0.6,0.1,0.9c0.5,1.6,1.8,2.8,3.6,2.8c2.5,0,4-2,4-5
			c0-2.6-1.4-4.9-3.9-4.9c-1.6,0-3.1,1.1-3.6,2.9c-0.1,0.3-0.1,0.6-0.1,1V75.1z"/>
		<path d="M65.2,74.6l-1.9,5.7h-2.4l6.2-18.2h2.8l6.2,18.2h-2.5l-1.9-5.7H65.2z M71.2,72.7l-1.8-5.2c-0.4-1.2-0.7-2.3-0.9-3.3h-0.1
			c-0.3,1.1-0.6,2.2-0.9,3.3l-1.8,5.3H71.2z"/>
		<path d="M78.8,62.3c1.1-0.2,2.6-0.4,4.5-0.4c2.3,0,4,0.5,5.1,1.5c1,0.9,1.6,2.2,1.6,3.8c0,1.6-0.5,2.9-1.4,3.9
			c-1.2,1.3-3.3,2-5.6,2c-0.7,0-1.4,0-1.9-0.2v7.3h-2.4L78.8,62.3L78.8,62.3z M81.1,71.1c0.5,0.1,1.1,0.2,1.9,0.2
			c2.8,0,4.6-1.4,4.6-3.9c0-2.4-1.7-3.6-4.3-3.6c-1,0-1.8,0.1-2.2,0.2V71.1z"/>
		<path d="M95.5,62.1v18.2h-2.4V62.1H95.5z"/>
	</g>
</g>
</svg>
