<?xml version="1.0" encoding="utf-8"?>
<!-- Generator: Adobe Illustrator 21.1.0, SVG Export Plug-In . SVG Version: 6.00 Build 0)  -->
<svg version="1.1" id="Layer_1" xmlns="http://www.w3.org/2000/svg" xmlns:xlink="http://www.w3.org/1999/xlink" x="0px" y="0px"
	 viewBox="0 0 800 669" style="enable-background:new 0 0 800 669;" xml:space="preserve">
<style type="text/css">
	.st0{fill:url(#SVGID_1_);}
	.st1{opacity:0.4;}
	.st2{fill:#444444;}
	.st3{opacity:0.4;fill:#444444;}
	.st4{fill:#C8C8C8;}
	.st5{fill:#FFFFFF;}
	.st6{fill:#373737;}
	.st7{fill:#5A5A5A;}
	.st8{fill:#F7C443;}
	.st9{fill:#969696;}
	.st10{fill:#ECF0F1;}
	.st11{fill:#9E0059;}
	.st12{fill:#EE6242;}
	.st13{fill:#D0D1D4;}
	.st14{fill:#8C06C4;}
	.st15{fill:#DD2D4A;}
	.st16{fill:#FFEC61;}
	.st17{fill:#7FD3F9;}
	.st18{fill:#F5F5F5;}
	.st19{fill:#B4B4B4;}
	.st20{fill:#D7D7D7;}
	.st21{opacity:0.34;fill:#7FABDA;enable-background:new    ;}
	.st22{opacity:0.7;fill:#A4C9EA;enable-background:new    ;}
	.st23{opacity:0.7;fill:#D2E8F9;enable-background:new    ;}
	.st24{fill:#BF0513;}
	.st25{fill:#00ABBF;}
	.st26{fill:#B1E9F1;}
	.st27{fill:#323232;}
	.st28{fill:#6705C6;}
	.st29{fill:#80C56E;}
	.st30{fill:#66AD66;}
	.st31{fill:#BE91F2;}
	.st32{fill:#A263EA;}
	.st33{fill:#4D984E;}
	.st34{fill:#876EB7;}
	.st35{fill:#EFD18F;}
	.st36{fill:#F2C666;}
	.st37{fill:#D6A841;}
	.st38{fill:#464646;}
	.st39{fill:#C5283D;}
	.st40{fill:#646464;}
	.st41{fill:#4C4C4C;}
	.st42{fill:#707070;}
	.st43{opacity:0.5;fill:#2D2D2D;}
	.st44{opacity:0.4;fill:#5A5A5A;}
</style>
<linearGradient id="SVGID_1_" gradientUnits="userSpaceOnUse" x1="0.2" y1="335.2" x2="800.2" y2="335.2" gradientTransform="matrix(1 0 0 -1 0 670)">
	<stop  offset="0" style="stop-color:#DD2D4A"/>
	<stop  offset="7.298072e-02" style="stop-color:#D42B45"/>
	<stop  offset="0.2154" style="stop-color:#C9293F"/>
	<stop  offset="0.3673" style="stop-color:#C5283D"/>
	<stop  offset="0.7298" style="stop-color:#EE6242"/>
	<stop  offset="0.9782" style="stop-color:#F7C443"/>
</linearGradient>
<polygon class="st0" points="800.2,0.1 274.2,0.1 0.2,416.5 354.8,669.5 800.2,669.5 800.2,580.9 800.2,444.1 "/>
<g class="st1">
	<path class="st2" d="M336.2,395.6h130.6c4.3,0,7.8,3.7,7.8,8.1v83.7H328.4v-83.7C328.4,399.3,331.9,395.6,336.2,395.6L336.2,395.6z
		"/>
	<path class="st2" d="M333.7,482h135.6v-78.2c0-1.4-1.1-2.6-2.5-2.6H336.2c-1.4,0-2.5,1.2-2.5,2.6C333.7,403.8,333.7,482,333.7,482z
		"/>
	<path class="st2" d="M474.6,487.5v8.9c0,4.5-3.9,8.1-8.6,8.1H337c-4.7,0-8.6-3.7-8.6-8.1v-8.9H474.6z"/>
</g>
<path class="st3" d="M294.1,504.6h14.7c0.8,0,1.5,0.7,1.5,1.6v19.1c0,0.9-0.7,1.6-1.5,1.6h-14.7c-0.8,0-1.5-0.7-1.5-1.6v-19.1
	C292.6,505.2,293.3,504.6,294.1,504.6z"/>
<path class="st3" d="M514.5,213.7c-16.6,0-30,13.4-30,30s13.4,30,30,30s30-13.4,30-30S531,213.7,514.5,213.7z"/>
<path class="st4" d="M388.7,500.8l-3.8,13.9l-12.6,10v2.1h29.3h29.3v-2.1l-12.6-10l-3.8-13.9l-12.9-0.2L388.7,500.8L388.7,500.8z"/>
<path class="st5" d="M372.3,525.7v1.1h29.3h29.3v-1.1H372.3L372.3,525.7z"/>
<g>
	<path class="st6" d="M336.2,391.7h130.6c4.3,0,7.8,3.7,7.8,8.1v83.7H328.4v-83.7C328.4,395.4,331.9,391.7,336.2,391.7L336.2,391.7z
		"/>
	<path class="st7" d="M333.7,478.1h135.6v-78.2c0-1.4-1.1-2.6-2.5-2.6H336.2c-1.4,0-2.5,1.2-2.5,2.6
		C333.7,399.9,333.7,478.1,333.7,478.1z"/>
	<path class="st5" d="M474.6,483.6v8.9c0,4.5-3.9,8.1-8.6,8.1H337c-4.7,0-8.6-3.7-8.6-8.1v-8.9H474.6z"/>
</g>
<path class="st2" d="M188.1,534.4H662v-7.6H188.1V534.4z"/>
<path class="st5" d="M269,454.6c2.9-3,2.9-7.9-0.1-11c-2-2.1-4.8-2.8-7.3-2.1l-2.4-2.6c-0.3-0.3-0.8-0.3-1.1,0l-3.9,4
	c-0.3,0.3-0.3,0.8,0,1.1l2.3,2.4c-0.9,2.7-0.3,5.9,1.8,8.1C261.3,457.5,266.1,457.6,269,454.6L269,454.6z"/>
<path class="st8" d="M259.4,433.1l-5.6-5.8c-1.9-2-5-2-7,0l-4,4.1c-1.9,2-1.9,5.3,0,7.3l5.6,5.8c-1.3,5.2-0.1,11.3,5.2,16.8
	l21.9-22.6C270.3,433.1,264.4,431.8,259.4,433.1L259.4,433.1z"/>
<path class="st7" d="M247.5,434.2l-22.6,40.9v47.2h7.6l-3.2-47.2l21.2-39.3C251.2,434,248.5,432.7,247.5,434.2z"/>
<g>
	<path class="st8" d="M255.4,522.3h-39.6c-2.9,0-6.5,4.6-3.5,4.6h45.5C260.7,526.9,258.3,522.3,255.4,522.3z"/>
	<path class="st8" d="M227.1,471.9c-1.7,0-3.2,1.5-3.2,3.3s1.4,3.3,3.2,3.3c1.7,0,3.2-1.5,3.2-3.3
		C230.2,473.4,228.8,471.9,227.1,471.9z"/>
</g>
<path class="st9" d="M251.5,520.9l-8.1-1.4v2.8h8.1V520.9z"/>
<path class="st5" d="M292.7,504.6h14.7c0.8,0,1.5,0.7,1.5,1.6v19.1c0,0.9-0.7,1.6-1.5,1.6h-14.7c-0.8,0-1.5-0.7-1.5-1.6v-19.1
	C291.2,505.2,291.9,504.6,292.7,504.6z"/>
<g>
	<path class="st10" d="M308.9,508.9h4.1c1.4,0,2.5,1,2.5,2.2v10.6c0,1.2-1.1,2.2-2.5,2.2h-4.1v-1.8h4.1c0.2,0,0.7-0.2,0.7-0.5V511
		c0-0.3-0.5-0.5-0.7-0.5h-4.1V508.9z"/>
	<path class="st10" d="M306.9,526.8v-22.2h0.5c0.8,0,1.5,0.7,1.5,1.5v19.2c0,0.8-0.7,1.5-1.5,1.5H306.9z"/>
</g>
<path class="st11" d="M297.1,515h4.4v4.1h-4.4V515z"/>
<path class="st11" d="M297.1,515h4.4l-0.2-0.9h-3.8L297.1,515z"/>
<path class="st12" d="M299.5,504.6v10c0,0.1-0.3,0.1-0.3,0v-10L299.5,504.6L299.5,504.6z"/>
<path class="st7" d="M188.1,537.1H662v-2.7H188.1V537.1z"/>
<path class="st13" d="M401.5,494.3c1.4,0,2.5-1.2,2.5-2.6s-1.1-2.6-2.5-2.6s-2.5,1.2-2.5,2.6C399.1,493.2,400.2,494.3,401.5,494.3z"
	/>
<path class="st14" d="M550.7,499.1h47.7v1.7c-2.3,3-1.9,6.3,0,8.8v1.7h-47.7C543.2,511.2,543.2,499.1,550.7,499.1z"/>
<path class="st5" d="M598.3,509.6c-1.9-2.9-2.1-5.9,0-8.8h-47.7c-2.2,0-4.1,2-4.1,4.4s1.8,4.4,4.1,4.4H598.3L598.3,509.6z"/>
<g>
	<path class="st10" d="M597.9,501.5c0.1-0.2,0.3-0.5,0.5-0.7h-47.7c-4.6,0-5.8,6.8-1.2,8.6c-3.1-1.6-2-7,1.3-7.9H597.9L597.9,501.5z
		"/>
	<path class="st10" d="M597.4,502.3h-49.8c0.1-0.1,0.2-0.2,0.3-0.3h49.7C597.5,502.1,597.5,502.2,597.4,502.3L597.4,502.3z
		 M547.2,502.9L547.2,502.9c-0.1,0.1-0.1,0.2-0.2,0.3h50.1c0-0.1,0.1-0.2,0.1-0.3H547.2z M546.8,503.9L546.8,503.9
		c0,0.1-0.1,0.2-0.1,0.3h50.2c0-0.1,0-0.2,0.1-0.3H546.8z M546.6,504.8L546.6,504.8c0,0.1,0,0.2,0,0.3l0,0h50.2c0-0.1,0-0.2,0-0.3
		H546.6L546.6,504.8z M546.6,505.8L546.6,505.8c0,0.1,0,0.2,0.1,0.3h50.2c0-0.1,0-0.2,0-0.3H546.6z M546.9,506.8L546.9,506.8
		c0,0.1,0.1,0.2,0.1,0.3h50c0-0.1-0.1-0.2-0.1-0.3H546.9z M547.4,507.7L547.4,507.7c0.1,0.1,0.2,0.2,0.2,0.3h49.8
		c-0.1-0.1-0.1-0.2-0.1-0.3H547.4L547.4,507.7z M548.2,508.7L548.2,508.7c0.2,0.1,0.3,0.2,0.5,0.3H598c-0.1-0.1-0.1-0.2-0.2-0.3
		H548.2z"/>
</g>
<path class="st11" d="M602.4,511.2h-55.3v2.1c2.6,3.8,2.2,8.1,0,11.3v2.1h55.3C611.1,526.8,611.1,511.2,602.4,511.2L602.4,511.2z"/>
<path class="st5" d="M547.1,524.6c2.2-3.8,2.4-7.5,0-11.3h55.3c2.6,0,4.7,2.5,4.7,5.6s-2.1,5.6-4.7,5.6h-55.3V524.6z"/>
<g>
	<path class="st10" d="M547.7,514.3c-0.2-0.3-0.3-0.6-0.5-0.9h55.3c5.3,0,6.8,8.7,1.4,11c3.6-2,2.3-9-1.5-10.1H547.7z"/>
	<path class="st10" d="M548.2,515.4H606c-0.1-0.1-0.2-0.3-0.3-0.4H548C548.1,515.1,548.2,515.2,548.2,515.4L548.2,515.4z
		 M606.5,516.2L606.5,516.2c0.1,0.1,0.1,0.3,0.2,0.4h-58.1c0-0.1-0.1-0.3-0.1-0.4H606.5L606.5,516.2z M607,517.4L607,517.4
		c0,0.1,0.1,0.3,0.1,0.4h-58.2c0-0.1,0-0.3-0.1-0.4H607z M607.1,518.6L607.1,518.6c0,0.1,0,0.3,0,0.4l0,0h-58.2c0-0.1,0-0.3,0-0.4
		H607.1L607.1,518.6z M607.1,519.8L607.1,519.8c0,0.1,0,0.3-0.1,0.4h-58.2c0-0.1,0-0.3,0-0.4H607.1L607.1,519.8z M606.8,521.1
		L606.8,521.1c0,0.1-0.1,0.3-0.2,0.4h-58.1c0-0.1,0.1-0.3,0.1-0.4H606.8L606.8,521.1z M606.3,522.3L606.3,522.3
		c-0.1,0.1-0.2,0.3-0.3,0.4h-57.8c0.1-0.1,0.1-0.3,0.2-0.4H606.3z M605.2,523.5L605.2,523.5c-0.2,0.2-0.4,0.3-0.6,0.4h-57.1
		c0.1-0.1,0.2-0.3,0.2-0.4H605.2z"/>
</g>
<path class="st8" d="M594,486.9h-36.8v1.7c1.7,3,1.5,6.3,0,8.8v1.7H594C599.8,499.1,599.8,486.9,594,486.9L594,486.9z"/>
<path class="st5" d="M557.2,497.4c1.5-2.9,1.6-5.9,0-8.8H594c1.7,0,3.2,2,3.2,4.4s-1.4,4.4-3.2,4.4H557.2L557.2,497.4z"/>
<g>
	<path class="st10" d="M557.6,489.3c-0.1-0.2-0.2-0.5-0.4-0.7H594c3.5,0,4.5,6.8,1,8.6c2.4-1.6,1.5-7-1-7.9H557.6z"/>
	<path class="st10" d="M557.9,490.1h38.5c-0.1-0.1-0.1-0.2-0.2-0.3h-38.4C557.9,489.9,557.9,490,557.9,490.1z M596.7,490.7
		L596.7,490.7c0,0.1,0.1,0.2,0.1,0.3h-38.6c0-0.1-0.1-0.2-0.1-0.3H596.7z M597,491.7L597,491.7c0,0.1,0,0.2,0.1,0.3h-38.7
		c0-0.1,0-0.2,0-0.3H597L597,491.7z M597.2,492.7L597.2,492.7c0,0.1,0,0.2,0,0.3l0,0h-38.7c0-0.1,0-0.2,0-0.3H597.2L597.2,492.7z
		 M597.1,493.6L597.1,493.6c0,0.1,0,0.2,0,0.3h-38.7c0-0.1,0-0.2,0-0.3H597.1z M597,494.6L597,494.6c0,0.1-0.1,0.2-0.1,0.3h-38.6
		c0-0.1,0-0.2,0.1-0.3H597L597,494.6z M596.6,495.5L596.6,495.5c-0.1,0.1-0.1,0.2-0.2,0.3h-38.5c0-0.1,0.1-0.2,0.1-0.3H596.6z
		 M595.9,496.5L595.9,496.5c-0.1,0.1-0.2,0.2-0.4,0.3h-38c0.1-0.1,0.1-0.2,0.2-0.3H595.9z"/>
</g>
<path class="st2" d="M514.5,211.1c-16.6,0-30,13.4-30,30s13.4,30,30,30c16.6,0,30-13.4,30-30S531,211.1,514.5,211.1z"/>
<path class="st5" d="M512.6,243.1c0.5,0.5,1.1,0.8,1.9,0.8c1.4,0,2.5-1.1,2.6-2.5l13-13l-2.8-2.8l-12.8,12.8l-8.6-8.6l-2.8,2.8
	l8.8,8.8C511.9,242.1,512.2,242.7,512.6,243.1z M514.5,215.3c14.3,0,26,11.7,26,26s-11.7,26-26,26s-26-11.7-26-26
	S500.1,215.3,514.5,215.3z"/>
<path class="st7" d="M513.9,241.1l-12.8,13.3c-0.4,0.4-0.4,1.1,0,1.5c0.2,0.2,0.5,0.3,0.7,0.3c0.3,0,0.5-0.1,0.7-0.3l12.8-13.3
	L513.9,241.1z"/>
<path class="st15" d="M514.8,224.6c-0.6,0-1-0.5-1-1v-4.2c0-0.6,0.4-1,1-1s1,0.5,1,1v4.2C515.8,224.2,515.3,224.6,514.8,224.6z"/>
<path class="st15" d="M536.1,243.7h-4c-0.6,0-1-0.5-1-1s0.4-1,1-1h4c0.6,0,1,0.5,1,1S536.6,243.7,536.1,243.7z"/>
<path class="st15" d="M514.8,265c-0.6,0-1-0.5-1-1v-4.2c0-0.6,0.4-1,1-1s1,0.5,1,1v4.2C515.8,264.5,515.3,265,514.8,265z"/>
<path class="st15" d="M496.5,243.7h-4c-0.6,0-1-0.5-1-1s0.4-1,1-1h4c0.6,0,1,0.5,1,1S497,243.7,496.5,243.7z"/>
<path class="st16" d="M743.5,235.6v-39.3H642V233c-2.8,4.1-5.1,8.5-7,13.2v47.4c2.2,5.6,5.1,10.9,8.7,15.6H740
	c4.2-5.6,7.6-12,9.8-18.9v-40.9C748.2,244.5,746.1,239.9,743.5,235.6z"/>
<path class="st17" d="M635.1,271.5v22c2.2,5.6,5.1,10.9,8.7,15.6H740c1.2-1.6,2.4-3.3,3.4-5v-32.5H635.1V271.5z"/>
<path class="st5" d="M696.4,225.4c7.5,0,13.7,6.4,13.7,14.2c0,7.9-6.1,14.2-13.7,14.2c-7.5,0-13.7-6.4-13.7-14.2
	C682.8,231.8,688.9,225.4,696.4,225.4z"/>
<rect x="630.8" y="180.8" class="st18" width="123.3" height="8.9"/>
<rect x="632.9" y="189.6" class="st19" width="119" height="6.6"/>
<rect x="743.5" y="196.3" class="st18" width="6.4" height="97.4"/>
<polygon class="st20" points="641.4,196.3 641.4,202.9 707.9,202.9 723.7,202.9 743.5,202.9 743.5,196.3 "/>
<rect x="630.8" y="293.6" class="st18" width="123.3" height="8.9"/>
<rect x="632.9" y="302.5" class="st19" width="119" height="6.6"/>
<rect x="635.1" y="196.3" class="st18" width="6.4" height="97.4"/>
<rect x="647.8" y="202.9" class="st21" width="89.3" height="32.3"/>
<polygon class="st22" points="681.8,202.9 647.8,230.7 647.8,235.1 654.2,235.1 692.4,202.9 "/>
<polygon class="st23" points="700.9,202.9 662.7,235.1 666.9,235.1 673.3,235.1 711.6,202.9 "/>
<polygon class="st20" points="642,234.9 642,242.4 708.1,242.4 723.9,242.4 743.5,242.4 743.5,234.9 "/>
<polygon class="st20" points="641.4,196.3 641.4,242.4 645.6,242.4 646.6,242.4 647.8,242.4 647.8,196.3 "/>
<polygon class="st20" points="737.1,196.3 737.1,242.7 741.2,242.7 742.2,242.7 743.5,242.7 743.5,196.3 "/>
<path class="st12" d="M742.5,257.4v2.2c-1.3,0-0.8,0.1-1.2-0.3c0,0.2,0,0.2-0.2,0.3l-0.2,0.1h-0.1c-0.2,0.1-0.1,0.4-0.1,0.6
	c-0.7,0.1-1.5,0.2-2.2,0.3c-0.6,0.1-0.2,0.1-0.7,0.2l0,0l0,0l0,0v0.2l0,0l0,0v0.4l0,0v0.5l0,0v0.4l0,0l0,0l0,0v0.3l0,0l0.2,0.2h-0.7
	l-0.1-2h-2.4v0.9h-1.3c0-0.4,0-1.8-0.1-1.9h-1.8c0-2.7,0.5-5.3,0.8-8l-2.5,0.2l0,0l0,0c-1.2,0.1-2.1,0.1-3.2,0l-0.2,0.3l-2.4-0.4
	c0.2,1.2,0.8,3.6,0.6,4.6c-0.1,0.1-0.6,0.2-0.8,0.4c-0.5,0.4-0.4-0.1-0.4,1.1c0,0.5,0.2,0.6-0.3,0.7c-0.4-0.3-0.1-9.9-0.1-11h-1.9
	l0.7-1.7c-0.7-0.5-1.2-0.3-2.4-0.3c0-0.7,0-3.1-0.4-3.6l-0.3,3.6c-1.5,0-1.5-0.1-2.5,0.3l0.7,1.7h-1.9v15.7c-0.4,0-0.2,0-0.4-0.1
	s-0.1-0.1-0.1-0.3c0-0.1,0,0,0-0.1l-0.1-0.2c0-0.3,0.1,0,0-0.3V262c-0.1-0.2,0.1-0.2,0-0.4v-0.1c0-0.2,0.1,0.1,0.1-0.2l-0.1-0.2
	c0-0.2,0.1,0,0.1-0.3c0,0-0.1,0,0-0.2c0.2-0.6,0,0-0.1-0.5c-0.4,0-0.5,0-0.8-0.1c-0.2,0,0.1,0-0.4-0.1c-0.2,0-0.4,0-0.6,0
	c0.1-1.5,0.4-2.5-0.1-4.1s-1.2-2.1-2-3.4l-0.6,0.1l-0.4-0.6c-0.5,0.1-1.5,0.5-1.9,0.6l-0.2-2.3L707,253c-1.2,0.5-2.3,0.5-2.7,1.3
	c-0.2,0.4-0.1,0.4-0.8,0.5v-5.9c-0.5,0.1-0.8,0.3-1.2,0.4c-0.2-0.8,0-3.5-0.3-3.9l-0.3,4.1c-0.6,0.2-4.4,1.4-4.5,1.7
	c-0.1,0.4,0,5.6,0,6.5h-0.7c-0.1,0.7-0.3-0.1-0.5,0.6c0,0.1,0,0.3,0,0.4c-0.1,0.3-0.3,0.2-0.3,0.6s-0.2,0.3-0.3,0.7
	c-0.1,0.3,0.2,0.2-0.2,0.3c-0.4-0.4-0.1-8.3-0.1-9.5c-0.2-0.1-0.1,0-0.2-0.1l-0.2-1.5c-0.4-0.1-0.2,0-0.6-0.1v-1.6h-0.8v-0.6h-1.4
	l-0.1-2c0,0.1-0.2,1.7-0.2,2h-1.2v0.5h-0.8v3.2c-0.6,0-0.4,0-0.5,0.1c-0.1,0.3,0,5.9,0,7.2c0,0.2,0.1,0.5,0,0.8
	c-0.1,0.2,0.1,0.1-0.2,0.2c-0.4-0.1-0.2-0.3-0.3-0.5s0-0.1-0.2-0.2c-0.3-0.2-0.9-0.2-1.3-0.1c0,0,0,0-0.1,0l-0.1,0.1
	c-0.3,0.2-0.1,0.4-0.2,0.7l-1,0.1l0.1,0.4l0,0l0,0c0,0.1-0.1,0-0.1,0.3c-0.1,0.2,0,0.8,0,1v1.5c0,0.5,0.2,0.2-0.2,0.5
	c-0.5-0.1-0.3,0-0.3-0.9c0-0.3,0-0.6,0-1l-0.5-0.1c0-1.1,0.2-1.5-1.7-2c-1.1,0.3-1,0.4-1.6,0.8c-0.2,0.1,0,0.9-0.1,1.1
	c0,0.1-0.2,0.1-0.4,0.2c-0.4,0.1-0.7,0.1-1.2,0.1V260h-1.4v-2.4H676v1c-0.9,0-0.6,0-1.1,0.3c-0.1,0.1-0.2,0.1-0.3,0.2
	c0,0.2,0.1,0.5-0.1,0.7c-0.2,0.2-0.1-0.2-0.2,0.3c0,0.1,0,0.3,0,0.4c-0.2,0.6-0.3-0.1-0.3,1.4l-0.1-0.1c0,0,0,0,0-0.1c0,0,0,0,0-0.1
	s0-0.2,0-0.2h-1.8v0.6h-0.9c0.2-0.4,0.1-0.9,0.1-1.3c0-0.6-0.4-1.7,0-2.5c-0.4-0.1-0.4-0.3-0.7-0.5l-0.2-0.1l-0.6-0.3h-0.1h-0.2
	c-0.3,0.1-0.2,0-0.5,0.1c-0.3,0.2,0.1,0-0.2,0.2c-0.8,0.1-2.6,0.2-3.3,0.4l-0.4,0.2c0.1,0.2,0.4,4.8,0.1,4.9c-0.4,0.1,0.1,0-0.2,0.1
	c-0.2-2.4,0.4-1.5-0.8-2.1c0,0,0.2-3.7,0.2-3.9c-3.1,0-0.7-0.2-2.6-0.3c-0.5,0-0.9-0.1-1.4-0.1v-1.5l-0.4-0.1h-0.1l-0.2-1.7
	c-0.1-0.3-0.2-0.1-0.5-0.3c-0.2-0.2-0.2-0.2-0.6-0.3c-0.5-0.2-0.9-0.3-1.4-0.5c-1.7,0.4-1.9,0.8-2.2,1c0,0,0,0-0.1,0l-0.3,0.1v1.7
	c-0.2,0.2,0,0-0.3,0.1c-0.2,0.1-0.1,0-0.4,0.1v4.1l-0.6,0.1c-0.1,0.5,0.1,1.5,0,2c-0.1,0.2,0.1,0.1-0.2,0.2
	c-0.4-0.1-0.3,0.1-0.3-0.7c0-0.6-0.2-2,0.2-2.4h-0.1c-0.1,0.1-0.4-0.3-0.3-0.7c0.1-0.4,0.3-0.2-0.3-0.7l-1.5-1.3c0,0,0,0-0.1,0
	l-1,0.9h-3.3c-0.1,0.5,0.2,1.1-0.2,1.4c-0.4,0.4,0,0.9-0.2,1.3c-0.2,0.3,0.1,0-0.4,0.2v3.1h-0.5c-0.3-0.2,0,0-0.1-0.2s0-0.1-0.2-0.2
	c-0.3-0.2-0.3,0.2-0.3-0.4c-0.6,0-0.5,0.1-0.7-0.1v-2.7h-1.3c0-0.5-0.3-0.4-0.3-0.9c0-1.4,0-1-0.3-1.2s0.1-0.2-0.6-0.2v18.3l102,0.2
	v-18.2L742.5,257.4z"/>
<polygon class="st24" points="743.5,273 641.4,273 641.4,275.5 743.5,275.6 "/>
<path class="st25" d="M743.5,272.6l-102,0.1v10.9c0.6,0,0.3,0,0.6-0.1c0.4-0.1,0.3,0.1,0.3-0.7c0-0.3,0.3-0.2,0.3-0.5h1.3v-1.6
	c0.2-0.1,0.1-0.1,0.7-0.1c0-0.3,0-0.2,0.3-0.2c0.1,0,0.1,0,0.2-0.1c0.1-0.1-0.2,0,0.1-0.1h0.5v1.9c0.5,0.1,0.3,0,0.4,0.1
	c0.1,0.2-0.2,0.5,0.2,0.8c0.3,0.2,0.1,0.6,0.2,0.9h3.3l1,0.5c0,0,0,0,0.1,0l1.5-0.8c0.6-0.3,0.4-0.2,0.3-0.4
	c-0.1-0.2,0.1-0.5,0.3-0.4h0.1c-0.4-0.2-0.2-1.1-0.2-1.4c0-0.5-0.1-0.3,0.3-0.4c0.3,0,0.2,0,0.2,0.1c0.2,0.3-0.1,0.9,0,1.2l0.6,0.1
	v2.4c0.3,0.1,0.2,0,0.4,0c0.3,0,0.1,0,0.3,0.1v1l0.3,0.1c0,0,0,0,0.1,0c0.2,0.1,0.5,0.3,2.2,0.6c0.5-0.1,0.9-0.2,1.4-0.3
	c0.3-0.1,0.4-0.1,0.6-0.2c0.3-0.2,0.4,0,0.5-0.2l0.2-1h0.1h0.4V284c0.5,0,0.9,0,1.4-0.1c1.9-0.1-0.6-0.2,2.6-0.2
	c0-0.2,0.2-0.1-0.3-0.1l0.3-0.1c-0.2,0,0,0-0.3-0.1c0,0,0,0,0.1,0l0.3-0.1c-0.2-0.1,0.1,0-0.4-0.1l0.4-0.1l-0.3-0.1
	c0.3-0.1,0.2,0,0.3-0.1l-0.3-0.1c0,0,0,0-0.1,0h0.2l-0.2-0.2l0.3-0.1h0.1c-0.1-0.1,0,0-0.2-0.1l0.2-0.1l-0.3-0.1l0.4-0.1
	c-0.1-0.1,0,0-0.2-0.1l0.1-0.1c0,0,0,0,0.1,0c-0.2-0.1,0.1,0-0.4-0.1c0.4-0.1,0.1,0,0.4-0.1v-0.2h-0.1l-0.2-0.1c0,0,0.6-0.2,0.7-0.2
	h0.1c-0.2-0.2,0-0.7,0-1.1c0.3,0.1-0.2,0,0.2,0c0.1,0,0.1,0,0.2,0l0,0c0,0,0,0-0.1,0l-0.2,0.1l0.3,0.1h-0.2h-0.2l0.2,0.1
	c0.1,0.1,0,0,0,0.1v0.5l0,0v0.1l0,0l0,0l0,0v0.2l0,0h-0.1h0.1l0.3,0.1c-0.3,0.1-0.1,0-0.3,0.1c0.1,0,0,0,0.3,0.1c0,0-0.2,0-0.2,0.1
	v0.2l0,0c0,0.1-0.1,0.1-0.2,0.2c0.2,0.2,0.3,0,0,0.2c0.2,0.1,0,0,0.4,0.1l-0.3,0.1l0.2,0.1c0,0.1-0.1,0-0.2,0.1l0.4,0.1
	c0.7,0.2,2.5,0.2,3.3,0.3c0.3,0.1-0.1,0,0.2,0.1c0.2,0.1,0.1,0,0.5,0.1h0.2h0.1l0.6-0.2c0,0,0.2,0,0.2-0.1c0.3-0.1,0.3-0.2,0.7-0.3
	c-0.1-0.1,0.1,0-0.3-0.1l0.3-0.1l-0.3-0.1h0.1h0.1c0.1,0,0,0,0.1-0.1c-0.2-0.1,0.1,0-0.3-0.1l0.2-0.1c0.1,0,0,0,0.1-0.1
	c-0.2-0.1,0.2,0-0.3-0.1l0.3-0.1l-0.3-0.1c0.4-0.1,0.2,0,0.3-0.1c-0.1-0.1,0,0-0.1-0.1l0.1-0.1c0,0,0,0,0.1,0c-0.1-0.1,0,0-0.1-0.1
	l-0.2-0.1c0.5-0.1,0.3,0,0.3-0.2c0-0.3,0.1-0.5-0.1-0.8h0.9v0.4h1.8v-0.1l0,0l0,0l0.1-0.1c0,0.9,0.1,0.5,0.3,0.8c0,0.1,0,0.2,0,0.2
	c0.1,0.2,0,0,0.2,0.1s0.1,0.3,0.1,0.4s0.2,0,0.3,0.1c0.5,0.2,0.2,0.1,1.1,0.2v0.6h2.3v-1.4h1.4v-0.5c0.5,0,0.9,0,1.2,0.1
	c0.2,0,0.3,0,0.4,0.1c0.1,0.1-0.2,0.6,0.1,0.7c0.7,0.2,0.5,0.3,1.6,0.4c1.9-0.3,1.8-0.5,1.7-1.2l0.5-0.1c0-0.2,0-0.4,0-0.6
	c0-0.5-0.2-0.4,0.3-0.5c0.4,0.2,0.2,0,0.2,0.3v0.9c0,0.2-0.1,0.5,0,0.6s0.1,0.1,0.1,0.2l0,0l0,0l-0.1,0.2h1c0.1,0.2-0.1,0.3,0.2,0.4
	h0.1c0,0,0,0,0.1,0c0.3,0.1,1,0.1,1.3,0c0.2-0.1,0.2,0,0.2-0.1c0.1-0.1-0.1-0.3,0.3-0.3c0.3,0.1,0.1,0,0.2,0.1c0.1,0.1,0,0.3,0,0.5
	c0,0.8-0.1,4.1,0,4.3c0.1,0.1-0.2,0.1,0.5,0.1v1.9h0.8v0.3h1.2c0.1,0.1,0.2,1.1,0.2,1.2l0.1-1.2h1.4v-0.3h0.8V288
	c0.3-0.1,0.2,0,0.6-0.1l0.2-0.9c0.1,0,0.1,0,0.2,0c0.1-0.7-0.2-5.5,0.1-5.7c0.4,0.1,0.2,0,0.2,0.2c0.1,0.2,0.3,0.2,0.3,0.4
	c0,0.3,0.2,0.2,0.3,0.4c0,0.1,0,0.2,0,0.2c0.1,0.4,0.4-0.1,0.5,0.3h0.7c0,0.6-0.1,3.7,0,3.9c0.2,0.1,4,0.9,4.5,1l0.3,2.5
	c0.3-0.3,0.1-1.9,0.3-2.3c0.4,0.1,0.7,0.2,1.2,0.2v-3.5c0.7,0.1,0.6,0.1,0.8,0.3c0.5,0.5,1.6,0.5,2.7,0.8l0.3,1.5l0.2-1.4
	c0.5,0,1.4,0.3,1.9,0.3l0.4-0.3l0.6,0.1c0.8-0.8,1.5-1.1,2-2s0.2-1.5,0.1-2.4c0.2,0,0.4,0,0.6,0c0.5,0,0.2,0,0.4,0
	c0.3,0,0.4,0,0.8,0c0.1-0.3,0.3,0.1,0.1-0.3c-0.1-0.2,0-0.1,0-0.1c0-0.2-0.1,0-0.1-0.2l0.1-0.1c0.1-0.2,0,0-0.1-0.1v-0.1
	c0.1-0.1-0.1-0.1,0-0.3V280c0.1-0.2,0,0,0-0.2l0.1-0.1c0-0.1,0,0,0-0.1c-0.1-0.1-0.1-0.1,0.1-0.2c0.2-0.1,0-0.1,0.4-0.1v9.4h1.9
	l-0.7,1c1,0.2,1,0.2,2.5,0.2l0.3,2.1c0.4-0.3,0.3-1.7,0.4-2.1c1.2,0,1.8,0.1,2.4-0.2l-0.7-1h1.9c0.1-0.7-0.3-6.4,0.1-6.6
	c0.5,0,0.3,0.1,0.3,0.4c0,0.7-0.1,0.4,0.4,0.6c0.2,0.1,0.7,0.2,0.8,0.2c0.2,0.6-0.4,2.1-0.6,2.8l2.4-0.3l0.2,0.2
	c1.2-0.1,2.1-0.1,3.2,0l0,0l0,0l2.5,0.1c-0.4-1.6-0.9-3.1-0.8-4.7h1.8c0.1-0.1,0.1-0.9,0.1-1.1h1.3v0.5h2.4l0.1-1.2h0.7L738,280l0,0
	v0.2l0,0l0,0l0,0v0.2l0,0v0.3l0,0v0.3l0,0l0,0v0.1l0,0l0,0l0,0c0.5,0.1,0,0,0.7,0.1s1.5,0.1,2.2,0.2c0,0.1-0.1,0.3,0.1,0.4h0.1h0.2
	c0.3,0.1,0.2,0,0.2,0.2c0.3-0.3-0.1-0.2,1.2-0.2v1.3h0.9v-10.5H743.5z"/>
<path class="st26" d="M707.1,293.6c-2.2-4.8-6.9-8.2-12.3-8.2c-5.5,0-10.2,3.3-12.3,8.2H707.1z"/>
<g>
	<path class="st8" d="M222.8,294.3h-10.2c-1,0-1.8-0.9-1.8-2v-46.2c0-1.1,0.8-2,1.8-2h10.2c1,0,1.8,0.9,1.8,2v46.2
		C224.6,293.4,223.8,294.3,222.8,294.3z"/>
	<path class="st8" d="M238.3,294.3h-10.2c-1,0-1.8-0.9-1.8-2v-46.2c0-1.1,0.8-2,1.8-2h10.2c1,0,1.8,0.9,1.8,2v46.2
		C240.1,293.4,239.3,294.3,238.3,294.3z"/>
	<path class="st8" d="M253.7,294.3h-10.2c-1,0-1.8-0.9-1.8-2v-46.2c0-1.1,0.8-2,1.8-2h10.2c1,0,1.8,0.9,1.8,2v46.2
		C255.5,293.4,254.7,294.3,253.7,294.3z"/>
</g>
<path class="st5" d="M222.5,250.1v16.2c0,0.7-0.5,1.2-1.2,1.2h-7.1c-0.7,0-1.2-0.5-1.2-1.2v-16.2c0-0.7,0.5-1.2,1.2-1.2h7.1
	C222,248.9,222.5,249.4,222.5,250.1z"/>
<path class="st18" d="M221.3,248.9h-7.1c-0.5,0-0.9,0.3-1.1,0.7c0.1-0.1,0.3-0.1,0.5-0.1h7.1c0.7,0,1.2,0.5,1.2,1.2V267
	c0,0.2,0,0.3-0.1,0.5c0.4-0.2,0.7-0.6,0.7-1.1v-16.3C222.5,249.5,222,248.9,221.3,248.9z"/>
<ellipse class="st18" cx="217.7" cy="284.4" rx="4.5" ry="5"/>
<path class="st27" d="M221,284.4c0,2-1.4,3.6-3.2,3.6c-1,0-1.9-0.5-2.5-1.3l0,0c-0.5-0.6-0.7-1.4-0.7-2.3c0-2,1.5-3.6,3.2-3.6
	c1.5,0,2.8,1.2,3.1,2.8l0,0C220.9,283.8,221,284.1,221,284.4z"/>
<path class="st7" d="M221,284.4c0,2-1.4,3.6-3.2,3.6c-1,0-1.9-0.5-2.5-1.3l0,0c-0.1-0.3-0.1-0.6-0.1-0.9c0-2,1.5-3.6,3.2-3.6
	c1,0,1.9,0.5,2.5,1.3l0,0C220.9,283.8,221,284.1,221,284.4z"/>
<path class="st2" d="M222.5,265.5v1.3c0,0.4-0.5,0.7-1.2,0.7h-7.1c-0.7,0-1.2-0.3-1.2-0.7v-1.3H222.5z"/>
<g>
	<path class="st2" d="M220.7,252.1h-6c-0.3,0-0.6-0.2-0.6-0.5l0,0c0-0.3,0.3-0.5,0.6-0.5h6c0.3,0,0.6,0.2,0.6,0.5l0,0
		C221.3,251.9,221,252.1,220.7,252.1z"/>
	<path class="st2" d="M220.7,254.2h-6c-0.3,0-0.6-0.2-0.6-0.5l0,0c0-0.3,0.3-0.5,0.6-0.5h6c0.3,0,0.6,0.2,0.6,0.5l0,0
		C221.3,253.9,221,254.2,220.7,254.2z"/>
	<path class="st2" d="M220.7,256.2h-6c-0.3,0-0.6-0.2-0.6-0.5l0,0c0-0.3,0.3-0.5,0.6-0.5h6c0.3,0,0.6,0.2,0.6,0.5l0,0
		C221.3,256,221,256.2,220.7,256.2z"/>
	<path class="st2" d="M220.7,258.3h-6c-0.3,0-0.6-0.2-0.6-0.5l0,0c0-0.3,0.3-0.5,0.6-0.5h6c0.3,0,0.6,0.2,0.6,0.5l0,0
		C221.3,258.1,221,258.3,220.7,258.3z"/>
</g>
<path class="st5" d="M238,250.1v16.2c0,0.7-0.5,1.2-1.2,1.2h-7.1c-0.7,0-1.2-0.5-1.2-1.2v-16.2c0-0.7,0.5-1.2,1.2-1.2h7.1
	C237.4,248.9,238,249.4,238,250.1z"/>
<path class="st18" d="M236.8,248.9h-7.1c-0.5,0-0.9,0.3-1.1,0.7c0.1-0.1,0.3-0.1,0.5-0.1h7.1c0.7,0,1.2,0.5,1.2,1.2V267
	c0,0.2,0,0.3-0.1,0.5c0.4-0.2,0.7-0.6,0.7-1.1v-16.3C238,249.5,237.4,248.9,236.8,248.9z"/>
<ellipse class="st18" cx="233.2" cy="284.4" rx="4.5" ry="5"/>
<path class="st27" d="M236.4,284.4c0,2-1.4,3.6-3.2,3.6c-1,0-1.9-0.5-2.5-1.3l0,0c-0.5-0.6-0.7-1.4-0.7-2.3c0-2,1.5-3.6,3.2-3.6
	c1.5,0,2.8,1.2,3.1,2.8l0,0C236.4,283.8,236.4,284.1,236.4,284.4z"/>
<path class="st7" d="M236.4,284.4c0,2-1.4,3.6-3.2,3.6c-1,0-1.9-0.5-2.5-1.3l0,0c-0.1-0.3-0.1-0.6-0.1-0.9c0-2,1.5-3.6,3.2-3.6
	c1,0,1.9,0.5,2.5,1.3l0,0C236.4,283.8,236.4,284.1,236.4,284.4z"/>
<path class="st2" d="M238,265.5v1.3c0,0.4-0.5,0.7-1.2,0.7h-7.1c-0.7,0-1.2-0.3-1.2-0.7v-1.3H238z"/>
<g>
	<path class="st2" d="M236.2,252.1h-6c-0.3,0-0.6-0.2-0.6-0.5l0,0c0-0.3,0.3-0.5,0.6-0.5h6c0.3,0,0.6,0.2,0.6,0.5l0,0
		C236.8,251.9,236.5,252.1,236.2,252.1z"/>
	<path class="st2" d="M236.2,254.2h-6c-0.3,0-0.6-0.2-0.6-0.5l0,0c0-0.3,0.3-0.5,0.6-0.5h6c0.3,0,0.6,0.2,0.6,0.5l0,0
		C236.8,253.9,236.5,254.2,236.2,254.2z"/>
	<path class="st2" d="M236.2,256.2h-6c-0.3,0-0.6-0.2-0.6-0.5l0,0c0-0.3,0.3-0.5,0.6-0.5h6c0.3,0,0.6,0.2,0.6,0.5l0,0
		C236.8,256,236.5,256.2,236.2,256.2z"/>
	<path class="st2" d="M236.2,258.3h-6c-0.3,0-0.6-0.2-0.6-0.5l0,0c0-0.3,0.3-0.5,0.6-0.5h6c0.3,0,0.6,0.2,0.6,0.5l0,0
		C236.8,258.1,236.5,258.3,236.2,258.3z"/>
</g>
<path class="st5" d="M253.4,250.1v16.2c0,0.7-0.5,1.2-1.2,1.2h-7.1c-0.7,0-1.2-0.5-1.2-1.2v-16.2c0-0.7,0.5-1.2,1.2-1.2h7.1
	C252.9,248.9,253.4,249.4,253.4,250.1z"/>
<path class="st18" d="M252.2,248.9h-7.1c-0.5,0-0.9,0.3-1.1,0.7c0.1-0.1,0.3-0.1,0.5-0.1h7.1c0.7,0,1.2,0.5,1.2,1.2V267
	c0,0.2,0,0.3-0.1,0.5c0.4-0.2,0.7-0.6,0.7-1.1v-16.3C253.4,249.5,252.9,248.9,252.2,248.9z"/>
<ellipse class="st18" cx="248.6" cy="284.4" rx="4.5" ry="5"/>
<path class="st27" d="M251.9,284.4c0,2-1.4,3.6-3.2,3.6c-1,0-1.9-0.5-2.5-1.3l0,0c-0.5-0.6-0.7-1.4-0.7-2.3c0-2,1.5-3.6,3.2-3.6
	c1.5,0,2.8,1.2,3.1,2.8l0,0C251.8,283.8,251.9,284.1,251.9,284.4z"/>
<path class="st7" d="M251.9,284.4c0,2-1.4,3.6-3.2,3.6c-1,0-1.9-0.5-2.5-1.3l0,0c-0.1-0.3-0.1-0.6-0.1-0.9c0-2,1.5-3.6,3.2-3.6
	c1,0,1.9,0.5,2.5,1.3l0,0C251.8,283.8,251.9,284.1,251.9,284.4z"/>
<path class="st2" d="M253.4,265.5v1.3c0,0.4-0.5,0.7-1.2,0.7h-7.1c-0.7,0-1.2-0.3-1.2-0.7v-1.3H253.4z"/>
<g>
	<path class="st2" d="M251.6,252.1h-6c-0.3,0-0.6-0.2-0.6-0.5l0,0c0-0.3,0.3-0.5,0.6-0.5h6c0.3,0,0.6,0.2,0.6,0.5l0,0
		C252.2,251.9,251.9,252.1,251.6,252.1z"/>
	<path class="st2" d="M251.6,254.2h-6c-0.3,0-0.6-0.2-0.6-0.5l0,0c0-0.3,0.3-0.5,0.6-0.5h6c0.3,0,0.6,0.2,0.6,0.5l0,0
		C252.2,253.9,251.9,254.2,251.6,254.2z"/>
	<path class="st2" d="M251.6,256.2h-6c-0.3,0-0.6-0.2-0.6-0.5l0,0c0-0.3,0.3-0.5,0.6-0.5h6c0.3,0,0.6,0.2,0.6,0.5l0,0
		C252.2,256,251.9,256.2,251.6,256.2z"/>
	<path class="st2" d="M251.6,258.3h-6c-0.3,0-0.6-0.2-0.6-0.5l0,0c0-0.3,0.3-0.5,0.6-0.5h6c0.3,0,0.6,0.2,0.6,0.5l0,0
		C252.2,258.1,251.9,258.3,251.6,258.3z"/>
</g>
<ellipse class="st17" cx="293.7" cy="255.5" rx="19.5" ry="20.3"/>
<path class="st7" d="M311.6,272.7l-3.4-3.6l-1.4,1.4l2.1,2.1c-8.8,8.4-22.5,8.2-31-0.7c-4.2-4.4-6.6-10.3-6.6-16.5
	c0-5.9,2.1-11.5,5.9-15.8l2.1,2.1l1.4-1.4l-3.4-3.6l-0.7,0.7c-4.6,4.8-7.1,11.2-7.1,17.9c0,6.7,2.5,13.2,7.1,17.9
	c4.4,4.5,10.1,7.2,16.3,7.4V291c0,0.6,0.4,1,1,1c0.5,0,1-0.5,1-1v-10.2c6.1-0.3,11.9-2.9,16.3-7.4L311.6,272.7z"/>
<rect x="283.9" y="291" class="st7" width="19.5" height="3"/>
<path class="st28" d="M282.7,238.7c0,0.3,0,0.7,0,1.1c0,0.2,0,0.4,0.1,0.5c1.3,3,3,8,5.9,9.2c1.4,0.6,2.7,0.4,4.1,1
	c0.1,0.1,0.4,0.2,0.4,0.4c0.7,1,0.3,2.6,1,2.9c0.5,0.3,0.8,0.9,0.6,1.5c-0.9,2.4-0.1,5.1,2,7c1.5,1.3,0.3,4.4-1,6.8
	c-0.5,0.9,0.4,1.8,1.2,1.5c1.4-0.5,2.6-1.3,3.9-2.5c1.9-1.7,2.4-3.6,4.3-5.1c0,0,0,0,0-0.1c0.5-1.5,2-4.8,0.5-5.6
	c-1.4-0.8-2-3-3.4-4.6c-0.2-0.2-0.4-0.3-0.6-0.3c-1.7-0.2-2.5-1.6-3.7-0.7c-0.9,0.7-1.8,0.3-2.2-0.8c-0.1-0.4-0.3-0.7-0.9-0.9
	c-0.5-0.2-0.7-0.7-0.5-1.2l0,0c0.2-0.7-1.1-0.6-1.7-0.4c-0.2,0,0.4-0.7,0.2-0.6c-0.8,0.5-1.8-0.4-1.8-1.3c0-1,0.2-0.9,1.9-1.1
	c1.8-0.8,2.6-0.2,2.5,1.9c1.1,0.2,1.5-0.3,1.1-1.5c-0.1-0.3,0-0.7,0.2-1c2-2.7,3.7-3.9,6.7-5c0.5-0.2,0.7-0.6,0.6-1.1
	c-3.1-2.1-6.7-3.3-10.7-3.3C289.6,235.2,285.8,236.5,282.7,238.7z"/>
<path class="st29" d="M172,270.6c3.9,0.6,5.4,0.2,5.4,0.2s1.4,0.5,5.4-0.2c3.9-0.6,3.8-6.9,3.8-6.9s-1.4,1.5-4.3,2.1
	c-3,0.6-4.8,4-4.8,4s-1.9-3.4-4.8-4s-4.3-2.1-4.3-2.1S168.1,269.9,172,270.6z"/>
<g>
	<path class="st30" d="M186.6,263.7L186.6,263.7c0,0.1-1.6,5.7-9.2,6.1v0.9c0.1,0,1.5,0.5,5.4-0.2
		C186.7,269.9,186.6,263.7,186.6,263.7z"/>
	<path class="st30" d="M177.4,269.8c0,0-1.9-3.4-4.8-4s-4.3-2.1-4.3-2.1S169.8,269.3,177.4,269.8z"/>
</g>
<path class="st29" d="M172,260.1c3.9,0.6,5.4,0.2,5.4,0.2s1.4,0.5,5.4-0.2c3.9-0.6,3.8-6.9,3.8-6.9s-1.4,1.5-4.3,2.1
	c-3,0.6-4.8,4-4.8,4s-1.9-3.4-4.8-4s-4.3-2.1-4.3-2.1S168.1,259.4,172,260.1z"/>
<path class="st31" d="M187.6,239.9c-1.2-1.3-8,1.2-10,2.9s-2.2,5.8-1.3,6.8c0.8,0.9,5.1,1.3,7.1-0.4
	C185.3,247.5,188.8,241.2,187.6,239.9z"/>
<path class="st32" d="M183.3,249.1c2-1.7,5.4-7.9,4.3-9.2l-11.3,9.6C177,250.4,181.3,250.8,183.3,249.1z"/>
<path class="st31" d="M167.2,239.9c1.2-1.3,8,1.2,10,2.9s2.2,5.8,1.3,6.8c-0.8,0.9-5.1,1.3-7.1-0.4
	C169.5,247.5,166,241.2,167.2,239.9z"/>
<path class="st32" d="M177.2,242.8c-2-1.7-8.8-4.2-10-2.9l11.3,9.6C179.4,248.6,179.2,244.5,177.2,242.8z"/>
<g>
	<path class="st30" d="M186.6,253.2L186.6,253.2c0,0.1-1.6,5.7-9.2,6.1v0.9c0.1,0,1.5,0.5,5.4-0.2
		C186.7,259.4,186.6,253.2,186.6,253.2z"/>
	<path class="st30" d="M177.4,259.3c0,0-1.9-3.4-4.8-4s-4.3-2.1-4.3-2.1S169.8,258.8,177.4,259.3z"/>
</g>
<path class="st33" d="M177.4,249.3c-0.5,0-0.9,0.4-0.9,0.9v32.9c0,0.5,0.4,0.9,0.9,0.9s0.9-0.4,0.9-0.9v-32.9
	C178.3,249.7,177.9,249.3,177.4,249.3z"/>
<path class="st34" d="M177.4,234.6c-2,0-4.8,7.7-4.8,10.6c0,2.9,3.4,6.3,4.8,6.3c1.4,0,4.8-3.3,4.8-6.3
	C182.2,242.3,179.3,234.6,177.4,234.6z"/>
<path class="st35" d="M183.6,294.2h-12.3c-0.5,0-0.9-0.4-1-0.9l-3.3-16.9h21l-3.3,16.9C184.5,293.9,184.1,294.2,183.6,294.2z"/>
<path class="st36" d="M182.3,276.5l-3.3,16.9c-0.1,0.5-0.5,0.9-1,0.9h5.6c0.5,0,0.9-0.4,1-0.9l3.3-16.9H182.3L182.3,276.5z"/>
<path class="st8" d="M189.5,279.5h-24.1c-0.3,0-0.6-0.3-0.6-0.6v-3c0-0.3,0.2-0.6,0.6-0.6h24.1c0.3,0,0.6,0.3,0.6,0.6v3
	C190,279.2,189.8,279.5,189.5,279.5z"/>
<path class="st37" d="M189.5,275.3h-5.3v4.2h5.3c0.3,0,0.6-0.3,0.6-0.6v-3C190,275.6,189.8,275.3,189.5,275.3z"/>
<polygon class="st8" points="186.3,284.6 168.5,284.6 168.8,286.4 186,286.4 "/>
<polygon class="st37" points="180.7,284.6 180.4,286.4 186,286.4 186,286 186.3,284.6 "/>
<path class="st28" d="M182.2,245.2c0-2.9-2.8-10.6-4.8-10.6v16.9C178.7,251.5,182.2,248.2,182.2,245.2z"/>
<path class="st38" d="M333.7,401.3h135.6v-3.9c0-0.1-1.1-0.1-2.5-0.1H336.2c-1.4,0-2.5,0.1-2.5,0.1V401.3z"/>
<rect x="337.2" y="403.8" class="st15" width="9.8" height="1.6"/>
<rect x="337.2" y="408.9" class="st19" width="9.8" height="1.6"/>
<rect x="346.9" y="414" class="st19" width="9.8" height="1.6"/>
<rect x="358.3" y="414" class="st8" width="14.8" height="1.6"/>
<rect x="349.6" y="418.5" class="st15" width="9.8" height="1.6"/>
<rect x="360.8" y="418.5" class="st19" width="10" height="1.6"/>
<rect x="352.7" y="423.2" class="st19" width="14.8" height="1.6"/>
<rect x="369.1" y="423.2" class="st19" width="10" height="1.6"/>
<rect x="380.9" y="423.2" class="st19" width="14.8" height="1.6"/>
<rect x="358.3" y="428.3" class="st19" width="22.7" height="1.6"/>
<rect x="382.5" y="428.3" class="st15" width="22.7" height="1.6"/>
<rect x="352.7" y="432.8" class="st11" width="10" height="1.6"/>
<rect x="349.6" y="437.7" class="st19" width="10" height="1.6"/>
<rect x="349.6" y="442.9" class="st15" width="9.8" height="1.6"/>
<rect x="360.8" y="442.9" class="st19" width="13.4" height="1.6"/>
<rect x="352.7" y="447.6" class="st19" width="14.8" height="1.6"/>
<rect x="369.1" y="447.6" class="st8" width="7.8" height="1.6"/>
<rect x="378.4" y="447.6" class="st19" width="15.9" height="1.6"/>
<rect x="358.3" y="452.6" class="st19" width="17" height="1.6"/>
<rect x="376.9" y="452.6" class="st15" width="26.1" height="1.6"/>
<rect x="352.7" y="457.2" class="st19" width="10" height="1.6"/>
<rect x="349.6" y="462.1" class="st8" width="10" height="1.6"/>
<rect x="349.1" y="468.1" class="st19" width="9.8" height="1.6"/>
<rect x="352.2" y="472.8" class="st15" width="14.8" height="1.6"/>
<rect x="368.5" y="472.8" class="st19" width="10" height="1.6"/>
<circle class="st39" cx="338.2" cy="399.3" r="1.1"/>
<circle class="st12" cx="342" cy="399.3" r="1.1"/>
<circle class="st29" cx="345.8" cy="399.3" r="1.1"/>
<rect x="406.7" y="428.2" class="st19" width="10" height="1.6"/>
<rect x="396.3" y="447.6" class="st8" width="17" height="1.6"/>
<rect x="404.8" y="452.6" class="st19" width="17" height="1.6"/>
<rect x="365.3" y="457.2" class="st11" width="10" height="1.6"/>
<path class="st3" d="M151.5,303.6h164V296h-164V303.6z"/>
<path class="st2" d="M154.1,301.8h164v-7.6h-164V301.8z"/>
<polygon class="st40" points="200.8,537.1 200.8,632 200.8,669.8 224.1,669.8 224.1,537.1 "/>
<rect x="528.5" y="537.1" class="st40" width="122.4" height="132.7"/>
<rect x="535.1" y="544.1" class="st41" width="108.3" height="30.1"/>
<rect x="535.1" y="572.4" class="st42" width="108.3" height="6.3"/>
<rect x="535.1" y="627.9" class="st41" width="108.3" height="30.1"/>
<rect x="535.1" y="656.2" class="st42" width="108.3" height="6.3"/>
<rect x="535.5" y="578.7" class="st41" width="108.3" height="43"/>
<rect x="535.5" y="621.6" class="st42" width="108.3" height="6.3"/>
<rect x="571.7" y="549.2" class="st43" width="39.6" height="3.1"/>
<rect x="570.1" y="547.8" class="st19" width="39.6" height="3.1"/>
<rect x="571" y="583.8" class="st43" width="39.6" height="3.1"/>
<rect x="571" y="633.2" class="st43" width="39.6" height="3.1"/>
<rect x="569.7" y="582.3" class="st19" width="39.6" height="3.1"/>
<rect x="569.7" y="631.7" class="st19" width="39.6" height="3.1"/>
<polygon class="st44" points="224.1,539.8 224.1,634.7 224.1,672.5 226.3,672.5 226.3,539.8 "/>
<polygon class="st44" points="526.3,539.8 526.3,634.7 526.3,672.5 528.5,672.5 528.5,539.8 "/>
<path class="st44" d="M188.1,539.8H662v-2.7H188.1V539.8z"/>
</svg>
