<?xml version="1.0" encoding="utf-8"?>
<!-- Generator: Adobe Illustrator 21.1.0, SVG Export Plug-In . SVG Version: 6.00 Build 0)  -->
<svg version="1.1" id="Layer_1" xmlns="http://www.w3.org/2000/svg" xmlns:xlink="http://www.w3.org/1999/xlink" x="0px" y="0px"
	 viewBox="0 0 550 280" style="enable-background:new 0 0 550 280;" xml:space="preserve">
<style type="text/css">
	.st0{opacity:0.4;}
	.st1{fill:#444444;}
	.st2{opacity:0.4;fill:#444444;}
	.st3{fill:#C8C8C8;}
	.st4{fill:#FFFFFF;}
	.st5{fill:#373737;}
	.st6{fill:#5A5A5A;}
	.st7{fill:#F7C443;}
	.st8{fill:#969696;}
	.st9{fill:#ECF0F1;}
	.st10{fill:#9E0059;}
	.st11{fill:#EE6242;}
	.st12{fill:#D0D1D4;}
	.st13{fill:#8C06C4;}
	.st14{fill:#464646;}
	.st15{fill:#DD2D4A;}
	.st16{fill:#B4B4B4;}
	.st17{fill:#C5283D;}
	.st18{fill:#80C56E;}
	.st19{fill:#646464;}
	.st20{fill:#4C4C4C;}
	.st21{fill:#707070;}
	.st22{opacity:0.5;fill:#2D2D2D;}
	.st23{opacity:0.4;fill:#5A5A5A;}
</style>
<g class="st0">
	<path class="st1" d="M185.2,5.6h130.6c4.3,0,7.8,3.7,7.8,8.1v83.7H177.4V13.7C177.4,9.3,180.9,5.6,185.2,5.6L185.2,5.6z"/>
	<path class="st1" d="M182.7,92h135.6V13.8c0-1.4-1.1-2.6-2.5-2.6H185.2c-1.4,0-2.5,1.2-2.5,2.6C182.7,13.8,182.7,92,182.7,92z"/>
	<path class="st1" d="M323.6,97.5v8.9c0,4.5-3.9,8.1-8.6,8.1H186c-4.7,0-8.6-3.7-8.6-8.1v-8.9H323.6z"/>
</g>
<path class="st2" d="M143.1,114.6h14.7c0.8,0,1.5,0.7,1.5,1.6v19.1c0,0.9-0.7,1.6-1.5,1.6h-14.7c-0.8,0-1.5-0.7-1.5-1.6v-19.1
	C141.6,115.2,142.3,114.6,143.1,114.6z"/>
<path class="st3" d="M237.7,110.8l-3.8,13.9l-12.6,10v2.1h29.3h29.3v-2.1l-12.6-10l-3.8-13.9l-12.9-0.2L237.7,110.8L237.7,110.8z"/>
<path class="st4" d="M221.3,135.7v1.1h29.3h29.3v-1.1H221.3L221.3,135.7z"/>
<g>
	<path class="st5" d="M185.2,1.7h130.6c4.3,0,7.8,3.7,7.8,8.1v83.7H177.4V9.8C177.4,5.4,180.9,1.7,185.2,1.7L185.2,1.7z"/>
	<path class="st6" d="M182.7,88.1h135.6V9.9c0-1.4-1.1-2.6-2.5-2.6H185.2c-1.4,0-2.5,1.2-2.5,2.6C182.7,9.9,182.7,88.1,182.7,88.1z"
		/>
	<path class="st4" d="M323.6,93.6v8.9c0,4.5-3.9,8.1-8.6,8.1H186c-4.7,0-8.6-3.7-8.6-8.1v-8.9H323.6z"/>
</g>
<path class="st1" d="M37.1,144.4H511v-7.6H37.1V144.4z"/>
<path class="st4" d="M118,64.6c2.9-3,2.9-7.9-0.1-11c-2-2.1-4.8-2.8-7.3-2.1l-2.4-2.6c-0.3-0.3-0.8-0.3-1.1,0l-3.9,4
	c-0.3,0.3-0.3,0.8,0,1.1l2.3,2.4c-0.9,2.7-0.3,5.9,1.8,8.1C110.3,67.5,115.1,67.6,118,64.6L118,64.6z"/>
<path class="st7" d="M108.4,43.1l-5.6-5.8c-1.9-2-5-2-7,0l-4,4.1c-1.9,2-1.9,5.3,0,7.3l5.6,5.8c-1.3,5.2-0.1,11.3,5.2,16.8
	l21.9-22.6C119.3,43.1,113.4,41.8,108.4,43.1L108.4,43.1z"/>
<path class="st6" d="M96.5,44.2L73.9,85.1v47.2h7.6l-3.2-47.2l21.2-39.3C100.2,44,97.5,42.7,96.5,44.2z"/>
<g>
	<path class="st7" d="M104.4,132.3H64.8c-2.9,0-6.5,4.6-3.5,4.6h45.5C109.7,136.9,107.3,132.3,104.4,132.3z"/>
	<path class="st7" d="M76.1,81.9c-1.7,0-3.2,1.5-3.2,3.3s1.4,3.3,3.2,3.3c1.7,0,3.2-1.5,3.2-3.3C79.2,83.4,77.8,81.9,76.1,81.9z"/>
</g>
<path class="st8" d="M100.5,130.9l-8.1-1.4v2.8h8.1V130.9z"/>
<path class="st4" d="M141.7,114.6h14.7c0.8,0,1.5,0.7,1.5,1.6v19.1c0,0.9-0.7,1.6-1.5,1.6h-14.7c-0.8,0-1.5-0.7-1.5-1.6v-19.1
	C140.2,115.2,140.9,114.6,141.7,114.6z"/>
<g>
	<path class="st9" d="M157.9,118.9h4.1c1.4,0,2.5,1,2.5,2.2v10.6c0,1.2-1.1,2.2-2.5,2.2h-4.1v-1.8h4.1c0.2,0,0.7-0.2,0.7-0.5V121
		c0-0.3-0.5-0.5-0.7-0.5h-4.1V118.9z"/>
	<path class="st9" d="M155.9,136.8v-22.2h0.5c0.8,0,1.5,0.7,1.5,1.5v19.2c0,0.8-0.7,1.5-1.5,1.5H155.9z"/>
</g>
<path class="st10" d="M146.1,125h4.4v4.1h-4.4V125z"/>
<path class="st10" d="M146.1,125h4.4l-0.2-0.9h-3.8L146.1,125z"/>
<path class="st11" d="M148.5,114.6v10c0,0.1-0.3,0.1-0.3,0v-10L148.5,114.6L148.5,114.6z"/>
<path class="st6" d="M37.1,147.1H511v-2.7H37.1V147.1z"/>
<path class="st12" d="M250.5,104.3c1.4,0,2.5-1.2,2.5-2.6s-1.1-2.6-2.5-2.6s-2.5,1.2-2.5,2.6C248.1,103.2,249.2,104.3,250.5,104.3z"
	/>
<path class="st13" d="M399.7,109.1h47.7v1.7c-2.3,3-1.9,6.3,0,8.8v1.7h-47.7C392.2,121.2,392.2,109.1,399.7,109.1z"/>
<path class="st4" d="M447.3,119.6c-1.9-2.9-2.1-5.9,0-8.8h-47.7c-2.2,0-4.1,2-4.1,4.4s1.8,4.4,4.1,4.4H447.3L447.3,119.6z"/>
<g>
	<path class="st9" d="M446.9,111.5c0.1-0.2,0.3-0.5,0.5-0.7h-47.7c-4.6,0-5.8,6.8-1.2,8.6c-3.1-1.6-2-7,1.3-7.9H446.9L446.9,111.5z"
		/>
	<path class="st9" d="M446.4,112.3h-49.8c0.1-0.1,0.2-0.2,0.3-0.3h49.7C446.5,112.1,446.5,112.2,446.4,112.3L446.4,112.3z
		 M396.2,112.9L396.2,112.9c-0.1,0.1-0.1,0.2-0.2,0.3h50.1c0-0.1,0.1-0.2,0.1-0.3H396.2z M395.8,113.9L395.8,113.9
		c0,0.1-0.1,0.2-0.1,0.3h50.2c0-0.1,0-0.2,0.1-0.3H395.8z M395.6,114.8L395.6,114.8c0,0.1,0,0.2,0,0.3l0,0h50.2c0-0.1,0-0.2,0-0.3
		H395.6L395.6,114.8z M395.6,115.8L395.6,115.8c0,0.1,0,0.2,0.1,0.3h50.2c0-0.1,0-0.2,0-0.3H395.6z M395.9,116.8L395.9,116.8
		c0,0.1,0.1,0.2,0.1,0.3h50c0-0.1-0.1-0.2-0.1-0.3H395.9z M396.4,117.7L396.4,117.7c0.1,0.1,0.2,0.2,0.2,0.3h49.8
		c-0.1-0.1-0.1-0.2-0.1-0.3H396.4L396.4,117.7z M397.2,118.7L397.2,118.7c0.2,0.1,0.3,0.2,0.5,0.3H447c-0.1-0.1-0.1-0.2-0.2-0.3
		H397.2z"/>
</g>
<path class="st10" d="M451.4,121.2h-55.3v2.1c2.6,3.8,2.2,8.1,0,11.3v2.1h55.3C460.1,136.8,460.1,121.2,451.4,121.2L451.4,121.2z"/>
<path class="st4" d="M396.1,134.6c2.2-3.8,2.4-7.5,0-11.3h55.3c2.6,0,4.7,2.5,4.7,5.6s-2.1,5.6-4.7,5.6h-55.3V134.6z"/>
<g>
	<path class="st9" d="M396.7,124.3c-0.2-0.3-0.3-0.6-0.5-0.9h55.3c5.3,0,6.8,8.7,1.4,11c3.6-2,2.3-9-1.5-10.1H396.7z"/>
	<path class="st9" d="M397.2,125.4H455c-0.1-0.1-0.2-0.3-0.3-0.4H397C397.1,125.1,397.2,125.2,397.2,125.4L397.2,125.4z
		 M455.5,126.2L455.5,126.2c0.1,0.1,0.1,0.3,0.2,0.4h-58.1c0-0.1-0.1-0.3-0.1-0.4H455.5L455.5,126.2z M456,127.4L456,127.4
		c0,0.1,0.1,0.3,0.1,0.4h-58.2c0-0.1,0-0.3-0.1-0.4H456z M456.1,128.6L456.1,128.6c0,0.1,0,0.3,0,0.4l0,0h-58.2c0-0.1,0-0.3,0-0.4
		H456.1L456.1,128.6z M456.1,129.8L456.1,129.8c0,0.1,0,0.3-0.1,0.4h-58.2c0-0.1,0-0.3,0-0.4H456.1L456.1,129.8z M455.8,131.1
		L455.8,131.1c0,0.1-0.1,0.3-0.2,0.4h-58.1c0-0.1,0.1-0.3,0.1-0.4H455.8L455.8,131.1z M455.3,132.3L455.3,132.3
		c-0.1,0.1-0.2,0.3-0.3,0.4h-57.8c0.1-0.1,0.1-0.3,0.2-0.4H455.3z M454.2,133.5L454.2,133.5c-0.2,0.2-0.4,0.3-0.6,0.4h-57.1
		c0.1-0.1,0.2-0.3,0.2-0.4H454.2z"/>
</g>
<path class="st7" d="M443,96.9h-36.8v1.7c1.7,3,1.5,6.3,0,8.8v1.7H443C448.8,109.1,448.8,96.9,443,96.9L443,96.9z"/>
<path class="st4" d="M406.2,107.4c1.5-2.9,1.6-5.9,0-8.8H443c1.7,0,3.2,2,3.2,4.4s-1.4,4.4-3.2,4.4H406.2L406.2,107.4z"/>
<g>
	<path class="st9" d="M406.6,99.3c-0.1-0.2-0.2-0.5-0.4-0.7H443c3.5,0,4.5,6.8,1,8.6c2.4-1.6,1.5-7-1-7.9H406.6z"/>
	<path class="st9" d="M406.9,100.1h38.5c-0.1-0.1-0.1-0.2-0.2-0.3h-38.4C406.9,99.9,406.9,100,406.9,100.1z M445.7,100.7
		L445.7,100.7c0,0.1,0.1,0.2,0.1,0.3h-38.6c0-0.1-0.1-0.2-0.1-0.3H445.7z M446,101.7L446,101.7c0,0.1,0,0.2,0.1,0.3h-38.7
		c0-0.1,0-0.2,0-0.3H446L446,101.7z M446.2,102.7L446.2,102.7c0,0.1,0,0.2,0,0.3l0,0h-38.7c0-0.1,0-0.2,0-0.3H446.2L446.2,102.7z
		 M446.1,103.6L446.1,103.6c0,0.1,0,0.2,0,0.3h-38.7c0-0.1,0-0.2,0-0.3H446.1z M446,104.6L446,104.6c0,0.1-0.1,0.2-0.1,0.3h-38.6
		c0-0.1,0-0.2,0.1-0.3H446L446,104.6z M445.6,105.5L445.6,105.5c-0.1,0.1-0.1,0.2-0.2,0.3h-38.5c0-0.1,0.1-0.2,0.1-0.3H445.6z
		 M444.9,106.5L444.9,106.5c-0.1,0.1-0.2,0.2-0.4,0.3h-38c0.1-0.1,0.1-0.2,0.2-0.3H444.9z"/>
</g>
<path class="st14" d="M182.7,11.3h135.6V7.4c0-0.1-1.1-0.1-2.5-0.1H185.2c-1.4,0-2.5,0.1-2.5,0.1V11.3z"/>
<rect x="186.2" y="13.8" class="st15" width="9.8" height="1.6"/>
<rect x="186.2" y="18.9" class="st16" width="9.8" height="1.6"/>
<rect x="195.9" y="24" class="st16" width="9.8" height="1.6"/>
<rect x="207.3" y="24" class="st7" width="14.8" height="1.6"/>
<rect x="198.6" y="28.5" class="st15" width="9.8" height="1.6"/>
<rect x="209.8" y="28.5" class="st16" width="10" height="1.6"/>
<rect x="201.7" y="33.2" class="st16" width="14.8" height="1.6"/>
<rect x="218.1" y="33.2" class="st16" width="10" height="1.6"/>
<rect x="229.9" y="33.2" class="st16" width="14.8" height="1.6"/>
<rect x="207.3" y="38.3" class="st16" width="22.7" height="1.6"/>
<rect x="231.5" y="38.3" class="st15" width="22.7" height="1.6"/>
<rect x="201.7" y="42.8" class="st10" width="10" height="1.6"/>
<rect x="198.6" y="47.7" class="st16" width="10" height="1.6"/>
<rect x="198.6" y="52.9" class="st15" width="9.8" height="1.6"/>
<rect x="209.8" y="52.9" class="st16" width="13.4" height="1.6"/>
<rect x="201.7" y="57.6" class="st16" width="14.8" height="1.6"/>
<rect x="218.1" y="57.6" class="st7" width="7.8" height="1.6"/>
<rect x="227.4" y="57.6" class="st16" width="15.9" height="1.6"/>
<rect x="207.3" y="62.6" class="st16" width="17" height="1.6"/>
<rect x="225.9" y="62.6" class="st15" width="26.1" height="1.6"/>
<rect x="201.7" y="67.2" class="st16" width="10" height="1.6"/>
<rect x="198.6" y="72.1" class="st7" width="10" height="1.6"/>
<rect x="198.1" y="78.1" class="st16" width="9.8" height="1.6"/>
<rect x="201.2" y="82.8" class="st15" width="14.8" height="1.6"/>
<rect x="217.5" y="82.8" class="st16" width="10" height="1.6"/>
<circle class="st17" cx="187.2" cy="9.3" r="1.1"/>
<circle class="st11" cx="191" cy="9.3" r="1.1"/>
<circle class="st18" cx="194.8" cy="9.3" r="1.1"/>
<rect x="255.7" y="38.2" class="st16" width="10" height="1.6"/>
<rect x="245.3" y="57.6" class="st7" width="17" height="1.6"/>
<rect x="253.8" y="62.6" class="st16" width="17" height="1.6"/>
<rect x="214.3" y="67.2" class="st10" width="10" height="1.6"/>
<polygon class="st19" points="49.8,147.1 49.8,242 49.8,279.8 73.1,279.8 73.1,147.1 "/>
<rect x="377.5" y="147.1" class="st19" width="122.4" height="132.7"/>
<rect x="384.1" y="154.1" class="st20" width="108.3" height="30.1"/>
<rect x="384.1" y="182.4" class="st21" width="108.3" height="6.3"/>
<rect x="384.1" y="237.9" class="st20" width="108.3" height="30.1"/>
<rect x="384.1" y="266.2" class="st21" width="108.3" height="6.3"/>
<rect x="384.5" y="188.7" class="st20" width="108.3" height="43"/>
<rect x="384.5" y="231.6" class="st21" width="108.3" height="6.3"/>
<rect x="420.7" y="159.2" class="st22" width="39.6" height="3.1"/>
<rect x="419.1" y="157.8" class="st16" width="39.6" height="3.1"/>
<rect x="420" y="193.8" class="st22" width="39.6" height="3.1"/>
<rect x="420" y="243.2" class="st22" width="39.6" height="3.1"/>
<rect x="418.7" y="192.3" class="st16" width="39.6" height="3.1"/>
<rect x="418.7" y="241.7" class="st16" width="39.6" height="3.1"/>
<polygon class="st23" points="73.1,149.8 73.1,244.7 73.1,282.5 75.3,282.5 75.3,149.8 "/>
<polygon class="st23" points="375.3,149.8 375.3,244.7 375.3,282.5 377.5,282.5 377.5,149.8 "/>
<path class="st23" d="M37.1,149.8H511v-2.7H37.1V149.8z"/>
</svg>
